%TF.GenerationSoftware,KiCad,Pcbnew,8.0.6*%
%TF.CreationDate,2024-11-15T02:05:07+00:00*%
%TF.ProjectId,keychron_hitbox,6b657963-6872-46f6-9e5f-686974626f78,rev?*%
%TF.SameCoordinates,Original*%
%TF.FileFunction,Drillmap*%
%TF.FilePolarity,Positive*%
%FSLAX45Y45*%
G04 Gerber Fmt 4.5, Leading zero omitted, Abs format (unit mm)*
G04 Created by KiCad (PCBNEW 8.0.6) date 2024-11-15 02:05:07*
%MOMM*%
%LPD*%
G01*
G04 APERTURE LIST*
%ADD10C,0.050000*%
%ADD11C,0.200000*%
%ADD12C,0.100000*%
%ADD13C,0.220000*%
G04 APERTURE END LIST*
D10*
X5300000Y-15000000D02*
X24150000Y-15000000D01*
X12946000Y-2500000D02*
X5300000Y-2500000D01*
X4300000Y-14000000D02*
X4300000Y-3500000D01*
X25150000Y-14000000D02*
G75*
G02*
X24150000Y-15000000I-1000000J0D01*
G01*
X24150000Y-2500000D02*
G75*
G02*
X25150000Y-3500000I0J-1000000D01*
G01*
X14189000Y-2500000D02*
X24150000Y-2500000D01*
X12946000Y-4735000D02*
X12946000Y-2500000D01*
X4300000Y-3500000D02*
G75*
G02*
X5300000Y-2500000I1000000J0D01*
G01*
X14189000Y-2500000D02*
X14189000Y-4735000D01*
X14189000Y-4735000D02*
X12946000Y-4735000D01*
X5300000Y-15000000D02*
G75*
G02*
X4300000Y-14000000I0J1000000D01*
G01*
X25150000Y-3500000D02*
X25150000Y-14000000D01*
X18350000Y-3015000D02*
X20800000Y-3015000D01*
X20800000Y-5015000D01*
X18350000Y-5015000D01*
X18350000Y-3015000D01*
D11*
D12*
X4986000Y-10134000D02*
X5016000Y-10164000D01*
X5016000Y-10134000D02*
X4986000Y-10164000D01*
X5301000Y-8875000D02*
X5331000Y-8905000D01*
X5331000Y-8875000D02*
X5301000Y-8905000D01*
X6432000Y-7630000D02*
X6462000Y-7660000D01*
X6462000Y-7630000D02*
X6432000Y-7660000D01*
X6503500Y-7861500D02*
X6533500Y-7891500D01*
X6533500Y-7861500D02*
X6503500Y-7891500D01*
X8724000Y-7892000D02*
X8754000Y-7922000D01*
X8754000Y-7892000D02*
X8724000Y-7922000D01*
X8965000Y-6141000D02*
X8995000Y-6171000D01*
X8995000Y-6141000D02*
X8965000Y-6171000D01*
X9227000Y-7497000D02*
X9257000Y-7527000D01*
X9257000Y-7497000D02*
X9227000Y-7527000D01*
X9512000Y-4362000D02*
X9542000Y-4392000D01*
X9542000Y-4362000D02*
X9512000Y-4392000D01*
X9775000Y-4680000D02*
X9805000Y-4710000D01*
X9805000Y-4680000D02*
X9775000Y-4710000D01*
X10440000Y-7152000D02*
X10470000Y-7182000D01*
X10470000Y-7152000D02*
X10440000Y-7182000D01*
X10440000Y-7665000D02*
X10470000Y-7695000D01*
X10470000Y-7665000D02*
X10440000Y-7695000D01*
X10474000Y-7892000D02*
X10504000Y-7922000D01*
X10504000Y-7892000D02*
X10474000Y-7922000D01*
X10495500Y-8187500D02*
X10525500Y-8217500D01*
X10525500Y-8187500D02*
X10495500Y-8217500D01*
X10906000Y-6636000D02*
X10936000Y-6666000D01*
X10936000Y-6636000D02*
X10906000Y-6666000D01*
X11743000Y-7083000D02*
X11773000Y-7113000D01*
X11773000Y-7083000D02*
X11743000Y-7113000D01*
X11748000Y-5175000D02*
X11778000Y-5205000D01*
X11778000Y-5175000D02*
X11748000Y-5205000D01*
X11893000Y-8455000D02*
X11923000Y-8485000D01*
X11923000Y-8455000D02*
X11893000Y-8485000D01*
X13165000Y-10875000D02*
X13195000Y-10905000D01*
X13195000Y-10875000D02*
X13165000Y-10905000D01*
X13165000Y-13100000D02*
X13195000Y-13130000D01*
X13195000Y-13100000D02*
X13165000Y-13130000D01*
X14269000Y-10054000D02*
X14299000Y-10084000D01*
X14299000Y-10054000D02*
X14269000Y-10084000D01*
X14626000Y-7083000D02*
X14656000Y-7113000D01*
X14656000Y-7083000D02*
X14626000Y-7113000D01*
X14964000Y-7612000D02*
X14994000Y-7642000D01*
X14994000Y-7612000D02*
X14964000Y-7642000D01*
X15301000Y-5430000D02*
X15331000Y-5460000D01*
X15331000Y-5430000D02*
X15301000Y-5460000D01*
X15302000Y-3346500D02*
X15332000Y-3376500D01*
X15332000Y-3346500D02*
X15302000Y-3376500D01*
X15426000Y-5341000D02*
X15456000Y-5371000D01*
X15456000Y-5341000D02*
X15426000Y-5371000D01*
X15435000Y-5775000D02*
X15465000Y-5805000D01*
X15465000Y-5775000D02*
X15435000Y-5805000D01*
X15559000Y-5238000D02*
X15589000Y-5268000D01*
X15589000Y-5238000D02*
X15559000Y-5268000D01*
X15564000Y-5759000D02*
X15594000Y-5789000D01*
X15594000Y-5759000D02*
X15564000Y-5789000D01*
X15666000Y-5756000D02*
X15696000Y-5786000D01*
X15696000Y-5756000D02*
X15666000Y-5786000D01*
X15693000Y-5141000D02*
X15723000Y-5171000D01*
X15723000Y-5141000D02*
X15693000Y-5171000D01*
X15781000Y-5747000D02*
X15811000Y-5777000D01*
X15811000Y-5747000D02*
X15781000Y-5777000D01*
X15789000Y-12477000D02*
X15819000Y-12507000D01*
X15819000Y-12477000D02*
X15789000Y-12507000D01*
X16642000Y-3475000D02*
X16672000Y-3505000D01*
X16672000Y-3475000D02*
X16642000Y-3505000D01*
X16849000Y-5425000D02*
X16879000Y-5455000D01*
X16879000Y-5425000D02*
X16849000Y-5455000D01*
X17095000Y-9465000D02*
X17125000Y-9495000D01*
X17125000Y-9465000D02*
X17095000Y-9495000D01*
X17104000Y-7106000D02*
X17134000Y-7136000D01*
X17134000Y-7106000D02*
X17104000Y-7136000D01*
X17393000Y-7710000D02*
X17423000Y-7740000D01*
X17423000Y-7710000D02*
X17393000Y-7740000D01*
X17730000Y-7710000D02*
X17760000Y-7740000D01*
X17760000Y-7710000D02*
X17730000Y-7740000D01*
X18092000Y-11689000D02*
X18122000Y-11719000D01*
X18122000Y-11689000D02*
X18092000Y-11719000D01*
X18092000Y-12666000D02*
X18122000Y-12696000D01*
X18122000Y-12666000D02*
X18092000Y-12696000D01*
X18620000Y-10386000D02*
X18650000Y-10416000D01*
X18650000Y-10386000D02*
X18620000Y-10416000D01*
X18950000Y-7710000D02*
X18980000Y-7740000D01*
X18980000Y-7710000D02*
X18950000Y-7740000D01*
X19026000Y-6096000D02*
X19056000Y-6126000D01*
X19056000Y-6096000D02*
X19026000Y-6126000D01*
X19405000Y-7984000D02*
X19435000Y-8014000D01*
X19435000Y-7984000D02*
X19405000Y-8014000D01*
X19405000Y-8287000D02*
X19435000Y-8317000D01*
X19435000Y-8287000D02*
X19405000Y-8317000D01*
X19414000Y-9593000D02*
X19444000Y-9623000D01*
X19444000Y-9593000D02*
X19414000Y-9623000D01*
X19615000Y-6685000D02*
X19645000Y-6715000D01*
X19645000Y-6685000D02*
X19615000Y-6715000D01*
X19945000Y-9430000D02*
X19975000Y-9460000D01*
X19975000Y-9430000D02*
X19945000Y-9460000D01*
X20090000Y-7060000D02*
X20120000Y-7090000D01*
X20120000Y-7060000D02*
X20090000Y-7090000D01*
X21737000Y-6153000D02*
X21767000Y-6183000D01*
X21767000Y-6153000D02*
X21737000Y-6183000D01*
X22403500Y-6893500D02*
X22433500Y-6923500D01*
X22433500Y-6893500D02*
X22403500Y-6923500D01*
X22729000Y-7055000D02*
X22759000Y-7085000D01*
X22759000Y-7055000D02*
X22729000Y-7085000D01*
X22845000Y-8437000D02*
X22875000Y-8467000D01*
X22875000Y-8437000D02*
X22845000Y-8467000D01*
X22845000Y-9430000D02*
X22875000Y-9460000D01*
X22875000Y-9430000D02*
X22845000Y-9460000D01*
X6670500Y-10047000D02*
G75*
G02*
X6637500Y-10047000I-16500J0D01*
G01*
X6637500Y-10047000D02*
G75*
G02*
X6670500Y-10047000I16500J0D01*
G01*
X8087500Y-7441000D02*
G75*
G02*
X8054500Y-7441000I-16500J0D01*
G01*
X8054500Y-7441000D02*
G75*
G02*
X8087500Y-7441000I16500J0D01*
G01*
X10168500Y-5718000D02*
G75*
G02*
X10135500Y-5718000I-16500J0D01*
G01*
X10135500Y-5718000D02*
G75*
G02*
X10168500Y-5718000I16500J0D01*
G01*
X10314500Y-6736000D02*
G75*
G02*
X10281500Y-6736000I-16500J0D01*
G01*
X10281500Y-6736000D02*
G75*
G02*
X10314500Y-6736000I16500J0D01*
G01*
X10536500Y-5560000D02*
G75*
G02*
X10503500Y-5560000I-16500J0D01*
G01*
X10503500Y-5560000D02*
G75*
G02*
X10536500Y-5560000I16500J0D01*
G01*
X10696500Y-5430000D02*
G75*
G02*
X10663500Y-5430000I-16500J0D01*
G01*
X10663500Y-5430000D02*
G75*
G02*
X10696500Y-5430000I16500J0D01*
G01*
X10726500Y-5930000D02*
G75*
G02*
X10693500Y-5930000I-16500J0D01*
G01*
X10693500Y-5930000D02*
G75*
G02*
X10726500Y-5930000I16500J0D01*
G01*
X10916500Y-5270000D02*
G75*
G02*
X10883500Y-5270000I-16500J0D01*
G01*
X10883500Y-5270000D02*
G75*
G02*
X10916500Y-5270000I16500J0D01*
G01*
X11422500Y-4510000D02*
G75*
G02*
X11389500Y-4510000I-16500J0D01*
G01*
X11389500Y-4510000D02*
G75*
G02*
X11422500Y-4510000I16500J0D01*
G01*
X13517500Y-8240000D02*
G75*
G02*
X13484500Y-8240000I-16500J0D01*
G01*
X13484500Y-8240000D02*
G75*
G02*
X13517500Y-8240000I16500J0D01*
G01*
X14262500Y-6100000D02*
G75*
G02*
X14229500Y-6100000I-16500J0D01*
G01*
X14229500Y-6100000D02*
G75*
G02*
X14262500Y-6100000I16500J0D01*
G01*
X14760500Y-13349000D02*
G75*
G02*
X14727500Y-13349000I-16500J0D01*
G01*
X14727500Y-13349000D02*
G75*
G02*
X14760500Y-13349000I16500J0D01*
G01*
X14806500Y-4630000D02*
G75*
G02*
X14773500Y-4630000I-16500J0D01*
G01*
X14773500Y-4630000D02*
G75*
G02*
X14806500Y-4630000I16500J0D01*
G01*
X15326500Y-3120000D02*
G75*
G02*
X15293500Y-3120000I-16500J0D01*
G01*
X15293500Y-3120000D02*
G75*
G02*
X15326500Y-3120000I16500J0D01*
G01*
X15759500Y-6780000D02*
G75*
G02*
X15726500Y-6780000I-16500J0D01*
G01*
X15726500Y-6780000D02*
G75*
G02*
X15759500Y-6780000I16500J0D01*
G01*
X15886500Y-10152000D02*
G75*
G02*
X15853500Y-10152000I-16500J0D01*
G01*
X15853500Y-10152000D02*
G75*
G02*
X15886500Y-10152000I16500J0D01*
G01*
X16234500Y-6832000D02*
G75*
G02*
X16201500Y-6832000I-16500J0D01*
G01*
X16201500Y-6832000D02*
G75*
G02*
X16234500Y-6832000I16500J0D01*
G01*
X16243500Y-7492000D02*
G75*
G02*
X16210500Y-7492000I-16500J0D01*
G01*
X16210500Y-7492000D02*
G75*
G02*
X16243500Y-7492000I16500J0D01*
G01*
X16746500Y-8110000D02*
G75*
G02*
X16713500Y-8110000I-16500J0D01*
G01*
X16713500Y-8110000D02*
G75*
G02*
X16746500Y-8110000I16500J0D01*
G01*
X17116500Y-8110000D02*
G75*
G02*
X17083500Y-8110000I-16500J0D01*
G01*
X17083500Y-8110000D02*
G75*
G02*
X17116500Y-8110000I16500J0D01*
G01*
X17744500Y-12412000D02*
G75*
G02*
X17711500Y-12412000I-16500J0D01*
G01*
X17711500Y-12412000D02*
G75*
G02*
X17744500Y-12412000I16500J0D01*
G01*
X18771500Y-9665000D02*
G75*
G02*
X18738500Y-9665000I-16500J0D01*
G01*
X18738500Y-9665000D02*
G75*
G02*
X18771500Y-9665000I16500J0D01*
G01*
X18973500Y-7055000D02*
G75*
G02*
X18940500Y-7055000I-16500J0D01*
G01*
X18940500Y-7055000D02*
G75*
G02*
X18973500Y-7055000I16500J0D01*
G01*
X21594500Y-9661000D02*
G75*
G02*
X21561500Y-9661000I-16500J0D01*
G01*
X21561500Y-9661000D02*
G75*
G02*
X21594500Y-9661000I16500J0D01*
G01*
X21748500Y-6986000D02*
G75*
G02*
X21715500Y-6986000I-16500J0D01*
G01*
X21715500Y-6986000D02*
G75*
G02*
X21748500Y-6986000I16500J0D01*
G01*
X24165500Y-6001000D02*
G75*
G02*
X24132500Y-6001000I-16500J0D01*
G01*
X24132500Y-6001000D02*
G75*
G02*
X24165500Y-6001000I16500J0D01*
G01*
X24540500Y-9617000D02*
G75*
G02*
X24507500Y-9617000I-16500J0D01*
G01*
X24507500Y-9617000D02*
G75*
G02*
X24540500Y-9617000I16500J0D01*
G01*
X12805000Y-2813500D02*
X12805000Y-2893500D01*
X12765000Y-2853500D02*
X12845000Y-2853500D01*
X12805000Y-3067500D02*
X12805000Y-3147500D01*
X12765000Y-3107500D02*
X12845000Y-3107500D01*
X12805000Y-3321500D02*
X12805000Y-3401500D01*
X12765000Y-3361500D02*
X12845000Y-3361500D01*
X12805000Y-3575500D02*
X12805000Y-3655500D01*
X12765000Y-3615500D02*
X12845000Y-3615500D01*
X12805000Y-3829500D02*
X12805000Y-3909500D01*
X12765000Y-3869500D02*
X12845000Y-3869500D01*
X12805000Y-4083500D02*
X12805000Y-4163500D01*
X12765000Y-4123500D02*
X12845000Y-4123500D01*
X12805000Y-4337500D02*
X12805000Y-4417500D01*
X12765000Y-4377500D02*
X12845000Y-4377500D01*
X12805000Y-4591500D02*
X12805000Y-4671500D01*
X12765000Y-4631500D02*
X12845000Y-4631500D01*
X12805000Y-4845500D02*
X12805000Y-4925500D01*
X12765000Y-4885500D02*
X12845000Y-4885500D01*
X13059000Y-4845500D02*
X13059000Y-4925500D01*
X13019000Y-4885500D02*
X13099000Y-4885500D01*
X13313000Y-4845500D02*
X13313000Y-4925500D01*
X13273000Y-4885500D02*
X13353000Y-4885500D01*
X13567000Y-4845500D02*
X13567000Y-4925500D01*
X13527000Y-4885500D02*
X13607000Y-4885500D01*
X13821000Y-4845500D02*
X13821000Y-4925500D01*
X13781000Y-4885500D02*
X13861000Y-4885500D01*
X14075000Y-4845500D02*
X14075000Y-4925500D01*
X14035000Y-4885500D02*
X14115000Y-4885500D01*
X14329000Y-2813500D02*
X14329000Y-2893500D01*
X14289000Y-2853500D02*
X14369000Y-2853500D01*
X14329000Y-3067500D02*
X14329000Y-3147500D01*
X14289000Y-3107500D02*
X14369000Y-3107500D01*
X14329000Y-3321500D02*
X14329000Y-3401500D01*
X14289000Y-3361500D02*
X14369000Y-3361500D01*
X14329000Y-3575500D02*
X14329000Y-3655500D01*
X14289000Y-3615500D02*
X14369000Y-3615500D01*
X14329000Y-3829500D02*
X14329000Y-3909500D01*
X14289000Y-3869500D02*
X14369000Y-3869500D01*
X14329000Y-4083500D02*
X14329000Y-4163500D01*
X14289000Y-4123500D02*
X14369000Y-4123500D01*
X14329000Y-4337500D02*
X14329000Y-4417500D01*
X14289000Y-4377500D02*
X14369000Y-4377500D01*
X14329000Y-4591500D02*
X14329000Y-4671500D01*
X14289000Y-4631500D02*
X14369000Y-4631500D01*
X14329000Y-4845500D02*
X14329000Y-4925500D01*
X14289000Y-4885500D02*
X14369000Y-4885500D01*
X19223356Y-2890356D02*
X19223356Y-2819644D01*
X19152644Y-2819644D01*
X19152644Y-2890356D01*
X19223356Y-2890356D01*
X19477356Y-2890356D02*
X19477356Y-2819644D01*
X19406644Y-2819644D01*
X19406644Y-2890356D01*
X19477356Y-2890356D01*
X19731356Y-2890356D02*
X19731356Y-2819644D01*
X19660644Y-2819644D01*
X19660644Y-2890356D01*
X19731356Y-2890356D01*
X19985356Y-2890356D02*
X19985356Y-2819644D01*
X19914644Y-2819644D01*
X19914644Y-2890356D01*
X19985356Y-2890356D01*
D13*
X5250000Y-3360000D02*
X5360000Y-3250000D01*
X5250000Y-3140000D01*
X5140000Y-3250000D01*
X5250000Y-3360000D01*
X5250000Y-14360000D02*
X5360000Y-14250000D01*
X5250000Y-14140000D01*
X5140000Y-14250000D01*
X5250000Y-14360000D01*
X15750000Y-14360000D02*
X15860000Y-14250000D01*
X15750000Y-14140000D01*
X15640000Y-14250000D01*
X15750000Y-14360000D01*
X23750000Y-3360000D02*
X23860000Y-3250000D01*
X23750000Y-3140000D01*
X23640000Y-3250000D01*
X23750000Y-3360000D01*
X23750000Y-14360000D02*
X23860000Y-14250000D01*
X23750000Y-14140000D01*
X23640000Y-14250000D01*
X23750000Y-14360000D01*
D11*
X4558277Y-15313984D02*
X4558277Y-15113984D01*
X4558277Y-15113984D02*
X4605896Y-15113984D01*
X4605896Y-15113984D02*
X4634467Y-15123508D01*
X4634467Y-15123508D02*
X4653515Y-15142555D01*
X4653515Y-15142555D02*
X4663039Y-15161603D01*
X4663039Y-15161603D02*
X4672563Y-15199698D01*
X4672563Y-15199698D02*
X4672563Y-15228269D01*
X4672563Y-15228269D02*
X4663039Y-15266365D01*
X4663039Y-15266365D02*
X4653515Y-15285412D01*
X4653515Y-15285412D02*
X4634467Y-15304460D01*
X4634467Y-15304460D02*
X4605896Y-15313984D01*
X4605896Y-15313984D02*
X4558277Y-15313984D01*
X4758277Y-15313984D02*
X4758277Y-15180650D01*
X4758277Y-15218746D02*
X4767801Y-15199698D01*
X4767801Y-15199698D02*
X4777324Y-15190174D01*
X4777324Y-15190174D02*
X4796372Y-15180650D01*
X4796372Y-15180650D02*
X4815420Y-15180650D01*
X4882086Y-15313984D02*
X4882086Y-15180650D01*
X4882086Y-15113984D02*
X4872563Y-15123508D01*
X4872563Y-15123508D02*
X4882086Y-15133031D01*
X4882086Y-15133031D02*
X4891610Y-15123508D01*
X4891610Y-15123508D02*
X4882086Y-15113984D01*
X4882086Y-15113984D02*
X4882086Y-15133031D01*
X5005896Y-15313984D02*
X4986848Y-15304460D01*
X4986848Y-15304460D02*
X4977324Y-15285412D01*
X4977324Y-15285412D02*
X4977324Y-15113984D01*
X5110658Y-15313984D02*
X5091610Y-15304460D01*
X5091610Y-15304460D02*
X5082086Y-15285412D01*
X5082086Y-15285412D02*
X5082086Y-15113984D01*
X5339229Y-15313984D02*
X5339229Y-15113984D01*
X5339229Y-15113984D02*
X5405896Y-15256841D01*
X5405896Y-15256841D02*
X5472563Y-15113984D01*
X5472563Y-15113984D02*
X5472563Y-15313984D01*
X5653515Y-15313984D02*
X5653515Y-15209222D01*
X5653515Y-15209222D02*
X5643991Y-15190174D01*
X5643991Y-15190174D02*
X5624943Y-15180650D01*
X5624943Y-15180650D02*
X5586848Y-15180650D01*
X5586848Y-15180650D02*
X5567801Y-15190174D01*
X5653515Y-15304460D02*
X5634467Y-15313984D01*
X5634467Y-15313984D02*
X5586848Y-15313984D01*
X5586848Y-15313984D02*
X5567801Y-15304460D01*
X5567801Y-15304460D02*
X5558277Y-15285412D01*
X5558277Y-15285412D02*
X5558277Y-15266365D01*
X5558277Y-15266365D02*
X5567801Y-15247317D01*
X5567801Y-15247317D02*
X5586848Y-15237793D01*
X5586848Y-15237793D02*
X5634467Y-15237793D01*
X5634467Y-15237793D02*
X5653515Y-15228269D01*
X5748753Y-15180650D02*
X5748753Y-15380650D01*
X5748753Y-15190174D02*
X5767801Y-15180650D01*
X5767801Y-15180650D02*
X5805896Y-15180650D01*
X5805896Y-15180650D02*
X5824943Y-15190174D01*
X5824943Y-15190174D02*
X5834467Y-15199698D01*
X5834467Y-15199698D02*
X5843991Y-15218746D01*
X5843991Y-15218746D02*
X5843991Y-15275888D01*
X5843991Y-15275888D02*
X5834467Y-15294936D01*
X5834467Y-15294936D02*
X5824943Y-15304460D01*
X5824943Y-15304460D02*
X5805896Y-15313984D01*
X5805896Y-15313984D02*
X5767801Y-15313984D01*
X5767801Y-15313984D02*
X5748753Y-15304460D01*
X5929705Y-15294936D02*
X5939229Y-15304460D01*
X5939229Y-15304460D02*
X5929705Y-15313984D01*
X5929705Y-15313984D02*
X5920182Y-15304460D01*
X5920182Y-15304460D02*
X5929705Y-15294936D01*
X5929705Y-15294936D02*
X5929705Y-15313984D01*
X5929705Y-15190174D02*
X5939229Y-15199698D01*
X5939229Y-15199698D02*
X5929705Y-15209222D01*
X5929705Y-15209222D02*
X5920182Y-15199698D01*
X5920182Y-15199698D02*
X5929705Y-15190174D01*
X5929705Y-15190174D02*
X5929705Y-15209222D01*
D12*
X4267500Y-15627500D02*
X4297500Y-15657500D01*
X4297500Y-15627500D02*
X4267500Y-15657500D01*
D11*
X4596372Y-15533984D02*
X4615420Y-15533984D01*
X4615420Y-15533984D02*
X4634467Y-15543508D01*
X4634467Y-15543508D02*
X4643991Y-15553031D01*
X4643991Y-15553031D02*
X4653515Y-15572079D01*
X4653515Y-15572079D02*
X4663039Y-15610174D01*
X4663039Y-15610174D02*
X4663039Y-15657793D01*
X4663039Y-15657793D02*
X4653515Y-15695888D01*
X4653515Y-15695888D02*
X4643991Y-15714936D01*
X4643991Y-15714936D02*
X4634467Y-15724460D01*
X4634467Y-15724460D02*
X4615420Y-15733984D01*
X4615420Y-15733984D02*
X4596372Y-15733984D01*
X4596372Y-15733984D02*
X4577324Y-15724460D01*
X4577324Y-15724460D02*
X4567801Y-15714936D01*
X4567801Y-15714936D02*
X4558277Y-15695888D01*
X4558277Y-15695888D02*
X4548753Y-15657793D01*
X4548753Y-15657793D02*
X4548753Y-15610174D01*
X4548753Y-15610174D02*
X4558277Y-15572079D01*
X4558277Y-15572079D02*
X4567801Y-15553031D01*
X4567801Y-15553031D02*
X4577324Y-15543508D01*
X4577324Y-15543508D02*
X4596372Y-15533984D01*
X4748753Y-15714936D02*
X4758277Y-15724460D01*
X4758277Y-15724460D02*
X4748753Y-15733984D01*
X4748753Y-15733984D02*
X4739229Y-15724460D01*
X4739229Y-15724460D02*
X4748753Y-15714936D01*
X4748753Y-15714936D02*
X4748753Y-15733984D01*
X4824944Y-15533984D02*
X4948753Y-15533984D01*
X4948753Y-15533984D02*
X4882086Y-15610174D01*
X4882086Y-15610174D02*
X4910658Y-15610174D01*
X4910658Y-15610174D02*
X4929705Y-15619698D01*
X4929705Y-15619698D02*
X4939229Y-15629222D01*
X4939229Y-15629222D02*
X4948753Y-15648269D01*
X4948753Y-15648269D02*
X4948753Y-15695888D01*
X4948753Y-15695888D02*
X4939229Y-15714936D01*
X4939229Y-15714936D02*
X4929705Y-15724460D01*
X4929705Y-15724460D02*
X4910658Y-15733984D01*
X4910658Y-15733984D02*
X4853515Y-15733984D01*
X4853515Y-15733984D02*
X4834467Y-15724460D01*
X4834467Y-15724460D02*
X4824944Y-15714936D01*
X5072563Y-15533984D02*
X5091610Y-15533984D01*
X5091610Y-15533984D02*
X5110658Y-15543508D01*
X5110658Y-15543508D02*
X5120182Y-15553031D01*
X5120182Y-15553031D02*
X5129705Y-15572079D01*
X5129705Y-15572079D02*
X5139229Y-15610174D01*
X5139229Y-15610174D02*
X5139229Y-15657793D01*
X5139229Y-15657793D02*
X5129705Y-15695888D01*
X5129705Y-15695888D02*
X5120182Y-15714936D01*
X5120182Y-15714936D02*
X5110658Y-15724460D01*
X5110658Y-15724460D02*
X5091610Y-15733984D01*
X5091610Y-15733984D02*
X5072563Y-15733984D01*
X5072563Y-15733984D02*
X5053515Y-15724460D01*
X5053515Y-15724460D02*
X5043991Y-15714936D01*
X5043991Y-15714936D02*
X5034467Y-15695888D01*
X5034467Y-15695888D02*
X5024944Y-15657793D01*
X5024944Y-15657793D02*
X5024944Y-15610174D01*
X5024944Y-15610174D02*
X5034467Y-15572079D01*
X5034467Y-15572079D02*
X5043991Y-15553031D01*
X5043991Y-15553031D02*
X5053515Y-15543508D01*
X5053515Y-15543508D02*
X5072563Y-15533984D01*
X5263039Y-15533984D02*
X5282086Y-15533984D01*
X5282086Y-15533984D02*
X5301134Y-15543508D01*
X5301134Y-15543508D02*
X5310658Y-15553031D01*
X5310658Y-15553031D02*
X5320182Y-15572079D01*
X5320182Y-15572079D02*
X5329705Y-15610174D01*
X5329705Y-15610174D02*
X5329705Y-15657793D01*
X5329705Y-15657793D02*
X5320182Y-15695888D01*
X5320182Y-15695888D02*
X5310658Y-15714936D01*
X5310658Y-15714936D02*
X5301134Y-15724460D01*
X5301134Y-15724460D02*
X5282086Y-15733984D01*
X5282086Y-15733984D02*
X5263039Y-15733984D01*
X5263039Y-15733984D02*
X5243991Y-15724460D01*
X5243991Y-15724460D02*
X5234467Y-15714936D01*
X5234467Y-15714936D02*
X5224944Y-15695888D01*
X5224944Y-15695888D02*
X5215420Y-15657793D01*
X5215420Y-15657793D02*
X5215420Y-15610174D01*
X5215420Y-15610174D02*
X5224944Y-15572079D01*
X5224944Y-15572079D02*
X5234467Y-15553031D01*
X5234467Y-15553031D02*
X5243991Y-15543508D01*
X5243991Y-15543508D02*
X5263039Y-15533984D01*
X5415420Y-15733984D02*
X5415420Y-15600650D01*
X5415420Y-15619698D02*
X5424944Y-15610174D01*
X5424944Y-15610174D02*
X5443991Y-15600650D01*
X5443991Y-15600650D02*
X5472563Y-15600650D01*
X5472563Y-15600650D02*
X5491610Y-15610174D01*
X5491610Y-15610174D02*
X5501134Y-15629222D01*
X5501134Y-15629222D02*
X5501134Y-15733984D01*
X5501134Y-15629222D02*
X5510658Y-15610174D01*
X5510658Y-15610174D02*
X5529705Y-15600650D01*
X5529705Y-15600650D02*
X5558277Y-15600650D01*
X5558277Y-15600650D02*
X5577325Y-15610174D01*
X5577325Y-15610174D02*
X5586848Y-15629222D01*
X5586848Y-15629222D02*
X5586848Y-15733984D01*
X5682086Y-15733984D02*
X5682086Y-15600650D01*
X5682086Y-15619698D02*
X5691610Y-15610174D01*
X5691610Y-15610174D02*
X5710658Y-15600650D01*
X5710658Y-15600650D02*
X5739229Y-15600650D01*
X5739229Y-15600650D02*
X5758277Y-15610174D01*
X5758277Y-15610174D02*
X5767801Y-15629222D01*
X5767801Y-15629222D02*
X5767801Y-15733984D01*
X5767801Y-15629222D02*
X5777324Y-15610174D01*
X5777324Y-15610174D02*
X5796372Y-15600650D01*
X5796372Y-15600650D02*
X5824943Y-15600650D01*
X5824943Y-15600650D02*
X5843991Y-15610174D01*
X5843991Y-15610174D02*
X5853515Y-15629222D01*
X5853515Y-15629222D02*
X5853515Y-15733984D01*
X6243991Y-15524460D02*
X6072563Y-15781603D01*
X6501134Y-15533984D02*
X6520182Y-15533984D01*
X6520182Y-15533984D02*
X6539229Y-15543508D01*
X6539229Y-15543508D02*
X6548753Y-15553031D01*
X6548753Y-15553031D02*
X6558277Y-15572079D01*
X6558277Y-15572079D02*
X6567801Y-15610174D01*
X6567801Y-15610174D02*
X6567801Y-15657793D01*
X6567801Y-15657793D02*
X6558277Y-15695888D01*
X6558277Y-15695888D02*
X6548753Y-15714936D01*
X6548753Y-15714936D02*
X6539229Y-15724460D01*
X6539229Y-15724460D02*
X6520182Y-15733984D01*
X6520182Y-15733984D02*
X6501134Y-15733984D01*
X6501134Y-15733984D02*
X6482086Y-15724460D01*
X6482086Y-15724460D02*
X6472563Y-15714936D01*
X6472563Y-15714936D02*
X6463039Y-15695888D01*
X6463039Y-15695888D02*
X6453515Y-15657793D01*
X6453515Y-15657793D02*
X6453515Y-15610174D01*
X6453515Y-15610174D02*
X6463039Y-15572079D01*
X6463039Y-15572079D02*
X6472563Y-15553031D01*
X6472563Y-15553031D02*
X6482086Y-15543508D01*
X6482086Y-15543508D02*
X6501134Y-15533984D01*
X6653515Y-15714936D02*
X6663039Y-15724460D01*
X6663039Y-15724460D02*
X6653515Y-15733984D01*
X6653515Y-15733984D02*
X6643991Y-15724460D01*
X6643991Y-15724460D02*
X6653515Y-15714936D01*
X6653515Y-15714936D02*
X6653515Y-15733984D01*
X6786848Y-15533984D02*
X6805896Y-15533984D01*
X6805896Y-15533984D02*
X6824944Y-15543508D01*
X6824944Y-15543508D02*
X6834467Y-15553031D01*
X6834467Y-15553031D02*
X6843991Y-15572079D01*
X6843991Y-15572079D02*
X6853515Y-15610174D01*
X6853515Y-15610174D02*
X6853515Y-15657793D01*
X6853515Y-15657793D02*
X6843991Y-15695888D01*
X6843991Y-15695888D02*
X6834467Y-15714936D01*
X6834467Y-15714936D02*
X6824944Y-15724460D01*
X6824944Y-15724460D02*
X6805896Y-15733984D01*
X6805896Y-15733984D02*
X6786848Y-15733984D01*
X6786848Y-15733984D02*
X6767801Y-15724460D01*
X6767801Y-15724460D02*
X6758277Y-15714936D01*
X6758277Y-15714936D02*
X6748753Y-15695888D01*
X6748753Y-15695888D02*
X6739229Y-15657793D01*
X6739229Y-15657793D02*
X6739229Y-15610174D01*
X6739229Y-15610174D02*
X6748753Y-15572079D01*
X6748753Y-15572079D02*
X6758277Y-15553031D01*
X6758277Y-15553031D02*
X6767801Y-15543508D01*
X6767801Y-15543508D02*
X6786848Y-15533984D01*
X7043991Y-15733984D02*
X6929706Y-15733984D01*
X6986848Y-15733984D02*
X6986848Y-15533984D01*
X6986848Y-15533984D02*
X6967801Y-15562555D01*
X6967801Y-15562555D02*
X6948753Y-15581603D01*
X6948753Y-15581603D02*
X6929706Y-15591127D01*
X7234467Y-15733984D02*
X7120182Y-15733984D01*
X7177325Y-15733984D02*
X7177325Y-15533984D01*
X7177325Y-15533984D02*
X7158277Y-15562555D01*
X7158277Y-15562555D02*
X7139229Y-15581603D01*
X7139229Y-15581603D02*
X7120182Y-15591127D01*
X7348753Y-15619698D02*
X7329706Y-15610174D01*
X7329706Y-15610174D02*
X7320182Y-15600650D01*
X7320182Y-15600650D02*
X7310658Y-15581603D01*
X7310658Y-15581603D02*
X7310658Y-15572079D01*
X7310658Y-15572079D02*
X7320182Y-15553031D01*
X7320182Y-15553031D02*
X7329706Y-15543508D01*
X7329706Y-15543508D02*
X7348753Y-15533984D01*
X7348753Y-15533984D02*
X7386848Y-15533984D01*
X7386848Y-15533984D02*
X7405896Y-15543508D01*
X7405896Y-15543508D02*
X7415420Y-15553031D01*
X7415420Y-15553031D02*
X7424944Y-15572079D01*
X7424944Y-15572079D02*
X7424944Y-15581603D01*
X7424944Y-15581603D02*
X7415420Y-15600650D01*
X7415420Y-15600650D02*
X7405896Y-15610174D01*
X7405896Y-15610174D02*
X7386848Y-15619698D01*
X7386848Y-15619698D02*
X7348753Y-15619698D01*
X7348753Y-15619698D02*
X7329706Y-15629222D01*
X7329706Y-15629222D02*
X7320182Y-15638746D01*
X7320182Y-15638746D02*
X7310658Y-15657793D01*
X7310658Y-15657793D02*
X7310658Y-15695888D01*
X7310658Y-15695888D02*
X7320182Y-15714936D01*
X7320182Y-15714936D02*
X7329706Y-15724460D01*
X7329706Y-15724460D02*
X7348753Y-15733984D01*
X7348753Y-15733984D02*
X7386848Y-15733984D01*
X7386848Y-15733984D02*
X7405896Y-15724460D01*
X7405896Y-15724460D02*
X7415420Y-15714936D01*
X7415420Y-15714936D02*
X7424944Y-15695888D01*
X7424944Y-15695888D02*
X7424944Y-15657793D01*
X7424944Y-15657793D02*
X7415420Y-15638746D01*
X7415420Y-15638746D02*
X7405896Y-15629222D01*
X7405896Y-15629222D02*
X7386848Y-15619698D01*
X7501134Y-15533984D02*
X7501134Y-15572079D01*
X7577325Y-15533984D02*
X7577325Y-15572079D01*
X7872563Y-15810174D02*
X7863039Y-15800650D01*
X7863039Y-15800650D02*
X7843991Y-15772079D01*
X7843991Y-15772079D02*
X7834468Y-15753031D01*
X7834468Y-15753031D02*
X7824944Y-15724460D01*
X7824944Y-15724460D02*
X7815420Y-15676841D01*
X7815420Y-15676841D02*
X7815420Y-15638746D01*
X7815420Y-15638746D02*
X7824944Y-15591127D01*
X7824944Y-15591127D02*
X7834468Y-15562555D01*
X7834468Y-15562555D02*
X7843991Y-15543508D01*
X7843991Y-15543508D02*
X7863039Y-15514936D01*
X7863039Y-15514936D02*
X7872563Y-15505412D01*
X8043991Y-15533984D02*
X7948753Y-15533984D01*
X7948753Y-15533984D02*
X7939229Y-15629222D01*
X7939229Y-15629222D02*
X7948753Y-15619698D01*
X7948753Y-15619698D02*
X7967801Y-15610174D01*
X7967801Y-15610174D02*
X8015420Y-15610174D01*
X8015420Y-15610174D02*
X8034468Y-15619698D01*
X8034468Y-15619698D02*
X8043991Y-15629222D01*
X8043991Y-15629222D02*
X8053515Y-15648269D01*
X8053515Y-15648269D02*
X8053515Y-15695888D01*
X8053515Y-15695888D02*
X8043991Y-15714936D01*
X8043991Y-15714936D02*
X8034468Y-15724460D01*
X8034468Y-15724460D02*
X8015420Y-15733984D01*
X8015420Y-15733984D02*
X7967801Y-15733984D01*
X7967801Y-15733984D02*
X7948753Y-15724460D01*
X7948753Y-15724460D02*
X7939229Y-15714936D01*
X8224944Y-15600650D02*
X8224944Y-15733984D01*
X8177325Y-15524460D02*
X8129706Y-15667317D01*
X8129706Y-15667317D02*
X8253515Y-15667317D01*
X8482087Y-15733984D02*
X8482087Y-15533984D01*
X8567801Y-15733984D02*
X8567801Y-15629222D01*
X8567801Y-15629222D02*
X8558277Y-15610174D01*
X8558277Y-15610174D02*
X8539230Y-15600650D01*
X8539230Y-15600650D02*
X8510658Y-15600650D01*
X8510658Y-15600650D02*
X8491611Y-15610174D01*
X8491611Y-15610174D02*
X8482087Y-15619698D01*
X8691611Y-15733984D02*
X8672563Y-15724460D01*
X8672563Y-15724460D02*
X8663039Y-15714936D01*
X8663039Y-15714936D02*
X8653515Y-15695888D01*
X8653515Y-15695888D02*
X8653515Y-15638746D01*
X8653515Y-15638746D02*
X8663039Y-15619698D01*
X8663039Y-15619698D02*
X8672563Y-15610174D01*
X8672563Y-15610174D02*
X8691611Y-15600650D01*
X8691611Y-15600650D02*
X8720182Y-15600650D01*
X8720182Y-15600650D02*
X8739230Y-15610174D01*
X8739230Y-15610174D02*
X8748753Y-15619698D01*
X8748753Y-15619698D02*
X8758277Y-15638746D01*
X8758277Y-15638746D02*
X8758277Y-15695888D01*
X8758277Y-15695888D02*
X8748753Y-15714936D01*
X8748753Y-15714936D02*
X8739230Y-15724460D01*
X8739230Y-15724460D02*
X8720182Y-15733984D01*
X8720182Y-15733984D02*
X8691611Y-15733984D01*
X8872563Y-15733984D02*
X8853515Y-15724460D01*
X8853515Y-15724460D02*
X8843992Y-15705412D01*
X8843992Y-15705412D02*
X8843992Y-15533984D01*
X9024944Y-15724460D02*
X9005896Y-15733984D01*
X9005896Y-15733984D02*
X8967801Y-15733984D01*
X8967801Y-15733984D02*
X8948753Y-15724460D01*
X8948753Y-15724460D02*
X8939230Y-15705412D01*
X8939230Y-15705412D02*
X8939230Y-15629222D01*
X8939230Y-15629222D02*
X8948753Y-15610174D01*
X8948753Y-15610174D02*
X8967801Y-15600650D01*
X8967801Y-15600650D02*
X9005896Y-15600650D01*
X9005896Y-15600650D02*
X9024944Y-15610174D01*
X9024944Y-15610174D02*
X9034468Y-15629222D01*
X9034468Y-15629222D02*
X9034468Y-15648269D01*
X9034468Y-15648269D02*
X8939230Y-15667317D01*
X9110658Y-15724460D02*
X9129706Y-15733984D01*
X9129706Y-15733984D02*
X9167801Y-15733984D01*
X9167801Y-15733984D02*
X9186849Y-15724460D01*
X9186849Y-15724460D02*
X9196373Y-15705412D01*
X9196373Y-15705412D02*
X9196373Y-15695888D01*
X9196373Y-15695888D02*
X9186849Y-15676841D01*
X9186849Y-15676841D02*
X9167801Y-15667317D01*
X9167801Y-15667317D02*
X9139230Y-15667317D01*
X9139230Y-15667317D02*
X9120182Y-15657793D01*
X9120182Y-15657793D02*
X9110658Y-15638746D01*
X9110658Y-15638746D02*
X9110658Y-15629222D01*
X9110658Y-15629222D02*
X9120182Y-15610174D01*
X9120182Y-15610174D02*
X9139230Y-15600650D01*
X9139230Y-15600650D02*
X9167801Y-15600650D01*
X9167801Y-15600650D02*
X9186849Y-15610174D01*
X9263039Y-15810174D02*
X9272563Y-15800650D01*
X9272563Y-15800650D02*
X9291611Y-15772079D01*
X9291611Y-15772079D02*
X9301134Y-15753031D01*
X9301134Y-15753031D02*
X9310658Y-15724460D01*
X9310658Y-15724460D02*
X9320182Y-15676841D01*
X9320182Y-15676841D02*
X9320182Y-15638746D01*
X9320182Y-15638746D02*
X9310658Y-15591127D01*
X9310658Y-15591127D02*
X9301134Y-15562555D01*
X9301134Y-15562555D02*
X9291611Y-15543508D01*
X9291611Y-15543508D02*
X9272563Y-15514936D01*
X9272563Y-15514936D02*
X9263039Y-15505412D01*
D12*
X4297500Y-15906500D02*
G75*
G02*
X4264500Y-15906500I-16500J0D01*
G01*
X4264500Y-15906500D02*
G75*
G02*
X4297500Y-15906500I16500J0D01*
G01*
D11*
X4596372Y-15797984D02*
X4615420Y-15797984D01*
X4615420Y-15797984D02*
X4634467Y-15807508D01*
X4634467Y-15807508D02*
X4643991Y-15817031D01*
X4643991Y-15817031D02*
X4653515Y-15836079D01*
X4653515Y-15836079D02*
X4663039Y-15874174D01*
X4663039Y-15874174D02*
X4663039Y-15921793D01*
X4663039Y-15921793D02*
X4653515Y-15959888D01*
X4653515Y-15959888D02*
X4643991Y-15978936D01*
X4643991Y-15978936D02*
X4634467Y-15988460D01*
X4634467Y-15988460D02*
X4615420Y-15997984D01*
X4615420Y-15997984D02*
X4596372Y-15997984D01*
X4596372Y-15997984D02*
X4577324Y-15988460D01*
X4577324Y-15988460D02*
X4567801Y-15978936D01*
X4567801Y-15978936D02*
X4558277Y-15959888D01*
X4558277Y-15959888D02*
X4548753Y-15921793D01*
X4548753Y-15921793D02*
X4548753Y-15874174D01*
X4548753Y-15874174D02*
X4558277Y-15836079D01*
X4558277Y-15836079D02*
X4567801Y-15817031D01*
X4567801Y-15817031D02*
X4577324Y-15807508D01*
X4577324Y-15807508D02*
X4596372Y-15797984D01*
X4748753Y-15978936D02*
X4758277Y-15988460D01*
X4758277Y-15988460D02*
X4748753Y-15997984D01*
X4748753Y-15997984D02*
X4739229Y-15988460D01*
X4739229Y-15988460D02*
X4748753Y-15978936D01*
X4748753Y-15978936D02*
X4748753Y-15997984D01*
X4824944Y-15797984D02*
X4948753Y-15797984D01*
X4948753Y-15797984D02*
X4882086Y-15874174D01*
X4882086Y-15874174D02*
X4910658Y-15874174D01*
X4910658Y-15874174D02*
X4929705Y-15883698D01*
X4929705Y-15883698D02*
X4939229Y-15893222D01*
X4939229Y-15893222D02*
X4948753Y-15912269D01*
X4948753Y-15912269D02*
X4948753Y-15959888D01*
X4948753Y-15959888D02*
X4939229Y-15978936D01*
X4939229Y-15978936D02*
X4929705Y-15988460D01*
X4929705Y-15988460D02*
X4910658Y-15997984D01*
X4910658Y-15997984D02*
X4853515Y-15997984D01*
X4853515Y-15997984D02*
X4834467Y-15988460D01*
X4834467Y-15988460D02*
X4824944Y-15978936D01*
X5015420Y-15797984D02*
X5139229Y-15797984D01*
X5139229Y-15797984D02*
X5072563Y-15874174D01*
X5072563Y-15874174D02*
X5101134Y-15874174D01*
X5101134Y-15874174D02*
X5120182Y-15883698D01*
X5120182Y-15883698D02*
X5129705Y-15893222D01*
X5129705Y-15893222D02*
X5139229Y-15912269D01*
X5139229Y-15912269D02*
X5139229Y-15959888D01*
X5139229Y-15959888D02*
X5129705Y-15978936D01*
X5129705Y-15978936D02*
X5120182Y-15988460D01*
X5120182Y-15988460D02*
X5101134Y-15997984D01*
X5101134Y-15997984D02*
X5043991Y-15997984D01*
X5043991Y-15997984D02*
X5024944Y-15988460D01*
X5024944Y-15988460D02*
X5015420Y-15978936D01*
X5263039Y-15797984D02*
X5282086Y-15797984D01*
X5282086Y-15797984D02*
X5301134Y-15807508D01*
X5301134Y-15807508D02*
X5310658Y-15817031D01*
X5310658Y-15817031D02*
X5320182Y-15836079D01*
X5320182Y-15836079D02*
X5329705Y-15874174D01*
X5329705Y-15874174D02*
X5329705Y-15921793D01*
X5329705Y-15921793D02*
X5320182Y-15959888D01*
X5320182Y-15959888D02*
X5310658Y-15978936D01*
X5310658Y-15978936D02*
X5301134Y-15988460D01*
X5301134Y-15988460D02*
X5282086Y-15997984D01*
X5282086Y-15997984D02*
X5263039Y-15997984D01*
X5263039Y-15997984D02*
X5243991Y-15988460D01*
X5243991Y-15988460D02*
X5234467Y-15978936D01*
X5234467Y-15978936D02*
X5224944Y-15959888D01*
X5224944Y-15959888D02*
X5215420Y-15921793D01*
X5215420Y-15921793D02*
X5215420Y-15874174D01*
X5215420Y-15874174D02*
X5224944Y-15836079D01*
X5224944Y-15836079D02*
X5234467Y-15817031D01*
X5234467Y-15817031D02*
X5243991Y-15807508D01*
X5243991Y-15807508D02*
X5263039Y-15797984D01*
X5415420Y-15997984D02*
X5415420Y-15864650D01*
X5415420Y-15883698D02*
X5424944Y-15874174D01*
X5424944Y-15874174D02*
X5443991Y-15864650D01*
X5443991Y-15864650D02*
X5472563Y-15864650D01*
X5472563Y-15864650D02*
X5491610Y-15874174D01*
X5491610Y-15874174D02*
X5501134Y-15893222D01*
X5501134Y-15893222D02*
X5501134Y-15997984D01*
X5501134Y-15893222D02*
X5510658Y-15874174D01*
X5510658Y-15874174D02*
X5529705Y-15864650D01*
X5529705Y-15864650D02*
X5558277Y-15864650D01*
X5558277Y-15864650D02*
X5577325Y-15874174D01*
X5577325Y-15874174D02*
X5586848Y-15893222D01*
X5586848Y-15893222D02*
X5586848Y-15997984D01*
X5682086Y-15997984D02*
X5682086Y-15864650D01*
X5682086Y-15883698D02*
X5691610Y-15874174D01*
X5691610Y-15874174D02*
X5710658Y-15864650D01*
X5710658Y-15864650D02*
X5739229Y-15864650D01*
X5739229Y-15864650D02*
X5758277Y-15874174D01*
X5758277Y-15874174D02*
X5767801Y-15893222D01*
X5767801Y-15893222D02*
X5767801Y-15997984D01*
X5767801Y-15893222D02*
X5777324Y-15874174D01*
X5777324Y-15874174D02*
X5796372Y-15864650D01*
X5796372Y-15864650D02*
X5824943Y-15864650D01*
X5824943Y-15864650D02*
X5843991Y-15874174D01*
X5843991Y-15874174D02*
X5853515Y-15893222D01*
X5853515Y-15893222D02*
X5853515Y-15997984D01*
X6243991Y-15788460D02*
X6072563Y-16045603D01*
X6501134Y-15797984D02*
X6520182Y-15797984D01*
X6520182Y-15797984D02*
X6539229Y-15807508D01*
X6539229Y-15807508D02*
X6548753Y-15817031D01*
X6548753Y-15817031D02*
X6558277Y-15836079D01*
X6558277Y-15836079D02*
X6567801Y-15874174D01*
X6567801Y-15874174D02*
X6567801Y-15921793D01*
X6567801Y-15921793D02*
X6558277Y-15959888D01*
X6558277Y-15959888D02*
X6548753Y-15978936D01*
X6548753Y-15978936D02*
X6539229Y-15988460D01*
X6539229Y-15988460D02*
X6520182Y-15997984D01*
X6520182Y-15997984D02*
X6501134Y-15997984D01*
X6501134Y-15997984D02*
X6482086Y-15988460D01*
X6482086Y-15988460D02*
X6472563Y-15978936D01*
X6472563Y-15978936D02*
X6463039Y-15959888D01*
X6463039Y-15959888D02*
X6453515Y-15921793D01*
X6453515Y-15921793D02*
X6453515Y-15874174D01*
X6453515Y-15874174D02*
X6463039Y-15836079D01*
X6463039Y-15836079D02*
X6472563Y-15817031D01*
X6472563Y-15817031D02*
X6482086Y-15807508D01*
X6482086Y-15807508D02*
X6501134Y-15797984D01*
X6653515Y-15978936D02*
X6663039Y-15988460D01*
X6663039Y-15988460D02*
X6653515Y-15997984D01*
X6653515Y-15997984D02*
X6643991Y-15988460D01*
X6643991Y-15988460D02*
X6653515Y-15978936D01*
X6653515Y-15978936D02*
X6653515Y-15997984D01*
X6786848Y-15797984D02*
X6805896Y-15797984D01*
X6805896Y-15797984D02*
X6824944Y-15807508D01*
X6824944Y-15807508D02*
X6834467Y-15817031D01*
X6834467Y-15817031D02*
X6843991Y-15836079D01*
X6843991Y-15836079D02*
X6853515Y-15874174D01*
X6853515Y-15874174D02*
X6853515Y-15921793D01*
X6853515Y-15921793D02*
X6843991Y-15959888D01*
X6843991Y-15959888D02*
X6834467Y-15978936D01*
X6834467Y-15978936D02*
X6824944Y-15988460D01*
X6824944Y-15988460D02*
X6805896Y-15997984D01*
X6805896Y-15997984D02*
X6786848Y-15997984D01*
X6786848Y-15997984D02*
X6767801Y-15988460D01*
X6767801Y-15988460D02*
X6758277Y-15978936D01*
X6758277Y-15978936D02*
X6748753Y-15959888D01*
X6748753Y-15959888D02*
X6739229Y-15921793D01*
X6739229Y-15921793D02*
X6739229Y-15874174D01*
X6739229Y-15874174D02*
X6748753Y-15836079D01*
X6748753Y-15836079D02*
X6758277Y-15817031D01*
X6758277Y-15817031D02*
X6767801Y-15807508D01*
X6767801Y-15807508D02*
X6786848Y-15797984D01*
X7043991Y-15997984D02*
X6929706Y-15997984D01*
X6986848Y-15997984D02*
X6986848Y-15797984D01*
X6986848Y-15797984D02*
X6967801Y-15826555D01*
X6967801Y-15826555D02*
X6948753Y-15845603D01*
X6948753Y-15845603D02*
X6929706Y-15855127D01*
X7110658Y-15797984D02*
X7234467Y-15797984D01*
X7234467Y-15797984D02*
X7167801Y-15874174D01*
X7167801Y-15874174D02*
X7196372Y-15874174D01*
X7196372Y-15874174D02*
X7215420Y-15883698D01*
X7215420Y-15883698D02*
X7224944Y-15893222D01*
X7224944Y-15893222D02*
X7234467Y-15912269D01*
X7234467Y-15912269D02*
X7234467Y-15959888D01*
X7234467Y-15959888D02*
X7224944Y-15978936D01*
X7224944Y-15978936D02*
X7215420Y-15988460D01*
X7215420Y-15988460D02*
X7196372Y-15997984D01*
X7196372Y-15997984D02*
X7139229Y-15997984D01*
X7139229Y-15997984D02*
X7120182Y-15988460D01*
X7120182Y-15988460D02*
X7110658Y-15978936D01*
X7358277Y-15797984D02*
X7377325Y-15797984D01*
X7377325Y-15797984D02*
X7396372Y-15807508D01*
X7396372Y-15807508D02*
X7405896Y-15817031D01*
X7405896Y-15817031D02*
X7415420Y-15836079D01*
X7415420Y-15836079D02*
X7424944Y-15874174D01*
X7424944Y-15874174D02*
X7424944Y-15921793D01*
X7424944Y-15921793D02*
X7415420Y-15959888D01*
X7415420Y-15959888D02*
X7405896Y-15978936D01*
X7405896Y-15978936D02*
X7396372Y-15988460D01*
X7396372Y-15988460D02*
X7377325Y-15997984D01*
X7377325Y-15997984D02*
X7358277Y-15997984D01*
X7358277Y-15997984D02*
X7339229Y-15988460D01*
X7339229Y-15988460D02*
X7329706Y-15978936D01*
X7329706Y-15978936D02*
X7320182Y-15959888D01*
X7320182Y-15959888D02*
X7310658Y-15921793D01*
X7310658Y-15921793D02*
X7310658Y-15874174D01*
X7310658Y-15874174D02*
X7320182Y-15836079D01*
X7320182Y-15836079D02*
X7329706Y-15817031D01*
X7329706Y-15817031D02*
X7339229Y-15807508D01*
X7339229Y-15807508D02*
X7358277Y-15797984D01*
X7501134Y-15797984D02*
X7501134Y-15836079D01*
X7577325Y-15797984D02*
X7577325Y-15836079D01*
X7872563Y-16074174D02*
X7863039Y-16064650D01*
X7863039Y-16064650D02*
X7843991Y-16036079D01*
X7843991Y-16036079D02*
X7834468Y-16017031D01*
X7834468Y-16017031D02*
X7824944Y-15988460D01*
X7824944Y-15988460D02*
X7815420Y-15940841D01*
X7815420Y-15940841D02*
X7815420Y-15902746D01*
X7815420Y-15902746D02*
X7824944Y-15855127D01*
X7824944Y-15855127D02*
X7834468Y-15826555D01*
X7834468Y-15826555D02*
X7843991Y-15807508D01*
X7843991Y-15807508D02*
X7863039Y-15778936D01*
X7863039Y-15778936D02*
X7872563Y-15769412D01*
X7939229Y-15817031D02*
X7948753Y-15807508D01*
X7948753Y-15807508D02*
X7967801Y-15797984D01*
X7967801Y-15797984D02*
X8015420Y-15797984D01*
X8015420Y-15797984D02*
X8034468Y-15807508D01*
X8034468Y-15807508D02*
X8043991Y-15817031D01*
X8043991Y-15817031D02*
X8053515Y-15836079D01*
X8053515Y-15836079D02*
X8053515Y-15855127D01*
X8053515Y-15855127D02*
X8043991Y-15883698D01*
X8043991Y-15883698D02*
X7929706Y-15997984D01*
X7929706Y-15997984D02*
X8053515Y-15997984D01*
X8120182Y-15797984D02*
X8253515Y-15797984D01*
X8253515Y-15797984D02*
X8167801Y-15997984D01*
X8482087Y-15997984D02*
X8482087Y-15797984D01*
X8567801Y-15997984D02*
X8567801Y-15893222D01*
X8567801Y-15893222D02*
X8558277Y-15874174D01*
X8558277Y-15874174D02*
X8539230Y-15864650D01*
X8539230Y-15864650D02*
X8510658Y-15864650D01*
X8510658Y-15864650D02*
X8491611Y-15874174D01*
X8491611Y-15874174D02*
X8482087Y-15883698D01*
X8691611Y-15997984D02*
X8672563Y-15988460D01*
X8672563Y-15988460D02*
X8663039Y-15978936D01*
X8663039Y-15978936D02*
X8653515Y-15959888D01*
X8653515Y-15959888D02*
X8653515Y-15902746D01*
X8653515Y-15902746D02*
X8663039Y-15883698D01*
X8663039Y-15883698D02*
X8672563Y-15874174D01*
X8672563Y-15874174D02*
X8691611Y-15864650D01*
X8691611Y-15864650D02*
X8720182Y-15864650D01*
X8720182Y-15864650D02*
X8739230Y-15874174D01*
X8739230Y-15874174D02*
X8748753Y-15883698D01*
X8748753Y-15883698D02*
X8758277Y-15902746D01*
X8758277Y-15902746D02*
X8758277Y-15959888D01*
X8758277Y-15959888D02*
X8748753Y-15978936D01*
X8748753Y-15978936D02*
X8739230Y-15988460D01*
X8739230Y-15988460D02*
X8720182Y-15997984D01*
X8720182Y-15997984D02*
X8691611Y-15997984D01*
X8872563Y-15997984D02*
X8853515Y-15988460D01*
X8853515Y-15988460D02*
X8843992Y-15969412D01*
X8843992Y-15969412D02*
X8843992Y-15797984D01*
X9024944Y-15988460D02*
X9005896Y-15997984D01*
X9005896Y-15997984D02*
X8967801Y-15997984D01*
X8967801Y-15997984D02*
X8948753Y-15988460D01*
X8948753Y-15988460D02*
X8939230Y-15969412D01*
X8939230Y-15969412D02*
X8939230Y-15893222D01*
X8939230Y-15893222D02*
X8948753Y-15874174D01*
X8948753Y-15874174D02*
X8967801Y-15864650D01*
X8967801Y-15864650D02*
X9005896Y-15864650D01*
X9005896Y-15864650D02*
X9024944Y-15874174D01*
X9024944Y-15874174D02*
X9034468Y-15893222D01*
X9034468Y-15893222D02*
X9034468Y-15912269D01*
X9034468Y-15912269D02*
X8939230Y-15931317D01*
X9110658Y-15988460D02*
X9129706Y-15997984D01*
X9129706Y-15997984D02*
X9167801Y-15997984D01*
X9167801Y-15997984D02*
X9186849Y-15988460D01*
X9186849Y-15988460D02*
X9196373Y-15969412D01*
X9196373Y-15969412D02*
X9196373Y-15959888D01*
X9196373Y-15959888D02*
X9186849Y-15940841D01*
X9186849Y-15940841D02*
X9167801Y-15931317D01*
X9167801Y-15931317D02*
X9139230Y-15931317D01*
X9139230Y-15931317D02*
X9120182Y-15921793D01*
X9120182Y-15921793D02*
X9110658Y-15902746D01*
X9110658Y-15902746D02*
X9110658Y-15893222D01*
X9110658Y-15893222D02*
X9120182Y-15874174D01*
X9120182Y-15874174D02*
X9139230Y-15864650D01*
X9139230Y-15864650D02*
X9167801Y-15864650D01*
X9167801Y-15864650D02*
X9186849Y-15874174D01*
X9263039Y-16074174D02*
X9272563Y-16064650D01*
X9272563Y-16064650D02*
X9291611Y-16036079D01*
X9291611Y-16036079D02*
X9301134Y-16017031D01*
X9301134Y-16017031D02*
X9310658Y-15988460D01*
X9310658Y-15988460D02*
X9320182Y-15940841D01*
X9320182Y-15940841D02*
X9320182Y-15902746D01*
X9320182Y-15902746D02*
X9310658Y-15855127D01*
X9310658Y-15855127D02*
X9301134Y-15826555D01*
X9301134Y-15826555D02*
X9291611Y-15807508D01*
X9291611Y-15807508D02*
X9272563Y-15778936D01*
X9272563Y-15778936D02*
X9263039Y-15769412D01*
D12*
X4257500Y-16130500D02*
X4257500Y-16210500D01*
X4217500Y-16170500D02*
X4297500Y-16170500D01*
D11*
X4596372Y-16061984D02*
X4615420Y-16061984D01*
X4615420Y-16061984D02*
X4634467Y-16071508D01*
X4634467Y-16071508D02*
X4643991Y-16081031D01*
X4643991Y-16081031D02*
X4653515Y-16100079D01*
X4653515Y-16100079D02*
X4663039Y-16138174D01*
X4663039Y-16138174D02*
X4663039Y-16185793D01*
X4663039Y-16185793D02*
X4653515Y-16223888D01*
X4653515Y-16223888D02*
X4643991Y-16242936D01*
X4643991Y-16242936D02*
X4634467Y-16252460D01*
X4634467Y-16252460D02*
X4615420Y-16261984D01*
X4615420Y-16261984D02*
X4596372Y-16261984D01*
X4596372Y-16261984D02*
X4577324Y-16252460D01*
X4577324Y-16252460D02*
X4567801Y-16242936D01*
X4567801Y-16242936D02*
X4558277Y-16223888D01*
X4558277Y-16223888D02*
X4548753Y-16185793D01*
X4548753Y-16185793D02*
X4548753Y-16138174D01*
X4548753Y-16138174D02*
X4558277Y-16100079D01*
X4558277Y-16100079D02*
X4567801Y-16081031D01*
X4567801Y-16081031D02*
X4577324Y-16071508D01*
X4577324Y-16071508D02*
X4596372Y-16061984D01*
X4748753Y-16242936D02*
X4758277Y-16252460D01*
X4758277Y-16252460D02*
X4748753Y-16261984D01*
X4748753Y-16261984D02*
X4739229Y-16252460D01*
X4739229Y-16252460D02*
X4748753Y-16242936D01*
X4748753Y-16242936D02*
X4748753Y-16261984D01*
X4872563Y-16147698D02*
X4853515Y-16138174D01*
X4853515Y-16138174D02*
X4843991Y-16128650D01*
X4843991Y-16128650D02*
X4834467Y-16109603D01*
X4834467Y-16109603D02*
X4834467Y-16100079D01*
X4834467Y-16100079D02*
X4843991Y-16081031D01*
X4843991Y-16081031D02*
X4853515Y-16071508D01*
X4853515Y-16071508D02*
X4872563Y-16061984D01*
X4872563Y-16061984D02*
X4910658Y-16061984D01*
X4910658Y-16061984D02*
X4929705Y-16071508D01*
X4929705Y-16071508D02*
X4939229Y-16081031D01*
X4939229Y-16081031D02*
X4948753Y-16100079D01*
X4948753Y-16100079D02*
X4948753Y-16109603D01*
X4948753Y-16109603D02*
X4939229Y-16128650D01*
X4939229Y-16128650D02*
X4929705Y-16138174D01*
X4929705Y-16138174D02*
X4910658Y-16147698D01*
X4910658Y-16147698D02*
X4872563Y-16147698D01*
X4872563Y-16147698D02*
X4853515Y-16157222D01*
X4853515Y-16157222D02*
X4843991Y-16166746D01*
X4843991Y-16166746D02*
X4834467Y-16185793D01*
X4834467Y-16185793D02*
X4834467Y-16223888D01*
X4834467Y-16223888D02*
X4843991Y-16242936D01*
X4843991Y-16242936D02*
X4853515Y-16252460D01*
X4853515Y-16252460D02*
X4872563Y-16261984D01*
X4872563Y-16261984D02*
X4910658Y-16261984D01*
X4910658Y-16261984D02*
X4929705Y-16252460D01*
X4929705Y-16252460D02*
X4939229Y-16242936D01*
X4939229Y-16242936D02*
X4948753Y-16223888D01*
X4948753Y-16223888D02*
X4948753Y-16185793D01*
X4948753Y-16185793D02*
X4939229Y-16166746D01*
X4939229Y-16166746D02*
X4929705Y-16157222D01*
X4929705Y-16157222D02*
X4910658Y-16147698D01*
X5072563Y-16061984D02*
X5091610Y-16061984D01*
X5091610Y-16061984D02*
X5110658Y-16071508D01*
X5110658Y-16071508D02*
X5120182Y-16081031D01*
X5120182Y-16081031D02*
X5129705Y-16100079D01*
X5129705Y-16100079D02*
X5139229Y-16138174D01*
X5139229Y-16138174D02*
X5139229Y-16185793D01*
X5139229Y-16185793D02*
X5129705Y-16223888D01*
X5129705Y-16223888D02*
X5120182Y-16242936D01*
X5120182Y-16242936D02*
X5110658Y-16252460D01*
X5110658Y-16252460D02*
X5091610Y-16261984D01*
X5091610Y-16261984D02*
X5072563Y-16261984D01*
X5072563Y-16261984D02*
X5053515Y-16252460D01*
X5053515Y-16252460D02*
X5043991Y-16242936D01*
X5043991Y-16242936D02*
X5034467Y-16223888D01*
X5034467Y-16223888D02*
X5024944Y-16185793D01*
X5024944Y-16185793D02*
X5024944Y-16138174D01*
X5024944Y-16138174D02*
X5034467Y-16100079D01*
X5034467Y-16100079D02*
X5043991Y-16081031D01*
X5043991Y-16081031D02*
X5053515Y-16071508D01*
X5053515Y-16071508D02*
X5072563Y-16061984D01*
X5263039Y-16061984D02*
X5282086Y-16061984D01*
X5282086Y-16061984D02*
X5301134Y-16071508D01*
X5301134Y-16071508D02*
X5310658Y-16081031D01*
X5310658Y-16081031D02*
X5320182Y-16100079D01*
X5320182Y-16100079D02*
X5329705Y-16138174D01*
X5329705Y-16138174D02*
X5329705Y-16185793D01*
X5329705Y-16185793D02*
X5320182Y-16223888D01*
X5320182Y-16223888D02*
X5310658Y-16242936D01*
X5310658Y-16242936D02*
X5301134Y-16252460D01*
X5301134Y-16252460D02*
X5282086Y-16261984D01*
X5282086Y-16261984D02*
X5263039Y-16261984D01*
X5263039Y-16261984D02*
X5243991Y-16252460D01*
X5243991Y-16252460D02*
X5234467Y-16242936D01*
X5234467Y-16242936D02*
X5224944Y-16223888D01*
X5224944Y-16223888D02*
X5215420Y-16185793D01*
X5215420Y-16185793D02*
X5215420Y-16138174D01*
X5215420Y-16138174D02*
X5224944Y-16100079D01*
X5224944Y-16100079D02*
X5234467Y-16081031D01*
X5234467Y-16081031D02*
X5243991Y-16071508D01*
X5243991Y-16071508D02*
X5263039Y-16061984D01*
X5415420Y-16261984D02*
X5415420Y-16128650D01*
X5415420Y-16147698D02*
X5424944Y-16138174D01*
X5424944Y-16138174D02*
X5443991Y-16128650D01*
X5443991Y-16128650D02*
X5472563Y-16128650D01*
X5472563Y-16128650D02*
X5491610Y-16138174D01*
X5491610Y-16138174D02*
X5501134Y-16157222D01*
X5501134Y-16157222D02*
X5501134Y-16261984D01*
X5501134Y-16157222D02*
X5510658Y-16138174D01*
X5510658Y-16138174D02*
X5529705Y-16128650D01*
X5529705Y-16128650D02*
X5558277Y-16128650D01*
X5558277Y-16128650D02*
X5577325Y-16138174D01*
X5577325Y-16138174D02*
X5586848Y-16157222D01*
X5586848Y-16157222D02*
X5586848Y-16261984D01*
X5682086Y-16261984D02*
X5682086Y-16128650D01*
X5682086Y-16147698D02*
X5691610Y-16138174D01*
X5691610Y-16138174D02*
X5710658Y-16128650D01*
X5710658Y-16128650D02*
X5739229Y-16128650D01*
X5739229Y-16128650D02*
X5758277Y-16138174D01*
X5758277Y-16138174D02*
X5767801Y-16157222D01*
X5767801Y-16157222D02*
X5767801Y-16261984D01*
X5767801Y-16157222D02*
X5777324Y-16138174D01*
X5777324Y-16138174D02*
X5796372Y-16128650D01*
X5796372Y-16128650D02*
X5824943Y-16128650D01*
X5824943Y-16128650D02*
X5843991Y-16138174D01*
X5843991Y-16138174D02*
X5853515Y-16157222D01*
X5853515Y-16157222D02*
X5853515Y-16261984D01*
X6243991Y-16052460D02*
X6072563Y-16309603D01*
X6501134Y-16061984D02*
X6520182Y-16061984D01*
X6520182Y-16061984D02*
X6539229Y-16071508D01*
X6539229Y-16071508D02*
X6548753Y-16081031D01*
X6548753Y-16081031D02*
X6558277Y-16100079D01*
X6558277Y-16100079D02*
X6567801Y-16138174D01*
X6567801Y-16138174D02*
X6567801Y-16185793D01*
X6567801Y-16185793D02*
X6558277Y-16223888D01*
X6558277Y-16223888D02*
X6548753Y-16242936D01*
X6548753Y-16242936D02*
X6539229Y-16252460D01*
X6539229Y-16252460D02*
X6520182Y-16261984D01*
X6520182Y-16261984D02*
X6501134Y-16261984D01*
X6501134Y-16261984D02*
X6482086Y-16252460D01*
X6482086Y-16252460D02*
X6472563Y-16242936D01*
X6472563Y-16242936D02*
X6463039Y-16223888D01*
X6463039Y-16223888D02*
X6453515Y-16185793D01*
X6453515Y-16185793D02*
X6453515Y-16138174D01*
X6453515Y-16138174D02*
X6463039Y-16100079D01*
X6463039Y-16100079D02*
X6472563Y-16081031D01*
X6472563Y-16081031D02*
X6482086Y-16071508D01*
X6482086Y-16071508D02*
X6501134Y-16061984D01*
X6653515Y-16242936D02*
X6663039Y-16252460D01*
X6663039Y-16252460D02*
X6653515Y-16261984D01*
X6653515Y-16261984D02*
X6643991Y-16252460D01*
X6643991Y-16252460D02*
X6653515Y-16242936D01*
X6653515Y-16242936D02*
X6653515Y-16261984D01*
X6786848Y-16061984D02*
X6805896Y-16061984D01*
X6805896Y-16061984D02*
X6824944Y-16071508D01*
X6824944Y-16071508D02*
X6834467Y-16081031D01*
X6834467Y-16081031D02*
X6843991Y-16100079D01*
X6843991Y-16100079D02*
X6853515Y-16138174D01*
X6853515Y-16138174D02*
X6853515Y-16185793D01*
X6853515Y-16185793D02*
X6843991Y-16223888D01*
X6843991Y-16223888D02*
X6834467Y-16242936D01*
X6834467Y-16242936D02*
X6824944Y-16252460D01*
X6824944Y-16252460D02*
X6805896Y-16261984D01*
X6805896Y-16261984D02*
X6786848Y-16261984D01*
X6786848Y-16261984D02*
X6767801Y-16252460D01*
X6767801Y-16252460D02*
X6758277Y-16242936D01*
X6758277Y-16242936D02*
X6748753Y-16223888D01*
X6748753Y-16223888D02*
X6739229Y-16185793D01*
X6739229Y-16185793D02*
X6739229Y-16138174D01*
X6739229Y-16138174D02*
X6748753Y-16100079D01*
X6748753Y-16100079D02*
X6758277Y-16081031D01*
X6758277Y-16081031D02*
X6767801Y-16071508D01*
X6767801Y-16071508D02*
X6786848Y-16061984D01*
X6920182Y-16061984D02*
X7043991Y-16061984D01*
X7043991Y-16061984D02*
X6977325Y-16138174D01*
X6977325Y-16138174D02*
X7005896Y-16138174D01*
X7005896Y-16138174D02*
X7024944Y-16147698D01*
X7024944Y-16147698D02*
X7034467Y-16157222D01*
X7034467Y-16157222D02*
X7043991Y-16176269D01*
X7043991Y-16176269D02*
X7043991Y-16223888D01*
X7043991Y-16223888D02*
X7034467Y-16242936D01*
X7034467Y-16242936D02*
X7024944Y-16252460D01*
X7024944Y-16252460D02*
X7005896Y-16261984D01*
X7005896Y-16261984D02*
X6948753Y-16261984D01*
X6948753Y-16261984D02*
X6929706Y-16252460D01*
X6929706Y-16252460D02*
X6920182Y-16242936D01*
X7234467Y-16261984D02*
X7120182Y-16261984D01*
X7177325Y-16261984D02*
X7177325Y-16061984D01*
X7177325Y-16061984D02*
X7158277Y-16090555D01*
X7158277Y-16090555D02*
X7139229Y-16109603D01*
X7139229Y-16109603D02*
X7120182Y-16119127D01*
X7415420Y-16061984D02*
X7320182Y-16061984D01*
X7320182Y-16061984D02*
X7310658Y-16157222D01*
X7310658Y-16157222D02*
X7320182Y-16147698D01*
X7320182Y-16147698D02*
X7339229Y-16138174D01*
X7339229Y-16138174D02*
X7386848Y-16138174D01*
X7386848Y-16138174D02*
X7405896Y-16147698D01*
X7405896Y-16147698D02*
X7415420Y-16157222D01*
X7415420Y-16157222D02*
X7424944Y-16176269D01*
X7424944Y-16176269D02*
X7424944Y-16223888D01*
X7424944Y-16223888D02*
X7415420Y-16242936D01*
X7415420Y-16242936D02*
X7405896Y-16252460D01*
X7405896Y-16252460D02*
X7386848Y-16261984D01*
X7386848Y-16261984D02*
X7339229Y-16261984D01*
X7339229Y-16261984D02*
X7320182Y-16252460D01*
X7320182Y-16252460D02*
X7310658Y-16242936D01*
X7501134Y-16061984D02*
X7501134Y-16100079D01*
X7577325Y-16061984D02*
X7577325Y-16100079D01*
X7872563Y-16338174D02*
X7863039Y-16328650D01*
X7863039Y-16328650D02*
X7843991Y-16300079D01*
X7843991Y-16300079D02*
X7834468Y-16281031D01*
X7834468Y-16281031D02*
X7824944Y-16252460D01*
X7824944Y-16252460D02*
X7815420Y-16204841D01*
X7815420Y-16204841D02*
X7815420Y-16166746D01*
X7815420Y-16166746D02*
X7824944Y-16119127D01*
X7824944Y-16119127D02*
X7834468Y-16090555D01*
X7834468Y-16090555D02*
X7843991Y-16071508D01*
X7843991Y-16071508D02*
X7863039Y-16042936D01*
X7863039Y-16042936D02*
X7872563Y-16033412D01*
X7939229Y-16081031D02*
X7948753Y-16071508D01*
X7948753Y-16071508D02*
X7967801Y-16061984D01*
X7967801Y-16061984D02*
X8015420Y-16061984D01*
X8015420Y-16061984D02*
X8034468Y-16071508D01*
X8034468Y-16071508D02*
X8043991Y-16081031D01*
X8043991Y-16081031D02*
X8053515Y-16100079D01*
X8053515Y-16100079D02*
X8053515Y-16119127D01*
X8053515Y-16119127D02*
X8043991Y-16147698D01*
X8043991Y-16147698D02*
X7929706Y-16261984D01*
X7929706Y-16261984D02*
X8053515Y-16261984D01*
X8120182Y-16061984D02*
X8243991Y-16061984D01*
X8243991Y-16061984D02*
X8177325Y-16138174D01*
X8177325Y-16138174D02*
X8205896Y-16138174D01*
X8205896Y-16138174D02*
X8224944Y-16147698D01*
X8224944Y-16147698D02*
X8234468Y-16157222D01*
X8234468Y-16157222D02*
X8243991Y-16176269D01*
X8243991Y-16176269D02*
X8243991Y-16223888D01*
X8243991Y-16223888D02*
X8234468Y-16242936D01*
X8234468Y-16242936D02*
X8224944Y-16252460D01*
X8224944Y-16252460D02*
X8205896Y-16261984D01*
X8205896Y-16261984D02*
X8148753Y-16261984D01*
X8148753Y-16261984D02*
X8129706Y-16252460D01*
X8129706Y-16252460D02*
X8120182Y-16242936D01*
X8482087Y-16261984D02*
X8482087Y-16061984D01*
X8567801Y-16261984D02*
X8567801Y-16157222D01*
X8567801Y-16157222D02*
X8558277Y-16138174D01*
X8558277Y-16138174D02*
X8539230Y-16128650D01*
X8539230Y-16128650D02*
X8510658Y-16128650D01*
X8510658Y-16128650D02*
X8491611Y-16138174D01*
X8491611Y-16138174D02*
X8482087Y-16147698D01*
X8691611Y-16261984D02*
X8672563Y-16252460D01*
X8672563Y-16252460D02*
X8663039Y-16242936D01*
X8663039Y-16242936D02*
X8653515Y-16223888D01*
X8653515Y-16223888D02*
X8653515Y-16166746D01*
X8653515Y-16166746D02*
X8663039Y-16147698D01*
X8663039Y-16147698D02*
X8672563Y-16138174D01*
X8672563Y-16138174D02*
X8691611Y-16128650D01*
X8691611Y-16128650D02*
X8720182Y-16128650D01*
X8720182Y-16128650D02*
X8739230Y-16138174D01*
X8739230Y-16138174D02*
X8748753Y-16147698D01*
X8748753Y-16147698D02*
X8758277Y-16166746D01*
X8758277Y-16166746D02*
X8758277Y-16223888D01*
X8758277Y-16223888D02*
X8748753Y-16242936D01*
X8748753Y-16242936D02*
X8739230Y-16252460D01*
X8739230Y-16252460D02*
X8720182Y-16261984D01*
X8720182Y-16261984D02*
X8691611Y-16261984D01*
X8872563Y-16261984D02*
X8853515Y-16252460D01*
X8853515Y-16252460D02*
X8843992Y-16233412D01*
X8843992Y-16233412D02*
X8843992Y-16061984D01*
X9024944Y-16252460D02*
X9005896Y-16261984D01*
X9005896Y-16261984D02*
X8967801Y-16261984D01*
X8967801Y-16261984D02*
X8948753Y-16252460D01*
X8948753Y-16252460D02*
X8939230Y-16233412D01*
X8939230Y-16233412D02*
X8939230Y-16157222D01*
X8939230Y-16157222D02*
X8948753Y-16138174D01*
X8948753Y-16138174D02*
X8967801Y-16128650D01*
X8967801Y-16128650D02*
X9005896Y-16128650D01*
X9005896Y-16128650D02*
X9024944Y-16138174D01*
X9024944Y-16138174D02*
X9034468Y-16157222D01*
X9034468Y-16157222D02*
X9034468Y-16176269D01*
X9034468Y-16176269D02*
X8939230Y-16195317D01*
X9110658Y-16252460D02*
X9129706Y-16261984D01*
X9129706Y-16261984D02*
X9167801Y-16261984D01*
X9167801Y-16261984D02*
X9186849Y-16252460D01*
X9186849Y-16252460D02*
X9196373Y-16233412D01*
X9196373Y-16233412D02*
X9196373Y-16223888D01*
X9196373Y-16223888D02*
X9186849Y-16204841D01*
X9186849Y-16204841D02*
X9167801Y-16195317D01*
X9167801Y-16195317D02*
X9139230Y-16195317D01*
X9139230Y-16195317D02*
X9120182Y-16185793D01*
X9120182Y-16185793D02*
X9110658Y-16166746D01*
X9110658Y-16166746D02*
X9110658Y-16157222D01*
X9110658Y-16157222D02*
X9120182Y-16138174D01*
X9120182Y-16138174D02*
X9139230Y-16128650D01*
X9139230Y-16128650D02*
X9167801Y-16128650D01*
X9167801Y-16128650D02*
X9186849Y-16138174D01*
X9263039Y-16338174D02*
X9272563Y-16328650D01*
X9272563Y-16328650D02*
X9291611Y-16300079D01*
X9291611Y-16300079D02*
X9301134Y-16281031D01*
X9301134Y-16281031D02*
X9310658Y-16252460D01*
X9310658Y-16252460D02*
X9320182Y-16204841D01*
X9320182Y-16204841D02*
X9320182Y-16166746D01*
X9320182Y-16166746D02*
X9310658Y-16119127D01*
X9310658Y-16119127D02*
X9301134Y-16090555D01*
X9301134Y-16090555D02*
X9291611Y-16071508D01*
X9291611Y-16071508D02*
X9272563Y-16042936D01*
X9272563Y-16042936D02*
X9263039Y-16033412D01*
D12*
X4282856Y-16469856D02*
X4282856Y-16399144D01*
X4212144Y-16399144D01*
X4212144Y-16469856D01*
X4282856Y-16469856D01*
D11*
X4663039Y-16525984D02*
X4548753Y-16525984D01*
X4605896Y-16525984D02*
X4605896Y-16325984D01*
X4605896Y-16325984D02*
X4586848Y-16354555D01*
X4586848Y-16354555D02*
X4567801Y-16373603D01*
X4567801Y-16373603D02*
X4548753Y-16383127D01*
X4748753Y-16506936D02*
X4758277Y-16516460D01*
X4758277Y-16516460D02*
X4748753Y-16525984D01*
X4748753Y-16525984D02*
X4739229Y-16516460D01*
X4739229Y-16516460D02*
X4748753Y-16506936D01*
X4748753Y-16506936D02*
X4748753Y-16525984D01*
X4882086Y-16325984D02*
X4901134Y-16325984D01*
X4901134Y-16325984D02*
X4920182Y-16335508D01*
X4920182Y-16335508D02*
X4929705Y-16345031D01*
X4929705Y-16345031D02*
X4939229Y-16364079D01*
X4939229Y-16364079D02*
X4948753Y-16402174D01*
X4948753Y-16402174D02*
X4948753Y-16449793D01*
X4948753Y-16449793D02*
X4939229Y-16487888D01*
X4939229Y-16487888D02*
X4929705Y-16506936D01*
X4929705Y-16506936D02*
X4920182Y-16516460D01*
X4920182Y-16516460D02*
X4901134Y-16525984D01*
X4901134Y-16525984D02*
X4882086Y-16525984D01*
X4882086Y-16525984D02*
X4863039Y-16516460D01*
X4863039Y-16516460D02*
X4853515Y-16506936D01*
X4853515Y-16506936D02*
X4843991Y-16487888D01*
X4843991Y-16487888D02*
X4834467Y-16449793D01*
X4834467Y-16449793D02*
X4834467Y-16402174D01*
X4834467Y-16402174D02*
X4843991Y-16364079D01*
X4843991Y-16364079D02*
X4853515Y-16345031D01*
X4853515Y-16345031D02*
X4863039Y-16335508D01*
X4863039Y-16335508D02*
X4882086Y-16325984D01*
X5072563Y-16325984D02*
X5091610Y-16325984D01*
X5091610Y-16325984D02*
X5110658Y-16335508D01*
X5110658Y-16335508D02*
X5120182Y-16345031D01*
X5120182Y-16345031D02*
X5129705Y-16364079D01*
X5129705Y-16364079D02*
X5139229Y-16402174D01*
X5139229Y-16402174D02*
X5139229Y-16449793D01*
X5139229Y-16449793D02*
X5129705Y-16487888D01*
X5129705Y-16487888D02*
X5120182Y-16506936D01*
X5120182Y-16506936D02*
X5110658Y-16516460D01*
X5110658Y-16516460D02*
X5091610Y-16525984D01*
X5091610Y-16525984D02*
X5072563Y-16525984D01*
X5072563Y-16525984D02*
X5053515Y-16516460D01*
X5053515Y-16516460D02*
X5043991Y-16506936D01*
X5043991Y-16506936D02*
X5034467Y-16487888D01*
X5034467Y-16487888D02*
X5024944Y-16449793D01*
X5024944Y-16449793D02*
X5024944Y-16402174D01*
X5024944Y-16402174D02*
X5034467Y-16364079D01*
X5034467Y-16364079D02*
X5043991Y-16345031D01*
X5043991Y-16345031D02*
X5053515Y-16335508D01*
X5053515Y-16335508D02*
X5072563Y-16325984D01*
X5263039Y-16325984D02*
X5282086Y-16325984D01*
X5282086Y-16325984D02*
X5301134Y-16335508D01*
X5301134Y-16335508D02*
X5310658Y-16345031D01*
X5310658Y-16345031D02*
X5320182Y-16364079D01*
X5320182Y-16364079D02*
X5329705Y-16402174D01*
X5329705Y-16402174D02*
X5329705Y-16449793D01*
X5329705Y-16449793D02*
X5320182Y-16487888D01*
X5320182Y-16487888D02*
X5310658Y-16506936D01*
X5310658Y-16506936D02*
X5301134Y-16516460D01*
X5301134Y-16516460D02*
X5282086Y-16525984D01*
X5282086Y-16525984D02*
X5263039Y-16525984D01*
X5263039Y-16525984D02*
X5243991Y-16516460D01*
X5243991Y-16516460D02*
X5234467Y-16506936D01*
X5234467Y-16506936D02*
X5224944Y-16487888D01*
X5224944Y-16487888D02*
X5215420Y-16449793D01*
X5215420Y-16449793D02*
X5215420Y-16402174D01*
X5215420Y-16402174D02*
X5224944Y-16364079D01*
X5224944Y-16364079D02*
X5234467Y-16345031D01*
X5234467Y-16345031D02*
X5243991Y-16335508D01*
X5243991Y-16335508D02*
X5263039Y-16325984D01*
X5415420Y-16525984D02*
X5415420Y-16392650D01*
X5415420Y-16411698D02*
X5424944Y-16402174D01*
X5424944Y-16402174D02*
X5443991Y-16392650D01*
X5443991Y-16392650D02*
X5472563Y-16392650D01*
X5472563Y-16392650D02*
X5491610Y-16402174D01*
X5491610Y-16402174D02*
X5501134Y-16421222D01*
X5501134Y-16421222D02*
X5501134Y-16525984D01*
X5501134Y-16421222D02*
X5510658Y-16402174D01*
X5510658Y-16402174D02*
X5529705Y-16392650D01*
X5529705Y-16392650D02*
X5558277Y-16392650D01*
X5558277Y-16392650D02*
X5577325Y-16402174D01*
X5577325Y-16402174D02*
X5586848Y-16421222D01*
X5586848Y-16421222D02*
X5586848Y-16525984D01*
X5682086Y-16525984D02*
X5682086Y-16392650D01*
X5682086Y-16411698D02*
X5691610Y-16402174D01*
X5691610Y-16402174D02*
X5710658Y-16392650D01*
X5710658Y-16392650D02*
X5739229Y-16392650D01*
X5739229Y-16392650D02*
X5758277Y-16402174D01*
X5758277Y-16402174D02*
X5767801Y-16421222D01*
X5767801Y-16421222D02*
X5767801Y-16525984D01*
X5767801Y-16421222D02*
X5777324Y-16402174D01*
X5777324Y-16402174D02*
X5796372Y-16392650D01*
X5796372Y-16392650D02*
X5824943Y-16392650D01*
X5824943Y-16392650D02*
X5843991Y-16402174D01*
X5843991Y-16402174D02*
X5853515Y-16421222D01*
X5853515Y-16421222D02*
X5853515Y-16525984D01*
X6243991Y-16316460D02*
X6072563Y-16573603D01*
X6501134Y-16325984D02*
X6520182Y-16325984D01*
X6520182Y-16325984D02*
X6539229Y-16335508D01*
X6539229Y-16335508D02*
X6548753Y-16345031D01*
X6548753Y-16345031D02*
X6558277Y-16364079D01*
X6558277Y-16364079D02*
X6567801Y-16402174D01*
X6567801Y-16402174D02*
X6567801Y-16449793D01*
X6567801Y-16449793D02*
X6558277Y-16487888D01*
X6558277Y-16487888D02*
X6548753Y-16506936D01*
X6548753Y-16506936D02*
X6539229Y-16516460D01*
X6539229Y-16516460D02*
X6520182Y-16525984D01*
X6520182Y-16525984D02*
X6501134Y-16525984D01*
X6501134Y-16525984D02*
X6482086Y-16516460D01*
X6482086Y-16516460D02*
X6472563Y-16506936D01*
X6472563Y-16506936D02*
X6463039Y-16487888D01*
X6463039Y-16487888D02*
X6453515Y-16449793D01*
X6453515Y-16449793D02*
X6453515Y-16402174D01*
X6453515Y-16402174D02*
X6463039Y-16364079D01*
X6463039Y-16364079D02*
X6472563Y-16345031D01*
X6472563Y-16345031D02*
X6482086Y-16335508D01*
X6482086Y-16335508D02*
X6501134Y-16325984D01*
X6653515Y-16506936D02*
X6663039Y-16516460D01*
X6663039Y-16516460D02*
X6653515Y-16525984D01*
X6653515Y-16525984D02*
X6643991Y-16516460D01*
X6643991Y-16516460D02*
X6653515Y-16506936D01*
X6653515Y-16506936D02*
X6653515Y-16525984D01*
X6786848Y-16325984D02*
X6805896Y-16325984D01*
X6805896Y-16325984D02*
X6824944Y-16335508D01*
X6824944Y-16335508D02*
X6834467Y-16345031D01*
X6834467Y-16345031D02*
X6843991Y-16364079D01*
X6843991Y-16364079D02*
X6853515Y-16402174D01*
X6853515Y-16402174D02*
X6853515Y-16449793D01*
X6853515Y-16449793D02*
X6843991Y-16487888D01*
X6843991Y-16487888D02*
X6834467Y-16506936D01*
X6834467Y-16506936D02*
X6824944Y-16516460D01*
X6824944Y-16516460D02*
X6805896Y-16525984D01*
X6805896Y-16525984D02*
X6786848Y-16525984D01*
X6786848Y-16525984D02*
X6767801Y-16516460D01*
X6767801Y-16516460D02*
X6758277Y-16506936D01*
X6758277Y-16506936D02*
X6748753Y-16487888D01*
X6748753Y-16487888D02*
X6739229Y-16449793D01*
X6739229Y-16449793D02*
X6739229Y-16402174D01*
X6739229Y-16402174D02*
X6748753Y-16364079D01*
X6748753Y-16364079D02*
X6758277Y-16345031D01*
X6758277Y-16345031D02*
X6767801Y-16335508D01*
X6767801Y-16335508D02*
X6786848Y-16325984D01*
X6920182Y-16325984D02*
X7043991Y-16325984D01*
X7043991Y-16325984D02*
X6977325Y-16402174D01*
X6977325Y-16402174D02*
X7005896Y-16402174D01*
X7005896Y-16402174D02*
X7024944Y-16411698D01*
X7024944Y-16411698D02*
X7034467Y-16421222D01*
X7034467Y-16421222D02*
X7043991Y-16440269D01*
X7043991Y-16440269D02*
X7043991Y-16487888D01*
X7043991Y-16487888D02*
X7034467Y-16506936D01*
X7034467Y-16506936D02*
X7024944Y-16516460D01*
X7024944Y-16516460D02*
X7005896Y-16525984D01*
X7005896Y-16525984D02*
X6948753Y-16525984D01*
X6948753Y-16525984D02*
X6929706Y-16516460D01*
X6929706Y-16516460D02*
X6920182Y-16506936D01*
X7139229Y-16525984D02*
X7177325Y-16525984D01*
X7177325Y-16525984D02*
X7196372Y-16516460D01*
X7196372Y-16516460D02*
X7205896Y-16506936D01*
X7205896Y-16506936D02*
X7224944Y-16478365D01*
X7224944Y-16478365D02*
X7234467Y-16440269D01*
X7234467Y-16440269D02*
X7234467Y-16364079D01*
X7234467Y-16364079D02*
X7224944Y-16345031D01*
X7224944Y-16345031D02*
X7215420Y-16335508D01*
X7215420Y-16335508D02*
X7196372Y-16325984D01*
X7196372Y-16325984D02*
X7158277Y-16325984D01*
X7158277Y-16325984D02*
X7139229Y-16335508D01*
X7139229Y-16335508D02*
X7129706Y-16345031D01*
X7129706Y-16345031D02*
X7120182Y-16364079D01*
X7120182Y-16364079D02*
X7120182Y-16411698D01*
X7120182Y-16411698D02*
X7129706Y-16430746D01*
X7129706Y-16430746D02*
X7139229Y-16440269D01*
X7139229Y-16440269D02*
X7158277Y-16449793D01*
X7158277Y-16449793D02*
X7196372Y-16449793D01*
X7196372Y-16449793D02*
X7215420Y-16440269D01*
X7215420Y-16440269D02*
X7224944Y-16430746D01*
X7224944Y-16430746D02*
X7234467Y-16411698D01*
X7405896Y-16392650D02*
X7405896Y-16525984D01*
X7358277Y-16316460D02*
X7310658Y-16459317D01*
X7310658Y-16459317D02*
X7434467Y-16459317D01*
X7501134Y-16325984D02*
X7501134Y-16364079D01*
X7577325Y-16325984D02*
X7577325Y-16364079D01*
X7872563Y-16602174D02*
X7863039Y-16592650D01*
X7863039Y-16592650D02*
X7843991Y-16564079D01*
X7843991Y-16564079D02*
X7834468Y-16545031D01*
X7834468Y-16545031D02*
X7824944Y-16516460D01*
X7824944Y-16516460D02*
X7815420Y-16468841D01*
X7815420Y-16468841D02*
X7815420Y-16430746D01*
X7815420Y-16430746D02*
X7824944Y-16383127D01*
X7824944Y-16383127D02*
X7834468Y-16354555D01*
X7834468Y-16354555D02*
X7843991Y-16335508D01*
X7843991Y-16335508D02*
X7863039Y-16306936D01*
X7863039Y-16306936D02*
X7872563Y-16297412D01*
X8034468Y-16392650D02*
X8034468Y-16525984D01*
X7986848Y-16316460D02*
X7939229Y-16459317D01*
X7939229Y-16459317D02*
X8063039Y-16459317D01*
X8291610Y-16525984D02*
X8291610Y-16325984D01*
X8377325Y-16525984D02*
X8377325Y-16421222D01*
X8377325Y-16421222D02*
X8367801Y-16402174D01*
X8367801Y-16402174D02*
X8348753Y-16392650D01*
X8348753Y-16392650D02*
X8320182Y-16392650D01*
X8320182Y-16392650D02*
X8301134Y-16402174D01*
X8301134Y-16402174D02*
X8291610Y-16411698D01*
X8501134Y-16525984D02*
X8482087Y-16516460D01*
X8482087Y-16516460D02*
X8472563Y-16506936D01*
X8472563Y-16506936D02*
X8463039Y-16487888D01*
X8463039Y-16487888D02*
X8463039Y-16430746D01*
X8463039Y-16430746D02*
X8472563Y-16411698D01*
X8472563Y-16411698D02*
X8482087Y-16402174D01*
X8482087Y-16402174D02*
X8501134Y-16392650D01*
X8501134Y-16392650D02*
X8529706Y-16392650D01*
X8529706Y-16392650D02*
X8548753Y-16402174D01*
X8548753Y-16402174D02*
X8558277Y-16411698D01*
X8558277Y-16411698D02*
X8567801Y-16430746D01*
X8567801Y-16430746D02*
X8567801Y-16487888D01*
X8567801Y-16487888D02*
X8558277Y-16506936D01*
X8558277Y-16506936D02*
X8548753Y-16516460D01*
X8548753Y-16516460D02*
X8529706Y-16525984D01*
X8529706Y-16525984D02*
X8501134Y-16525984D01*
X8682087Y-16525984D02*
X8663039Y-16516460D01*
X8663039Y-16516460D02*
X8653515Y-16497412D01*
X8653515Y-16497412D02*
X8653515Y-16325984D01*
X8834468Y-16516460D02*
X8815420Y-16525984D01*
X8815420Y-16525984D02*
X8777325Y-16525984D01*
X8777325Y-16525984D02*
X8758277Y-16516460D01*
X8758277Y-16516460D02*
X8748753Y-16497412D01*
X8748753Y-16497412D02*
X8748753Y-16421222D01*
X8748753Y-16421222D02*
X8758277Y-16402174D01*
X8758277Y-16402174D02*
X8777325Y-16392650D01*
X8777325Y-16392650D02*
X8815420Y-16392650D01*
X8815420Y-16392650D02*
X8834468Y-16402174D01*
X8834468Y-16402174D02*
X8843992Y-16421222D01*
X8843992Y-16421222D02*
X8843992Y-16440269D01*
X8843992Y-16440269D02*
X8748753Y-16459317D01*
X8920182Y-16516460D02*
X8939230Y-16525984D01*
X8939230Y-16525984D02*
X8977325Y-16525984D01*
X8977325Y-16525984D02*
X8996373Y-16516460D01*
X8996373Y-16516460D02*
X9005896Y-16497412D01*
X9005896Y-16497412D02*
X9005896Y-16487888D01*
X9005896Y-16487888D02*
X8996373Y-16468841D01*
X8996373Y-16468841D02*
X8977325Y-16459317D01*
X8977325Y-16459317D02*
X8948753Y-16459317D01*
X8948753Y-16459317D02*
X8929706Y-16449793D01*
X8929706Y-16449793D02*
X8920182Y-16430746D01*
X8920182Y-16430746D02*
X8920182Y-16421222D01*
X8920182Y-16421222D02*
X8929706Y-16402174D01*
X8929706Y-16402174D02*
X8948753Y-16392650D01*
X8948753Y-16392650D02*
X8977325Y-16392650D01*
X8977325Y-16392650D02*
X8996373Y-16402174D01*
X9072563Y-16602174D02*
X9082087Y-16592650D01*
X9082087Y-16592650D02*
X9101134Y-16564079D01*
X9101134Y-16564079D02*
X9110658Y-16545031D01*
X9110658Y-16545031D02*
X9120182Y-16516460D01*
X9120182Y-16516460D02*
X9129706Y-16468841D01*
X9129706Y-16468841D02*
X9129706Y-16430746D01*
X9129706Y-16430746D02*
X9120182Y-16383127D01*
X9120182Y-16383127D02*
X9110658Y-16354555D01*
X9110658Y-16354555D02*
X9101134Y-16335508D01*
X9101134Y-16335508D02*
X9082087Y-16306936D01*
X9082087Y-16306936D02*
X9072563Y-16297412D01*
X4197500Y-16798500D02*
X4297500Y-16698500D01*
X4197500Y-16598500D01*
X4097500Y-16698500D01*
X4197500Y-16798500D01*
X4548753Y-16609031D02*
X4558277Y-16599508D01*
X4558277Y-16599508D02*
X4577324Y-16589984D01*
X4577324Y-16589984D02*
X4624944Y-16589984D01*
X4624944Y-16589984D02*
X4643991Y-16599508D01*
X4643991Y-16599508D02*
X4653515Y-16609031D01*
X4653515Y-16609031D02*
X4663039Y-16628079D01*
X4663039Y-16628079D02*
X4663039Y-16647127D01*
X4663039Y-16647127D02*
X4653515Y-16675698D01*
X4653515Y-16675698D02*
X4539229Y-16789984D01*
X4539229Y-16789984D02*
X4663039Y-16789984D01*
X4748753Y-16770936D02*
X4758277Y-16780460D01*
X4758277Y-16780460D02*
X4748753Y-16789984D01*
X4748753Y-16789984D02*
X4739229Y-16780460D01*
X4739229Y-16780460D02*
X4748753Y-16770936D01*
X4748753Y-16770936D02*
X4748753Y-16789984D01*
X4834467Y-16609031D02*
X4843991Y-16599508D01*
X4843991Y-16599508D02*
X4863039Y-16589984D01*
X4863039Y-16589984D02*
X4910658Y-16589984D01*
X4910658Y-16589984D02*
X4929705Y-16599508D01*
X4929705Y-16599508D02*
X4939229Y-16609031D01*
X4939229Y-16609031D02*
X4948753Y-16628079D01*
X4948753Y-16628079D02*
X4948753Y-16647127D01*
X4948753Y-16647127D02*
X4939229Y-16675698D01*
X4939229Y-16675698D02*
X4824944Y-16789984D01*
X4824944Y-16789984D02*
X4948753Y-16789984D01*
X5072563Y-16589984D02*
X5091610Y-16589984D01*
X5091610Y-16589984D02*
X5110658Y-16599508D01*
X5110658Y-16599508D02*
X5120182Y-16609031D01*
X5120182Y-16609031D02*
X5129705Y-16628079D01*
X5129705Y-16628079D02*
X5139229Y-16666174D01*
X5139229Y-16666174D02*
X5139229Y-16713793D01*
X5139229Y-16713793D02*
X5129705Y-16751888D01*
X5129705Y-16751888D02*
X5120182Y-16770936D01*
X5120182Y-16770936D02*
X5110658Y-16780460D01*
X5110658Y-16780460D02*
X5091610Y-16789984D01*
X5091610Y-16789984D02*
X5072563Y-16789984D01*
X5072563Y-16789984D02*
X5053515Y-16780460D01*
X5053515Y-16780460D02*
X5043991Y-16770936D01*
X5043991Y-16770936D02*
X5034467Y-16751888D01*
X5034467Y-16751888D02*
X5024944Y-16713793D01*
X5024944Y-16713793D02*
X5024944Y-16666174D01*
X5024944Y-16666174D02*
X5034467Y-16628079D01*
X5034467Y-16628079D02*
X5043991Y-16609031D01*
X5043991Y-16609031D02*
X5053515Y-16599508D01*
X5053515Y-16599508D02*
X5072563Y-16589984D01*
X5263039Y-16589984D02*
X5282086Y-16589984D01*
X5282086Y-16589984D02*
X5301134Y-16599508D01*
X5301134Y-16599508D02*
X5310658Y-16609031D01*
X5310658Y-16609031D02*
X5320182Y-16628079D01*
X5320182Y-16628079D02*
X5329705Y-16666174D01*
X5329705Y-16666174D02*
X5329705Y-16713793D01*
X5329705Y-16713793D02*
X5320182Y-16751888D01*
X5320182Y-16751888D02*
X5310658Y-16770936D01*
X5310658Y-16770936D02*
X5301134Y-16780460D01*
X5301134Y-16780460D02*
X5282086Y-16789984D01*
X5282086Y-16789984D02*
X5263039Y-16789984D01*
X5263039Y-16789984D02*
X5243991Y-16780460D01*
X5243991Y-16780460D02*
X5234467Y-16770936D01*
X5234467Y-16770936D02*
X5224944Y-16751888D01*
X5224944Y-16751888D02*
X5215420Y-16713793D01*
X5215420Y-16713793D02*
X5215420Y-16666174D01*
X5215420Y-16666174D02*
X5224944Y-16628079D01*
X5224944Y-16628079D02*
X5234467Y-16609031D01*
X5234467Y-16609031D02*
X5243991Y-16599508D01*
X5243991Y-16599508D02*
X5263039Y-16589984D01*
X5415420Y-16789984D02*
X5415420Y-16656650D01*
X5415420Y-16675698D02*
X5424944Y-16666174D01*
X5424944Y-16666174D02*
X5443991Y-16656650D01*
X5443991Y-16656650D02*
X5472563Y-16656650D01*
X5472563Y-16656650D02*
X5491610Y-16666174D01*
X5491610Y-16666174D02*
X5501134Y-16685222D01*
X5501134Y-16685222D02*
X5501134Y-16789984D01*
X5501134Y-16685222D02*
X5510658Y-16666174D01*
X5510658Y-16666174D02*
X5529705Y-16656650D01*
X5529705Y-16656650D02*
X5558277Y-16656650D01*
X5558277Y-16656650D02*
X5577325Y-16666174D01*
X5577325Y-16666174D02*
X5586848Y-16685222D01*
X5586848Y-16685222D02*
X5586848Y-16789984D01*
X5682086Y-16789984D02*
X5682086Y-16656650D01*
X5682086Y-16675698D02*
X5691610Y-16666174D01*
X5691610Y-16666174D02*
X5710658Y-16656650D01*
X5710658Y-16656650D02*
X5739229Y-16656650D01*
X5739229Y-16656650D02*
X5758277Y-16666174D01*
X5758277Y-16666174D02*
X5767801Y-16685222D01*
X5767801Y-16685222D02*
X5767801Y-16789984D01*
X5767801Y-16685222D02*
X5777324Y-16666174D01*
X5777324Y-16666174D02*
X5796372Y-16656650D01*
X5796372Y-16656650D02*
X5824943Y-16656650D01*
X5824943Y-16656650D02*
X5843991Y-16666174D01*
X5843991Y-16666174D02*
X5853515Y-16685222D01*
X5853515Y-16685222D02*
X5853515Y-16789984D01*
X6243991Y-16580460D02*
X6072563Y-16837603D01*
X6501134Y-16589984D02*
X6520182Y-16589984D01*
X6520182Y-16589984D02*
X6539229Y-16599508D01*
X6539229Y-16599508D02*
X6548753Y-16609031D01*
X6548753Y-16609031D02*
X6558277Y-16628079D01*
X6558277Y-16628079D02*
X6567801Y-16666174D01*
X6567801Y-16666174D02*
X6567801Y-16713793D01*
X6567801Y-16713793D02*
X6558277Y-16751888D01*
X6558277Y-16751888D02*
X6548753Y-16770936D01*
X6548753Y-16770936D02*
X6539229Y-16780460D01*
X6539229Y-16780460D02*
X6520182Y-16789984D01*
X6520182Y-16789984D02*
X6501134Y-16789984D01*
X6501134Y-16789984D02*
X6482086Y-16780460D01*
X6482086Y-16780460D02*
X6472563Y-16770936D01*
X6472563Y-16770936D02*
X6463039Y-16751888D01*
X6463039Y-16751888D02*
X6453515Y-16713793D01*
X6453515Y-16713793D02*
X6453515Y-16666174D01*
X6453515Y-16666174D02*
X6463039Y-16628079D01*
X6463039Y-16628079D02*
X6472563Y-16609031D01*
X6472563Y-16609031D02*
X6482086Y-16599508D01*
X6482086Y-16599508D02*
X6501134Y-16589984D01*
X6653515Y-16770936D02*
X6663039Y-16780460D01*
X6663039Y-16780460D02*
X6653515Y-16789984D01*
X6653515Y-16789984D02*
X6643991Y-16780460D01*
X6643991Y-16780460D02*
X6653515Y-16770936D01*
X6653515Y-16770936D02*
X6653515Y-16789984D01*
X6786848Y-16589984D02*
X6805896Y-16589984D01*
X6805896Y-16589984D02*
X6824944Y-16599508D01*
X6824944Y-16599508D02*
X6834467Y-16609031D01*
X6834467Y-16609031D02*
X6843991Y-16628079D01*
X6843991Y-16628079D02*
X6853515Y-16666174D01*
X6853515Y-16666174D02*
X6853515Y-16713793D01*
X6853515Y-16713793D02*
X6843991Y-16751888D01*
X6843991Y-16751888D02*
X6834467Y-16770936D01*
X6834467Y-16770936D02*
X6824944Y-16780460D01*
X6824944Y-16780460D02*
X6805896Y-16789984D01*
X6805896Y-16789984D02*
X6786848Y-16789984D01*
X6786848Y-16789984D02*
X6767801Y-16780460D01*
X6767801Y-16780460D02*
X6758277Y-16770936D01*
X6758277Y-16770936D02*
X6748753Y-16751888D01*
X6748753Y-16751888D02*
X6739229Y-16713793D01*
X6739229Y-16713793D02*
X6739229Y-16666174D01*
X6739229Y-16666174D02*
X6748753Y-16628079D01*
X6748753Y-16628079D02*
X6758277Y-16609031D01*
X6758277Y-16609031D02*
X6767801Y-16599508D01*
X6767801Y-16599508D02*
X6786848Y-16589984D01*
X6967801Y-16675698D02*
X6948753Y-16666174D01*
X6948753Y-16666174D02*
X6939229Y-16656650D01*
X6939229Y-16656650D02*
X6929706Y-16637603D01*
X6929706Y-16637603D02*
X6929706Y-16628079D01*
X6929706Y-16628079D02*
X6939229Y-16609031D01*
X6939229Y-16609031D02*
X6948753Y-16599508D01*
X6948753Y-16599508D02*
X6967801Y-16589984D01*
X6967801Y-16589984D02*
X7005896Y-16589984D01*
X7005896Y-16589984D02*
X7024944Y-16599508D01*
X7024944Y-16599508D02*
X7034467Y-16609031D01*
X7034467Y-16609031D02*
X7043991Y-16628079D01*
X7043991Y-16628079D02*
X7043991Y-16637603D01*
X7043991Y-16637603D02*
X7034467Y-16656650D01*
X7034467Y-16656650D02*
X7024944Y-16666174D01*
X7024944Y-16666174D02*
X7005896Y-16675698D01*
X7005896Y-16675698D02*
X6967801Y-16675698D01*
X6967801Y-16675698D02*
X6948753Y-16685222D01*
X6948753Y-16685222D02*
X6939229Y-16694746D01*
X6939229Y-16694746D02*
X6929706Y-16713793D01*
X6929706Y-16713793D02*
X6929706Y-16751888D01*
X6929706Y-16751888D02*
X6939229Y-16770936D01*
X6939229Y-16770936D02*
X6948753Y-16780460D01*
X6948753Y-16780460D02*
X6967801Y-16789984D01*
X6967801Y-16789984D02*
X7005896Y-16789984D01*
X7005896Y-16789984D02*
X7024944Y-16780460D01*
X7024944Y-16780460D02*
X7034467Y-16770936D01*
X7034467Y-16770936D02*
X7043991Y-16751888D01*
X7043991Y-16751888D02*
X7043991Y-16713793D01*
X7043991Y-16713793D02*
X7034467Y-16694746D01*
X7034467Y-16694746D02*
X7024944Y-16685222D01*
X7024944Y-16685222D02*
X7005896Y-16675698D01*
X7215420Y-16589984D02*
X7177325Y-16589984D01*
X7177325Y-16589984D02*
X7158277Y-16599508D01*
X7158277Y-16599508D02*
X7148753Y-16609031D01*
X7148753Y-16609031D02*
X7129706Y-16637603D01*
X7129706Y-16637603D02*
X7120182Y-16675698D01*
X7120182Y-16675698D02*
X7120182Y-16751888D01*
X7120182Y-16751888D02*
X7129706Y-16770936D01*
X7129706Y-16770936D02*
X7139229Y-16780460D01*
X7139229Y-16780460D02*
X7158277Y-16789984D01*
X7158277Y-16789984D02*
X7196372Y-16789984D01*
X7196372Y-16789984D02*
X7215420Y-16780460D01*
X7215420Y-16780460D02*
X7224944Y-16770936D01*
X7224944Y-16770936D02*
X7234467Y-16751888D01*
X7234467Y-16751888D02*
X7234467Y-16704269D01*
X7234467Y-16704269D02*
X7224944Y-16685222D01*
X7224944Y-16685222D02*
X7215420Y-16675698D01*
X7215420Y-16675698D02*
X7196372Y-16666174D01*
X7196372Y-16666174D02*
X7158277Y-16666174D01*
X7158277Y-16666174D02*
X7139229Y-16675698D01*
X7139229Y-16675698D02*
X7129706Y-16685222D01*
X7129706Y-16685222D02*
X7120182Y-16704269D01*
X7405896Y-16589984D02*
X7367801Y-16589984D01*
X7367801Y-16589984D02*
X7348753Y-16599508D01*
X7348753Y-16599508D02*
X7339229Y-16609031D01*
X7339229Y-16609031D02*
X7320182Y-16637603D01*
X7320182Y-16637603D02*
X7310658Y-16675698D01*
X7310658Y-16675698D02*
X7310658Y-16751888D01*
X7310658Y-16751888D02*
X7320182Y-16770936D01*
X7320182Y-16770936D02*
X7329706Y-16780460D01*
X7329706Y-16780460D02*
X7348753Y-16789984D01*
X7348753Y-16789984D02*
X7386848Y-16789984D01*
X7386848Y-16789984D02*
X7405896Y-16780460D01*
X7405896Y-16780460D02*
X7415420Y-16770936D01*
X7415420Y-16770936D02*
X7424944Y-16751888D01*
X7424944Y-16751888D02*
X7424944Y-16704269D01*
X7424944Y-16704269D02*
X7415420Y-16685222D01*
X7415420Y-16685222D02*
X7405896Y-16675698D01*
X7405896Y-16675698D02*
X7386848Y-16666174D01*
X7386848Y-16666174D02*
X7348753Y-16666174D01*
X7348753Y-16666174D02*
X7329706Y-16675698D01*
X7329706Y-16675698D02*
X7320182Y-16685222D01*
X7320182Y-16685222D02*
X7310658Y-16704269D01*
X7501134Y-16589984D02*
X7501134Y-16628079D01*
X7577325Y-16589984D02*
X7577325Y-16628079D01*
X7872563Y-16866174D02*
X7863039Y-16856650D01*
X7863039Y-16856650D02*
X7843991Y-16828079D01*
X7843991Y-16828079D02*
X7834468Y-16809031D01*
X7834468Y-16809031D02*
X7824944Y-16780460D01*
X7824944Y-16780460D02*
X7815420Y-16732841D01*
X7815420Y-16732841D02*
X7815420Y-16694746D01*
X7815420Y-16694746D02*
X7824944Y-16647127D01*
X7824944Y-16647127D02*
X7834468Y-16618555D01*
X7834468Y-16618555D02*
X7843991Y-16599508D01*
X7843991Y-16599508D02*
X7863039Y-16570936D01*
X7863039Y-16570936D02*
X7872563Y-16561412D01*
X8043991Y-16589984D02*
X7948753Y-16589984D01*
X7948753Y-16589984D02*
X7939229Y-16685222D01*
X7939229Y-16685222D02*
X7948753Y-16675698D01*
X7948753Y-16675698D02*
X7967801Y-16666174D01*
X7967801Y-16666174D02*
X8015420Y-16666174D01*
X8015420Y-16666174D02*
X8034468Y-16675698D01*
X8034468Y-16675698D02*
X8043991Y-16685222D01*
X8043991Y-16685222D02*
X8053515Y-16704269D01*
X8053515Y-16704269D02*
X8053515Y-16751888D01*
X8053515Y-16751888D02*
X8043991Y-16770936D01*
X8043991Y-16770936D02*
X8034468Y-16780460D01*
X8034468Y-16780460D02*
X8015420Y-16789984D01*
X8015420Y-16789984D02*
X7967801Y-16789984D01*
X7967801Y-16789984D02*
X7948753Y-16780460D01*
X7948753Y-16780460D02*
X7939229Y-16770936D01*
X8291610Y-16789984D02*
X8291610Y-16589984D01*
X8377325Y-16789984D02*
X8377325Y-16685222D01*
X8377325Y-16685222D02*
X8367801Y-16666174D01*
X8367801Y-16666174D02*
X8348753Y-16656650D01*
X8348753Y-16656650D02*
X8320182Y-16656650D01*
X8320182Y-16656650D02*
X8301134Y-16666174D01*
X8301134Y-16666174D02*
X8291610Y-16675698D01*
X8501134Y-16789984D02*
X8482087Y-16780460D01*
X8482087Y-16780460D02*
X8472563Y-16770936D01*
X8472563Y-16770936D02*
X8463039Y-16751888D01*
X8463039Y-16751888D02*
X8463039Y-16694746D01*
X8463039Y-16694746D02*
X8472563Y-16675698D01*
X8472563Y-16675698D02*
X8482087Y-16666174D01*
X8482087Y-16666174D02*
X8501134Y-16656650D01*
X8501134Y-16656650D02*
X8529706Y-16656650D01*
X8529706Y-16656650D02*
X8548753Y-16666174D01*
X8548753Y-16666174D02*
X8558277Y-16675698D01*
X8558277Y-16675698D02*
X8567801Y-16694746D01*
X8567801Y-16694746D02*
X8567801Y-16751888D01*
X8567801Y-16751888D02*
X8558277Y-16770936D01*
X8558277Y-16770936D02*
X8548753Y-16780460D01*
X8548753Y-16780460D02*
X8529706Y-16789984D01*
X8529706Y-16789984D02*
X8501134Y-16789984D01*
X8682087Y-16789984D02*
X8663039Y-16780460D01*
X8663039Y-16780460D02*
X8653515Y-16761412D01*
X8653515Y-16761412D02*
X8653515Y-16589984D01*
X8834468Y-16780460D02*
X8815420Y-16789984D01*
X8815420Y-16789984D02*
X8777325Y-16789984D01*
X8777325Y-16789984D02*
X8758277Y-16780460D01*
X8758277Y-16780460D02*
X8748753Y-16761412D01*
X8748753Y-16761412D02*
X8748753Y-16685222D01*
X8748753Y-16685222D02*
X8758277Y-16666174D01*
X8758277Y-16666174D02*
X8777325Y-16656650D01*
X8777325Y-16656650D02*
X8815420Y-16656650D01*
X8815420Y-16656650D02*
X8834468Y-16666174D01*
X8834468Y-16666174D02*
X8843992Y-16685222D01*
X8843992Y-16685222D02*
X8843992Y-16704269D01*
X8843992Y-16704269D02*
X8748753Y-16723317D01*
X8920182Y-16780460D02*
X8939230Y-16789984D01*
X8939230Y-16789984D02*
X8977325Y-16789984D01*
X8977325Y-16789984D02*
X8996373Y-16780460D01*
X8996373Y-16780460D02*
X9005896Y-16761412D01*
X9005896Y-16761412D02*
X9005896Y-16751888D01*
X9005896Y-16751888D02*
X8996373Y-16732841D01*
X8996373Y-16732841D02*
X8977325Y-16723317D01*
X8977325Y-16723317D02*
X8948753Y-16723317D01*
X8948753Y-16723317D02*
X8929706Y-16713793D01*
X8929706Y-16713793D02*
X8920182Y-16694746D01*
X8920182Y-16694746D02*
X8920182Y-16685222D01*
X8920182Y-16685222D02*
X8929706Y-16666174D01*
X8929706Y-16666174D02*
X8948753Y-16656650D01*
X8948753Y-16656650D02*
X8977325Y-16656650D01*
X8977325Y-16656650D02*
X8996373Y-16666174D01*
X9072563Y-16866174D02*
X9082087Y-16856650D01*
X9082087Y-16856650D02*
X9101134Y-16828079D01*
X9101134Y-16828079D02*
X9110658Y-16809031D01*
X9110658Y-16809031D02*
X9120182Y-16780460D01*
X9120182Y-16780460D02*
X9129706Y-16732841D01*
X9129706Y-16732841D02*
X9129706Y-16694746D01*
X9129706Y-16694746D02*
X9120182Y-16647127D01*
X9120182Y-16647127D02*
X9110658Y-16618555D01*
X9110658Y-16618555D02*
X9101134Y-16599508D01*
X9101134Y-16599508D02*
X9082087Y-16570936D01*
X9082087Y-16570936D02*
X9072563Y-16561412D01*
M02*
