M48
; DRILL file {KiCad 8.0.6} date 2024-11-06T13:14:42+0000
; FORMAT={-:-/ absolute / metric / decimal}
; #@! TF.CreationDate,2024-11-06T13:14:42+00:00
; #@! TF.GenerationSoftware,Kicad,Pcbnew,8.0.6
; #@! TF.FileFunction,Plated,1,2,PTH
FMAT,2
METRIC
; #@! TA.AperFunction,Plated,PTH,ViaDrill
T1C0.300
; #@! TA.AperFunction,Plated,PTH,ViaDrill
T2C0.330
; #@! TA.AperFunction,Plated,PTH,ComponentDrill
T3C0.800
; #@! TA.AperFunction,Plated,PTH,ComponentDrill
T4C1.000
; #@! TA.AperFunction,Plated,PTH,ComponentDrill
T5C2.200
%
G90
G05
T1
X50.01Y-101.49
X53.16Y-88.9
X64.47Y-76.45
X65.185Y-78.765
X87.39Y-79.07
X89.8Y-61.56
X92.42Y-75.12
X95.27Y-43.77
X97.9Y-46.95
X104.55Y-71.67
X104.55Y-76.8
X104.89Y-79.07
X105.105Y-82.025
X109.21Y-66.51
X117.58Y-70.98
X117.63Y-51.9
X119.08Y-84.7
X131.8Y-108.9
X131.8Y-131.15
X142.84Y-100.69
X146.41Y-70.98
X149.79Y-76.27
X153.17Y-33.615
X158.04Y-124.92
X166.57Y-34.9
X171.1Y-94.8
X171.19Y-71.21
X174.08Y-77.25
X177.45Y-77.25
X181.07Y-117.04
X181.07Y-126.81
X186.35Y-104.01
X189.65Y-77.25
X190.41Y-61.11
X194.2Y-79.99
X194.2Y-83.02
X194.29Y-96.08
X196.3Y-67.0
X199.6Y-94.45
X201.05Y-70.75
X217.52Y-61.68
X224.185Y-69.085
X227.44Y-70.7
X228.6Y-84.52
X228.6Y-94.45
T2
X66.54Y-100.47
X80.71Y-74.41
X101.52Y-57.18
X102.98Y-67.36
X105.2Y-55.6
X106.8Y-54.3
X107.1Y-59.3
X109.0Y-52.7
X114.06Y-45.1
X135.01Y-82.4
X140.29Y-64.74
X147.44Y-133.49
X147.9Y-46.3
X153.1Y-31.2
X157.43Y-67.8
X158.7Y-101.52
X162.18Y-68.32
X162.27Y-74.92
X167.3Y-81.1
X171.0Y-81.1
X177.28Y-124.12
X187.55Y-96.65
X189.57Y-70.55
X215.78Y-96.61
X217.32Y-69.86
X241.49Y-60.01
X245.24Y-96.17
T3
X128.05Y-28.535
X128.05Y-31.075
X128.05Y-33.615
X128.05Y-36.155
X128.05Y-38.695
X128.05Y-41.235
X128.05Y-43.775
X128.05Y-46.315
X128.05Y-48.855
X130.59Y-48.855
X133.13Y-48.855
X135.67Y-48.855
X138.21Y-48.855
X140.75Y-48.855
X143.29Y-28.535
X143.29Y-31.075
X143.29Y-33.615
X143.29Y-36.155
X143.29Y-38.695
X143.29Y-41.235
X143.29Y-43.775
X143.29Y-46.315
X143.29Y-48.855
T4
X191.88Y-28.55
X194.42Y-28.55
X196.96Y-28.55
X199.5Y-28.55
T5
X52.5Y-32.5
X52.5Y-142.5
X157.5Y-142.5
X237.5Y-32.5
X237.5Y-142.5
M30
