%TF.GenerationSoftware,KiCad,Pcbnew,8.0.6*%
%TF.CreationDate,2024-11-20T03:37:43+00:00*%
%TF.ProjectId,keychron_hitbox,6b657963-6872-46f6-9e5f-686974626f78,rev?*%
%TF.SameCoordinates,Original*%
%TF.FileFunction,Paste,Top*%
%TF.FilePolarity,Positive*%
%FSLAX46Y46*%
G04 Gerber Fmt 4.6, Leading zero omitted, Abs format (unit mm)*
G04 Created by KiCad (PCBNEW 8.0.6) date 2024-11-20 03:37:43*
%MOMM*%
%LPD*%
G01*
G04 APERTURE LIST*
G04 Aperture macros list*
%AMRoundRect*
0 Rectangle with rounded corners*
0 $1 Rounding radius*
0 $2 $3 $4 $5 $6 $7 $8 $9 X,Y pos of 4 corners*
0 Add a 4 corners polygon primitive as box body*
4,1,4,$2,$3,$4,$5,$6,$7,$8,$9,$2,$3,0*
0 Add four circle primitives for the rounded corners*
1,1,$1+$1,$2,$3*
1,1,$1+$1,$4,$5*
1,1,$1+$1,$6,$7*
1,1,$1+$1,$8,$9*
0 Add four rect primitives between the rounded corners*
20,1,$1+$1,$2,$3,$4,$5,0*
20,1,$1+$1,$4,$5,$6,$7,0*
20,1,$1+$1,$6,$7,$8,$9,0*
20,1,$1+$1,$8,$9,$2,$3,0*%
G04 Aperture macros list end*
%ADD10R,0.700000X0.800000*%
%ADD11RoundRect,0.208333X-1.291667X0.291667X-1.291667X-0.291667X1.291667X-0.291667X1.291667X0.291667X0*%
%ADD12RoundRect,0.500000X-0.500000X1.250000X-0.500000X-1.250000X0.500000X-1.250000X0.500000X1.250000X0*%
%ADD13RoundRect,0.175000X0.175000X-0.475000X0.175000X0.475000X-0.175000X0.475000X-0.175000X-0.475000X0*%
G04 APERTURE END LIST*
D10*
X171600000Y-125150000D03*
X171600000Y-126950000D03*
X166200000Y-126950000D03*
X166200000Y-125150000D03*
X183500000Y-71200000D03*
X183500000Y-73000000D03*
X178100000Y-73000000D03*
X178100000Y-71200000D03*
X239100000Y-97750000D03*
X239100000Y-99550000D03*
X233700000Y-99550000D03*
X233700000Y-97750000D03*
X210100000Y-97750000D03*
X210100000Y-99550000D03*
X204700000Y-99550000D03*
X204700000Y-97750000D03*
D11*
X55100000Y-50950000D03*
X55100000Y-53450000D03*
X55100000Y-55450000D03*
D12*
X52600000Y-46825000D03*
X46600000Y-46825000D03*
D11*
X55100000Y-57950000D03*
D12*
X52600000Y-62075000D03*
X46600000Y-62075000D03*
D10*
X211100000Y-70750000D03*
X211100000Y-72550000D03*
X205700000Y-72550000D03*
X205700000Y-70750000D03*
X152600000Y-103250000D03*
X152600000Y-105050000D03*
X147200000Y-105050000D03*
X147200000Y-103250000D03*
D13*
X75750000Y-38000000D03*
X75750000Y-30000000D03*
X80250000Y-38000000D03*
X80250000Y-30000000D03*
X67250000Y-38000000D03*
X67250000Y-30000000D03*
X71750000Y-38000000D03*
X71750000Y-30000000D03*
D10*
X238900000Y-70700000D03*
X238900000Y-72500000D03*
X233500000Y-72500000D03*
X233500000Y-70700000D03*
X108200000Y-45400000D03*
X108200000Y-47200000D03*
X102800000Y-47200000D03*
X102800000Y-45400000D03*
X156600000Y-75150000D03*
X156600000Y-76950000D03*
X151200000Y-76950000D03*
X151200000Y-75150000D03*
X166500000Y-45200000D03*
X166500000Y-47000000D03*
X161100000Y-47000000D03*
X161100000Y-45200000D03*
X74500000Y-75200000D03*
X74500000Y-77000000D03*
X69100000Y-77000000D03*
X69100000Y-75200000D03*
X129500000Y-83700000D03*
X129500000Y-85500000D03*
X124100000Y-85500000D03*
X124100000Y-83700000D03*
D13*
X84250000Y-38000000D03*
X84250000Y-30000000D03*
X88750000Y-38000000D03*
X88750000Y-30000000D03*
D10*
X141600000Y-133750000D03*
X141600000Y-135550000D03*
X136200000Y-135550000D03*
X136200000Y-133750000D03*
D13*
X58750000Y-38000000D03*
X58750000Y-30000000D03*
X63250000Y-38000000D03*
X63250000Y-30000000D03*
D10*
X181500000Y-98000000D03*
X181500000Y-99800000D03*
X176100000Y-99800000D03*
X176100000Y-98000000D03*
X102500000Y-72700000D03*
X102500000Y-74500000D03*
X97100000Y-74500000D03*
X97100000Y-72700000D03*
X60100000Y-101250000D03*
X60100000Y-103050000D03*
X54700000Y-103050000D03*
X54700000Y-101250000D03*
M02*
