%TF.GenerationSoftware,KiCad,Pcbnew,8.0.6*%
%TF.CreationDate,2024-11-06T13:13:06+00:00*%
%TF.ProjectId,keychron_hitbox,6b657963-6872-46f6-9e5f-686974626f78,rev?*%
%TF.SameCoordinates,Original*%
%TF.FileFunction,Legend,Bot*%
%TF.FilePolarity,Positive*%
%FSLAX46Y46*%
G04 Gerber Fmt 4.6, Leading zero omitted, Abs format (unit mm)*
G04 Created by KiCad (PCBNEW 8.0.6) date 2024-11-06 13:13:06*
%MOMM*%
%LPD*%
G01*
G04 APERTURE LIST*
G04 Aperture macros list*
%AMRoundRect*
0 Rectangle with rounded corners*
0 $1 Rounding radius*
0 $2 $3 $4 $5 $6 $7 $8 $9 X,Y pos of 4 corners*
0 Add a 4 corners polygon primitive as box body*
4,1,4,$2,$3,$4,$5,$6,$7,$8,$9,$2,$3,0*
0 Add four circle primitives for the rounded corners*
1,1,$1+$1,$2,$3*
1,1,$1+$1,$4,$5*
1,1,$1+$1,$6,$7*
1,1,$1+$1,$8,$9*
0 Add four rect primitives between the rounded corners*
20,1,$1+$1,$2,$3,$4,$5,0*
20,1,$1+$1,$4,$5,$6,$7,0*
20,1,$1+$1,$6,$7,$8,$9,0*
20,1,$1+$1,$8,$9,$2,$3,0*%
G04 Aperture macros list end*
%ADD10C,0.150000*%
%ADD11C,0.120000*%
%ADD12O,5.800000X1.500000*%
%ADD13C,3.500000*%
%ADD14O,1.600000X2.000000*%
%ADD15C,1.700000*%
%ADD16RoundRect,0.250000X-0.450000X0.262500X-0.450000X-0.262500X0.450000X-0.262500X0.450000X0.262500X0*%
%ADD17R,1.000000X1.000000*%
G04 APERTURE END LIST*
D10*
X240454819Y-66657142D02*
X239978628Y-66323809D01*
X240454819Y-66085714D02*
X239454819Y-66085714D01*
X239454819Y-66085714D02*
X239454819Y-66466666D01*
X239454819Y-66466666D02*
X239502438Y-66561904D01*
X239502438Y-66561904D02*
X239550057Y-66609523D01*
X239550057Y-66609523D02*
X239645295Y-66657142D01*
X239645295Y-66657142D02*
X239788152Y-66657142D01*
X239788152Y-66657142D02*
X239883390Y-66609523D01*
X239883390Y-66609523D02*
X239931009Y-66561904D01*
X239931009Y-66561904D02*
X239978628Y-66466666D01*
X239978628Y-66466666D02*
X239978628Y-66085714D01*
X240454819Y-67609523D02*
X240454819Y-67038095D01*
X240454819Y-67323809D02*
X239454819Y-67323809D01*
X239454819Y-67323809D02*
X239597676Y-67228571D01*
X239597676Y-67228571D02*
X239692914Y-67133333D01*
X239692914Y-67133333D02*
X239740533Y-67038095D01*
X240454819Y-68561904D02*
X240454819Y-67990476D01*
X240454819Y-68276190D02*
X239454819Y-68276190D01*
X239454819Y-68276190D02*
X239597676Y-68180952D01*
X239597676Y-68180952D02*
X239692914Y-68085714D01*
X239692914Y-68085714D02*
X239740533Y-67990476D01*
X105382381Y-74284819D02*
X105715714Y-73808628D01*
X105953809Y-74284819D02*
X105953809Y-73284819D01*
X105953809Y-73284819D02*
X105572857Y-73284819D01*
X105572857Y-73284819D02*
X105477619Y-73332438D01*
X105477619Y-73332438D02*
X105430000Y-73380057D01*
X105430000Y-73380057D02*
X105382381Y-73475295D01*
X105382381Y-73475295D02*
X105382381Y-73618152D01*
X105382381Y-73618152D02*
X105430000Y-73713390D01*
X105430000Y-73713390D02*
X105477619Y-73761009D01*
X105477619Y-73761009D02*
X105572857Y-73808628D01*
X105572857Y-73808628D02*
X105953809Y-73808628D01*
X105191905Y-74380057D02*
X104430000Y-74380057D01*
X104191904Y-74284819D02*
X104191904Y-73284819D01*
X104191904Y-73284819D02*
X103810952Y-73284819D01*
X103810952Y-73284819D02*
X103715714Y-73332438D01*
X103715714Y-73332438D02*
X103668095Y-73380057D01*
X103668095Y-73380057D02*
X103620476Y-73475295D01*
X103620476Y-73475295D02*
X103620476Y-73618152D01*
X103620476Y-73618152D02*
X103668095Y-73713390D01*
X103668095Y-73713390D02*
X103715714Y-73761009D01*
X103715714Y-73761009D02*
X103810952Y-73808628D01*
X103810952Y-73808628D02*
X104191904Y-73808628D01*
X103334761Y-73284819D02*
X102763333Y-73284819D01*
X103049047Y-74284819D02*
X103049047Y-73284819D01*
X158981428Y-76349771D02*
X159181428Y-76064057D01*
X159324285Y-76349771D02*
X159324285Y-75749771D01*
X159324285Y-75749771D02*
X159095714Y-75749771D01*
X159095714Y-75749771D02*
X159038571Y-75778342D01*
X159038571Y-75778342D02*
X159010000Y-75806914D01*
X159010000Y-75806914D02*
X158981428Y-75864057D01*
X158981428Y-75864057D02*
X158981428Y-75949771D01*
X158981428Y-75949771D02*
X159010000Y-76006914D01*
X159010000Y-76006914D02*
X159038571Y-76035485D01*
X159038571Y-76035485D02*
X159095714Y-76064057D01*
X159095714Y-76064057D02*
X159324285Y-76064057D01*
X158867143Y-76406914D02*
X158410000Y-76406914D01*
X158267142Y-76349771D02*
X158267142Y-75749771D01*
X158267142Y-75749771D02*
X158038571Y-75749771D01*
X158038571Y-75749771D02*
X157981428Y-75778342D01*
X157981428Y-75778342D02*
X157952857Y-75806914D01*
X157952857Y-75806914D02*
X157924285Y-75864057D01*
X157924285Y-75864057D02*
X157924285Y-75949771D01*
X157924285Y-75949771D02*
X157952857Y-76006914D01*
X157952857Y-76006914D02*
X157981428Y-76035485D01*
X157981428Y-76035485D02*
X158038571Y-76064057D01*
X158038571Y-76064057D02*
X158267142Y-76064057D01*
X157752857Y-75749771D02*
X157410000Y-75749771D01*
X157581428Y-76349771D02*
X157581428Y-75749771D01*
X142611428Y-134749771D02*
X142811428Y-134464057D01*
X142954285Y-134749771D02*
X142954285Y-134149771D01*
X142954285Y-134149771D02*
X142725714Y-134149771D01*
X142725714Y-134149771D02*
X142668571Y-134178342D01*
X142668571Y-134178342D02*
X142640000Y-134206914D01*
X142640000Y-134206914D02*
X142611428Y-134264057D01*
X142611428Y-134264057D02*
X142611428Y-134349771D01*
X142611428Y-134349771D02*
X142640000Y-134406914D01*
X142640000Y-134406914D02*
X142668571Y-134435485D01*
X142668571Y-134435485D02*
X142725714Y-134464057D01*
X142725714Y-134464057D02*
X142954285Y-134464057D01*
X142497143Y-134806914D02*
X142040000Y-134806914D01*
X141897142Y-134749771D02*
X141897142Y-134149771D01*
X141897142Y-134149771D02*
X141668571Y-134149771D01*
X141668571Y-134149771D02*
X141611428Y-134178342D01*
X141611428Y-134178342D02*
X141582857Y-134206914D01*
X141582857Y-134206914D02*
X141554285Y-134264057D01*
X141554285Y-134264057D02*
X141554285Y-134349771D01*
X141554285Y-134349771D02*
X141582857Y-134406914D01*
X141582857Y-134406914D02*
X141611428Y-134435485D01*
X141611428Y-134435485D02*
X141668571Y-134464057D01*
X141668571Y-134464057D02*
X141897142Y-134464057D01*
X141382857Y-134149771D02*
X141040000Y-134149771D01*
X141211428Y-134749771D02*
X141211428Y-134149771D01*
X157854819Y-71520833D02*
X157378628Y-71187500D01*
X157854819Y-70949405D02*
X156854819Y-70949405D01*
X156854819Y-70949405D02*
X156854819Y-71330357D01*
X156854819Y-71330357D02*
X156902438Y-71425595D01*
X156902438Y-71425595D02*
X156950057Y-71473214D01*
X156950057Y-71473214D02*
X157045295Y-71520833D01*
X157045295Y-71520833D02*
X157188152Y-71520833D01*
X157188152Y-71520833D02*
X157283390Y-71473214D01*
X157283390Y-71473214D02*
X157331009Y-71425595D01*
X157331009Y-71425595D02*
X157378628Y-71330357D01*
X157378628Y-71330357D02*
X157378628Y-70949405D01*
X157283390Y-72092262D02*
X157235771Y-71997024D01*
X157235771Y-71997024D02*
X157188152Y-71949405D01*
X157188152Y-71949405D02*
X157092914Y-71901786D01*
X157092914Y-71901786D02*
X157045295Y-71901786D01*
X157045295Y-71901786D02*
X156950057Y-71949405D01*
X156950057Y-71949405D02*
X156902438Y-71997024D01*
X156902438Y-71997024D02*
X156854819Y-72092262D01*
X156854819Y-72092262D02*
X156854819Y-72282738D01*
X156854819Y-72282738D02*
X156902438Y-72377976D01*
X156902438Y-72377976D02*
X156950057Y-72425595D01*
X156950057Y-72425595D02*
X157045295Y-72473214D01*
X157045295Y-72473214D02*
X157092914Y-72473214D01*
X157092914Y-72473214D02*
X157188152Y-72425595D01*
X157188152Y-72425595D02*
X157235771Y-72377976D01*
X157235771Y-72377976D02*
X157283390Y-72282738D01*
X157283390Y-72282738D02*
X157283390Y-72092262D01*
X157283390Y-72092262D02*
X157331009Y-71997024D01*
X157331009Y-71997024D02*
X157378628Y-71949405D01*
X157378628Y-71949405D02*
X157473866Y-71901786D01*
X157473866Y-71901786D02*
X157664342Y-71901786D01*
X157664342Y-71901786D02*
X157759580Y-71949405D01*
X157759580Y-71949405D02*
X157807200Y-71997024D01*
X157807200Y-71997024D02*
X157854819Y-72092262D01*
X157854819Y-72092262D02*
X157854819Y-72282738D01*
X157854819Y-72282738D02*
X157807200Y-72377976D01*
X157807200Y-72377976D02*
X157759580Y-72425595D01*
X157759580Y-72425595D02*
X157664342Y-72473214D01*
X157664342Y-72473214D02*
X157473866Y-72473214D01*
X157473866Y-72473214D02*
X157378628Y-72425595D01*
X157378628Y-72425595D02*
X157331009Y-72377976D01*
X157331009Y-72377976D02*
X157283390Y-72282738D01*
X211454819Y-93244642D02*
X210978628Y-92911309D01*
X211454819Y-92673214D02*
X210454819Y-92673214D01*
X210454819Y-92673214D02*
X210454819Y-93054166D01*
X210454819Y-93054166D02*
X210502438Y-93149404D01*
X210502438Y-93149404D02*
X210550057Y-93197023D01*
X210550057Y-93197023D02*
X210645295Y-93244642D01*
X210645295Y-93244642D02*
X210788152Y-93244642D01*
X210788152Y-93244642D02*
X210883390Y-93197023D01*
X210883390Y-93197023D02*
X210931009Y-93149404D01*
X210931009Y-93149404D02*
X210978628Y-93054166D01*
X210978628Y-93054166D02*
X210978628Y-92673214D01*
X211454819Y-94197023D02*
X211454819Y-93625595D01*
X211454819Y-93911309D02*
X210454819Y-93911309D01*
X210454819Y-93911309D02*
X210597676Y-93816071D01*
X210597676Y-93816071D02*
X210692914Y-93720833D01*
X210692914Y-93720833D02*
X210740533Y-93625595D01*
X210788152Y-95054166D02*
X211454819Y-95054166D01*
X210407200Y-94816071D02*
X211121485Y-94577976D01*
X211121485Y-94577976D02*
X211121485Y-95197023D01*
X130567319Y-79233333D02*
X130091128Y-78900000D01*
X130567319Y-78661905D02*
X129567319Y-78661905D01*
X129567319Y-78661905D02*
X129567319Y-79042857D01*
X129567319Y-79042857D02*
X129614938Y-79138095D01*
X129614938Y-79138095D02*
X129662557Y-79185714D01*
X129662557Y-79185714D02*
X129757795Y-79233333D01*
X129757795Y-79233333D02*
X129900652Y-79233333D01*
X129900652Y-79233333D02*
X129995890Y-79185714D01*
X129995890Y-79185714D02*
X130043509Y-79138095D01*
X130043509Y-79138095D02*
X130091128Y-79042857D01*
X130091128Y-79042857D02*
X130091128Y-78661905D01*
X129567319Y-80090476D02*
X129567319Y-79900000D01*
X129567319Y-79900000D02*
X129614938Y-79804762D01*
X129614938Y-79804762D02*
X129662557Y-79757143D01*
X129662557Y-79757143D02*
X129805414Y-79661905D01*
X129805414Y-79661905D02*
X129995890Y-79614286D01*
X129995890Y-79614286D02*
X130376842Y-79614286D01*
X130376842Y-79614286D02*
X130472080Y-79661905D01*
X130472080Y-79661905D02*
X130519700Y-79709524D01*
X130519700Y-79709524D02*
X130567319Y-79804762D01*
X130567319Y-79804762D02*
X130567319Y-79995238D01*
X130567319Y-79995238D02*
X130519700Y-80090476D01*
X130519700Y-80090476D02*
X130472080Y-80138095D01*
X130472080Y-80138095D02*
X130376842Y-80185714D01*
X130376842Y-80185714D02*
X130138747Y-80185714D01*
X130138747Y-80185714D02*
X130043509Y-80138095D01*
X130043509Y-80138095D02*
X129995890Y-80090476D01*
X129995890Y-80090476D02*
X129948271Y-79995238D01*
X129948271Y-79995238D02*
X129948271Y-79804762D01*
X129948271Y-79804762D02*
X129995890Y-79709524D01*
X129995890Y-79709524D02*
X130043509Y-79661905D01*
X130043509Y-79661905D02*
X130138747Y-79614286D01*
X153891428Y-104519771D02*
X154091428Y-104234057D01*
X154234285Y-104519771D02*
X154234285Y-103919771D01*
X154234285Y-103919771D02*
X154005714Y-103919771D01*
X154005714Y-103919771D02*
X153948571Y-103948342D01*
X153948571Y-103948342D02*
X153920000Y-103976914D01*
X153920000Y-103976914D02*
X153891428Y-104034057D01*
X153891428Y-104034057D02*
X153891428Y-104119771D01*
X153891428Y-104119771D02*
X153920000Y-104176914D01*
X153920000Y-104176914D02*
X153948571Y-104205485D01*
X153948571Y-104205485D02*
X154005714Y-104234057D01*
X154005714Y-104234057D02*
X154234285Y-104234057D01*
X153777143Y-104576914D02*
X153320000Y-104576914D01*
X153177142Y-104519771D02*
X153177142Y-103919771D01*
X153177142Y-103919771D02*
X152948571Y-103919771D01*
X152948571Y-103919771D02*
X152891428Y-103948342D01*
X152891428Y-103948342D02*
X152862857Y-103976914D01*
X152862857Y-103976914D02*
X152834285Y-104034057D01*
X152834285Y-104034057D02*
X152834285Y-104119771D01*
X152834285Y-104119771D02*
X152862857Y-104176914D01*
X152862857Y-104176914D02*
X152891428Y-104205485D01*
X152891428Y-104205485D02*
X152948571Y-104234057D01*
X152948571Y-104234057D02*
X153177142Y-104234057D01*
X152662857Y-103919771D02*
X152320000Y-103919771D01*
X152491428Y-104519771D02*
X152491428Y-103919771D01*
X76267319Y-71633333D02*
X75791128Y-71300000D01*
X76267319Y-71061905D02*
X75267319Y-71061905D01*
X75267319Y-71061905D02*
X75267319Y-71442857D01*
X75267319Y-71442857D02*
X75314938Y-71538095D01*
X75314938Y-71538095D02*
X75362557Y-71585714D01*
X75362557Y-71585714D02*
X75457795Y-71633333D01*
X75457795Y-71633333D02*
X75600652Y-71633333D01*
X75600652Y-71633333D02*
X75695890Y-71585714D01*
X75695890Y-71585714D02*
X75743509Y-71538095D01*
X75743509Y-71538095D02*
X75791128Y-71442857D01*
X75791128Y-71442857D02*
X75791128Y-71061905D01*
X75267319Y-71966667D02*
X75267319Y-72633333D01*
X75267319Y-72633333D02*
X76267319Y-72204762D01*
X182631428Y-99219771D02*
X182831428Y-98934057D01*
X182974285Y-99219771D02*
X182974285Y-98619771D01*
X182974285Y-98619771D02*
X182745714Y-98619771D01*
X182745714Y-98619771D02*
X182688571Y-98648342D01*
X182688571Y-98648342D02*
X182660000Y-98676914D01*
X182660000Y-98676914D02*
X182631428Y-98734057D01*
X182631428Y-98734057D02*
X182631428Y-98819771D01*
X182631428Y-98819771D02*
X182660000Y-98876914D01*
X182660000Y-98876914D02*
X182688571Y-98905485D01*
X182688571Y-98905485D02*
X182745714Y-98934057D01*
X182745714Y-98934057D02*
X182974285Y-98934057D01*
X182517143Y-99276914D02*
X182060000Y-99276914D01*
X181917142Y-99219771D02*
X181917142Y-98619771D01*
X181917142Y-98619771D02*
X181688571Y-98619771D01*
X181688571Y-98619771D02*
X181631428Y-98648342D01*
X181631428Y-98648342D02*
X181602857Y-98676914D01*
X181602857Y-98676914D02*
X181574285Y-98734057D01*
X181574285Y-98734057D02*
X181574285Y-98819771D01*
X181574285Y-98819771D02*
X181602857Y-98876914D01*
X181602857Y-98876914D02*
X181631428Y-98905485D01*
X181631428Y-98905485D02*
X181688571Y-98934057D01*
X181688571Y-98934057D02*
X181917142Y-98934057D01*
X181402857Y-98619771D02*
X181060000Y-98619771D01*
X181231428Y-99219771D02*
X181231428Y-98619771D01*
X143254819Y-129745833D02*
X142778628Y-129412500D01*
X143254819Y-129174405D02*
X142254819Y-129174405D01*
X142254819Y-129174405D02*
X142254819Y-129555357D01*
X142254819Y-129555357D02*
X142302438Y-129650595D01*
X142302438Y-129650595D02*
X142350057Y-129698214D01*
X142350057Y-129698214D02*
X142445295Y-129745833D01*
X142445295Y-129745833D02*
X142588152Y-129745833D01*
X142588152Y-129745833D02*
X142683390Y-129698214D01*
X142683390Y-129698214D02*
X142731009Y-129650595D01*
X142731009Y-129650595D02*
X142778628Y-129555357D01*
X142778628Y-129555357D02*
X142778628Y-129174405D01*
X142588152Y-130602976D02*
X143254819Y-130602976D01*
X142207200Y-130364881D02*
X142921485Y-130126786D01*
X142921485Y-130126786D02*
X142921485Y-130745833D01*
X212261428Y-71969771D02*
X212461428Y-71684057D01*
X212604285Y-71969771D02*
X212604285Y-71369771D01*
X212604285Y-71369771D02*
X212375714Y-71369771D01*
X212375714Y-71369771D02*
X212318571Y-71398342D01*
X212318571Y-71398342D02*
X212290000Y-71426914D01*
X212290000Y-71426914D02*
X212261428Y-71484057D01*
X212261428Y-71484057D02*
X212261428Y-71569771D01*
X212261428Y-71569771D02*
X212290000Y-71626914D01*
X212290000Y-71626914D02*
X212318571Y-71655485D01*
X212318571Y-71655485D02*
X212375714Y-71684057D01*
X212375714Y-71684057D02*
X212604285Y-71684057D01*
X212147143Y-72026914D02*
X211690000Y-72026914D01*
X211547142Y-71969771D02*
X211547142Y-71369771D01*
X211547142Y-71369771D02*
X211318571Y-71369771D01*
X211318571Y-71369771D02*
X211261428Y-71398342D01*
X211261428Y-71398342D02*
X211232857Y-71426914D01*
X211232857Y-71426914D02*
X211204285Y-71484057D01*
X211204285Y-71484057D02*
X211204285Y-71569771D01*
X211204285Y-71569771D02*
X211232857Y-71626914D01*
X211232857Y-71626914D02*
X211261428Y-71655485D01*
X211261428Y-71655485D02*
X211318571Y-71684057D01*
X211318571Y-71684057D02*
X211547142Y-71684057D01*
X211032857Y-71369771D02*
X210690000Y-71369771D01*
X210861428Y-71969771D02*
X210861428Y-71369771D01*
X211521428Y-99069771D02*
X211721428Y-98784057D01*
X211864285Y-99069771D02*
X211864285Y-98469771D01*
X211864285Y-98469771D02*
X211635714Y-98469771D01*
X211635714Y-98469771D02*
X211578571Y-98498342D01*
X211578571Y-98498342D02*
X211550000Y-98526914D01*
X211550000Y-98526914D02*
X211521428Y-98584057D01*
X211521428Y-98584057D02*
X211521428Y-98669771D01*
X211521428Y-98669771D02*
X211550000Y-98726914D01*
X211550000Y-98726914D02*
X211578571Y-98755485D01*
X211578571Y-98755485D02*
X211635714Y-98784057D01*
X211635714Y-98784057D02*
X211864285Y-98784057D01*
X211407143Y-99126914D02*
X210950000Y-99126914D01*
X210807142Y-99069771D02*
X210807142Y-98469771D01*
X210807142Y-98469771D02*
X210578571Y-98469771D01*
X210578571Y-98469771D02*
X210521428Y-98498342D01*
X210521428Y-98498342D02*
X210492857Y-98526914D01*
X210492857Y-98526914D02*
X210464285Y-98584057D01*
X210464285Y-98584057D02*
X210464285Y-98669771D01*
X210464285Y-98669771D02*
X210492857Y-98726914D01*
X210492857Y-98726914D02*
X210521428Y-98755485D01*
X210521428Y-98755485D02*
X210578571Y-98784057D01*
X210578571Y-98784057D02*
X210807142Y-98784057D01*
X210292857Y-98469771D02*
X209950000Y-98469771D01*
X210121428Y-99069771D02*
X210121428Y-98469771D01*
X109471428Y-46669771D02*
X109671428Y-46384057D01*
X109814285Y-46669771D02*
X109814285Y-46069771D01*
X109814285Y-46069771D02*
X109585714Y-46069771D01*
X109585714Y-46069771D02*
X109528571Y-46098342D01*
X109528571Y-46098342D02*
X109500000Y-46126914D01*
X109500000Y-46126914D02*
X109471428Y-46184057D01*
X109471428Y-46184057D02*
X109471428Y-46269771D01*
X109471428Y-46269771D02*
X109500000Y-46326914D01*
X109500000Y-46326914D02*
X109528571Y-46355485D01*
X109528571Y-46355485D02*
X109585714Y-46384057D01*
X109585714Y-46384057D02*
X109814285Y-46384057D01*
X109357143Y-46726914D02*
X108900000Y-46726914D01*
X108757142Y-46669771D02*
X108757142Y-46069771D01*
X108757142Y-46069771D02*
X108528571Y-46069771D01*
X108528571Y-46069771D02*
X108471428Y-46098342D01*
X108471428Y-46098342D02*
X108442857Y-46126914D01*
X108442857Y-46126914D02*
X108414285Y-46184057D01*
X108414285Y-46184057D02*
X108414285Y-46269771D01*
X108414285Y-46269771D02*
X108442857Y-46326914D01*
X108442857Y-46326914D02*
X108471428Y-46355485D01*
X108471428Y-46355485D02*
X108528571Y-46384057D01*
X108528571Y-46384057D02*
X108757142Y-46384057D01*
X108242857Y-46069771D02*
X107900000Y-46069771D01*
X108071428Y-46669771D02*
X108071428Y-46069771D01*
X184954819Y-67545833D02*
X184478628Y-67212500D01*
X184954819Y-66974405D02*
X183954819Y-66974405D01*
X183954819Y-66974405D02*
X183954819Y-67355357D01*
X183954819Y-67355357D02*
X184002438Y-67450595D01*
X184002438Y-67450595D02*
X184050057Y-67498214D01*
X184050057Y-67498214D02*
X184145295Y-67545833D01*
X184145295Y-67545833D02*
X184288152Y-67545833D01*
X184288152Y-67545833D02*
X184383390Y-67498214D01*
X184383390Y-67498214D02*
X184431009Y-67450595D01*
X184431009Y-67450595D02*
X184478628Y-67355357D01*
X184478628Y-67355357D02*
X184478628Y-66974405D01*
X184954819Y-68022024D02*
X184954819Y-68212500D01*
X184954819Y-68212500D02*
X184907200Y-68307738D01*
X184907200Y-68307738D02*
X184859580Y-68355357D01*
X184859580Y-68355357D02*
X184716723Y-68450595D01*
X184716723Y-68450595D02*
X184526247Y-68498214D01*
X184526247Y-68498214D02*
X184145295Y-68498214D01*
X184145295Y-68498214D02*
X184050057Y-68450595D01*
X184050057Y-68450595D02*
X184002438Y-68402976D01*
X184002438Y-68402976D02*
X183954819Y-68307738D01*
X183954819Y-68307738D02*
X183954819Y-68117262D01*
X183954819Y-68117262D02*
X184002438Y-68022024D01*
X184002438Y-68022024D02*
X184050057Y-67974405D01*
X184050057Y-67974405D02*
X184145295Y-67926786D01*
X184145295Y-67926786D02*
X184383390Y-67926786D01*
X184383390Y-67926786D02*
X184478628Y-67974405D01*
X184478628Y-67974405D02*
X184526247Y-68022024D01*
X184526247Y-68022024D02*
X184573866Y-68117262D01*
X184573866Y-68117262D02*
X184573866Y-68307738D01*
X184573866Y-68307738D02*
X184526247Y-68402976D01*
X184526247Y-68402976D02*
X184478628Y-68450595D01*
X184478628Y-68450595D02*
X184383390Y-68498214D01*
X240411428Y-99139771D02*
X240611428Y-98854057D01*
X240754285Y-99139771D02*
X240754285Y-98539771D01*
X240754285Y-98539771D02*
X240525714Y-98539771D01*
X240525714Y-98539771D02*
X240468571Y-98568342D01*
X240468571Y-98568342D02*
X240440000Y-98596914D01*
X240440000Y-98596914D02*
X240411428Y-98654057D01*
X240411428Y-98654057D02*
X240411428Y-98739771D01*
X240411428Y-98739771D02*
X240440000Y-98796914D01*
X240440000Y-98796914D02*
X240468571Y-98825485D01*
X240468571Y-98825485D02*
X240525714Y-98854057D01*
X240525714Y-98854057D02*
X240754285Y-98854057D01*
X240297143Y-99196914D02*
X239840000Y-99196914D01*
X239697142Y-99139771D02*
X239697142Y-98539771D01*
X239697142Y-98539771D02*
X239468571Y-98539771D01*
X239468571Y-98539771D02*
X239411428Y-98568342D01*
X239411428Y-98568342D02*
X239382857Y-98596914D01*
X239382857Y-98596914D02*
X239354285Y-98654057D01*
X239354285Y-98654057D02*
X239354285Y-98739771D01*
X239354285Y-98739771D02*
X239382857Y-98796914D01*
X239382857Y-98796914D02*
X239411428Y-98825485D01*
X239411428Y-98825485D02*
X239468571Y-98854057D01*
X239468571Y-98854057D02*
X239697142Y-98854057D01*
X239182857Y-98539771D02*
X238840000Y-98539771D01*
X239011428Y-99139771D02*
X239011428Y-98539771D01*
X172551428Y-126239771D02*
X172751428Y-125954057D01*
X172894285Y-126239771D02*
X172894285Y-125639771D01*
X172894285Y-125639771D02*
X172665714Y-125639771D01*
X172665714Y-125639771D02*
X172608571Y-125668342D01*
X172608571Y-125668342D02*
X172580000Y-125696914D01*
X172580000Y-125696914D02*
X172551428Y-125754057D01*
X172551428Y-125754057D02*
X172551428Y-125839771D01*
X172551428Y-125839771D02*
X172580000Y-125896914D01*
X172580000Y-125896914D02*
X172608571Y-125925485D01*
X172608571Y-125925485D02*
X172665714Y-125954057D01*
X172665714Y-125954057D02*
X172894285Y-125954057D01*
X172437143Y-126296914D02*
X171980000Y-126296914D01*
X171837142Y-126239771D02*
X171837142Y-125639771D01*
X171837142Y-125639771D02*
X171608571Y-125639771D01*
X171608571Y-125639771D02*
X171551428Y-125668342D01*
X171551428Y-125668342D02*
X171522857Y-125696914D01*
X171522857Y-125696914D02*
X171494285Y-125754057D01*
X171494285Y-125754057D02*
X171494285Y-125839771D01*
X171494285Y-125839771D02*
X171522857Y-125896914D01*
X171522857Y-125896914D02*
X171551428Y-125925485D01*
X171551428Y-125925485D02*
X171608571Y-125954057D01*
X171608571Y-125954057D02*
X171837142Y-125954057D01*
X171322857Y-125639771D02*
X170980000Y-125639771D01*
X171151428Y-126239771D02*
X171151428Y-125639771D01*
X109654819Y-41920833D02*
X109178628Y-41587500D01*
X109654819Y-41349405D02*
X108654819Y-41349405D01*
X108654819Y-41349405D02*
X108654819Y-41730357D01*
X108654819Y-41730357D02*
X108702438Y-41825595D01*
X108702438Y-41825595D02*
X108750057Y-41873214D01*
X108750057Y-41873214D02*
X108845295Y-41920833D01*
X108845295Y-41920833D02*
X108988152Y-41920833D01*
X108988152Y-41920833D02*
X109083390Y-41873214D01*
X109083390Y-41873214D02*
X109131009Y-41825595D01*
X109131009Y-41825595D02*
X109178628Y-41730357D01*
X109178628Y-41730357D02*
X109178628Y-41349405D01*
X109654819Y-42873214D02*
X109654819Y-42301786D01*
X109654819Y-42587500D02*
X108654819Y-42587500D01*
X108654819Y-42587500D02*
X108797676Y-42492262D01*
X108797676Y-42492262D02*
X108892914Y-42397024D01*
X108892914Y-42397024D02*
X108940533Y-42301786D01*
X212367319Y-66244642D02*
X211891128Y-65911309D01*
X212367319Y-65673214D02*
X211367319Y-65673214D01*
X211367319Y-65673214D02*
X211367319Y-66054166D01*
X211367319Y-66054166D02*
X211414938Y-66149404D01*
X211414938Y-66149404D02*
X211462557Y-66197023D01*
X211462557Y-66197023D02*
X211557795Y-66244642D01*
X211557795Y-66244642D02*
X211700652Y-66244642D01*
X211700652Y-66244642D02*
X211795890Y-66197023D01*
X211795890Y-66197023D02*
X211843509Y-66149404D01*
X211843509Y-66149404D02*
X211891128Y-66054166D01*
X211891128Y-66054166D02*
X211891128Y-65673214D01*
X212367319Y-67197023D02*
X212367319Y-66625595D01*
X212367319Y-66911309D02*
X211367319Y-66911309D01*
X211367319Y-66911309D02*
X211510176Y-66816071D01*
X211510176Y-66816071D02*
X211605414Y-66720833D01*
X211605414Y-66720833D02*
X211653033Y-66625595D01*
X211367319Y-67816071D02*
X211367319Y-67911309D01*
X211367319Y-67911309D02*
X211414938Y-68006547D01*
X211414938Y-68006547D02*
X211462557Y-68054166D01*
X211462557Y-68054166D02*
X211557795Y-68101785D01*
X211557795Y-68101785D02*
X211748271Y-68149404D01*
X211748271Y-68149404D02*
X211986366Y-68149404D01*
X211986366Y-68149404D02*
X212176842Y-68101785D01*
X212176842Y-68101785D02*
X212272080Y-68054166D01*
X212272080Y-68054166D02*
X212319700Y-68006547D01*
X212319700Y-68006547D02*
X212367319Y-67911309D01*
X212367319Y-67911309D02*
X212367319Y-67816071D01*
X212367319Y-67816071D02*
X212319700Y-67720833D01*
X212319700Y-67720833D02*
X212272080Y-67673214D01*
X212272080Y-67673214D02*
X212176842Y-67625595D01*
X212176842Y-67625595D02*
X211986366Y-67577976D01*
X211986366Y-67577976D02*
X211748271Y-67577976D01*
X211748271Y-67577976D02*
X211557795Y-67625595D01*
X211557795Y-67625595D02*
X211462557Y-67673214D01*
X211462557Y-67673214D02*
X211414938Y-67720833D01*
X211414938Y-67720833D02*
X211367319Y-67816071D01*
X240554819Y-92657142D02*
X240078628Y-92323809D01*
X240554819Y-92085714D02*
X239554819Y-92085714D01*
X239554819Y-92085714D02*
X239554819Y-92466666D01*
X239554819Y-92466666D02*
X239602438Y-92561904D01*
X239602438Y-92561904D02*
X239650057Y-92609523D01*
X239650057Y-92609523D02*
X239745295Y-92657142D01*
X239745295Y-92657142D02*
X239888152Y-92657142D01*
X239888152Y-92657142D02*
X239983390Y-92609523D01*
X239983390Y-92609523D02*
X240031009Y-92561904D01*
X240031009Y-92561904D02*
X240078628Y-92466666D01*
X240078628Y-92466666D02*
X240078628Y-92085714D01*
X240554819Y-93609523D02*
X240554819Y-93038095D01*
X240554819Y-93323809D02*
X239554819Y-93323809D01*
X239554819Y-93323809D02*
X239697676Y-93228571D01*
X239697676Y-93228571D02*
X239792914Y-93133333D01*
X239792914Y-93133333D02*
X239840533Y-93038095D01*
X239554819Y-94514285D02*
X239554819Y-94038095D01*
X239554819Y-94038095D02*
X240031009Y-93990476D01*
X240031009Y-93990476D02*
X239983390Y-94038095D01*
X239983390Y-94038095D02*
X239935771Y-94133333D01*
X239935771Y-94133333D02*
X239935771Y-94371428D01*
X239935771Y-94371428D02*
X239983390Y-94466666D01*
X239983390Y-94466666D02*
X240031009Y-94514285D01*
X240031009Y-94514285D02*
X240126247Y-94561904D01*
X240126247Y-94561904D02*
X240364342Y-94561904D01*
X240364342Y-94561904D02*
X240459580Y-94514285D01*
X240459580Y-94514285D02*
X240507200Y-94466666D01*
X240507200Y-94466666D02*
X240554819Y-94371428D01*
X240554819Y-94371428D02*
X240554819Y-94133333D01*
X240554819Y-94133333D02*
X240507200Y-94038095D01*
X240507200Y-94038095D02*
X240459580Y-93990476D01*
X184641428Y-72349771D02*
X184841428Y-72064057D01*
X184984285Y-72349771D02*
X184984285Y-71749771D01*
X184984285Y-71749771D02*
X184755714Y-71749771D01*
X184755714Y-71749771D02*
X184698571Y-71778342D01*
X184698571Y-71778342D02*
X184670000Y-71806914D01*
X184670000Y-71806914D02*
X184641428Y-71864057D01*
X184641428Y-71864057D02*
X184641428Y-71949771D01*
X184641428Y-71949771D02*
X184670000Y-72006914D01*
X184670000Y-72006914D02*
X184698571Y-72035485D01*
X184698571Y-72035485D02*
X184755714Y-72064057D01*
X184755714Y-72064057D02*
X184984285Y-72064057D01*
X184527143Y-72406914D02*
X184070000Y-72406914D01*
X183927142Y-72349771D02*
X183927142Y-71749771D01*
X183927142Y-71749771D02*
X183698571Y-71749771D01*
X183698571Y-71749771D02*
X183641428Y-71778342D01*
X183641428Y-71778342D02*
X183612857Y-71806914D01*
X183612857Y-71806914D02*
X183584285Y-71864057D01*
X183584285Y-71864057D02*
X183584285Y-71949771D01*
X183584285Y-71949771D02*
X183612857Y-72006914D01*
X183612857Y-72006914D02*
X183641428Y-72035485D01*
X183641428Y-72035485D02*
X183698571Y-72064057D01*
X183698571Y-72064057D02*
X183927142Y-72064057D01*
X183412857Y-71749771D02*
X183070000Y-71749771D01*
X183241428Y-72349771D02*
X183241428Y-71749771D01*
X172354819Y-121145833D02*
X171878628Y-120812500D01*
X172354819Y-120574405D02*
X171354819Y-120574405D01*
X171354819Y-120574405D02*
X171354819Y-120955357D01*
X171354819Y-120955357D02*
X171402438Y-121050595D01*
X171402438Y-121050595D02*
X171450057Y-121098214D01*
X171450057Y-121098214D02*
X171545295Y-121145833D01*
X171545295Y-121145833D02*
X171688152Y-121145833D01*
X171688152Y-121145833D02*
X171783390Y-121098214D01*
X171783390Y-121098214D02*
X171831009Y-121050595D01*
X171831009Y-121050595D02*
X171878628Y-120955357D01*
X171878628Y-120955357D02*
X171878628Y-120574405D01*
X171450057Y-121526786D02*
X171402438Y-121574405D01*
X171402438Y-121574405D02*
X171354819Y-121669643D01*
X171354819Y-121669643D02*
X171354819Y-121907738D01*
X171354819Y-121907738D02*
X171402438Y-122002976D01*
X171402438Y-122002976D02*
X171450057Y-122050595D01*
X171450057Y-122050595D02*
X171545295Y-122098214D01*
X171545295Y-122098214D02*
X171640533Y-122098214D01*
X171640533Y-122098214D02*
X171783390Y-122050595D01*
X171783390Y-122050595D02*
X172354819Y-121479167D01*
X172354819Y-121479167D02*
X172354819Y-122098214D01*
X132161428Y-84964819D02*
X132361428Y-84488628D01*
X132504285Y-84964819D02*
X132504285Y-83964819D01*
X132504285Y-83964819D02*
X132275714Y-83964819D01*
X132275714Y-83964819D02*
X132218571Y-84012438D01*
X132218571Y-84012438D02*
X132190000Y-84060057D01*
X132190000Y-84060057D02*
X132161428Y-84155295D01*
X132161428Y-84155295D02*
X132161428Y-84298152D01*
X132161428Y-84298152D02*
X132190000Y-84393390D01*
X132190000Y-84393390D02*
X132218571Y-84441009D01*
X132218571Y-84441009D02*
X132275714Y-84488628D01*
X132275714Y-84488628D02*
X132504285Y-84488628D01*
X132047143Y-85060057D02*
X131590000Y-85060057D01*
X131447142Y-84964819D02*
X131447142Y-83964819D01*
X131447142Y-83964819D02*
X131218571Y-83964819D01*
X131218571Y-83964819D02*
X131161428Y-84012438D01*
X131161428Y-84012438D02*
X131132857Y-84060057D01*
X131132857Y-84060057D02*
X131104285Y-84155295D01*
X131104285Y-84155295D02*
X131104285Y-84298152D01*
X131104285Y-84298152D02*
X131132857Y-84393390D01*
X131132857Y-84393390D02*
X131161428Y-84441009D01*
X131161428Y-84441009D02*
X131218571Y-84488628D01*
X131218571Y-84488628D02*
X131447142Y-84488628D01*
X130932857Y-83964819D02*
X130590000Y-83964819D01*
X130761428Y-84964819D02*
X130761428Y-83964819D01*
X61101428Y-102534819D02*
X61301428Y-102058628D01*
X61444285Y-102534819D02*
X61444285Y-101534819D01*
X61444285Y-101534819D02*
X61215714Y-101534819D01*
X61215714Y-101534819D02*
X61158571Y-101582438D01*
X61158571Y-101582438D02*
X61130000Y-101630057D01*
X61130000Y-101630057D02*
X61101428Y-101725295D01*
X61101428Y-101725295D02*
X61101428Y-101868152D01*
X61101428Y-101868152D02*
X61130000Y-101963390D01*
X61130000Y-101963390D02*
X61158571Y-102011009D01*
X61158571Y-102011009D02*
X61215714Y-102058628D01*
X61215714Y-102058628D02*
X61444285Y-102058628D01*
X60987143Y-102630057D02*
X60530000Y-102630057D01*
X60387142Y-102534819D02*
X60387142Y-101534819D01*
X60387142Y-101534819D02*
X60158571Y-101534819D01*
X60158571Y-101534819D02*
X60101428Y-101582438D01*
X60101428Y-101582438D02*
X60072857Y-101630057D01*
X60072857Y-101630057D02*
X60044285Y-101725295D01*
X60044285Y-101725295D02*
X60044285Y-101868152D01*
X60044285Y-101868152D02*
X60072857Y-101963390D01*
X60072857Y-101963390D02*
X60101428Y-102011009D01*
X60101428Y-102011009D02*
X60158571Y-102058628D01*
X60158571Y-102058628D02*
X60387142Y-102058628D01*
X59872857Y-101534819D02*
X59530000Y-101534819D01*
X59701428Y-102534819D02*
X59701428Y-101534819D01*
X153967319Y-97857142D02*
X153491128Y-97523809D01*
X153967319Y-97285714D02*
X152967319Y-97285714D01*
X152967319Y-97285714D02*
X152967319Y-97666666D01*
X152967319Y-97666666D02*
X153014938Y-97761904D01*
X153014938Y-97761904D02*
X153062557Y-97809523D01*
X153062557Y-97809523D02*
X153157795Y-97857142D01*
X153157795Y-97857142D02*
X153300652Y-97857142D01*
X153300652Y-97857142D02*
X153395890Y-97809523D01*
X153395890Y-97809523D02*
X153443509Y-97761904D01*
X153443509Y-97761904D02*
X153491128Y-97666666D01*
X153491128Y-97666666D02*
X153491128Y-97285714D01*
X153967319Y-98809523D02*
X153967319Y-98238095D01*
X153967319Y-98523809D02*
X152967319Y-98523809D01*
X152967319Y-98523809D02*
X153110176Y-98428571D01*
X153110176Y-98428571D02*
X153205414Y-98333333D01*
X153205414Y-98333333D02*
X153253033Y-98238095D01*
X153062557Y-99190476D02*
X153014938Y-99238095D01*
X153014938Y-99238095D02*
X152967319Y-99333333D01*
X152967319Y-99333333D02*
X152967319Y-99571428D01*
X152967319Y-99571428D02*
X153014938Y-99666666D01*
X153014938Y-99666666D02*
X153062557Y-99714285D01*
X153062557Y-99714285D02*
X153157795Y-99761904D01*
X153157795Y-99761904D02*
X153253033Y-99761904D01*
X153253033Y-99761904D02*
X153395890Y-99714285D01*
X153395890Y-99714285D02*
X153967319Y-99142857D01*
X153967319Y-99142857D02*
X153967319Y-99761904D01*
X183154819Y-93144642D02*
X182678628Y-92811309D01*
X183154819Y-92573214D02*
X182154819Y-92573214D01*
X182154819Y-92573214D02*
X182154819Y-92954166D01*
X182154819Y-92954166D02*
X182202438Y-93049404D01*
X182202438Y-93049404D02*
X182250057Y-93097023D01*
X182250057Y-93097023D02*
X182345295Y-93144642D01*
X182345295Y-93144642D02*
X182488152Y-93144642D01*
X182488152Y-93144642D02*
X182583390Y-93097023D01*
X182583390Y-93097023D02*
X182631009Y-93049404D01*
X182631009Y-93049404D02*
X182678628Y-92954166D01*
X182678628Y-92954166D02*
X182678628Y-92573214D01*
X183154819Y-94097023D02*
X183154819Y-93525595D01*
X183154819Y-93811309D02*
X182154819Y-93811309D01*
X182154819Y-93811309D02*
X182297676Y-93716071D01*
X182297676Y-93716071D02*
X182392914Y-93620833D01*
X182392914Y-93620833D02*
X182440533Y-93525595D01*
X182154819Y-94430357D02*
X182154819Y-95049404D01*
X182154819Y-95049404D02*
X182535771Y-94716071D01*
X182535771Y-94716071D02*
X182535771Y-94858928D01*
X182535771Y-94858928D02*
X182583390Y-94954166D01*
X182583390Y-94954166D02*
X182631009Y-95001785D01*
X182631009Y-95001785D02*
X182726247Y-95049404D01*
X182726247Y-95049404D02*
X182964342Y-95049404D01*
X182964342Y-95049404D02*
X183059580Y-95001785D01*
X183059580Y-95001785D02*
X183107200Y-94954166D01*
X183107200Y-94954166D02*
X183154819Y-94858928D01*
X183154819Y-94858928D02*
X183154819Y-94573214D01*
X183154819Y-94573214D02*
X183107200Y-94477976D01*
X183107200Y-94477976D02*
X183059580Y-94430357D01*
X104054819Y-68220833D02*
X103578628Y-67887500D01*
X104054819Y-67649405D02*
X103054819Y-67649405D01*
X103054819Y-67649405D02*
X103054819Y-68030357D01*
X103054819Y-68030357D02*
X103102438Y-68125595D01*
X103102438Y-68125595D02*
X103150057Y-68173214D01*
X103150057Y-68173214D02*
X103245295Y-68220833D01*
X103245295Y-68220833D02*
X103388152Y-68220833D01*
X103388152Y-68220833D02*
X103483390Y-68173214D01*
X103483390Y-68173214D02*
X103531009Y-68125595D01*
X103531009Y-68125595D02*
X103578628Y-68030357D01*
X103578628Y-68030357D02*
X103578628Y-67649405D01*
X103054819Y-69125595D02*
X103054819Y-68649405D01*
X103054819Y-68649405D02*
X103531009Y-68601786D01*
X103531009Y-68601786D02*
X103483390Y-68649405D01*
X103483390Y-68649405D02*
X103435771Y-68744643D01*
X103435771Y-68744643D02*
X103435771Y-68982738D01*
X103435771Y-68982738D02*
X103483390Y-69077976D01*
X103483390Y-69077976D02*
X103531009Y-69125595D01*
X103531009Y-69125595D02*
X103626247Y-69173214D01*
X103626247Y-69173214D02*
X103864342Y-69173214D01*
X103864342Y-69173214D02*
X103959580Y-69125595D01*
X103959580Y-69125595D02*
X104007200Y-69077976D01*
X104007200Y-69077976D02*
X104054819Y-68982738D01*
X104054819Y-68982738D02*
X104054819Y-68744643D01*
X104054819Y-68744643D02*
X104007200Y-68649405D01*
X104007200Y-68649405D02*
X103959580Y-68601786D01*
X75614819Y-76208571D02*
X75138628Y-76008571D01*
X75614819Y-75865714D02*
X74614819Y-75865714D01*
X74614819Y-75865714D02*
X74614819Y-76094285D01*
X74614819Y-76094285D02*
X74662438Y-76151428D01*
X74662438Y-76151428D02*
X74710057Y-76179999D01*
X74710057Y-76179999D02*
X74805295Y-76208571D01*
X74805295Y-76208571D02*
X74948152Y-76208571D01*
X74948152Y-76208571D02*
X75043390Y-76179999D01*
X75043390Y-76179999D02*
X75091009Y-76151428D01*
X75091009Y-76151428D02*
X75138628Y-76094285D01*
X75138628Y-76094285D02*
X75138628Y-75865714D01*
X75710057Y-76322857D02*
X75710057Y-76779999D01*
X75614819Y-76922857D02*
X74614819Y-76922857D01*
X74614819Y-76922857D02*
X74614819Y-77151428D01*
X74614819Y-77151428D02*
X74662438Y-77208571D01*
X74662438Y-77208571D02*
X74710057Y-77237142D01*
X74710057Y-77237142D02*
X74805295Y-77265714D01*
X74805295Y-77265714D02*
X74948152Y-77265714D01*
X74948152Y-77265714D02*
X75043390Y-77237142D01*
X75043390Y-77237142D02*
X75091009Y-77208571D01*
X75091009Y-77208571D02*
X75138628Y-77151428D01*
X75138628Y-77151428D02*
X75138628Y-76922857D01*
X74614819Y-77437142D02*
X74614819Y-77780000D01*
X75614819Y-77608571D02*
X74614819Y-77608571D01*
X239961428Y-71749771D02*
X240161428Y-71464057D01*
X240304285Y-71749771D02*
X240304285Y-71149771D01*
X240304285Y-71149771D02*
X240075714Y-71149771D01*
X240075714Y-71149771D02*
X240018571Y-71178342D01*
X240018571Y-71178342D02*
X239990000Y-71206914D01*
X239990000Y-71206914D02*
X239961428Y-71264057D01*
X239961428Y-71264057D02*
X239961428Y-71349771D01*
X239961428Y-71349771D02*
X239990000Y-71406914D01*
X239990000Y-71406914D02*
X240018571Y-71435485D01*
X240018571Y-71435485D02*
X240075714Y-71464057D01*
X240075714Y-71464057D02*
X240304285Y-71464057D01*
X239847143Y-71806914D02*
X239390000Y-71806914D01*
X239247142Y-71749771D02*
X239247142Y-71149771D01*
X239247142Y-71149771D02*
X239018571Y-71149771D01*
X239018571Y-71149771D02*
X238961428Y-71178342D01*
X238961428Y-71178342D02*
X238932857Y-71206914D01*
X238932857Y-71206914D02*
X238904285Y-71264057D01*
X238904285Y-71264057D02*
X238904285Y-71349771D01*
X238904285Y-71349771D02*
X238932857Y-71406914D01*
X238932857Y-71406914D02*
X238961428Y-71435485D01*
X238961428Y-71435485D02*
X239018571Y-71464057D01*
X239018571Y-71464057D02*
X239247142Y-71464057D01*
X238732857Y-71149771D02*
X238390000Y-71149771D01*
X238561428Y-71749771D02*
X238561428Y-71149771D01*
X61767319Y-97333333D02*
X61291128Y-97000000D01*
X61767319Y-96761905D02*
X60767319Y-96761905D01*
X60767319Y-96761905D02*
X60767319Y-97142857D01*
X60767319Y-97142857D02*
X60814938Y-97238095D01*
X60814938Y-97238095D02*
X60862557Y-97285714D01*
X60862557Y-97285714D02*
X60957795Y-97333333D01*
X60957795Y-97333333D02*
X61100652Y-97333333D01*
X61100652Y-97333333D02*
X61195890Y-97285714D01*
X61195890Y-97285714D02*
X61243509Y-97238095D01*
X61243509Y-97238095D02*
X61291128Y-97142857D01*
X61291128Y-97142857D02*
X61291128Y-96761905D01*
X60767319Y-97666667D02*
X60767319Y-98285714D01*
X60767319Y-98285714D02*
X61148271Y-97952381D01*
X61148271Y-97952381D02*
X61148271Y-98095238D01*
X61148271Y-98095238D02*
X61195890Y-98190476D01*
X61195890Y-98190476D02*
X61243509Y-98238095D01*
X61243509Y-98238095D02*
X61338747Y-98285714D01*
X61338747Y-98285714D02*
X61576842Y-98285714D01*
X61576842Y-98285714D02*
X61672080Y-98238095D01*
X61672080Y-98238095D02*
X61719700Y-98190476D01*
X61719700Y-98190476D02*
X61767319Y-98095238D01*
X61767319Y-98095238D02*
X61767319Y-97809524D01*
X61767319Y-97809524D02*
X61719700Y-97714286D01*
X61719700Y-97714286D02*
X61672080Y-97666667D01*
D11*
X240700000Y-65600000D02*
X240700000Y-69000000D01*
X240700000Y-69000000D02*
X242700000Y-69000000D01*
X242700000Y-65600000D02*
X240700000Y-65600000D01*
X242700000Y-69000000D02*
X242700000Y-65600000D01*
D10*
X99060000Y-73650000D02*
X100760000Y-73650000D01*
X100760000Y-75050000D02*
X99060000Y-75050000D01*
X153130000Y-75380000D02*
X154830000Y-75380000D01*
X154830000Y-76780000D02*
X153130000Y-76780000D01*
X138090000Y-133990000D02*
X139790000Y-133990000D01*
X139790000Y-135390000D02*
X138090000Y-135390000D01*
D11*
X158100000Y-69987500D02*
X158100000Y-73387500D01*
X158100000Y-73387500D02*
X160100000Y-73387500D01*
X160100000Y-69987500D02*
X158100000Y-69987500D01*
X160100000Y-73387500D02*
X160100000Y-69987500D01*
X211700000Y-92187500D02*
X211700000Y-95587500D01*
X211700000Y-95587500D02*
X213700000Y-95587500D01*
X213700000Y-92187500D02*
X211700000Y-92187500D01*
X213700000Y-95587500D02*
X213700000Y-92187500D01*
X130812500Y-77700000D02*
X130812500Y-81100000D01*
X130812500Y-81100000D02*
X132812500Y-81100000D01*
X132812500Y-77700000D02*
X130812500Y-77700000D01*
X132812500Y-81100000D02*
X132812500Y-77700000D01*
D10*
X149060000Y-103440000D02*
X150760000Y-103440000D01*
X150760000Y-104840000D02*
X149060000Y-104840000D01*
D11*
X76512500Y-70100000D02*
X76512500Y-73500000D01*
X76512500Y-73500000D02*
X78512500Y-73500000D01*
X78512500Y-70100000D02*
X76512500Y-70100000D01*
X78512500Y-73500000D02*
X78512500Y-70100000D01*
D10*
X177970000Y-98140000D02*
X179670000Y-98140000D01*
X179670000Y-99540000D02*
X177970000Y-99540000D01*
D11*
X143500000Y-128212500D02*
X143500000Y-131612500D01*
X143500000Y-131612500D02*
X145500000Y-131612500D01*
X145500000Y-128212500D02*
X143500000Y-128212500D01*
X145500000Y-131612500D02*
X145500000Y-128212500D01*
D10*
X207560000Y-70970000D02*
X209260000Y-70970000D01*
X209260000Y-72370000D02*
X207560000Y-72370000D01*
X206550000Y-97960000D02*
X208250000Y-97960000D01*
X208250000Y-99360000D02*
X206550000Y-99360000D01*
X104830000Y-45850000D02*
X106530000Y-45850000D01*
X106530000Y-47250000D02*
X104830000Y-47250000D01*
D11*
X185200000Y-66012500D02*
X185200000Y-69412500D01*
X185200000Y-69412500D02*
X187200000Y-69412500D01*
X187200000Y-66012500D02*
X185200000Y-66012500D01*
X187200000Y-69412500D02*
X187200000Y-66012500D01*
D10*
X235520000Y-97940000D02*
X237220000Y-97940000D01*
X237220000Y-99340000D02*
X235520000Y-99340000D01*
X168060000Y-125330000D02*
X169760000Y-125330000D01*
X169760000Y-126730000D02*
X168060000Y-126730000D01*
D11*
X109900000Y-40387500D02*
X109900000Y-43787500D01*
X109900000Y-43787500D02*
X111900000Y-43787500D01*
X111900000Y-40387500D02*
X109900000Y-40387500D01*
X111900000Y-43787500D02*
X111900000Y-40387500D01*
X212612500Y-65187500D02*
X212612500Y-68587500D01*
X212612500Y-68587500D02*
X214612500Y-68587500D01*
X214612500Y-65187500D02*
X212612500Y-65187500D01*
X214612500Y-68587500D02*
X214612500Y-65187500D01*
X240800000Y-91600000D02*
X240800000Y-95000000D01*
X240800000Y-95000000D02*
X242800000Y-95000000D01*
X242800000Y-91600000D02*
X240800000Y-91600000D01*
X242800000Y-95000000D02*
X242800000Y-91600000D01*
D10*
X179960000Y-71430000D02*
X181660000Y-71430000D01*
X181660000Y-72830000D02*
X179960000Y-72830000D01*
D11*
X172600000Y-119612500D02*
X172600000Y-123012500D01*
X172600000Y-123012500D02*
X174600000Y-123012500D01*
X174600000Y-119612500D02*
X172600000Y-119612500D01*
X174600000Y-123012500D02*
X174600000Y-119612500D01*
D10*
X125950000Y-83920000D02*
X127650000Y-83920000D01*
X127650000Y-85320000D02*
X125950000Y-85320000D01*
X56460000Y-101500000D02*
X58160000Y-101500000D01*
X58160000Y-102900000D02*
X56460000Y-102900000D01*
D11*
X154212500Y-96800000D02*
X154212500Y-100200000D01*
X154212500Y-100200000D02*
X156212500Y-100200000D01*
X156212500Y-96800000D02*
X154212500Y-96800000D01*
X156212500Y-100200000D02*
X156212500Y-96800000D01*
X183400000Y-92087500D02*
X183400000Y-95487500D01*
X183400000Y-95487500D02*
X185400000Y-95487500D01*
X185400000Y-92087500D02*
X183400000Y-92087500D01*
X185400000Y-95487500D02*
X185400000Y-92087500D01*
X104300000Y-66687500D02*
X104300000Y-70087500D01*
X104300000Y-70087500D02*
X106300000Y-70087500D01*
X106300000Y-66687500D02*
X104300000Y-66687500D01*
X106300000Y-70087500D02*
X106300000Y-66687500D01*
D10*
X70930000Y-76130000D02*
X72630000Y-76130000D01*
X72630000Y-77530000D02*
X70930000Y-77530000D01*
X235360000Y-70870000D02*
X237060000Y-70870000D01*
X237060000Y-72270000D02*
X235360000Y-72270000D01*
D11*
X62012500Y-95800000D02*
X62012500Y-99200000D01*
X62012500Y-99200000D02*
X64012500Y-99200000D01*
X64012500Y-95800000D02*
X62012500Y-95800000D01*
X64012500Y-99200000D02*
X64012500Y-95800000D01*
%LPC*%
D12*
X169500000Y-115400000D03*
D13*
X169500000Y-122200000D03*
D12*
X169500000Y-129000000D03*
D13*
X237500000Y-32500000D03*
X52500000Y-142500000D03*
D12*
X181400000Y-61450000D03*
D13*
X181400000Y-68250000D03*
D12*
X181400000Y-75050000D03*
X237000000Y-88000000D03*
D13*
X237000000Y-94800000D03*
D12*
X237000000Y-101600000D03*
D14*
X191880000Y-28550000D03*
X194420000Y-28550000D03*
X196960000Y-28550000D03*
X199500000Y-28550000D03*
D12*
X208000000Y-88000000D03*
D13*
X208000000Y-94800000D03*
D12*
X208000000Y-101600000D03*
X209000000Y-61000000D03*
D13*
X209000000Y-67800000D03*
D12*
X209000000Y-74600000D03*
X150500000Y-93500000D03*
D13*
X150500000Y-100300000D03*
D12*
X150500000Y-107100000D03*
D15*
X143290000Y-28535000D03*
X143290000Y-31075000D03*
X143290000Y-33615000D03*
X143290000Y-36155000D03*
X143290000Y-38695000D03*
X143290000Y-41235000D03*
X143290000Y-43775000D03*
X143290000Y-46315000D03*
X143290000Y-48855000D03*
X128050000Y-28535000D03*
X128050000Y-31075000D03*
X128050000Y-33615000D03*
X128050000Y-36155000D03*
X128050000Y-38695000D03*
X128050000Y-41235000D03*
X128050000Y-43775000D03*
X128050000Y-46315000D03*
X128050000Y-48855000D03*
X140750000Y-48855000D03*
X138210000Y-48855000D03*
X135670000Y-48855000D03*
X133130000Y-48855000D03*
X130590000Y-48855000D03*
D12*
X236800000Y-60950000D03*
D13*
X236800000Y-67750000D03*
D12*
X236800000Y-74550000D03*
X106100000Y-35650000D03*
D13*
X106100000Y-42450000D03*
D12*
X106100000Y-49250000D03*
X154500000Y-65400000D03*
D13*
X154500000Y-72200000D03*
D12*
X154500000Y-79000000D03*
D13*
X237500000Y-142500000D03*
D12*
X72400000Y-65450000D03*
D13*
X72400000Y-72250000D03*
D12*
X72400000Y-79050000D03*
X127400000Y-73950000D03*
D13*
X127400000Y-80750000D03*
D12*
X127400000Y-87550000D03*
X139500000Y-124000000D03*
D13*
X139500000Y-130800000D03*
D12*
X139500000Y-137600000D03*
X179400000Y-88250000D03*
D13*
X179400000Y-95050000D03*
D12*
X179400000Y-101850000D03*
D13*
X157500000Y-142500000D03*
X52500000Y-32500000D03*
D12*
X100400000Y-62950000D03*
D13*
X100400000Y-69750000D03*
D12*
X100400000Y-76550000D03*
X58000000Y-91500000D03*
D13*
X58000000Y-98300000D03*
D12*
X58000000Y-105100000D03*
D16*
X241700000Y-66387500D03*
X241700000Y-68212500D03*
D17*
X100760000Y-74350000D03*
X99060000Y-74350000D03*
X154830000Y-76080000D03*
X153130000Y-76080000D03*
X139790000Y-134690000D03*
X138090000Y-134690000D03*
D16*
X159100000Y-70775000D03*
X159100000Y-72600000D03*
X212700000Y-92975000D03*
X212700000Y-94800000D03*
X131812500Y-78487500D03*
X131812500Y-80312500D03*
D17*
X150760000Y-104140000D03*
X149060000Y-104140000D03*
D16*
X77512500Y-70887500D03*
X77512500Y-72712500D03*
D17*
X179670000Y-98840000D03*
X177970000Y-98840000D03*
D16*
X144500000Y-129000000D03*
X144500000Y-130825000D03*
D17*
X209260000Y-71670000D03*
X207560000Y-71670000D03*
X208250000Y-98660000D03*
X206550000Y-98660000D03*
X106530000Y-46550000D03*
X104830000Y-46550000D03*
D16*
X186200000Y-66800000D03*
X186200000Y-68625000D03*
D17*
X237220000Y-98640000D03*
X235520000Y-98640000D03*
X169760000Y-126030000D03*
X168060000Y-126030000D03*
D16*
X110900000Y-41175000D03*
X110900000Y-43000000D03*
X213612500Y-65975000D03*
X213612500Y-67800000D03*
X241800000Y-92387500D03*
X241800000Y-94212500D03*
D17*
X181660000Y-72130000D03*
X179960000Y-72130000D03*
D16*
X173600000Y-120400000D03*
X173600000Y-122225000D03*
D17*
X127650000Y-84620000D03*
X125950000Y-84620000D03*
X58160000Y-102200000D03*
X56460000Y-102200000D03*
D16*
X155212500Y-97587500D03*
X155212500Y-99412500D03*
X184400000Y-92875000D03*
X184400000Y-94700000D03*
X105300000Y-67475000D03*
X105300000Y-69300000D03*
D17*
X72630000Y-76830000D03*
X70930000Y-76830000D03*
X237060000Y-71570000D03*
X235360000Y-71570000D03*
D16*
X63012500Y-96587500D03*
X63012500Y-98412500D03*
%LPD*%
M02*
