<?xml version="1.0" standalone="no"?>
<!DOCTYPE svg PUBLIC "-//W3C//DTD SVG 1.1//EN" "http://www.w3.org/Graphics/SVG/1.1/DTD/svg11.dtd">
<svg width="209mm" height="125mm" viewBox="0 -125 209 125" xmlns="http://www.w3.org/2000/svg" version="1.1">
<title>OpenSCAD Model</title>
<path d="
M 199.128,-0.0197296 L 199.753,-0.0788574 L 200.374,-0.177124 L 200.987,-0.314163 L 201.59,-0.489441 L 202.181,-0.70224
 L 202.758,-0.951736 L 203.318,-1.23694 L 203.858,-1.55672 L 204.378,-1.90984 L 204.874,-2.29486 L 205.345,-2.71031
 L 205.79,-3.15453 L 206.205,-3.62576 L 206.59,-4.12215 L 206.943,-4.64174 L 207.263,-5.18246 L 207.548,-5.7422
 L 207.798,-6.31876 L 208.011,-6.90984 L 208.186,-7.51311 L 208.323,-8.12619 L 208.421,-8.74667 L 208.48,-9.3721
 L 208.5,-10 L 208.5,-115 L 208.48,-115.628 L 208.421,-116.253 L 208.323,-116.874 L 208.186,-117.487
 L 208.011,-118.09 L 207.798,-118.681 L 207.548,-119.258 L 207.263,-119.818 L 206.943,-120.358 L 206.59,-120.878
 L 206.205,-121.374 L 205.79,-121.845 L 205.345,-122.29 L 204.874,-122.705 L 204.378,-123.09 L 203.858,-123.443
 L 203.318,-123.763 L 202.758,-124.048 L 202.181,-124.298 L 201.59,-124.511 L 200.987,-124.686 L 200.374,-124.823
 L 199.753,-124.921 L 199.128,-124.98 L 198.5,-125 L 10,-125 L 9.3721,-124.98 L 8.74667,-124.921
 L 8.12619,-124.823 L 7.51311,-124.686 L 6.90984,-124.511 L 6.31876,-124.298 L 5.7422,-124.048 L 5.18246,-123.763
 L 4.64174,-123.443 L 4.12215,-123.09 L 3.62576,-122.705 L 3.15453,-122.29 L 2.71031,-121.845 L 2.29486,-121.374
 L 1.90984,-120.878 L 1.55672,-120.358 L 1.23694,-119.818 L 0.951736,-119.258 L 0.70224,-118.681 L 0.489441,-118.09
 L 0.314163,-117.487 L 0.177124,-116.874 L 0.0788574,-116.253 L 0.0197296,-115.628 L 0,-115 L 0,-10
 L 0.0197296,-9.3721 L 0.0788574,-8.74667 L 0.177124,-8.12619 L 0.314163,-7.51311 L 0.489441,-6.90984 L 0.70224,-6.31876
 L 0.951736,-5.7422 L 1.23694,-5.18246 L 1.55672,-4.64174 L 1.90984,-4.12215 L 2.29486,-3.62576 L 2.71031,-3.15453
 L 3.15453,-2.71031 L 3.62576,-2.29486 L 4.12215,-1.90984 L 4.64174,-1.55672 L 5.18246,-1.23694 L 5.7422,-0.951736
 L 6.31876,-0.70224 L 6.90984,-0.489441 L 7.51311,-0.314163 L 8.12619,-0.177124 L 8.74667,-0.0788574 L 9.3721,-0.0197296
 L 10,-0 L 198.5,-0 z
M 9.42905,-116.372 L 9.35837,-116.379 L 9.28825,-116.39 L 9.21898,-116.405 L 9.1508,-116.425 L 9.08401,-116.449
 L 9.01886,-116.478 L 8.95561,-116.51 L 8.8945,-116.546 L 8.8358,-116.586 L 8.77971,-116.629 L 8.72646,-116.676
 L 8.67625,-116.726 L 8.62932,-116.78 L 8.5858,-116.836 L 8.5459,-116.895 L 8.50977,-116.956 L 8.47754,-117.019
 L 8.44934,-117.084 L 8.42529,-117.151 L 8.40549,-117.219 L 8.39001,-117.288 L 8.37891,-117.358 L 8.37222,-117.429
 L 8.37,-117.5 L 8.37222,-117.571 L 8.37891,-117.642 L 8.39001,-117.712 L 8.40549,-117.781 L 8.42529,-117.849
 L 8.44934,-117.916 L 8.47754,-117.981 L 8.50977,-118.044 L 8.5459,-118.105 L 8.5858,-118.164 L 8.62932,-118.22
 L 8.67625,-118.274 L 8.72646,-118.324 L 8.77971,-118.371 L 8.8358,-118.414 L 8.8945,-118.454 L 8.95561,-118.49
 L 9.01886,-118.522 L 9.08401,-118.551 L 9.1508,-118.575 L 9.21898,-118.594 L 9.28825,-118.61 L 9.35837,-118.621
 L 9.42905,-118.628 L 9.5,-118.63 L 9.57094,-118.628 L 9.64162,-118.621 L 9.71173,-118.61 L 9.78101,-118.594
 L 9.84918,-118.575 L 9.91597,-118.551 L 9.98112,-118.522 L 10.0444,-118.49 L 10.1055,-118.454 L 10.1642,-118.414
 L 10.2203,-118.371 L 10.2735,-118.324 L 10.3237,-118.274 L 10.3707,-118.22 L 10.4142,-118.164 L 10.4541,-118.105
 L 10.4902,-118.044 L 10.5224,-117.981 L 10.5506,-117.916 L 10.5747,-117.849 L 10.5945,-117.781 L 10.61,-117.712
 L 10.6211,-117.642 L 10.6278,-117.571 L 10.63,-117.5 L 10.6278,-117.429 L 10.6211,-117.358 L 10.61,-117.288
 L 10.5945,-117.219 L 10.5747,-117.151 L 10.5506,-117.084 L 10.5224,-117.019 L 10.4902,-116.956 L 10.4541,-116.895
 L 10.4142,-116.836 L 10.3707,-116.78 L 10.3237,-116.726 L 10.2735,-116.676 L 10.2203,-116.629 L 10.1642,-116.586
 L 10.1055,-116.546 L 10.0444,-116.51 L 9.98112,-116.478 L 9.91597,-116.449 L 9.84918,-116.425 L 9.78101,-116.405
 L 9.71173,-116.39 L 9.64162,-116.379 L 9.57094,-116.372 L 9.5,-116.37 z
M 194.429,-116.372 L 194.358,-116.379 L 194.288,-116.39 L 194.219,-116.405 L 194.151,-116.425 L 194.084,-116.449
 L 194.019,-116.478 L 193.956,-116.51 L 193.895,-116.546 L 193.836,-116.586 L 193.78,-116.629 L 193.726,-116.676
 L 193.676,-116.726 L 193.629,-116.78 L 193.586,-116.836 L 193.546,-116.895 L 193.51,-116.956 L 193.478,-117.019
 L 193.449,-117.084 L 193.425,-117.151 L 193.405,-117.219 L 193.39,-117.288 L 193.379,-117.358 L 193.372,-117.429
 L 193.37,-117.5 L 193.372,-117.571 L 193.379,-117.642 L 193.39,-117.712 L 193.405,-117.781 L 193.425,-117.849
 L 193.449,-117.916 L 193.478,-117.981 L 193.51,-118.044 L 193.546,-118.105 L 193.586,-118.164 L 193.629,-118.22
 L 193.676,-118.274 L 193.726,-118.324 L 193.78,-118.371 L 193.836,-118.414 L 193.895,-118.454 L 193.956,-118.49
 L 194.019,-118.522 L 194.084,-118.551 L 194.151,-118.575 L 194.219,-118.594 L 194.288,-118.61 L 194.358,-118.621
 L 194.429,-118.628 L 194.5,-118.63 L 194.571,-118.628 L 194.642,-118.621 L 194.712,-118.61 L 194.781,-118.594
 L 194.849,-118.575 L 194.916,-118.551 L 194.981,-118.522 L 195.044,-118.49 L 195.105,-118.454 L 195.164,-118.414
 L 195.22,-118.371 L 195.274,-118.324 L 195.324,-118.274 L 195.371,-118.22 L 195.414,-118.164 L 195.454,-118.105
 L 195.49,-118.044 L 195.522,-117.981 L 195.551,-117.916 L 195.575,-117.849 L 195.594,-117.781 L 195.61,-117.712
 L 195.621,-117.642 L 195.628,-117.571 L 195.63,-117.5 L 195.628,-117.429 L 195.621,-117.358 L 195.61,-117.288
 L 195.594,-117.219 L 195.575,-117.151 L 195.551,-117.084 L 195.522,-117.019 L 195.49,-116.956 L 195.454,-116.895
 L 195.414,-116.836 L 195.371,-116.78 L 195.324,-116.726 L 195.274,-116.676 L 195.22,-116.629 L 195.164,-116.586
 L 195.105,-116.546 L 195.044,-116.51 L 194.981,-116.478 L 194.916,-116.449 L 194.849,-116.425 L 194.781,-116.405
 L 194.712,-116.39 L 194.642,-116.379 L 194.571,-116.372 L 194.5,-116.37 z
M 9.42905,-6.37222 L 9.35837,-6.37891 L 9.28825,-6.39001 L 9.21898,-6.40549 L 9.1508,-6.42529 L 9.08401,-6.44934
 L 9.01886,-6.47754 L 8.95561,-6.50977 L 8.8945,-6.5459 L 8.8358,-6.5858 L 8.77971,-6.62932 L 8.72646,-6.67625
 L 8.67625,-6.72646 L 8.62932,-6.77971 L 8.5858,-6.8358 L 8.5459,-6.8945 L 8.50977,-6.95561 L 8.47754,-7.01886
 L 8.44934,-7.08401 L 8.42529,-7.1508 L 8.40549,-7.21898 L 8.39001,-7.28825 L 8.37891,-7.35837 L 8.37222,-7.42905
 L 8.37,-7.5 L 8.37222,-7.57094 L 8.37891,-7.64162 L 8.39001,-7.71173 L 8.40549,-7.78101 L 8.42529,-7.84918
 L 8.44934,-7.91597 L 8.47754,-7.98112 L 8.50977,-8.04437 L 8.5459,-8.10548 L 8.5858,-8.16418 L 8.62932,-8.22028
 L 8.67625,-8.27353 L 8.72646,-8.32373 L 8.77971,-8.37067 L 8.8358,-8.41418 L 8.8945,-8.45409 L 8.95561,-8.49022
 L 9.01886,-8.52245 L 9.08401,-8.55064 L 9.1508,-8.57469 L 9.21898,-8.5945 L 9.28825,-8.60997 L 9.35837,-8.62108
 L 9.42905,-8.62776 L 9.5,-8.62999 L 9.57094,-8.62776 L 9.64162,-8.62108 L 9.71173,-8.60997 L 9.78101,-8.5945
 L 9.84918,-8.57469 L 9.91597,-8.55064 L 9.98112,-8.52245 L 10.0444,-8.49022 L 10.1055,-8.45409 L 10.1642,-8.41418
 L 10.2203,-8.37067 L 10.2735,-8.32373 L 10.3237,-8.27353 L 10.3707,-8.22028 L 10.4142,-8.16418 L 10.4541,-8.10548
 L 10.4902,-8.04437 L 10.5224,-7.98112 L 10.5506,-7.91597 L 10.5747,-7.84918 L 10.5945,-7.78101 L 10.61,-7.71173
 L 10.6211,-7.64162 L 10.6278,-7.57094 L 10.63,-7.5 L 10.6278,-7.42905 L 10.6211,-7.35837 L 10.61,-7.28825
 L 10.5945,-7.21898 L 10.5747,-7.1508 L 10.5506,-7.08401 L 10.5224,-7.01886 L 10.4902,-6.95561 L 10.4541,-6.8945
 L 10.4142,-6.8358 L 10.3707,-6.77971 L 10.3237,-6.72646 L 10.2735,-6.67625 L 10.2203,-6.62932 L 10.1642,-6.5858
 L 10.1055,-6.5459 L 10.0444,-6.50977 L 9.98112,-6.47754 L 9.91597,-6.44934 L 9.84918,-6.42529 L 9.78101,-6.40549
 L 9.71173,-6.39001 L 9.64162,-6.37891 L 9.57094,-6.37222 L 9.5,-6.37 z
M 114.429,-6.37222 L 114.358,-6.37891 L 114.288,-6.39001 L 114.219,-6.40549 L 114.151,-6.42529 L 114.084,-6.44934
 L 114.019,-6.47754 L 113.956,-6.50977 L 113.895,-6.5459 L 113.836,-6.5858 L 113.78,-6.62932 L 113.726,-6.67625
 L 113.676,-6.72646 L 113.629,-6.77971 L 113.586,-6.8358 L 113.546,-6.8945 L 113.51,-6.95561 L 113.478,-7.01886
 L 113.449,-7.08401 L 113.425,-7.1508 L 113.405,-7.21898 L 113.39,-7.28825 L 113.379,-7.35837 L 113.372,-7.42905
 L 113.37,-7.5 L 113.372,-7.57094 L 113.379,-7.64162 L 113.39,-7.71173 L 113.405,-7.78101 L 113.425,-7.84918
 L 113.449,-7.91597 L 113.478,-7.98112 L 113.51,-8.04437 L 113.546,-8.10548 L 113.586,-8.16418 L 113.629,-8.22028
 L 113.676,-8.27353 L 113.726,-8.32373 L 113.78,-8.37067 L 113.836,-8.41418 L 113.895,-8.45409 L 113.956,-8.49022
 L 114.019,-8.52245 L 114.084,-8.55064 L 114.151,-8.57469 L 114.219,-8.5945 L 114.288,-8.60997 L 114.358,-8.62108
 L 114.429,-8.62776 L 114.5,-8.62999 L 114.571,-8.62776 L 114.642,-8.62108 L 114.712,-8.60997 L 114.781,-8.5945
 L 114.849,-8.57469 L 114.916,-8.55064 L 114.981,-8.52245 L 115.044,-8.49022 L 115.105,-8.45409 L 115.164,-8.41418
 L 115.22,-8.37067 L 115.274,-8.32373 L 115.324,-8.27353 L 115.371,-8.22028 L 115.414,-8.16418 L 115.454,-8.10548
 L 115.49,-8.04437 L 115.522,-7.98112 L 115.551,-7.91597 L 115.575,-7.84918 L 115.594,-7.78101 L 115.61,-7.71173
 L 115.621,-7.64162 L 115.628,-7.57094 L 115.63,-7.5 L 115.628,-7.42905 L 115.621,-7.35837 L 115.61,-7.28825
 L 115.594,-7.21898 L 115.575,-7.1508 L 115.551,-7.08401 L 115.522,-7.01886 L 115.49,-6.95561 L 115.454,-6.8945
 L 115.414,-6.8358 L 115.371,-6.77971 L 115.324,-6.72646 L 115.274,-6.67625 L 115.22,-6.62932 L 115.164,-6.5858
 L 115.105,-6.5459 L 115.044,-6.50977 L 114.981,-6.47754 L 114.916,-6.44934 L 114.849,-6.42529 L 114.781,-6.40549
 L 114.712,-6.39001 L 114.642,-6.37891 L 114.571,-6.37222 L 114.5,-6.37 z
M 194.429,-6.37222 L 194.358,-6.37891 L 194.288,-6.39001 L 194.219,-6.40549 L 194.151,-6.42529 L 194.084,-6.44934
 L 194.019,-6.47754 L 193.956,-6.50977 L 193.895,-6.5459 L 193.836,-6.5858 L 193.78,-6.62932 L 193.726,-6.67625
 L 193.676,-6.72646 L 193.629,-6.77971 L 193.586,-6.8358 L 193.546,-6.8945 L 193.51,-6.95561 L 193.478,-7.01886
 L 193.449,-7.08401 L 193.425,-7.1508 L 193.405,-7.21898 L 193.39,-7.28825 L 193.379,-7.35837 L 193.372,-7.42905
 L 193.37,-7.5 L 193.372,-7.57094 L 193.379,-7.64162 L 193.39,-7.71173 L 193.405,-7.78101 L 193.425,-7.84918
 L 193.449,-7.91597 L 193.478,-7.98112 L 193.51,-8.04437 L 193.546,-8.10548 L 193.586,-8.16418 L 193.629,-8.22028
 L 193.676,-8.27353 L 193.726,-8.32373 L 193.78,-8.37067 L 193.836,-8.41418 L 193.895,-8.45409 L 193.956,-8.49022
 L 194.019,-8.52245 L 194.084,-8.55064 L 194.151,-8.57469 L 194.219,-8.5945 L 194.288,-8.60997 L 194.358,-8.62108
 L 194.429,-8.62776 L 194.5,-8.62999 L 194.571,-8.62776 L 194.642,-8.62108 L 194.712,-8.60997 L 194.781,-8.5945
 L 194.849,-8.57469 L 194.916,-8.55064 L 194.981,-8.52245 L 195.044,-8.49022 L 195.105,-8.45409 L 195.164,-8.41418
 L 195.22,-8.37067 L 195.274,-8.32373 L 195.324,-8.27353 L 195.371,-8.22028 L 195.414,-8.16418 L 195.454,-8.10548
 L 195.49,-8.04437 L 195.522,-7.98112 L 195.551,-7.91597 L 195.575,-7.84918 L 195.594,-7.78101 L 195.61,-7.71173
 L 195.621,-7.64162 L 195.628,-7.57094 L 195.63,-7.5 L 195.628,-7.42905 L 195.621,-7.35837 L 195.61,-7.28825
 L 195.594,-7.21898 L 195.575,-7.1508 L 195.551,-7.08401 L 195.522,-7.01886 L 195.49,-6.95561 L 195.454,-6.8945
 L 195.414,-6.8358 L 195.371,-6.77971 L 195.324,-6.72646 L 195.274,-6.67625 L 195.22,-6.62932 L 195.164,-6.5858
 L 195.105,-6.5459 L 195.044,-6.50977 L 194.981,-6.47754 L 194.916,-6.44934 L 194.849,-6.42529 L 194.781,-6.40549
 L 194.712,-6.39001 L 194.642,-6.37891 L 194.571,-6.37222 L 194.5,-6.37 z
" stroke="black" fill="lightgray" stroke-width="0.5"/>
</svg>
