<?xml version="1.0" standalone="no"?>
<!DOCTYPE svg PUBLIC "-//W3C//DTD SVG 1.1//EN" "http://www.w3.org/Graphics/SVG/1.1/DTD/svg11.dtd">
<svg width="209mm" height="125mm" viewBox="0 -125 209 125" xmlns="http://www.w3.org/2000/svg" version="1.1">
<title>OpenSCAD Model</title>
<path d="
M 199.128,-0.0197296 L 199.753,-0.0788574 L 200.374,-0.177124 L 200.987,-0.314163 L 201.59,-0.489441 L 202.181,-0.70224
 L 202.758,-0.951736 L 203.318,-1.23694 L 203.858,-1.55672 L 204.378,-1.90984 L 204.874,-2.29486 L 205.345,-2.71031
 L 205.79,-3.15453 L 206.205,-3.62576 L 206.59,-4.12215 L 206.943,-4.64174 L 207.263,-5.18246 L 207.548,-5.7422
 L 207.798,-6.31876 L 208.011,-6.90984 L 208.186,-7.51311 L 208.323,-8.12619 L 208.421,-8.74667 L 208.48,-9.3721
 L 208.5,-10 L 208.5,-115 L 208.48,-115.628 L 208.421,-116.253 L 208.323,-116.874 L 208.186,-117.487
 L 208.011,-118.09 L 207.798,-118.681 L 207.548,-119.258 L 207.263,-119.818 L 206.943,-120.358 L 206.59,-120.878
 L 206.205,-121.374 L 205.79,-121.845 L 205.345,-122.29 L 204.874,-122.705 L 204.378,-123.09 L 203.858,-123.443
 L 203.318,-123.763 L 202.758,-124.048 L 202.181,-124.298 L 201.59,-124.511 L 200.987,-124.686 L 200.374,-124.823
 L 199.753,-124.921 L 199.128,-124.98 L 198.5,-125 L 102.5,-125 L 102.5,-95 L 82.5,-95
 L 82.5,-125 L 10,-125 L 9.3721,-124.98 L 8.74667,-124.921 L 8.12619,-124.823 L 7.51311,-124.686
 L 6.90984,-124.511 L 6.31876,-124.298 L 5.7422,-124.048 L 5.18246,-123.763 L 4.64174,-123.443 L 4.12215,-123.09
 L 3.62576,-122.705 L 3.15453,-122.29 L 2.71031,-121.845 L 2.29486,-121.374 L 1.90984,-120.878 L 1.55672,-120.358
 L 1.23694,-119.818 L 0.951736,-119.258 L 0.70224,-118.681 L 0.489441,-118.09 L 0.314163,-117.487 L 0.177124,-116.874
 L 0.0788574,-116.253 L 0.0197296,-115.628 L 0,-115 L 0,-10 L 0.0197296,-9.3721 L 0.0788574,-8.74667
 L 0.177124,-8.12619 L 0.314163,-7.51311 L 0.489441,-6.90984 L 0.70224,-6.31876 L 0.951736,-5.7422 L 1.23694,-5.18246
 L 1.55672,-4.64174 L 1.90984,-4.12215 L 2.29486,-3.62576 L 2.71031,-3.15453 L 3.15453,-2.71031 L 3.62576,-2.29486
 L 4.12215,-1.90984 L 4.64174,-1.55672 L 5.18246,-1.23694 L 5.7422,-0.951736 L 6.31876,-0.70224 L 6.90984,-0.489441
 L 7.51311,-0.314163 L 8.12619,-0.177124 L 8.74667,-0.0788574 L 9.3721,-0.0197296 L 10,-0 L 198.5,-0
 z
M 137.615,-69.2747 L 136.833,-69.3486 L 136.058,-69.4714 L 135.291,-69.6427 L 134.537,-69.8618 L 133.798,-70.1278
 L 133.078,-70.4397 L 132.378,-70.7962 L 131.702,-71.1959 L 131.053,-71.6373 L 130.432,-72.1186 L 129.843,-72.6379
 L 129.288,-73.1932 L 128.769,-73.7822 L 128.287,-74.4027 L 127.846,-75.0522 L 127.446,-75.7281 L 127.09,-76.4277
 L 126.778,-77.1484 L 126.512,-77.8873 L 126.293,-78.6414 L 126.121,-79.4077 L 125.999,-80.1833 L 125.925,-80.9651
 L 125.9,-81.75 L 125.925,-82.5349 L 125.999,-83.3167 L 126.121,-84.0923 L 126.293,-84.8586 L 126.512,-85.6127
 L 126.778,-86.3515 L 127.09,-87.0722 L 127.446,-87.7719 L 127.846,-88.4478 L 128.287,-89.0973 L 128.769,-89.7178
 L 129.288,-90.3068 L 129.843,-90.8621 L 130.432,-91.3814 L 131.053,-91.8627 L 131.702,-92.3041 L 132.378,-92.7038
 L 133.078,-93.0603 L 133.798,-93.3722 L 134.537,-93.6382 L 135.291,-93.8573 L 136.058,-94.0286 L 136.833,-94.1514
 L 137.615,-94.2253 L 138,-94.2374 L 138,-124 L 168,-124 L 168,-94.5328 L 168.342,-94.4786
 L 169.109,-94.3073 L 169.863,-94.0882 L 170.602,-93.8222 L 171.322,-93.5103 L 172.022,-93.1538 L 172.698,-92.7541
 L 173.347,-92.3127 L 173.968,-91.8314 L 174.557,-91.3121 L 175.112,-90.7568 L 175.631,-90.1678 L 176.113,-89.5473
 L 176.554,-88.8978 L 176.954,-88.2219 L 177.31,-87.5222 L 177.622,-86.8015 L 177.888,-86.0627 L 178.107,-85.3086
 L 178.279,-84.5423 L 178.401,-83.7667 L 178.475,-82.9849 L 178.5,-82.2 L 178.475,-81.4151 L 178.401,-80.6333
 L 178.279,-79.8577 L 178.107,-79.0914 L 177.888,-78.3373 L 177.622,-77.5984 L 177.31,-76.8777 L 176.954,-76.1781
 L 176.554,-75.5022 L 176.113,-74.8527 L 175.631,-74.2322 L 175.112,-73.6432 L 174.557,-73.0879 L 173.968,-72.5686
 L 173.347,-72.0873 L 172.698,-71.6459 L 172.022,-71.2462 L 171.322,-70.8896 L 170.602,-70.5778 L 169.863,-70.3118
 L 169.109,-70.0927 L 168.342,-69.9214 L 167.567,-69.7986 L 166.785,-69.7247 L 166,-69.7 L 165.215,-69.7247
 L 164.433,-69.7986 L 163.658,-69.9214 L 162.891,-70.0927 L 162.137,-70.3118 L 161.398,-70.5778 L 160.678,-70.8896
 L 159.978,-71.2462 L 159.302,-71.6459 L 158.653,-72.0873 L 158.032,-72.5686 L 157.443,-73.0879 L 156.888,-73.6432
 L 156.369,-74.2322 L 155.887,-74.8527 L 155.446,-75.5022 L 155.046,-76.1781 L 154.69,-76.8777 L 154.378,-77.5984
 L 154.112,-78.3373 L 153.893,-79.0914 L 153.721,-79.8577 L 153.599,-80.6333 L 153.525,-81.4151 L 153.5,-82.2
 L 153.525,-82.9849 L 153.599,-83.7667 L 153.721,-84.5423 L 153.893,-85.3086 L 154.112,-86.0627 L 154.378,-86.8015
 L 154.69,-87.5222 L 155.046,-88.2219 L 155.446,-88.8978 L 155.887,-89.5473 L 156.369,-90.1678 L 156.888,-90.7568
 L 157.443,-91.3121 L 158.032,-91.8314 L 158.653,-92.3127 L 159.302,-92.7541 L 159.978,-93.1538 L 160.678,-93.5103
 L 161.398,-93.8222 L 161.892,-94 L 140.87,-94 L 141.509,-93.8573 L 142.263,-93.6382 L 143.002,-93.3722
 L 143.722,-93.0603 L 144.422,-92.7038 L 145.098,-92.3041 L 145.747,-91.8627 L 146.368,-91.3814 L 146.957,-90.8621
 L 147.512,-90.3068 L 148.031,-89.7178 L 148.513,-89.0973 L 148.954,-88.4478 L 149.354,-87.7719 L 149.71,-87.0722
 L 150.022,-86.3515 L 150.288,-85.6127 L 150.507,-84.8586 L 150.679,-84.0923 L 150.801,-83.3167 L 150.875,-82.5349
 L 150.9,-81.75 L 150.875,-80.9651 L 150.801,-80.1833 L 150.679,-79.4077 L 150.507,-78.6414 L 150.288,-77.8873
 L 150.022,-77.1484 L 149.71,-76.4277 L 149.354,-75.7281 L 148.954,-75.0522 L 148.513,-74.4027 L 148.031,-73.7822
 L 147.512,-73.1932 L 146.957,-72.6379 L 146.368,-72.1186 L 145.747,-71.6373 L 145.098,-71.1959 L 144.422,-70.7962
 L 143.722,-70.4397 L 143.002,-70.1278 L 142.263,-69.8618 L 141.509,-69.6427 L 140.742,-69.4714 L 139.967,-69.3486
 L 139.185,-69.2747 L 138.4,-69.25 z
M 17.85,-111.725 L 17.85,-120.825 L 43.45,-120.825 L 43.45,-111.725 z
M 62.3151,-95.0747 L 61.5333,-95.1486 L 60.7577,-95.2714 L 59.9914,-95.4427 L 59.2373,-95.6618 L 58.4984,-95.9278
 L 57.7778,-96.2397 L 57.0781,-96.5962 L 56.4022,-96.9959 L 55.7527,-97.4373 L 55.1322,-97.9186 L 54.5432,-98.4379
 L 53.9879,-98.9931 L 53.4686,-99.5822 L 52.9873,-100.203 L 52.5459,-100.852 L 52.1462,-101.528 L 51.7897,-102.228
 L 51.4778,-102.948 L 51.2118,-103.687 L 50.9927,-104.441 L 50.8214,-105.208 L 50.6986,-105.983 L 50.6247,-106.765
 L 50.6,-107.55 L 50.6247,-108.335 L 50.6986,-109.117 L 50.8214,-109.892 L 50.9927,-110.659 L 51.2118,-111.413
 L 51.4778,-112.152 L 51.7897,-112.872 L 52.1462,-113.572 L 52.5459,-114.248 L 52.9873,-114.897 L 53.4686,-115.518
 L 53.9879,-116.107 L 54.5432,-116.662 L 55.1322,-117.181 L 55.7527,-117.663 L 56.4022,-118.104 L 57.0781,-118.504
 L 57.7778,-118.86 L 58.4984,-119.172 L 59.2373,-119.438 L 59.9914,-119.657 L 60.7577,-119.829 L 61.5333,-119.951
 L 62.3151,-120.025 L 63.1,-120.05 L 63.8849,-120.025 L 64.6667,-119.951 L 65.4423,-119.829 L 66.2086,-119.657
 L 66.9627,-119.438 L 67.7016,-119.172 L 68.4222,-118.86 L 69.1219,-118.504 L 69.7978,-118.104 L 70.4473,-117.663
 L 71.0678,-117.181 L 71.6568,-116.662 L 72.2121,-116.107 L 72.7314,-115.518 L 73.2127,-114.897 L 73.6541,-114.248
 L 74.0538,-113.572 L 74.4103,-112.872 L 74.7222,-112.152 L 74.9882,-111.413 L 75.2073,-110.659 L 75.3786,-109.892
 L 75.5014,-109.117 L 75.5753,-108.335 L 75.6,-107.55 L 75.5753,-106.765 L 75.5014,-105.983 L 75.3786,-105.208
 L 75.2073,-104.441 L 74.9882,-103.687 L 74.7222,-102.948 L 74.4103,-102.228 L 74.0538,-101.528 L 73.6541,-100.852
 L 73.2127,-100.203 L 72.7314,-99.5822 L 72.2121,-98.9931 L 71.6568,-98.4379 L 71.0678,-97.9186 L 70.4473,-97.4373
 L 69.7978,-96.9959 L 69.1219,-96.5962 L 68.4222,-96.2397 L 67.7016,-95.9278 L 66.9627,-95.6618 L 66.2086,-95.4427
 L 65.4423,-95.2714 L 64.6667,-95.1486 L 63.8849,-95.0747 L 63.1,-95.05 z
M 9.42905,-116.372 L 9.35837,-116.379 L 9.28825,-116.39 L 9.21898,-116.405 L 9.1508,-116.425 L 9.08401,-116.449
 L 9.01886,-116.478 L 8.95561,-116.51 L 8.8945,-116.546 L 8.8358,-116.586 L 8.77971,-116.629 L 8.72646,-116.676
 L 8.67625,-116.726 L 8.62932,-116.78 L 8.5858,-116.836 L 8.5459,-116.895 L 8.50977,-116.956 L 8.47754,-117.019
 L 8.44934,-117.084 L 8.42529,-117.151 L 8.40549,-117.219 L 8.39001,-117.288 L 8.37891,-117.358 L 8.37222,-117.429
 L 8.37,-117.5 L 8.37222,-117.571 L 8.37891,-117.642 L 8.39001,-117.712 L 8.40549,-117.781 L 8.42529,-117.849
 L 8.44934,-117.916 L 8.47754,-117.981 L 8.50977,-118.044 L 8.5459,-118.105 L 8.5858,-118.164 L 8.62932,-118.22
 L 8.67625,-118.274 L 8.72646,-118.324 L 8.77971,-118.371 L 8.8358,-118.414 L 8.8945,-118.454 L 8.95561,-118.49
 L 9.01886,-118.522 L 9.08401,-118.551 L 9.1508,-118.575 L 9.21898,-118.594 L 9.28825,-118.61 L 9.35837,-118.621
 L 9.42905,-118.628 L 9.5,-118.63 L 9.57094,-118.628 L 9.64162,-118.621 L 9.71173,-118.61 L 9.78101,-118.594
 L 9.84918,-118.575 L 9.91597,-118.551 L 9.98112,-118.522 L 10.0444,-118.49 L 10.1055,-118.454 L 10.1642,-118.414
 L 10.2203,-118.371 L 10.2735,-118.324 L 10.3237,-118.274 L 10.3707,-118.22 L 10.4142,-118.164 L 10.4541,-118.105
 L 10.4902,-118.044 L 10.5224,-117.981 L 10.5506,-117.916 L 10.5747,-117.849 L 10.5945,-117.781 L 10.61,-117.712
 L 10.6211,-117.642 L 10.6278,-117.571 L 10.63,-117.5 L 10.6278,-117.429 L 10.6211,-117.358 L 10.61,-117.288
 L 10.5945,-117.219 L 10.5747,-117.151 L 10.5506,-117.084 L 10.5224,-117.019 L 10.4902,-116.956 L 10.4541,-116.895
 L 10.4142,-116.836 L 10.3707,-116.78 L 10.3237,-116.726 L 10.2735,-116.676 L 10.2203,-116.629 L 10.1642,-116.586
 L 10.1055,-116.546 L 10.0444,-116.51 L 9.98112,-116.478 L 9.91597,-116.449 L 9.84918,-116.425 L 9.78101,-116.405
 L 9.71173,-116.39 L 9.64162,-116.379 L 9.57094,-116.372 L 9.5,-116.37 z
M 194.429,-116.372 L 194.358,-116.379 L 194.288,-116.39 L 194.219,-116.405 L 194.151,-116.425 L 194.084,-116.449
 L 194.019,-116.478 L 193.956,-116.51 L 193.895,-116.546 L 193.836,-116.586 L 193.78,-116.629 L 193.726,-116.676
 L 193.676,-116.726 L 193.629,-116.78 L 193.586,-116.836 L 193.546,-116.895 L 193.51,-116.956 L 193.478,-117.019
 L 193.449,-117.084 L 193.425,-117.151 L 193.405,-117.219 L 193.39,-117.288 L 193.379,-117.358 L 193.372,-117.429
 L 193.37,-117.5 L 193.372,-117.571 L 193.379,-117.642 L 193.39,-117.712 L 193.405,-117.781 L 193.425,-117.849
 L 193.449,-117.916 L 193.478,-117.981 L 193.51,-118.044 L 193.546,-118.105 L 193.586,-118.164 L 193.629,-118.22
 L 193.676,-118.274 L 193.726,-118.324 L 193.78,-118.371 L 193.836,-118.414 L 193.895,-118.454 L 193.956,-118.49
 L 194.019,-118.522 L 194.084,-118.551 L 194.151,-118.575 L 194.219,-118.594 L 194.288,-118.61 L 194.358,-118.621
 L 194.429,-118.628 L 194.5,-118.63 L 194.571,-118.628 L 194.642,-118.621 L 194.712,-118.61 L 194.781,-118.594
 L 194.849,-118.575 L 194.916,-118.551 L 194.981,-118.522 L 195.044,-118.49 L 195.105,-118.454 L 195.164,-118.414
 L 195.22,-118.371 L 195.274,-118.324 L 195.324,-118.274 L 195.371,-118.22 L 195.414,-118.164 L 195.454,-118.105
 L 195.49,-118.044 L 195.522,-117.981 L 195.551,-117.916 L 195.575,-117.849 L 195.594,-117.781 L 195.61,-117.712
 L 195.621,-117.642 L 195.628,-117.571 L 195.63,-117.5 L 195.628,-117.429 L 195.621,-117.358 L 195.61,-117.288
 L 195.594,-117.219 L 195.575,-117.151 L 195.551,-117.084 L 195.522,-117.019 L 195.49,-116.956 L 195.454,-116.895
 L 195.414,-116.836 L 195.371,-116.78 L 195.324,-116.726 L 195.274,-116.676 L 195.22,-116.629 L 195.164,-116.586
 L 195.105,-116.546 L 195.044,-116.51 L 194.981,-116.478 L 194.916,-116.449 L 194.849,-116.425 L 194.781,-116.405
 L 194.712,-116.39 L 194.642,-116.379 L 194.571,-116.372 L 194.5,-116.37 z
M 193.015,-69.7747 L 192.233,-69.8486 L 191.458,-69.9714 L 190.691,-70.1427 L 189.937,-70.3618 L 189.198,-70.6278
 L 188.478,-70.9397 L 187.778,-71.2962 L 187.102,-71.6959 L 186.453,-72.1373 L 185.832,-72.6186 L 185.243,-73.1379
 L 184.688,-73.6932 L 184.169,-74.2822 L 183.687,-74.9027 L 183.246,-75.5522 L 182.846,-76.2281 L 182.49,-76.9277
 L 182.178,-77.6484 L 181.912,-78.3873 L 181.693,-79.1414 L 181.521,-79.9077 L 181.399,-80.6833 L 181.325,-81.4651
 L 181.3,-82.25 L 181.325,-83.0349 L 181.399,-83.8167 L 181.521,-84.5923 L 181.693,-85.3586 L 181.912,-86.1127
 L 182.178,-86.8515 L 182.49,-87.5722 L 182.846,-88.2719 L 183.246,-88.9478 L 183.687,-89.5973 L 184.169,-90.2178
 L 184.688,-90.8068 L 185.243,-91.3621 L 185.832,-91.8814 L 186.453,-92.3627 L 187.102,-92.8041 L 187.778,-93.2038
 L 188.478,-93.5603 L 189.198,-93.8722 L 189.937,-94.1382 L 190.691,-94.3573 L 191.458,-94.5286 L 192.233,-94.6514
 L 193.015,-94.7253 L 193.8,-94.75 L 194.585,-94.7253 L 195.367,-94.6514 L 196.142,-94.5286 L 196.909,-94.3573
 L 197.663,-94.1382 L 198.402,-93.8722 L 199.122,-93.5603 L 199.822,-93.2038 L 200.498,-92.8041 L 201.147,-92.3627
 L 201.768,-91.8814 L 202.357,-91.3621 L 202.912,-90.8068 L 203.431,-90.2178 L 203.913,-89.5973 L 204.354,-88.9478
 L 204.754,-88.2719 L 205.11,-87.5722 L 205.422,-86.8515 L 205.688,-86.1127 L 205.907,-85.3586 L 206.079,-84.5923
 L 206.201,-83.8167 L 206.275,-83.0349 L 206.3,-82.25 L 206.275,-81.4651 L 206.201,-80.6833 L 206.079,-79.9077
 L 205.907,-79.1414 L 205.688,-78.3873 L 205.422,-77.6484 L 205.11,-76.9277 L 204.754,-76.2281 L 204.354,-75.5522
 L 203.913,-74.9027 L 203.431,-74.2822 L 202.912,-73.6932 L 202.357,-73.1379 L 201.768,-72.6186 L 201.147,-72.1373
 L 200.498,-71.6959 L 199.822,-71.2962 L 199.122,-70.9397 L 198.402,-70.6278 L 197.663,-70.3618 L 196.909,-70.1427
 L 196.142,-69.9714 L 195.367,-69.8486 L 194.585,-69.7747 L 193.8,-69.75 z
M 56.6151,-67.7747 L 55.8333,-67.8486 L 55.0577,-67.9714 L 54.2914,-68.1427 L 53.5373,-68.3618 L 52.7984,-68.6278
 L 52.0778,-68.9397 L 51.3781,-69.2962 L 50.7022,-69.6959 L 50.0527,-70.1373 L 49.4322,-70.6186 L 48.8432,-71.1379
 L 48.2879,-71.6932 L 47.7686,-72.2822 L 47.2873,-72.9027 L 46.8459,-73.5522 L 46.4462,-74.2281 L 46.0897,-74.9277
 L 45.7778,-75.6484 L 45.5118,-76.3873 L 45.2927,-77.1414 L 45.1214,-77.9077 L 44.9986,-78.6833 L 44.9247,-79.4651
 L 44.9,-80.25 L 44.9247,-81.0349 L 44.9986,-81.8167 L 45.1214,-82.5923 L 45.2927,-83.3586 L 45.5118,-84.1127
 L 45.7778,-84.8515 L 46.0897,-85.5722 L 46.4462,-86.2719 L 46.8459,-86.9478 L 47.2873,-87.5973 L 47.7686,-88.2178
 L 48.2879,-88.8068 L 48.8432,-89.3621 L 49.4322,-89.8814 L 50.0527,-90.3627 L 50.7022,-90.8041 L 51.3781,-91.2038
 L 52.0778,-91.5603 L 52.7984,-91.8722 L 53.5373,-92.1382 L 54.2914,-92.3573 L 55.0577,-92.5286 L 55.8333,-92.6514
 L 56.6151,-92.7253 L 57.4,-92.75 L 58.1849,-92.7253 L 58.9667,-92.6514 L 59.7423,-92.5286 L 60.5086,-92.3573
 L 61.2627,-92.1382 L 62.0016,-91.8722 L 62.7222,-91.5603 L 63.4219,-91.2038 L 64.0978,-90.8041 L 64.7473,-90.3627
 L 65.3678,-89.8814 L 65.9568,-89.3621 L 66.5121,-88.8068 L 67.0314,-88.2178 L 67.5127,-87.5973 L 67.9541,-86.9478
 L 68.3538,-86.2719 L 68.7103,-85.5722 L 69.0222,-84.8515 L 69.2882,-84.1127 L 69.5073,-83.3586 L 69.6786,-82.5923
 L 69.8014,-81.8167 L 69.8753,-81.0349 L 69.9,-80.25 L 69.8753,-79.4651 L 69.8014,-78.6833 L 69.6786,-77.9077
 L 69.5073,-77.1414 L 69.2882,-76.3873 L 69.0222,-75.6484 L 68.7103,-74.9277 L 68.3538,-74.2281 L 67.9541,-73.5522
 L 67.5127,-72.9027 L 67.0314,-72.2822 L 66.5121,-71.6932 L 65.9568,-71.1379 L 65.3678,-70.6186 L 64.7473,-70.1373
 L 64.0978,-69.6959 L 63.4219,-69.2962 L 62.7222,-68.9397 L 62.0016,-68.6278 L 61.2627,-68.3618 L 60.5086,-68.1427
 L 59.7423,-67.9714 L 58.9667,-67.8486 L 58.1849,-67.7747 L 57.4,-67.75 z
M 110.715,-65.3247 L 109.933,-65.3986 L 109.158,-65.5214 L 108.391,-65.6927 L 107.637,-65.9118 L 106.898,-66.1778
 L 106.178,-66.4897 L 105.478,-66.8462 L 104.802,-67.2459 L 104.153,-67.6873 L 103.532,-68.1686 L 102.943,-68.6879
 L 102.388,-69.2431 L 101.869,-69.8322 L 101.387,-70.4527 L 100.946,-71.1022 L 100.546,-71.7781 L 100.19,-72.4778
 L 99.8778,-73.1984 L 99.6118,-73.9373 L 99.3927,-74.6914 L 99.2214,-75.4577 L 99.0986,-76.2333 L 99.0247,-77.0151
 L 99,-77.8 L 99.0247,-78.5849 L 99.0986,-79.3667 L 99.2214,-80.1423 L 99.3927,-80.9086 L 99.6118,-81.6627
 L 99.8778,-82.4016 L 100.19,-83.1222 L 100.546,-83.8219 L 100.946,-84.4978 L 101.387,-85.1473 L 101.869,-85.7678
 L 102.388,-86.3568 L 102.943,-86.9121 L 103.532,-87.4314 L 104.153,-87.9127 L 104.802,-88.3541 L 105.478,-88.7538
 L 106.178,-89.1103 L 106.898,-89.4222 L 107.637,-89.6882 L 108.391,-89.9073 L 109.158,-90.0786 L 109.933,-90.2014
 L 110.715,-90.2753 L 111.5,-90.3 L 112.285,-90.2753 L 113.067,-90.2014 L 113.842,-90.0786 L 114.609,-89.9073
 L 115.363,-89.6882 L 116.102,-89.4222 L 116.822,-89.1103 L 117.522,-88.7538 L 118.198,-88.3541 L 118.847,-87.9127
 L 119.468,-87.4314 L 120.057,-86.9121 L 120.612,-86.3568 L 121.131,-85.7678 L 121.613,-85.1473 L 122.054,-84.4978
 L 122.454,-83.8219 L 122.81,-83.1222 L 123.122,-82.4016 L 123.388,-81.6627 L 123.607,-80.9086 L 123.779,-80.1423
 L 123.901,-79.3667 L 123.975,-78.5849 L 124,-77.8 L 123.975,-77.0151 L 123.901,-76.2333 L 123.779,-75.4577
 L 123.607,-74.6914 L 123.388,-73.9373 L 123.122,-73.1984 L 122.81,-72.4778 L 122.454,-71.7781 L 122.054,-71.1022
 L 121.613,-70.4527 L 121.131,-69.8322 L 120.612,-69.2431 L 120.057,-68.6879 L 119.468,-68.1686 L 118.847,-67.6873
 L 118.198,-67.2459 L 117.522,-66.8462 L 116.822,-66.4897 L 116.102,-66.1778 L 115.363,-65.9118 L 114.609,-65.6927
 L 113.842,-65.5214 L 113.067,-65.3986 L 112.285,-65.3247 L 111.5,-65.3 z
M 28.6151,-65.2747 L 27.8333,-65.3486 L 27.0577,-65.4714 L 26.2914,-65.6427 L 25.5373,-65.8618 L 24.7984,-66.1278
 L 24.0778,-66.4397 L 23.3781,-66.7962 L 22.7022,-67.1959 L 22.0527,-67.6373 L 21.4322,-68.1186 L 20.8432,-68.6379
 L 20.2879,-69.1932 L 19.7686,-69.7822 L 19.2873,-70.4027 L 18.8459,-71.0522 L 18.4462,-71.7281 L 18.0897,-72.4277
 L 17.7778,-73.1484 L 17.5118,-73.8873 L 17.2927,-74.6414 L 17.1214,-75.4077 L 16.9986,-76.1833 L 16.9247,-76.9651
 L 16.9,-77.75 L 16.9247,-78.5349 L 16.9986,-79.3167 L 17.1214,-80.0923 L 17.2927,-80.8586 L 17.5118,-81.6127
 L 17.7778,-82.3515 L 18.0897,-83.0722 L 18.4462,-83.7719 L 18.8459,-84.4478 L 19.2873,-85.0973 L 19.7686,-85.7178
 L 20.2879,-86.3068 L 20.8432,-86.8621 L 21.4322,-87.3814 L 22.0527,-87.8627 L 22.7022,-88.3041 L 23.3781,-88.7038
 L 24.0778,-89.0603 L 24.7984,-89.3722 L 25.5373,-89.6382 L 26.2914,-89.8573 L 27.0577,-90.0286 L 27.8333,-90.1514
 L 28.6151,-90.2253 L 29.4,-90.25 L 30.1849,-90.2253 L 30.9667,-90.1514 L 31.7423,-90.0286 L 32.5086,-89.8573
 L 33.2627,-89.6382 L 34.0016,-89.3722 L 34.7222,-89.0603 L 35.4219,-88.7038 L 36.0978,-88.3041 L 36.7473,-87.8627
 L 37.3678,-87.3814 L 37.9568,-86.8621 L 38.5121,-86.3068 L 39.0314,-85.7178 L 39.5127,-85.0973 L 39.9541,-84.4478
 L 40.3538,-83.7719 L 40.7103,-83.0722 L 41.0222,-82.3515 L 41.2882,-81.6127 L 41.5073,-80.8586 L 41.6786,-80.0923
 L 41.8014,-79.3167 L 41.8753,-78.5349 L 41.9,-77.75 L 41.8753,-76.9651 L 41.8014,-76.1833 L 41.6786,-75.4077
 L 41.5073,-74.6414 L 41.2882,-73.8873 L 41.0222,-73.1484 L 40.7103,-72.4277 L 40.3538,-71.7281 L 39.9541,-71.0522
 L 39.5127,-70.4027 L 39.0314,-69.7822 L 38.5121,-69.1932 L 37.9568,-68.6379 L 37.3678,-68.1186 L 36.7473,-67.6373
 L 36.0978,-67.1959 L 35.4219,-66.7962 L 34.7222,-66.4397 L 34.0016,-66.1278 L 33.2627,-65.8618 L 32.5086,-65.6427
 L 31.7423,-65.4714 L 30.9667,-65.3486 L 30.1849,-65.2747 L 29.4,-65.25 z
M 83.6151,-56.7747 L 82.8333,-56.8486 L 82.0577,-56.9714 L 81.2914,-57.1427 L 80.5373,-57.3618 L 79.7984,-57.6278
 L 79.0778,-57.9397 L 78.3781,-58.2962 L 77.7022,-58.6959 L 77.0527,-59.1373 L 76.4322,-59.6186 L 75.8432,-60.1379
 L 75.2879,-60.6932 L 74.7686,-61.2822 L 74.2873,-61.9027 L 73.8459,-62.5522 L 73.4462,-63.2281 L 73.0897,-63.9277
 L 72.7778,-64.6484 L 72.5118,-65.3873 L 72.2927,-66.1414 L 72.1214,-66.9077 L 71.9986,-67.6833 L 71.9247,-68.4651
 L 71.9,-69.25 L 71.9247,-70.0349 L 71.9986,-70.8167 L 72.1214,-71.5923 L 72.2927,-72.3586 L 72.5118,-73.1127
 L 72.7778,-73.8515 L 73.0897,-74.5722 L 73.4462,-75.2719 L 73.8459,-75.9478 L 74.2873,-76.5973 L 74.7686,-77.2178
 L 75.2879,-77.8068 L 75.8432,-78.3621 L 76.4322,-78.8814 L 77.0527,-79.3627 L 77.7022,-79.8041 L 78.3781,-80.2038
 L 79.0778,-80.5603 L 79.7984,-80.8722 L 80.5373,-81.1382 L 81.2914,-81.3573 L 82.0577,-81.5286 L 82.8333,-81.6514
 L 83.6151,-81.7253 L 84.4,-81.75 L 85.1849,-81.7253 L 85.9667,-81.6514 L 86.7423,-81.5286 L 87.5086,-81.3573
 L 88.2627,-81.1382 L 89.0016,-80.8722 L 89.7222,-80.5603 L 90.4219,-80.2038 L 91.0978,-79.8041 L 91.7473,-79.3627
 L 92.3678,-78.8814 L 92.9568,-78.3621 L 93.5121,-77.8068 L 94.0314,-77.2178 L 94.5127,-76.5973 L 94.9541,-75.9478
 L 95.3538,-75.2719 L 95.7103,-74.5722 L 96.0222,-73.8515 L 96.2882,-73.1127 L 96.5073,-72.3586 L 96.6786,-71.5923
 L 96.8014,-70.8167 L 96.8753,-70.0349 L 96.9,-69.25 L 96.8753,-68.4651 L 96.8014,-67.6833 L 96.6786,-66.9077
 L 96.5073,-66.1414 L 96.2882,-65.3873 L 96.0222,-64.6484 L 95.7103,-63.9277 L 95.3538,-63.2281 L 94.9541,-62.5522
 L 94.5127,-61.9027 L 94.0314,-61.2822 L 93.5121,-60.6932 L 92.9568,-60.1379 L 92.3678,-59.6186 L 91.7473,-59.1373
 L 91.0978,-58.6959 L 90.4219,-58.2962 L 89.7222,-57.9397 L 89.0016,-57.6278 L 88.2627,-57.3618 L 87.5086,-57.1427
 L 86.7423,-56.9714 L 85.9667,-56.8486 L 85.1849,-56.7747 L 84.4,-56.75 z
M 164.215,-42.7247 L 163.433,-42.7986 L 162.658,-42.9214 L 161.891,-43.0927 L 161.137,-43.3118 L 160.398,-43.5778
 L 159.678,-43.8896 L 158.978,-44.2462 L 158.302,-44.6459 L 157.653,-45.0873 L 157.032,-45.5686 L 156.443,-46.0879
 L 155.888,-46.6432 L 155.369,-47.2322 L 154.887,-47.8527 L 154.446,-48.5022 L 154.046,-49.1781 L 153.69,-49.8777
 L 153.378,-50.5984 L 153.112,-51.3373 L 152.893,-52.0914 L 152.721,-52.8577 L 152.599,-53.6333 L 152.525,-54.4151
 L 152.5,-55.2 L 152.525,-55.9849 L 152.599,-56.7667 L 152.721,-57.5423 L 152.893,-58.3086 L 153.112,-59.0627
 L 153.378,-59.8015 L 153.69,-60.5222 L 154.046,-61.2219 L 154.446,-61.8978 L 154.887,-62.5473 L 155.369,-63.1678
 L 155.888,-63.7568 L 156.443,-64.3121 L 157.032,-64.8314 L 157.653,-65.3127 L 158.302,-65.7541 L 158.978,-66.1538
 L 159.678,-66.5103 L 160.398,-66.8222 L 161.137,-67.0882 L 161.891,-67.3073 L 162.658,-67.4786 L 163.433,-67.6014
 L 164.215,-67.6753 L 165,-67.7 L 165.785,-67.6753 L 166.567,-67.6014 L 167.342,-67.4786 L 168.109,-67.3073
 L 168.863,-67.0882 L 169.602,-66.8222 L 170.322,-66.5103 L 171.022,-66.1538 L 171.698,-65.7541 L 172.347,-65.3127
 L 172.968,-64.8314 L 173.557,-64.3121 L 174.112,-63.7568 L 174.631,-63.1678 L 175.113,-62.5473 L 175.554,-61.8978
 L 175.954,-61.2219 L 176.31,-60.5222 L 176.622,-59.8015 L 176.888,-59.0627 L 177.107,-58.3086 L 177.279,-57.5423
 L 177.401,-56.7667 L 177.475,-55.9849 L 177.5,-55.2 L 177.475,-54.4151 L 177.401,-53.6333 L 177.279,-52.8577
 L 177.107,-52.0914 L 176.888,-51.3373 L 176.622,-50.5984 L 176.31,-49.8777 L 175.954,-49.1781 L 175.554,-48.5022
 L 175.113,-47.8527 L 174.631,-47.2322 L 174.112,-46.6432 L 173.557,-46.0879 L 172.968,-45.5686 L 172.347,-45.0873
 L 171.698,-44.6459 L 171.022,-44.2462 L 170.322,-43.8896 L 169.602,-43.5778 L 168.863,-43.3118 L 168.109,-43.0927
 L 167.342,-42.9214 L 166.567,-42.7986 L 165.785,-42.7247 L 165,-42.7 z
M 193.215,-42.7247 L 192.433,-42.7986 L 191.658,-42.9214 L 190.891,-43.0927 L 190.137,-43.3118 L 189.398,-43.5778
 L 188.678,-43.8896 L 187.978,-44.2462 L 187.302,-44.6459 L 186.653,-45.0873 L 186.032,-45.5686 L 185.443,-46.0879
 L 184.888,-46.6432 L 184.369,-47.2322 L 183.887,-47.8527 L 183.446,-48.5022 L 183.046,-49.1781 L 182.69,-49.8777
 L 182.378,-50.5984 L 182.112,-51.3373 L 181.893,-52.0914 L 181.721,-52.8577 L 181.599,-53.6333 L 181.525,-54.4151
 L 181.5,-55.2 L 181.525,-55.9849 L 181.599,-56.7667 L 181.721,-57.5423 L 181.893,-58.3086 L 182.112,-59.0627
 L 182.378,-59.8015 L 182.69,-60.5222 L 183.046,-61.2219 L 183.446,-61.8978 L 183.887,-62.5473 L 184.369,-63.1678
 L 184.888,-63.7568 L 185.443,-64.3121 L 186.032,-64.8314 L 186.653,-65.3127 L 187.302,-65.7541 L 187.978,-66.1538
 L 188.678,-66.5103 L 189.398,-66.8222 L 190.137,-67.0882 L 190.891,-67.3073 L 191.658,-67.4786 L 192.433,-67.6014
 L 193.215,-67.6753 L 194,-67.7 L 194.785,-67.6753 L 195.567,-67.6014 L 196.342,-67.4786 L 197.109,-67.3073
 L 197.863,-67.0882 L 198.602,-66.8222 L 199.322,-66.5103 L 200.022,-66.1538 L 200.698,-65.7541 L 201.347,-65.3127
 L 201.968,-64.8314 L 202.557,-64.3121 L 203.112,-63.7568 L 203.631,-63.1678 L 204.113,-62.5473 L 204.554,-61.8978
 L 204.954,-61.2219 L 205.31,-60.5222 L 205.622,-59.8015 L 205.888,-59.0627 L 206.107,-58.3086 L 206.279,-57.5423
 L 206.401,-56.7667 L 206.475,-55.9849 L 206.5,-55.2 L 206.475,-54.4151 L 206.401,-53.6333 L 206.279,-52.8577
 L 206.107,-52.0914 L 205.888,-51.3373 L 205.622,-50.5984 L 205.31,-49.8777 L 204.954,-49.1781 L 204.554,-48.5022
 L 204.113,-47.8527 L 203.631,-47.2322 L 203.112,-46.6432 L 202.557,-46.0879 L 201.968,-45.5686 L 201.347,-45.0873
 L 200.698,-44.6459 L 200.022,-44.2462 L 199.322,-43.8896 L 198.602,-43.5778 L 197.863,-43.3118 L 197.109,-43.0927
 L 196.342,-42.9214 L 195.567,-42.7986 L 194.785,-42.7247 L 194,-42.7 z
M 135.615,-42.4747 L 134.833,-42.5486 L 134.058,-42.6714 L 133.291,-42.8427 L 132.537,-43.0618 L 131.798,-43.3278
 L 131.078,-43.6396 L 130.378,-43.9962 L 129.702,-44.3959 L 129.053,-44.8373 L 128.432,-45.3186 L 127.843,-45.8379
 L 127.288,-46.3932 L 126.769,-46.9822 L 126.287,-47.6027 L 125.846,-48.2522 L 125.446,-48.9281 L 125.09,-49.6277
 L 124.778,-50.3484 L 124.512,-51.0873 L 124.293,-51.8414 L 124.121,-52.6077 L 123.999,-53.3833 L 123.925,-54.1651
 L 123.9,-54.95 L 123.925,-55.7349 L 123.999,-56.5167 L 124.121,-57.2923 L 124.293,-58.0586 L 124.512,-58.8127
 L 124.778,-59.5515 L 125.09,-60.2722 L 125.446,-60.9719 L 125.846,-61.6478 L 126.287,-62.2973 L 126.769,-62.9178
 L 127.288,-63.5068 L 127.843,-64.0621 L 128.432,-64.5814 L 129.053,-65.0627 L 129.702,-65.5041 L 130.378,-65.9038
 L 131.078,-66.2603 L 131.798,-66.5722 L 132.537,-66.8382 L 133.291,-67.0573 L 134.058,-67.2286 L 134.833,-67.3514
 L 135.615,-67.4253 L 136.4,-67.45 L 137.185,-67.4253 L 137.967,-67.3514 L 138.742,-67.2286 L 139.509,-67.0573
 L 140.263,-66.8382 L 141.002,-66.5722 L 141.722,-66.2603 L 142.422,-65.9038 L 143.098,-65.5041 L 143.747,-65.0627
 L 144.368,-64.5814 L 144.957,-64.0621 L 145.512,-63.5068 L 146.031,-62.9178 L 146.513,-62.2973 L 146.954,-61.6478
 L 147.354,-60.9719 L 147.71,-60.2722 L 148.022,-59.5515 L 148.288,-58.8127 L 148.507,-58.0586 L 148.679,-57.2923
 L 148.801,-56.5167 L 148.875,-55.7349 L 148.9,-54.95 L 148.875,-54.1651 L 148.801,-53.3833 L 148.679,-52.6077
 L 148.507,-51.8414 L 148.288,-51.0873 L 148.022,-50.3484 L 147.71,-49.6277 L 147.354,-48.9281 L 146.954,-48.2522
 L 146.513,-47.6027 L 146.031,-46.9822 L 145.512,-46.3932 L 144.957,-45.8379 L 144.368,-45.3186 L 143.747,-44.8373
 L 143.098,-44.3959 L 142.422,-43.9962 L 141.722,-43.6396 L 141.002,-43.3278 L 140.263,-43.0618 L 139.509,-42.8427
 L 138.742,-42.6714 L 137.967,-42.5486 L 137.185,-42.4747 L 136.4,-42.45 z
M 14.2151,-39.2247 L 13.4333,-39.2986 L 12.6577,-39.4214 L 11.8914,-39.5927 L 11.1373,-39.8118 L 10.3984,-40.0778
 L 9.67775,-40.3896 L 8.97807,-40.7462 L 8.30215,-41.1459 L 7.65268,-41.5873 L 7.0322,-42.0686 L 6.44316,-42.5879
 L 5.88788,-43.1432 L 5.36858,-43.7322 L 4.88728,-44.3527 L 4.44589,-45.0022 L 4.04616,-45.6781 L 3.68965,-46.3777
 L 3.37779,-47.0984 L 3.11179,-47.8373 L 2.8927,-48.5914 L 2.72141,-49.3577 L 2.59856,-50.1333 L 2.52466,-50.9151
 L 2.5,-51.7 L 2.52466,-52.4849 L 2.59856,-53.2667 L 2.72141,-54.0423 L 2.8927,-54.8086 L 3.11179,-55.5627
 L 3.37779,-56.3015 L 3.68965,-57.0222 L 4.04616,-57.7219 L 4.44589,-58.3978 L 4.88728,-59.0473 L 5.36858,-59.6678
 L 5.88788,-60.2568 L 6.44316,-60.8121 L 7.0322,-61.3314 L 7.65268,-61.8127 L 8.30215,-62.2541 L 8.97807,-62.6538
 L 9.67775,-63.0103 L 10.3984,-63.3222 L 11.1373,-63.5882 L 11.8914,-63.8073 L 12.6577,-63.9786 L 13.4333,-64.1014
 L 14.2151,-64.1753 L 15,-64.2 L 15.7849,-64.1753 L 16.5667,-64.1014 L 17.3423,-63.9786 L 18.1086,-63.8073
 L 18.8627,-63.5882 L 19.6015,-63.3222 L 20.3222,-63.0103 L 21.0219,-62.6538 L 21.6978,-62.2541 L 22.3473,-61.8127
 L 22.9678,-61.3314 L 23.5568,-60.8121 L 24.1121,-60.2568 L 24.6314,-59.6678 L 25.1127,-59.0473 L 25.5541,-58.3978
 L 25.9538,-57.7219 L 26.3103,-57.0222 L 26.6222,-56.3015 L 26.8882,-55.5627 L 27.1073,-54.8086 L 27.2786,-54.0423
 L 27.4014,-53.2667 L 27.4753,-52.4849 L 27.5,-51.7 L 27.4753,-50.9151 L 27.4014,-50.1333 L 27.2786,-49.3577
 L 27.1073,-48.5914 L 26.8882,-47.8373 L 26.6222,-47.0984 L 26.3103,-46.3777 L 25.9538,-45.6781 L 25.5541,-45.0022
 L 25.1127,-44.3527 L 24.6314,-43.7322 L 24.1121,-43.1432 L 23.5568,-42.5879 L 22.9678,-42.0686 L 22.3473,-41.5873
 L 21.6978,-41.1459 L 21.0219,-40.7462 L 20.3222,-40.3896 L 19.6015,-40.0778 L 18.8627,-39.8118 L 18.1086,-39.5927
 L 17.3423,-39.4214 L 16.5667,-39.2986 L 15.7849,-39.2247 L 15,-39.2 z
M 106.715,-37.2097 L 105.933,-37.2836 L 105.158,-37.4064 L 104.391,-37.5777 L 103.637,-37.7968 L 102.898,-38.0628
 L 102.178,-38.3746 L 101.478,-38.7312 L 100.802,-39.1309 L 100.153,-39.5723 L 99.5322,-40.0536 L 98.9432,-40.5729
 L 98.3879,-41.1282 L 97.8686,-41.7172 L 97.3873,-42.3377 L 96.9459,-42.9872 L 96.5462,-43.6631 L 96.1897,-44.3627
 L 95.8778,-45.0834 L 95.6118,-45.8223 L 95.3927,-46.5764 L 95.2214,-47.3427 L 95.0986,-48.1183 L 95.0247,-48.9001
 L 95,-49.685 L 95.0247,-50.4699 L 95.0986,-51.2517 L 95.2214,-52.0273 L 95.3927,-52.7936 L 95.6118,-53.5477
 L 95.8778,-54.2865 L 96.1897,-55.0072 L 96.5462,-55.7069 L 96.9459,-56.3828 L 97.3873,-57.0323 L 97.8686,-57.6528
 L 98.3879,-58.2418 L 98.9432,-58.7971 L 99.5322,-59.3164 L 100.153,-59.7977 L 100.802,-60.2391 L 101.478,-60.6388
 L 102.178,-60.9953 L 102.898,-61.3072 L 103.637,-61.5732 L 104.391,-61.7923 L 105.158,-61.9636 L 105.933,-62.0864
 L 106.715,-62.1603 L 107.5,-62.185 L 108.285,-62.1603 L 109.067,-62.0864 L 109.842,-61.9636 L 110.609,-61.7923
 L 111.363,-61.5732 L 112.102,-61.3072 L 112.822,-60.9953 L 113.522,-60.6388 L 114.198,-60.2391 L 114.847,-59.7977
 L 115.468,-59.3164 L 116.057,-58.7971 L 116.612,-58.2418 L 117.131,-57.6528 L 117.613,-57.0323 L 118.054,-56.3828
 L 118.454,-55.7069 L 118.81,-55.0072 L 119.122,-54.2865 L 119.388,-53.5477 L 119.607,-52.7936 L 119.779,-52.0273
 L 119.901,-51.2517 L 119.975,-50.4699 L 120,-49.685 L 119.975,-48.9001 L 119.901,-48.1183 L 119.779,-47.3427
 L 119.607,-46.5764 L 119.388,-45.8223 L 119.122,-45.0834 L 118.81,-44.3627 L 118.454,-43.6631 L 118.054,-42.9872
 L 117.613,-42.3377 L 117.131,-41.7172 L 116.612,-41.1282 L 116.057,-40.5729 L 115.468,-40.0536 L 114.847,-39.5723
 L 114.198,-39.1309 L 113.522,-38.7312 L 112.822,-38.3746 L 112.102,-38.0628 L 111.363,-37.7968 L 110.609,-37.5777
 L 109.842,-37.4064 L 109.067,-37.2836 L 108.285,-37.2097 L 107.5,-37.185 z
M 125.715,-15.3247 L 124.933,-15.3986 L 124.158,-15.5214 L 123.391,-15.6927 L 122.637,-15.9118 L 121.898,-16.1778
 L 121.178,-16.4897 L 120.478,-16.8462 L 119.802,-17.2459 L 119.153,-17.6873 L 118.532,-18.1686 L 117.943,-18.6879
 L 117.388,-19.2431 L 116.869,-19.8322 L 116.387,-20.4527 L 115.946,-21.1022 L 115.546,-21.7781 L 115.19,-22.4778
 L 114.878,-23.1984 L 114.612,-23.9373 L 114.393,-24.6914 L 114.221,-25.4577 L 114.099,-26.2333 L 114.025,-27.0151
 L 114,-27.8 L 114.025,-28.5849 L 114.099,-29.3667 L 114.221,-30.1423 L 114.393,-30.9086 L 114.612,-31.6627
 L 114.878,-32.4016 L 115.19,-33.1222 L 115.546,-33.8219 L 115.946,-34.4978 L 116.387,-35.1473 L 116.869,-35.7678
 L 117.388,-36.3568 L 117.943,-36.9121 L 118.532,-37.4314 L 119.153,-37.9127 L 119.802,-38.3541 L 120.478,-38.7538
 L 121.178,-39.1103 L 121.898,-39.4222 L 122.637,-39.6882 L 123.391,-39.9073 L 124.158,-40.0786 L 124.933,-40.2014
 L 125.715,-40.2753 L 126.5,-40.3 L 127.285,-40.2753 L 128.067,-40.2014 L 128.842,-40.0786 L 129.609,-39.9073
 L 130.363,-39.6882 L 131.102,-39.4222 L 131.822,-39.1103 L 132.522,-38.7538 L 133.198,-38.3541 L 133.847,-37.9127
 L 134.468,-37.4314 L 135.057,-36.9121 L 135.612,-36.3568 L 136.131,-35.7678 L 136.613,-35.1473 L 137.054,-34.4978
 L 137.454,-33.8219 L 137.81,-33.1222 L 138.122,-32.4016 L 138.388,-31.6627 L 138.607,-30.9086 L 138.779,-30.1423
 L 138.901,-29.3667 L 138.975,-28.5849 L 139,-27.8 L 138.975,-27.0151 L 138.901,-26.2333 L 138.779,-25.4577
 L 138.607,-24.6914 L 138.388,-23.9373 L 138.122,-23.1984 L 137.81,-22.4778 L 137.454,-21.7781 L 137.054,-21.1022
 L 136.613,-20.4527 L 136.131,-19.8322 L 135.612,-19.2431 L 135.057,-18.6879 L 134.468,-18.1686 L 133.847,-17.6873
 L 133.198,-17.2459 L 132.522,-16.8462 L 131.822,-16.4897 L 131.102,-16.1778 L 130.363,-15.9118 L 129.609,-15.6927
 L 128.842,-15.5214 L 128.067,-15.3986 L 127.285,-15.3247 L 126.5,-15.3 z
M 95.6209,-5.22762 L 94.7453,-5.31038 L 93.8766,-5.44797 L 93.0183,-5.63983 L 92.1738,-5.88521 L 91.3463,-6.18312
 L 90.5391,-6.53241 L 89.7554,-6.9317 L 88.9984,-7.37939 L 88.271,-7.87375 L 87.576,-8.41281 L 86.9163,-8.99443
 L 86.2944,-9.61633 L 85.7128,-10.2761 L 85.1738,-10.971 L 84.6794,-11.6984 L 84.2317,-12.4554 L 83.8324,-13.2391
 L 83.4831,-14.0462 L 83.1852,-14.8737 L 82.9398,-15.7183 L 82.748,-16.5767 L 82.6104,-17.4453 L 82.5276,-18.3209
 L 82.5,-19.2 L 82.5276,-20.0791 L 82.6104,-20.9547 L 82.748,-21.8233 L 82.9398,-22.6817 L 83.1852,-23.5262
 L 83.4831,-24.3537 L 83.8324,-25.1609 L 84.2317,-25.9445 L 84.6794,-26.7016 L 85.1738,-27.429 L 85.7128,-28.1239
 L 86.2944,-28.7836 L 86.9163,-29.4055 L 87.576,-29.9872 L 88.271,-30.5262 L 88.9984,-31.0206 L 89.7554,-31.4683
 L 90.5391,-31.8676 L 91.3463,-32.2169 L 92.1738,-32.5148 L 93.0183,-32.7602 L 93.8766,-32.952 L 94.7453,-33.0896
 L 95.6209,-33.1724 L 96.5,-33.2 L 97.3791,-33.1724 L 98.2547,-33.0896 L 99.1233,-32.952 L 99.9816,-32.7602
 L 100.826,-32.5148 L 101.654,-32.2169 L 102.461,-31.8676 L 103.245,-31.4683 L 104.002,-31.0206 L 104.729,-30.5262
 L 105.424,-29.9872 L 106.084,-29.4055 L 106.706,-28.7836 L 107.287,-28.1239 L 107.826,-27.429 L 108.321,-26.7016
 L 108.768,-25.9445 L 109.168,-25.1609 L 109.517,-24.3537 L 109.815,-23.5262 L 110.06,-22.6817 L 110.252,-21.8233
 L 110.39,-20.9547 L 110.472,-20.0791 L 110.5,-19.2 L 110.472,-18.3209 L 110.39,-17.4453 L 110.252,-16.5767
 L 110.06,-15.7183 L 109.815,-14.8737 L 109.517,-14.0462 L 109.168,-13.2391 L 108.768,-12.4554 L 108.321,-11.6984
 L 107.826,-10.971 L 107.287,-10.2761 L 106.706,-9.61633 L 106.084,-8.99443 L 105.424,-8.41281 L 104.729,-7.87375
 L 104.002,-7.37939 L 103.245,-6.9317 L 102.461,-6.53241 L 101.654,-6.18312 L 100.826,-5.88521 L 99.9816,-5.63983
 L 99.1233,-5.44797 L 98.2547,-5.31038 L 97.3791,-5.22762 L 96.5,-5.2 z
M 9.42905,-6.37222 L 9.35837,-6.37891 L 9.28825,-6.39001 L 9.21898,-6.40549 L 9.1508,-6.42529 L 9.08401,-6.44934
 L 9.01886,-6.47754 L 8.95561,-6.50977 L 8.8945,-6.5459 L 8.8358,-6.5858 L 8.77971,-6.62932 L 8.72646,-6.67625
 L 8.67625,-6.72646 L 8.62932,-6.77971 L 8.5858,-6.8358 L 8.5459,-6.8945 L 8.50977,-6.95561 L 8.47754,-7.01886
 L 8.44934,-7.08401 L 8.42529,-7.1508 L 8.40549,-7.21898 L 8.39001,-7.28825 L 8.37891,-7.35837 L 8.37222,-7.42905
 L 8.37,-7.5 L 8.37222,-7.57094 L 8.37891,-7.64162 L 8.39001,-7.71173 L 8.40549,-7.78101 L 8.42529,-7.84918
 L 8.44934,-7.91597 L 8.47754,-7.98112 L 8.50977,-8.04437 L 8.5459,-8.10548 L 8.5858,-8.16418 L 8.62932,-8.22028
 L 8.67625,-8.27353 L 8.72646,-8.32373 L 8.77971,-8.37067 L 8.8358,-8.41418 L 8.8945,-8.45409 L 8.95561,-8.49022
 L 9.01886,-8.52245 L 9.08401,-8.55064 L 9.1508,-8.57469 L 9.21898,-8.5945 L 9.28825,-8.60997 L 9.35837,-8.62108
 L 9.42905,-8.62776 L 9.5,-8.62999 L 9.57094,-8.62776 L 9.64162,-8.62108 L 9.71173,-8.60997 L 9.78101,-8.5945
 L 9.84918,-8.57469 L 9.91597,-8.55064 L 9.98112,-8.52245 L 10.0444,-8.49022 L 10.1055,-8.45409 L 10.1642,-8.41418
 L 10.2203,-8.37067 L 10.2735,-8.32373 L 10.3237,-8.27353 L 10.3707,-8.22028 L 10.4142,-8.16418 L 10.4541,-8.10548
 L 10.4902,-8.04437 L 10.5224,-7.98112 L 10.5506,-7.91597 L 10.5747,-7.84918 L 10.5945,-7.78101 L 10.61,-7.71173
 L 10.6211,-7.64162 L 10.6278,-7.57094 L 10.63,-7.5 L 10.6278,-7.42905 L 10.6211,-7.35837 L 10.61,-7.28825
 L 10.5945,-7.21898 L 10.5747,-7.1508 L 10.5506,-7.08401 L 10.5224,-7.01886 L 10.4902,-6.95561 L 10.4541,-6.8945
 L 10.4142,-6.8358 L 10.3707,-6.77971 L 10.3237,-6.72646 L 10.2735,-6.67625 L 10.2203,-6.62932 L 10.1642,-6.5858
 L 10.1055,-6.5459 L 10.0444,-6.50977 L 9.98112,-6.47754 L 9.91597,-6.44934 L 9.84918,-6.42529 L 9.78101,-6.40549
 L 9.71173,-6.39001 L 9.64162,-6.37891 L 9.57094,-6.37222 L 9.5,-6.37 z
M 194.429,-6.37222 L 194.358,-6.37891 L 194.288,-6.39001 L 194.219,-6.40549 L 194.151,-6.42529 L 194.084,-6.44934
 L 194.019,-6.47754 L 193.956,-6.50977 L 193.895,-6.5459 L 193.836,-6.5858 L 193.78,-6.62932 L 193.726,-6.67625
 L 193.676,-6.72646 L 193.629,-6.77971 L 193.586,-6.8358 L 193.546,-6.8945 L 193.51,-6.95561 L 193.478,-7.01886
 L 193.449,-7.08401 L 193.425,-7.1508 L 193.405,-7.21898 L 193.39,-7.28825 L 193.379,-7.35837 L 193.372,-7.42905
 L 193.37,-7.5 L 193.372,-7.57094 L 193.379,-7.64162 L 193.39,-7.71173 L 193.405,-7.78101 L 193.425,-7.84918
 L 193.449,-7.91597 L 193.478,-7.98112 L 193.51,-8.04437 L 193.546,-8.10548 L 193.586,-8.16418 L 193.629,-8.22028
 L 193.676,-8.27353 L 193.726,-8.32373 L 193.78,-8.37067 L 193.836,-8.41418 L 193.895,-8.45409 L 193.956,-8.49022
 L 194.019,-8.52245 L 194.084,-8.55064 L 194.151,-8.57469 L 194.219,-8.5945 L 194.288,-8.60997 L 194.358,-8.62108
 L 194.429,-8.62776 L 194.5,-8.62999 L 194.571,-8.62776 L 194.642,-8.62108 L 194.712,-8.60997 L 194.781,-8.5945
 L 194.849,-8.57469 L 194.916,-8.55064 L 194.981,-8.52245 L 195.044,-8.49022 L 195.105,-8.45409 L 195.164,-8.41418
 L 195.22,-8.37067 L 195.274,-8.32373 L 195.324,-8.27353 L 195.371,-8.22028 L 195.414,-8.16418 L 195.454,-8.10548
 L 195.49,-8.04437 L 195.522,-7.98112 L 195.551,-7.91597 L 195.575,-7.84918 L 195.594,-7.78101 L 195.61,-7.71173
 L 195.621,-7.64162 L 195.628,-7.57094 L 195.63,-7.5 L 195.628,-7.42905 L 195.621,-7.35837 L 195.61,-7.28825
 L 195.594,-7.21898 L 195.575,-7.1508 L 195.551,-7.08401 L 195.522,-7.01886 L 195.49,-6.95561 L 195.454,-6.8945
 L 195.414,-6.8358 L 195.371,-6.77971 L 195.324,-6.72646 L 195.274,-6.67625 L 195.22,-6.62932 L 195.164,-6.5858
 L 195.105,-6.5459 L 195.044,-6.50977 L 194.981,-6.47754 L 194.916,-6.44934 L 194.849,-6.42529 L 194.781,-6.40549
 L 194.712,-6.39001 L 194.642,-6.37891 L 194.571,-6.37222 L 194.5,-6.37 z
M 114.429,-6.37222 L 114.358,-6.37891 L 114.288,-6.39001 L 114.219,-6.40549 L 114.151,-6.42529 L 114.084,-6.44934
 L 114.019,-6.47754 L 113.956,-6.50977 L 113.895,-6.5459 L 113.836,-6.5858 L 113.78,-6.62932 L 113.726,-6.67625
 L 113.676,-6.72646 L 113.629,-6.77971 L 113.586,-6.8358 L 113.546,-6.8945 L 113.51,-6.95561 L 113.478,-7.01886
 L 113.449,-7.08401 L 113.425,-7.1508 L 113.405,-7.21898 L 113.39,-7.28825 L 113.379,-7.35837 L 113.372,-7.42905
 L 113.37,-7.5 L 113.372,-7.57094 L 113.379,-7.64162 L 113.39,-7.71173 L 113.405,-7.78101 L 113.425,-7.84918
 L 113.449,-7.91597 L 113.478,-7.98112 L 113.51,-8.04437 L 113.546,-8.10548 L 113.586,-8.16418 L 113.629,-8.22028
 L 113.676,-8.27353 L 113.726,-8.32373 L 113.78,-8.37067 L 113.836,-8.41418 L 113.895,-8.45409 L 113.956,-8.49022
 L 114.019,-8.52245 L 114.084,-8.55064 L 114.151,-8.57469 L 114.219,-8.5945 L 114.288,-8.60997 L 114.358,-8.62108
 L 114.429,-8.62776 L 114.5,-8.62999 L 114.571,-8.62776 L 114.642,-8.62108 L 114.712,-8.60997 L 114.781,-8.5945
 L 114.849,-8.57469 L 114.916,-8.55064 L 114.981,-8.52245 L 115.044,-8.49022 L 115.105,-8.45409 L 115.164,-8.41418
 L 115.22,-8.37067 L 115.274,-8.32373 L 115.324,-8.27353 L 115.371,-8.22028 L 115.414,-8.16418 L 115.454,-8.10548
 L 115.49,-8.04437 L 115.522,-7.98112 L 115.551,-7.91597 L 115.575,-7.84918 L 115.594,-7.78101 L 115.61,-7.71173
 L 115.621,-7.64162 L 115.628,-7.57094 L 115.63,-7.5 L 115.628,-7.42905 L 115.621,-7.35837 L 115.61,-7.28825
 L 115.594,-7.21898 L 115.575,-7.1508 L 115.551,-7.08401 L 115.522,-7.01886 L 115.49,-6.95561 L 115.454,-6.8945
 L 115.414,-6.8358 L 115.371,-6.77971 L 115.324,-6.72646 L 115.274,-6.67625 L 115.22,-6.62932 L 115.164,-6.5858
 L 115.105,-6.5459 L 115.044,-6.50977 L 114.981,-6.47754 L 114.916,-6.44934 L 114.849,-6.42529 L 114.781,-6.40549
 L 114.712,-6.39001 L 114.642,-6.37891 L 114.571,-6.37222 L 114.5,-6.37 z
" stroke="black" fill="lightgray" stroke-width="0.5"/>
</svg>
