<?xml version="1.0" standalone="no"?>
 <!DOCTYPE svg PUBLIC "-//W3C//DTD SVG 1.1//EN" 
 "http://www.w3.org/Graphics/SVG/1.1/DTD/svg11.dtd"> 
<svg
  xmlns:svg="http://www.w3.org/2000/svg"
  xmlns="http://www.w3.org/2000/svg"
  xmlns:xlink="http://www.w3.org/1999/xlink"
  version="1.1"
  width="297.0022mm" height="210.0072mm" viewBox="0.0000 0.0000 297.0022 210.0072">
<title>SVG Image created as keychron_hitbox-B_Silkscreen.svg date 2024/11/05 03:02:33 </title>
  <desc>Image generated by PCBNEW </desc>
<g style="fill:#000000; fill-opacity:1.0000;stroke:#000000; stroke-opacity:1.0000;
stroke-linecap:round; stroke-linejoin:round;"
 transform="translate(0 0) scale(1 1)">
</g>
<g style="fill:none; 
stroke:#000000; stroke-width:0.1500; stroke-opacity:1; 
stroke-linecap:round; stroke-linejoin:round;">
<path d="M177.0022 166.0072
L285.0022 166.0072
L285.0022 198.0072
L177.0022 198.0072
L177.0022 166.0072
" />
</g>
<g style="fill:none; 
stroke:#000000; stroke-width:0.1500; stroke-opacity:1; 
stroke-linecap:round; stroke-linejoin:round;">
<path d="M10.0000 10.0000
L287.0022 10.0000
L287.0022 200.0072
L10.0000 200.0072
L10.0000 10.0000
" />
</g>
<g style="fill:none; 
stroke:#000000; stroke-width:0.1500; stroke-opacity:1; 
stroke-linecap:round; stroke-linejoin:round;">
<path d="M12.0000 12.0000
L285.0022 12.0000
L285.0022 198.0072
L12.0000 198.0072
L12.0000 12.0000
" />
</g>
<g style="fill:none; 
stroke:#000000; stroke-width:0.1500; stroke-opacity:1; 
stroke-linecap:round; stroke-linejoin:round;">
<path d="M60.0000 12.0000
L60.0000 10.0000
" />
</g>
<g style="fill:none; 
stroke:#000000; stroke-width:0.1500; stroke-opacity:1; 
stroke-linecap:round; stroke-linejoin:round;">
<path d="M110.0000 12.0000
L110.0000 10.0000
" />
</g>
<g style="fill:none; 
stroke:#000000; stroke-width:0.1500; stroke-opacity:1; 
stroke-linecap:round; stroke-linejoin:round;">
<path d="M160.0000 12.0000
L160.0000 10.0000
" />
</g>
<g style="fill:none; 
stroke:#000000; stroke-width:0.1500; stroke-opacity:1; 
stroke-linecap:round; stroke-linejoin:round;">
<path d="M210.0000 12.0000
L210.0000 10.0000
" />
</g>
<g style="fill:none; 
stroke:#000000; stroke-width:0.1500; stroke-opacity:1; 
stroke-linecap:round; stroke-linejoin:round;">
<path d="M260.0000 12.0000
L260.0000 10.0000
" />
</g>
<g style="fill:none; 
stroke:#000000; stroke-width:0.1500; stroke-opacity:1; 
stroke-linecap:round; stroke-linejoin:round;">
<text x="35.0000" y="11.6500"
textLength="1.4281" font-size="1.7333" lengthAdjust="spacingAndGlyphs"
text-anchor="start" opacity="0" stroke-opacity="0">1</text>
<g class="stroked-text"><desc>1</desc>
<path d="M36.0892 11.5936
L35.3463 11.5936
" />
<path d="M35.7177 11.5936
L35.7177 10.2936
" />
<path d="M35.7177 10.2936
L35.5939 10.4793
" />
<path d="M35.5939 10.4793
L35.4701 10.6031
" />
<path d="M35.4701 10.6031
L35.3463 10.6650
" />
</g></g>
<g style="fill:none; 
stroke:#000000; stroke-width:0.1500; stroke-opacity:1; 
stroke-linecap:round; stroke-linejoin:round;">
<text x="85.0000" y="11.6500"
textLength="1.4281" font-size="1.7333" lengthAdjust="spacingAndGlyphs"
text-anchor="start" opacity="0" stroke-opacity="0">2</text>
<g class="stroked-text"><desc>2</desc>
<path d="M85.3463 10.4174
L85.4082 10.3555
" />
<path d="M85.4082 10.3555
L85.5320 10.2936
" />
<path d="M85.5320 10.2936
L85.8415 10.2936
" />
<path d="M85.8415 10.2936
L85.9654 10.3555
" />
<path d="M85.9654 10.3555
L86.0273 10.4174
" />
<path d="M86.0273 10.4174
L86.0892 10.5412
" />
<path d="M86.0892 10.5412
L86.0892 10.6650
" />
<path d="M86.0892 10.6650
L86.0273 10.8507
" />
<path d="M86.0273 10.8507
L85.2844 11.5936
" />
<path d="M85.2844 11.5936
L86.0892 11.5936
" />
</g></g>
<g style="fill:none; 
stroke:#000000; stroke-width:0.1500; stroke-opacity:1; 
stroke-linecap:round; stroke-linejoin:round;">
<text x="135.0000" y="11.6500"
textLength="1.4281" font-size="1.7333" lengthAdjust="spacingAndGlyphs"
text-anchor="start" opacity="0" stroke-opacity="0">3</text>
<g class="stroked-text"><desc>3</desc>
<path d="M135.2844 10.2936
L136.0892 10.2936
" />
<path d="M136.0892 10.2936
L135.6558 10.7888
" />
<path d="M135.6558 10.7888
L135.8415 10.7888
" />
<path d="M135.8415 10.7888
L135.9654 10.8507
" />
<path d="M135.9654 10.8507
L136.0273 10.9127
" />
<path d="M136.0273 10.9127
L136.0892 11.0365
" />
<path d="M136.0892 11.0365
L136.0892 11.3460
" />
<path d="M136.0892 11.3460
L136.0273 11.4698
" />
<path d="M136.0273 11.4698
L135.9654 11.5317
" />
<path d="M135.9654 11.5317
L135.8415 11.5936
" />
<path d="M135.8415 11.5936
L135.4701 11.5936
" />
<path d="M135.4701 11.5936
L135.3463 11.5317
" />
<path d="M135.3463 11.5317
L135.2844 11.4698
" />
</g></g>
<g style="fill:none; 
stroke:#000000; stroke-width:0.1500; stroke-opacity:1; 
stroke-linecap:round; stroke-linejoin:round;">
<text x="185.0000" y="11.6500"
textLength="1.4281" font-size="1.7333" lengthAdjust="spacingAndGlyphs"
text-anchor="start" opacity="0" stroke-opacity="0">4</text>
<g class="stroked-text"><desc>4</desc>
<path d="M185.9654 10.7269
L185.9654 11.5936
" />
<path d="M185.6558 10.2317
L185.3463 11.1603
" />
<path d="M185.3463 11.1603
L186.1511 11.1603
" />
</g></g>
<g style="fill:none; 
stroke:#000000; stroke-width:0.1500; stroke-opacity:1; 
stroke-linecap:round; stroke-linejoin:round;">
<text x="235.0000" y="11.6500"
textLength="1.4281" font-size="1.7333" lengthAdjust="spacingAndGlyphs"
text-anchor="start" opacity="0" stroke-opacity="0">5</text>
<g class="stroked-text"><desc>5</desc>
<path d="M236.0273 10.2936
L235.4082 10.2936
" />
<path d="M235.4082 10.2936
L235.3463 10.9127
" />
<path d="M235.3463 10.9127
L235.4082 10.8507
" />
<path d="M235.4082 10.8507
L235.5320 10.7888
" />
<path d="M235.5320 10.7888
L235.8415 10.7888
" />
<path d="M235.8415 10.7888
L235.9654 10.8507
" />
<path d="M235.9654 10.8507
L236.0273 10.9127
" />
<path d="M236.0273 10.9127
L236.0892 11.0365
" />
<path d="M236.0892 11.0365
L236.0892 11.3460
" />
<path d="M236.0892 11.3460
L236.0273 11.4698
" />
<path d="M236.0273 11.4698
L235.9654 11.5317
" />
<path d="M235.9654 11.5317
L235.8415 11.5936
" />
<path d="M235.8415 11.5936
L235.5320 11.5936
" />
<path d="M235.5320 11.5936
L235.4082 11.5317
" />
<path d="M235.4082 11.5317
L235.3463 11.4698
" />
</g></g>
<g style="fill:none; 
stroke:#000000; stroke-width:0.1500; stroke-opacity:1; 
stroke-linecap:round; stroke-linejoin:round;">
<text x="285.0000" y="11.6500"
textLength="1.4281" font-size="1.7333" lengthAdjust="spacingAndGlyphs"
text-anchor="start" opacity="0" stroke-opacity="0">6</text>
<g class="stroked-text"><desc>6</desc>
<path d="M285.9654 10.2936
L285.7177 10.2936
" />
<path d="M285.7177 10.2936
L285.5939 10.3555
" />
<path d="M285.5939 10.3555
L285.5320 10.4174
" />
<path d="M285.5320 10.4174
L285.4082 10.6031
" />
<path d="M285.4082 10.6031
L285.3463 10.8507
" />
<path d="M285.3463 10.8507
L285.3463 11.3460
" />
<path d="M285.3463 11.3460
L285.4082 11.4698
" />
<path d="M285.4082 11.4698
L285.4701 11.5317
" />
<path d="M285.4701 11.5317
L285.5939 11.5936
" />
<path d="M285.5939 11.5936
L285.8415 11.5936
" />
<path d="M285.8415 11.5936
L285.9654 11.5317
" />
<path d="M285.9654 11.5317
L286.0273 11.4698
" />
<path d="M286.0273 11.4698
L286.0892 11.3460
" />
<path d="M286.0892 11.3460
L286.0892 11.0365
" />
<path d="M286.0892 11.0365
L286.0273 10.9127
" />
<path d="M286.0273 10.9127
L285.9654 10.8507
" />
<path d="M285.9654 10.8507
L285.8415 10.7888
" />
<path d="M285.8415 10.7888
L285.5939 10.7888
" />
<path d="M285.5939 10.7888
L285.4701 10.8507
" />
<path d="M285.4701 10.8507
L285.4082 10.9127
" />
<path d="M285.4082 10.9127
L285.3463 11.0365
" />
</g></g>
<g style="fill:none; 
stroke:#000000; stroke-width:0.1500; stroke-opacity:1; 
stroke-linecap:round; stroke-linejoin:round;">
<path d="M60.0000 198.0072
L60.0000 200.0072
" />
</g>
<g style="fill:none; 
stroke:#000000; stroke-width:0.1500; stroke-opacity:1; 
stroke-linecap:round; stroke-linejoin:round;">
<path d="M110.0000 198.0072
L110.0000 200.0072
" />
</g>
<g style="fill:none; 
stroke:#000000; stroke-width:0.1500; stroke-opacity:1; 
stroke-linecap:round; stroke-linejoin:round;">
<path d="M160.0000 198.0072
L160.0000 200.0072
" />
</g>
<g style="fill:none; 
stroke:#000000; stroke-width:0.1500; stroke-opacity:1; 
stroke-linecap:round; stroke-linejoin:round;">
<path d="M210.0000 198.0072
L210.0000 200.0072
" />
</g>
<g style="fill:none; 
stroke:#000000; stroke-width:0.1500; stroke-opacity:1; 
stroke-linecap:round; stroke-linejoin:round;">
<path d="M260.0000 198.0072
L260.0000 200.0072
" />
</g>
<g style="fill:none; 
stroke:#000000; stroke-width:0.1500; stroke-opacity:1; 
stroke-linecap:round; stroke-linejoin:round;">
<text x="35.0000" y="199.6572"
textLength="1.4281" font-size="1.7333" lengthAdjust="spacingAndGlyphs"
text-anchor="start" opacity="0" stroke-opacity="0">1</text>
<g class="stroked-text"><desc>1</desc>
<path d="M36.0892 199.6008
L35.3463 199.6008
" />
<path d="M35.7177 199.6008
L35.7177 198.3008
" />
<path d="M35.7177 198.3008
L35.5939 198.4865
" />
<path d="M35.5939 198.4865
L35.4701 198.6103
" />
<path d="M35.4701 198.6103
L35.3463 198.6722
" />
</g></g>
<g style="fill:none; 
stroke:#000000; stroke-width:0.1500; stroke-opacity:1; 
stroke-linecap:round; stroke-linejoin:round;">
<text x="85.0000" y="199.6572"
textLength="1.4281" font-size="1.7333" lengthAdjust="spacingAndGlyphs"
text-anchor="start" opacity="0" stroke-opacity="0">2</text>
<g class="stroked-text"><desc>2</desc>
<path d="M85.3463 198.4246
L85.4082 198.3627
" />
<path d="M85.4082 198.3627
L85.5320 198.3008
" />
<path d="M85.5320 198.3008
L85.8415 198.3008
" />
<path d="M85.8415 198.3008
L85.9654 198.3627
" />
<path d="M85.9654 198.3627
L86.0273 198.4246
" />
<path d="M86.0273 198.4246
L86.0892 198.5484
" />
<path d="M86.0892 198.5484
L86.0892 198.6722
" />
<path d="M86.0892 198.6722
L86.0273 198.8579
" />
<path d="M86.0273 198.8579
L85.2844 199.6008
" />
<path d="M85.2844 199.6008
L86.0892 199.6008
" />
</g></g>
<g style="fill:none; 
stroke:#000000; stroke-width:0.1500; stroke-opacity:1; 
stroke-linecap:round; stroke-linejoin:round;">
<text x="135.0000" y="199.6572"
textLength="1.4281" font-size="1.7333" lengthAdjust="spacingAndGlyphs"
text-anchor="start" opacity="0" stroke-opacity="0">3</text>
<g class="stroked-text"><desc>3</desc>
<path d="M135.2844 198.3008
L136.0892 198.3008
" />
<path d="M136.0892 198.3008
L135.6558 198.7960
" />
<path d="M135.6558 198.7960
L135.8415 198.7960
" />
<path d="M135.8415 198.7960
L135.9654 198.8579
" />
<path d="M135.9654 198.8579
L136.0273 198.9199
" />
<path d="M136.0273 198.9199
L136.0892 199.0437
" />
<path d="M136.0892 199.0437
L136.0892 199.3532
" />
<path d="M136.0892 199.3532
L136.0273 199.4770
" />
<path d="M136.0273 199.4770
L135.9654 199.5389
" />
<path d="M135.9654 199.5389
L135.8415 199.6008
" />
<path d="M135.8415 199.6008
L135.4701 199.6008
" />
<path d="M135.4701 199.6008
L135.3463 199.5389
" />
<path d="M135.3463 199.5389
L135.2844 199.4770
" />
</g></g>
<g style="fill:none; 
stroke:#000000; stroke-width:0.1500; stroke-opacity:1; 
stroke-linecap:round; stroke-linejoin:round;">
<text x="185.0000" y="199.6572"
textLength="1.4281" font-size="1.7333" lengthAdjust="spacingAndGlyphs"
text-anchor="start" opacity="0" stroke-opacity="0">4</text>
<g class="stroked-text"><desc>4</desc>
<path d="M185.9654 198.7341
L185.9654 199.6008
" />
<path d="M185.6558 198.2389
L185.3463 199.1675
" />
<path d="M185.3463 199.1675
L186.1511 199.1675
" />
</g></g>
<g style="fill:none; 
stroke:#000000; stroke-width:0.1500; stroke-opacity:1; 
stroke-linecap:round; stroke-linejoin:round;">
<text x="235.0000" y="199.6572"
textLength="1.4281" font-size="1.7333" lengthAdjust="spacingAndGlyphs"
text-anchor="start" opacity="0" stroke-opacity="0">5</text>
<g class="stroked-text"><desc>5</desc>
<path d="M236.0273 198.3008
L235.4082 198.3008
" />
<path d="M235.4082 198.3008
L235.3463 198.9199
" />
<path d="M235.3463 198.9199
L235.4082 198.8579
" />
<path d="M235.4082 198.8579
L235.5320 198.7960
" />
<path d="M235.5320 198.7960
L235.8415 198.7960
" />
<path d="M235.8415 198.7960
L235.9654 198.8579
" />
<path d="M235.9654 198.8579
L236.0273 198.9199
" />
<path d="M236.0273 198.9199
L236.0892 199.0437
" />
<path d="M236.0892 199.0437
L236.0892 199.3532
" />
<path d="M236.0892 199.3532
L236.0273 199.4770
" />
<path d="M236.0273 199.4770
L235.9654 199.5389
" />
<path d="M235.9654 199.5389
L235.8415 199.6008
" />
<path d="M235.8415 199.6008
L235.5320 199.6008
" />
<path d="M235.5320 199.6008
L235.4082 199.5389
" />
<path d="M235.4082 199.5389
L235.3463 199.4770
" />
</g></g>
<g style="fill:none; 
stroke:#000000; stroke-width:0.1500; stroke-opacity:1; 
stroke-linecap:round; stroke-linejoin:round;">
<text x="285.0000" y="199.6572"
textLength="1.4281" font-size="1.7333" lengthAdjust="spacingAndGlyphs"
text-anchor="start" opacity="0" stroke-opacity="0">6</text>
<g class="stroked-text"><desc>6</desc>
<path d="M285.9654 198.3008
L285.7177 198.3008
" />
<path d="M285.7177 198.3008
L285.5939 198.3627
" />
<path d="M285.5939 198.3627
L285.5320 198.4246
" />
<path d="M285.5320 198.4246
L285.4082 198.6103
" />
<path d="M285.4082 198.6103
L285.3463 198.8579
" />
<path d="M285.3463 198.8579
L285.3463 199.3532
" />
<path d="M285.3463 199.3532
L285.4082 199.4770
" />
<path d="M285.4082 199.4770
L285.4701 199.5389
" />
<path d="M285.4701 199.5389
L285.5939 199.6008
" />
<path d="M285.5939 199.6008
L285.8415 199.6008
" />
<path d="M285.8415 199.6008
L285.9654 199.5389
" />
<path d="M285.9654 199.5389
L286.0273 199.4770
" />
<path d="M286.0273 199.4770
L286.0892 199.3532
" />
<path d="M286.0892 199.3532
L286.0892 199.0437
" />
<path d="M286.0892 199.0437
L286.0273 198.9199
" />
<path d="M286.0273 198.9199
L285.9654 198.8579
" />
<path d="M285.9654 198.8579
L285.8415 198.7960
" />
<path d="M285.8415 198.7960
L285.5939 198.7960
" />
<path d="M285.5939 198.7960
L285.4701 198.8579
" />
<path d="M285.4701 198.8579
L285.4082 198.9199
" />
<path d="M285.4082 198.9199
L285.3463 199.0437
" />
</g></g>
<g style="fill:none; 
stroke:#000000; stroke-width:0.1500; stroke-opacity:1; 
stroke-linecap:round; stroke-linejoin:round;">
<path d="M10.0000 60.0000
L12.0000 60.0000
" />
</g>
<g style="fill:none; 
stroke:#000000; stroke-width:0.1500; stroke-opacity:1; 
stroke-linecap:round; stroke-linejoin:round;">
<path d="M10.0000 110.0000
L12.0000 110.0000
" />
</g>
<g style="fill:none; 
stroke:#000000; stroke-width:0.1500; stroke-opacity:1; 
stroke-linecap:round; stroke-linejoin:round;">
<path d="M10.0000 160.0000
L12.0000 160.0000
" />
</g>
<g style="fill:none; 
stroke:#000000; stroke-width:0.1500; stroke-opacity:1; 
stroke-linecap:round; stroke-linejoin:round;">
<text x="11.0000" y="35.6500"
textLength="1.3043" font-size="1.7333" lengthAdjust="spacingAndGlyphs"
text-anchor="middle" opacity="0" stroke-opacity="0">A</text>
<g class="stroked-text"><desc>A</desc>
<path d="M10.6905 35.2222
L11.3095 35.2222
" />
<path d="M10.5667 35.5936
L11.0000 34.2936
" />
<path d="M11.0000 34.2936
L11.4333 35.5936
" />
</g></g>
<g style="fill:none; 
stroke:#000000; stroke-width:0.1500; stroke-opacity:1; 
stroke-linecap:round; stroke-linejoin:round;">
<text x="11.0000" y="85.6500"
textLength="1.4900" font-size="1.7333" lengthAdjust="spacingAndGlyphs"
text-anchor="middle" opacity="0" stroke-opacity="0">B</text>
<g class="stroked-text"><desc>B</desc>
<path d="M11.0929 84.9127
L11.2786 84.9746
" />
<path d="M11.2786 84.9746
L11.3405 85.0365
" />
<path d="M11.3405 85.0365
L11.4024 85.1603
" />
<path d="M11.4024 85.1603
L11.4024 85.3460
" />
<path d="M11.4024 85.3460
L11.3405 85.4698
" />
<path d="M11.3405 85.4698
L11.2786 85.5317
" />
<path d="M11.2786 85.5317
L11.1548 85.5936
" />
<path d="M11.1548 85.5936
L10.6595 85.5936
" />
<path d="M10.6595 85.5936
L10.6595 84.2936
" />
<path d="M10.6595 84.2936
L11.0929 84.2936
" />
<path d="M11.0929 84.2936
L11.2167 84.3555
" />
<path d="M11.2167 84.3555
L11.2786 84.4174
" />
<path d="M11.2786 84.4174
L11.3405 84.5412
" />
<path d="M11.3405 84.5412
L11.3405 84.6650
" />
<path d="M11.3405 84.6650
L11.2786 84.7888
" />
<path d="M11.2786 84.7888
L11.2167 84.8507
" />
<path d="M11.2167 84.8507
L11.0929 84.9127
" />
<path d="M11.0929 84.9127
L10.6595 84.9127
" />
</g></g>
<g style="fill:none; 
stroke:#000000; stroke-width:0.1500; stroke-opacity:1; 
stroke-linecap:round; stroke-linejoin:round;">
<text x="11.0000" y="135.6500"
textLength="1.4900" font-size="1.7333" lengthAdjust="spacingAndGlyphs"
text-anchor="middle" opacity="0" stroke-opacity="0">C</text>
<g class="stroked-text"><desc>C</desc>
<path d="M11.4024 135.4698
L11.3405 135.5317
" />
<path d="M11.3405 135.5317
L11.1548 135.5936
" />
<path d="M11.1548 135.5936
L11.0310 135.5936
" />
<path d="M11.0310 135.5936
L10.8452 135.5317
" />
<path d="M10.8452 135.5317
L10.7214 135.4079
" />
<path d="M10.7214 135.4079
L10.6595 135.2841
" />
<path d="M10.6595 135.2841
L10.5976 135.0365
" />
<path d="M10.5976 135.0365
L10.5976 134.8507
" />
<path d="M10.5976 134.8507
L10.6595 134.6031
" />
<path d="M10.6595 134.6031
L10.7214 134.4793
" />
<path d="M10.7214 134.4793
L10.8452 134.3555
" />
<path d="M10.8452 134.3555
L11.0310 134.2936
" />
<path d="M11.0310 134.2936
L11.1548 134.2936
" />
<path d="M11.1548 134.2936
L11.3405 134.3555
" />
<path d="M11.3405 134.3555
L11.4024 134.4174
" />
</g></g>
<g style="fill:none; 
stroke:#000000; stroke-width:0.1500; stroke-opacity:1; 
stroke-linecap:round; stroke-linejoin:round;">
<text x="11.0000" y="185.6500"
textLength="1.4900" font-size="1.7333" lengthAdjust="spacingAndGlyphs"
text-anchor="middle" opacity="0" stroke-opacity="0">D</text>
<g class="stroked-text"><desc>D</desc>
<path d="M10.6595 185.5936
L10.6595 184.2936
" />
<path d="M10.6595 184.2936
L10.9690 184.2936
" />
<path d="M10.9690 184.2936
L11.1548 184.3555
" />
<path d="M11.1548 184.3555
L11.2786 184.4793
" />
<path d="M11.2786 184.4793
L11.3405 184.6031
" />
<path d="M11.3405 184.6031
L11.4024 184.8507
" />
<path d="M11.4024 184.8507
L11.4024 185.0365
" />
<path d="M11.4024 185.0365
L11.3405 185.2841
" />
<path d="M11.3405 185.2841
L11.2786 185.4079
" />
<path d="M11.2786 185.4079
L11.1548 185.5317
" />
<path d="M11.1548 185.5317
L10.9690 185.5936
" />
<path d="M10.9690 185.5936
L10.6595 185.5936
" />
</g></g>
<g style="fill:none; 
stroke:#000000; stroke-width:0.1500; stroke-opacity:1; 
stroke-linecap:round; stroke-linejoin:round;">
<path d="M287.0022 60.0000
L285.0022 60.0000
" />
</g>
<g style="fill:none; 
stroke:#000000; stroke-width:0.1500; stroke-opacity:1; 
stroke-linecap:round; stroke-linejoin:round;">
<path d="M287.0022 110.0000
L285.0022 110.0000
" />
</g>
<g style="fill:none; 
stroke:#000000; stroke-width:0.1500; stroke-opacity:1; 
stroke-linecap:round; stroke-linejoin:round;">
<path d="M287.0022 160.0000
L285.0022 160.0000
" />
</g>
<g style="fill:none; 
stroke:#000000; stroke-width:0.1500; stroke-opacity:1; 
stroke-linecap:round; stroke-linejoin:round;">
<text x="286.0022" y="35.6500"
textLength="1.3043" font-size="1.7333" lengthAdjust="spacingAndGlyphs"
text-anchor="middle" opacity="0" stroke-opacity="0">A</text>
<g class="stroked-text"><desc>A</desc>
<path d="M285.6927 35.2222
L286.3117 35.2222
" />
<path d="M285.5689 35.5936
L286.0022 34.2936
" />
<path d="M286.0022 34.2936
L286.4355 35.5936
" />
</g></g>
<g style="fill:none; 
stroke:#000000; stroke-width:0.1500; stroke-opacity:1; 
stroke-linecap:round; stroke-linejoin:round;">
<text x="286.0022" y="85.6500"
textLength="1.4900" font-size="1.7333" lengthAdjust="spacingAndGlyphs"
text-anchor="middle" opacity="0" stroke-opacity="0">B</text>
<g class="stroked-text"><desc>B</desc>
<path d="M286.0951 84.9127
L286.2808 84.9746
" />
<path d="M286.2808 84.9746
L286.3427 85.0365
" />
<path d="M286.3427 85.0365
L286.4046 85.1603
" />
<path d="M286.4046 85.1603
L286.4046 85.3460
" />
<path d="M286.4046 85.3460
L286.3427 85.4698
" />
<path d="M286.3427 85.4698
L286.2808 85.5317
" />
<path d="M286.2808 85.5317
L286.1570 85.5936
" />
<path d="M286.1570 85.5936
L285.6617 85.5936
" />
<path d="M285.6617 85.5936
L285.6617 84.2936
" />
<path d="M285.6617 84.2936
L286.0951 84.2936
" />
<path d="M286.0951 84.2936
L286.2189 84.3555
" />
<path d="M286.2189 84.3555
L286.2808 84.4174
" />
<path d="M286.2808 84.4174
L286.3427 84.5412
" />
<path d="M286.3427 84.5412
L286.3427 84.6650
" />
<path d="M286.3427 84.6650
L286.2808 84.7888
" />
<path d="M286.2808 84.7888
L286.2189 84.8507
" />
<path d="M286.2189 84.8507
L286.0951 84.9127
" />
<path d="M286.0951 84.9127
L285.6617 84.9127
" />
</g></g>
<g style="fill:none; 
stroke:#000000; stroke-width:0.1500; stroke-opacity:1; 
stroke-linecap:round; stroke-linejoin:round;">
<text x="286.0022" y="135.6500"
textLength="1.4900" font-size="1.7333" lengthAdjust="spacingAndGlyphs"
text-anchor="middle" opacity="0" stroke-opacity="0">C</text>
<g class="stroked-text"><desc>C</desc>
<path d="M286.4046 135.4698
L286.3427 135.5317
" />
<path d="M286.3427 135.5317
L286.1570 135.5936
" />
<path d="M286.1570 135.5936
L286.0332 135.5936
" />
<path d="M286.0332 135.5936
L285.8474 135.5317
" />
<path d="M285.8474 135.5317
L285.7236 135.4079
" />
<path d="M285.7236 135.4079
L285.6617 135.2841
" />
<path d="M285.6617 135.2841
L285.5998 135.0365
" />
<path d="M285.5998 135.0365
L285.5998 134.8507
" />
<path d="M285.5998 134.8507
L285.6617 134.6031
" />
<path d="M285.6617 134.6031
L285.7236 134.4793
" />
<path d="M285.7236 134.4793
L285.8474 134.3555
" />
<path d="M285.8474 134.3555
L286.0332 134.2936
" />
<path d="M286.0332 134.2936
L286.1570 134.2936
" />
<path d="M286.1570 134.2936
L286.3427 134.3555
" />
<path d="M286.3427 134.3555
L286.4046 134.4174
" />
</g></g>
<g style="fill:none; 
stroke:#000000; stroke-width:0.1500; stroke-opacity:1; 
stroke-linecap:round; stroke-linejoin:round;">
<text x="286.0022" y="185.6500"
textLength="1.4900" font-size="1.7333" lengthAdjust="spacingAndGlyphs"
text-anchor="middle" opacity="0" stroke-opacity="0">D</text>
<g class="stroked-text"><desc>D</desc>
<path d="M285.6617 185.5936
L285.6617 184.2936
" />
<path d="M285.6617 184.2936
L285.9712 184.2936
" />
<path d="M285.9712 184.2936
L286.1570 184.3555
" />
<path d="M286.1570 184.3555
L286.2808 184.4793
" />
<path d="M286.2808 184.4793
L286.3427 184.6031
" />
<path d="M286.3427 184.6031
L286.4046 184.8507
" />
<path d="M286.4046 184.8507
L286.4046 185.0365
" />
<path d="M286.4046 185.0365
L286.3427 185.2841
" />
<path d="M286.3427 185.2841
L286.2808 185.4079
" />
<path d="M286.2808 185.4079
L286.1570 185.5317
" />
<path d="M286.1570 185.5317
L285.9712 185.5936
" />
<path d="M285.9712 185.5936
L285.6617 185.5936
" />
</g></g>
<g style="fill:none; 
stroke:#000000; stroke-width:0.1500; stroke-opacity:1; 
stroke-linecap:round; stroke-linejoin:round;">
<text x="200.0022" y="193.8572"
textLength="7.0071" font-size="2.0000" lengthAdjust="spacingAndGlyphs"
text-anchor="start" opacity="0" stroke-opacity="0">Date: </text>
<g class="stroked-text"><desc>Date: </desc>
<path d="M200.4580 193.7933
L200.4580 192.2933
" />
<path d="M200.4580 192.2933
L200.8152 192.2933
" />
<path d="M200.8152 192.2933
L201.0295 192.3648
" />
<path d="M201.0295 192.3648
L201.1723 192.5076
" />
<path d="M201.1723 192.5076
L201.2437 192.6505
" />
<path d="M201.2437 192.6505
L201.3152 192.9362
" />
<path d="M201.3152 192.9362
L201.3152 193.1505
" />
<path d="M201.3152 193.1505
L201.2437 193.4362
" />
<path d="M201.2437 193.4362
L201.1723 193.5790
" />
<path d="M201.1723 193.5790
L201.0295 193.7219
" />
<path d="M201.0295 193.7219
L200.8152 193.7933
" />
<path d="M200.8152 193.7933
L200.4580 193.7933
" />
<path d="M202.6009 193.7933
L202.6009 193.0076
" />
<path d="M202.6009 193.0076
L202.5295 192.8648
" />
<path d="M202.5295 192.8648
L202.3866 192.7933
" />
<path d="M202.3866 192.7933
L202.1009 192.7933
" />
<path d="M202.1009 192.7933
L201.9580 192.8648
" />
<path d="M202.6009 193.7219
L202.4580 193.7933
" />
<path d="M202.4580 193.7933
L202.1009 193.7933
" />
<path d="M202.1009 193.7933
L201.9580 193.7219
" />
<path d="M201.9580 193.7219
L201.8866 193.5790
" />
<path d="M201.8866 193.5790
L201.8866 193.4362
" />
<path d="M201.8866 193.4362
L201.9580 193.2933
" />
<path d="M201.9580 193.2933
L202.1009 193.2219
" />
<path d="M202.1009 193.2219
L202.4580 193.2219
" />
<path d="M202.4580 193.2219
L202.6009 193.1505
" />
<path d="M203.1009 192.7933
L203.6723 192.7933
" />
<path d="M203.3152 192.2933
L203.3152 193.5790
" />
<path d="M203.3152 193.5790
L203.3866 193.7219
" />
<path d="M203.3866 193.7219
L203.5295 193.7933
" />
<path d="M203.5295 193.7933
L203.6723 193.7933
" />
<path d="M204.7437 193.7219
L204.6009 193.7933
" />
<path d="M204.6009 193.7933
L204.3152 193.7933
" />
<path d="M204.3152 193.7933
L204.1723 193.7219
" />
<path d="M204.1723 193.7219
L204.1009 193.5790
" />
<path d="M204.1009 193.5790
L204.1009 193.0076
" />
<path d="M204.1009 193.0076
L204.1723 192.8648
" />
<path d="M204.1723 192.8648
L204.3152 192.7933
" />
<path d="M204.3152 192.7933
L204.6009 192.7933
" />
<path d="M204.6009 192.7933
L204.7437 192.8648
" />
<path d="M204.7437 192.8648
L204.8152 193.0076
" />
<path d="M204.8152 193.0076
L204.8152 193.1505
" />
<path d="M204.8152 193.1505
L204.1009 193.2933
" />
<path d="M205.4580 193.6505
L205.5295 193.7219
" />
<path d="M205.5295 193.7219
L205.4580 193.7933
" />
<path d="M205.4580 193.7933
L205.3866 193.7219
" />
<path d="M205.3866 193.7219
L205.4580 193.6505
" />
<path d="M205.4580 193.6505
L205.4580 193.7933
" />
<path d="M205.4580 192.8648
L205.5295 192.9362
" />
<path d="M205.5295 192.9362
L205.4580 193.0076
" />
<path d="M205.4580 193.0076
L205.3866 192.9362
" />
<path d="M205.3866 192.9362
L205.4580 192.8648
" />
<path d="M205.4580 192.8648
L205.4580 193.0076
" />
</g></g>
<g style="fill:none; 
stroke:#000000; stroke-width:0.1500; stroke-opacity:1; 
stroke-linecap:round; stroke-linejoin:round;">
<path d="M177.0022 194.5072
L285.0022 194.5072
" />
</g>
<g style="fill:none; 
stroke:#000000; stroke-width:0.1500; stroke-opacity:1; 
stroke-linecap:round; stroke-linejoin:round;">
<text x="178.0022" y="196.6572"
textLength="20.8643" font-size="2.0000" lengthAdjust="spacingAndGlyphs"
text-anchor="start" opacity="0" stroke-opacity="0">KiCad E.D.A. 8.0.6</text>
<g class="stroked-text"><desc>KiCad E.D.A. 8.0.6</desc>
<path d="M178.4580 196.5933
L178.4580 195.0933
" />
<path d="M179.3152 196.5933
L178.6723 195.7362
" />
<path d="M179.3152 195.0933
L178.4580 195.9505
" />
<path d="M179.9580 196.5933
L179.9580 195.5933
" />
<path d="M179.9580 195.0933
L179.8866 195.1648
" />
<path d="M179.8866 195.1648
L179.9580 195.2362
" />
<path d="M179.9580 195.2362
L180.0295 195.1648
" />
<path d="M180.0295 195.1648
L179.9580 195.0933
" />
<path d="M179.9580 195.0933
L179.9580 195.2362
" />
<path d="M181.5295 196.4505
L181.4580 196.5219
" />
<path d="M181.4580 196.5219
L181.2437 196.5933
" />
<path d="M181.2437 196.5933
L181.1009 196.5933
" />
<path d="M181.1009 196.5933
L180.8866 196.5219
" />
<path d="M180.8866 196.5219
L180.7437 196.3790
" />
<path d="M180.7437 196.3790
L180.6723 196.2362
" />
<path d="M180.6723 196.2362
L180.6009 195.9505
" />
<path d="M180.6009 195.9505
L180.6009 195.7362
" />
<path d="M180.6009 195.7362
L180.6723 195.4505
" />
<path d="M180.6723 195.4505
L180.7437 195.3076
" />
<path d="M180.7437 195.3076
L180.8866 195.1648
" />
<path d="M180.8866 195.1648
L181.1009 195.0933
" />
<path d="M181.1009 195.0933
L181.2437 195.0933
" />
<path d="M181.2437 195.0933
L181.4580 195.1648
" />
<path d="M181.4580 195.1648
L181.5295 195.2362
" />
<path d="M182.8152 196.5933
L182.8152 195.8076
" />
<path d="M182.8152 195.8076
L182.7437 195.6648
" />
<path d="M182.7437 195.6648
L182.6009 195.5933
" />
<path d="M182.6009 195.5933
L182.3152 195.5933
" />
<path d="M182.3152 195.5933
L182.1723 195.6648
" />
<path d="M182.8152 196.5219
L182.6723 196.5933
" />
<path d="M182.6723 196.5933
L182.3152 196.5933
" />
<path d="M182.3152 196.5933
L182.1723 196.5219
" />
<path d="M182.1723 196.5219
L182.1009 196.3790
" />
<path d="M182.1009 196.3790
L182.1009 196.2362
" />
<path d="M182.1009 196.2362
L182.1723 196.0933
" />
<path d="M182.1723 196.0933
L182.3152 196.0219
" />
<path d="M182.3152 196.0219
L182.6723 196.0219
" />
<path d="M182.6723 196.0219
L182.8152 195.9505
" />
<path d="M184.1723 196.5933
L184.1723 195.0933
" />
<path d="M184.1723 196.5219
L184.0295 196.5933
" />
<path d="M184.0295 196.5933
L183.7437 196.5933
" />
<path d="M183.7437 196.5933
L183.6009 196.5219
" />
<path d="M183.6009 196.5219
L183.5295 196.4505
" />
<path d="M183.5295 196.4505
L183.4580 196.3076
" />
<path d="M183.4580 196.3076
L183.4580 195.8790
" />
<path d="M183.4580 195.8790
L183.5295 195.7362
" />
<path d="M183.5295 195.7362
L183.6009 195.6648
" />
<path d="M183.6009 195.6648
L183.7437 195.5933
" />
<path d="M183.7437 195.5933
L184.0295 195.5933
" />
<path d="M184.0295 195.5933
L184.1723 195.6648
" />
<path d="M186.0295 195.8076
L186.5295 195.8076
" />
<path d="M186.7437 196.5933
L186.0295 196.5933
" />
<path d="M186.0295 196.5933
L186.0295 195.0933
" />
<path d="M186.0295 195.0933
L186.7437 195.0933
" />
<path d="M187.3866 196.4505
L187.4580 196.5219
" />
<path d="M187.4580 196.5219
L187.3866 196.5933
" />
<path d="M187.3866 196.5933
L187.3152 196.5219
" />
<path d="M187.3152 196.5219
L187.3866 196.4505
" />
<path d="M187.3866 196.4505
L187.3866 196.5933
" />
<path d="M188.1009 196.5933
L188.1009 195.0933
" />
<path d="M188.1009 195.0933
L188.4580 195.0933
" />
<path d="M188.4580 195.0933
L188.6723 195.1648
" />
<path d="M188.6723 195.1648
L188.8152 195.3076
" />
<path d="M188.8152 195.3076
L188.8866 195.4505
" />
<path d="M188.8866 195.4505
L188.9580 195.7362
" />
<path d="M188.9580 195.7362
L188.9580 195.9505
" />
<path d="M188.9580 195.9505
L188.8866 196.2362
" />
<path d="M188.8866 196.2362
L188.8152 196.3790
" />
<path d="M188.8152 196.3790
L188.6723 196.5219
" />
<path d="M188.6723 196.5219
L188.4580 196.5933
" />
<path d="M188.4580 196.5933
L188.1009 196.5933
" />
<path d="M189.6009 196.4505
L189.6723 196.5219
" />
<path d="M189.6723 196.5219
L189.6009 196.5933
" />
<path d="M189.6009 196.5933
L189.5295 196.5219
" />
<path d="M189.5295 196.5219
L189.6009 196.4505
" />
<path d="M189.6009 196.4505
L189.6009 196.5933
" />
<path d="M190.2437 196.1648
L190.9580 196.1648
" />
<path d="M190.1009 196.5933
L190.6009 195.0933
" />
<path d="M190.6009 195.0933
L191.1009 196.5933
" />
<path d="M191.6009 196.4505
L191.6723 196.5219
" />
<path d="M191.6723 196.5219
L191.6009 196.5933
" />
<path d="M191.6009 196.5933
L191.5295 196.5219
" />
<path d="M191.5295 196.5219
L191.6009 196.4505
" />
<path d="M191.6009 196.4505
L191.6009 196.5933
" />
<path d="M193.6723 195.7362
L193.5295 195.6648
" />
<path d="M193.5295 195.6648
L193.4580 195.5933
" />
<path d="M193.4580 195.5933
L193.3866 195.4505
" />
<path d="M193.3866 195.4505
L193.3866 195.3790
" />
<path d="M193.3866 195.3790
L193.4580 195.2362
" />
<path d="M193.4580 195.2362
L193.5295 195.1648
" />
<path d="M193.5295 195.1648
L193.6723 195.0933
" />
<path d="M193.6723 195.0933
L193.9580 195.0933
" />
<path d="M193.9580 195.0933
L194.1009 195.1648
" />
<path d="M194.1009 195.1648
L194.1723 195.2362
" />
<path d="M194.1723 195.2362
L194.2437 195.3790
" />
<path d="M194.2437 195.3790
L194.2437 195.4505
" />
<path d="M194.2437 195.4505
L194.1723 195.5933
" />
<path d="M194.1723 195.5933
L194.1009 195.6648
" />
<path d="M194.1009 195.6648
L193.9580 195.7362
" />
<path d="M193.9580 195.7362
L193.6723 195.7362
" />
<path d="M193.6723 195.7362
L193.5295 195.8076
" />
<path d="M193.5295 195.8076
L193.4580 195.8790
" />
<path d="M193.4580 195.8790
L193.3866 196.0219
" />
<path d="M193.3866 196.0219
L193.3866 196.3076
" />
<path d="M193.3866 196.3076
L193.4580 196.4505
" />
<path d="M193.4580 196.4505
L193.5295 196.5219
" />
<path d="M193.5295 196.5219
L193.6723 196.5933
" />
<path d="M193.6723 196.5933
L193.9580 196.5933
" />
<path d="M193.9580 196.5933
L194.1009 196.5219
" />
<path d="M194.1009 196.5219
L194.1723 196.4505
" />
<path d="M194.1723 196.4505
L194.2437 196.3076
" />
<path d="M194.2437 196.3076
L194.2437 196.0219
" />
<path d="M194.2437 196.0219
L194.1723 195.8790
" />
<path d="M194.1723 195.8790
L194.1009 195.8076
" />
<path d="M194.1009 195.8076
L193.9580 195.7362
" />
<path d="M194.8866 196.4505
L194.9580 196.5219
" />
<path d="M194.9580 196.5219
L194.8866 196.5933
" />
<path d="M194.8866 196.5933
L194.8152 196.5219
" />
<path d="M194.8152 196.5219
L194.8866 196.4505
" />
<path d="M194.8866 196.4505
L194.8866 196.5933
" />
<path d="M195.8866 195.0933
L196.0295 195.0933
" />
<path d="M196.0295 195.0933
L196.1723 195.1648
" />
<path d="M196.1723 195.1648
L196.2437 195.2362
" />
<path d="M196.2437 195.2362
L196.3152 195.3790
" />
<path d="M196.3152 195.3790
L196.3866 195.6648
" />
<path d="M196.3866 195.6648
L196.3866 196.0219
" />
<path d="M196.3866 196.0219
L196.3152 196.3076
" />
<path d="M196.3152 196.3076
L196.2437 196.4505
" />
<path d="M196.2437 196.4505
L196.1723 196.5219
" />
<path d="M196.1723 196.5219
L196.0295 196.5933
" />
<path d="M196.0295 196.5933
L195.8866 196.5933
" />
<path d="M195.8866 196.5933
L195.7437 196.5219
" />
<path d="M195.7437 196.5219
L195.6723 196.4505
" />
<path d="M195.6723 196.4505
L195.6009 196.3076
" />
<path d="M195.6009 196.3076
L195.5295 196.0219
" />
<path d="M195.5295 196.0219
L195.5295 195.6648
" />
<path d="M195.5295 195.6648
L195.6009 195.3790
" />
<path d="M195.6009 195.3790
L195.6723 195.2362
" />
<path d="M195.6723 195.2362
L195.7437 195.1648
" />
<path d="M195.7437 195.1648
L195.8866 195.0933
" />
<path d="M197.0295 196.4505
L197.1009 196.5219
" />
<path d="M197.1009 196.5219
L197.0295 196.5933
" />
<path d="M197.0295 196.5933
L196.9580 196.5219
" />
<path d="M196.9580 196.5219
L197.0295 196.4505
" />
<path d="M197.0295 196.4505
L197.0295 196.5933
" />
<path d="M198.3866 195.0933
L198.1009 195.0933
" />
<path d="M198.1009 195.0933
L197.9580 195.1648
" />
<path d="M197.9580 195.1648
L197.8866 195.2362
" />
<path d="M197.8866 195.2362
L197.7437 195.4505
" />
<path d="M197.7437 195.4505
L197.6723 195.7362
" />
<path d="M197.6723 195.7362
L197.6723 196.3076
" />
<path d="M197.6723 196.3076
L197.7437 196.4505
" />
<path d="M197.7437 196.4505
L197.8152 196.5219
" />
<path d="M197.8152 196.5219
L197.9580 196.5933
" />
<path d="M197.9580 196.5933
L198.2437 196.5933
" />
<path d="M198.2437 196.5933
L198.3866 196.5219
" />
<path d="M198.3866 196.5219
L198.4580 196.4505
" />
<path d="M198.4580 196.4505
L198.5295 196.3076
" />
<path d="M198.5295 196.3076
L198.5295 195.9505
" />
<path d="M198.5295 195.9505
L198.4580 195.8076
" />
<path d="M198.4580 195.8076
L198.3866 195.7362
" />
<path d="M198.3866 195.7362
L198.2437 195.6648
" />
<path d="M198.2437 195.6648
L197.9580 195.6648
" />
<path d="M197.9580 195.6648
L197.8152 195.7362
" />
<path d="M197.8152 195.7362
L197.7437 195.8076
" />
<path d="M197.7437 195.8076
L197.6723 195.9505
" />
</g></g>
<g style="fill:none; 
stroke:#000000; stroke-width:0.1500; stroke-opacity:1; 
stroke-linecap:round; stroke-linejoin:round;">
<path d="M177.0022 191.5072
L285.0022 191.5072
" />
</g>
<g style="fill:none; 
stroke:#000000; stroke-width:0.3000; stroke-opacity:1; 
stroke-linecap:round; stroke-linejoin:round;">
<text x="263.0022" y="193.8572"
textLength="6.3857" font-size="2.0000" lengthAdjust="spacingAndGlyphs"
text-anchor="start" opacity="0" stroke-opacity="0">Rev: </text>
<g class="stroked-text"><desc>Rev: </desc>
<path d="M264.4139 193.7855
L263.9139 193.0712
" />
<path d="M263.5567 193.7855
L263.5567 192.2855
" />
<path d="M263.5567 192.2855
L264.1281 192.2855
" />
<path d="M264.1281 192.2855
L264.2710 192.3570
" />
<path d="M264.2710 192.3570
L264.3424 192.4284
" />
<path d="M264.3424 192.4284
L264.4139 192.5712
" />
<path d="M264.4139 192.5712
L264.4139 192.7855
" />
<path d="M264.4139 192.7855
L264.3424 192.9284
" />
<path d="M264.3424 192.9284
L264.2710 192.9998
" />
<path d="M264.2710 192.9998
L264.1281 193.0712
" />
<path d="M264.1281 193.0712
L263.5567 193.0712
" />
<path d="M265.6281 193.7141
L265.4853 193.7855
" />
<path d="M265.4853 193.7855
L265.1996 193.7855
" />
<path d="M265.1996 193.7855
L265.0567 193.7141
" />
<path d="M265.0567 193.7141
L264.9853 193.5712
" />
<path d="M264.9853 193.5712
L264.9853 192.9998
" />
<path d="M264.9853 192.9998
L265.0567 192.8570
" />
<path d="M265.0567 192.8570
L265.1996 192.7855
" />
<path d="M265.1996 192.7855
L265.4853 192.7855
" />
<path d="M265.4853 192.7855
L265.6281 192.8570
" />
<path d="M265.6281 192.8570
L265.6996 192.9998
" />
<path d="M265.6996 192.9998
L265.6996 193.1427
" />
<path d="M265.6996 193.1427
L264.9853 193.2855
" />
<path d="M266.1996 192.7855
L266.5567 193.7855
" />
<path d="M266.5567 193.7855
L266.9139 192.7855
" />
<path d="M267.4853 193.6427
L267.5567 193.7141
" />
<path d="M267.5567 193.7141
L267.4853 193.7855
" />
<path d="M267.4853 193.7855
L267.4139 193.7141
" />
<path d="M267.4139 193.7141
L267.4853 193.6427
" />
<path d="M267.4853 193.6427
L267.4853 193.7855
" />
<path d="M267.4853 192.8570
L267.5567 192.9284
" />
<path d="M267.5567 192.9284
L267.4853 192.9998
" />
<path d="M267.4853 192.9998
L267.4139 192.9284
" />
<path d="M267.4139 192.9284
L267.4853 192.8570
" />
<path d="M267.4853 192.8570
L267.4853 192.9998
" />
</g></g>
<g style="fill:none; 
stroke:#000000; stroke-width:0.1500; stroke-opacity:1; 
stroke-linecap:round; stroke-linejoin:round;">
<text x="178.0022" y="193.8572"
textLength="9.3643" font-size="2.0000" lengthAdjust="spacingAndGlyphs"
text-anchor="start" opacity="0" stroke-opacity="0">Size: A4</text>
<g class="stroked-text"><desc>Size: A4</desc>
<path d="M178.3866 193.7219
L178.6009 193.7933
" />
<path d="M178.6009 193.7933
L178.9580 193.7933
" />
<path d="M178.9580 193.7933
L179.1009 193.7219
" />
<path d="M179.1009 193.7219
L179.1723 193.6505
" />
<path d="M179.1723 193.6505
L179.2437 193.5076
" />
<path d="M179.2437 193.5076
L179.2437 193.3648
" />
<path d="M179.2437 193.3648
L179.1723 193.2219
" />
<path d="M179.1723 193.2219
L179.1009 193.1505
" />
<path d="M179.1009 193.1505
L178.9580 193.0790
" />
<path d="M178.9580 193.0790
L178.6723 193.0076
" />
<path d="M178.6723 193.0076
L178.5295 192.9362
" />
<path d="M178.5295 192.9362
L178.4580 192.8648
" />
<path d="M178.4580 192.8648
L178.3866 192.7219
" />
<path d="M178.3866 192.7219
L178.3866 192.5790
" />
<path d="M178.3866 192.5790
L178.4580 192.4362
" />
<path d="M178.4580 192.4362
L178.5295 192.3648
" />
<path d="M178.5295 192.3648
L178.6723 192.2933
" />
<path d="M178.6723 192.2933
L179.0295 192.2933
" />
<path d="M179.0295 192.2933
L179.2437 192.3648
" />
<path d="M179.8866 193.7933
L179.8866 192.7933
" />
<path d="M179.8866 192.2933
L179.8152 192.3648
" />
<path d="M179.8152 192.3648
L179.8866 192.4362
" />
<path d="M179.8866 192.4362
L179.9580 192.3648
" />
<path d="M179.9580 192.3648
L179.8866 192.2933
" />
<path d="M179.8866 192.2933
L179.8866 192.4362
" />
<path d="M180.4580 192.7933
L181.2437 192.7933
" />
<path d="M181.2437 192.7933
L180.4580 193.7933
" />
<path d="M180.4580 193.7933
L181.2437 193.7933
" />
<path d="M182.3866 193.7219
L182.2437 193.7933
" />
<path d="M182.2437 193.7933
L181.9580 193.7933
" />
<path d="M181.9580 193.7933
L181.8152 193.7219
" />
<path d="M181.8152 193.7219
L181.7437 193.5790
" />
<path d="M181.7437 193.5790
L181.7437 193.0076
" />
<path d="M181.7437 193.0076
L181.8152 192.8648
" />
<path d="M181.8152 192.8648
L181.9580 192.7933
" />
<path d="M181.9580 192.7933
L182.2437 192.7933
" />
<path d="M182.2437 192.7933
L182.3866 192.8648
" />
<path d="M182.3866 192.8648
L182.4580 193.0076
" />
<path d="M182.4580 193.0076
L182.4580 193.1505
" />
<path d="M182.4580 193.1505
L181.7437 193.2933
" />
<path d="M183.1009 193.6505
L183.1723 193.7219
" />
<path d="M183.1723 193.7219
L183.1009 193.7933
" />
<path d="M183.1009 193.7933
L183.0295 193.7219
" />
<path d="M183.0295 193.7219
L183.1009 193.6505
" />
<path d="M183.1009 193.6505
L183.1009 193.7933
" />
<path d="M183.1009 192.8648
L183.1723 192.9362
" />
<path d="M183.1723 192.9362
L183.1009 193.0076
" />
<path d="M183.1009 193.0076
L183.0295 192.9362
" />
<path d="M183.0295 192.9362
L183.1009 192.8648
" />
<path d="M183.1009 192.8648
L183.1009 193.0076
" />
<path d="M184.8866 193.3648
L185.6009 193.3648
" />
<path d="M184.7437 193.7933
L185.2437 192.2933
" />
<path d="M185.2437 192.2933
L185.7437 193.7933
" />
<path d="M186.8866 192.7933
L186.8866 193.7933
" />
<path d="M186.5295 192.2219
L186.1723 193.2933
" />
<path d="M186.1723 193.2933
L187.1009 193.2933
" />
</g></g>
<g style="fill:none; 
stroke:#000000; stroke-width:0.1500; stroke-opacity:1; 
stroke-linecap:round; stroke-linejoin:round;">
<text x="263.0022" y="196.6572"
textLength="8.5071" font-size="2.0000" lengthAdjust="spacingAndGlyphs"
text-anchor="start" opacity="0" stroke-opacity="0">Id: 1/1</text>
<g class="stroked-text"><desc>Id: 1/1</desc>
<path d="M263.4580 196.5933
L263.4580 195.0933
" />
<path d="M264.8152 196.5933
L264.8152 195.0933
" />
<path d="M264.8152 196.5219
L264.6723 196.5933
" />
<path d="M264.6723 196.5933
L264.3866 196.5933
" />
<path d="M264.3866 196.5933
L264.2437 196.5219
" />
<path d="M264.2437 196.5219
L264.1723 196.4505
" />
<path d="M264.1723 196.4505
L264.1009 196.3076
" />
<path d="M264.1009 196.3076
L264.1009 195.8790
" />
<path d="M264.1009 195.8790
L264.1723 195.7362
" />
<path d="M264.1723 195.7362
L264.2437 195.6648
" />
<path d="M264.2437 195.6648
L264.3866 195.5933
" />
<path d="M264.3866 195.5933
L264.6723 195.5933
" />
<path d="M264.6723 195.5933
L264.8152 195.6648
" />
<path d="M265.5295 196.4505
L265.6009 196.5219
" />
<path d="M265.6009 196.5219
L265.5295 196.5933
" />
<path d="M265.5295 196.5933
L265.4580 196.5219
" />
<path d="M265.4580 196.5219
L265.5295 196.4505
" />
<path d="M265.5295 196.4505
L265.5295 196.5933
" />
<path d="M265.5295 195.6648
L265.6009 195.7362
" />
<path d="M265.6009 195.7362
L265.5295 195.8076
" />
<path d="M265.5295 195.8076
L265.4580 195.7362
" />
<path d="M265.4580 195.7362
L265.5295 195.6648
" />
<path d="M265.5295 195.6648
L265.5295 195.8076
" />
<path d="M268.1723 196.5933
L267.3152 196.5933
" />
<path d="M267.7437 196.5933
L267.7437 195.0933
" />
<path d="M267.7437 195.0933
L267.6009 195.3076
" />
<path d="M267.6009 195.3076
L267.4580 195.4505
" />
<path d="M267.4580 195.4505
L267.3152 195.5219
" />
<path d="M269.8866 195.0219
L268.6009 196.9505
" />
<path d="M271.1723 196.5933
L270.3152 196.5933
" />
<path d="M270.7437 196.5933
L270.7437 195.0933
" />
<path d="M270.7437 195.0933
L270.6009 195.3076
" />
<path d="M270.6009 195.3076
L270.4580 195.4505
" />
<path d="M270.4580 195.4505
L270.3152 195.5219
" />
</g></g>
<g style="fill:none; 
stroke:#000000; stroke-width:0.1500; stroke-opacity:1; 
stroke-linecap:round; stroke-linejoin:round;">
<path d="M177.0022 187.5072
L285.0022 187.5072
" />
</g>
<g style="fill:none; 
stroke:#000000; stroke-width:0.4000; stroke-opacity:1; 
stroke-linecap:round; stroke-linejoin:round;">
<text x="178.0022" y="190.3072"
textLength="9.6571" font-size="2.6667" lengthAdjust="spacingAndGlyphs"
text-anchor="start" opacity="0" stroke-opacity="0">Title: </text>
<g class="stroked-text"><desc>Title: </desc>
<path d="M178.6939 188.2116
L179.8368 188.2116
" />
<path d="M179.0154 190.2116
L179.2654 188.2116
" />
<path d="M180.2535 190.2116
L180.4201 188.8783
" />
<path d="M180.5035 188.2116
L180.3963 188.3069
" />
<path d="M180.3963 188.3069
L180.4796 188.4021
" />
<path d="M180.4796 188.4021
L180.5868 188.3069
" />
<path d="M180.5868 188.3069
L180.5035 188.2116
" />
<path d="M180.5035 188.2116
L180.4796 188.4021
" />
<path d="M181.0868 188.8783
L181.8487 188.8783
" />
<path d="M181.4558 188.2116
L181.2415 189.9259
" />
<path d="M181.2415 189.9259
L181.3130 190.1164
" />
<path d="M181.3130 190.1164
L181.4915 190.2116
" />
<path d="M181.4915 190.2116
L181.6820 190.2116
" />
<path d="M182.6344 190.2116
L182.4558 190.1164
" />
<path d="M182.4558 190.1164
L182.3844 189.9259
" />
<path d="M182.3844 189.9259
L182.5987 188.2116
" />
<path d="M184.1701 190.1164
L183.9677 190.2116
" />
<path d="M183.9677 190.2116
L183.5868 190.2116
" />
<path d="M183.5868 190.2116
L183.4082 190.1164
" />
<path d="M183.4082 190.1164
L183.3368 189.9259
" />
<path d="M183.3368 189.9259
L183.4320 189.1640
" />
<path d="M183.4320 189.1640
L183.5511 188.9735
" />
<path d="M183.5511 188.9735
L183.7535 188.8783
" />
<path d="M183.7535 188.8783
L184.1344 188.8783
" />
<path d="M184.1344 188.8783
L184.3130 188.9735
" />
<path d="M184.3130 188.9735
L184.3844 189.1640
" />
<path d="M184.3844 189.1640
L184.3606 189.3545
" />
<path d="M184.3606 189.3545
L183.3844 189.5450
" />
<path d="M185.1344 190.0212
L185.2177 190.1164
" />
<path d="M185.2177 190.1164
L185.1106 190.2116
" />
<path d="M185.1106 190.2116
L185.0273 190.1164
" />
<path d="M185.0273 190.1164
L185.1344 190.0212
" />
<path d="M185.1344 190.0212
L185.1106 190.2116
" />
<path d="M185.2654 188.9735
L185.3487 189.0688
" />
<path d="M185.3487 189.0688
L185.2415 189.1640
" />
<path d="M185.2415 189.1640
L185.1582 189.0688
" />
<path d="M185.1582 189.0688
L185.2654 188.9735
" />
<path d="M185.2654 188.9735
L185.2415 189.1640
" />
</g></g>
<g style="fill:none; 
stroke:#000000; stroke-width:0.1500; stroke-opacity:1; 
stroke-linecap:round; stroke-linejoin:round;">
<text x="178.0022" y="186.4572"
textLength="35.7929" font-size="2.0000" lengthAdjust="spacingAndGlyphs"
text-anchor="start" opacity="0" stroke-opacity="0">File: keychron_hitbox.kicad_pcb</text>
<g class="stroked-text"><desc>File: keychron_hitbox.kicad_pcb</desc>
<path d="M178.9580 185.6076
L178.4580 185.6076
" />
<path d="M178.4580 186.3933
L178.4580 184.8933
" />
<path d="M178.4580 184.8933
L179.1723 184.8933
" />
<path d="M179.7437 186.3933
L179.7437 185.3933
" />
<path d="M179.7437 184.8933
L179.6723 184.9648
" />
<path d="M179.6723 184.9648
L179.7437 185.0362
" />
<path d="M179.7437 185.0362
L179.8152 184.9648
" />
<path d="M179.8152 184.9648
L179.7437 184.8933
" />
<path d="M179.7437 184.8933
L179.7437 185.0362
" />
<path d="M180.6723 186.3933
L180.5295 186.3219
" />
<path d="M180.5295 186.3219
L180.4580 186.1790
" />
<path d="M180.4580 186.1790
L180.4580 184.8933
" />
<path d="M181.8152 186.3219
L181.6723 186.3933
" />
<path d="M181.6723 186.3933
L181.3866 186.3933
" />
<path d="M181.3866 186.3933
L181.2437 186.3219
" />
<path d="M181.2437 186.3219
L181.1723 186.1790
" />
<path d="M181.1723 186.1790
L181.1723 185.6076
" />
<path d="M181.1723 185.6076
L181.2437 185.4648
" />
<path d="M181.2437 185.4648
L181.3866 185.3933
" />
<path d="M181.3866 185.3933
L181.6723 185.3933
" />
<path d="M181.6723 185.3933
L181.8152 185.4648
" />
<path d="M181.8152 185.4648
L181.8866 185.6076
" />
<path d="M181.8866 185.6076
L181.8866 185.7505
" />
<path d="M181.8866 185.7505
L181.1723 185.8933
" />
<path d="M182.5295 186.2505
L182.6009 186.3219
" />
<path d="M182.6009 186.3219
L182.5295 186.3933
" />
<path d="M182.5295 186.3933
L182.4580 186.3219
" />
<path d="M182.4580 186.3219
L182.5295 186.2505
" />
<path d="M182.5295 186.2505
L182.5295 186.3933
" />
<path d="M182.5295 185.4648
L182.6009 185.5362
" />
<path d="M182.6009 185.5362
L182.5295 185.6076
" />
<path d="M182.5295 185.6076
L182.4580 185.5362
" />
<path d="M182.4580 185.5362
L182.5295 185.4648
" />
<path d="M182.5295 185.4648
L182.5295 185.6076
" />
<path d="M184.3866 186.3933
L184.3866 184.8933
" />
<path d="M184.5295 185.8219
L184.9580 186.3933
" />
<path d="M184.9580 185.3933
L184.3866 185.9648
" />
<path d="M186.1723 186.3219
L186.0295 186.3933
" />
<path d="M186.0295 186.3933
L185.7437 186.3933
" />
<path d="M185.7437 186.3933
L185.6009 186.3219
" />
<path d="M185.6009 186.3219
L185.5295 186.1790
" />
<path d="M185.5295 186.1790
L185.5295 185.6076
" />
<path d="M185.5295 185.6076
L185.6009 185.4648
" />
<path d="M185.6009 185.4648
L185.7437 185.3933
" />
<path d="M185.7437 185.3933
L186.0295 185.3933
" />
<path d="M186.0295 185.3933
L186.1723 185.4648
" />
<path d="M186.1723 185.4648
L186.2437 185.6076
" />
<path d="M186.2437 185.6076
L186.2437 185.7505
" />
<path d="M186.2437 185.7505
L185.5295 185.8933
" />
<path d="M186.7437 185.3933
L187.1009 186.3933
" />
<path d="M187.4580 185.3933
L187.1009 186.3933
" />
<path d="M187.1009 186.3933
L186.9580 186.7505
" />
<path d="M186.9580 186.7505
L186.8866 186.8219
" />
<path d="M186.8866 186.8219
L186.7437 186.8933
" />
<path d="M188.6723 186.3219
L188.5295 186.3933
" />
<path d="M188.5295 186.3933
L188.2437 186.3933
" />
<path d="M188.2437 186.3933
L188.1009 186.3219
" />
<path d="M188.1009 186.3219
L188.0295 186.2505
" />
<path d="M188.0295 186.2505
L187.9580 186.1076
" />
<path d="M187.9580 186.1076
L187.9580 185.6790
" />
<path d="M187.9580 185.6790
L188.0295 185.5362
" />
<path d="M188.0295 185.5362
L188.1009 185.4648
" />
<path d="M188.1009 185.4648
L188.2437 185.3933
" />
<path d="M188.2437 185.3933
L188.5295 185.3933
" />
<path d="M188.5295 185.3933
L188.6723 185.4648
" />
<path d="M189.3152 186.3933
L189.3152 184.8933
" />
<path d="M189.9580 186.3933
L189.9580 185.6076
" />
<path d="M189.9580 185.6076
L189.8866 185.4648
" />
<path d="M189.8866 185.4648
L189.7437 185.3933
" />
<path d="M189.7437 185.3933
L189.5295 185.3933
" />
<path d="M189.5295 185.3933
L189.3866 185.4648
" />
<path d="M189.3866 185.4648
L189.3152 185.5362
" />
<path d="M190.6723 186.3933
L190.6723 185.3933
" />
<path d="M190.6723 185.6790
L190.7437 185.5362
" />
<path d="M190.7437 185.5362
L190.8152 185.4648
" />
<path d="M190.8152 185.4648
L190.9580 185.3933
" />
<path d="M190.9580 185.3933
L191.1009 185.3933
" />
<path d="M191.8152 186.3933
L191.6723 186.3219
" />
<path d="M191.6723 186.3219
L191.6009 186.2505
" />
<path d="M191.6009 186.2505
L191.5295 186.1076
" />
<path d="M191.5295 186.1076
L191.5295 185.6790
" />
<path d="M191.5295 185.6790
L191.6009 185.5362
" />
<path d="M191.6009 185.5362
L191.6723 185.4648
" />
<path d="M191.6723 185.4648
L191.8152 185.3933
" />
<path d="M191.8152 185.3933
L192.0295 185.3933
" />
<path d="M192.0295 185.3933
L192.1723 185.4648
" />
<path d="M192.1723 185.4648
L192.2437 185.5362
" />
<path d="M192.2437 185.5362
L192.3152 185.6790
" />
<path d="M192.3152 185.6790
L192.3152 186.1076
" />
<path d="M192.3152 186.1076
L192.2437 186.2505
" />
<path d="M192.2437 186.2505
L192.1723 186.3219
" />
<path d="M192.1723 186.3219
L192.0295 186.3933
" />
<path d="M192.0295 186.3933
L191.8152 186.3933
" />
<path d="M192.9580 185.3933
L192.9580 186.3933
" />
<path d="M192.9580 185.5362
L193.0295 185.4648
" />
<path d="M193.0295 185.4648
L193.1723 185.3933
" />
<path d="M193.1723 185.3933
L193.3866 185.3933
" />
<path d="M193.3866 185.3933
L193.5295 185.4648
" />
<path d="M193.5295 185.4648
L193.6009 185.6076
" />
<path d="M193.6009 185.6076
L193.6009 186.3933
" />
<path d="M193.9580 186.5362
L195.1009 186.5362
" />
<path d="M195.4580 186.3933
L195.4580 184.8933
" />
<path d="M196.1009 186.3933
L196.1009 185.6076
" />
<path d="M196.1009 185.6076
L196.0295 185.4648
" />
<path d="M196.0295 185.4648
L195.8866 185.3933
" />
<path d="M195.8866 185.3933
L195.6723 185.3933
" />
<path d="M195.6723 185.3933
L195.5295 185.4648
" />
<path d="M195.5295 185.4648
L195.4580 185.5362
" />
<path d="M196.8152 186.3933
L196.8152 185.3933
" />
<path d="M196.8152 184.8933
L196.7437 184.9648
" />
<path d="M196.7437 184.9648
L196.8152 185.0362
" />
<path d="M196.8152 185.0362
L196.8866 184.9648
" />
<path d="M196.8866 184.9648
L196.8152 184.8933
" />
<path d="M196.8152 184.8933
L196.8152 185.0362
" />
<path d="M197.3152 185.3933
L197.8866 185.3933
" />
<path d="M197.5295 184.8933
L197.5295 186.1790
" />
<path d="M197.5295 186.1790
L197.6009 186.3219
" />
<path d="M197.6009 186.3219
L197.7437 186.3933
" />
<path d="M197.7437 186.3933
L197.8866 186.3933
" />
<path d="M198.3866 186.3933
L198.3866 184.8933
" />
<path d="M198.3866 185.4648
L198.5295 185.3933
" />
<path d="M198.5295 185.3933
L198.8152 185.3933
" />
<path d="M198.8152 185.3933
L198.9580 185.4648
" />
<path d="M198.9580 185.4648
L199.0295 185.5362
" />
<path d="M199.0295 185.5362
L199.1009 185.6790
" />
<path d="M199.1009 185.6790
L199.1009 186.1076
" />
<path d="M199.1009 186.1076
L199.0295 186.2505
" />
<path d="M199.0295 186.2505
L198.9580 186.3219
" />
<path d="M198.9580 186.3219
L198.8152 186.3933
" />
<path d="M198.8152 186.3933
L198.5295 186.3933
" />
<path d="M198.5295 186.3933
L198.3866 186.3219
" />
<path d="M199.9580 186.3933
L199.8152 186.3219
" />
<path d="M199.8152 186.3219
L199.7437 186.2505
" />
<path d="M199.7437 186.2505
L199.6723 186.1076
" />
<path d="M199.6723 186.1076
L199.6723 185.6790
" />
<path d="M199.6723 185.6790
L199.7437 185.5362
" />
<path d="M199.7437 185.5362
L199.8152 185.4648
" />
<path d="M199.8152 185.4648
L199.9580 185.3933
" />
<path d="M199.9580 185.3933
L200.1723 185.3933
" />
<path d="M200.1723 185.3933
L200.3152 185.4648
" />
<path d="M200.3152 185.4648
L200.3866 185.5362
" />
<path d="M200.3866 185.5362
L200.4580 185.6790
" />
<path d="M200.4580 185.6790
L200.4580 186.1076
" />
<path d="M200.4580 186.1076
L200.3866 186.2505
" />
<path d="M200.3866 186.2505
L200.3152 186.3219
" />
<path d="M200.3152 186.3219
L200.1723 186.3933
" />
<path d="M200.1723 186.3933
L199.9580 186.3933
" />
<path d="M200.9580 186.3933
L201.7437 185.3933
" />
<path d="M200.9580 185.3933
L201.7437 186.3933
" />
<path d="M202.3152 186.2505
L202.3866 186.3219
" />
<path d="M202.3866 186.3219
L202.3152 186.3933
" />
<path d="M202.3152 186.3933
L202.2437 186.3219
" />
<path d="M202.2437 186.3219
L202.3152 186.2505
" />
<path d="M202.3152 186.2505
L202.3152 186.3933
" />
<path d="M203.0295 186.3933
L203.0295 184.8933
" />
<path d="M203.1723 185.8219
L203.6009 186.3933
" />
<path d="M203.6009 185.3933
L203.0295 185.9648
" />
<path d="M204.2437 186.3933
L204.2437 185.3933
" />
<path d="M204.2437 184.8933
L204.1723 184.9648
" />
<path d="M204.1723 184.9648
L204.2437 185.0362
" />
<path d="M204.2437 185.0362
L204.3152 184.9648
" />
<path d="M204.3152 184.9648
L204.2437 184.8933
" />
<path d="M204.2437 184.8933
L204.2437 185.0362
" />
<path d="M205.6009 186.3219
L205.4580 186.3933
" />
<path d="M205.4580 186.3933
L205.1723 186.3933
" />
<path d="M205.1723 186.3933
L205.0295 186.3219
" />
<path d="M205.0295 186.3219
L204.9580 186.2505
" />
<path d="M204.9580 186.2505
L204.8866 186.1076
" />
<path d="M204.8866 186.1076
L204.8866 185.6790
" />
<path d="M204.8866 185.6790
L204.9580 185.5362
" />
<path d="M204.9580 185.5362
L205.0295 185.4648
" />
<path d="M205.0295 185.4648
L205.1723 185.3933
" />
<path d="M205.1723 185.3933
L205.4580 185.3933
" />
<path d="M205.4580 185.3933
L205.6009 185.4648
" />
<path d="M206.8866 186.3933
L206.8866 185.6076
" />
<path d="M206.8866 185.6076
L206.8152 185.4648
" />
<path d="M206.8152 185.4648
L206.6723 185.3933
" />
<path d="M206.6723 185.3933
L206.3866 185.3933
" />
<path d="M206.3866 185.3933
L206.2437 185.4648
" />
<path d="M206.8866 186.3219
L206.7437 186.3933
" />
<path d="M206.7437 186.3933
L206.3866 186.3933
" />
<path d="M206.3866 186.3933
L206.2437 186.3219
" />
<path d="M206.2437 186.3219
L206.1723 186.1790
" />
<path d="M206.1723 186.1790
L206.1723 186.0362
" />
<path d="M206.1723 186.0362
L206.2437 185.8933
" />
<path d="M206.2437 185.8933
L206.3866 185.8219
" />
<path d="M206.3866 185.8219
L206.7437 185.8219
" />
<path d="M206.7437 185.8219
L206.8866 185.7505
" />
<path d="M208.2437 186.3933
L208.2437 184.8933
" />
<path d="M208.2437 186.3219
L208.1009 186.3933
" />
<path d="M208.1009 186.3933
L207.8152 186.3933
" />
<path d="M207.8152 186.3933
L207.6723 186.3219
" />
<path d="M207.6723 186.3219
L207.6009 186.2505
" />
<path d="M207.6009 186.2505
L207.5295 186.1076
" />
<path d="M207.5295 186.1076
L207.5295 185.6790
" />
<path d="M207.5295 185.6790
L207.6009 185.5362
" />
<path d="M207.6009 185.5362
L207.6723 185.4648
" />
<path d="M207.6723 185.4648
L207.8152 185.3933
" />
<path d="M207.8152 185.3933
L208.1009 185.3933
" />
<path d="M208.1009 185.3933
L208.2437 185.4648
" />
<path d="M208.6009 186.5362
L209.7437 186.5362
" />
<path d="M210.1009 185.3933
L210.1009 186.8933
" />
<path d="M210.1009 185.4648
L210.2437 185.3933
" />
<path d="M210.2437 185.3933
L210.5295 185.3933
" />
<path d="M210.5295 185.3933
L210.6723 185.4648
" />
<path d="M210.6723 185.4648
L210.7437 185.5362
" />
<path d="M210.7437 185.5362
L210.8152 185.6790
" />
<path d="M210.8152 185.6790
L210.8152 186.1076
" />
<path d="M210.8152 186.1076
L210.7437 186.2505
" />
<path d="M210.7437 186.2505
L210.6723 186.3219
" />
<path d="M210.6723 186.3219
L210.5295 186.3933
" />
<path d="M210.5295 186.3933
L210.2437 186.3933
" />
<path d="M210.2437 186.3933
L210.1009 186.3219
" />
<path d="M212.1009 186.3219
L211.9580 186.3933
" />
<path d="M211.9580 186.3933
L211.6723 186.3933
" />
<path d="M211.6723 186.3933
L211.5295 186.3219
" />
<path d="M211.5295 186.3219
L211.4580 186.2505
" />
<path d="M211.4580 186.2505
L211.3866 186.1076
" />
<path d="M211.3866 186.1076
L211.3866 185.6790
" />
<path d="M211.3866 185.6790
L211.4580 185.5362
" />
<path d="M211.4580 185.5362
L211.5295 185.4648
" />
<path d="M211.5295 185.4648
L211.6723 185.3933
" />
<path d="M211.6723 185.3933
L211.9580 185.3933
" />
<path d="M211.9580 185.3933
L212.1009 185.4648
" />
<path d="M212.7437 186.3933
L212.7437 184.8933
" />
<path d="M212.7437 185.4648
L212.8866 185.3933
" />
<path d="M212.8866 185.3933
L213.1723 185.3933
" />
<path d="M213.1723 185.3933
L213.3152 185.4648
" />
<path d="M213.3152 185.4648
L213.3866 185.5362
" />
<path d="M213.3866 185.5362
L213.4580 185.6790
" />
<path d="M213.4580 185.6790
L213.4580 186.1076
" />
<path d="M213.4580 186.1076
L213.3866 186.2505
" />
<path d="M213.3866 186.2505
L213.3152 186.3219
" />
<path d="M213.3152 186.3219
L213.1723 186.3933
" />
<path d="M213.1723 186.3933
L212.8866 186.3933
" />
<path d="M212.8866 186.3933
L212.7437 186.3219
" />
</g></g>
<g style="fill:none; 
stroke:#000000; stroke-width:0.1500; stroke-opacity:1; 
stroke-linecap:round; stroke-linejoin:round;">
<path d="M177.0022 181.5072
L285.0022 181.5072
" />
</g>
<g style="fill:none; 
stroke:#000000; stroke-width:0.1500; stroke-opacity:1; 
stroke-linecap:round; stroke-linejoin:round;">
<text x="178.0022" y="183.7572"
textLength="8.2214" font-size="2.0000" lengthAdjust="spacingAndGlyphs"
text-anchor="start" opacity="0" stroke-opacity="0">Sheet: </text>
<g class="stroked-text"><desc>Sheet: </desc>
<path d="M178.3866 183.6219
L178.6009 183.6933
" />
<path d="M178.6009 183.6933
L178.9580 183.6933
" />
<path d="M178.9580 183.6933
L179.1009 183.6219
" />
<path d="M179.1009 183.6219
L179.1723 183.5505
" />
<path d="M179.1723 183.5505
L179.2437 183.4076
" />
<path d="M179.2437 183.4076
L179.2437 183.2648
" />
<path d="M179.2437 183.2648
L179.1723 183.1219
" />
<path d="M179.1723 183.1219
L179.1009 183.0505
" />
<path d="M179.1009 183.0505
L178.9580 182.9790
" />
<path d="M178.9580 182.9790
L178.6723 182.9076
" />
<path d="M178.6723 182.9076
L178.5295 182.8362
" />
<path d="M178.5295 182.8362
L178.4580 182.7648
" />
<path d="M178.4580 182.7648
L178.3866 182.6219
" />
<path d="M178.3866 182.6219
L178.3866 182.4790
" />
<path d="M178.3866 182.4790
L178.4580 182.3362
" />
<path d="M178.4580 182.3362
L178.5295 182.2648
" />
<path d="M178.5295 182.2648
L178.6723 182.1933
" />
<path d="M178.6723 182.1933
L179.0295 182.1933
" />
<path d="M179.0295 182.1933
L179.2437 182.2648
" />
<path d="M179.8866 183.6933
L179.8866 182.1933
" />
<path d="M180.5295 183.6933
L180.5295 182.9076
" />
<path d="M180.5295 182.9076
L180.4580 182.7648
" />
<path d="M180.4580 182.7648
L180.3152 182.6933
" />
<path d="M180.3152 182.6933
L180.1009 182.6933
" />
<path d="M180.1009 182.6933
L179.9580 182.7648
" />
<path d="M179.9580 182.7648
L179.8866 182.8362
" />
<path d="M181.8152 183.6219
L181.6723 183.6933
" />
<path d="M181.6723 183.6933
L181.3866 183.6933
" />
<path d="M181.3866 183.6933
L181.2437 183.6219
" />
<path d="M181.2437 183.6219
L181.1723 183.4790
" />
<path d="M181.1723 183.4790
L181.1723 182.9076
" />
<path d="M181.1723 182.9076
L181.2437 182.7648
" />
<path d="M181.2437 182.7648
L181.3866 182.6933
" />
<path d="M181.3866 182.6933
L181.6723 182.6933
" />
<path d="M181.6723 182.6933
L181.8152 182.7648
" />
<path d="M181.8152 182.7648
L181.8866 182.9076
" />
<path d="M181.8866 182.9076
L181.8866 183.0505
" />
<path d="M181.8866 183.0505
L181.1723 183.1933
" />
<path d="M183.1009 183.6219
L182.9580 183.6933
" />
<path d="M182.9580 183.6933
L182.6723 183.6933
" />
<path d="M182.6723 183.6933
L182.5295 183.6219
" />
<path d="M182.5295 183.6219
L182.4580 183.4790
" />
<path d="M182.4580 183.4790
L182.4580 182.9076
" />
<path d="M182.4580 182.9076
L182.5295 182.7648
" />
<path d="M182.5295 182.7648
L182.6723 182.6933
" />
<path d="M182.6723 182.6933
L182.9580 182.6933
" />
<path d="M182.9580 182.6933
L183.1009 182.7648
" />
<path d="M183.1009 182.7648
L183.1723 182.9076
" />
<path d="M183.1723 182.9076
L183.1723 183.0505
" />
<path d="M183.1723 183.0505
L182.4580 183.1933
" />
<path d="M183.6009 182.6933
L184.1723 182.6933
" />
<path d="M183.8152 182.1933
L183.8152 183.4790
" />
<path d="M183.8152 183.4790
L183.8866 183.6219
" />
<path d="M183.8866 183.6219
L184.0295 183.6933
" />
<path d="M184.0295 183.6933
L184.1723 183.6933
" />
<path d="M184.6723 183.5505
L184.7437 183.6219
" />
<path d="M184.7437 183.6219
L184.6723 183.6933
" />
<path d="M184.6723 183.6933
L184.6009 183.6219
" />
<path d="M184.6009 183.6219
L184.6723 183.5505
" />
<path d="M184.6723 183.5505
L184.6723 183.6933
" />
<path d="M184.6723 182.7648
L184.7437 182.8362
" />
<path d="M184.7437 182.8362
L184.6723 182.9076
" />
<path d="M184.6723 182.9076
L184.6009 182.8362
" />
<path d="M184.6009 182.8362
L184.6723 182.7648
" />
<path d="M184.6723 182.7648
L184.6723 182.9076
" />
</g></g>
<g style="fill:none; 
stroke:#000000; stroke-width:0.3000; stroke-opacity:1; 
stroke-linecap:round; stroke-linejoin:round;">
<text x="178.0022" y="180.7572"
textLength="0.9000" font-size="2.0000" lengthAdjust="spacingAndGlyphs"
text-anchor="start" opacity="0" stroke-opacity="0"></text>
<g class="stroked-text"><desc></desc>
</g></g>
<g style="fill:none; 
stroke:#000000; stroke-width:0.1500; stroke-opacity:1; 
stroke-linecap:round; stroke-linejoin:round;">
<text x="178.0022" y="177.7572"
textLength="0.4500" font-size="2.0000" lengthAdjust="spacingAndGlyphs"
text-anchor="start" opacity="0" stroke-opacity="0"></text>
<g class="stroked-text"><desc></desc>
</g></g>
<g style="fill:none; 
stroke:#000000; stroke-width:0.1500; stroke-opacity:1; 
stroke-linecap:round; stroke-linejoin:round;">
<text x="178.0022" y="174.7572"
textLength="0.4500" font-size="2.0000" lengthAdjust="spacingAndGlyphs"
text-anchor="start" opacity="0" stroke-opacity="0"></text>
<g class="stroked-text"><desc></desc>
</g></g>
<g style="fill:none; 
stroke:#000000; stroke-width:0.1500; stroke-opacity:1; 
stroke-linecap:round; stroke-linejoin:round;">
<text x="178.0022" y="171.7572"
textLength="0.4500" font-size="2.0000" lengthAdjust="spacingAndGlyphs"
text-anchor="start" opacity="0" stroke-opacity="0"></text>
<g class="stroked-text"><desc></desc>
</g></g>
<g style="fill:none; 
stroke:#000000; stroke-width:0.1500; stroke-opacity:1; 
stroke-linecap:round; stroke-linejoin:round;">
<text x="178.0022" y="168.7572"
textLength="0.4500" font-size="2.0000" lengthAdjust="spacingAndGlyphs"
text-anchor="start" opacity="0" stroke-opacity="0"></text>
<g class="stroked-text"><desc></desc>
</g></g>
<g style="fill:none; 
stroke:#000000; stroke-width:0.1500; stroke-opacity:1; 
stroke-linecap:round; stroke-linejoin:round;">
<path d="M197.0022 191.5072
L197.0022 194.5072
" />
</g>
<g style="fill:none; 
stroke:#000000; stroke-width:0.1500; stroke-opacity:1; 
stroke-linecap:round; stroke-linejoin:round;">
<path d="M261.0022 191.5072
L261.0022 198.0072
" />
</g>
<g style="fill:none; 
stroke:#E8B2A7; stroke-width:0.1500; stroke-opacity:1; 
stroke-linecap:round; stroke-linejoin:round;">
<g transform="rotate(-90.000000 240.0000 67.3000)">
<text x="240.0000" y="67.8000"
transform="scale(-1 1) translate(-480.000000 0)"
textLength="3.1548" font-size="1.3333" lengthAdjust="spacingAndGlyphs"
text-anchor="middle" opacity="0" stroke-opacity="0">R11</text>
</g>
<g class="stroked-text"><desc>R11</desc>
<path d="M240.4548 66.6571
L239.9786 66.3238
" />
<path d="M240.4548 66.0857
L239.4548 66.0857
" />
<path d="M239.4548 66.0857
L239.4548 66.4667
" />
<path d="M239.4548 66.4667
L239.5024 66.5619
" />
<path d="M239.5024 66.5619
L239.5501 66.6095
" />
<path d="M239.5501 66.6095
L239.6453 66.6571
" />
<path d="M239.6453 66.6571
L239.7882 66.6571
" />
<path d="M239.7882 66.6571
L239.8834 66.6095
" />
<path d="M239.8834 66.6095
L239.9310 66.5619
" />
<path d="M239.9310 66.5619
L239.9786 66.4667
" />
<path d="M239.9786 66.4667
L239.9786 66.0857
" />
<path d="M240.4548 67.6095
L240.4548 67.0381
" />
<path d="M240.4548 67.3238
L239.4548 67.3238
" />
<path d="M239.4548 67.3238
L239.5977 67.2286
" />
<path d="M239.5977 67.2286
L239.6929 67.1333
" />
<path d="M239.6929 67.1333
L239.7405 67.0381
" />
<path d="M240.4548 68.5619
L240.4548 67.9905
" />
<path d="M240.4548 68.2762
L239.4548 68.2762
" />
<path d="M239.4548 68.2762
L239.5977 68.1810
" />
<path d="M239.5977 68.1810
L239.6929 68.0857
" />
<path d="M239.6929 68.0857
L239.7405 67.9905
" />
</g><g transform="rotate(-90.000000 157.4000 71.6875)">
<text x="157.4000" y="72.1875"
transform="scale(-1 1) translate(-314.800000 0)"
textLength="2.2024" font-size="1.3333" lengthAdjust="spacingAndGlyphs"
text-anchor="middle" opacity="0" stroke-opacity="0">R8</text>
</g>
<g class="stroked-text"><desc>R8</desc>
<path d="M157.8548 71.5208
L157.3786 71.1875
" />
<path d="M157.8548 70.9494
L156.8548 70.9494
" />
<path d="M156.8548 70.9494
L156.8548 71.3304
" />
<path d="M156.8548 71.3304
L156.9024 71.4256
" />
<path d="M156.9024 71.4256
L156.9501 71.4732
" />
<path d="M156.9501 71.4732
L157.0453 71.5208
" />
<path d="M157.0453 71.5208
L157.1882 71.5208
" />
<path d="M157.1882 71.5208
L157.2834 71.4732
" />
<path d="M157.2834 71.4732
L157.3310 71.4256
" />
<path d="M157.3310 71.4256
L157.3786 71.3304
" />
<path d="M157.3786 71.3304
L157.3786 70.9494
" />
<path d="M157.2834 72.0923
L157.2358 71.9970
" />
<path d="M157.2358 71.9970
L157.1882 71.9494
" />
<path d="M157.1882 71.9494
L157.0929 71.9018
" />
<path d="M157.0929 71.9018
L157.0453 71.9018
" />
<path d="M157.0453 71.9018
L156.9501 71.9494
" />
<path d="M156.9501 71.9494
L156.9024 71.9970
" />
<path d="M156.9024 71.9970
L156.8548 72.0923
" />
<path d="M156.8548 72.0923
L156.8548 72.2827
" />
<path d="M156.8548 72.2827
L156.9024 72.3780
" />
<path d="M156.9024 72.3780
L156.9501 72.4256
" />
<path d="M156.9501 72.4256
L157.0453 72.4732
" />
<path d="M157.0453 72.4732
L157.0929 72.4732
" />
<path d="M157.0929 72.4732
L157.1882 72.4256
" />
<path d="M157.1882 72.4256
L157.2358 72.3780
" />
<path d="M157.2358 72.3780
L157.2834 72.2827
" />
<path d="M157.2834 72.2827
L157.2834 72.0923
" />
<path d="M157.2834 72.0923
L157.3310 71.9970
" />
<path d="M157.3310 71.9970
L157.3786 71.9494
" />
<path d="M157.3786 71.9494
L157.4739 71.9018
" />
<path d="M157.4739 71.9018
L157.6643 71.9018
" />
<path d="M157.6643 71.9018
L157.7596 71.9494
" />
<path d="M157.7596 71.9494
L157.8072 71.9970
" />
<path d="M157.8072 71.9970
L157.8548 72.0923
" />
<path d="M157.8548 72.0923
L157.8548 72.2827
" />
<path d="M157.8548 72.2827
L157.8072 72.3780
" />
<path d="M157.8072 72.3780
L157.7596 72.4256
" />
<path d="M157.7596 72.4256
L157.6643 72.4732
" />
<path d="M157.6643 72.4732
L157.4739 72.4732
" />
<path d="M157.4739 72.4732
L157.3786 72.4256
" />
<path d="M157.3786 72.4256
L157.3310 72.3780
" />
<path d="M157.3310 72.3780
L157.2834 72.2827
" />
</g><g transform="rotate(-90.000000 211.0000 93.8875)">
<text x="211.0000" y="94.3875"
transform="scale(-1 1) translate(-422.000000 0)"
textLength="3.1548" font-size="1.3333" lengthAdjust="spacingAndGlyphs"
text-anchor="middle" opacity="0" stroke-opacity="0">R14</text>
</g>
<g class="stroked-text"><desc>R14</desc>
<path d="M211.4548 93.2446
L210.9786 92.9113
" />
<path d="M211.4548 92.6732
L210.4548 92.6732
" />
<path d="M210.4548 92.6732
L210.4548 93.0542
" />
<path d="M210.4548 93.0542
L210.5024 93.1494
" />
<path d="M210.5024 93.1494
L210.5501 93.1970
" />
<path d="M210.5501 93.1970
L210.6453 93.2446
" />
<path d="M210.6453 93.2446
L210.7882 93.2446
" />
<path d="M210.7882 93.2446
L210.8834 93.1970
" />
<path d="M210.8834 93.1970
L210.9310 93.1494
" />
<path d="M210.9310 93.1494
L210.9786 93.0542
" />
<path d="M210.9786 93.0542
L210.9786 92.6732
" />
<path d="M211.4548 94.1970
L211.4548 93.6256
" />
<path d="M211.4548 93.9113
L210.4548 93.9113
" />
<path d="M210.4548 93.9113
L210.5977 93.8161
" />
<path d="M210.5977 93.8161
L210.6929 93.7208
" />
<path d="M210.6929 93.7208
L210.7405 93.6256
" />
<path d="M210.7882 95.0542
L211.4548 95.0542
" />
<path d="M210.4072 94.8161
L211.1215 94.5780
" />
<path d="M211.1215 94.5780
L211.1215 95.1970
" />
</g><g transform="rotate(-90.000000 130.1125 79.4000)">
<text x="130.1125" y="79.9000"
transform="scale(-1 1) translate(-260.225000 0)"
textLength="2.2024" font-size="1.3333" lengthAdjust="spacingAndGlyphs"
text-anchor="middle" opacity="0" stroke-opacity="0">R6</text>
</g>
<g class="stroked-text"><desc>R6</desc>
<path d="M130.5673 79.2333
L130.0911 78.9000
" />
<path d="M130.5673 78.6619
L129.5673 78.6619
" />
<path d="M129.5673 78.6619
L129.5673 79.0429
" />
<path d="M129.5673 79.0429
L129.6149 79.1381
" />
<path d="M129.6149 79.1381
L129.6626 79.1857
" />
<path d="M129.6626 79.1857
L129.7578 79.2333
" />
<path d="M129.7578 79.2333
L129.9007 79.2333
" />
<path d="M129.9007 79.2333
L129.9959 79.1857
" />
<path d="M129.9959 79.1857
L130.0435 79.1381
" />
<path d="M130.0435 79.1381
L130.0911 79.0429
" />
<path d="M130.0911 79.0429
L130.0911 78.6619
" />
<path d="M129.5673 80.0905
L129.5673 79.9000
" />
<path d="M129.5673 79.9000
L129.6149 79.8048
" />
<path d="M129.6149 79.8048
L129.6626 79.7571
" />
<path d="M129.6626 79.7571
L129.8054 79.6619
" />
<path d="M129.8054 79.6619
L129.9959 79.6143
" />
<path d="M129.9959 79.6143
L130.3768 79.6143
" />
<path d="M130.3768 79.6143
L130.4721 79.6619
" />
<path d="M130.4721 79.6619
L130.5197 79.7095
" />
<path d="M130.5197 79.7095
L130.5673 79.8048
" />
<path d="M130.5673 79.8048
L130.5673 79.9952
" />
<path d="M130.5673 79.9952
L130.5197 80.0905
" />
<path d="M130.5197 80.0905
L130.4721 80.1381
" />
<path d="M130.4721 80.1381
L130.3768 80.1857
" />
<path d="M130.3768 80.1857
L130.1387 80.1857
" />
<path d="M130.1387 80.1857
L130.0435 80.1381
" />
<path d="M130.0435 80.1381
L129.9959 80.0905
" />
<path d="M129.9959 80.0905
L129.9483 79.9952
" />
<path d="M129.9483 79.9952
L129.9483 79.8048
" />
<path d="M129.9483 79.8048
L129.9959 79.7095
" />
<path d="M129.9959 79.7095
L130.0435 79.6619
" />
<path d="M130.0435 79.6619
L130.1387 79.6143
" />
</g><g transform="rotate(-90.000000 75.8125 71.8000)">
<text x="75.8125" y="72.3000"
transform="scale(-1 1) translate(-151.625000 0)"
textLength="2.2024" font-size="1.3333" lengthAdjust="spacingAndGlyphs"
text-anchor="middle" opacity="0" stroke-opacity="0">R7</text>
</g>
<g class="stroked-text"><desc>R7</desc>
<path d="M76.2673 71.6333
L75.7911 71.3000
" />
<path d="M76.2673 71.0619
L75.2673 71.0619
" />
<path d="M75.2673 71.0619
L75.2673 71.4429
" />
<path d="M75.2673 71.4429
L75.3149 71.5381
" />
<path d="M75.3149 71.5381
L75.3626 71.5857
" />
<path d="M75.3626 71.5857
L75.4578 71.6333
" />
<path d="M75.4578 71.6333
L75.6007 71.6333
" />
<path d="M75.6007 71.6333
L75.6959 71.5857
" />
<path d="M75.6959 71.5857
L75.7435 71.5381
" />
<path d="M75.7435 71.5381
L75.7911 71.4429
" />
<path d="M75.7911 71.4429
L75.7911 71.0619
" />
<path d="M75.2673 71.9667
L75.2673 72.6333
" />
<path d="M75.2673 72.6333
L76.2673 72.2048
" />
</g><g transform="rotate(-90.000000 142.8000 129.9125)">
<text x="142.8000" y="130.4125"
transform="scale(-1 1) translate(-285.600000 0)"
textLength="2.2024" font-size="1.3333" lengthAdjust="spacingAndGlyphs"
text-anchor="middle" opacity="0" stroke-opacity="0">R4</text>
</g>
<g class="stroked-text"><desc>R4</desc>
<path d="M143.2548 129.7458
L142.7786 129.4125
" />
<path d="M143.2548 129.1744
L142.2548 129.1744
" />
<path d="M142.2548 129.1744
L142.2548 129.5554
" />
<path d="M142.2548 129.5554
L142.3024 129.6506
" />
<path d="M142.3024 129.6506
L142.3501 129.6982
" />
<path d="M142.3501 129.6982
L142.4453 129.7458
" />
<path d="M142.4453 129.7458
L142.5882 129.7458
" />
<path d="M142.5882 129.7458
L142.6834 129.6982
" />
<path d="M142.6834 129.6982
L142.7310 129.6506
" />
<path d="M142.7310 129.6506
L142.7786 129.5554
" />
<path d="M142.7786 129.5554
L142.7786 129.1744
" />
<path d="M142.5882 130.6030
L143.2548 130.6030
" />
<path d="M142.2072 130.3649
L142.9215 130.1268
" />
<path d="M142.9215 130.1268
L142.9215 130.7458
" />
</g><g transform="rotate(-90.000000 184.5000 67.7125)">
<text x="184.5000" y="68.2125"
transform="scale(-1 1) translate(-369.000000 0)"
textLength="2.2024" font-size="1.3333" lengthAdjust="spacingAndGlyphs"
text-anchor="middle" opacity="0" stroke-opacity="0">R9</text>
</g>
<g class="stroked-text"><desc>R9</desc>
<path d="M184.9548 67.5458
L184.4786 67.2125
" />
<path d="M184.9548 66.9744
L183.9548 66.9744
" />
<path d="M183.9548 66.9744
L183.9548 67.3554
" />
<path d="M183.9548 67.3554
L184.0024 67.4506
" />
<path d="M184.0024 67.4506
L184.0501 67.4982
" />
<path d="M184.0501 67.4982
L184.1453 67.5458
" />
<path d="M184.1453 67.5458
L184.2882 67.5458
" />
<path d="M184.2882 67.5458
L184.3834 67.4982
" />
<path d="M184.3834 67.4982
L184.4310 67.4506
" />
<path d="M184.4310 67.4506
L184.4786 67.3554
" />
<path d="M184.4786 67.3554
L184.4786 66.9744
" />
<path d="M184.9548 68.0220
L184.9548 68.2125
" />
<path d="M184.9548 68.2125
L184.9072 68.3077
" />
<path d="M184.9072 68.3077
L184.8596 68.3554
" />
<path d="M184.8596 68.3554
L184.7167 68.4506
" />
<path d="M184.7167 68.4506
L184.5262 68.4982
" />
<path d="M184.5262 68.4982
L184.1453 68.4982
" />
<path d="M184.1453 68.4982
L184.0501 68.4506
" />
<path d="M184.0501 68.4506
L184.0024 68.4030
" />
<path d="M184.0024 68.4030
L183.9548 68.3077
" />
<path d="M183.9548 68.3077
L183.9548 68.1173
" />
<path d="M183.9548 68.1173
L184.0024 68.0220
" />
<path d="M184.0024 68.0220
L184.0501 67.9744
" />
<path d="M184.0501 67.9744
L184.1453 67.9268
" />
<path d="M184.1453 67.9268
L184.3834 67.9268
" />
<path d="M184.3834 67.9268
L184.4786 67.9744
" />
<path d="M184.4786 67.9744
L184.5262 68.0220
" />
<path d="M184.5262 68.0220
L184.5739 68.1173
" />
<path d="M184.5739 68.1173
L184.5739 68.3077
" />
<path d="M184.5739 68.3077
L184.5262 68.4030
" />
<path d="M184.5262 68.4030
L184.4786 68.4506
" />
<path d="M184.4786 68.4506
L184.3834 68.4982
" />
</g><g transform="rotate(-90.000000 109.2000 42.0875)">
<text x="109.2000" y="42.5875"
transform="scale(-1 1) translate(-218.400000 0)"
textLength="2.2024" font-size="1.3333" lengthAdjust="spacingAndGlyphs"
text-anchor="middle" opacity="0" stroke-opacity="0">R1</text>
</g>
<g class="stroked-text"><desc>R1</desc>
<path d="M109.6548 41.9208
L109.1786 41.5875
" />
<path d="M109.6548 41.3494
L108.6548 41.3494
" />
<path d="M108.6548 41.3494
L108.6548 41.7304
" />
<path d="M108.6548 41.7304
L108.7024 41.8256
" />
<path d="M108.7024 41.8256
L108.7501 41.8732
" />
<path d="M108.7501 41.8732
L108.8453 41.9208
" />
<path d="M108.8453 41.9208
L108.9882 41.9208
" />
<path d="M108.9882 41.9208
L109.0834 41.8732
" />
<path d="M109.0834 41.8732
L109.1310 41.8256
" />
<path d="M109.1310 41.8256
L109.1786 41.7304
" />
<path d="M109.1786 41.7304
L109.1786 41.3494
" />
<path d="M109.6548 42.8732
L109.6548 42.3018
" />
<path d="M109.6548 42.5875
L108.6548 42.5875
" />
<path d="M108.6548 42.5875
L108.7977 42.4923
" />
<path d="M108.7977 42.4923
L108.8929 42.3970
" />
<path d="M108.8929 42.3970
L108.9405 42.3018
" />
</g><g transform="rotate(-90.000000 211.9125 66.8875)">
<text x="211.9125" y="67.3875"
transform="scale(-1 1) translate(-423.825000 0)"
textLength="3.1548" font-size="1.3333" lengthAdjust="spacingAndGlyphs"
text-anchor="middle" opacity="0" stroke-opacity="0">R10</text>
</g>
<g class="stroked-text"><desc>R10</desc>
<path d="M212.3673 66.2446
L211.8911 65.9113
" />
<path d="M212.3673 65.6732
L211.3673 65.6732
" />
<path d="M211.3673 65.6732
L211.3673 66.0542
" />
<path d="M211.3673 66.0542
L211.4149 66.1494
" />
<path d="M211.4149 66.1494
L211.4626 66.1970
" />
<path d="M211.4626 66.1970
L211.5578 66.2446
" />
<path d="M211.5578 66.2446
L211.7007 66.2446
" />
<path d="M211.7007 66.2446
L211.7959 66.1970
" />
<path d="M211.7959 66.1970
L211.8435 66.1494
" />
<path d="M211.8435 66.1494
L211.8911 66.0542
" />
<path d="M211.8911 66.0542
L211.8911 65.6732
" />
<path d="M212.3673 67.1970
L212.3673 66.6256
" />
<path d="M212.3673 66.9113
L211.3673 66.9113
" />
<path d="M211.3673 66.9113
L211.5102 66.8161
" />
<path d="M211.5102 66.8161
L211.6054 66.7208
" />
<path d="M211.6054 66.7208
L211.6530 66.6256
" />
<path d="M211.3673 67.8161
L211.3673 67.9113
" />
<path d="M211.3673 67.9113
L211.4149 68.0065
" />
<path d="M211.4149 68.0065
L211.4626 68.0542
" />
<path d="M211.4626 68.0542
L211.5578 68.1018
" />
<path d="M211.5578 68.1018
L211.7483 68.1494
" />
<path d="M211.7483 68.1494
L211.9864 68.1494
" />
<path d="M211.9864 68.1494
L212.1768 68.1018
" />
<path d="M212.1768 68.1018
L212.2721 68.0542
" />
<path d="M212.2721 68.0542
L212.3197 68.0065
" />
<path d="M212.3197 68.0065
L212.3673 67.9113
" />
<path d="M212.3673 67.9113
L212.3673 67.8161
" />
<path d="M212.3673 67.8161
L212.3197 67.7208
" />
<path d="M212.3197 67.7208
L212.2721 67.6732
" />
<path d="M212.2721 67.6732
L212.1768 67.6256
" />
<path d="M212.1768 67.6256
L211.9864 67.5780
" />
<path d="M211.9864 67.5780
L211.7483 67.5780
" />
<path d="M211.7483 67.5780
L211.5578 67.6256
" />
<path d="M211.5578 67.6256
L211.4626 67.6732
" />
<path d="M211.4626 67.6732
L211.4149 67.7208
" />
<path d="M211.4149 67.7208
L211.3673 67.8161
" />
</g><g transform="rotate(-90.000000 240.1000 93.3000)">
<text x="240.1000" y="93.8000"
transform="scale(-1 1) translate(-480.200000 0)"
textLength="3.1548" font-size="1.3333" lengthAdjust="spacingAndGlyphs"
text-anchor="middle" opacity="0" stroke-opacity="0">R15</text>
</g>
<g class="stroked-text"><desc>R15</desc>
<path d="M240.5548 92.6571
L240.0786 92.3238
" />
<path d="M240.5548 92.0857
L239.5548 92.0857
" />
<path d="M239.5548 92.0857
L239.5548 92.4667
" />
<path d="M239.5548 92.4667
L239.6024 92.5619
" />
<path d="M239.6024 92.5619
L239.6501 92.6095
" />
<path d="M239.6501 92.6095
L239.7453 92.6571
" />
<path d="M239.7453 92.6571
L239.8882 92.6571
" />
<path d="M239.8882 92.6571
L239.9834 92.6095
" />
<path d="M239.9834 92.6095
L240.0310 92.5619
" />
<path d="M240.0310 92.5619
L240.0786 92.4667
" />
<path d="M240.0786 92.4667
L240.0786 92.0857
" />
<path d="M240.5548 93.6095
L240.5548 93.0381
" />
<path d="M240.5548 93.3238
L239.5548 93.3238
" />
<path d="M239.5548 93.3238
L239.6977 93.2286
" />
<path d="M239.6977 93.2286
L239.7929 93.1333
" />
<path d="M239.7929 93.1333
L239.8405 93.0381
" />
<path d="M239.5548 94.5143
L239.5548 94.0381
" />
<path d="M239.5548 94.0381
L240.0310 93.9905
" />
<path d="M240.0310 93.9905
L239.9834 94.0381
" />
<path d="M239.9834 94.0381
L239.9358 94.1333
" />
<path d="M239.9358 94.1333
L239.9358 94.3714
" />
<path d="M239.9358 94.3714
L239.9834 94.4667
" />
<path d="M239.9834 94.4667
L240.0310 94.5143
" />
<path d="M240.0310 94.5143
L240.1262 94.5619
" />
<path d="M240.1262 94.5619
L240.3643 94.5619
" />
<path d="M240.3643 94.5619
L240.4596 94.5143
" />
<path d="M240.4596 94.5143
L240.5072 94.4667
" />
<path d="M240.5072 94.4667
L240.5548 94.3714
" />
<path d="M240.5548 94.3714
L240.5548 94.1333
" />
<path d="M240.5548 94.1333
L240.5072 94.0381
" />
<path d="M240.5072 94.0381
L240.4596 93.9905
" />
</g><g transform="rotate(-90.000000 171.9000 121.3125)">
<text x="171.9000" y="121.8125"
transform="scale(-1 1) translate(-343.800000 0)"
textLength="2.2024" font-size="1.3333" lengthAdjust="spacingAndGlyphs"
text-anchor="middle" opacity="0" stroke-opacity="0">R2</text>
</g>
<g class="stroked-text"><desc>R2</desc>
<path d="M172.3548 121.1458
L171.8786 120.8125
" />
<path d="M172.3548 120.5744
L171.3548 120.5744
" />
<path d="M171.3548 120.5744
L171.3548 120.9554
" />
<path d="M171.3548 120.9554
L171.4024 121.0506
" />
<path d="M171.4024 121.0506
L171.4501 121.0982
" />
<path d="M171.4501 121.0982
L171.5453 121.1458
" />
<path d="M171.5453 121.1458
L171.6882 121.1458
" />
<path d="M171.6882 121.1458
L171.7834 121.0982
" />
<path d="M171.7834 121.0982
L171.8310 121.0506
" />
<path d="M171.8310 121.0506
L171.8786 120.9554
" />
<path d="M171.8786 120.9554
L171.8786 120.5744
" />
<path d="M171.4501 121.5268
L171.4024 121.5744
" />
<path d="M171.4024 121.5744
L171.3548 121.6696
" />
<path d="M171.3548 121.6696
L171.3548 121.9077
" />
<path d="M171.3548 121.9077
L171.4024 122.0030
" />
<path d="M171.4024 122.0030
L171.4501 122.0506
" />
<path d="M171.4501 122.0506
L171.5453 122.0982
" />
<path d="M171.5453 122.0982
L171.6405 122.0982
" />
<path d="M171.6405 122.0982
L171.7834 122.0506
" />
<path d="M171.7834 122.0506
L172.3548 121.4792
" />
<path d="M172.3548 121.4792
L172.3548 122.0982
" />
</g><g transform="rotate(-90.000000 153.5125 98.5000)">
<text x="153.5125" y="99.0000"
transform="scale(-1 1) translate(-307.025000 0)"
textLength="3.1548" font-size="1.3333" lengthAdjust="spacingAndGlyphs"
text-anchor="middle" opacity="0" stroke-opacity="0">R12</text>
</g>
<g class="stroked-text"><desc>R12</desc>
<path d="M153.9673 97.8571
L153.4911 97.5238
" />
<path d="M153.9673 97.2857
L152.9673 97.2857
" />
<path d="M152.9673 97.2857
L152.9673 97.6667
" />
<path d="M152.9673 97.6667
L153.0149 97.7619
" />
<path d="M153.0149 97.7619
L153.0626 97.8095
" />
<path d="M153.0626 97.8095
L153.1578 97.8571
" />
<path d="M153.1578 97.8571
L153.3007 97.8571
" />
<path d="M153.3007 97.8571
L153.3959 97.8095
" />
<path d="M153.3959 97.8095
L153.4435 97.7619
" />
<path d="M153.4435 97.7619
L153.4911 97.6667
" />
<path d="M153.4911 97.6667
L153.4911 97.2857
" />
<path d="M153.9673 98.8095
L153.9673 98.2381
" />
<path d="M153.9673 98.5238
L152.9673 98.5238
" />
<path d="M152.9673 98.5238
L153.1102 98.4286
" />
<path d="M153.1102 98.4286
L153.2054 98.3333
" />
<path d="M153.2054 98.3333
L153.2530 98.2381
" />
<path d="M153.0626 99.1905
L153.0149 99.2381
" />
<path d="M153.0149 99.2381
L152.9673 99.3333
" />
<path d="M152.9673 99.3333
L152.9673 99.5714
" />
<path d="M152.9673 99.5714
L153.0149 99.6667
" />
<path d="M153.0149 99.6667
L153.0626 99.7143
" />
<path d="M153.0626 99.7143
L153.1578 99.7619
" />
<path d="M153.1578 99.7619
L153.2530 99.7619
" />
<path d="M153.2530 99.7619
L153.3959 99.7143
" />
<path d="M153.3959 99.7143
L153.9673 99.1429
" />
<path d="M153.9673 99.1429
L153.9673 99.7619
" />
</g><g transform="rotate(-90.000000 182.7000 93.7875)">
<text x="182.7000" y="94.2875"
transform="scale(-1 1) translate(-365.400000 0)"
textLength="3.1548" font-size="1.3333" lengthAdjust="spacingAndGlyphs"
text-anchor="middle" opacity="0" stroke-opacity="0">R13</text>
</g>
<g class="stroked-text"><desc>R13</desc>
<path d="M183.1548 93.1446
L182.6786 92.8113
" />
<path d="M183.1548 92.5732
L182.1548 92.5732
" />
<path d="M182.1548 92.5732
L182.1548 92.9542
" />
<path d="M182.1548 92.9542
L182.2024 93.0494
" />
<path d="M182.2024 93.0494
L182.2501 93.0970
" />
<path d="M182.2501 93.0970
L182.3453 93.1446
" />
<path d="M182.3453 93.1446
L182.4882 93.1446
" />
<path d="M182.4882 93.1446
L182.5834 93.0970
" />
<path d="M182.5834 93.0970
L182.6310 93.0494
" />
<path d="M182.6310 93.0494
L182.6786 92.9542
" />
<path d="M182.6786 92.9542
L182.6786 92.5732
" />
<path d="M183.1548 94.0970
L183.1548 93.5256
" />
<path d="M183.1548 93.8113
L182.1548 93.8113
" />
<path d="M182.1548 93.8113
L182.2977 93.7161
" />
<path d="M182.2977 93.7161
L182.3929 93.6208
" />
<path d="M182.3929 93.6208
L182.4405 93.5256
" />
<path d="M182.1548 94.4304
L182.1548 95.0494
" />
<path d="M182.1548 95.0494
L182.5358 94.7161
" />
<path d="M182.5358 94.7161
L182.5358 94.8589
" />
<path d="M182.5358 94.8589
L182.5834 94.9542
" />
<path d="M182.5834 94.9542
L182.6310 95.0018
" />
<path d="M182.6310 95.0018
L182.7262 95.0494
" />
<path d="M182.7262 95.0494
L182.9643 95.0494
" />
<path d="M182.9643 95.0494
L183.0596 95.0018
" />
<path d="M183.0596 95.0018
L183.1072 94.9542
" />
<path d="M183.1072 94.9542
L183.1548 94.8589
" />
<path d="M183.1548 94.8589
L183.1548 94.5732
" />
<path d="M183.1548 94.5732
L183.1072 94.4780
" />
<path d="M183.1072 94.4780
L183.0596 94.4304
" />
</g><g transform="rotate(-90.000000 103.6000 68.3875)">
<text x="103.6000" y="68.8875"
transform="scale(-1 1) translate(-207.200000 0)"
textLength="2.2024" font-size="1.3333" lengthAdjust="spacingAndGlyphs"
text-anchor="middle" opacity="0" stroke-opacity="0">R5</text>
</g>
<g class="stroked-text"><desc>R5</desc>
<path d="M104.0548 68.2208
L103.5786 67.8875
" />
<path d="M104.0548 67.6494
L103.0548 67.6494
" />
<path d="M103.0548 67.6494
L103.0548 68.0304
" />
<path d="M103.0548 68.0304
L103.1024 68.1256
" />
<path d="M103.1024 68.1256
L103.1501 68.1732
" />
<path d="M103.1501 68.1732
L103.2453 68.2208
" />
<path d="M103.2453 68.2208
L103.3882 68.2208
" />
<path d="M103.3882 68.2208
L103.4834 68.1732
" />
<path d="M103.4834 68.1732
L103.5310 68.1256
" />
<path d="M103.5310 68.1256
L103.5786 68.0304
" />
<path d="M103.5786 68.0304
L103.5786 67.6494
" />
<path d="M103.0548 69.1256
L103.0548 68.6494
" />
<path d="M103.0548 68.6494
L103.5310 68.6018
" />
<path d="M103.5310 68.6018
L103.4834 68.6494
" />
<path d="M103.4834 68.6494
L103.4358 68.7446
" />
<path d="M103.4358 68.7446
L103.4358 68.9827
" />
<path d="M103.4358 68.9827
L103.4834 69.0780
" />
<path d="M103.4834 69.0780
L103.5310 69.1256
" />
<path d="M103.5310 69.1256
L103.6262 69.1732
" />
<path d="M103.6262 69.1732
L103.8643 69.1732
" />
<path d="M103.8643 69.1732
L103.9596 69.1256
" />
<path d="M103.9596 69.1256
L104.0072 69.0780
" />
<path d="M104.0072 69.0780
L104.0548 68.9827
" />
<path d="M104.0548 68.9827
L104.0548 68.7446
" />
<path d="M104.0548 68.7446
L104.0072 68.6494
" />
<path d="M104.0072 68.6494
L103.9596 68.6018
" />
</g><g transform="rotate(-90.000000 61.3125 97.5000)">
<text x="61.3125" y="98.0000"
transform="scale(-1 1) translate(-122.625000 0)"
textLength="2.2024" font-size="1.3333" lengthAdjust="spacingAndGlyphs"
text-anchor="middle" opacity="0" stroke-opacity="0">R3</text>
</g>
<g class="stroked-text"><desc>R3</desc>
<path d="M61.7673 97.3333
L61.2911 97.0000
" />
<path d="M61.7673 96.7619
L60.7673 96.7619
" />
<path d="M60.7673 96.7619
L60.7673 97.1429
" />
<path d="M60.7673 97.1429
L60.8149 97.2381
" />
<path d="M60.8149 97.2381
L60.8626 97.2857
" />
<path d="M60.8626 97.2857
L60.9578 97.3333
" />
<path d="M60.9578 97.3333
L61.1007 97.3333
" />
<path d="M61.1007 97.3333
L61.1959 97.2857
" />
<path d="M61.1959 97.2857
L61.2435 97.2381
" />
<path d="M61.2435 97.2381
L61.2911 97.1429
" />
<path d="M61.2911 97.1429
L61.2911 96.7619
" />
<path d="M60.7673 97.6667
L60.7673 98.2857
" />
<path d="M60.7673 98.2857
L61.1483 97.9524
" />
<path d="M61.1483 97.9524
L61.1483 98.0952
" />
<path d="M61.1483 98.0952
L61.1959 98.1905
" />
<path d="M61.1959 98.1905
L61.2435 98.2381
" />
<path d="M61.2435 98.2381
L61.3387 98.2857
" />
<path d="M61.3387 98.2857
L61.5768 98.2857
" />
<path d="M61.5768 98.2857
L61.6721 98.2381
" />
<path d="M61.6721 98.2381
L61.7197 98.1905
" />
<path d="M61.7197 98.1905
L61.7673 98.0952
" />
<path d="M61.7673 98.0952
L61.7673 97.8095
" />
<path d="M61.7673 97.8095
L61.7197 97.7143
" />
<path d="M61.7197 97.7143
L61.6721 97.6667
" />
</g></g>
<g style="fill:none; 
stroke:#E8B2A7; stroke-width:0.1200; stroke-opacity:1; 
stroke-linecap:round; stroke-linejoin:round;">
<path d="M240.7000 65.6000
L240.7000 69.0000
" />
<path d="M240.7000 69.0000
L242.7000 69.0000
" />
<path d="M242.7000 65.6000
L240.7000 65.6000
" />
<path d="M242.7000 69.0000
L242.7000 65.6000
" />
<path d="M158.1000 69.9875
L158.1000 73.3875
" />
<path d="M158.1000 73.3875
L160.1000 73.3875
" />
<path d="M160.1000 69.9875
L158.1000 69.9875
" />
<path d="M160.1000 73.3875
L160.1000 69.9875
" />
<path d="M211.7000 92.1875
L211.7000 95.5875
" />
<path d="M211.7000 95.5875
L213.7000 95.5875
" />
<path d="M213.7000 92.1875
L211.7000 92.1875
" />
<path d="M213.7000 95.5875
L213.7000 92.1875
" />
<path d="M130.8125 77.7000
L130.8125 81.1000
" />
<path d="M130.8125 81.1000
L132.8125 81.1000
" />
<path d="M132.8125 77.7000
L130.8125 77.7000
" />
<path d="M132.8125 81.1000
L132.8125 77.7000
" />
<path d="M76.5125 70.1000
L76.5125 73.5000
" />
<path d="M76.5125 73.5000
L78.5125 73.5000
" />
<path d="M78.5125 70.1000
L76.5125 70.1000
" />
<path d="M78.5125 73.5000
L78.5125 70.1000
" />
<path d="M143.5000 128.2125
L143.5000 131.6125
" />
<path d="M143.5000 131.6125
L145.5000 131.6125
" />
<path d="M145.5000 128.2125
L143.5000 128.2125
" />
<path d="M145.5000 131.6125
L145.5000 128.2125
" />
<path d="M185.2000 66.0125
L185.2000 69.4125
" />
<path d="M185.2000 69.4125
L187.2000 69.4125
" />
<path d="M187.2000 66.0125
L185.2000 66.0125
" />
<path d="M187.2000 69.4125
L187.2000 66.0125
" />
<path d="M109.9000 40.3875
L109.9000 43.7875
" />
<path d="M109.9000 43.7875
L111.9000 43.7875
" />
<path d="M111.9000 40.3875
L109.9000 40.3875
" />
<path d="M111.9000 43.7875
L111.9000 40.3875
" />
<path d="M212.6125 65.1875
L212.6125 68.5875
" />
<path d="M212.6125 68.5875
L214.6125 68.5875
" />
<path d="M214.6125 65.1875
L212.6125 65.1875
" />
<path d="M214.6125 68.5875
L214.6125 65.1875
" />
<path d="M240.8000 91.6000
L240.8000 95.0000
" />
<path d="M240.8000 95.0000
L242.8000 95.0000
" />
<path d="M242.8000 91.6000
L240.8000 91.6000
" />
<path d="M242.8000 95.0000
L242.8000 91.6000
" />
<path d="M172.6000 119.6125
L172.6000 123.0125
" />
<path d="M172.6000 123.0125
L174.6000 123.0125
" />
<path d="M174.6000 119.6125
L172.6000 119.6125
" />
<path d="M174.6000 123.0125
L174.6000 119.6125
" />
<path d="M154.2125 96.8000
L154.2125 100.2000
" />
<path d="M154.2125 100.2000
L156.2125 100.2000
" />
<path d="M156.2125 96.8000
L154.2125 96.8000
" />
<path d="M156.2125 100.2000
L156.2125 96.8000
" />
<path d="M183.4000 92.0875
L183.4000 95.4875
" />
<path d="M183.4000 95.4875
L185.4000 95.4875
" />
<path d="M185.4000 92.0875
L183.4000 92.0875
" />
<path d="M185.4000 95.4875
L185.4000 92.0875
" />
<path d="M104.3000 66.6875
L104.3000 70.0875
" />
<path d="M104.3000 70.0875
L106.3000 70.0875
" />
<path d="M106.3000 66.6875
L104.3000 66.6875
" />
<path d="M106.3000 70.0875
L106.3000 66.6875
" />
<path d="M62.0125 95.8000
L62.0125 99.2000
" />
<path d="M62.0125 99.2000
L64.0125 99.2000
" />
<path d="M64.0125 95.8000
L62.0125 95.8000
" />
<path d="M64.0125 99.2000
L64.0125 95.8000
" />
</g>
<g style="fill:none; 
stroke:#D0D2CD; stroke-width:0.0500; stroke-opacity:1; 
stroke-linecap:round; stroke-linejoin:round;">
<path d="M53.0000 150.0000
L241.5000 150.0000
" />
<path d="M129.5750 25.0000
L53.0000 25.0000
" />
<path d="M43.0000 140.0000
L43.0000 35.0000
" />
<path d="M241.5000 150.0000 A10.0000 10.0000 0.0 0 0 251.5000 140.0000" />
<path d="M251.5000 35.0000 A10.0000 10.0000 0.0 0 0 241.5000 25.0000" />
<path d="M141.7750 25.0000
L241.5000 25.0000
" />
<path d="M129.5750 47.3500
L129.5750 25.0000
" />
<path d="M53.0000 25.0000 A10.0000 10.0000 0.0 0 0 43.0000 35.0000" />
<path d="M141.7750 25.0000
L141.7750 47.3500
" />
<path d="M141.7750 47.3500
L129.5750 47.3500
" />
<path d="M43.0000 140.0000 A10.0000 10.0000 0.0 0 0 53.0000 150.0000" />
<path d="M251.5000 35.0000
L251.5000 140.0000
" />
</g> 
</svg>
