  0
SECTION
  2
BLOCKS
  0
ENDSEC
  0
SECTION
  2
ENTITIES
  0
LINE
  8
0
 10
0.0197296
 20
9.3721
 11
0.0788574
 21
8.74667
  0
LINE
  8
0
 10
0.0788574
 20
8.74667
 11
0.177124
 21
8.12619
  0
LINE
  8
0
 10
0.177124
 20
8.12619
 11
0.314163
 21
7.51311
  0
LINE
  8
0
 10
0.314163
 20
7.51311
 11
0.489441
 21
6.90984
  0
LINE
  8
0
 10
0.489441
 20
6.90984
 11
0.70224
 21
6.31876
  0
LINE
  8
0
 10
0.70224
 20
6.31876
 11
0.951736
 21
5.7422
  0
LINE
  8
0
 10
0.951736
 20
5.7422
 11
1.23694
 21
5.18246
  0
LINE
  8
0
 10
1.23694
 20
5.18246
 11
1.55672
 21
4.64174
  0
LINE
  8
0
 10
1.55672
 20
4.64174
 11
1.90984
 21
4.12215
  0
LINE
  8
0
 10
1.90984
 20
4.12215
 11
2.29486
 21
3.62576
  0
LINE
  8
0
 10
2.29486
 20
3.62576
 11
2.71031
 21
3.15453
  0
LINE
  8
0
 10
2.71031
 20
3.15453
 11
3.15453
 21
2.71031
  0
LINE
  8
0
 10
3.15453
 20
2.71031
 11
3.62576
 21
2.29486
  0
LINE
  8
0
 10
3.62576
 20
2.29486
 11
4.12215
 21
1.90984
  0
LINE
  8
0
 10
4.12215
 20
1.90984
 11
4.64174
 21
1.55672
  0
LINE
  8
0
 10
4.64174
 20
1.55672
 11
5.18246
 21
1.23694
  0
LINE
  8
0
 10
5.18246
 20
1.23694
 11
5.7422
 21
0.951736
  0
LINE
  8
0
 10
5.7422
 20
0.951736
 11
6.31876
 21
0.70224
  0
LINE
  8
0
 10
6.31876
 20
0.70224
 11
6.90984
 21
0.489441
  0
LINE
  8
0
 10
6.90984
 20
0.489441
 11
7.51311
 21
0.314163
  0
LINE
  8
0
 10
7.51311
 20
0.314163
 11
8.12619
 21
0.177124
  0
LINE
  8
0
 10
8.12619
 20
0.177124
 11
8.74667
 21
0.0788574
  0
LINE
  8
0
 10
8.74667
 20
0.0788574
 11
9.3721
 21
0.0197296
  0
LINE
  8
0
 10
9.3721
 20
0.0197296
 11
10
 21
0
  0
LINE
  8
0
 10
10
 20
0
 11
198.5
 21
0
  0
LINE
  8
0
 10
198.5
 20
0
 11
199.128
 21
0.0197296
  0
LINE
  8
0
 10
199.128
 20
0.0197296
 11
199.753
 21
0.0788574
  0
LINE
  8
0
 10
199.753
 20
0.0788574
 11
200.374
 21
0.177124
  0
LINE
  8
0
 10
200.374
 20
0.177124
 11
200.987
 21
0.314163
  0
LINE
  8
0
 10
200.987
 20
0.314163
 11
201.59
 21
0.489441
  0
LINE
  8
0
 10
201.59
 20
0.489441
 11
202.181
 21
0.70224
  0
LINE
  8
0
 10
202.181
 20
0.70224
 11
202.758
 21
0.951736
  0
LINE
  8
0
 10
202.758
 20
0.951736
 11
203.318
 21
1.23694
  0
LINE
  8
0
 10
203.318
 20
1.23694
 11
203.858
 21
1.55672
  0
LINE
  8
0
 10
203.858
 20
1.55672
 11
204.378
 21
1.90984
  0
LINE
  8
0
 10
204.378
 20
1.90984
 11
204.874
 21
2.29486
  0
LINE
  8
0
 10
204.874
 20
2.29486
 11
205.345
 21
2.71031
  0
LINE
  8
0
 10
205.345
 20
2.71031
 11
205.79
 21
3.15453
  0
LINE
  8
0
 10
205.79
 20
3.15453
 11
206.205
 21
3.62576
  0
LINE
  8
0
 10
206.205
 20
3.62576
 11
206.59
 21
4.12215
  0
LINE
  8
0
 10
206.59
 20
4.12215
 11
206.943
 21
4.64174
  0
LINE
  8
0
 10
206.943
 20
4.64174
 11
207.263
 21
5.18246
  0
LINE
  8
0
 10
207.263
 20
5.18246
 11
207.548
 21
5.7422
  0
LINE
  8
0
 10
207.548
 20
5.7422
 11
207.798
 21
6.31876
  0
LINE
  8
0
 10
207.798
 20
6.31876
 11
208.011
 21
6.90984
  0
LINE
  8
0
 10
208.011
 20
6.90984
 11
208.186
 21
7.51311
  0
LINE
  8
0
 10
208.186
 20
7.51311
 11
208.323
 21
8.12619
  0
LINE
  8
0
 10
208.323
 20
8.12619
 11
208.421
 21
8.74667
  0
LINE
  8
0
 10
208.421
 20
8.74667
 11
208.48
 21
9.3721
  0
LINE
  8
0
 10
208.48
 20
9.3721
 11
208.5
 21
10
  0
LINE
  8
0
 10
208.5
 20
10
 11
208.5
 21
115
  0
LINE
  8
0
 10
208.5
 20
115
 11
208.48
 21
115.628
  0
LINE
  8
0
 10
208.48
 20
115.628
 11
208.421
 21
116.253
  0
LINE
  8
0
 10
208.421
 20
116.253
 11
208.323
 21
116.874
  0
LINE
  8
0
 10
208.323
 20
116.874
 11
208.186
 21
117.487
  0
LINE
  8
0
 10
208.186
 20
117.487
 11
208.011
 21
118.09
  0
LINE
  8
0
 10
208.011
 20
118.09
 11
207.798
 21
118.681
  0
LINE
  8
0
 10
207.798
 20
118.681
 11
207.548
 21
119.258
  0
LINE
  8
0
 10
207.548
 20
119.258
 11
207.263
 21
119.818
  0
LINE
  8
0
 10
207.263
 20
119.818
 11
206.943
 21
120.358
  0
LINE
  8
0
 10
206.943
 20
120.358
 11
206.59
 21
120.878
  0
LINE
  8
0
 10
206.59
 20
120.878
 11
206.205
 21
121.374
  0
LINE
  8
0
 10
206.205
 20
121.374
 11
205.79
 21
121.845
  0
LINE
  8
0
 10
205.79
 20
121.845
 11
205.345
 21
122.29
  0
LINE
  8
0
 10
205.345
 20
122.29
 11
204.874
 21
122.705
  0
LINE
  8
0
 10
204.874
 20
122.705
 11
204.378
 21
123.09
  0
LINE
  8
0
 10
204.378
 20
123.09
 11
203.858
 21
123.443
  0
LINE
  8
0
 10
203.858
 20
123.443
 11
203.318
 21
123.763
  0
LINE
  8
0
 10
203.318
 20
123.763
 11
202.758
 21
124.048
  0
LINE
  8
0
 10
202.758
 20
124.048
 11
202.181
 21
124.298
  0
LINE
  8
0
 10
202.181
 20
124.298
 11
201.59
 21
124.511
  0
LINE
  8
0
 10
201.59
 20
124.511
 11
200.987
 21
124.686
  0
LINE
  8
0
 10
200.987
 20
124.686
 11
200.374
 21
124.823
  0
LINE
  8
0
 10
200.374
 20
124.823
 11
199.753
 21
124.921
  0
LINE
  8
0
 10
199.753
 20
124.921
 11
199.128
 21
124.98
  0
LINE
  8
0
 10
199.128
 20
124.98
 11
198.5
 21
125
  0
LINE
  8
0
 10
198.5
 20
125
 11
102.5
 21
125
  0
LINE
  8
0
 10
102.5
 20
125
 11
102.5
 21
97
  0
LINE
  8
0
 10
102.5
 20
97
 11
82.5
 21
97
  0
LINE
  8
0
 10
82.5
 20
97
 11
82.5
 21
125
  0
LINE
  8
0
 10
82.5
 20
125
 11
10
 21
125
  0
LINE
  8
0
 10
10
 20
125
 11
9.3721
 21
124.98
  0
LINE
  8
0
 10
9.3721
 20
124.98
 11
8.74667
 21
124.921
  0
LINE
  8
0
 10
8.74667
 20
124.921
 11
8.12619
 21
124.823
  0
LINE
  8
0
 10
8.12619
 20
124.823
 11
7.51311
 21
124.686
  0
LINE
  8
0
 10
7.51311
 20
124.686
 11
6.90984
 21
124.511
  0
LINE
  8
0
 10
6.90984
 20
124.511
 11
6.31876
 21
124.298
  0
LINE
  8
0
 10
6.31876
 20
124.298
 11
5.7422
 21
124.048
  0
LINE
  8
0
 10
5.7422
 20
124.048
 11
5.18246
 21
123.763
  0
LINE
  8
0
 10
5.18246
 20
123.763
 11
4.64174
 21
123.443
  0
LINE
  8
0
 10
4.64174
 20
123.443
 11
4.12215
 21
123.09
  0
LINE
  8
0
 10
4.12215
 20
123.09
 11
3.62576
 21
122.705
  0
LINE
  8
0
 10
3.62576
 20
122.705
 11
3.15453
 21
122.29
  0
LINE
  8
0
 10
3.15453
 20
122.29
 11
2.71031
 21
121.845
  0
LINE
  8
0
 10
2.71031
 20
121.845
 11
2.29486
 21
121.374
  0
LINE
  8
0
 10
2.29486
 20
121.374
 11
1.90984
 21
120.878
  0
LINE
  8
0
 10
1.90984
 20
120.878
 11
1.55672
 21
120.358
  0
LINE
  8
0
 10
1.55672
 20
120.358
 11
1.23694
 21
119.818
  0
LINE
  8
0
 10
1.23694
 20
119.818
 11
0.951736
 21
119.258
  0
LINE
  8
0
 10
0.951736
 20
119.258
 11
0.70224
 21
118.681
  0
LINE
  8
0
 10
0.70224
 20
118.681
 11
0.489441
 21
118.09
  0
LINE
  8
0
 10
0.489441
 20
118.09
 11
0.314163
 21
117.487
  0
LINE
  8
0
 10
0.314163
 20
117.487
 11
0.177124
 21
116.874
  0
LINE
  8
0
 10
0.177124
 20
116.874
 11
0.0788574
 21
116.253
  0
LINE
  8
0
 10
0.0788574
 20
116.253
 11
0.0197296
 21
115.628
  0
LINE
  8
0
 10
0.0197296
 20
115.628
 11
0
 21
115
  0
LINE
  8
0
 10
0
 20
115
 11
0
 21
105.4
  0
LINE
  8
0
 10
0
 20
105.4
 11
17
 21
105.4
  0
LINE
  8
0
 10
17
 20
105.4
 11
17
 21
85.4
  0
LINE
  8
0
 10
17
 20
85.4
 11
0
 21
85.4
  0
LINE
  8
0
 10
0
 20
85.4
 11
0
 21
10
  0
LINE
  8
0
 10
0
 20
10
 11
0.0197296
 21
9.3721
  0
LINE
  8
0
 10
165.215
 20
69.7247
 11
164.433
 21
69.7986
  0
LINE
  8
0
 10
164.433
 20
69.7986
 11
163.658
 21
69.9214
  0
LINE
  8
0
 10
163.658
 20
69.9214
 11
162.891
 21
70.0927
  0
LINE
  8
0
 10
162.891
 20
70.0927
 11
162.137
 21
70.3118
  0
LINE
  8
0
 10
162.137
 20
70.3118
 11
161.398
 21
70.5778
  0
LINE
  8
0
 10
161.398
 20
70.5778
 11
160.678
 21
70.8896
  0
LINE
  8
0
 10
160.678
 20
70.8896
 11
159.978
 21
71.2462
  0
LINE
  8
0
 10
159.978
 20
71.2462
 11
159.302
 21
71.6459
  0
LINE
  8
0
 10
159.302
 20
71.6459
 11
158.653
 21
72.0873
  0
LINE
  8
0
 10
158.653
 20
72.0873
 11
158.032
 21
72.5686
  0
LINE
  8
0
 10
158.032
 20
72.5686
 11
157.443
 21
73.0879
  0
LINE
  8
0
 10
157.443
 20
73.0879
 11
156.888
 21
73.6432
  0
LINE
  8
0
 10
156.888
 20
73.6432
 11
156.369
 21
74.2322
  0
LINE
  8
0
 10
156.369
 20
74.2322
 11
155.887
 21
74.8527
  0
LINE
  8
0
 10
155.887
 20
74.8527
 11
155.446
 21
75.5022
  0
LINE
  8
0
 10
155.446
 20
75.5022
 11
155.046
 21
76.1781
  0
LINE
  8
0
 10
155.046
 20
76.1781
 11
154.69
 21
76.8777
  0
LINE
  8
0
 10
154.69
 20
76.8777
 11
154.378
 21
77.5984
  0
LINE
  8
0
 10
154.378
 20
77.5984
 11
154.112
 21
78.3373
  0
LINE
  8
0
 10
154.112
 20
78.3373
 11
153.893
 21
79.0914
  0
LINE
  8
0
 10
153.893
 20
79.0914
 11
153.721
 21
79.8577
  0
LINE
  8
0
 10
153.721
 20
79.8577
 11
153.599
 21
80.6333
  0
LINE
  8
0
 10
153.599
 20
80.6333
 11
153.525
 21
81.4151
  0
LINE
  8
0
 10
153.525
 20
81.4151
 11
153.5
 21
82.2
  0
LINE
  8
0
 10
153.5
 20
82.2
 11
153.525
 21
82.9849
  0
LINE
  8
0
 10
153.525
 20
82.9849
 11
153.599
 21
83.7667
  0
LINE
  8
0
 10
153.599
 20
83.7667
 11
153.721
 21
84.5423
  0
LINE
  8
0
 10
153.721
 20
84.5423
 11
153.893
 21
85.3086
  0
LINE
  8
0
 10
153.893
 20
85.3086
 11
154.112
 21
86.0627
  0
LINE
  8
0
 10
154.112
 20
86.0627
 11
154.378
 21
86.8015
  0
LINE
  8
0
 10
154.378
 20
86.8015
 11
154.69
 21
87.5222
  0
LINE
  8
0
 10
154.69
 20
87.5222
 11
155.046
 21
88.2219
  0
LINE
  8
0
 10
155.046
 20
88.2219
 11
155.446
 21
88.8978
  0
LINE
  8
0
 10
155.446
 20
88.8978
 11
155.887
 21
89.5473
  0
LINE
  8
0
 10
155.887
 20
89.5473
 11
156.369
 21
90.1678
  0
LINE
  8
0
 10
156.369
 20
90.1678
 11
156.888
 21
90.7568
  0
LINE
  8
0
 10
156.888
 20
90.7568
 11
157.443
 21
91.3121
  0
LINE
  8
0
 10
157.443
 20
91.3121
 11
158.032
 21
91.8314
  0
LINE
  8
0
 10
158.032
 20
91.8314
 11
158.653
 21
92.3127
  0
LINE
  8
0
 10
158.653
 20
92.3127
 11
159.302
 21
92.7541
  0
LINE
  8
0
 10
159.302
 20
92.7541
 11
159.978
 21
93.1538
  0
LINE
  8
0
 10
159.978
 20
93.1538
 11
160.678
 21
93.5103
  0
LINE
  8
0
 10
160.678
 20
93.5103
 11
161.398
 21
93.8222
  0
LINE
  8
0
 10
161.398
 20
93.8222
 11
162.137
 21
94.0882
  0
LINE
  8
0
 10
162.137
 20
94.0882
 11
162.891
 21
94.3073
  0
LINE
  8
0
 10
162.891
 20
94.3073
 11
163.658
 21
94.4786
  0
LINE
  8
0
 10
163.658
 20
94.4786
 11
163.793
 21
94.5
  0
LINE
  8
0
 10
163.793
 20
94.5
 11
138
 21
94.5
  0
LINE
  8
0
 10
138
 20
94.5
 11
138
 21
123.5
  0
LINE
  8
0
 10
138
 20
123.5
 11
168
 21
123.5
  0
LINE
  8
0
 10
168
 20
123.5
 11
168
 21
94.5328
  0
LINE
  8
0
 10
168
 20
94.5328
 11
168.342
 21
94.4786
  0
LINE
  8
0
 10
168.342
 20
94.4786
 11
169.109
 21
94.3073
  0
LINE
  8
0
 10
169.109
 20
94.3073
 11
169.863
 21
94.0882
  0
LINE
  8
0
 10
169.863
 20
94.0882
 11
170.602
 21
93.8222
  0
LINE
  8
0
 10
170.602
 20
93.8222
 11
171.322
 21
93.5103
  0
LINE
  8
0
 10
171.322
 20
93.5103
 11
172.022
 21
93.1538
  0
LINE
  8
0
 10
172.022
 20
93.1538
 11
172.698
 21
92.7541
  0
LINE
  8
0
 10
172.698
 20
92.7541
 11
173.347
 21
92.3127
  0
LINE
  8
0
 10
173.347
 20
92.3127
 11
173.968
 21
91.8314
  0
LINE
  8
0
 10
173.968
 20
91.8314
 11
174.557
 21
91.3121
  0
LINE
  8
0
 10
174.557
 20
91.3121
 11
175.112
 21
90.7568
  0
LINE
  8
0
 10
175.112
 20
90.7568
 11
175.631
 21
90.1678
  0
LINE
  8
0
 10
175.631
 20
90.1678
 11
176.113
 21
89.5473
  0
LINE
  8
0
 10
176.113
 20
89.5473
 11
176.554
 21
88.8978
  0
LINE
  8
0
 10
176.554
 20
88.8978
 11
176.954
 21
88.2219
  0
LINE
  8
0
 10
176.954
 20
88.2219
 11
177.31
 21
87.5222
  0
LINE
  8
0
 10
177.31
 20
87.5222
 11
177.622
 21
86.8015
  0
LINE
  8
0
 10
177.622
 20
86.8015
 11
177.888
 21
86.0627
  0
LINE
  8
0
 10
177.888
 20
86.0627
 11
178.107
 21
85.3086
  0
LINE
  8
0
 10
178.107
 20
85.3086
 11
178.279
 21
84.5423
  0
LINE
  8
0
 10
178.279
 20
84.5423
 11
178.401
 21
83.7667
  0
LINE
  8
0
 10
178.401
 20
83.7667
 11
178.475
 21
82.9849
  0
LINE
  8
0
 10
178.475
 20
82.9849
 11
178.5
 21
82.2
  0
LINE
  8
0
 10
178.5
 20
82.2
 11
178.475
 21
81.4151
  0
LINE
  8
0
 10
178.475
 20
81.4151
 11
178.401
 21
80.6333
  0
LINE
  8
0
 10
178.401
 20
80.6333
 11
178.279
 21
79.8577
  0
LINE
  8
0
 10
178.279
 20
79.8577
 11
178.107
 21
79.0914
  0
LINE
  8
0
 10
178.107
 20
79.0914
 11
177.888
 21
78.3373
  0
LINE
  8
0
 10
177.888
 20
78.3373
 11
177.622
 21
77.5984
  0
LINE
  8
0
 10
177.622
 20
77.5984
 11
177.31
 21
76.8777
  0
LINE
  8
0
 10
177.31
 20
76.8777
 11
176.954
 21
76.1781
  0
LINE
  8
0
 10
176.954
 20
76.1781
 11
176.554
 21
75.5022
  0
LINE
  8
0
 10
176.554
 20
75.5022
 11
176.113
 21
74.8527
  0
LINE
  8
0
 10
176.113
 20
74.8527
 11
175.631
 21
74.2322
  0
LINE
  8
0
 10
175.631
 20
74.2322
 11
175.112
 21
73.6432
  0
LINE
  8
0
 10
175.112
 20
73.6432
 11
174.557
 21
73.0879
  0
LINE
  8
0
 10
174.557
 20
73.0879
 11
173.968
 21
72.5686
  0
LINE
  8
0
 10
173.968
 20
72.5686
 11
173.347
 21
72.0873
  0
LINE
  8
0
 10
173.347
 20
72.0873
 11
172.698
 21
71.6459
  0
LINE
  8
0
 10
172.698
 20
71.6459
 11
172.022
 21
71.2462
  0
LINE
  8
0
 10
172.022
 20
71.2462
 11
171.322
 21
70.8896
  0
LINE
  8
0
 10
171.322
 20
70.8896
 11
170.602
 21
70.5778
  0
LINE
  8
0
 10
170.602
 20
70.5778
 11
169.863
 21
70.3118
  0
LINE
  8
0
 10
169.863
 20
70.3118
 11
169.109
 21
70.0927
  0
LINE
  8
0
 10
169.109
 20
70.0927
 11
168.342
 21
69.9214
  0
LINE
  8
0
 10
168.342
 20
69.9214
 11
167.567
 21
69.7986
  0
LINE
  8
0
 10
167.567
 20
69.7986
 11
166.785
 21
69.7247
  0
LINE
  8
0
 10
166.785
 20
69.7247
 11
166
 21
69.7
  0
LINE
  8
0
 10
166
 20
69.7
 11
165.215
 21
69.7247
  0
LINE
  8
0
 10
13.25
 20
111.35
 11
13.25
 21
120.85
  0
LINE
  8
0
 10
13.25
 20
120.85
 11
48.25
 21
120.85
  0
LINE
  8
0
 10
48.25
 20
120.85
 11
48.25
 21
111.35
  0
LINE
  8
0
 10
48.25
 20
111.35
 11
13.25
 21
111.35
  0
LINE
  8
0
 10
120.615
 20
95.2747
 11
119.833
 21
95.3486
  0
LINE
  8
0
 10
119.833
 20
95.3486
 11
119.058
 21
95.4714
  0
LINE
  8
0
 10
119.058
 20
95.4714
 11
118.291
 21
95.6427
  0
LINE
  8
0
 10
118.291
 20
95.6427
 11
117.537
 21
95.8618
  0
LINE
  8
0
 10
117.537
 20
95.8618
 11
116.798
 21
96.1278
  0
LINE
  8
0
 10
116.798
 20
96.1278
 11
116.078
 21
96.4397
  0
LINE
  8
0
 10
116.078
 20
96.4397
 11
115.378
 21
96.7962
  0
LINE
  8
0
 10
115.378
 20
96.7962
 11
114.702
 21
97.1959
  0
LINE
  8
0
 10
114.702
 20
97.1959
 11
114.053
 21
97.6373
  0
LINE
  8
0
 10
114.053
 20
97.6373
 11
113.432
 21
98.1186
  0
LINE
  8
0
 10
113.432
 20
98.1186
 11
112.843
 21
98.6379
  0
LINE
  8
0
 10
112.843
 20
98.6379
 11
112.288
 21
99.1932
  0
LINE
  8
0
 10
112.288
 20
99.1932
 11
111.769
 21
99.7822
  0
LINE
  8
0
 10
111.769
 20
99.7822
 11
111.287
 21
100.403
  0
LINE
  8
0
 10
111.287
 20
100.403
 11
110.846
 21
101.052
  0
LINE
  8
0
 10
110.846
 20
101.052
 11
110.446
 21
101.728
  0
LINE
  8
0
 10
110.446
 20
101.728
 11
110.09
 21
102.428
  0
LINE
  8
0
 10
110.09
 20
102.428
 11
109.778
 21
103.148
  0
LINE
  8
0
 10
109.778
 20
103.148
 11
109.512
 21
103.887
  0
LINE
  8
0
 10
109.512
 20
103.887
 11
109.293
 21
104.641
  0
LINE
  8
0
 10
109.293
 20
104.641
 11
109.121
 21
105.408
  0
LINE
  8
0
 10
109.121
 20
105.408
 11
108.999
 21
106.183
  0
LINE
  8
0
 10
108.999
 20
106.183
 11
108.925
 21
106.965
  0
LINE
  8
0
 10
108.925
 20
106.965
 11
108.9
 21
107.75
  0
LINE
  8
0
 10
108.9
 20
107.75
 11
108.925
 21
108.535
  0
LINE
  8
0
 10
108.925
 20
108.535
 11
108.999
 21
109.317
  0
LINE
  8
0
 10
108.999
 20
109.317
 11
109.121
 21
110.092
  0
LINE
  8
0
 10
109.121
 20
110.092
 11
109.293
 21
110.859
  0
LINE
  8
0
 10
109.293
 20
110.859
 11
109.512
 21
111.613
  0
LINE
  8
0
 10
109.512
 20
111.613
 11
109.778
 21
112.352
  0
LINE
  8
0
 10
109.778
 20
112.352
 11
110.09
 21
113.072
  0
LINE
  8
0
 10
110.09
 20
113.072
 11
110.446
 21
113.772
  0
LINE
  8
0
 10
110.446
 20
113.772
 11
110.846
 21
114.448
  0
LINE
  8
0
 10
110.846
 20
114.448
 11
111.287
 21
115.097
  0
LINE
  8
0
 10
111.287
 20
115.097
 11
111.769
 21
115.718
  0
LINE
  8
0
 10
111.769
 20
115.718
 11
112.288
 21
116.307
  0
LINE
  8
0
 10
112.288
 20
116.307
 11
112.843
 21
116.862
  0
LINE
  8
0
 10
112.843
 20
116.862
 11
113.432
 21
117.381
  0
LINE
  8
0
 10
113.432
 20
117.381
 11
114.053
 21
117.863
  0
LINE
  8
0
 10
114.053
 20
117.863
 11
114.702
 21
118.304
  0
LINE
  8
0
 10
114.702
 20
118.304
 11
115.378
 21
118.704
  0
LINE
  8
0
 10
115.378
 20
118.704
 11
116.078
 21
119.06
  0
LINE
  8
0
 10
116.078
 20
119.06
 11
116.798
 21
119.372
  0
LINE
  8
0
 10
116.798
 20
119.372
 11
117.537
 21
119.638
  0
LINE
  8
0
 10
117.537
 20
119.638
 11
118.291
 21
119.857
  0
LINE
  8
0
 10
118.291
 20
119.857
 11
119.058
 21
120.029
  0
LINE
  8
0
 10
119.058
 20
120.029
 11
119.833
 21
120.151
  0
LINE
  8
0
 10
119.833
 20
120.151
 11
120.615
 21
120.225
  0
LINE
  8
0
 10
120.615
 20
120.225
 11
121.4
 21
120.25
  0
LINE
  8
0
 10
121.4
 20
120.25
 11
122.185
 21
120.225
  0
LINE
  8
0
 10
122.185
 20
120.225
 11
122.967
 21
120.151
  0
LINE
  8
0
 10
122.967
 20
120.151
 11
123.742
 21
120.029
  0
LINE
  8
0
 10
123.742
 20
120.029
 11
124.509
 21
119.857
  0
LINE
  8
0
 10
124.509
 20
119.857
 11
125.263
 21
119.638
  0
LINE
  8
0
 10
125.263
 20
119.638
 11
126.002
 21
119.372
  0
LINE
  8
0
 10
126.002
 20
119.372
 11
126.722
 21
119.06
  0
LINE
  8
0
 10
126.722
 20
119.06
 11
127.422
 21
118.704
  0
LINE
  8
0
 10
127.422
 20
118.704
 11
128.098
 21
118.304
  0
LINE
  8
0
 10
128.098
 20
118.304
 11
128.747
 21
117.863
  0
LINE
  8
0
 10
128.747
 20
117.863
 11
129.368
 21
117.381
  0
LINE
  8
0
 10
129.368
 20
117.381
 11
129.957
 21
116.862
  0
LINE
  8
0
 10
129.957
 20
116.862
 11
130.512
 21
116.307
  0
LINE
  8
0
 10
130.512
 20
116.307
 11
131.031
 21
115.718
  0
LINE
  8
0
 10
131.031
 20
115.718
 11
131.513
 21
115.097
  0
LINE
  8
0
 10
131.513
 20
115.097
 11
131.954
 21
114.448
  0
LINE
  8
0
 10
131.954
 20
114.448
 11
132.354
 21
113.772
  0
LINE
  8
0
 10
132.354
 20
113.772
 11
132.71
 21
113.072
  0
LINE
  8
0
 10
132.71
 20
113.072
 11
133.022
 21
112.352
  0
LINE
  8
0
 10
133.022
 20
112.352
 11
133.288
 21
111.613
  0
LINE
  8
0
 10
133.288
 20
111.613
 11
133.507
 21
110.859
  0
LINE
  8
0
 10
133.507
 20
110.859
 11
133.679
 21
110.092
  0
LINE
  8
0
 10
133.679
 20
110.092
 11
133.801
 21
109.317
  0
LINE
  8
0
 10
133.801
 20
109.317
 11
133.875
 21
108.535
  0
LINE
  8
0
 10
133.875
 20
108.535
 11
133.9
 21
107.75
  0
LINE
  8
0
 10
133.9
 20
107.75
 11
133.875
 21
106.965
  0
LINE
  8
0
 10
133.875
 20
106.965
 11
133.801
 21
106.183
  0
LINE
  8
0
 10
133.801
 20
106.183
 11
133.679
 21
105.408
  0
LINE
  8
0
 10
133.679
 20
105.408
 11
133.507
 21
104.641
  0
LINE
  8
0
 10
133.507
 20
104.641
 11
133.288
 21
103.887
  0
LINE
  8
0
 10
133.288
 20
103.887
 11
133.022
 21
103.148
  0
LINE
  8
0
 10
133.022
 20
103.148
 11
132.71
 21
102.428
  0
LINE
  8
0
 10
132.71
 20
102.428
 11
132.354
 21
101.728
  0
LINE
  8
0
 10
132.354
 20
101.728
 11
131.954
 21
101.052
  0
LINE
  8
0
 10
131.954
 20
101.052
 11
131.513
 21
100.403
  0
LINE
  8
0
 10
131.513
 20
100.403
 11
131.031
 21
99.7822
  0
LINE
  8
0
 10
131.031
 20
99.7822
 11
130.512
 21
99.1932
  0
LINE
  8
0
 10
130.512
 20
99.1932
 11
129.957
 21
98.6379
  0
LINE
  8
0
 10
129.957
 20
98.6379
 11
129.368
 21
98.1186
  0
LINE
  8
0
 10
129.368
 20
98.1186
 11
128.747
 21
97.6373
  0
LINE
  8
0
 10
128.747
 20
97.6373
 11
128.098
 21
97.1959
  0
LINE
  8
0
 10
128.098
 20
97.1959
 11
127.422
 21
96.7962
  0
LINE
  8
0
 10
127.422
 20
96.7962
 11
126.722
 21
96.4397
  0
LINE
  8
0
 10
126.722
 20
96.4397
 11
126.002
 21
96.1278
  0
LINE
  8
0
 10
126.002
 20
96.1278
 11
125.263
 21
95.8618
  0
LINE
  8
0
 10
125.263
 20
95.8618
 11
124.509
 21
95.6427
  0
LINE
  8
0
 10
124.509
 20
95.6427
 11
123.742
 21
95.4714
  0
LINE
  8
0
 10
123.742
 20
95.4714
 11
122.967
 21
95.3486
  0
LINE
  8
0
 10
122.967
 20
95.3486
 11
122.185
 21
95.2747
  0
LINE
  8
0
 10
122.185
 20
95.2747
 11
121.4
 21
95.25
  0
LINE
  8
0
 10
121.4
 20
95.25
 11
120.615
 21
95.2747
  0
LINE
  8
0
 10
62.3151
 20
95.0747
 11
61.5333
 21
95.1486
  0
LINE
  8
0
 10
61.5333
 20
95.1486
 11
60.7577
 21
95.2714
  0
LINE
  8
0
 10
60.7577
 20
95.2714
 11
59.9914
 21
95.4427
  0
LINE
  8
0
 10
59.9914
 20
95.4427
 11
59.2373
 21
95.6618
  0
LINE
  8
0
 10
59.2373
 20
95.6618
 11
58.4984
 21
95.9278
  0
LINE
  8
0
 10
58.4984
 20
95.9278
 11
57.7778
 21
96.2397
  0
LINE
  8
0
 10
57.7778
 20
96.2397
 11
57.0781
 21
96.5962
  0
LINE
  8
0
 10
57.0781
 20
96.5962
 11
56.4022
 21
96.9959
  0
LINE
  8
0
 10
56.4022
 20
96.9959
 11
55.7527
 21
97.4373
  0
LINE
  8
0
 10
55.7527
 20
97.4373
 11
55.1322
 21
97.9186
  0
LINE
  8
0
 10
55.1322
 20
97.9186
 11
54.5432
 21
98.4379
  0
LINE
  8
0
 10
54.5432
 20
98.4379
 11
53.9879
 21
98.9931
  0
LINE
  8
0
 10
53.9879
 20
98.9931
 11
53.4686
 21
99.5822
  0
LINE
  8
0
 10
53.4686
 20
99.5822
 11
52.9873
 21
100.203
  0
LINE
  8
0
 10
52.9873
 20
100.203
 11
52.5459
 21
100.852
  0
LINE
  8
0
 10
52.5459
 20
100.852
 11
52.1462
 21
101.528
  0
LINE
  8
0
 10
52.1462
 20
101.528
 11
51.7897
 21
102.228
  0
LINE
  8
0
 10
51.7897
 20
102.228
 11
51.4778
 21
102.948
  0
LINE
  8
0
 10
51.4778
 20
102.948
 11
51.2118
 21
103.687
  0
LINE
  8
0
 10
51.2118
 20
103.687
 11
50.9927
 21
104.441
  0
LINE
  8
0
 10
50.9927
 20
104.441
 11
50.8214
 21
105.208
  0
LINE
  8
0
 10
50.8214
 20
105.208
 11
50.6986
 21
105.983
  0
LINE
  8
0
 10
50.6986
 20
105.983
 11
50.6247
 21
106.765
  0
LINE
  8
0
 10
50.6247
 20
106.765
 11
50.6
 21
107.55
  0
LINE
  8
0
 10
50.6
 20
107.55
 11
50.6247
 21
108.335
  0
LINE
  8
0
 10
50.6247
 20
108.335
 11
50.6986
 21
109.117
  0
LINE
  8
0
 10
50.6986
 20
109.117
 11
50.8214
 21
109.892
  0
LINE
  8
0
 10
50.8214
 20
109.892
 11
50.9927
 21
110.659
  0
LINE
  8
0
 10
50.9927
 20
110.659
 11
51.2118
 21
111.413
  0
LINE
  8
0
 10
51.2118
 20
111.413
 11
51.4778
 21
112.152
  0
LINE
  8
0
 10
51.4778
 20
112.152
 11
51.7897
 21
112.872
  0
LINE
  8
0
 10
51.7897
 20
112.872
 11
52.1462
 21
113.572
  0
LINE
  8
0
 10
52.1462
 20
113.572
 11
52.5459
 21
114.248
  0
LINE
  8
0
 10
52.5459
 20
114.248
 11
52.9873
 21
114.897
  0
LINE
  8
0
 10
52.9873
 20
114.897
 11
53.4686
 21
115.518
  0
LINE
  8
0
 10
53.4686
 20
115.518
 11
53.9879
 21
116.107
  0
LINE
  8
0
 10
53.9879
 20
116.107
 11
54.5432
 21
116.662
  0
LINE
  8
0
 10
54.5432
 20
116.662
 11
55.1322
 21
117.181
  0
LINE
  8
0
 10
55.1322
 20
117.181
 11
55.7527
 21
117.663
  0
LINE
  8
0
 10
55.7527
 20
117.663
 11
56.4022
 21
118.104
  0
LINE
  8
0
 10
56.4022
 20
118.104
 11
57.0781
 21
118.504
  0
LINE
  8
0
 10
57.0781
 20
118.504
 11
57.7778
 21
118.86
  0
LINE
  8
0
 10
57.7778
 20
118.86
 11
58.4984
 21
119.172
  0
LINE
  8
0
 10
58.4984
 20
119.172
 11
59.2373
 21
119.438
  0
LINE
  8
0
 10
59.2373
 20
119.438
 11
59.9914
 21
119.657
  0
LINE
  8
0
 10
59.9914
 20
119.657
 11
60.7577
 21
119.829
  0
LINE
  8
0
 10
60.7577
 20
119.829
 11
61.5333
 21
119.951
  0
LINE
  8
0
 10
61.5333
 20
119.951
 11
62.3151
 21
120.025
  0
LINE
  8
0
 10
62.3151
 20
120.025
 11
63.1
 21
120.05
  0
LINE
  8
0
 10
63.1
 20
120.05
 11
63.8849
 21
120.025
  0
LINE
  8
0
 10
63.8849
 20
120.025
 11
64.6667
 21
119.951
  0
LINE
  8
0
 10
64.6667
 20
119.951
 11
65.4423
 21
119.829
  0
LINE
  8
0
 10
65.4423
 20
119.829
 11
66.2086
 21
119.657
  0
LINE
  8
0
 10
66.2086
 20
119.657
 11
66.9627
 21
119.438
  0
LINE
  8
0
 10
66.9627
 20
119.438
 11
67.7016
 21
119.172
  0
LINE
  8
0
 10
67.7016
 20
119.172
 11
68.4222
 21
118.86
  0
LINE
  8
0
 10
68.4222
 20
118.86
 11
69.1219
 21
118.504
  0
LINE
  8
0
 10
69.1219
 20
118.504
 11
69.7978
 21
118.104
  0
LINE
  8
0
 10
69.7978
 20
118.104
 11
70.4473
 21
117.663
  0
LINE
  8
0
 10
70.4473
 20
117.663
 11
71.0678
 21
117.181
  0
LINE
  8
0
 10
71.0678
 20
117.181
 11
71.6568
 21
116.662
  0
LINE
  8
0
 10
71.6568
 20
116.662
 11
72.2121
 21
116.107
  0
LINE
  8
0
 10
72.2121
 20
116.107
 11
72.7314
 21
115.518
  0
LINE
  8
0
 10
72.7314
 20
115.518
 11
73.2127
 21
114.897
  0
LINE
  8
0
 10
73.2127
 20
114.897
 11
73.6541
 21
114.248
  0
LINE
  8
0
 10
73.6541
 20
114.248
 11
74.0538
 21
113.572
  0
LINE
  8
0
 10
74.0538
 20
113.572
 11
74.4103
 21
112.872
  0
LINE
  8
0
 10
74.4103
 20
112.872
 11
74.7222
 21
112.152
  0
LINE
  8
0
 10
74.7222
 20
112.152
 11
74.9882
 21
111.413
  0
LINE
  8
0
 10
74.9882
 20
111.413
 11
75.2073
 21
110.659
  0
LINE
  8
0
 10
75.2073
 20
110.659
 11
75.3786
 21
109.892
  0
LINE
  8
0
 10
75.3786
 20
109.892
 11
75.5014
 21
109.117
  0
LINE
  8
0
 10
75.5014
 20
109.117
 11
75.5753
 21
108.335
  0
LINE
  8
0
 10
75.5753
 20
108.335
 11
75.6
 21
107.55
  0
LINE
  8
0
 10
75.6
 20
107.55
 11
75.5753
 21
106.765
  0
LINE
  8
0
 10
75.5753
 20
106.765
 11
75.5014
 21
105.983
  0
LINE
  8
0
 10
75.5014
 20
105.983
 11
75.3786
 21
105.208
  0
LINE
  8
0
 10
75.3786
 20
105.208
 11
75.2073
 21
104.441
  0
LINE
  8
0
 10
75.2073
 20
104.441
 11
74.9882
 21
103.687
  0
LINE
  8
0
 10
74.9882
 20
103.687
 11
74.7222
 21
102.948
  0
LINE
  8
0
 10
74.7222
 20
102.948
 11
74.4103
 21
102.228
  0
LINE
  8
0
 10
74.4103
 20
102.228
 11
74.0538
 21
101.528
  0
LINE
  8
0
 10
74.0538
 20
101.528
 11
73.6541
 21
100.852
  0
LINE
  8
0
 10
73.6541
 20
100.852
 11
73.2127
 21
100.203
  0
LINE
  8
0
 10
73.2127
 20
100.203
 11
72.7314
 21
99.5822
  0
LINE
  8
0
 10
72.7314
 20
99.5822
 11
72.2121
 21
98.9931
  0
LINE
  8
0
 10
72.2121
 20
98.9931
 11
71.6568
 21
98.4379
  0
LINE
  8
0
 10
71.6568
 20
98.4379
 11
71.0678
 21
97.9186
  0
LINE
  8
0
 10
71.0678
 20
97.9186
 11
70.4473
 21
97.4373
  0
LINE
  8
0
 10
70.4473
 20
97.4373
 11
69.7978
 21
96.9959
  0
LINE
  8
0
 10
69.7978
 20
96.9959
 11
69.1219
 21
96.5962
  0
LINE
  8
0
 10
69.1219
 20
96.5962
 11
68.4222
 21
96.2397
  0
LINE
  8
0
 10
68.4222
 20
96.2397
 11
67.7016
 21
95.9278
  0
LINE
  8
0
 10
67.7016
 20
95.9278
 11
66.9627
 21
95.6618
  0
LINE
  8
0
 10
66.9627
 20
95.6618
 11
66.2086
 21
95.4427
  0
LINE
  8
0
 10
66.2086
 20
95.4427
 11
65.4423
 21
95.2714
  0
LINE
  8
0
 10
65.4423
 20
95.2714
 11
64.6667
 21
95.1486
  0
LINE
  8
0
 10
64.6667
 20
95.1486
 11
63.8849
 21
95.0747
  0
LINE
  8
0
 10
63.8849
 20
95.0747
 11
63.1
 21
95.05
  0
LINE
  8
0
 10
63.1
 20
95.05
 11
62.3151
 21
95.0747
  0
LINE
  8
0
 10
9.42967
 20
116.382
 11
9.35962
 21
116.389
  0
LINE
  8
0
 10
9.35962
 20
116.389
 11
9.29013
 21
116.4
  0
LINE
  8
0
 10
9.29013
 20
116.4
 11
9.22147
 21
116.415
  0
LINE
  8
0
 10
9.22147
 20
116.415
 11
9.1539
 21
116.435
  0
LINE
  8
0
 10
9.1539
 20
116.435
 11
9.08769
 21
116.459
  0
LINE
  8
0
 10
9.08769
 20
116.459
 11
9.02312
 21
116.487
  0
LINE
  8
0
 10
9.02312
 20
116.487
 11
8.96043
 21
116.519
  0
LINE
  8
0
 10
8.96043
 20
116.519
 11
8.89987
 21
116.554
  0
LINE
  8
0
 10
8.89987
 20
116.554
 11
8.84167
 21
116.594
  0
LINE
  8
0
 10
8.84167
 20
116.594
 11
8.78607
 21
116.637
  0
LINE
  8
0
 10
8.78607
 20
116.637
 11
8.73331
 21
116.684
  0
LINE
  8
0
 10
8.73331
 20
116.684
 11
8.68355
 21
116.733
  0
LINE
  8
0
 10
8.68355
 20
116.733
 11
8.63702
 21
116.786
  0
LINE
  8
0
 10
8.63702
 20
116.786
 11
8.59389
 21
116.842
  0
LINE
  8
0
 10
8.59389
 20
116.842
 11
8.55435
 21
116.9
  0
LINE
  8
0
 10
8.55435
 20
116.9
 11
8.51852
 21
116.96
  0
LINE
  8
0
 10
8.51852
 20
116.96
 11
8.48659
 21
117.023
  0
LINE
  8
0
 10
8.48659
 20
117.023
 11
8.45865
 21
117.088
  0
LINE
  8
0
 10
8.45865
 20
117.088
 11
8.43481
 21
117.154
  0
LINE
  8
0
 10
8.43481
 20
117.154
 11
8.41518
 21
117.221
  0
LINE
  8
0
 10
8.41518
 20
117.221
 11
8.39983
 21
117.29
  0
LINE
  8
0
 10
8.39983
 20
117.29
 11
8.38882
 21
117.36
  0
LINE
  8
0
 10
8.38882
 20
117.36
 11
8.3822
 21
117.43
  0
LINE
  8
0
 10
8.3822
 20
117.43
 11
8.37999
 21
117.5
  0
LINE
  8
0
 10
8.37999
 20
117.5
 11
8.3822
 21
117.57
  0
LINE
  8
0
 10
8.3822
 20
117.57
 11
8.38882
 21
117.64
  0
LINE
  8
0
 10
8.38882
 20
117.64
 11
8.39983
 21
117.71
  0
LINE
  8
0
 10
8.39983
 20
117.71
 11
8.41518
 21
117.779
  0
LINE
  8
0
 10
8.41518
 20
117.779
 11
8.43481
 21
117.846
  0
LINE
  8
0
 10
8.43481
 20
117.846
 11
8.45865
 21
117.912
  0
LINE
  8
0
 10
8.45865
 20
117.912
 11
8.48659
 21
117.977
  0
LINE
  8
0
 10
8.48659
 20
117.977
 11
8.51852
 21
118.04
  0
LINE
  8
0
 10
8.51852
 20
118.04
 11
8.55435
 21
118.1
  0
LINE
  8
0
 10
8.55435
 20
118.1
 11
8.59389
 21
118.158
  0
LINE
  8
0
 10
8.59389
 20
118.158
 11
8.63702
 21
118.214
  0
LINE
  8
0
 10
8.63702
 20
118.214
 11
8.68355
 21
118.267
  0
LINE
  8
0
 10
8.68355
 20
118.267
 11
8.73331
 21
118.316
  0
LINE
  8
0
 10
8.73331
 20
118.316
 11
8.78607
 21
118.363
  0
LINE
  8
0
 10
8.78607
 20
118.363
 11
8.84167
 21
118.406
  0
LINE
  8
0
 10
8.84167
 20
118.406
 11
8.89987
 21
118.446
  0
LINE
  8
0
 10
8.89987
 20
118.446
 11
8.96043
 21
118.481
  0
LINE
  8
0
 10
8.96043
 20
118.481
 11
9.02312
 21
118.513
  0
LINE
  8
0
 10
9.02312
 20
118.513
 11
9.08769
 21
118.541
  0
LINE
  8
0
 10
9.08769
 20
118.541
 11
9.1539
 21
118.565
  0
LINE
  8
0
 10
9.1539
 20
118.565
 11
9.22147
 21
118.585
  0
LINE
  8
0
 10
9.22147
 20
118.585
 11
9.29013
 21
118.6
  0
LINE
  8
0
 10
9.29013
 20
118.6
 11
9.35962
 21
118.611
  0
LINE
  8
0
 10
9.35962
 20
118.611
 11
9.42967
 21
118.618
  0
LINE
  8
0
 10
9.42967
 20
118.618
 11
9.5
 21
118.62
  0
LINE
  8
0
 10
9.5
 20
118.62
 11
9.57031
 21
118.618
  0
LINE
  8
0
 10
9.57031
 20
118.618
 11
9.64037
 21
118.611
  0
LINE
  8
0
 10
9.64037
 20
118.611
 11
9.70985
 21
118.6
  0
LINE
  8
0
 10
9.70985
 20
118.6
 11
9.77852
 21
118.585
  0
LINE
  8
0
 10
9.77852
 20
118.585
 11
9.84608
 21
118.565
  0
LINE
  8
0
 10
9.84608
 20
118.565
 11
9.91229
 21
118.541
  0
LINE
  8
0
 10
9.91229
 20
118.541
 11
9.97687
 21
118.513
  0
LINE
  8
0
 10
9.97687
 20
118.513
 11
10.0396
 21
118.481
  0
LINE
  8
0
 10
10.0396
 20
118.481
 11
10.1001
 21
118.446
  0
LINE
  8
0
 10
10.1001
 20
118.446
 11
10.1583
 21
118.406
  0
LINE
  8
0
 10
10.1583
 20
118.406
 11
10.2139
 21
118.363
  0
LINE
  8
0
 10
10.2139
 20
118.363
 11
10.2667
 21
118.316
  0
LINE
  8
0
 10
10.2667
 20
118.316
 11
10.3164
 21
118.267
  0
LINE
  8
0
 10
10.3164
 20
118.267
 11
10.363
 21
118.214
  0
LINE
  8
0
 10
10.363
 20
118.214
 11
10.4061
 21
118.158
  0
LINE
  8
0
 10
10.4061
 20
118.158
 11
10.4456
 21
118.1
  0
LINE
  8
0
 10
10.4456
 20
118.1
 11
10.4815
 21
118.04
  0
LINE
  8
0
 10
10.4815
 20
118.04
 11
10.5134
 21
117.977
  0
LINE
  8
0
 10
10.5134
 20
117.977
 11
10.5413
 21
117.912
  0
LINE
  8
0
 10
10.5413
 20
117.912
 11
10.5652
 21
117.846
  0
LINE
  8
0
 10
10.5652
 20
117.846
 11
10.5848
 21
117.779
  0
LINE
  8
0
 10
10.5848
 20
117.779
 11
10.6002
 21
117.71
  0
LINE
  8
0
 10
10.6002
 20
117.71
 11
10.6112
 21
117.64
  0
LINE
  8
0
 10
10.6112
 20
117.64
 11
10.6178
 21
117.57
  0
LINE
  8
0
 10
10.6178
 20
117.57
 11
10.62
 21
117.5
  0
LINE
  8
0
 10
10.62
 20
117.5
 11
10.6178
 21
117.43
  0
LINE
  8
0
 10
10.6178
 20
117.43
 11
10.6112
 21
117.36
  0
LINE
  8
0
 10
10.6112
 20
117.36
 11
10.6002
 21
117.29
  0
LINE
  8
0
 10
10.6002
 20
117.29
 11
10.5848
 21
117.221
  0
LINE
  8
0
 10
10.5848
 20
117.221
 11
10.5652
 21
117.154
  0
LINE
  8
0
 10
10.5652
 20
117.154
 11
10.5413
 21
117.088
  0
LINE
  8
0
 10
10.5413
 20
117.088
 11
10.5134
 21
117.023
  0
LINE
  8
0
 10
10.5134
 20
117.023
 11
10.4815
 21
116.96
  0
LINE
  8
0
 10
10.4815
 20
116.96
 11
10.4456
 21
116.9
  0
LINE
  8
0
 10
10.4456
 20
116.9
 11
10.4061
 21
116.842
  0
LINE
  8
0
 10
10.4061
 20
116.842
 11
10.363
 21
116.786
  0
LINE
  8
0
 10
10.363
 20
116.786
 11
10.3164
 21
116.733
  0
LINE
  8
0
 10
10.3164
 20
116.733
 11
10.2667
 21
116.684
  0
LINE
  8
0
 10
10.2667
 20
116.684
 11
10.2139
 21
116.637
  0
LINE
  8
0
 10
10.2139
 20
116.637
 11
10.1583
 21
116.594
  0
LINE
  8
0
 10
10.1583
 20
116.594
 11
10.1001
 21
116.554
  0
LINE
  8
0
 10
10.1001
 20
116.554
 11
10.0396
 21
116.519
  0
LINE
  8
0
 10
10.0396
 20
116.519
 11
9.97687
 21
116.487
  0
LINE
  8
0
 10
9.97687
 20
116.487
 11
9.91229
 21
116.459
  0
LINE
  8
0
 10
9.91229
 20
116.459
 11
9.84608
 21
116.435
  0
LINE
  8
0
 10
9.84608
 20
116.435
 11
9.77852
 21
116.415
  0
LINE
  8
0
 10
9.77852
 20
116.415
 11
9.70985
 21
116.4
  0
LINE
  8
0
 10
9.70985
 20
116.4
 11
9.64037
 21
116.389
  0
LINE
  8
0
 10
9.64037
 20
116.389
 11
9.57031
 21
116.382
  0
LINE
  8
0
 10
9.57031
 20
116.382
 11
9.5
 21
116.38
  0
LINE
  8
0
 10
9.5
 20
116.38
 11
9.42967
 21
116.382
  0
LINE
  8
0
 10
194.43
 20
116.382
 11
194.36
 21
116.389
  0
LINE
  8
0
 10
194.36
 20
116.389
 11
194.29
 21
116.4
  0
LINE
  8
0
 10
194.29
 20
116.4
 11
194.221
 21
116.415
  0
LINE
  8
0
 10
194.221
 20
116.415
 11
194.154
 21
116.435
  0
LINE
  8
0
 10
194.154
 20
116.435
 11
194.088
 21
116.459
  0
LINE
  8
0
 10
194.088
 20
116.459
 11
194.023
 21
116.487
  0
LINE
  8
0
 10
194.023
 20
116.487
 11
193.96
 21
116.519
  0
LINE
  8
0
 10
193.96
 20
116.519
 11
193.9
 21
116.554
  0
LINE
  8
0
 10
193.9
 20
116.554
 11
193.842
 21
116.594
  0
LINE
  8
0
 10
193.842
 20
116.594
 11
193.786
 21
116.637
  0
LINE
  8
0
 10
193.786
 20
116.637
 11
193.733
 21
116.684
  0
LINE
  8
0
 10
193.733
 20
116.684
 11
193.684
 21
116.733
  0
LINE
  8
0
 10
193.684
 20
116.733
 11
193.637
 21
116.786
  0
LINE
  8
0
 10
193.637
 20
116.786
 11
193.594
 21
116.842
  0
LINE
  8
0
 10
193.594
 20
116.842
 11
193.554
 21
116.9
  0
LINE
  8
0
 10
193.554
 20
116.9
 11
193.519
 21
116.96
  0
LINE
  8
0
 10
193.519
 20
116.96
 11
193.487
 21
117.023
  0
LINE
  8
0
 10
193.487
 20
117.023
 11
193.459
 21
117.088
  0
LINE
  8
0
 10
193.459
 20
117.088
 11
193.435
 21
117.154
  0
LINE
  8
0
 10
193.435
 20
117.154
 11
193.415
 21
117.221
  0
LINE
  8
0
 10
193.415
 20
117.221
 11
193.4
 21
117.29
  0
LINE
  8
0
 10
193.4
 20
117.29
 11
193.389
 21
117.36
  0
LINE
  8
0
 10
193.389
 20
117.36
 11
193.382
 21
117.43
  0
LINE
  8
0
 10
193.382
 20
117.43
 11
193.38
 21
117.5
  0
LINE
  8
0
 10
193.38
 20
117.5
 11
193.382
 21
117.57
  0
LINE
  8
0
 10
193.382
 20
117.57
 11
193.389
 21
117.64
  0
LINE
  8
0
 10
193.389
 20
117.64
 11
193.4
 21
117.71
  0
LINE
  8
0
 10
193.4
 20
117.71
 11
193.415
 21
117.779
  0
LINE
  8
0
 10
193.415
 20
117.779
 11
193.435
 21
117.846
  0
LINE
  8
0
 10
193.435
 20
117.846
 11
193.459
 21
117.912
  0
LINE
  8
0
 10
193.459
 20
117.912
 11
193.487
 21
117.977
  0
LINE
  8
0
 10
193.487
 20
117.977
 11
193.519
 21
118.04
  0
LINE
  8
0
 10
193.519
 20
118.04
 11
193.554
 21
118.1
  0
LINE
  8
0
 10
193.554
 20
118.1
 11
193.594
 21
118.158
  0
LINE
  8
0
 10
193.594
 20
118.158
 11
193.637
 21
118.214
  0
LINE
  8
0
 10
193.637
 20
118.214
 11
193.684
 21
118.267
  0
LINE
  8
0
 10
193.684
 20
118.267
 11
193.733
 21
118.316
  0
LINE
  8
0
 10
193.733
 20
118.316
 11
193.786
 21
118.363
  0
LINE
  8
0
 10
193.786
 20
118.363
 11
193.842
 21
118.406
  0
LINE
  8
0
 10
193.842
 20
118.406
 11
193.9
 21
118.446
  0
LINE
  8
0
 10
193.9
 20
118.446
 11
193.96
 21
118.481
  0
LINE
  8
0
 10
193.96
 20
118.481
 11
194.023
 21
118.513
  0
LINE
  8
0
 10
194.023
 20
118.513
 11
194.088
 21
118.541
  0
LINE
  8
0
 10
194.088
 20
118.541
 11
194.154
 21
118.565
  0
LINE
  8
0
 10
194.154
 20
118.565
 11
194.221
 21
118.585
  0
LINE
  8
0
 10
194.221
 20
118.585
 11
194.29
 21
118.6
  0
LINE
  8
0
 10
194.29
 20
118.6
 11
194.36
 21
118.611
  0
LINE
  8
0
 10
194.36
 20
118.611
 11
194.43
 21
118.618
  0
LINE
  8
0
 10
194.43
 20
118.618
 11
194.5
 21
118.62
  0
LINE
  8
0
 10
194.5
 20
118.62
 11
194.57
 21
118.618
  0
LINE
  8
0
 10
194.57
 20
118.618
 11
194.64
 21
118.611
  0
LINE
  8
0
 10
194.64
 20
118.611
 11
194.71
 21
118.6
  0
LINE
  8
0
 10
194.71
 20
118.6
 11
194.779
 21
118.585
  0
LINE
  8
0
 10
194.779
 20
118.585
 11
194.846
 21
118.565
  0
LINE
  8
0
 10
194.846
 20
118.565
 11
194.912
 21
118.541
  0
LINE
  8
0
 10
194.912
 20
118.541
 11
194.977
 21
118.513
  0
LINE
  8
0
 10
194.977
 20
118.513
 11
195.04
 21
118.481
  0
LINE
  8
0
 10
195.04
 20
118.481
 11
195.1
 21
118.446
  0
LINE
  8
0
 10
195.1
 20
118.446
 11
195.158
 21
118.406
  0
LINE
  8
0
 10
195.158
 20
118.406
 11
195.214
 21
118.363
  0
LINE
  8
0
 10
195.214
 20
118.363
 11
195.267
 21
118.316
  0
LINE
  8
0
 10
195.267
 20
118.316
 11
195.316
 21
118.267
  0
LINE
  8
0
 10
195.316
 20
118.267
 11
195.363
 21
118.214
  0
LINE
  8
0
 10
195.363
 20
118.214
 11
195.406
 21
118.158
  0
LINE
  8
0
 10
195.406
 20
118.158
 11
195.446
 21
118.1
  0
LINE
  8
0
 10
195.446
 20
118.1
 11
195.481
 21
118.04
  0
LINE
  8
0
 10
195.481
 20
118.04
 11
195.513
 21
117.977
  0
LINE
  8
0
 10
195.513
 20
117.977
 11
195.541
 21
117.912
  0
LINE
  8
0
 10
195.541
 20
117.912
 11
195.565
 21
117.846
  0
LINE
  8
0
 10
195.565
 20
117.846
 11
195.585
 21
117.779
  0
LINE
  8
0
 10
195.585
 20
117.779
 11
195.6
 21
117.71
  0
LINE
  8
0
 10
195.6
 20
117.71
 11
195.611
 21
117.64
  0
LINE
  8
0
 10
195.611
 20
117.64
 11
195.618
 21
117.57
  0
LINE
  8
0
 10
195.618
 20
117.57
 11
195.62
 21
117.5
  0
LINE
  8
0
 10
195.62
 20
117.5
 11
195.618
 21
117.43
  0
LINE
  8
0
 10
195.618
 20
117.43
 11
195.611
 21
117.36
  0
LINE
  8
0
 10
195.611
 20
117.36
 11
195.6
 21
117.29
  0
LINE
  8
0
 10
195.6
 20
117.29
 11
195.585
 21
117.221
  0
LINE
  8
0
 10
195.585
 20
117.221
 11
195.565
 21
117.154
  0
LINE
  8
0
 10
195.565
 20
117.154
 11
195.541
 21
117.088
  0
LINE
  8
0
 10
195.541
 20
117.088
 11
195.513
 21
117.023
  0
LINE
  8
0
 10
195.513
 20
117.023
 11
195.481
 21
116.96
  0
LINE
  8
0
 10
195.481
 20
116.96
 11
195.446
 21
116.9
  0
LINE
  8
0
 10
195.446
 20
116.9
 11
195.406
 21
116.842
  0
LINE
  8
0
 10
195.406
 20
116.842
 11
195.363
 21
116.786
  0
LINE
  8
0
 10
195.363
 20
116.786
 11
195.316
 21
116.733
  0
LINE
  8
0
 10
195.316
 20
116.733
 11
195.267
 21
116.684
  0
LINE
  8
0
 10
195.267
 20
116.684
 11
195.214
 21
116.637
  0
LINE
  8
0
 10
195.214
 20
116.637
 11
195.158
 21
116.594
  0
LINE
  8
0
 10
195.158
 20
116.594
 11
195.1
 21
116.554
  0
LINE
  8
0
 10
195.1
 20
116.554
 11
195.04
 21
116.519
  0
LINE
  8
0
 10
195.04
 20
116.519
 11
194.977
 21
116.487
  0
LINE
  8
0
 10
194.977
 20
116.487
 11
194.912
 21
116.459
  0
LINE
  8
0
 10
194.912
 20
116.459
 11
194.846
 21
116.435
  0
LINE
  8
0
 10
194.846
 20
116.435
 11
194.779
 21
116.415
  0
LINE
  8
0
 10
194.779
 20
116.415
 11
194.71
 21
116.4
  0
LINE
  8
0
 10
194.71
 20
116.4
 11
194.64
 21
116.389
  0
LINE
  8
0
 10
194.64
 20
116.389
 11
194.57
 21
116.382
  0
LINE
  8
0
 10
194.57
 20
116.382
 11
194.5
 21
116.38
  0
LINE
  8
0
 10
194.5
 20
116.38
 11
194.43
 21
116.382
  0
LINE
  8
0
 10
193.015
 20
69.7747
 11
192.233
 21
69.8486
  0
LINE
  8
0
 10
192.233
 20
69.8486
 11
191.458
 21
69.9714
  0
LINE
  8
0
 10
191.458
 20
69.9714
 11
190.691
 21
70.1427
  0
LINE
  8
0
 10
190.691
 20
70.1427
 11
189.937
 21
70.3618
  0
LINE
  8
0
 10
189.937
 20
70.3618
 11
189.198
 21
70.6278
  0
LINE
  8
0
 10
189.198
 20
70.6278
 11
188.478
 21
70.9397
  0
LINE
  8
0
 10
188.478
 20
70.9397
 11
187.778
 21
71.2962
  0
LINE
  8
0
 10
187.778
 20
71.2962
 11
187.102
 21
71.6959
  0
LINE
  8
0
 10
187.102
 20
71.6959
 11
186.453
 21
72.1373
  0
LINE
  8
0
 10
186.453
 20
72.1373
 11
185.832
 21
72.6186
  0
LINE
  8
0
 10
185.832
 20
72.6186
 11
185.243
 21
73.1379
  0
LINE
  8
0
 10
185.243
 20
73.1379
 11
184.688
 21
73.6932
  0
LINE
  8
0
 10
184.688
 20
73.6932
 11
184.169
 21
74.2822
  0
LINE
  8
0
 10
184.169
 20
74.2822
 11
183.687
 21
74.9027
  0
LINE
  8
0
 10
183.687
 20
74.9027
 11
183.246
 21
75.5522
  0
LINE
  8
0
 10
183.246
 20
75.5522
 11
182.846
 21
76.2281
  0
LINE
  8
0
 10
182.846
 20
76.2281
 11
182.49
 21
76.9277
  0
LINE
  8
0
 10
182.49
 20
76.9277
 11
182.178
 21
77.6484
  0
LINE
  8
0
 10
182.178
 20
77.6484
 11
181.912
 21
78.3873
  0
LINE
  8
0
 10
181.912
 20
78.3873
 11
181.693
 21
79.1414
  0
LINE
  8
0
 10
181.693
 20
79.1414
 11
181.521
 21
79.9077
  0
LINE
  8
0
 10
181.521
 20
79.9077
 11
181.399
 21
80.6833
  0
LINE
  8
0
 10
181.399
 20
80.6833
 11
181.325
 21
81.4651
  0
LINE
  8
0
 10
181.325
 20
81.4651
 11
181.3
 21
82.25
  0
LINE
  8
0
 10
181.3
 20
82.25
 11
181.325
 21
83.0349
  0
LINE
  8
0
 10
181.325
 20
83.0349
 11
181.399
 21
83.8167
  0
LINE
  8
0
 10
181.399
 20
83.8167
 11
181.521
 21
84.5923
  0
LINE
  8
0
 10
181.521
 20
84.5923
 11
181.693
 21
85.3586
  0
LINE
  8
0
 10
181.693
 20
85.3586
 11
181.912
 21
86.1127
  0
LINE
  8
0
 10
181.912
 20
86.1127
 11
182.178
 21
86.8515
  0
LINE
  8
0
 10
182.178
 20
86.8515
 11
182.49
 21
87.5722
  0
LINE
  8
0
 10
182.49
 20
87.5722
 11
182.846
 21
88.2719
  0
LINE
  8
0
 10
182.846
 20
88.2719
 11
183.246
 21
88.9478
  0
LINE
  8
0
 10
183.246
 20
88.9478
 11
183.687
 21
89.5973
  0
LINE
  8
0
 10
183.687
 20
89.5973
 11
184.169
 21
90.2178
  0
LINE
  8
0
 10
184.169
 20
90.2178
 11
184.688
 21
90.8068
  0
LINE
  8
0
 10
184.688
 20
90.8068
 11
185.243
 21
91.3621
  0
LINE
  8
0
 10
185.243
 20
91.3621
 11
185.832
 21
91.8814
  0
LINE
  8
0
 10
185.832
 20
91.8814
 11
186.453
 21
92.3627
  0
LINE
  8
0
 10
186.453
 20
92.3627
 11
187.102
 21
92.8041
  0
LINE
  8
0
 10
187.102
 20
92.8041
 11
187.778
 21
93.2038
  0
LINE
  8
0
 10
187.778
 20
93.2038
 11
188.478
 21
93.5603
  0
LINE
  8
0
 10
188.478
 20
93.5603
 11
189.198
 21
93.8722
  0
LINE
  8
0
 10
189.198
 20
93.8722
 11
189.937
 21
94.1382
  0
LINE
  8
0
 10
189.937
 20
94.1382
 11
190.691
 21
94.3573
  0
LINE
  8
0
 10
190.691
 20
94.3573
 11
191.458
 21
94.5286
  0
LINE
  8
0
 10
191.458
 20
94.5286
 11
192.233
 21
94.6514
  0
LINE
  8
0
 10
192.233
 20
94.6514
 11
193.015
 21
94.7253
  0
LINE
  8
0
 10
193.015
 20
94.7253
 11
193.8
 21
94.75
  0
LINE
  8
0
 10
193.8
 20
94.75
 11
194.585
 21
94.7253
  0
LINE
  8
0
 10
194.585
 20
94.7253
 11
195.367
 21
94.6514
  0
LINE
  8
0
 10
195.367
 20
94.6514
 11
196.142
 21
94.5286
  0
LINE
  8
0
 10
196.142
 20
94.5286
 11
196.909
 21
94.3573
  0
LINE
  8
0
 10
196.909
 20
94.3573
 11
197.663
 21
94.1382
  0
LINE
  8
0
 10
197.663
 20
94.1382
 11
198.402
 21
93.8722
  0
LINE
  8
0
 10
198.402
 20
93.8722
 11
199.122
 21
93.5603
  0
LINE
  8
0
 10
199.122
 20
93.5603
 11
199.822
 21
93.2038
  0
LINE
  8
0
 10
199.822
 20
93.2038
 11
200.498
 21
92.8041
  0
LINE
  8
0
 10
200.498
 20
92.8041
 11
201.147
 21
92.3627
  0
LINE
  8
0
 10
201.147
 20
92.3627
 11
201.768
 21
91.8814
  0
LINE
  8
0
 10
201.768
 20
91.8814
 11
202.357
 21
91.3621
  0
LINE
  8
0
 10
202.357
 20
91.3621
 11
202.912
 21
90.8068
  0
LINE
  8
0
 10
202.912
 20
90.8068
 11
203.431
 21
90.2178
  0
LINE
  8
0
 10
203.431
 20
90.2178
 11
203.913
 21
89.5973
  0
LINE
  8
0
 10
203.913
 20
89.5973
 11
204.354
 21
88.9478
  0
LINE
  8
0
 10
204.354
 20
88.9478
 11
204.754
 21
88.2719
  0
LINE
  8
0
 10
204.754
 20
88.2719
 11
205.11
 21
87.5722
  0
LINE
  8
0
 10
205.11
 20
87.5722
 11
205.422
 21
86.8515
  0
LINE
  8
0
 10
205.422
 20
86.8515
 11
205.688
 21
86.1127
  0
LINE
  8
0
 10
205.688
 20
86.1127
 11
205.907
 21
85.3586
  0
LINE
  8
0
 10
205.907
 20
85.3586
 11
206.079
 21
84.5923
  0
LINE
  8
0
 10
206.079
 20
84.5923
 11
206.201
 21
83.8167
  0
LINE
  8
0
 10
206.201
 20
83.8167
 11
206.275
 21
83.0349
  0
LINE
  8
0
 10
206.275
 20
83.0349
 11
206.3
 21
82.25
  0
LINE
  8
0
 10
206.3
 20
82.25
 11
206.275
 21
81.4651
  0
LINE
  8
0
 10
206.275
 20
81.4651
 11
206.201
 21
80.6833
  0
LINE
  8
0
 10
206.201
 20
80.6833
 11
206.079
 21
79.9077
  0
LINE
  8
0
 10
206.079
 20
79.9077
 11
205.907
 21
79.1414
  0
LINE
  8
0
 10
205.907
 20
79.1414
 11
205.688
 21
78.3873
  0
LINE
  8
0
 10
205.688
 20
78.3873
 11
205.422
 21
77.6484
  0
LINE
  8
0
 10
205.422
 20
77.6484
 11
205.11
 21
76.9277
  0
LINE
  8
0
 10
205.11
 20
76.9277
 11
204.754
 21
76.2281
  0
LINE
  8
0
 10
204.754
 20
76.2281
 11
204.354
 21
75.5522
  0
LINE
  8
0
 10
204.354
 20
75.5522
 11
203.913
 21
74.9027
  0
LINE
  8
0
 10
203.913
 20
74.9027
 11
203.431
 21
74.2822
  0
LINE
  8
0
 10
203.431
 20
74.2822
 11
202.912
 21
73.6932
  0
LINE
  8
0
 10
202.912
 20
73.6932
 11
202.357
 21
73.1379
  0
LINE
  8
0
 10
202.357
 20
73.1379
 11
201.768
 21
72.6186
  0
LINE
  8
0
 10
201.768
 20
72.6186
 11
201.147
 21
72.1373
  0
LINE
  8
0
 10
201.147
 20
72.1373
 11
200.498
 21
71.6959
  0
LINE
  8
0
 10
200.498
 20
71.6959
 11
199.822
 21
71.2962
  0
LINE
  8
0
 10
199.822
 20
71.2962
 11
199.122
 21
70.9397
  0
LINE
  8
0
 10
199.122
 20
70.9397
 11
198.402
 21
70.6278
  0
LINE
  8
0
 10
198.402
 20
70.6278
 11
197.663
 21
70.3618
  0
LINE
  8
0
 10
197.663
 20
70.3618
 11
196.909
 21
70.1427
  0
LINE
  8
0
 10
196.909
 20
70.1427
 11
196.142
 21
69.9714
  0
LINE
  8
0
 10
196.142
 20
69.9714
 11
195.367
 21
69.8486
  0
LINE
  8
0
 10
195.367
 20
69.8486
 11
194.585
 21
69.7747
  0
LINE
  8
0
 10
194.585
 20
69.7747
 11
193.8
 21
69.75
  0
LINE
  8
0
 10
193.8
 20
69.75
 11
193.015
 21
69.7747
  0
LINE
  8
0
 10
137.615
 20
69.2747
 11
136.833
 21
69.3486
  0
LINE
  8
0
 10
136.833
 20
69.3486
 11
136.058
 21
69.4714
  0
LINE
  8
0
 10
136.058
 20
69.4714
 11
135.291
 21
69.6427
  0
LINE
  8
0
 10
135.291
 20
69.6427
 11
134.537
 21
69.8618
  0
LINE
  8
0
 10
134.537
 20
69.8618
 11
133.798
 21
70.1278
  0
LINE
  8
0
 10
133.798
 20
70.1278
 11
133.078
 21
70.4397
  0
LINE
  8
0
 10
133.078
 20
70.4397
 11
132.378
 21
70.7962
  0
LINE
  8
0
 10
132.378
 20
70.7962
 11
131.702
 21
71.1959
  0
LINE
  8
0
 10
131.702
 20
71.1959
 11
131.053
 21
71.6373
  0
LINE
  8
0
 10
131.053
 20
71.6373
 11
130.432
 21
72.1186
  0
LINE
  8
0
 10
130.432
 20
72.1186
 11
129.843
 21
72.6379
  0
LINE
  8
0
 10
129.843
 20
72.6379
 11
129.288
 21
73.1932
  0
LINE
  8
0
 10
129.288
 20
73.1932
 11
128.769
 21
73.7822
  0
LINE
  8
0
 10
128.769
 20
73.7822
 11
128.287
 21
74.4027
  0
LINE
  8
0
 10
128.287
 20
74.4027
 11
127.846
 21
75.0522
  0
LINE
  8
0
 10
127.846
 20
75.0522
 11
127.446
 21
75.7281
  0
LINE
  8
0
 10
127.446
 20
75.7281
 11
127.09
 21
76.4277
  0
LINE
  8
0
 10
127.09
 20
76.4277
 11
126.778
 21
77.1484
  0
LINE
  8
0
 10
126.778
 20
77.1484
 11
126.512
 21
77.8873
  0
LINE
  8
0
 10
126.512
 20
77.8873
 11
126.293
 21
78.6414
  0
LINE
  8
0
 10
126.293
 20
78.6414
 11
126.121
 21
79.4077
  0
LINE
  8
0
 10
126.121
 20
79.4077
 11
125.999
 21
80.1833
  0
LINE
  8
0
 10
125.999
 20
80.1833
 11
125.925
 21
80.9651
  0
LINE
  8
0
 10
125.925
 20
80.9651
 11
125.9
 21
81.75
  0
LINE
  8
0
 10
125.9
 20
81.75
 11
125.925
 21
82.5349
  0
LINE
  8
0
 10
125.925
 20
82.5349
 11
125.999
 21
83.3167
  0
LINE
  8
0
 10
125.999
 20
83.3167
 11
126.121
 21
84.0923
  0
LINE
  8
0
 10
126.121
 20
84.0923
 11
126.293
 21
84.8586
  0
LINE
  8
0
 10
126.293
 20
84.8586
 11
126.512
 21
85.6127
  0
LINE
  8
0
 10
126.512
 20
85.6127
 11
126.778
 21
86.3515
  0
LINE
  8
0
 10
126.778
 20
86.3515
 11
127.09
 21
87.0722
  0
LINE
  8
0
 10
127.09
 20
87.0722
 11
127.446
 21
87.7719
  0
LINE
  8
0
 10
127.446
 20
87.7719
 11
127.846
 21
88.4478
  0
LINE
  8
0
 10
127.846
 20
88.4478
 11
128.287
 21
89.0973
  0
LINE
  8
0
 10
128.287
 20
89.0973
 11
128.769
 21
89.7178
  0
LINE
  8
0
 10
128.769
 20
89.7178
 11
129.288
 21
90.3068
  0
LINE
  8
0
 10
129.288
 20
90.3068
 11
129.843
 21
90.8621
  0
LINE
  8
0
 10
129.843
 20
90.8621
 11
130.432
 21
91.3814
  0
LINE
  8
0
 10
130.432
 20
91.3814
 11
131.053
 21
91.8627
  0
LINE
  8
0
 10
131.053
 20
91.8627
 11
131.702
 21
92.3041
  0
LINE
  8
0
 10
131.702
 20
92.3041
 11
132.378
 21
92.7038
  0
LINE
  8
0
 10
132.378
 20
92.7038
 11
133.078
 21
93.0603
  0
LINE
  8
0
 10
133.078
 20
93.0603
 11
133.798
 21
93.3722
  0
LINE
  8
0
 10
133.798
 20
93.3722
 11
134.537
 21
93.6382
  0
LINE
  8
0
 10
134.537
 20
93.6382
 11
135.291
 21
93.8573
  0
LINE
  8
0
 10
135.291
 20
93.8573
 11
136.058
 21
94.0286
  0
LINE
  8
0
 10
136.058
 20
94.0286
 11
136.833
 21
94.1514
  0
LINE
  8
0
 10
136.833
 20
94.1514
 11
137.615
 21
94.2253
  0
LINE
  8
0
 10
137.615
 20
94.2253
 11
138.4
 21
94.25
  0
LINE
  8
0
 10
138.4
 20
94.25
 11
139.185
 21
94.2253
  0
LINE
  8
0
 10
139.185
 20
94.2253
 11
139.967
 21
94.1514
  0
LINE
  8
0
 10
139.967
 20
94.1514
 11
140.742
 21
94.0286
  0
LINE
  8
0
 10
140.742
 20
94.0286
 11
141.509
 21
93.8573
  0
LINE
  8
0
 10
141.509
 20
93.8573
 11
142.263
 21
93.6382
  0
LINE
  8
0
 10
142.263
 20
93.6382
 11
143.002
 21
93.3722
  0
LINE
  8
0
 10
143.002
 20
93.3722
 11
143.722
 21
93.0603
  0
LINE
  8
0
 10
143.722
 20
93.0603
 11
144.422
 21
92.7038
  0
LINE
  8
0
 10
144.422
 20
92.7038
 11
145.098
 21
92.3041
  0
LINE
  8
0
 10
145.098
 20
92.3041
 11
145.747
 21
91.8627
  0
LINE
  8
0
 10
145.747
 20
91.8627
 11
146.368
 21
91.3814
  0
LINE
  8
0
 10
146.368
 20
91.3814
 11
146.957
 21
90.8621
  0
LINE
  8
0
 10
146.957
 20
90.8621
 11
147.512
 21
90.3068
  0
LINE
  8
0
 10
147.512
 20
90.3068
 11
148.031
 21
89.7178
  0
LINE
  8
0
 10
148.031
 20
89.7178
 11
148.513
 21
89.0973
  0
LINE
  8
0
 10
148.513
 20
89.0973
 11
148.954
 21
88.4478
  0
LINE
  8
0
 10
148.954
 20
88.4478
 11
149.354
 21
87.7719
  0
LINE
  8
0
 10
149.354
 20
87.7719
 11
149.71
 21
87.0722
  0
LINE
  8
0
 10
149.71
 20
87.0722
 11
150.022
 21
86.3515
  0
LINE
  8
0
 10
150.022
 20
86.3515
 11
150.288
 21
85.6127
  0
LINE
  8
0
 10
150.288
 20
85.6127
 11
150.507
 21
84.8586
  0
LINE
  8
0
 10
150.507
 20
84.8586
 11
150.679
 21
84.0923
  0
LINE
  8
0
 10
150.679
 20
84.0923
 11
150.801
 21
83.3167
  0
LINE
  8
0
 10
150.801
 20
83.3167
 11
150.875
 21
82.5349
  0
LINE
  8
0
 10
150.875
 20
82.5349
 11
150.9
 21
81.75
  0
LINE
  8
0
 10
150.9
 20
81.75
 11
150.875
 21
80.9651
  0
LINE
  8
0
 10
150.875
 20
80.9651
 11
150.801
 21
80.1833
  0
LINE
  8
0
 10
150.801
 20
80.1833
 11
150.679
 21
79.4077
  0
LINE
  8
0
 10
150.679
 20
79.4077
 11
150.507
 21
78.6414
  0
LINE
  8
0
 10
150.507
 20
78.6414
 11
150.288
 21
77.8873
  0
LINE
  8
0
 10
150.288
 20
77.8873
 11
150.022
 21
77.1484
  0
LINE
  8
0
 10
150.022
 20
77.1484
 11
149.71
 21
76.4277
  0
LINE
  8
0
 10
149.71
 20
76.4277
 11
149.354
 21
75.7281
  0
LINE
  8
0
 10
149.354
 20
75.7281
 11
148.954
 21
75.0522
  0
LINE
  8
0
 10
148.954
 20
75.0522
 11
148.513
 21
74.4027
  0
LINE
  8
0
 10
148.513
 20
74.4027
 11
148.031
 21
73.7822
  0
LINE
  8
0
 10
148.031
 20
73.7822
 11
147.512
 21
73.1932
  0
LINE
  8
0
 10
147.512
 20
73.1932
 11
146.957
 21
72.6379
  0
LINE
  8
0
 10
146.957
 20
72.6379
 11
146.368
 21
72.1186
  0
LINE
  8
0
 10
146.368
 20
72.1186
 11
145.747
 21
71.6373
  0
LINE
  8
0
 10
145.747
 20
71.6373
 11
145.098
 21
71.1959
  0
LINE
  8
0
 10
145.098
 20
71.1959
 11
144.422
 21
70.7962
  0
LINE
  8
0
 10
144.422
 20
70.7962
 11
143.722
 21
70.4397
  0
LINE
  8
0
 10
143.722
 20
70.4397
 11
143.002
 21
70.1278
  0
LINE
  8
0
 10
143.002
 20
70.1278
 11
142.263
 21
69.8618
  0
LINE
  8
0
 10
142.263
 20
69.8618
 11
141.509
 21
69.6427
  0
LINE
  8
0
 10
141.509
 20
69.6427
 11
140.742
 21
69.4714
  0
LINE
  8
0
 10
140.742
 20
69.4714
 11
139.967
 21
69.3486
  0
LINE
  8
0
 10
139.967
 20
69.3486
 11
139.185
 21
69.2747
  0
LINE
  8
0
 10
139.185
 20
69.2747
 11
138.4
 21
69.25
  0
LINE
  8
0
 10
138.4
 20
69.25
 11
137.615
 21
69.2747
  0
LINE
  8
0
 10
56.6151
 20
67.7747
 11
55.8333
 21
67.8486
  0
LINE
  8
0
 10
55.8333
 20
67.8486
 11
55.0577
 21
67.9714
  0
LINE
  8
0
 10
55.0577
 20
67.9714
 11
54.2914
 21
68.1427
  0
LINE
  8
0
 10
54.2914
 20
68.1427
 11
53.5373
 21
68.3618
  0
LINE
  8
0
 10
53.5373
 20
68.3618
 11
52.7984
 21
68.6278
  0
LINE
  8
0
 10
52.7984
 20
68.6278
 11
52.0778
 21
68.9397
  0
LINE
  8
0
 10
52.0778
 20
68.9397
 11
51.3781
 21
69.2962
  0
LINE
  8
0
 10
51.3781
 20
69.2962
 11
50.7022
 21
69.6959
  0
LINE
  8
0
 10
50.7022
 20
69.6959
 11
50.0527
 21
70.1373
  0
LINE
  8
0
 10
50.0527
 20
70.1373
 11
49.4322
 21
70.6186
  0
LINE
  8
0
 10
49.4322
 20
70.6186
 11
48.8432
 21
71.1379
  0
LINE
  8
0
 10
48.8432
 20
71.1379
 11
48.2879
 21
71.6932
  0
LINE
  8
0
 10
48.2879
 20
71.6932
 11
47.7686
 21
72.2822
  0
LINE
  8
0
 10
47.7686
 20
72.2822
 11
47.2873
 21
72.9027
  0
LINE
  8
0
 10
47.2873
 20
72.9027
 11
46.8459
 21
73.5522
  0
LINE
  8
0
 10
46.8459
 20
73.5522
 11
46.4462
 21
74.2281
  0
LINE
  8
0
 10
46.4462
 20
74.2281
 11
46.0897
 21
74.9277
  0
LINE
  8
0
 10
46.0897
 20
74.9277
 11
45.7778
 21
75.6484
  0
LINE
  8
0
 10
45.7778
 20
75.6484
 11
45.5118
 21
76.3873
  0
LINE
  8
0
 10
45.5118
 20
76.3873
 11
45.2927
 21
77.1414
  0
LINE
  8
0
 10
45.2927
 20
77.1414
 11
45.1214
 21
77.9077
  0
LINE
  8
0
 10
45.1214
 20
77.9077
 11
44.9986
 21
78.6833
  0
LINE
  8
0
 10
44.9986
 20
78.6833
 11
44.9247
 21
79.4651
  0
LINE
  8
0
 10
44.9247
 20
79.4651
 11
44.9
 21
80.25
  0
LINE
  8
0
 10
44.9
 20
80.25
 11
44.9247
 21
81.0349
  0
LINE
  8
0
 10
44.9247
 20
81.0349
 11
44.9986
 21
81.8167
  0
LINE
  8
0
 10
44.9986
 20
81.8167
 11
45.1214
 21
82.5923
  0
LINE
  8
0
 10
45.1214
 20
82.5923
 11
45.2927
 21
83.3586
  0
LINE
  8
0
 10
45.2927
 20
83.3586
 11
45.5118
 21
84.1127
  0
LINE
  8
0
 10
45.5118
 20
84.1127
 11
45.7778
 21
84.8515
  0
LINE
  8
0
 10
45.7778
 20
84.8515
 11
46.0897
 21
85.5722
  0
LINE
  8
0
 10
46.0897
 20
85.5722
 11
46.4462
 21
86.2719
  0
LINE
  8
0
 10
46.4462
 20
86.2719
 11
46.8459
 21
86.9478
  0
LINE
  8
0
 10
46.8459
 20
86.9478
 11
47.2873
 21
87.5973
  0
LINE
  8
0
 10
47.2873
 20
87.5973
 11
47.7686
 21
88.2178
  0
LINE
  8
0
 10
47.7686
 20
88.2178
 11
48.2879
 21
88.8068
  0
LINE
  8
0
 10
48.2879
 20
88.8068
 11
48.8432
 21
89.3621
  0
LINE
  8
0
 10
48.8432
 20
89.3621
 11
49.4322
 21
89.8814
  0
LINE
  8
0
 10
49.4322
 20
89.8814
 11
50.0527
 21
90.3627
  0
LINE
  8
0
 10
50.0527
 20
90.3627
 11
50.7022
 21
90.8041
  0
LINE
  8
0
 10
50.7022
 20
90.8041
 11
51.3781
 21
91.2038
  0
LINE
  8
0
 10
51.3781
 20
91.2038
 11
52.0778
 21
91.5603
  0
LINE
  8
0
 10
52.0778
 20
91.5603
 11
52.7984
 21
91.8722
  0
LINE
  8
0
 10
52.7984
 20
91.8722
 11
53.5373
 21
92.1382
  0
LINE
  8
0
 10
53.5373
 20
92.1382
 11
54.2914
 21
92.3573
  0
LINE
  8
0
 10
54.2914
 20
92.3573
 11
55.0577
 21
92.5286
  0
LINE
  8
0
 10
55.0577
 20
92.5286
 11
55.8333
 21
92.6514
  0
LINE
  8
0
 10
55.8333
 20
92.6514
 11
56.6151
 21
92.7253
  0
LINE
  8
0
 10
56.6151
 20
92.7253
 11
57.4
 21
92.75
  0
LINE
  8
0
 10
57.4
 20
92.75
 11
58.1849
 21
92.7253
  0
LINE
  8
0
 10
58.1849
 20
92.7253
 11
58.9667
 21
92.6514
  0
LINE
  8
0
 10
58.9667
 20
92.6514
 11
59.7423
 21
92.5286
  0
LINE
  8
0
 10
59.7423
 20
92.5286
 11
60.5086
 21
92.3573
  0
LINE
  8
0
 10
60.5086
 20
92.3573
 11
61.2627
 21
92.1382
  0
LINE
  8
0
 10
61.2627
 20
92.1382
 11
62.0016
 21
91.8722
  0
LINE
  8
0
 10
62.0016
 20
91.8722
 11
62.7222
 21
91.5603
  0
LINE
  8
0
 10
62.7222
 20
91.5603
 11
63.4219
 21
91.2038
  0
LINE
  8
0
 10
63.4219
 20
91.2038
 11
64.0978
 21
90.8041
  0
LINE
  8
0
 10
64.0978
 20
90.8041
 11
64.7473
 21
90.3627
  0
LINE
  8
0
 10
64.7473
 20
90.3627
 11
65.3678
 21
89.8814
  0
LINE
  8
0
 10
65.3678
 20
89.8814
 11
65.9568
 21
89.3621
  0
LINE
  8
0
 10
65.9568
 20
89.3621
 11
66.5121
 21
88.8068
  0
LINE
  8
0
 10
66.5121
 20
88.8068
 11
67.0314
 21
88.2178
  0
LINE
  8
0
 10
67.0314
 20
88.2178
 11
67.5127
 21
87.5973
  0
LINE
  8
0
 10
67.5127
 20
87.5973
 11
67.9541
 21
86.9478
  0
LINE
  8
0
 10
67.9541
 20
86.9478
 11
68.3538
 21
86.2719
  0
LINE
  8
0
 10
68.3538
 20
86.2719
 11
68.7103
 21
85.5722
  0
LINE
  8
0
 10
68.7103
 20
85.5722
 11
69.0222
 21
84.8515
  0
LINE
  8
0
 10
69.0222
 20
84.8515
 11
69.2882
 21
84.1127
  0
LINE
  8
0
 10
69.2882
 20
84.1127
 11
69.5073
 21
83.3586
  0
LINE
  8
0
 10
69.5073
 20
83.3586
 11
69.6786
 21
82.5923
  0
LINE
  8
0
 10
69.6786
 20
82.5923
 11
69.8014
 21
81.8167
  0
LINE
  8
0
 10
69.8014
 20
81.8167
 11
69.8753
 21
81.0349
  0
LINE
  8
0
 10
69.8753
 20
81.0349
 11
69.9
 21
80.25
  0
LINE
  8
0
 10
69.9
 20
80.25
 11
69.8753
 21
79.4651
  0
LINE
  8
0
 10
69.8753
 20
79.4651
 11
69.8014
 21
78.6833
  0
LINE
  8
0
 10
69.8014
 20
78.6833
 11
69.6786
 21
77.9077
  0
LINE
  8
0
 10
69.6786
 20
77.9077
 11
69.5073
 21
77.1414
  0
LINE
  8
0
 10
69.5073
 20
77.1414
 11
69.2882
 21
76.3873
  0
LINE
  8
0
 10
69.2882
 20
76.3873
 11
69.0222
 21
75.6484
  0
LINE
  8
0
 10
69.0222
 20
75.6484
 11
68.7103
 21
74.9277
  0
LINE
  8
0
 10
68.7103
 20
74.9277
 11
68.3538
 21
74.2281
  0
LINE
  8
0
 10
68.3538
 20
74.2281
 11
67.9541
 21
73.5522
  0
LINE
  8
0
 10
67.9541
 20
73.5522
 11
67.5127
 21
72.9027
  0
LINE
  8
0
 10
67.5127
 20
72.9027
 11
67.0314
 21
72.2822
  0
LINE
  8
0
 10
67.0314
 20
72.2822
 11
66.5121
 21
71.6932
  0
LINE
  8
0
 10
66.5121
 20
71.6932
 11
65.9568
 21
71.1379
  0
LINE
  8
0
 10
65.9568
 20
71.1379
 11
65.3678
 21
70.6186
  0
LINE
  8
0
 10
65.3678
 20
70.6186
 11
64.7473
 21
70.1373
  0
LINE
  8
0
 10
64.7473
 20
70.1373
 11
64.0978
 21
69.6959
  0
LINE
  8
0
 10
64.0978
 20
69.6959
 11
63.4219
 21
69.2962
  0
LINE
  8
0
 10
63.4219
 20
69.2962
 11
62.7222
 21
68.9397
  0
LINE
  8
0
 10
62.7222
 20
68.9397
 11
62.0016
 21
68.6278
  0
LINE
  8
0
 10
62.0016
 20
68.6278
 11
61.2627
 21
68.3618
  0
LINE
  8
0
 10
61.2627
 20
68.3618
 11
60.5086
 21
68.1427
  0
LINE
  8
0
 10
60.5086
 20
68.1427
 11
59.7423
 21
67.9714
  0
LINE
  8
0
 10
59.7423
 20
67.9714
 11
58.9667
 21
67.8486
  0
LINE
  8
0
 10
58.9667
 20
67.8486
 11
58.1849
 21
67.7747
  0
LINE
  8
0
 10
58.1849
 20
67.7747
 11
57.4
 21
67.75
  0
LINE
  8
0
 10
57.4
 20
67.75
 11
56.6151
 21
67.7747
  0
LINE
  8
0
 10
110.715
 20
65.3247
 11
109.933
 21
65.3986
  0
LINE
  8
0
 10
109.933
 20
65.3986
 11
109.158
 21
65.5214
  0
LINE
  8
0
 10
109.158
 20
65.5214
 11
108.391
 21
65.6927
  0
LINE
  8
0
 10
108.391
 20
65.6927
 11
107.637
 21
65.9118
  0
LINE
  8
0
 10
107.637
 20
65.9118
 11
106.898
 21
66.1778
  0
LINE
  8
0
 10
106.898
 20
66.1778
 11
106.178
 21
66.4897
  0
LINE
  8
0
 10
106.178
 20
66.4897
 11
105.478
 21
66.8462
  0
LINE
  8
0
 10
105.478
 20
66.8462
 11
104.802
 21
67.2459
  0
LINE
  8
0
 10
104.802
 20
67.2459
 11
104.153
 21
67.6873
  0
LINE
  8
0
 10
104.153
 20
67.6873
 11
103.532
 21
68.1686
  0
LINE
  8
0
 10
103.532
 20
68.1686
 11
102.943
 21
68.6879
  0
LINE
  8
0
 10
102.943
 20
68.6879
 11
102.388
 21
69.2431
  0
LINE
  8
0
 10
102.388
 20
69.2431
 11
101.869
 21
69.8322
  0
LINE
  8
0
 10
101.869
 20
69.8322
 11
101.387
 21
70.4527
  0
LINE
  8
0
 10
101.387
 20
70.4527
 11
100.946
 21
71.1022
  0
LINE
  8
0
 10
100.946
 20
71.1022
 11
100.546
 21
71.7781
  0
LINE
  8
0
 10
100.546
 20
71.7781
 11
100.19
 21
72.4778
  0
LINE
  8
0
 10
100.19
 20
72.4778
 11
99.8778
 21
73.1984
  0
LINE
  8
0
 10
99.8778
 20
73.1984
 11
99.6118
 21
73.9373
  0
LINE
  8
0
 10
99.6118
 20
73.9373
 11
99.3927
 21
74.6914
  0
LINE
  8
0
 10
99.3927
 20
74.6914
 11
99.2214
 21
75.4577
  0
LINE
  8
0
 10
99.2214
 20
75.4577
 11
99.0986
 21
76.2333
  0
LINE
  8
0
 10
99.0986
 20
76.2333
 11
99.0247
 21
77.0151
  0
LINE
  8
0
 10
99.0247
 20
77.0151
 11
99
 21
77.8
  0
LINE
  8
0
 10
99
 20
77.8
 11
99.0247
 21
78.5849
  0
LINE
  8
0
 10
99.0247
 20
78.5849
 11
99.0986
 21
79.3667
  0
LINE
  8
0
 10
99.0986
 20
79.3667
 11
99.2214
 21
80.1423
  0
LINE
  8
0
 10
99.2214
 20
80.1423
 11
99.3927
 21
80.9086
  0
LINE
  8
0
 10
99.3927
 20
80.9086
 11
99.6118
 21
81.6627
  0
LINE
  8
0
 10
99.6118
 20
81.6627
 11
99.8778
 21
82.4016
  0
LINE
  8
0
 10
99.8778
 20
82.4016
 11
100.19
 21
83.1222
  0
LINE
  8
0
 10
100.19
 20
83.1222
 11
100.546
 21
83.8219
  0
LINE
  8
0
 10
100.546
 20
83.8219
 11
100.946
 21
84.4978
  0
LINE
  8
0
 10
100.946
 20
84.4978
 11
101.387
 21
85.1473
  0
LINE
  8
0
 10
101.387
 20
85.1473
 11
101.869
 21
85.7678
  0
LINE
  8
0
 10
101.869
 20
85.7678
 11
102.388
 21
86.3568
  0
LINE
  8
0
 10
102.388
 20
86.3568
 11
102.943
 21
86.9121
  0
LINE
  8
0
 10
102.943
 20
86.9121
 11
103.532
 21
87.4314
  0
LINE
  8
0
 10
103.532
 20
87.4314
 11
104.153
 21
87.9127
  0
LINE
  8
0
 10
104.153
 20
87.9127
 11
104.802
 21
88.3541
  0
LINE
  8
0
 10
104.802
 20
88.3541
 11
105.478
 21
88.7538
  0
LINE
  8
0
 10
105.478
 20
88.7538
 11
106.178
 21
89.1103
  0
LINE
  8
0
 10
106.178
 20
89.1103
 11
106.898
 21
89.4222
  0
LINE
  8
0
 10
106.898
 20
89.4222
 11
107.637
 21
89.6882
  0
LINE
  8
0
 10
107.637
 20
89.6882
 11
108.391
 21
89.9073
  0
LINE
  8
0
 10
108.391
 20
89.9073
 11
109.158
 21
90.0786
  0
LINE
  8
0
 10
109.158
 20
90.0786
 11
109.933
 21
90.2014
  0
LINE
  8
0
 10
109.933
 20
90.2014
 11
110.715
 21
90.2753
  0
LINE
  8
0
 10
110.715
 20
90.2753
 11
111.5
 21
90.3
  0
LINE
  8
0
 10
111.5
 20
90.3
 11
112.285
 21
90.2753
  0
LINE
  8
0
 10
112.285
 20
90.2753
 11
113.067
 21
90.2014
  0
LINE
  8
0
 10
113.067
 20
90.2014
 11
113.842
 21
90.0786
  0
LINE
  8
0
 10
113.842
 20
90.0786
 11
114.609
 21
89.9073
  0
LINE
  8
0
 10
114.609
 20
89.9073
 11
115.363
 21
89.6882
  0
LINE
  8
0
 10
115.363
 20
89.6882
 11
116.102
 21
89.4222
  0
LINE
  8
0
 10
116.102
 20
89.4222
 11
116.822
 21
89.1103
  0
LINE
  8
0
 10
116.822
 20
89.1103
 11
117.522
 21
88.7538
  0
LINE
  8
0
 10
117.522
 20
88.7538
 11
118.198
 21
88.3541
  0
LINE
  8
0
 10
118.198
 20
88.3541
 11
118.847
 21
87.9127
  0
LINE
  8
0
 10
118.847
 20
87.9127
 11
119.468
 21
87.4314
  0
LINE
  8
0
 10
119.468
 20
87.4314
 11
120.057
 21
86.9121
  0
LINE
  8
0
 10
120.057
 20
86.9121
 11
120.612
 21
86.3568
  0
LINE
  8
0
 10
120.612
 20
86.3568
 11
121.131
 21
85.7678
  0
LINE
  8
0
 10
121.131
 20
85.7678
 11
121.613
 21
85.1473
  0
LINE
  8
0
 10
121.613
 20
85.1473
 11
122.054
 21
84.4978
  0
LINE
  8
0
 10
122.054
 20
84.4978
 11
122.454
 21
83.8219
  0
LINE
  8
0
 10
122.454
 20
83.8219
 11
122.81
 21
83.1222
  0
LINE
  8
0
 10
122.81
 20
83.1222
 11
123.122
 21
82.4016
  0
LINE
  8
0
 10
123.122
 20
82.4016
 11
123.388
 21
81.6627
  0
LINE
  8
0
 10
123.388
 20
81.6627
 11
123.607
 21
80.9086
  0
LINE
  8
0
 10
123.607
 20
80.9086
 11
123.779
 21
80.1423
  0
LINE
  8
0
 10
123.779
 20
80.1423
 11
123.901
 21
79.3667
  0
LINE
  8
0
 10
123.901
 20
79.3667
 11
123.975
 21
78.5849
  0
LINE
  8
0
 10
123.975
 20
78.5849
 11
124
 21
77.8
  0
LINE
  8
0
 10
124
 20
77.8
 11
123.975
 21
77.0151
  0
LINE
  8
0
 10
123.975
 20
77.0151
 11
123.901
 21
76.2333
  0
LINE
  8
0
 10
123.901
 20
76.2333
 11
123.779
 21
75.4577
  0
LINE
  8
0
 10
123.779
 20
75.4577
 11
123.607
 21
74.6914
  0
LINE
  8
0
 10
123.607
 20
74.6914
 11
123.388
 21
73.9373
  0
LINE
  8
0
 10
123.388
 20
73.9373
 11
123.122
 21
73.1984
  0
LINE
  8
0
 10
123.122
 20
73.1984
 11
122.81
 21
72.4778
  0
LINE
  8
0
 10
122.81
 20
72.4778
 11
122.454
 21
71.7781
  0
LINE
  8
0
 10
122.454
 20
71.7781
 11
122.054
 21
71.1022
  0
LINE
  8
0
 10
122.054
 20
71.1022
 11
121.613
 21
70.4527
  0
LINE
  8
0
 10
121.613
 20
70.4527
 11
121.131
 21
69.8322
  0
LINE
  8
0
 10
121.131
 20
69.8322
 11
120.612
 21
69.2431
  0
LINE
  8
0
 10
120.612
 20
69.2431
 11
120.057
 21
68.6879
  0
LINE
  8
0
 10
120.057
 20
68.6879
 11
119.468
 21
68.1686
  0
LINE
  8
0
 10
119.468
 20
68.1686
 11
118.847
 21
67.6873
  0
LINE
  8
0
 10
118.847
 20
67.6873
 11
118.198
 21
67.2459
  0
LINE
  8
0
 10
118.198
 20
67.2459
 11
117.522
 21
66.8462
  0
LINE
  8
0
 10
117.522
 20
66.8462
 11
116.822
 21
66.4897
  0
LINE
  8
0
 10
116.822
 20
66.4897
 11
116.102
 21
66.1778
  0
LINE
  8
0
 10
116.102
 20
66.1778
 11
115.363
 21
65.9118
  0
LINE
  8
0
 10
115.363
 20
65.9118
 11
114.609
 21
65.6927
  0
LINE
  8
0
 10
114.609
 20
65.6927
 11
113.842
 21
65.5214
  0
LINE
  8
0
 10
113.842
 20
65.5214
 11
113.067
 21
65.3986
  0
LINE
  8
0
 10
113.067
 20
65.3986
 11
112.285
 21
65.3247
  0
LINE
  8
0
 10
112.285
 20
65.3247
 11
111.5
 21
65.3
  0
LINE
  8
0
 10
111.5
 20
65.3
 11
110.715
 21
65.3247
  0
LINE
  8
0
 10
28.6151
 20
65.2747
 11
27.8333
 21
65.3486
  0
LINE
  8
0
 10
27.8333
 20
65.3486
 11
27.0577
 21
65.4714
  0
LINE
  8
0
 10
27.0577
 20
65.4714
 11
26.2914
 21
65.6427
  0
LINE
  8
0
 10
26.2914
 20
65.6427
 11
25.5373
 21
65.8618
  0
LINE
  8
0
 10
25.5373
 20
65.8618
 11
24.7984
 21
66.1278
  0
LINE
  8
0
 10
24.7984
 20
66.1278
 11
24.0778
 21
66.4397
  0
LINE
  8
0
 10
24.0778
 20
66.4397
 11
23.3781
 21
66.7962
  0
LINE
  8
0
 10
23.3781
 20
66.7962
 11
22.7022
 21
67.1959
  0
LINE
  8
0
 10
22.7022
 20
67.1959
 11
22.0527
 21
67.6373
  0
LINE
  8
0
 10
22.0527
 20
67.6373
 11
21.4322
 21
68.1186
  0
LINE
  8
0
 10
21.4322
 20
68.1186
 11
20.8432
 21
68.6379
  0
LINE
  8
0
 10
20.8432
 20
68.6379
 11
20.2879
 21
69.1932
  0
LINE
  8
0
 10
20.2879
 20
69.1932
 11
19.7686
 21
69.7822
  0
LINE
  8
0
 10
19.7686
 20
69.7822
 11
19.2873
 21
70.4027
  0
LINE
  8
0
 10
19.2873
 20
70.4027
 11
18.8459
 21
71.0522
  0
LINE
  8
0
 10
18.8459
 20
71.0522
 11
18.4462
 21
71.7281
  0
LINE
  8
0
 10
18.4462
 20
71.7281
 11
18.0897
 21
72.4277
  0
LINE
  8
0
 10
18.0897
 20
72.4277
 11
17.7778
 21
73.1484
  0
LINE
  8
0
 10
17.7778
 20
73.1484
 11
17.5118
 21
73.8873
  0
LINE
  8
0
 10
17.5118
 20
73.8873
 11
17.2927
 21
74.6414
  0
LINE
  8
0
 10
17.2927
 20
74.6414
 11
17.1214
 21
75.4077
  0
LINE
  8
0
 10
17.1214
 20
75.4077
 11
16.9986
 21
76.1833
  0
LINE
  8
0
 10
16.9986
 20
76.1833
 11
16.9247
 21
76.9651
  0
LINE
  8
0
 10
16.9247
 20
76.9651
 11
16.9
 21
77.75
  0
LINE
  8
0
 10
16.9
 20
77.75
 11
16.9247
 21
78.5349
  0
LINE
  8
0
 10
16.9247
 20
78.5349
 11
16.9986
 21
79.3167
  0
LINE
  8
0
 10
16.9986
 20
79.3167
 11
17.1214
 21
80.0923
  0
LINE
  8
0
 10
17.1214
 20
80.0923
 11
17.2927
 21
80.8586
  0
LINE
  8
0
 10
17.2927
 20
80.8586
 11
17.5118
 21
81.6127
  0
LINE
  8
0
 10
17.5118
 20
81.6127
 11
17.7778
 21
82.3515
  0
LINE
  8
0
 10
17.7778
 20
82.3515
 11
18.0897
 21
83.0722
  0
LINE
  8
0
 10
18.0897
 20
83.0722
 11
18.4462
 21
83.7719
  0
LINE
  8
0
 10
18.4462
 20
83.7719
 11
18.8459
 21
84.4478
  0
LINE
  8
0
 10
18.8459
 20
84.4478
 11
19.2873
 21
85.0973
  0
LINE
  8
0
 10
19.2873
 20
85.0973
 11
19.7686
 21
85.7178
  0
LINE
  8
0
 10
19.7686
 20
85.7178
 11
20.2879
 21
86.3068
  0
LINE
  8
0
 10
20.2879
 20
86.3068
 11
20.8432
 21
86.8621
  0
LINE
  8
0
 10
20.8432
 20
86.8621
 11
21.4322
 21
87.3814
  0
LINE
  8
0
 10
21.4322
 20
87.3814
 11
22.0527
 21
87.8627
  0
LINE
  8
0
 10
22.0527
 20
87.8627
 11
22.7022
 21
88.3041
  0
LINE
  8
0
 10
22.7022
 20
88.3041
 11
23.3781
 21
88.7038
  0
LINE
  8
0
 10
23.3781
 20
88.7038
 11
24.0778
 21
89.0603
  0
LINE
  8
0
 10
24.0778
 20
89.0603
 11
24.7984
 21
89.3722
  0
LINE
  8
0
 10
24.7984
 20
89.3722
 11
25.5373
 21
89.6382
  0
LINE
  8
0
 10
25.5373
 20
89.6382
 11
26.2914
 21
89.8573
  0
LINE
  8
0
 10
26.2914
 20
89.8573
 11
27.0577
 21
90.0286
  0
LINE
  8
0
 10
27.0577
 20
90.0286
 11
27.8333
 21
90.1514
  0
LINE
  8
0
 10
27.8333
 20
90.1514
 11
28.6151
 21
90.2253
  0
LINE
  8
0
 10
28.6151
 20
90.2253
 11
29.4
 21
90.25
  0
LINE
  8
0
 10
29.4
 20
90.25
 11
30.1849
 21
90.2253
  0
LINE
  8
0
 10
30.1849
 20
90.2253
 11
30.9667
 21
90.1514
  0
LINE
  8
0
 10
30.9667
 20
90.1514
 11
31.7423
 21
90.0286
  0
LINE
  8
0
 10
31.7423
 20
90.0286
 11
32.5086
 21
89.8573
  0
LINE
  8
0
 10
32.5086
 20
89.8573
 11
33.2627
 21
89.6382
  0
LINE
  8
0
 10
33.2627
 20
89.6382
 11
34.0016
 21
89.3722
  0
LINE
  8
0
 10
34.0016
 20
89.3722
 11
34.7222
 21
89.0603
  0
LINE
  8
0
 10
34.7222
 20
89.0603
 11
35.4219
 21
88.7038
  0
LINE
  8
0
 10
35.4219
 20
88.7038
 11
36.0978
 21
88.3041
  0
LINE
  8
0
 10
36.0978
 20
88.3041
 11
36.7473
 21
87.8627
  0
LINE
  8
0
 10
36.7473
 20
87.8627
 11
37.3678
 21
87.3814
  0
LINE
  8
0
 10
37.3678
 20
87.3814
 11
37.9568
 21
86.8621
  0
LINE
  8
0
 10
37.9568
 20
86.8621
 11
38.5121
 21
86.3068
  0
LINE
  8
0
 10
38.5121
 20
86.3068
 11
39.0314
 21
85.7178
  0
LINE
  8
0
 10
39.0314
 20
85.7178
 11
39.5127
 21
85.0973
  0
LINE
  8
0
 10
39.5127
 20
85.0973
 11
39.9541
 21
84.4478
  0
LINE
  8
0
 10
39.9541
 20
84.4478
 11
40.3538
 21
83.7719
  0
LINE
  8
0
 10
40.3538
 20
83.7719
 11
40.7103
 21
83.0722
  0
LINE
  8
0
 10
40.7103
 20
83.0722
 11
41.0222
 21
82.3515
  0
LINE
  8
0
 10
41.0222
 20
82.3515
 11
41.2882
 21
81.6127
  0
LINE
  8
0
 10
41.2882
 20
81.6127
 11
41.5073
 21
80.8586
  0
LINE
  8
0
 10
41.5073
 20
80.8586
 11
41.6786
 21
80.0923
  0
LINE
  8
0
 10
41.6786
 20
80.0923
 11
41.8014
 21
79.3167
  0
LINE
  8
0
 10
41.8014
 20
79.3167
 11
41.8753
 21
78.5349
  0
LINE
  8
0
 10
41.8753
 20
78.5349
 11
41.9
 21
77.75
  0
LINE
  8
0
 10
41.9
 20
77.75
 11
41.8753
 21
76.9651
  0
LINE
  8
0
 10
41.8753
 20
76.9651
 11
41.8014
 21
76.1833
  0
LINE
  8
0
 10
41.8014
 20
76.1833
 11
41.6786
 21
75.4077
  0
LINE
  8
0
 10
41.6786
 20
75.4077
 11
41.5073
 21
74.6414
  0
LINE
  8
0
 10
41.5073
 20
74.6414
 11
41.2882
 21
73.8873
  0
LINE
  8
0
 10
41.2882
 20
73.8873
 11
41.0222
 21
73.1484
  0
LINE
  8
0
 10
41.0222
 20
73.1484
 11
40.7103
 21
72.4277
  0
LINE
  8
0
 10
40.7103
 20
72.4277
 11
40.3538
 21
71.7281
  0
LINE
  8
0
 10
40.3538
 20
71.7281
 11
39.9541
 21
71.0522
  0
LINE
  8
0
 10
39.9541
 20
71.0522
 11
39.5127
 21
70.4027
  0
LINE
  8
0
 10
39.5127
 20
70.4027
 11
39.0314
 21
69.7822
  0
LINE
  8
0
 10
39.0314
 20
69.7822
 11
38.5121
 21
69.1932
  0
LINE
  8
0
 10
38.5121
 20
69.1932
 11
37.9568
 21
68.6379
  0
LINE
  8
0
 10
37.9568
 20
68.6379
 11
37.3678
 21
68.1186
  0
LINE
  8
0
 10
37.3678
 20
68.1186
 11
36.7473
 21
67.6373
  0
LINE
  8
0
 10
36.7473
 20
67.6373
 11
36.0978
 21
67.1959
  0
LINE
  8
0
 10
36.0978
 20
67.1959
 11
35.4219
 21
66.7962
  0
LINE
  8
0
 10
35.4219
 20
66.7962
 11
34.7222
 21
66.4397
  0
LINE
  8
0
 10
34.7222
 20
66.4397
 11
34.0016
 21
66.1278
  0
LINE
  8
0
 10
34.0016
 20
66.1278
 11
33.2627
 21
65.8618
  0
LINE
  8
0
 10
33.2627
 20
65.8618
 11
32.5086
 21
65.6427
  0
LINE
  8
0
 10
32.5086
 20
65.6427
 11
31.7423
 21
65.4714
  0
LINE
  8
0
 10
31.7423
 20
65.4714
 11
30.9667
 21
65.3486
  0
LINE
  8
0
 10
30.9667
 20
65.3486
 11
30.1849
 21
65.2747
  0
LINE
  8
0
 10
30.1849
 20
65.2747
 11
29.4
 21
65.25
  0
LINE
  8
0
 10
29.4
 20
65.25
 11
28.6151
 21
65.2747
  0
LINE
  8
0
 10
83.6151
 20
56.7747
 11
82.8333
 21
56.8486
  0
LINE
  8
0
 10
82.8333
 20
56.8486
 11
82.0577
 21
56.9714
  0
LINE
  8
0
 10
82.0577
 20
56.9714
 11
81.2914
 21
57.1427
  0
LINE
  8
0
 10
81.2914
 20
57.1427
 11
80.5373
 21
57.3618
  0
LINE
  8
0
 10
80.5373
 20
57.3618
 11
79.7984
 21
57.6278
  0
LINE
  8
0
 10
79.7984
 20
57.6278
 11
79.0778
 21
57.9397
  0
LINE
  8
0
 10
79.0778
 20
57.9397
 11
78.3781
 21
58.2962
  0
LINE
  8
0
 10
78.3781
 20
58.2962
 11
77.7022
 21
58.6959
  0
LINE
  8
0
 10
77.7022
 20
58.6959
 11
77.0527
 21
59.1373
  0
LINE
  8
0
 10
77.0527
 20
59.1373
 11
76.4322
 21
59.6186
  0
LINE
  8
0
 10
76.4322
 20
59.6186
 11
75.8432
 21
60.1379
  0
LINE
  8
0
 10
75.8432
 20
60.1379
 11
75.2879
 21
60.6932
  0
LINE
  8
0
 10
75.2879
 20
60.6932
 11
74.7686
 21
61.2822
  0
LINE
  8
0
 10
74.7686
 20
61.2822
 11
74.2873
 21
61.9027
  0
LINE
  8
0
 10
74.2873
 20
61.9027
 11
73.8459
 21
62.5522
  0
LINE
  8
0
 10
73.8459
 20
62.5522
 11
73.4462
 21
63.2281
  0
LINE
  8
0
 10
73.4462
 20
63.2281
 11
73.0897
 21
63.9277
  0
LINE
  8
0
 10
73.0897
 20
63.9277
 11
72.7778
 21
64.6484
  0
LINE
  8
0
 10
72.7778
 20
64.6484
 11
72.5118
 21
65.3873
  0
LINE
  8
0
 10
72.5118
 20
65.3873
 11
72.2927
 21
66.1414
  0
LINE
  8
0
 10
72.2927
 20
66.1414
 11
72.1214
 21
66.9077
  0
LINE
  8
0
 10
72.1214
 20
66.9077
 11
71.9986
 21
67.6833
  0
LINE
  8
0
 10
71.9986
 20
67.6833
 11
71.9247
 21
68.4651
  0
LINE
  8
0
 10
71.9247
 20
68.4651
 11
71.9
 21
69.25
  0
LINE
  8
0
 10
71.9
 20
69.25
 11
71.9247
 21
70.0349
  0
LINE
  8
0
 10
71.9247
 20
70.0349
 11
71.9986
 21
70.8167
  0
LINE
  8
0
 10
71.9986
 20
70.8167
 11
72.1214
 21
71.5923
  0
LINE
  8
0
 10
72.1214
 20
71.5923
 11
72.2927
 21
72.3586
  0
LINE
  8
0
 10
72.2927
 20
72.3586
 11
72.5118
 21
73.1127
  0
LINE
  8
0
 10
72.5118
 20
73.1127
 11
72.7778
 21
73.8515
  0
LINE
  8
0
 10
72.7778
 20
73.8515
 11
73.0897
 21
74.5722
  0
LINE
  8
0
 10
73.0897
 20
74.5722
 11
73.4462
 21
75.2719
  0
LINE
  8
0
 10
73.4462
 20
75.2719
 11
73.8459
 21
75.9478
  0
LINE
  8
0
 10
73.8459
 20
75.9478
 11
74.2873
 21
76.5973
  0
LINE
  8
0
 10
74.2873
 20
76.5973
 11
74.7686
 21
77.2178
  0
LINE
  8
0
 10
74.7686
 20
77.2178
 11
75.2879
 21
77.8068
  0
LINE
  8
0
 10
75.2879
 20
77.8068
 11
75.8432
 21
78.3621
  0
LINE
  8
0
 10
75.8432
 20
78.3621
 11
76.4322
 21
78.8814
  0
LINE
  8
0
 10
76.4322
 20
78.8814
 11
77.0527
 21
79.3627
  0
LINE
  8
0
 10
77.0527
 20
79.3627
 11
77.7022
 21
79.8041
  0
LINE
  8
0
 10
77.7022
 20
79.8041
 11
78.3781
 21
80.2038
  0
LINE
  8
0
 10
78.3781
 20
80.2038
 11
79.0778
 21
80.5603
  0
LINE
  8
0
 10
79.0778
 20
80.5603
 11
79.7984
 21
80.8722
  0
LINE
  8
0
 10
79.7984
 20
80.8722
 11
80.5373
 21
81.1382
  0
LINE
  8
0
 10
80.5373
 20
81.1382
 11
81.2914
 21
81.3573
  0
LINE
  8
0
 10
81.2914
 20
81.3573
 11
82.0577
 21
81.5286
  0
LINE
  8
0
 10
82.0577
 20
81.5286
 11
82.8333
 21
81.6514
  0
LINE
  8
0
 10
82.8333
 20
81.6514
 11
83.6151
 21
81.7253
  0
LINE
  8
0
 10
83.6151
 20
81.7253
 11
84.4
 21
81.75
  0
LINE
  8
0
 10
84.4
 20
81.75
 11
85.1849
 21
81.7253
  0
LINE
  8
0
 10
85.1849
 20
81.7253
 11
85.9667
 21
81.6514
  0
LINE
  8
0
 10
85.9667
 20
81.6514
 11
86.7423
 21
81.5286
  0
LINE
  8
0
 10
86.7423
 20
81.5286
 11
87.5086
 21
81.3573
  0
LINE
  8
0
 10
87.5086
 20
81.3573
 11
88.2627
 21
81.1382
  0
LINE
  8
0
 10
88.2627
 20
81.1382
 11
89.0016
 21
80.8722
  0
LINE
  8
0
 10
89.0016
 20
80.8722
 11
89.7222
 21
80.5603
  0
LINE
  8
0
 10
89.7222
 20
80.5603
 11
90.4219
 21
80.2038
  0
LINE
  8
0
 10
90.4219
 20
80.2038
 11
91.0978
 21
79.8041
  0
LINE
  8
0
 10
91.0978
 20
79.8041
 11
91.7473
 21
79.3627
  0
LINE
  8
0
 10
91.7473
 20
79.3627
 11
92.3678
 21
78.8814
  0
LINE
  8
0
 10
92.3678
 20
78.8814
 11
92.9568
 21
78.3621
  0
LINE
  8
0
 10
92.9568
 20
78.3621
 11
93.5121
 21
77.8068
  0
LINE
  8
0
 10
93.5121
 20
77.8068
 11
94.0314
 21
77.2178
  0
LINE
  8
0
 10
94.0314
 20
77.2178
 11
94.5127
 21
76.5973
  0
LINE
  8
0
 10
94.5127
 20
76.5973
 11
94.9541
 21
75.9478
  0
LINE
  8
0
 10
94.9541
 20
75.9478
 11
95.3538
 21
75.2719
  0
LINE
  8
0
 10
95.3538
 20
75.2719
 11
95.7103
 21
74.5722
  0
LINE
  8
0
 10
95.7103
 20
74.5722
 11
96.0222
 21
73.8515
  0
LINE
  8
0
 10
96.0222
 20
73.8515
 11
96.2882
 21
73.1127
  0
LINE
  8
0
 10
96.2882
 20
73.1127
 11
96.5073
 21
72.3586
  0
LINE
  8
0
 10
96.5073
 20
72.3586
 11
96.6786
 21
71.5923
  0
LINE
  8
0
 10
96.6786
 20
71.5923
 11
96.8014
 21
70.8167
  0
LINE
  8
0
 10
96.8014
 20
70.8167
 11
96.8753
 21
70.0349
  0
LINE
  8
0
 10
96.8753
 20
70.0349
 11
96.9
 21
69.25
  0
LINE
  8
0
 10
96.9
 20
69.25
 11
96.8753
 21
68.4651
  0
LINE
  8
0
 10
96.8753
 20
68.4651
 11
96.8014
 21
67.6833
  0
LINE
  8
0
 10
96.8014
 20
67.6833
 11
96.6786
 21
66.9077
  0
LINE
  8
0
 10
96.6786
 20
66.9077
 11
96.5073
 21
66.1414
  0
LINE
  8
0
 10
96.5073
 20
66.1414
 11
96.2882
 21
65.3873
  0
LINE
  8
0
 10
96.2882
 20
65.3873
 11
96.0222
 21
64.6484
  0
LINE
  8
0
 10
96.0222
 20
64.6484
 11
95.7103
 21
63.9277
  0
LINE
  8
0
 10
95.7103
 20
63.9277
 11
95.3538
 21
63.2281
  0
LINE
  8
0
 10
95.3538
 20
63.2281
 11
94.9541
 21
62.5522
  0
LINE
  8
0
 10
94.9541
 20
62.5522
 11
94.5127
 21
61.9027
  0
LINE
  8
0
 10
94.5127
 20
61.9027
 11
94.0314
 21
61.2822
  0
LINE
  8
0
 10
94.0314
 20
61.2822
 11
93.5121
 21
60.6932
  0
LINE
  8
0
 10
93.5121
 20
60.6932
 11
92.9568
 21
60.1379
  0
LINE
  8
0
 10
92.9568
 20
60.1379
 11
92.3678
 21
59.6186
  0
LINE
  8
0
 10
92.3678
 20
59.6186
 11
91.7473
 21
59.1373
  0
LINE
  8
0
 10
91.7473
 20
59.1373
 11
91.0978
 21
58.6959
  0
LINE
  8
0
 10
91.0978
 20
58.6959
 11
90.4219
 21
58.2962
  0
LINE
  8
0
 10
90.4219
 20
58.2962
 11
89.7222
 21
57.9397
  0
LINE
  8
0
 10
89.7222
 20
57.9397
 11
89.0016
 21
57.6278
  0
LINE
  8
0
 10
89.0016
 20
57.6278
 11
88.2627
 21
57.3618
  0
LINE
  8
0
 10
88.2627
 20
57.3618
 11
87.5086
 21
57.1427
  0
LINE
  8
0
 10
87.5086
 20
57.1427
 11
86.7423
 21
56.9714
  0
LINE
  8
0
 10
86.7423
 20
56.9714
 11
85.9667
 21
56.8486
  0
LINE
  8
0
 10
85.9667
 20
56.8486
 11
85.1849
 21
56.7747
  0
LINE
  8
0
 10
85.1849
 20
56.7747
 11
84.4
 21
56.75
  0
LINE
  8
0
 10
84.4
 20
56.75
 11
83.6151
 21
56.7747
  0
LINE
  8
0
 10
164.215
 20
42.7247
 11
163.433
 21
42.7986
  0
LINE
  8
0
 10
163.433
 20
42.7986
 11
162.658
 21
42.9214
  0
LINE
  8
0
 10
162.658
 20
42.9214
 11
161.891
 21
43.0927
  0
LINE
  8
0
 10
161.891
 20
43.0927
 11
161.137
 21
43.3118
  0
LINE
  8
0
 10
161.137
 20
43.3118
 11
160.398
 21
43.5778
  0
LINE
  8
0
 10
160.398
 20
43.5778
 11
159.678
 21
43.8896
  0
LINE
  8
0
 10
159.678
 20
43.8896
 11
158.978
 21
44.2462
  0
LINE
  8
0
 10
158.978
 20
44.2462
 11
158.302
 21
44.6459
  0
LINE
  8
0
 10
158.302
 20
44.6459
 11
157.653
 21
45.0873
  0
LINE
  8
0
 10
157.653
 20
45.0873
 11
157.032
 21
45.5686
  0
LINE
  8
0
 10
157.032
 20
45.5686
 11
156.443
 21
46.0879
  0
LINE
  8
0
 10
156.443
 20
46.0879
 11
155.888
 21
46.6432
  0
LINE
  8
0
 10
155.888
 20
46.6432
 11
155.369
 21
47.2322
  0
LINE
  8
0
 10
155.369
 20
47.2322
 11
154.887
 21
47.8527
  0
LINE
  8
0
 10
154.887
 20
47.8527
 11
154.446
 21
48.5022
  0
LINE
  8
0
 10
154.446
 20
48.5022
 11
154.046
 21
49.1781
  0
LINE
  8
0
 10
154.046
 20
49.1781
 11
153.69
 21
49.8777
  0
LINE
  8
0
 10
153.69
 20
49.8777
 11
153.378
 21
50.5984
  0
LINE
  8
0
 10
153.378
 20
50.5984
 11
153.112
 21
51.3373
  0
LINE
  8
0
 10
153.112
 20
51.3373
 11
152.893
 21
52.0914
  0
LINE
  8
0
 10
152.893
 20
52.0914
 11
152.721
 21
52.8577
  0
LINE
  8
0
 10
152.721
 20
52.8577
 11
152.599
 21
53.6333
  0
LINE
  8
0
 10
152.599
 20
53.6333
 11
152.525
 21
54.4151
  0
LINE
  8
0
 10
152.525
 20
54.4151
 11
152.5
 21
55.2
  0
LINE
  8
0
 10
152.5
 20
55.2
 11
152.525
 21
55.9849
  0
LINE
  8
0
 10
152.525
 20
55.9849
 11
152.599
 21
56.7667
  0
LINE
  8
0
 10
152.599
 20
56.7667
 11
152.721
 21
57.5423
  0
LINE
  8
0
 10
152.721
 20
57.5423
 11
152.893
 21
58.3086
  0
LINE
  8
0
 10
152.893
 20
58.3086
 11
153.112
 21
59.0627
  0
LINE
  8
0
 10
153.112
 20
59.0627
 11
153.378
 21
59.8015
  0
LINE
  8
0
 10
153.378
 20
59.8015
 11
153.69
 21
60.5222
  0
LINE
  8
0
 10
153.69
 20
60.5222
 11
154.046
 21
61.2219
  0
LINE
  8
0
 10
154.046
 20
61.2219
 11
154.446
 21
61.8978
  0
LINE
  8
0
 10
154.446
 20
61.8978
 11
154.887
 21
62.5473
  0
LINE
  8
0
 10
154.887
 20
62.5473
 11
155.369
 21
63.1678
  0
LINE
  8
0
 10
155.369
 20
63.1678
 11
155.888
 21
63.7568
  0
LINE
  8
0
 10
155.888
 20
63.7568
 11
156.443
 21
64.3121
  0
LINE
  8
0
 10
156.443
 20
64.3121
 11
157.032
 21
64.8314
  0
LINE
  8
0
 10
157.032
 20
64.8314
 11
157.653
 21
65.3127
  0
LINE
  8
0
 10
157.653
 20
65.3127
 11
158.302
 21
65.7541
  0
LINE
  8
0
 10
158.302
 20
65.7541
 11
158.978
 21
66.1538
  0
LINE
  8
0
 10
158.978
 20
66.1538
 11
159.678
 21
66.5103
  0
LINE
  8
0
 10
159.678
 20
66.5103
 11
160.398
 21
66.8222
  0
LINE
  8
0
 10
160.398
 20
66.8222
 11
161.137
 21
67.0882
  0
LINE
  8
0
 10
161.137
 20
67.0882
 11
161.891
 21
67.3073
  0
LINE
  8
0
 10
161.891
 20
67.3073
 11
162.658
 21
67.4786
  0
LINE
  8
0
 10
162.658
 20
67.4786
 11
163.433
 21
67.6014
  0
LINE
  8
0
 10
163.433
 20
67.6014
 11
164.215
 21
67.6753
  0
LINE
  8
0
 10
164.215
 20
67.6753
 11
165
 21
67.7
  0
LINE
  8
0
 10
165
 20
67.7
 11
165.785
 21
67.6753
  0
LINE
  8
0
 10
165.785
 20
67.6753
 11
166.567
 21
67.6014
  0
LINE
  8
0
 10
166.567
 20
67.6014
 11
167.342
 21
67.4786
  0
LINE
  8
0
 10
167.342
 20
67.4786
 11
168.109
 21
67.3073
  0
LINE
  8
0
 10
168.109
 20
67.3073
 11
168.863
 21
67.0882
  0
LINE
  8
0
 10
168.863
 20
67.0882
 11
169.602
 21
66.8222
  0
LINE
  8
0
 10
169.602
 20
66.8222
 11
170.322
 21
66.5103
  0
LINE
  8
0
 10
170.322
 20
66.5103
 11
171.022
 21
66.1538
  0
LINE
  8
0
 10
171.022
 20
66.1538
 11
171.698
 21
65.7541
  0
LINE
  8
0
 10
171.698
 20
65.7541
 11
172.347
 21
65.3127
  0
LINE
  8
0
 10
172.347
 20
65.3127
 11
172.968
 21
64.8314
  0
LINE
  8
0
 10
172.968
 20
64.8314
 11
173.557
 21
64.3121
  0
LINE
  8
0
 10
173.557
 20
64.3121
 11
174.112
 21
63.7568
  0
LINE
  8
0
 10
174.112
 20
63.7568
 11
174.631
 21
63.1678
  0
LINE
  8
0
 10
174.631
 20
63.1678
 11
175.113
 21
62.5473
  0
LINE
  8
0
 10
175.113
 20
62.5473
 11
175.554
 21
61.8978
  0
LINE
  8
0
 10
175.554
 20
61.8978
 11
175.954
 21
61.2219
  0
LINE
  8
0
 10
175.954
 20
61.2219
 11
176.31
 21
60.5222
  0
LINE
  8
0
 10
176.31
 20
60.5222
 11
176.622
 21
59.8015
  0
LINE
  8
0
 10
176.622
 20
59.8015
 11
176.888
 21
59.0627
  0
LINE
  8
0
 10
176.888
 20
59.0627
 11
177.107
 21
58.3086
  0
LINE
  8
0
 10
177.107
 20
58.3086
 11
177.279
 21
57.5423
  0
LINE
  8
0
 10
177.279
 20
57.5423
 11
177.401
 21
56.7667
  0
LINE
  8
0
 10
177.401
 20
56.7667
 11
177.475
 21
55.9849
  0
LINE
  8
0
 10
177.475
 20
55.9849
 11
177.5
 21
55.2
  0
LINE
  8
0
 10
177.5
 20
55.2
 11
177.475
 21
54.4151
  0
LINE
  8
0
 10
177.475
 20
54.4151
 11
177.401
 21
53.6333
  0
LINE
  8
0
 10
177.401
 20
53.6333
 11
177.279
 21
52.8577
  0
LINE
  8
0
 10
177.279
 20
52.8577
 11
177.107
 21
52.0914
  0
LINE
  8
0
 10
177.107
 20
52.0914
 11
176.888
 21
51.3373
  0
LINE
  8
0
 10
176.888
 20
51.3373
 11
176.622
 21
50.5984
  0
LINE
  8
0
 10
176.622
 20
50.5984
 11
176.31
 21
49.8777
  0
LINE
  8
0
 10
176.31
 20
49.8777
 11
175.954
 21
49.1781
  0
LINE
  8
0
 10
175.954
 20
49.1781
 11
175.554
 21
48.5022
  0
LINE
  8
0
 10
175.554
 20
48.5022
 11
175.113
 21
47.8527
  0
LINE
  8
0
 10
175.113
 20
47.8527
 11
174.631
 21
47.2322
  0
LINE
  8
0
 10
174.631
 20
47.2322
 11
174.112
 21
46.6432
  0
LINE
  8
0
 10
174.112
 20
46.6432
 11
173.557
 21
46.0879
  0
LINE
  8
0
 10
173.557
 20
46.0879
 11
172.968
 21
45.5686
  0
LINE
  8
0
 10
172.968
 20
45.5686
 11
172.347
 21
45.0873
  0
LINE
  8
0
 10
172.347
 20
45.0873
 11
171.698
 21
44.6459
  0
LINE
  8
0
 10
171.698
 20
44.6459
 11
171.022
 21
44.2462
  0
LINE
  8
0
 10
171.022
 20
44.2462
 11
170.322
 21
43.8896
  0
LINE
  8
0
 10
170.322
 20
43.8896
 11
169.602
 21
43.5778
  0
LINE
  8
0
 10
169.602
 20
43.5778
 11
168.863
 21
43.3118
  0
LINE
  8
0
 10
168.863
 20
43.3118
 11
168.109
 21
43.0927
  0
LINE
  8
0
 10
168.109
 20
43.0927
 11
167.342
 21
42.9214
  0
LINE
  8
0
 10
167.342
 20
42.9214
 11
166.567
 21
42.7986
  0
LINE
  8
0
 10
166.567
 20
42.7986
 11
165.785
 21
42.7247
  0
LINE
  8
0
 10
165.785
 20
42.7247
 11
165
 21
42.7
  0
LINE
  8
0
 10
165
 20
42.7
 11
164.215
 21
42.7247
  0
LINE
  8
0
 10
193.215
 20
42.7247
 11
192.433
 21
42.7986
  0
LINE
  8
0
 10
192.433
 20
42.7986
 11
191.658
 21
42.9214
  0
LINE
  8
0
 10
191.658
 20
42.9214
 11
190.891
 21
43.0927
  0
LINE
  8
0
 10
190.891
 20
43.0927
 11
190.137
 21
43.3118
  0
LINE
  8
0
 10
190.137
 20
43.3118
 11
189.398
 21
43.5778
  0
LINE
  8
0
 10
189.398
 20
43.5778
 11
188.678
 21
43.8896
  0
LINE
  8
0
 10
188.678
 20
43.8896
 11
187.978
 21
44.2462
  0
LINE
  8
0
 10
187.978
 20
44.2462
 11
187.302
 21
44.6459
  0
LINE
  8
0
 10
187.302
 20
44.6459
 11
186.653
 21
45.0873
  0
LINE
  8
0
 10
186.653
 20
45.0873
 11
186.032
 21
45.5686
  0
LINE
  8
0
 10
186.032
 20
45.5686
 11
185.443
 21
46.0879
  0
LINE
  8
0
 10
185.443
 20
46.0879
 11
184.888
 21
46.6432
  0
LINE
  8
0
 10
184.888
 20
46.6432
 11
184.369
 21
47.2322
  0
LINE
  8
0
 10
184.369
 20
47.2322
 11
183.887
 21
47.8527
  0
LINE
  8
0
 10
183.887
 20
47.8527
 11
183.446
 21
48.5022
  0
LINE
  8
0
 10
183.446
 20
48.5022
 11
183.046
 21
49.1781
  0
LINE
  8
0
 10
183.046
 20
49.1781
 11
182.69
 21
49.8777
  0
LINE
  8
0
 10
182.69
 20
49.8777
 11
182.378
 21
50.5984
  0
LINE
  8
0
 10
182.378
 20
50.5984
 11
182.112
 21
51.3373
  0
LINE
  8
0
 10
182.112
 20
51.3373
 11
181.893
 21
52.0914
  0
LINE
  8
0
 10
181.893
 20
52.0914
 11
181.721
 21
52.8577
  0
LINE
  8
0
 10
181.721
 20
52.8577
 11
181.599
 21
53.6333
  0
LINE
  8
0
 10
181.599
 20
53.6333
 11
181.525
 21
54.4151
  0
LINE
  8
0
 10
181.525
 20
54.4151
 11
181.5
 21
55.2
  0
LINE
  8
0
 10
181.5
 20
55.2
 11
181.525
 21
55.9849
  0
LINE
  8
0
 10
181.525
 20
55.9849
 11
181.599
 21
56.7667
  0
LINE
  8
0
 10
181.599
 20
56.7667
 11
181.721
 21
57.5423
  0
LINE
  8
0
 10
181.721
 20
57.5423
 11
181.893
 21
58.3086
  0
LINE
  8
0
 10
181.893
 20
58.3086
 11
182.112
 21
59.0627
  0
LINE
  8
0
 10
182.112
 20
59.0627
 11
182.378
 21
59.8015
  0
LINE
  8
0
 10
182.378
 20
59.8015
 11
182.69
 21
60.5222
  0
LINE
  8
0
 10
182.69
 20
60.5222
 11
183.046
 21
61.2219
  0
LINE
  8
0
 10
183.046
 20
61.2219
 11
183.446
 21
61.8978
  0
LINE
  8
0
 10
183.446
 20
61.8978
 11
183.887
 21
62.5473
  0
LINE
  8
0
 10
183.887
 20
62.5473
 11
184.369
 21
63.1678
  0
LINE
  8
0
 10
184.369
 20
63.1678
 11
184.888
 21
63.7568
  0
LINE
  8
0
 10
184.888
 20
63.7568
 11
185.443
 21
64.3121
  0
LINE
  8
0
 10
185.443
 20
64.3121
 11
186.032
 21
64.8314
  0
LINE
  8
0
 10
186.032
 20
64.8314
 11
186.653
 21
65.3127
  0
LINE
  8
0
 10
186.653
 20
65.3127
 11
187.302
 21
65.7541
  0
LINE
  8
0
 10
187.302
 20
65.7541
 11
187.978
 21
66.1538
  0
LINE
  8
0
 10
187.978
 20
66.1538
 11
188.678
 21
66.5103
  0
LINE
  8
0
 10
188.678
 20
66.5103
 11
189.398
 21
66.8222
  0
LINE
  8
0
 10
189.398
 20
66.8222
 11
190.137
 21
67.0882
  0
LINE
  8
0
 10
190.137
 20
67.0882
 11
190.891
 21
67.3073
  0
LINE
  8
0
 10
190.891
 20
67.3073
 11
191.658
 21
67.4786
  0
LINE
  8
0
 10
191.658
 20
67.4786
 11
192.433
 21
67.6014
  0
LINE
  8
0
 10
192.433
 20
67.6014
 11
193.215
 21
67.6753
  0
LINE
  8
0
 10
193.215
 20
67.6753
 11
194
 21
67.7
  0
LINE
  8
0
 10
194
 20
67.7
 11
194.785
 21
67.6753
  0
LINE
  8
0
 10
194.785
 20
67.6753
 11
195.567
 21
67.6014
  0
LINE
  8
0
 10
195.567
 20
67.6014
 11
196.342
 21
67.4786
  0
LINE
  8
0
 10
196.342
 20
67.4786
 11
197.109
 21
67.3073
  0
LINE
  8
0
 10
197.109
 20
67.3073
 11
197.863
 21
67.0882
  0
LINE
  8
0
 10
197.863
 20
67.0882
 11
198.602
 21
66.8222
  0
LINE
  8
0
 10
198.602
 20
66.8222
 11
199.322
 21
66.5103
  0
LINE
  8
0
 10
199.322
 20
66.5103
 11
200.022
 21
66.1538
  0
LINE
  8
0
 10
200.022
 20
66.1538
 11
200.698
 21
65.7541
  0
LINE
  8
0
 10
200.698
 20
65.7541
 11
201.347
 21
65.3127
  0
LINE
  8
0
 10
201.347
 20
65.3127
 11
201.968
 21
64.8314
  0
LINE
  8
0
 10
201.968
 20
64.8314
 11
202.557
 21
64.3121
  0
LINE
  8
0
 10
202.557
 20
64.3121
 11
203.112
 21
63.7568
  0
LINE
  8
0
 10
203.112
 20
63.7568
 11
203.631
 21
63.1678
  0
LINE
  8
0
 10
203.631
 20
63.1678
 11
204.113
 21
62.5473
  0
LINE
  8
0
 10
204.113
 20
62.5473
 11
204.554
 21
61.8978
  0
LINE
  8
0
 10
204.554
 20
61.8978
 11
204.954
 21
61.2219
  0
LINE
  8
0
 10
204.954
 20
61.2219
 11
205.31
 21
60.5222
  0
LINE
  8
0
 10
205.31
 20
60.5222
 11
205.622
 21
59.8015
  0
LINE
  8
0
 10
205.622
 20
59.8015
 11
205.888
 21
59.0627
  0
LINE
  8
0
 10
205.888
 20
59.0627
 11
206.107
 21
58.3086
  0
LINE
  8
0
 10
206.107
 20
58.3086
 11
206.279
 21
57.5423
  0
LINE
  8
0
 10
206.279
 20
57.5423
 11
206.401
 21
56.7667
  0
LINE
  8
0
 10
206.401
 20
56.7667
 11
206.475
 21
55.9849
  0
LINE
  8
0
 10
206.475
 20
55.9849
 11
206.5
 21
55.2
  0
LINE
  8
0
 10
206.5
 20
55.2
 11
206.475
 21
54.4151
  0
LINE
  8
0
 10
206.475
 20
54.4151
 11
206.401
 21
53.6333
  0
LINE
  8
0
 10
206.401
 20
53.6333
 11
206.279
 21
52.8577
  0
LINE
  8
0
 10
206.279
 20
52.8577
 11
206.107
 21
52.0914
  0
LINE
  8
0
 10
206.107
 20
52.0914
 11
205.888
 21
51.3373
  0
LINE
  8
0
 10
205.888
 20
51.3373
 11
205.622
 21
50.5984
  0
LINE
  8
0
 10
205.622
 20
50.5984
 11
205.31
 21
49.8777
  0
LINE
  8
0
 10
205.31
 20
49.8777
 11
204.954
 21
49.1781
  0
LINE
  8
0
 10
204.954
 20
49.1781
 11
204.554
 21
48.5022
  0
LINE
  8
0
 10
204.554
 20
48.5022
 11
204.113
 21
47.8527
  0
LINE
  8
0
 10
204.113
 20
47.8527
 11
203.631
 21
47.2322
  0
LINE
  8
0
 10
203.631
 20
47.2322
 11
203.112
 21
46.6432
  0
LINE
  8
0
 10
203.112
 20
46.6432
 11
202.557
 21
46.0879
  0
LINE
  8
0
 10
202.557
 20
46.0879
 11
201.968
 21
45.5686
  0
LINE
  8
0
 10
201.968
 20
45.5686
 11
201.347
 21
45.0873
  0
LINE
  8
0
 10
201.347
 20
45.0873
 11
200.698
 21
44.6459
  0
LINE
  8
0
 10
200.698
 20
44.6459
 11
200.022
 21
44.2462
  0
LINE
  8
0
 10
200.022
 20
44.2462
 11
199.322
 21
43.8896
  0
LINE
  8
0
 10
199.322
 20
43.8896
 11
198.602
 21
43.5778
  0
LINE
  8
0
 10
198.602
 20
43.5778
 11
197.863
 21
43.3118
  0
LINE
  8
0
 10
197.863
 20
43.3118
 11
197.109
 21
43.0927
  0
LINE
  8
0
 10
197.109
 20
43.0927
 11
196.342
 21
42.9214
  0
LINE
  8
0
 10
196.342
 20
42.9214
 11
195.567
 21
42.7986
  0
LINE
  8
0
 10
195.567
 20
42.7986
 11
194.785
 21
42.7247
  0
LINE
  8
0
 10
194.785
 20
42.7247
 11
194
 21
42.7
  0
LINE
  8
0
 10
194
 20
42.7
 11
193.215
 21
42.7247
  0
LINE
  8
0
 10
135.615
 20
42.4747
 11
134.833
 21
42.5486
  0
LINE
  8
0
 10
134.833
 20
42.5486
 11
134.058
 21
42.6714
  0
LINE
  8
0
 10
134.058
 20
42.6714
 11
133.291
 21
42.8427
  0
LINE
  8
0
 10
133.291
 20
42.8427
 11
132.537
 21
43.0618
  0
LINE
  8
0
 10
132.537
 20
43.0618
 11
131.798
 21
43.3278
  0
LINE
  8
0
 10
131.798
 20
43.3278
 11
131.078
 21
43.6396
  0
LINE
  8
0
 10
131.078
 20
43.6396
 11
130.378
 21
43.9962
  0
LINE
  8
0
 10
130.378
 20
43.9962
 11
129.702
 21
44.3959
  0
LINE
  8
0
 10
129.702
 20
44.3959
 11
129.053
 21
44.8373
  0
LINE
  8
0
 10
129.053
 20
44.8373
 11
128.432
 21
45.3186
  0
LINE
  8
0
 10
128.432
 20
45.3186
 11
127.843
 21
45.8379
  0
LINE
  8
0
 10
127.843
 20
45.8379
 11
127.288
 21
46.3932
  0
LINE
  8
0
 10
127.288
 20
46.3932
 11
126.769
 21
46.9822
  0
LINE
  8
0
 10
126.769
 20
46.9822
 11
126.287
 21
47.6027
  0
LINE
  8
0
 10
126.287
 20
47.6027
 11
125.846
 21
48.2522
  0
LINE
  8
0
 10
125.846
 20
48.2522
 11
125.446
 21
48.9281
  0
LINE
  8
0
 10
125.446
 20
48.9281
 11
125.09
 21
49.6277
  0
LINE
  8
0
 10
125.09
 20
49.6277
 11
124.778
 21
50.3484
  0
LINE
  8
0
 10
124.778
 20
50.3484
 11
124.512
 21
51.0873
  0
LINE
  8
0
 10
124.512
 20
51.0873
 11
124.293
 21
51.8414
  0
LINE
  8
0
 10
124.293
 20
51.8414
 11
124.121
 21
52.6077
  0
LINE
  8
0
 10
124.121
 20
52.6077
 11
123.999
 21
53.3833
  0
LINE
  8
0
 10
123.999
 20
53.3833
 11
123.925
 21
54.1651
  0
LINE
  8
0
 10
123.925
 20
54.1651
 11
123.9
 21
54.95
  0
LINE
  8
0
 10
123.9
 20
54.95
 11
123.925
 21
55.7349
  0
LINE
  8
0
 10
123.925
 20
55.7349
 11
123.999
 21
56.5167
  0
LINE
  8
0
 10
123.999
 20
56.5167
 11
124.121
 21
57.2923
  0
LINE
  8
0
 10
124.121
 20
57.2923
 11
124.293
 21
58.0586
  0
LINE
  8
0
 10
124.293
 20
58.0586
 11
124.512
 21
58.8127
  0
LINE
  8
0
 10
124.512
 20
58.8127
 11
124.778
 21
59.5515
  0
LINE
  8
0
 10
124.778
 20
59.5515
 11
125.09
 21
60.2722
  0
LINE
  8
0
 10
125.09
 20
60.2722
 11
125.446
 21
60.9719
  0
LINE
  8
0
 10
125.446
 20
60.9719
 11
125.846
 21
61.6478
  0
LINE
  8
0
 10
125.846
 20
61.6478
 11
126.287
 21
62.2973
  0
LINE
  8
0
 10
126.287
 20
62.2973
 11
126.769
 21
62.9178
  0
LINE
  8
0
 10
126.769
 20
62.9178
 11
127.288
 21
63.5068
  0
LINE
  8
0
 10
127.288
 20
63.5068
 11
127.843
 21
64.0621
  0
LINE
  8
0
 10
127.843
 20
64.0621
 11
128.432
 21
64.5814
  0
LINE
  8
0
 10
128.432
 20
64.5814
 11
129.053
 21
65.0627
  0
LINE
  8
0
 10
129.053
 20
65.0627
 11
129.702
 21
65.5041
  0
LINE
  8
0
 10
129.702
 20
65.5041
 11
130.378
 21
65.9038
  0
LINE
  8
0
 10
130.378
 20
65.9038
 11
131.078
 21
66.2603
  0
LINE
  8
0
 10
131.078
 20
66.2603
 11
131.798
 21
66.5722
  0
LINE
  8
0
 10
131.798
 20
66.5722
 11
132.537
 21
66.8382
  0
LINE
  8
0
 10
132.537
 20
66.8382
 11
133.291
 21
67.0573
  0
LINE
  8
0
 10
133.291
 20
67.0573
 11
134.058
 21
67.2286
  0
LINE
  8
0
 10
134.058
 20
67.2286
 11
134.833
 21
67.3514
  0
LINE
  8
0
 10
134.833
 20
67.3514
 11
135.615
 21
67.4253
  0
LINE
  8
0
 10
135.615
 20
67.4253
 11
136.4
 21
67.45
  0
LINE
  8
0
 10
136.4
 20
67.45
 11
137.185
 21
67.4253
  0
LINE
  8
0
 10
137.185
 20
67.4253
 11
137.967
 21
67.3514
  0
LINE
  8
0
 10
137.967
 20
67.3514
 11
138.742
 21
67.2286
  0
LINE
  8
0
 10
138.742
 20
67.2286
 11
139.509
 21
67.0573
  0
LINE
  8
0
 10
139.509
 20
67.0573
 11
140.263
 21
66.8382
  0
LINE
  8
0
 10
140.263
 20
66.8382
 11
141.002
 21
66.5722
  0
LINE
  8
0
 10
141.002
 20
66.5722
 11
141.722
 21
66.2603
  0
LINE
  8
0
 10
141.722
 20
66.2603
 11
142.422
 21
65.9038
  0
LINE
  8
0
 10
142.422
 20
65.9038
 11
143.098
 21
65.5041
  0
LINE
  8
0
 10
143.098
 20
65.5041
 11
143.747
 21
65.0627
  0
LINE
  8
0
 10
143.747
 20
65.0627
 11
144.368
 21
64.5814
  0
LINE
  8
0
 10
144.368
 20
64.5814
 11
144.957
 21
64.0621
  0
LINE
  8
0
 10
144.957
 20
64.0621
 11
145.512
 21
63.5068
  0
LINE
  8
0
 10
145.512
 20
63.5068
 11
146.031
 21
62.9178
  0
LINE
  8
0
 10
146.031
 20
62.9178
 11
146.513
 21
62.2973
  0
LINE
  8
0
 10
146.513
 20
62.2973
 11
146.954
 21
61.6478
  0
LINE
  8
0
 10
146.954
 20
61.6478
 11
147.354
 21
60.9719
  0
LINE
  8
0
 10
147.354
 20
60.9719
 11
147.71
 21
60.2722
  0
LINE
  8
0
 10
147.71
 20
60.2722
 11
148.022
 21
59.5515
  0
LINE
  8
0
 10
148.022
 20
59.5515
 11
148.288
 21
58.8127
  0
LINE
  8
0
 10
148.288
 20
58.8127
 11
148.507
 21
58.0586
  0
LINE
  8
0
 10
148.507
 20
58.0586
 11
148.679
 21
57.2923
  0
LINE
  8
0
 10
148.679
 20
57.2923
 11
148.801
 21
56.5167
  0
LINE
  8
0
 10
148.801
 20
56.5167
 11
148.875
 21
55.7349
  0
LINE
  8
0
 10
148.875
 20
55.7349
 11
148.9
 21
54.95
  0
LINE
  8
0
 10
148.9
 20
54.95
 11
148.875
 21
54.1651
  0
LINE
  8
0
 10
148.875
 20
54.1651
 11
148.801
 21
53.3833
  0
LINE
  8
0
 10
148.801
 20
53.3833
 11
148.679
 21
52.6077
  0
LINE
  8
0
 10
148.679
 20
52.6077
 11
148.507
 21
51.8414
  0
LINE
  8
0
 10
148.507
 20
51.8414
 11
148.288
 21
51.0873
  0
LINE
  8
0
 10
148.288
 20
51.0873
 11
148.022
 21
50.3484
  0
LINE
  8
0
 10
148.022
 20
50.3484
 11
147.71
 21
49.6277
  0
LINE
  8
0
 10
147.71
 20
49.6277
 11
147.354
 21
48.9281
  0
LINE
  8
0
 10
147.354
 20
48.9281
 11
146.954
 21
48.2522
  0
LINE
  8
0
 10
146.954
 20
48.2522
 11
146.513
 21
47.6027
  0
LINE
  8
0
 10
146.513
 20
47.6027
 11
146.031
 21
46.9822
  0
LINE
  8
0
 10
146.031
 20
46.9822
 11
145.512
 21
46.3932
  0
LINE
  8
0
 10
145.512
 20
46.3932
 11
144.957
 21
45.8379
  0
LINE
  8
0
 10
144.957
 20
45.8379
 11
144.368
 21
45.3186
  0
LINE
  8
0
 10
144.368
 20
45.3186
 11
143.747
 21
44.8373
  0
LINE
  8
0
 10
143.747
 20
44.8373
 11
143.098
 21
44.3959
  0
LINE
  8
0
 10
143.098
 20
44.3959
 11
142.422
 21
43.9962
  0
LINE
  8
0
 10
142.422
 20
43.9962
 11
141.722
 21
43.6396
  0
LINE
  8
0
 10
141.722
 20
43.6396
 11
141.002
 21
43.3278
  0
LINE
  8
0
 10
141.002
 20
43.3278
 11
140.263
 21
43.0618
  0
LINE
  8
0
 10
140.263
 20
43.0618
 11
139.509
 21
42.8427
  0
LINE
  8
0
 10
139.509
 20
42.8427
 11
138.742
 21
42.6714
  0
LINE
  8
0
 10
138.742
 20
42.6714
 11
137.967
 21
42.5486
  0
LINE
  8
0
 10
137.967
 20
42.5486
 11
137.185
 21
42.4747
  0
LINE
  8
0
 10
137.185
 20
42.4747
 11
136.4
 21
42.45
  0
LINE
  8
0
 10
136.4
 20
42.45
 11
135.615
 21
42.4747
  0
LINE
  8
0
 10
14.2151
 20
39.2247
 11
13.4333
 21
39.2986
  0
LINE
  8
0
 10
13.4333
 20
39.2986
 11
12.6577
 21
39.4214
  0
LINE
  8
0
 10
12.6577
 20
39.4214
 11
11.8914
 21
39.5927
  0
LINE
  8
0
 10
11.8914
 20
39.5927
 11
11.1373
 21
39.8118
  0
LINE
  8
0
 10
11.1373
 20
39.8118
 11
10.3984
 21
40.0778
  0
LINE
  8
0
 10
10.3984
 20
40.0778
 11
9.67775
 21
40.3896
  0
LINE
  8
0
 10
9.67775
 20
40.3896
 11
8.97807
 21
40.7462
  0
LINE
  8
0
 10
8.97807
 20
40.7462
 11
8.30215
 21
41.1459
  0
LINE
  8
0
 10
8.30215
 20
41.1459
 11
7.65268
 21
41.5873
  0
LINE
  8
0
 10
7.65268
 20
41.5873
 11
7.0322
 21
42.0686
  0
LINE
  8
0
 10
7.0322
 20
42.0686
 11
6.44316
 21
42.5879
  0
LINE
  8
0
 10
6.44316
 20
42.5879
 11
5.88788
 21
43.1432
  0
LINE
  8
0
 10
5.88788
 20
43.1432
 11
5.36858
 21
43.7322
  0
LINE
  8
0
 10
5.36858
 20
43.7322
 11
4.88728
 21
44.3527
  0
LINE
  8
0
 10
4.88728
 20
44.3527
 11
4.44589
 21
45.0022
  0
LINE
  8
0
 10
4.44589
 20
45.0022
 11
4.04616
 21
45.6781
  0
LINE
  8
0
 10
4.04616
 20
45.6781
 11
3.68965
 21
46.3777
  0
LINE
  8
0
 10
3.68965
 20
46.3777
 11
3.37779
 21
47.0984
  0
LINE
  8
0
 10
3.37779
 20
47.0984
 11
3.11179
 21
47.8373
  0
LINE
  8
0
 10
3.11179
 20
47.8373
 11
2.8927
 21
48.5914
  0
LINE
  8
0
 10
2.8927
 20
48.5914
 11
2.72141
 21
49.3577
  0
LINE
  8
0
 10
2.72141
 20
49.3577
 11
2.59856
 21
50.1333
  0
LINE
  8
0
 10
2.59856
 20
50.1333
 11
2.52466
 21
50.9151
  0
LINE
  8
0
 10
2.52466
 20
50.9151
 11
2.5
 21
51.7
  0
LINE
  8
0
 10
2.5
 20
51.7
 11
2.52466
 21
52.4849
  0
LINE
  8
0
 10
2.52466
 20
52.4849
 11
2.59856
 21
53.2667
  0
LINE
  8
0
 10
2.59856
 20
53.2667
 11
2.72141
 21
54.0423
  0
LINE
  8
0
 10
2.72141
 20
54.0423
 11
2.8927
 21
54.8086
  0
LINE
  8
0
 10
2.8927
 20
54.8086
 11
3.11179
 21
55.5627
  0
LINE
  8
0
 10
3.11179
 20
55.5627
 11
3.37779
 21
56.3015
  0
LINE
  8
0
 10
3.37779
 20
56.3015
 11
3.68965
 21
57.0222
  0
LINE
  8
0
 10
3.68965
 20
57.0222
 11
4.04616
 21
57.7219
  0
LINE
  8
0
 10
4.04616
 20
57.7219
 11
4.44589
 21
58.3978
  0
LINE
  8
0
 10
4.44589
 20
58.3978
 11
4.88728
 21
59.0473
  0
LINE
  8
0
 10
4.88728
 20
59.0473
 11
5.36858
 21
59.6678
  0
LINE
  8
0
 10
5.36858
 20
59.6678
 11
5.88788
 21
60.2568
  0
LINE
  8
0
 10
5.88788
 20
60.2568
 11
6.44316
 21
60.8121
  0
LINE
  8
0
 10
6.44316
 20
60.8121
 11
7.0322
 21
61.3314
  0
LINE
  8
0
 10
7.0322
 20
61.3314
 11
7.65268
 21
61.8127
  0
LINE
  8
0
 10
7.65268
 20
61.8127
 11
8.30215
 21
62.2541
  0
LINE
  8
0
 10
8.30215
 20
62.2541
 11
8.97807
 21
62.6538
  0
LINE
  8
0
 10
8.97807
 20
62.6538
 11
9.67775
 21
63.0103
  0
LINE
  8
0
 10
9.67775
 20
63.0103
 11
10.3984
 21
63.3222
  0
LINE
  8
0
 10
10.3984
 20
63.3222
 11
11.1373
 21
63.5882
  0
LINE
  8
0
 10
11.1373
 20
63.5882
 11
11.8914
 21
63.8073
  0
LINE
  8
0
 10
11.8914
 20
63.8073
 11
12.6577
 21
63.9786
  0
LINE
  8
0
 10
12.6577
 20
63.9786
 11
13.4333
 21
64.1014
  0
LINE
  8
0
 10
13.4333
 20
64.1014
 11
14.2151
 21
64.1753
  0
LINE
  8
0
 10
14.2151
 20
64.1753
 11
15
 21
64.2
  0
LINE
  8
0
 10
15
 20
64.2
 11
15.7849
 21
64.1753
  0
LINE
  8
0
 10
15.7849
 20
64.1753
 11
16.5667
 21
64.1014
  0
LINE
  8
0
 10
16.5667
 20
64.1014
 11
17.3423
 21
63.9786
  0
LINE
  8
0
 10
17.3423
 20
63.9786
 11
18.1086
 21
63.8073
  0
LINE
  8
0
 10
18.1086
 20
63.8073
 11
18.8627
 21
63.5882
  0
LINE
  8
0
 10
18.8627
 20
63.5882
 11
19.6015
 21
63.3222
  0
LINE
  8
0
 10
19.6015
 20
63.3222
 11
20.3222
 21
63.0103
  0
LINE
  8
0
 10
20.3222
 20
63.0103
 11
21.0219
 21
62.6538
  0
LINE
  8
0
 10
21.0219
 20
62.6538
 11
21.6978
 21
62.2541
  0
LINE
  8
0
 10
21.6978
 20
62.2541
 11
22.3473
 21
61.8127
  0
LINE
  8
0
 10
22.3473
 20
61.8127
 11
22.9678
 21
61.3314
  0
LINE
  8
0
 10
22.9678
 20
61.3314
 11
23.5568
 21
60.8121
  0
LINE
  8
0
 10
23.5568
 20
60.8121
 11
24.1121
 21
60.2568
  0
LINE
  8
0
 10
24.1121
 20
60.2568
 11
24.6314
 21
59.6678
  0
LINE
  8
0
 10
24.6314
 20
59.6678
 11
25.1127
 21
59.0473
  0
LINE
  8
0
 10
25.1127
 20
59.0473
 11
25.5541
 21
58.3978
  0
LINE
  8
0
 10
25.5541
 20
58.3978
 11
25.9538
 21
57.7219
  0
LINE
  8
0
 10
25.9538
 20
57.7219
 11
26.3103
 21
57.0222
  0
LINE
  8
0
 10
26.3103
 20
57.0222
 11
26.6222
 21
56.3015
  0
LINE
  8
0
 10
26.6222
 20
56.3015
 11
26.8882
 21
55.5627
  0
LINE
  8
0
 10
26.8882
 20
55.5627
 11
27.1073
 21
54.8086
  0
LINE
  8
0
 10
27.1073
 20
54.8086
 11
27.2786
 21
54.0423
  0
LINE
  8
0
 10
27.2786
 20
54.0423
 11
27.4014
 21
53.2667
  0
LINE
  8
0
 10
27.4014
 20
53.2667
 11
27.4753
 21
52.4849
  0
LINE
  8
0
 10
27.4753
 20
52.4849
 11
27.5
 21
51.7
  0
LINE
  8
0
 10
27.5
 20
51.7
 11
27.4753
 21
50.9151
  0
LINE
  8
0
 10
27.4753
 20
50.9151
 11
27.4014
 21
50.1333
  0
LINE
  8
0
 10
27.4014
 20
50.1333
 11
27.2786
 21
49.3577
  0
LINE
  8
0
 10
27.2786
 20
49.3577
 11
27.1073
 21
48.5914
  0
LINE
  8
0
 10
27.1073
 20
48.5914
 11
26.8882
 21
47.8373
  0
LINE
  8
0
 10
26.8882
 20
47.8373
 11
26.6222
 21
47.0984
  0
LINE
  8
0
 10
26.6222
 20
47.0984
 11
26.3103
 21
46.3777
  0
LINE
  8
0
 10
26.3103
 20
46.3777
 11
25.9538
 21
45.6781
  0
LINE
  8
0
 10
25.9538
 20
45.6781
 11
25.5541
 21
45.0022
  0
LINE
  8
0
 10
25.5541
 20
45.0022
 11
25.1127
 21
44.3527
  0
LINE
  8
0
 10
25.1127
 20
44.3527
 11
24.6314
 21
43.7322
  0
LINE
  8
0
 10
24.6314
 20
43.7322
 11
24.1121
 21
43.1432
  0
LINE
  8
0
 10
24.1121
 20
43.1432
 11
23.5568
 21
42.5879
  0
LINE
  8
0
 10
23.5568
 20
42.5879
 11
22.9678
 21
42.0686
  0
LINE
  8
0
 10
22.9678
 20
42.0686
 11
22.3473
 21
41.5873
  0
LINE
  8
0
 10
22.3473
 20
41.5873
 11
21.6978
 21
41.1459
  0
LINE
  8
0
 10
21.6978
 20
41.1459
 11
21.0219
 21
40.7462
  0
LINE
  8
0
 10
21.0219
 20
40.7462
 11
20.3222
 21
40.3896
  0
LINE
  8
0
 10
20.3222
 20
40.3896
 11
19.6015
 21
40.0778
  0
LINE
  8
0
 10
19.6015
 20
40.0778
 11
18.8627
 21
39.8118
  0
LINE
  8
0
 10
18.8627
 20
39.8118
 11
18.1086
 21
39.5927
  0
LINE
  8
0
 10
18.1086
 20
39.5927
 11
17.3423
 21
39.4214
  0
LINE
  8
0
 10
17.3423
 20
39.4214
 11
16.5667
 21
39.2986
  0
LINE
  8
0
 10
16.5667
 20
39.2986
 11
15.7849
 21
39.2247
  0
LINE
  8
0
 10
15.7849
 20
39.2247
 11
15
 21
39.2
  0
LINE
  8
0
 10
15
 20
39.2
 11
14.2151
 21
39.2247
  0
LINE
  8
0
 10
106.715
 20
37.2097
 11
105.933
 21
37.2836
  0
LINE
  8
0
 10
105.933
 20
37.2836
 11
105.158
 21
37.4064
  0
LINE
  8
0
 10
105.158
 20
37.4064
 11
104.391
 21
37.5777
  0
LINE
  8
0
 10
104.391
 20
37.5777
 11
103.637
 21
37.7968
  0
LINE
  8
0
 10
103.637
 20
37.7968
 11
102.898
 21
38.0628
  0
LINE
  8
0
 10
102.898
 20
38.0628
 11
102.178
 21
38.3746
  0
LINE
  8
0
 10
102.178
 20
38.3746
 11
101.478
 21
38.7312
  0
LINE
  8
0
 10
101.478
 20
38.7312
 11
100.802
 21
39.1309
  0
LINE
  8
0
 10
100.802
 20
39.1309
 11
100.153
 21
39.5723
  0
LINE
  8
0
 10
100.153
 20
39.5723
 11
99.5322
 21
40.0536
  0
LINE
  8
0
 10
99.5322
 20
40.0536
 11
98.9432
 21
40.5729
  0
LINE
  8
0
 10
98.9432
 20
40.5729
 11
98.3879
 21
41.1282
  0
LINE
  8
0
 10
98.3879
 20
41.1282
 11
97.8686
 21
41.7172
  0
LINE
  8
0
 10
97.8686
 20
41.7172
 11
97.3873
 21
42.3377
  0
LINE
  8
0
 10
97.3873
 20
42.3377
 11
96.9459
 21
42.9872
  0
LINE
  8
0
 10
96.9459
 20
42.9872
 11
96.5462
 21
43.6631
  0
LINE
  8
0
 10
96.5462
 20
43.6631
 11
96.1897
 21
44.3627
  0
LINE
  8
0
 10
96.1897
 20
44.3627
 11
95.8778
 21
45.0834
  0
LINE
  8
0
 10
95.8778
 20
45.0834
 11
95.6118
 21
45.8223
  0
LINE
  8
0
 10
95.6118
 20
45.8223
 11
95.3927
 21
46.5764
  0
LINE
  8
0
 10
95.3927
 20
46.5764
 11
95.2214
 21
47.3427
  0
LINE
  8
0
 10
95.2214
 20
47.3427
 11
95.0986
 21
48.1183
  0
LINE
  8
0
 10
95.0986
 20
48.1183
 11
95.0247
 21
48.9001
  0
LINE
  8
0
 10
95.0247
 20
48.9001
 11
95
 21
49.685
  0
LINE
  8
0
 10
95
 20
49.685
 11
95.0247
 21
50.4699
  0
LINE
  8
0
 10
95.0247
 20
50.4699
 11
95.0986
 21
51.2517
  0
LINE
  8
0
 10
95.0986
 20
51.2517
 11
95.2214
 21
52.0273
  0
LINE
  8
0
 10
95.2214
 20
52.0273
 11
95.3927
 21
52.7936
  0
LINE
  8
0
 10
95.3927
 20
52.7936
 11
95.6118
 21
53.5477
  0
LINE
  8
0
 10
95.6118
 20
53.5477
 11
95.8778
 21
54.2865
  0
LINE
  8
0
 10
95.8778
 20
54.2865
 11
96.1897
 21
55.0072
  0
LINE
  8
0
 10
96.1897
 20
55.0072
 11
96.5462
 21
55.7069
  0
LINE
  8
0
 10
96.5462
 20
55.7069
 11
96.9459
 21
56.3828
  0
LINE
  8
0
 10
96.9459
 20
56.3828
 11
97.3873
 21
57.0323
  0
LINE
  8
0
 10
97.3873
 20
57.0323
 11
97.8686
 21
57.6528
  0
LINE
  8
0
 10
97.8686
 20
57.6528
 11
98.3879
 21
58.2418
  0
LINE
  8
0
 10
98.3879
 20
58.2418
 11
98.9432
 21
58.7971
  0
LINE
  8
0
 10
98.9432
 20
58.7971
 11
99.5322
 21
59.3164
  0
LINE
  8
0
 10
99.5322
 20
59.3164
 11
100.153
 21
59.7977
  0
LINE
  8
0
 10
100.153
 20
59.7977
 11
100.802
 21
60.2391
  0
LINE
  8
0
 10
100.802
 20
60.2391
 11
101.478
 21
60.6388
  0
LINE
  8
0
 10
101.478
 20
60.6388
 11
102.178
 21
60.9953
  0
LINE
  8
0
 10
102.178
 20
60.9953
 11
102.898
 21
61.3072
  0
LINE
  8
0
 10
102.898
 20
61.3072
 11
103.637
 21
61.5732
  0
LINE
  8
0
 10
103.637
 20
61.5732
 11
104.391
 21
61.7923
  0
LINE
  8
0
 10
104.391
 20
61.7923
 11
105.158
 21
61.9636
  0
LINE
  8
0
 10
105.158
 20
61.9636
 11
105.933
 21
62.0864
  0
LINE
  8
0
 10
105.933
 20
62.0864
 11
106.715
 21
62.1603
  0
LINE
  8
0
 10
106.715
 20
62.1603
 11
107.5
 21
62.185
  0
LINE
  8
0
 10
107.5
 20
62.185
 11
108.285
 21
62.1603
  0
LINE
  8
0
 10
108.285
 20
62.1603
 11
109.067
 21
62.0864
  0
LINE
  8
0
 10
109.067
 20
62.0864
 11
109.842
 21
61.9636
  0
LINE
  8
0
 10
109.842
 20
61.9636
 11
110.609
 21
61.7923
  0
LINE
  8
0
 10
110.609
 20
61.7923
 11
111.363
 21
61.5732
  0
LINE
  8
0
 10
111.363
 20
61.5732
 11
112.102
 21
61.3072
  0
LINE
  8
0
 10
112.102
 20
61.3072
 11
112.822
 21
60.9953
  0
LINE
  8
0
 10
112.822
 20
60.9953
 11
113.522
 21
60.6388
  0
LINE
  8
0
 10
113.522
 20
60.6388
 11
114.198
 21
60.2391
  0
LINE
  8
0
 10
114.198
 20
60.2391
 11
114.847
 21
59.7977
  0
LINE
  8
0
 10
114.847
 20
59.7977
 11
115.468
 21
59.3164
  0
LINE
  8
0
 10
115.468
 20
59.3164
 11
116.057
 21
58.7971
  0
LINE
  8
0
 10
116.057
 20
58.7971
 11
116.612
 21
58.2418
  0
LINE
  8
0
 10
116.612
 20
58.2418
 11
117.131
 21
57.6528
  0
LINE
  8
0
 10
117.131
 20
57.6528
 11
117.613
 21
57.0323
  0
LINE
  8
0
 10
117.613
 20
57.0323
 11
118.054
 21
56.3828
  0
LINE
  8
0
 10
118.054
 20
56.3828
 11
118.454
 21
55.7069
  0
LINE
  8
0
 10
118.454
 20
55.7069
 11
118.81
 21
55.0072
  0
LINE
  8
0
 10
118.81
 20
55.0072
 11
119.122
 21
54.2865
  0
LINE
  8
0
 10
119.122
 20
54.2865
 11
119.388
 21
53.5477
  0
LINE
  8
0
 10
119.388
 20
53.5477
 11
119.607
 21
52.7936
  0
LINE
  8
0
 10
119.607
 20
52.7936
 11
119.779
 21
52.0273
  0
LINE
  8
0
 10
119.779
 20
52.0273
 11
119.901
 21
51.2517
  0
LINE
  8
0
 10
119.901
 20
51.2517
 11
119.975
 21
50.4699
  0
LINE
  8
0
 10
119.975
 20
50.4699
 11
120
 21
49.685
  0
LINE
  8
0
 10
120
 20
49.685
 11
119.975
 21
48.9001
  0
LINE
  8
0
 10
119.975
 20
48.9001
 11
119.901
 21
48.1183
  0
LINE
  8
0
 10
119.901
 20
48.1183
 11
119.779
 21
47.3427
  0
LINE
  8
0
 10
119.779
 20
47.3427
 11
119.607
 21
46.5764
  0
LINE
  8
0
 10
119.607
 20
46.5764
 11
119.388
 21
45.8223
  0
LINE
  8
0
 10
119.388
 20
45.8223
 11
119.122
 21
45.0834
  0
LINE
  8
0
 10
119.122
 20
45.0834
 11
118.81
 21
44.3627
  0
LINE
  8
0
 10
118.81
 20
44.3627
 11
118.454
 21
43.6631
  0
LINE
  8
0
 10
118.454
 20
43.6631
 11
118.054
 21
42.9872
  0
LINE
  8
0
 10
118.054
 20
42.9872
 11
117.613
 21
42.3377
  0
LINE
  8
0
 10
117.613
 20
42.3377
 11
117.131
 21
41.7172
  0
LINE
  8
0
 10
117.131
 20
41.7172
 11
116.612
 21
41.1282
  0
LINE
  8
0
 10
116.612
 20
41.1282
 11
116.057
 21
40.5729
  0
LINE
  8
0
 10
116.057
 20
40.5729
 11
115.468
 21
40.0536
  0
LINE
  8
0
 10
115.468
 20
40.0536
 11
114.847
 21
39.5723
  0
LINE
  8
0
 10
114.847
 20
39.5723
 11
114.198
 21
39.1309
  0
LINE
  8
0
 10
114.198
 20
39.1309
 11
113.522
 21
38.7312
  0
LINE
  8
0
 10
113.522
 20
38.7312
 11
112.822
 21
38.3746
  0
LINE
  8
0
 10
112.822
 20
38.3746
 11
112.102
 21
38.0628
  0
LINE
  8
0
 10
112.102
 20
38.0628
 11
111.363
 21
37.7968
  0
LINE
  8
0
 10
111.363
 20
37.7968
 11
110.609
 21
37.5777
  0
LINE
  8
0
 10
110.609
 20
37.5777
 11
109.842
 21
37.4064
  0
LINE
  8
0
 10
109.842
 20
37.4064
 11
109.067
 21
37.2836
  0
LINE
  8
0
 10
109.067
 20
37.2836
 11
108.285
 21
37.2097
  0
LINE
  8
0
 10
108.285
 20
37.2097
 11
107.5
 21
37.185
  0
LINE
  8
0
 10
107.5
 20
37.185
 11
106.715
 21
37.2097
  0
LINE
  8
0
 10
125.715
 20
15.3247
 11
124.933
 21
15.3986
  0
LINE
  8
0
 10
124.933
 20
15.3986
 11
124.158
 21
15.5214
  0
LINE
  8
0
 10
124.158
 20
15.5214
 11
123.391
 21
15.6927
  0
LINE
  8
0
 10
123.391
 20
15.6927
 11
122.637
 21
15.9118
  0
LINE
  8
0
 10
122.637
 20
15.9118
 11
121.898
 21
16.1778
  0
LINE
  8
0
 10
121.898
 20
16.1778
 11
121.178
 21
16.4897
  0
LINE
  8
0
 10
121.178
 20
16.4897
 11
120.478
 21
16.8462
  0
LINE
  8
0
 10
120.478
 20
16.8462
 11
119.802
 21
17.2459
  0
LINE
  8
0
 10
119.802
 20
17.2459
 11
119.153
 21
17.6873
  0
LINE
  8
0
 10
119.153
 20
17.6873
 11
118.532
 21
18.1686
  0
LINE
  8
0
 10
118.532
 20
18.1686
 11
117.943
 21
18.6879
  0
LINE
  8
0
 10
117.943
 20
18.6879
 11
117.388
 21
19.2431
  0
LINE
  8
0
 10
117.388
 20
19.2431
 11
116.869
 21
19.8322
  0
LINE
  8
0
 10
116.869
 20
19.8322
 11
116.387
 21
20.4527
  0
LINE
  8
0
 10
116.387
 20
20.4527
 11
115.946
 21
21.1022
  0
LINE
  8
0
 10
115.946
 20
21.1022
 11
115.546
 21
21.7781
  0
LINE
  8
0
 10
115.546
 20
21.7781
 11
115.19
 21
22.4778
  0
LINE
  8
0
 10
115.19
 20
22.4778
 11
114.878
 21
23.1984
  0
LINE
  8
0
 10
114.878
 20
23.1984
 11
114.612
 21
23.9373
  0
LINE
  8
0
 10
114.612
 20
23.9373
 11
114.393
 21
24.6914
  0
LINE
  8
0
 10
114.393
 20
24.6914
 11
114.221
 21
25.4577
  0
LINE
  8
0
 10
114.221
 20
25.4577
 11
114.099
 21
26.2333
  0
LINE
  8
0
 10
114.099
 20
26.2333
 11
114.025
 21
27.0151
  0
LINE
  8
0
 10
114.025
 20
27.0151
 11
114
 21
27.8
  0
LINE
  8
0
 10
114
 20
27.8
 11
114.025
 21
28.5849
  0
LINE
  8
0
 10
114.025
 20
28.5849
 11
114.099
 21
29.3667
  0
LINE
  8
0
 10
114.099
 20
29.3667
 11
114.221
 21
30.1423
  0
LINE
  8
0
 10
114.221
 20
30.1423
 11
114.393
 21
30.9086
  0
LINE
  8
0
 10
114.393
 20
30.9086
 11
114.612
 21
31.6627
  0
LINE
  8
0
 10
114.612
 20
31.6627
 11
114.878
 21
32.4016
  0
LINE
  8
0
 10
114.878
 20
32.4016
 11
115.19
 21
33.1222
  0
LINE
  8
0
 10
115.19
 20
33.1222
 11
115.546
 21
33.8219
  0
LINE
  8
0
 10
115.546
 20
33.8219
 11
115.946
 21
34.4978
  0
LINE
  8
0
 10
115.946
 20
34.4978
 11
116.387
 21
35.1473
  0
LINE
  8
0
 10
116.387
 20
35.1473
 11
116.869
 21
35.7678
  0
LINE
  8
0
 10
116.869
 20
35.7678
 11
117.388
 21
36.3568
  0
LINE
  8
0
 10
117.388
 20
36.3568
 11
117.943
 21
36.9121
  0
LINE
  8
0
 10
117.943
 20
36.9121
 11
118.532
 21
37.4314
  0
LINE
  8
0
 10
118.532
 20
37.4314
 11
119.153
 21
37.9127
  0
LINE
  8
0
 10
119.153
 20
37.9127
 11
119.802
 21
38.3541
  0
LINE
  8
0
 10
119.802
 20
38.3541
 11
120.478
 21
38.7538
  0
LINE
  8
0
 10
120.478
 20
38.7538
 11
121.178
 21
39.1103
  0
LINE
  8
0
 10
121.178
 20
39.1103
 11
121.898
 21
39.4222
  0
LINE
  8
0
 10
121.898
 20
39.4222
 11
122.637
 21
39.6882
  0
LINE
  8
0
 10
122.637
 20
39.6882
 11
123.391
 21
39.9073
  0
LINE
  8
0
 10
123.391
 20
39.9073
 11
124.158
 21
40.0786
  0
LINE
  8
0
 10
124.158
 20
40.0786
 11
124.933
 21
40.2014
  0
LINE
  8
0
 10
124.933
 20
40.2014
 11
125.715
 21
40.2753
  0
LINE
  8
0
 10
125.715
 20
40.2753
 11
126.5
 21
40.3
  0
LINE
  8
0
 10
126.5
 20
40.3
 11
127.285
 21
40.2753
  0
LINE
  8
0
 10
127.285
 20
40.2753
 11
128.067
 21
40.2014
  0
LINE
  8
0
 10
128.067
 20
40.2014
 11
128.842
 21
40.0786
  0
LINE
  8
0
 10
128.842
 20
40.0786
 11
129.609
 21
39.9073
  0
LINE
  8
0
 10
129.609
 20
39.9073
 11
130.363
 21
39.6882
  0
LINE
  8
0
 10
130.363
 20
39.6882
 11
131.102
 21
39.4222
  0
LINE
  8
0
 10
131.102
 20
39.4222
 11
131.822
 21
39.1103
  0
LINE
  8
0
 10
131.822
 20
39.1103
 11
132.522
 21
38.7538
  0
LINE
  8
0
 10
132.522
 20
38.7538
 11
133.198
 21
38.3541
  0
LINE
  8
0
 10
133.198
 20
38.3541
 11
133.847
 21
37.9127
  0
LINE
  8
0
 10
133.847
 20
37.9127
 11
134.468
 21
37.4314
  0
LINE
  8
0
 10
134.468
 20
37.4314
 11
135.057
 21
36.9121
  0
LINE
  8
0
 10
135.057
 20
36.9121
 11
135.612
 21
36.3568
  0
LINE
  8
0
 10
135.612
 20
36.3568
 11
136.131
 21
35.7678
  0
LINE
  8
0
 10
136.131
 20
35.7678
 11
136.613
 21
35.1473
  0
LINE
  8
0
 10
136.613
 20
35.1473
 11
137.054
 21
34.4978
  0
LINE
  8
0
 10
137.054
 20
34.4978
 11
137.454
 21
33.8219
  0
LINE
  8
0
 10
137.454
 20
33.8219
 11
137.81
 21
33.1222
  0
LINE
  8
0
 10
137.81
 20
33.1222
 11
138.122
 21
32.4016
  0
LINE
  8
0
 10
138.122
 20
32.4016
 11
138.388
 21
31.6627
  0
LINE
  8
0
 10
138.388
 20
31.6627
 11
138.607
 21
30.9086
  0
LINE
  8
0
 10
138.607
 20
30.9086
 11
138.779
 21
30.1423
  0
LINE
  8
0
 10
138.779
 20
30.1423
 11
138.901
 21
29.3667
  0
LINE
  8
0
 10
138.901
 20
29.3667
 11
138.975
 21
28.5849
  0
LINE
  8
0
 10
138.975
 20
28.5849
 11
139
 21
27.8
  0
LINE
  8
0
 10
139
 20
27.8
 11
138.975
 21
27.0151
  0
LINE
  8
0
 10
138.975
 20
27.0151
 11
138.901
 21
26.2333
  0
LINE
  8
0
 10
138.901
 20
26.2333
 11
138.779
 21
25.4577
  0
LINE
  8
0
 10
138.779
 20
25.4577
 11
138.607
 21
24.6914
  0
LINE
  8
0
 10
138.607
 20
24.6914
 11
138.388
 21
23.9373
  0
LINE
  8
0
 10
138.388
 20
23.9373
 11
138.122
 21
23.1984
  0
LINE
  8
0
 10
138.122
 20
23.1984
 11
137.81
 21
22.4778
  0
LINE
  8
0
 10
137.81
 20
22.4778
 11
137.454
 21
21.7781
  0
LINE
  8
0
 10
137.454
 20
21.7781
 11
137.054
 21
21.1022
  0
LINE
  8
0
 10
137.054
 20
21.1022
 11
136.613
 21
20.4527
  0
LINE
  8
0
 10
136.613
 20
20.4527
 11
136.131
 21
19.8322
  0
LINE
  8
0
 10
136.131
 20
19.8322
 11
135.612
 21
19.2431
  0
LINE
  8
0
 10
135.612
 20
19.2431
 11
135.057
 21
18.6879
  0
LINE
  8
0
 10
135.057
 20
18.6879
 11
134.468
 21
18.1686
  0
LINE
  8
0
 10
134.468
 20
18.1686
 11
133.847
 21
17.6873
  0
LINE
  8
0
 10
133.847
 20
17.6873
 11
133.198
 21
17.2459
  0
LINE
  8
0
 10
133.198
 20
17.2459
 11
132.522
 21
16.8462
  0
LINE
  8
0
 10
132.522
 20
16.8462
 11
131.822
 21
16.4897
  0
LINE
  8
0
 10
131.822
 20
16.4897
 11
131.102
 21
16.1778
  0
LINE
  8
0
 10
131.102
 20
16.1778
 11
130.363
 21
15.9118
  0
LINE
  8
0
 10
130.363
 20
15.9118
 11
129.609
 21
15.6927
  0
LINE
  8
0
 10
129.609
 20
15.6927
 11
128.842
 21
15.5214
  0
LINE
  8
0
 10
128.842
 20
15.5214
 11
128.067
 21
15.3986
  0
LINE
  8
0
 10
128.067
 20
15.3986
 11
127.285
 21
15.3247
  0
LINE
  8
0
 10
127.285
 20
15.3247
 11
126.5
 21
15.3
  0
LINE
  8
0
 10
126.5
 20
15.3
 11
125.715
 21
15.3247
  0
LINE
  8
0
 10
95.6209
 20
5.22762
 11
94.7453
 21
5.31038
  0
LINE
  8
0
 10
94.7453
 20
5.31038
 11
93.8766
 21
5.44797
  0
LINE
  8
0
 10
93.8766
 20
5.44797
 11
93.0183
 21
5.63983
  0
LINE
  8
0
 10
93.0183
 20
5.63983
 11
92.1738
 21
5.88521
  0
LINE
  8
0
 10
92.1738
 20
5.88521
 11
91.3463
 21
6.18312
  0
LINE
  8
0
 10
91.3463
 20
6.18312
 11
90.5391
 21
6.53241
  0
LINE
  8
0
 10
90.5391
 20
6.53241
 11
89.7554
 21
6.9317
  0
LINE
  8
0
 10
89.7554
 20
6.9317
 11
88.9984
 21
7.37939
  0
LINE
  8
0
 10
88.9984
 20
7.37939
 11
88.271
 21
7.87375
  0
LINE
  8
0
 10
88.271
 20
7.87375
 11
87.576
 21
8.41281
  0
LINE
  8
0
 10
87.576
 20
8.41281
 11
86.9163
 21
8.99443
  0
LINE
  8
0
 10
86.9163
 20
8.99443
 11
86.2944
 21
9.61633
  0
LINE
  8
0
 10
86.2944
 20
9.61633
 11
85.7128
 21
10.2761
  0
LINE
  8
0
 10
85.7128
 20
10.2761
 11
85.1738
 21
10.971
  0
LINE
  8
0
 10
85.1738
 20
10.971
 11
84.6794
 21
11.6984
  0
LINE
  8
0
 10
84.6794
 20
11.6984
 11
84.2317
 21
12.4554
  0
LINE
  8
0
 10
84.2317
 20
12.4554
 11
83.8324
 21
13.2391
  0
LINE
  8
0
 10
83.8324
 20
13.2391
 11
83.4831
 21
14.0462
  0
LINE
  8
0
 10
83.4831
 20
14.0462
 11
83.1852
 21
14.8737
  0
LINE
  8
0
 10
83.1852
 20
14.8737
 11
82.9398
 21
15.7183
  0
LINE
  8
0
 10
82.9398
 20
15.7183
 11
82.748
 21
16.5767
  0
LINE
  8
0
 10
82.748
 20
16.5767
 11
82.6104
 21
17.4453
  0
LINE
  8
0
 10
82.6104
 20
17.4453
 11
82.5276
 21
18.3209
  0
LINE
  8
0
 10
82.5276
 20
18.3209
 11
82.5
 21
19.2
  0
LINE
  8
0
 10
82.5
 20
19.2
 11
82.5276
 21
20.0791
  0
LINE
  8
0
 10
82.5276
 20
20.0791
 11
82.6104
 21
20.9547
  0
LINE
  8
0
 10
82.6104
 20
20.9547
 11
82.748
 21
21.8233
  0
LINE
  8
0
 10
82.748
 20
21.8233
 11
82.9398
 21
22.6817
  0
LINE
  8
0
 10
82.9398
 20
22.6817
 11
83.1852
 21
23.5262
  0
LINE
  8
0
 10
83.1852
 20
23.5262
 11
83.4831
 21
24.3537
  0
LINE
  8
0
 10
83.4831
 20
24.3537
 11
83.8324
 21
25.1609
  0
LINE
  8
0
 10
83.8324
 20
25.1609
 11
84.2317
 21
25.9445
  0
LINE
  8
0
 10
84.2317
 20
25.9445
 11
84.6794
 21
26.7016
  0
LINE
  8
0
 10
84.6794
 20
26.7016
 11
85.1738
 21
27.429
  0
LINE
  8
0
 10
85.1738
 20
27.429
 11
85.7128
 21
28.1239
  0
LINE
  8
0
 10
85.7128
 20
28.1239
 11
86.2944
 21
28.7836
  0
LINE
  8
0
 10
86.2944
 20
28.7836
 11
86.9163
 21
29.4055
  0
LINE
  8
0
 10
86.9163
 20
29.4055
 11
87.576
 21
29.9872
  0
LINE
  8
0
 10
87.576
 20
29.9872
 11
88.271
 21
30.5262
  0
LINE
  8
0
 10
88.271
 20
30.5262
 11
88.9984
 21
31.0206
  0
LINE
  8
0
 10
88.9984
 20
31.0206
 11
89.7554
 21
31.4683
  0
LINE
  8
0
 10
89.7554
 20
31.4683
 11
90.5391
 21
31.8676
  0
LINE
  8
0
 10
90.5391
 20
31.8676
 11
91.3463
 21
32.2169
  0
LINE
  8
0
 10
91.3463
 20
32.2169
 11
92.1738
 21
32.5148
  0
LINE
  8
0
 10
92.1738
 20
32.5148
 11
93.0183
 21
32.7602
  0
LINE
  8
0
 10
93.0183
 20
32.7602
 11
93.8766
 21
32.952
  0
LINE
  8
0
 10
93.8766
 20
32.952
 11
94.7453
 21
33.0896
  0
LINE
  8
0
 10
94.7453
 20
33.0896
 11
95.6209
 21
33.1724
  0
LINE
  8
0
 10
95.6209
 20
33.1724
 11
96.5
 21
33.2
  0
LINE
  8
0
 10
96.5
 20
33.2
 11
97.3791
 21
33.1724
  0
LINE
  8
0
 10
97.3791
 20
33.1724
 11
98.2547
 21
33.0896
  0
LINE
  8
0
 10
98.2547
 20
33.0896
 11
99.1233
 21
32.952
  0
LINE
  8
0
 10
99.1233
 20
32.952
 11
99.9816
 21
32.7602
  0
LINE
  8
0
 10
99.9816
 20
32.7602
 11
100.826
 21
32.5148
  0
LINE
  8
0
 10
100.826
 20
32.5148
 11
101.654
 21
32.2169
  0
LINE
  8
0
 10
101.654
 20
32.2169
 11
102.461
 21
31.8676
  0
LINE
  8
0
 10
102.461
 20
31.8676
 11
103.245
 21
31.4683
  0
LINE
  8
0
 10
103.245
 20
31.4683
 11
104.002
 21
31.0206
  0
LINE
  8
0
 10
104.002
 20
31.0206
 11
104.729
 21
30.5262
  0
LINE
  8
0
 10
104.729
 20
30.5262
 11
105.424
 21
29.9872
  0
LINE
  8
0
 10
105.424
 20
29.9872
 11
106.084
 21
29.4055
  0
LINE
  8
0
 10
106.084
 20
29.4055
 11
106.706
 21
28.7836
  0
LINE
  8
0
 10
106.706
 20
28.7836
 11
107.287
 21
28.1239
  0
LINE
  8
0
 10
107.287
 20
28.1239
 11
107.826
 21
27.429
  0
LINE
  8
0
 10
107.826
 20
27.429
 11
108.321
 21
26.7016
  0
LINE
  8
0
 10
108.321
 20
26.7016
 11
108.768
 21
25.9445
  0
LINE
  8
0
 10
108.768
 20
25.9445
 11
109.168
 21
25.1609
  0
LINE
  8
0
 10
109.168
 20
25.1609
 11
109.517
 21
24.3537
  0
LINE
  8
0
 10
109.517
 20
24.3537
 11
109.815
 21
23.5262
  0
LINE
  8
0
 10
109.815
 20
23.5262
 11
110.06
 21
22.6817
  0
LINE
  8
0
 10
110.06
 20
22.6817
 11
110.252
 21
21.8233
  0
LINE
  8
0
 10
110.252
 20
21.8233
 11
110.39
 21
20.9547
  0
LINE
  8
0
 10
110.39
 20
20.9547
 11
110.472
 21
20.0791
  0
LINE
  8
0
 10
110.472
 20
20.0791
 11
110.5
 21
19.2
  0
LINE
  8
0
 10
110.5
 20
19.2
 11
110.472
 21
18.3209
  0
LINE
  8
0
 10
110.472
 20
18.3209
 11
110.39
 21
17.4453
  0
LINE
  8
0
 10
110.39
 20
17.4453
 11
110.252
 21
16.5767
  0
LINE
  8
0
 10
110.252
 20
16.5767
 11
110.06
 21
15.7183
  0
LINE
  8
0
 10
110.06
 20
15.7183
 11
109.815
 21
14.8737
  0
LINE
  8
0
 10
109.815
 20
14.8737
 11
109.517
 21
14.0462
  0
LINE
  8
0
 10
109.517
 20
14.0462
 11
109.168
 21
13.2391
  0
LINE
  8
0
 10
109.168
 20
13.2391
 11
108.768
 21
12.4554
  0
LINE
  8
0
 10
108.768
 20
12.4554
 11
108.321
 21
11.6984
  0
LINE
  8
0
 10
108.321
 20
11.6984
 11
107.826
 21
10.971
  0
LINE
  8
0
 10
107.826
 20
10.971
 11
107.287
 21
10.2761
  0
LINE
  8
0
 10
107.287
 20
10.2761
 11
106.706
 21
9.61633
  0
LINE
  8
0
 10
106.706
 20
9.61633
 11
106.084
 21
8.99443
  0
LINE
  8
0
 10
106.084
 20
8.99443
 11
105.424
 21
8.41281
  0
LINE
  8
0
 10
105.424
 20
8.41281
 11
104.729
 21
7.87375
  0
LINE
  8
0
 10
104.729
 20
7.87375
 11
104.002
 21
7.37939
  0
LINE
  8
0
 10
104.002
 20
7.37939
 11
103.245
 21
6.9317
  0
LINE
  8
0
 10
103.245
 20
6.9317
 11
102.461
 21
6.53241
  0
LINE
  8
0
 10
102.461
 20
6.53241
 11
101.654
 21
6.18312
  0
LINE
  8
0
 10
101.654
 20
6.18312
 11
100.826
 21
5.88521
  0
LINE
  8
0
 10
100.826
 20
5.88521
 11
99.9816
 21
5.63983
  0
LINE
  8
0
 10
99.9816
 20
5.63983
 11
99.1233
 21
5.44797
  0
LINE
  8
0
 10
99.1233
 20
5.44797
 11
98.2547
 21
5.31038
  0
LINE
  8
0
 10
98.2547
 20
5.31038
 11
97.3791
 21
5.22762
  0
LINE
  8
0
 10
97.3791
 20
5.22762
 11
96.5
 21
5.2
  0
LINE
  8
0
 10
96.5
 20
5.2
 11
95.6209
 21
5.22762
  0
LINE
  8
0
 10
9.42967
 20
6.3822
 11
9.35962
 21
6.38882
  0
LINE
  8
0
 10
9.35962
 20
6.38882
 11
9.29013
 21
6.39983
  0
LINE
  8
0
 10
9.29013
 20
6.39983
 11
9.22147
 21
6.41518
  0
LINE
  8
0
 10
9.22147
 20
6.41518
 11
9.1539
 21
6.43481
  0
LINE
  8
0
 10
9.1539
 20
6.43481
 11
9.08769
 21
6.45865
  0
LINE
  8
0
 10
9.08769
 20
6.45865
 11
9.02312
 21
6.48659
  0
LINE
  8
0
 10
9.02312
 20
6.48659
 11
8.96043
 21
6.51852
  0
LINE
  8
0
 10
8.96043
 20
6.51852
 11
8.89987
 21
6.55435
  0
LINE
  8
0
 10
8.89987
 20
6.55435
 11
8.84167
 21
6.59389
  0
LINE
  8
0
 10
8.84167
 20
6.59389
 11
8.78607
 21
6.63702
  0
LINE
  8
0
 10
8.78607
 20
6.63702
 11
8.73331
 21
6.68355
  0
LINE
  8
0
 10
8.73331
 20
6.68355
 11
8.68355
 21
6.73331
  0
LINE
  8
0
 10
8.68355
 20
6.73331
 11
8.63702
 21
6.78607
  0
LINE
  8
0
 10
8.63702
 20
6.78607
 11
8.59389
 21
6.84167
  0
LINE
  8
0
 10
8.59389
 20
6.84167
 11
8.55435
 21
6.89987
  0
LINE
  8
0
 10
8.55435
 20
6.89987
 11
8.51852
 21
6.96043
  0
LINE
  8
0
 10
8.51852
 20
6.96043
 11
8.48659
 21
7.02312
  0
LINE
  8
0
 10
8.48659
 20
7.02312
 11
8.45865
 21
7.08769
  0
LINE
  8
0
 10
8.45865
 20
7.08769
 11
8.43481
 21
7.1539
  0
LINE
  8
0
 10
8.43481
 20
7.1539
 11
8.41518
 21
7.22147
  0
LINE
  8
0
 10
8.41518
 20
7.22147
 11
8.39983
 21
7.29013
  0
LINE
  8
0
 10
8.39983
 20
7.29013
 11
8.38882
 21
7.35962
  0
LINE
  8
0
 10
8.38882
 20
7.35962
 11
8.3822
 21
7.42967
  0
LINE
  8
0
 10
8.3822
 20
7.42967
 11
8.37999
 21
7.5
  0
LINE
  8
0
 10
8.37999
 20
7.5
 11
8.3822
 21
7.57031
  0
LINE
  8
0
 10
8.3822
 20
7.57031
 11
8.38882
 21
7.64037
  0
LINE
  8
0
 10
8.38882
 20
7.64037
 11
8.39983
 21
7.70985
  0
LINE
  8
0
 10
8.39983
 20
7.70985
 11
8.41518
 21
7.77852
  0
LINE
  8
0
 10
8.41518
 20
7.77852
 11
8.43481
 21
7.84608
  0
LINE
  8
0
 10
8.43481
 20
7.84608
 11
8.45865
 21
7.91229
  0
LINE
  8
0
 10
8.45865
 20
7.91229
 11
8.48659
 21
7.97687
  0
LINE
  8
0
 10
8.48659
 20
7.97687
 11
8.51852
 21
8.03955
  0
LINE
  8
0
 10
8.51852
 20
8.03955
 11
8.55435
 21
8.10011
  0
LINE
  8
0
 10
8.55435
 20
8.10011
 11
8.59389
 21
8.15831
  0
LINE
  8
0
 10
8.59389
 20
8.15831
 11
8.63702
 21
8.21391
  0
LINE
  8
0
 10
8.63702
 20
8.21391
 11
8.68355
 21
8.26668
  0
LINE
  8
0
 10
8.68355
 20
8.26668
 11
8.73331
 21
8.31644
  0
LINE
  8
0
 10
8.73331
 20
8.31644
 11
8.78607
 21
8.36296
  0
LINE
  8
0
 10
8.78607
 20
8.36296
 11
8.84167
 21
8.4061
  0
LINE
  8
0
 10
8.84167
 20
8.4061
 11
8.89987
 21
8.44563
  0
LINE
  8
0
 10
8.89987
 20
8.44563
 11
8.96043
 21
8.48146
  0
LINE
  8
0
 10
8.96043
 20
8.48146
 11
9.02312
 21
8.5134
  0
LINE
  8
0
 10
9.02312
 20
8.5134
 11
9.08769
 21
8.54134
  0
LINE
  8
0
 10
9.08769
 20
8.54134
 11
9.1539
 21
8.56517
  0
LINE
  8
0
 10
9.1539
 20
8.56517
 11
9.22147
 21
8.58481
  0
LINE
  8
0
 10
9.22147
 20
8.58481
 11
9.29013
 21
8.60016
  0
LINE
  8
0
 10
9.29013
 20
8.60016
 11
9.35962
 21
8.61116
  0
LINE
  8
0
 10
9.35962
 20
8.61116
 11
9.42967
 21
8.61778
  0
LINE
  8
0
 10
9.42967
 20
8.61778
 11
9.5
 21
8.62
  0
LINE
  8
0
 10
9.5
 20
8.62
 11
9.57031
 21
8.61778
  0
LINE
  8
0
 10
9.57031
 20
8.61778
 11
9.64037
 21
8.61116
  0
LINE
  8
0
 10
9.64037
 20
8.61116
 11
9.70985
 21
8.60016
  0
LINE
  8
0
 10
9.70985
 20
8.60016
 11
9.77852
 21
8.58481
  0
LINE
  8
0
 10
9.77852
 20
8.58481
 11
9.84608
 21
8.56517
  0
LINE
  8
0
 10
9.84608
 20
8.56517
 11
9.91229
 21
8.54134
  0
LINE
  8
0
 10
9.91229
 20
8.54134
 11
9.97687
 21
8.5134
  0
LINE
  8
0
 10
9.97687
 20
8.5134
 11
10.0396
 21
8.48146
  0
LINE
  8
0
 10
10.0396
 20
8.48146
 11
10.1001
 21
8.44563
  0
LINE
  8
0
 10
10.1001
 20
8.44563
 11
10.1583
 21
8.4061
  0
LINE
  8
0
 10
10.1583
 20
8.4061
 11
10.2139
 21
8.36296
  0
LINE
  8
0
 10
10.2139
 20
8.36296
 11
10.2667
 21
8.31644
  0
LINE
  8
0
 10
10.2667
 20
8.31644
 11
10.3164
 21
8.26668
  0
LINE
  8
0
 10
10.3164
 20
8.26668
 11
10.363
 21
8.21391
  0
LINE
  8
0
 10
10.363
 20
8.21391
 11
10.4061
 21
8.15831
  0
LINE
  8
0
 10
10.4061
 20
8.15831
 11
10.4456
 21
8.10011
  0
LINE
  8
0
 10
10.4456
 20
8.10011
 11
10.4815
 21
8.03955
  0
LINE
  8
0
 10
10.4815
 20
8.03955
 11
10.5134
 21
7.97687
  0
LINE
  8
0
 10
10.5134
 20
7.97687
 11
10.5413
 21
7.91229
  0
LINE
  8
0
 10
10.5413
 20
7.91229
 11
10.5652
 21
7.84608
  0
LINE
  8
0
 10
10.5652
 20
7.84608
 11
10.5848
 21
7.77852
  0
LINE
  8
0
 10
10.5848
 20
7.77852
 11
10.6002
 21
7.70985
  0
LINE
  8
0
 10
10.6002
 20
7.70985
 11
10.6112
 21
7.64037
  0
LINE
  8
0
 10
10.6112
 20
7.64037
 11
10.6178
 21
7.57031
  0
LINE
  8
0
 10
10.6178
 20
7.57031
 11
10.62
 21
7.5
  0
LINE
  8
0
 10
10.62
 20
7.5
 11
10.6178
 21
7.42967
  0
LINE
  8
0
 10
10.6178
 20
7.42967
 11
10.6112
 21
7.35962
  0
LINE
  8
0
 10
10.6112
 20
7.35962
 11
10.6002
 21
7.29013
  0
LINE
  8
0
 10
10.6002
 20
7.29013
 11
10.5848
 21
7.22147
  0
LINE
  8
0
 10
10.5848
 20
7.22147
 11
10.5652
 21
7.1539
  0
LINE
  8
0
 10
10.5652
 20
7.1539
 11
10.5413
 21
7.08769
  0
LINE
  8
0
 10
10.5413
 20
7.08769
 11
10.5134
 21
7.02312
  0
LINE
  8
0
 10
10.5134
 20
7.02312
 11
10.4815
 21
6.96043
  0
LINE
  8
0
 10
10.4815
 20
6.96043
 11
10.4456
 21
6.89987
  0
LINE
  8
0
 10
10.4456
 20
6.89987
 11
10.4061
 21
6.84167
  0
LINE
  8
0
 10
10.4061
 20
6.84167
 11
10.363
 21
6.78607
  0
LINE
  8
0
 10
10.363
 20
6.78607
 11
10.3164
 21
6.73331
  0
LINE
  8
0
 10
10.3164
 20
6.73331
 11
10.2667
 21
6.68355
  0
LINE
  8
0
 10
10.2667
 20
6.68355
 11
10.2139
 21
6.63702
  0
LINE
  8
0
 10
10.2139
 20
6.63702
 11
10.1583
 21
6.59389
  0
LINE
  8
0
 10
10.1583
 20
6.59389
 11
10.1001
 21
6.55435
  0
LINE
  8
0
 10
10.1001
 20
6.55435
 11
10.0396
 21
6.51852
  0
LINE
  8
0
 10
10.0396
 20
6.51852
 11
9.97687
 21
6.48659
  0
LINE
  8
0
 10
9.97687
 20
6.48659
 11
9.91229
 21
6.45865
  0
LINE
  8
0
 10
9.91229
 20
6.45865
 11
9.84608
 21
6.43481
  0
LINE
  8
0
 10
9.84608
 20
6.43481
 11
9.77852
 21
6.41518
  0
LINE
  8
0
 10
9.77852
 20
6.41518
 11
9.70985
 21
6.39983
  0
LINE
  8
0
 10
9.70985
 20
6.39983
 11
9.64037
 21
6.38882
  0
LINE
  8
0
 10
9.64037
 20
6.38882
 11
9.57031
 21
6.3822
  0
LINE
  8
0
 10
9.57031
 20
6.3822
 11
9.5
 21
6.37999
  0
LINE
  8
0
 10
9.5
 20
6.37999
 11
9.42967
 21
6.3822
  0
LINE
  8
0
 10
114.43
 20
6.3822
 11
114.36
 21
6.38882
  0
LINE
  8
0
 10
114.36
 20
6.38882
 11
114.29
 21
6.39983
  0
LINE
  8
0
 10
114.29
 20
6.39983
 11
114.221
 21
6.41518
  0
LINE
  8
0
 10
114.221
 20
6.41518
 11
114.154
 21
6.43481
  0
LINE
  8
0
 10
114.154
 20
6.43481
 11
114.088
 21
6.45865
  0
LINE
  8
0
 10
114.088
 20
6.45865
 11
114.023
 21
6.48659
  0
LINE
  8
0
 10
114.023
 20
6.48659
 11
113.96
 21
6.51852
  0
LINE
  8
0
 10
113.96
 20
6.51852
 11
113.9
 21
6.55435
  0
LINE
  8
0
 10
113.9
 20
6.55435
 11
113.842
 21
6.59389
  0
LINE
  8
0
 10
113.842
 20
6.59389
 11
113.786
 21
6.63702
  0
LINE
  8
0
 10
113.786
 20
6.63702
 11
113.733
 21
6.68355
  0
LINE
  8
0
 10
113.733
 20
6.68355
 11
113.684
 21
6.73331
  0
LINE
  8
0
 10
113.684
 20
6.73331
 11
113.637
 21
6.78607
  0
LINE
  8
0
 10
113.637
 20
6.78607
 11
113.594
 21
6.84167
  0
LINE
  8
0
 10
113.594
 20
6.84167
 11
113.554
 21
6.89987
  0
LINE
  8
0
 10
113.554
 20
6.89987
 11
113.519
 21
6.96043
  0
LINE
  8
0
 10
113.519
 20
6.96043
 11
113.487
 21
7.02312
  0
LINE
  8
0
 10
113.487
 20
7.02312
 11
113.459
 21
7.08769
  0
LINE
  8
0
 10
113.459
 20
7.08769
 11
113.435
 21
7.1539
  0
LINE
  8
0
 10
113.435
 20
7.1539
 11
113.415
 21
7.22147
  0
LINE
  8
0
 10
113.415
 20
7.22147
 11
113.4
 21
7.29013
  0
LINE
  8
0
 10
113.4
 20
7.29013
 11
113.389
 21
7.35962
  0
LINE
  8
0
 10
113.389
 20
7.35962
 11
113.382
 21
7.42967
  0
LINE
  8
0
 10
113.382
 20
7.42967
 11
113.38
 21
7.5
  0
LINE
  8
0
 10
113.38
 20
7.5
 11
113.382
 21
7.57031
  0
LINE
  8
0
 10
113.382
 20
7.57031
 11
113.389
 21
7.64037
  0
LINE
  8
0
 10
113.389
 20
7.64037
 11
113.4
 21
7.70985
  0
LINE
  8
0
 10
113.4
 20
7.70985
 11
113.415
 21
7.77852
  0
LINE
  8
0
 10
113.415
 20
7.77852
 11
113.435
 21
7.84608
  0
LINE
  8
0
 10
113.435
 20
7.84608
 11
113.459
 21
7.91229
  0
LINE
  8
0
 10
113.459
 20
7.91229
 11
113.487
 21
7.97687
  0
LINE
  8
0
 10
113.487
 20
7.97687
 11
113.519
 21
8.03955
  0
LINE
  8
0
 10
113.519
 20
8.03955
 11
113.554
 21
8.10011
  0
LINE
  8
0
 10
113.554
 20
8.10011
 11
113.594
 21
8.15831
  0
LINE
  8
0
 10
113.594
 20
8.15831
 11
113.637
 21
8.21391
  0
LINE
  8
0
 10
113.637
 20
8.21391
 11
113.684
 21
8.26668
  0
LINE
  8
0
 10
113.684
 20
8.26668
 11
113.733
 21
8.31644
  0
LINE
  8
0
 10
113.733
 20
8.31644
 11
113.786
 21
8.36296
  0
LINE
  8
0
 10
113.786
 20
8.36296
 11
113.842
 21
8.4061
  0
LINE
  8
0
 10
113.842
 20
8.4061
 11
113.9
 21
8.44563
  0
LINE
  8
0
 10
113.9
 20
8.44563
 11
113.96
 21
8.48146
  0
LINE
  8
0
 10
113.96
 20
8.48146
 11
114.023
 21
8.5134
  0
LINE
  8
0
 10
114.023
 20
8.5134
 11
114.088
 21
8.54134
  0
LINE
  8
0
 10
114.088
 20
8.54134
 11
114.154
 21
8.56517
  0
LINE
  8
0
 10
114.154
 20
8.56517
 11
114.221
 21
8.58481
  0
LINE
  8
0
 10
114.221
 20
8.58481
 11
114.29
 21
8.60016
  0
LINE
  8
0
 10
114.29
 20
8.60016
 11
114.36
 21
8.61116
  0
LINE
  8
0
 10
114.36
 20
8.61116
 11
114.43
 21
8.61778
  0
LINE
  8
0
 10
114.43
 20
8.61778
 11
114.5
 21
8.62
  0
LINE
  8
0
 10
114.5
 20
8.62
 11
114.57
 21
8.61778
  0
LINE
  8
0
 10
114.57
 20
8.61778
 11
114.64
 21
8.61116
  0
LINE
  8
0
 10
114.64
 20
8.61116
 11
114.71
 21
8.60016
  0
LINE
  8
0
 10
114.71
 20
8.60016
 11
114.779
 21
8.58481
  0
LINE
  8
0
 10
114.779
 20
8.58481
 11
114.846
 21
8.56517
  0
LINE
  8
0
 10
114.846
 20
8.56517
 11
114.912
 21
8.54134
  0
LINE
  8
0
 10
114.912
 20
8.54134
 11
114.977
 21
8.5134
  0
LINE
  8
0
 10
114.977
 20
8.5134
 11
115.04
 21
8.48146
  0
LINE
  8
0
 10
115.04
 20
8.48146
 11
115.1
 21
8.44563
  0
LINE
  8
0
 10
115.1
 20
8.44563
 11
115.158
 21
8.4061
  0
LINE
  8
0
 10
115.158
 20
8.4061
 11
115.214
 21
8.36296
  0
LINE
  8
0
 10
115.214
 20
8.36296
 11
115.267
 21
8.31644
  0
LINE
  8
0
 10
115.267
 20
8.31644
 11
115.316
 21
8.26668
  0
LINE
  8
0
 10
115.316
 20
8.26668
 11
115.363
 21
8.21391
  0
LINE
  8
0
 10
115.363
 20
8.21391
 11
115.406
 21
8.15831
  0
LINE
  8
0
 10
115.406
 20
8.15831
 11
115.446
 21
8.10011
  0
LINE
  8
0
 10
115.446
 20
8.10011
 11
115.481
 21
8.03955
  0
LINE
  8
0
 10
115.481
 20
8.03955
 11
115.513
 21
7.97687
  0
LINE
  8
0
 10
115.513
 20
7.97687
 11
115.541
 21
7.91229
  0
LINE
  8
0
 10
115.541
 20
7.91229
 11
115.565
 21
7.84608
  0
LINE
  8
0
 10
115.565
 20
7.84608
 11
115.585
 21
7.77852
  0
LINE
  8
0
 10
115.585
 20
7.77852
 11
115.6
 21
7.70985
  0
LINE
  8
0
 10
115.6
 20
7.70985
 11
115.611
 21
7.64037
  0
LINE
  8
0
 10
115.611
 20
7.64037
 11
115.618
 21
7.57031
  0
LINE
  8
0
 10
115.618
 20
7.57031
 11
115.62
 21
7.5
  0
LINE
  8
0
 10
115.62
 20
7.5
 11
115.618
 21
7.42967
  0
LINE
  8
0
 10
115.618
 20
7.42967
 11
115.611
 21
7.35962
  0
LINE
  8
0
 10
115.611
 20
7.35962
 11
115.6
 21
7.29013
  0
LINE
  8
0
 10
115.6
 20
7.29013
 11
115.585
 21
7.22147
  0
LINE
  8
0
 10
115.585
 20
7.22147
 11
115.565
 21
7.1539
  0
LINE
  8
0
 10
115.565
 20
7.1539
 11
115.541
 21
7.08769
  0
LINE
  8
0
 10
115.541
 20
7.08769
 11
115.513
 21
7.02312
  0
LINE
  8
0
 10
115.513
 20
7.02312
 11
115.481
 21
6.96043
  0
LINE
  8
0
 10
115.481
 20
6.96043
 11
115.446
 21
6.89987
  0
LINE
  8
0
 10
115.446
 20
6.89987
 11
115.406
 21
6.84167
  0
LINE
  8
0
 10
115.406
 20
6.84167
 11
115.363
 21
6.78607
  0
LINE
  8
0
 10
115.363
 20
6.78607
 11
115.316
 21
6.73331
  0
LINE
  8
0
 10
115.316
 20
6.73331
 11
115.267
 21
6.68355
  0
LINE
  8
0
 10
115.267
 20
6.68355
 11
115.214
 21
6.63702
  0
LINE
  8
0
 10
115.214
 20
6.63702
 11
115.158
 21
6.59389
  0
LINE
  8
0
 10
115.158
 20
6.59389
 11
115.1
 21
6.55435
  0
LINE
  8
0
 10
115.1
 20
6.55435
 11
115.04
 21
6.51852
  0
LINE
  8
0
 10
115.04
 20
6.51852
 11
114.977
 21
6.48659
  0
LINE
  8
0
 10
114.977
 20
6.48659
 11
114.912
 21
6.45865
  0
LINE
  8
0
 10
114.912
 20
6.45865
 11
114.846
 21
6.43481
  0
LINE
  8
0
 10
114.846
 20
6.43481
 11
114.779
 21
6.41518
  0
LINE
  8
0
 10
114.779
 20
6.41518
 11
114.71
 21
6.39983
  0
LINE
  8
0
 10
114.71
 20
6.39983
 11
114.64
 21
6.38882
  0
LINE
  8
0
 10
114.64
 20
6.38882
 11
114.57
 21
6.3822
  0
LINE
  8
0
 10
114.57
 20
6.3822
 11
114.5
 21
6.37999
  0
LINE
  8
0
 10
114.5
 20
6.37999
 11
114.43
 21
6.3822
  0
LINE
  8
0
 10
194.43
 20
6.3822
 11
194.36
 21
6.38882
  0
LINE
  8
0
 10
194.36
 20
6.38882
 11
194.29
 21
6.39983
  0
LINE
  8
0
 10
194.29
 20
6.39983
 11
194.221
 21
6.41518
  0
LINE
  8
0
 10
194.221
 20
6.41518
 11
194.154
 21
6.43481
  0
LINE
  8
0
 10
194.154
 20
6.43481
 11
194.088
 21
6.45865
  0
LINE
  8
0
 10
194.088
 20
6.45865
 11
194.023
 21
6.48659
  0
LINE
  8
0
 10
194.023
 20
6.48659
 11
193.96
 21
6.51852
  0
LINE
  8
0
 10
193.96
 20
6.51852
 11
193.9
 21
6.55435
  0
LINE
  8
0
 10
193.9
 20
6.55435
 11
193.842
 21
6.59389
  0
LINE
  8
0
 10
193.842
 20
6.59389
 11
193.786
 21
6.63702
  0
LINE
  8
0
 10
193.786
 20
6.63702
 11
193.733
 21
6.68355
  0
LINE
  8
0
 10
193.733
 20
6.68355
 11
193.684
 21
6.73331
  0
LINE
  8
0
 10
193.684
 20
6.73331
 11
193.637
 21
6.78607
  0
LINE
  8
0
 10
193.637
 20
6.78607
 11
193.594
 21
6.84167
  0
LINE
  8
0
 10
193.594
 20
6.84167
 11
193.554
 21
6.89987
  0
LINE
  8
0
 10
193.554
 20
6.89987
 11
193.519
 21
6.96043
  0
LINE
  8
0
 10
193.519
 20
6.96043
 11
193.487
 21
7.02312
  0
LINE
  8
0
 10
193.487
 20
7.02312
 11
193.459
 21
7.08769
  0
LINE
  8
0
 10
193.459
 20
7.08769
 11
193.435
 21
7.1539
  0
LINE
  8
0
 10
193.435
 20
7.1539
 11
193.415
 21
7.22147
  0
LINE
  8
0
 10
193.415
 20
7.22147
 11
193.4
 21
7.29013
  0
LINE
  8
0
 10
193.4
 20
7.29013
 11
193.389
 21
7.35962
  0
LINE
  8
0
 10
193.389
 20
7.35962
 11
193.382
 21
7.42967
  0
LINE
  8
0
 10
193.382
 20
7.42967
 11
193.38
 21
7.5
  0
LINE
  8
0
 10
193.38
 20
7.5
 11
193.382
 21
7.57031
  0
LINE
  8
0
 10
193.382
 20
7.57031
 11
193.389
 21
7.64037
  0
LINE
  8
0
 10
193.389
 20
7.64037
 11
193.4
 21
7.70985
  0
LINE
  8
0
 10
193.4
 20
7.70985
 11
193.415
 21
7.77852
  0
LINE
  8
0
 10
193.415
 20
7.77852
 11
193.435
 21
7.84608
  0
LINE
  8
0
 10
193.435
 20
7.84608
 11
193.459
 21
7.91229
  0
LINE
  8
0
 10
193.459
 20
7.91229
 11
193.487
 21
7.97687
  0
LINE
  8
0
 10
193.487
 20
7.97687
 11
193.519
 21
8.03955
  0
LINE
  8
0
 10
193.519
 20
8.03955
 11
193.554
 21
8.10011
  0
LINE
  8
0
 10
193.554
 20
8.10011
 11
193.594
 21
8.15831
  0
LINE
  8
0
 10
193.594
 20
8.15831
 11
193.637
 21
8.21391
  0
LINE
  8
0
 10
193.637
 20
8.21391
 11
193.684
 21
8.26668
  0
LINE
  8
0
 10
193.684
 20
8.26668
 11
193.733
 21
8.31644
  0
LINE
  8
0
 10
193.733
 20
8.31644
 11
193.786
 21
8.36296
  0
LINE
  8
0
 10
193.786
 20
8.36296
 11
193.842
 21
8.4061
  0
LINE
  8
0
 10
193.842
 20
8.4061
 11
193.9
 21
8.44563
  0
LINE
  8
0
 10
193.9
 20
8.44563
 11
193.96
 21
8.48146
  0
LINE
  8
0
 10
193.96
 20
8.48146
 11
194.023
 21
8.5134
  0
LINE
  8
0
 10
194.023
 20
8.5134
 11
194.088
 21
8.54134
  0
LINE
  8
0
 10
194.088
 20
8.54134
 11
194.154
 21
8.56517
  0
LINE
  8
0
 10
194.154
 20
8.56517
 11
194.221
 21
8.58481
  0
LINE
  8
0
 10
194.221
 20
8.58481
 11
194.29
 21
8.60016
  0
LINE
  8
0
 10
194.29
 20
8.60016
 11
194.36
 21
8.61116
  0
LINE
  8
0
 10
194.36
 20
8.61116
 11
194.43
 21
8.61778
  0
LINE
  8
0
 10
194.43
 20
8.61778
 11
194.5
 21
8.62
  0
LINE
  8
0
 10
194.5
 20
8.62
 11
194.57
 21
8.61778
  0
LINE
  8
0
 10
194.57
 20
8.61778
 11
194.64
 21
8.61116
  0
LINE
  8
0
 10
194.64
 20
8.61116
 11
194.71
 21
8.60016
  0
LINE
  8
0
 10
194.71
 20
8.60016
 11
194.779
 21
8.58481
  0
LINE
  8
0
 10
194.779
 20
8.58481
 11
194.846
 21
8.56517
  0
LINE
  8
0
 10
194.846
 20
8.56517
 11
194.912
 21
8.54134
  0
LINE
  8
0
 10
194.912
 20
8.54134
 11
194.977
 21
8.5134
  0
LINE
  8
0
 10
194.977
 20
8.5134
 11
195.04
 21
8.48146
  0
LINE
  8
0
 10
195.04
 20
8.48146
 11
195.1
 21
8.44563
  0
LINE
  8
0
 10
195.1
 20
8.44563
 11
195.158
 21
8.4061
  0
LINE
  8
0
 10
195.158
 20
8.4061
 11
195.214
 21
8.36296
  0
LINE
  8
0
 10
195.214
 20
8.36296
 11
195.267
 21
8.31644
  0
LINE
  8
0
 10
195.267
 20
8.31644
 11
195.316
 21
8.26668
  0
LINE
  8
0
 10
195.316
 20
8.26668
 11
195.363
 21
8.21391
  0
LINE
  8
0
 10
195.363
 20
8.21391
 11
195.406
 21
8.15831
  0
LINE
  8
0
 10
195.406
 20
8.15831
 11
195.446
 21
8.10011
  0
LINE
  8
0
 10
195.446
 20
8.10011
 11
195.481
 21
8.03955
  0
LINE
  8
0
 10
195.481
 20
8.03955
 11
195.513
 21
7.97687
  0
LINE
  8
0
 10
195.513
 20
7.97687
 11
195.541
 21
7.91229
  0
LINE
  8
0
 10
195.541
 20
7.91229
 11
195.565
 21
7.84608
  0
LINE
  8
0
 10
195.565
 20
7.84608
 11
195.585
 21
7.77852
  0
LINE
  8
0
 10
195.585
 20
7.77852
 11
195.6
 21
7.70985
  0
LINE
  8
0
 10
195.6
 20
7.70985
 11
195.611
 21
7.64037
  0
LINE
  8
0
 10
195.611
 20
7.64037
 11
195.618
 21
7.57031
  0
LINE
  8
0
 10
195.618
 20
7.57031
 11
195.62
 21
7.5
  0
LINE
  8
0
 10
195.62
 20
7.5
 11
195.618
 21
7.42967
  0
LINE
  8
0
 10
195.618
 20
7.42967
 11
195.611
 21
7.35962
  0
LINE
  8
0
 10
195.611
 20
7.35962
 11
195.6
 21
7.29013
  0
LINE
  8
0
 10
195.6
 20
7.29013
 11
195.585
 21
7.22147
  0
LINE
  8
0
 10
195.585
 20
7.22147
 11
195.565
 21
7.1539
  0
LINE
  8
0
 10
195.565
 20
7.1539
 11
195.541
 21
7.08769
  0
LINE
  8
0
 10
195.541
 20
7.08769
 11
195.513
 21
7.02312
  0
LINE
  8
0
 10
195.513
 20
7.02312
 11
195.481
 21
6.96043
  0
LINE
  8
0
 10
195.481
 20
6.96043
 11
195.446
 21
6.89987
  0
LINE
  8
0
 10
195.446
 20
6.89987
 11
195.406
 21
6.84167
  0
LINE
  8
0
 10
195.406
 20
6.84167
 11
195.363
 21
6.78607
  0
LINE
  8
0
 10
195.363
 20
6.78607
 11
195.316
 21
6.73331
  0
LINE
  8
0
 10
195.316
 20
6.73331
 11
195.267
 21
6.68355
  0
LINE
  8
0
 10
195.267
 20
6.68355
 11
195.214
 21
6.63702
  0
LINE
  8
0
 10
195.214
 20
6.63702
 11
195.158
 21
6.59389
  0
LINE
  8
0
 10
195.158
 20
6.59389
 11
195.1
 21
6.55435
  0
LINE
  8
0
 10
195.1
 20
6.55435
 11
195.04
 21
6.51852
  0
LINE
  8
0
 10
195.04
 20
6.51852
 11
194.977
 21
6.48659
  0
LINE
  8
0
 10
194.977
 20
6.48659
 11
194.912
 21
6.45865
  0
LINE
  8
0
 10
194.912
 20
6.45865
 11
194.846
 21
6.43481
  0
LINE
  8
0
 10
194.846
 20
6.43481
 11
194.779
 21
6.41518
  0
LINE
  8
0
 10
194.779
 20
6.41518
 11
194.71
 21
6.39983
  0
LINE
  8
0
 10
194.71
 20
6.39983
 11
194.64
 21
6.38882
  0
LINE
  8
0
 10
194.64
 20
6.38882
 11
194.57
 21
6.3822
  0
LINE
  8
0
 10
194.57
 20
6.3822
 11
194.5
 21
6.37999
  0
LINE
  8
0
 10
194.5
 20
6.37999
 11
194.43
 21
6.3822
  0
ENDSEC
  0
SECTION
  2
OBJECTS
  0
DICTIONARY
  0
ENDSEC
  0
EOF
