  0
SECTION
  2
BLOCKS
  0
ENDSEC
  0
SECTION
  2
ENTITIES
  0
LINE
  8
0
 10
199.128
 20
0.0197296
 11
199.753
 21
0.0788574
  0
LINE
  8
0
 10
199.753
 20
0.0788574
 11
200.374
 21
0.177124
  0
LINE
  8
0
 10
200.374
 20
0.177124
 11
200.987
 21
0.314163
  0
LINE
  8
0
 10
200.987
 20
0.314163
 11
201.59
 21
0.489441
  0
LINE
  8
0
 10
201.59
 20
0.489441
 11
202.181
 21
0.70224
  0
LINE
  8
0
 10
202.181
 20
0.70224
 11
202.758
 21
0.951736
  0
LINE
  8
0
 10
202.758
 20
0.951736
 11
203.318
 21
1.23694
  0
LINE
  8
0
 10
203.318
 20
1.23694
 11
203.858
 21
1.55672
  0
LINE
  8
0
 10
203.858
 20
1.55672
 11
204.378
 21
1.90984
  0
LINE
  8
0
 10
204.378
 20
1.90984
 11
204.874
 21
2.29486
  0
LINE
  8
0
 10
204.874
 20
2.29486
 11
205.345
 21
2.71031
  0
LINE
  8
0
 10
205.345
 20
2.71031
 11
205.79
 21
3.15453
  0
LINE
  8
0
 10
205.79
 20
3.15453
 11
206.205
 21
3.62576
  0
LINE
  8
0
 10
206.205
 20
3.62576
 11
206.59
 21
4.12215
  0
LINE
  8
0
 10
206.59
 20
4.12215
 11
206.943
 21
4.64174
  0
LINE
  8
0
 10
206.943
 20
4.64174
 11
207.263
 21
5.18246
  0
LINE
  8
0
 10
207.263
 20
5.18246
 11
207.548
 21
5.7422
  0
LINE
  8
0
 10
207.548
 20
5.7422
 11
207.798
 21
6.31876
  0
LINE
  8
0
 10
207.798
 20
6.31876
 11
208.011
 21
6.90984
  0
LINE
  8
0
 10
208.011
 20
6.90984
 11
208.186
 21
7.51311
  0
LINE
  8
0
 10
208.186
 20
7.51311
 11
208.323
 21
8.12619
  0
LINE
  8
0
 10
208.323
 20
8.12619
 11
208.421
 21
8.74667
  0
LINE
  8
0
 10
208.421
 20
8.74667
 11
208.48
 21
9.3721
  0
LINE
  8
0
 10
208.48
 20
9.3721
 11
208.5
 21
10
  0
LINE
  8
0
 10
208.5
 20
10
 11
208.5
 21
115
  0
LINE
  8
0
 10
208.5
 20
115
 11
208.48
 21
115.628
  0
LINE
  8
0
 10
208.48
 20
115.628
 11
208.421
 21
116.253
  0
LINE
  8
0
 10
208.421
 20
116.253
 11
208.323
 21
116.874
  0
LINE
  8
0
 10
208.323
 20
116.874
 11
208.186
 21
117.487
  0
LINE
  8
0
 10
208.186
 20
117.487
 11
208.011
 21
118.09
  0
LINE
  8
0
 10
208.011
 20
118.09
 11
207.798
 21
118.681
  0
LINE
  8
0
 10
207.798
 20
118.681
 11
207.548
 21
119.258
  0
LINE
  8
0
 10
207.548
 20
119.258
 11
207.263
 21
119.818
  0
LINE
  8
0
 10
207.263
 20
119.818
 11
206.943
 21
120.358
  0
LINE
  8
0
 10
206.943
 20
120.358
 11
206.59
 21
120.878
  0
LINE
  8
0
 10
206.59
 20
120.878
 11
206.205
 21
121.374
  0
LINE
  8
0
 10
206.205
 20
121.374
 11
205.79
 21
121.845
  0
LINE
  8
0
 10
205.79
 20
121.845
 11
205.345
 21
122.29
  0
LINE
  8
0
 10
205.345
 20
122.29
 11
204.874
 21
122.705
  0
LINE
  8
0
 10
204.874
 20
122.705
 11
204.378
 21
123.09
  0
LINE
  8
0
 10
204.378
 20
123.09
 11
203.858
 21
123.443
  0
LINE
  8
0
 10
203.858
 20
123.443
 11
203.318
 21
123.763
  0
LINE
  8
0
 10
203.318
 20
123.763
 11
202.758
 21
124.048
  0
LINE
  8
0
 10
202.758
 20
124.048
 11
202.181
 21
124.298
  0
LINE
  8
0
 10
202.181
 20
124.298
 11
201.59
 21
124.511
  0
LINE
  8
0
 10
201.59
 20
124.511
 11
200.987
 21
124.686
  0
LINE
  8
0
 10
200.987
 20
124.686
 11
200.374
 21
124.823
  0
LINE
  8
0
 10
200.374
 20
124.823
 11
199.753
 21
124.921
  0
LINE
  8
0
 10
199.753
 20
124.921
 11
199.128
 21
124.98
  0
LINE
  8
0
 10
199.128
 20
124.98
 11
198.5
 21
125
  0
LINE
  8
0
 10
198.5
 20
125
 11
102.5
 21
125
  0
LINE
  8
0
 10
102.5
 20
125
 11
102.5
 21
97
  0
LINE
  8
0
 10
102.5
 20
97
 11
82.5
 21
97
  0
LINE
  8
0
 10
82.5
 20
97
 11
82.5
 21
125
  0
LINE
  8
0
 10
82.5
 20
125
 11
10
 21
125
  0
LINE
  8
0
 10
10
 20
125
 11
9.3721
 21
124.98
  0
LINE
  8
0
 10
9.3721
 20
124.98
 11
8.74667
 21
124.921
  0
LINE
  8
0
 10
8.74667
 20
124.921
 11
8.12619
 21
124.823
  0
LINE
  8
0
 10
8.12619
 20
124.823
 11
7.51311
 21
124.686
  0
LINE
  8
0
 10
7.51311
 20
124.686
 11
6.90984
 21
124.511
  0
LINE
  8
0
 10
6.90984
 20
124.511
 11
6.31876
 21
124.298
  0
LINE
  8
0
 10
6.31876
 20
124.298
 11
5.7422
 21
124.048
  0
LINE
  8
0
 10
5.7422
 20
124.048
 11
5.18246
 21
123.763
  0
LINE
  8
0
 10
5.18246
 20
123.763
 11
4.64174
 21
123.443
  0
LINE
  8
0
 10
4.64174
 20
123.443
 11
4.12215
 21
123.09
  0
LINE
  8
0
 10
4.12215
 20
123.09
 11
3.62576
 21
122.705
  0
LINE
  8
0
 10
3.62576
 20
122.705
 11
3.15453
 21
122.29
  0
LINE
  8
0
 10
3.15453
 20
122.29
 11
2.71031
 21
121.845
  0
LINE
  8
0
 10
2.71031
 20
121.845
 11
2.29486
 21
121.374
  0
LINE
  8
0
 10
2.29486
 20
121.374
 11
1.90984
 21
120.878
  0
LINE
  8
0
 10
1.90984
 20
120.878
 11
1.55672
 21
120.358
  0
LINE
  8
0
 10
1.55672
 20
120.358
 11
1.23694
 21
119.818
  0
LINE
  8
0
 10
1.23694
 20
119.818
 11
0.951736
 21
119.258
  0
LINE
  8
0
 10
0.951736
 20
119.258
 11
0.70224
 21
118.681
  0
LINE
  8
0
 10
0.70224
 20
118.681
 11
0.489441
 21
118.09
  0
LINE
  8
0
 10
0.489441
 20
118.09
 11
0.314163
 21
117.487
  0
LINE
  8
0
 10
0.314163
 20
117.487
 11
0.177124
 21
116.874
  0
LINE
  8
0
 10
0.177124
 20
116.874
 11
0.0788574
 21
116.253
  0
LINE
  8
0
 10
0.0788574
 20
116.253
 11
0.0197296
 21
115.628
  0
LINE
  8
0
 10
0.0197296
 20
115.628
 11
0
 21
115
  0
LINE
  8
0
 10
0
 20
115
 11
0
 21
10
  0
LINE
  8
0
 10
0
 20
10
 11
0.0197296
 21
9.3721
  0
LINE
  8
0
 10
0.0197296
 20
9.3721
 11
0.0788574
 21
8.74667
  0
LINE
  8
0
 10
0.0788574
 20
8.74667
 11
0.177124
 21
8.12619
  0
LINE
  8
0
 10
0.177124
 20
8.12619
 11
0.314163
 21
7.51311
  0
LINE
  8
0
 10
0.314163
 20
7.51311
 11
0.489441
 21
6.90984
  0
LINE
  8
0
 10
0.489441
 20
6.90984
 11
0.70224
 21
6.31876
  0
LINE
  8
0
 10
0.70224
 20
6.31876
 11
0.951736
 21
5.7422
  0
LINE
  8
0
 10
0.951736
 20
5.7422
 11
1.23694
 21
5.18246
  0
LINE
  8
0
 10
1.23694
 20
5.18246
 11
1.55672
 21
4.64174
  0
LINE
  8
0
 10
1.55672
 20
4.64174
 11
1.90984
 21
4.12215
  0
LINE
  8
0
 10
1.90984
 20
4.12215
 11
2.29486
 21
3.62576
  0
LINE
  8
0
 10
2.29486
 20
3.62576
 11
2.71031
 21
3.15453
  0
LINE
  8
0
 10
2.71031
 20
3.15453
 11
3.15453
 21
2.71031
  0
LINE
  8
0
 10
3.15453
 20
2.71031
 11
3.62576
 21
2.29486
  0
LINE
  8
0
 10
3.62576
 20
2.29486
 11
4.12215
 21
1.90984
  0
LINE
  8
0
 10
4.12215
 20
1.90984
 11
4.64174
 21
1.55672
  0
LINE
  8
0
 10
4.64174
 20
1.55672
 11
5.18246
 21
1.23694
  0
LINE
  8
0
 10
5.18246
 20
1.23694
 11
5.7422
 21
0.951736
  0
LINE
  8
0
 10
5.7422
 20
0.951736
 11
6.31876
 21
0.70224
  0
LINE
  8
0
 10
6.31876
 20
0.70224
 11
6.90984
 21
0.489441
  0
LINE
  8
0
 10
6.90984
 20
0.489441
 11
7.51311
 21
0.314163
  0
LINE
  8
0
 10
7.51311
 20
0.314163
 11
8.12619
 21
0.177124
  0
LINE
  8
0
 10
8.12619
 20
0.177124
 11
8.74667
 21
0.0788574
  0
LINE
  8
0
 10
8.74667
 20
0.0788574
 11
9.3721
 21
0.0197296
  0
LINE
  8
0
 10
9.3721
 20
0.0197296
 11
10
 21
0
  0
LINE
  8
0
 10
10
 20
0
 11
198.5
 21
0
  0
LINE
  8
0
 10
198.5
 20
0
 11
199.128
 21
0.0197296
  0
LINE
  8
0
 10
138
 20
94.5
 11
138
 21
123.5
  0
LINE
  8
0
 10
138
 20
123.5
 11
168
 21
123.5
  0
LINE
  8
0
 10
168
 20
123.5
 11
168
 21
94.5
  0
LINE
  8
0
 10
168
 20
94.5
 11
138
 21
94.5
  0
LINE
  8
0
 10
17.65
 20
111.525
 11
17.65
 21
121.025
  0
LINE
  8
0
 10
17.65
 20
121.025
 11
43.65
 21
121.025
  0
LINE
  8
0
 10
43.65
 20
121.025
 11
43.65
 21
111.525
  0
LINE
  8
0
 10
43.65
 20
111.525
 11
17.65
 21
111.525
  0
LINE
  8
0
 10
9.42967
 20
116.382
 11
9.35962
 21
116.389
  0
LINE
  8
0
 10
9.35962
 20
116.389
 11
9.29013
 21
116.4
  0
LINE
  8
0
 10
9.29013
 20
116.4
 11
9.22147
 21
116.415
  0
LINE
  8
0
 10
9.22147
 20
116.415
 11
9.1539
 21
116.435
  0
LINE
  8
0
 10
9.1539
 20
116.435
 11
9.08769
 21
116.459
  0
LINE
  8
0
 10
9.08769
 20
116.459
 11
9.02312
 21
116.487
  0
LINE
  8
0
 10
9.02312
 20
116.487
 11
8.96043
 21
116.519
  0
LINE
  8
0
 10
8.96043
 20
116.519
 11
8.89987
 21
116.554
  0
LINE
  8
0
 10
8.89987
 20
116.554
 11
8.84167
 21
116.594
  0
LINE
  8
0
 10
8.84167
 20
116.594
 11
8.78607
 21
116.637
  0
LINE
  8
0
 10
8.78607
 20
116.637
 11
8.73331
 21
116.684
  0
LINE
  8
0
 10
8.73331
 20
116.684
 11
8.68355
 21
116.733
  0
LINE
  8
0
 10
8.68355
 20
116.733
 11
8.63702
 21
116.786
  0
LINE
  8
0
 10
8.63702
 20
116.786
 11
8.59389
 21
116.842
  0
LINE
  8
0
 10
8.59389
 20
116.842
 11
8.55435
 21
116.9
  0
LINE
  8
0
 10
8.55435
 20
116.9
 11
8.51852
 21
116.96
  0
LINE
  8
0
 10
8.51852
 20
116.96
 11
8.48659
 21
117.023
  0
LINE
  8
0
 10
8.48659
 20
117.023
 11
8.45865
 21
117.088
  0
LINE
  8
0
 10
8.45865
 20
117.088
 11
8.43481
 21
117.154
  0
LINE
  8
0
 10
8.43481
 20
117.154
 11
8.41518
 21
117.221
  0
LINE
  8
0
 10
8.41518
 20
117.221
 11
8.39983
 21
117.29
  0
LINE
  8
0
 10
8.39983
 20
117.29
 11
8.38882
 21
117.36
  0
LINE
  8
0
 10
8.38882
 20
117.36
 11
8.3822
 21
117.43
  0
LINE
  8
0
 10
8.3822
 20
117.43
 11
8.37999
 21
117.5
  0
LINE
  8
0
 10
8.37999
 20
117.5
 11
8.3822
 21
117.57
  0
LINE
  8
0
 10
8.3822
 20
117.57
 11
8.38882
 21
117.64
  0
LINE
  8
0
 10
8.38882
 20
117.64
 11
8.39983
 21
117.71
  0
LINE
  8
0
 10
8.39983
 20
117.71
 11
8.41518
 21
117.779
  0
LINE
  8
0
 10
8.41518
 20
117.779
 11
8.43481
 21
117.846
  0
LINE
  8
0
 10
8.43481
 20
117.846
 11
8.45865
 21
117.912
  0
LINE
  8
0
 10
8.45865
 20
117.912
 11
8.48659
 21
117.977
  0
LINE
  8
0
 10
8.48659
 20
117.977
 11
8.51852
 21
118.04
  0
LINE
  8
0
 10
8.51852
 20
118.04
 11
8.55435
 21
118.1
  0
LINE
  8
0
 10
8.55435
 20
118.1
 11
8.59389
 21
118.158
  0
LINE
  8
0
 10
8.59389
 20
118.158
 11
8.63702
 21
118.214
  0
LINE
  8
0
 10
8.63702
 20
118.214
 11
8.68355
 21
118.267
  0
LINE
  8
0
 10
8.68355
 20
118.267
 11
8.73331
 21
118.316
  0
LINE
  8
0
 10
8.73331
 20
118.316
 11
8.78607
 21
118.363
  0
LINE
  8
0
 10
8.78607
 20
118.363
 11
8.84167
 21
118.406
  0
LINE
  8
0
 10
8.84167
 20
118.406
 11
8.89987
 21
118.446
  0
LINE
  8
0
 10
8.89987
 20
118.446
 11
8.96043
 21
118.481
  0
LINE
  8
0
 10
8.96043
 20
118.481
 11
9.02312
 21
118.513
  0
LINE
  8
0
 10
9.02312
 20
118.513
 11
9.08769
 21
118.541
  0
LINE
  8
0
 10
9.08769
 20
118.541
 11
9.1539
 21
118.565
  0
LINE
  8
0
 10
9.1539
 20
118.565
 11
9.22147
 21
118.585
  0
LINE
  8
0
 10
9.22147
 20
118.585
 11
9.29013
 21
118.6
  0
LINE
  8
0
 10
9.29013
 20
118.6
 11
9.35962
 21
118.611
  0
LINE
  8
0
 10
9.35962
 20
118.611
 11
9.42967
 21
118.618
  0
LINE
  8
0
 10
9.42967
 20
118.618
 11
9.5
 21
118.62
  0
LINE
  8
0
 10
9.5
 20
118.62
 11
9.57031
 21
118.618
  0
LINE
  8
0
 10
9.57031
 20
118.618
 11
9.64037
 21
118.611
  0
LINE
  8
0
 10
9.64037
 20
118.611
 11
9.70985
 21
118.6
  0
LINE
  8
0
 10
9.70985
 20
118.6
 11
9.77852
 21
118.585
  0
LINE
  8
0
 10
9.77852
 20
118.585
 11
9.84608
 21
118.565
  0
LINE
  8
0
 10
9.84608
 20
118.565
 11
9.91229
 21
118.541
  0
LINE
  8
0
 10
9.91229
 20
118.541
 11
9.97687
 21
118.513
  0
LINE
  8
0
 10
9.97687
 20
118.513
 11
10.0396
 21
118.481
  0
LINE
  8
0
 10
10.0396
 20
118.481
 11
10.1001
 21
118.446
  0
LINE
  8
0
 10
10.1001
 20
118.446
 11
10.1583
 21
118.406
  0
LINE
  8
0
 10
10.1583
 20
118.406
 11
10.2139
 21
118.363
  0
LINE
  8
0
 10
10.2139
 20
118.363
 11
10.2667
 21
118.316
  0
LINE
  8
0
 10
10.2667
 20
118.316
 11
10.3164
 21
118.267
  0
LINE
  8
0
 10
10.3164
 20
118.267
 11
10.363
 21
118.214
  0
LINE
  8
0
 10
10.363
 20
118.214
 11
10.4061
 21
118.158
  0
LINE
  8
0
 10
10.4061
 20
118.158
 11
10.4456
 21
118.1
  0
LINE
  8
0
 10
10.4456
 20
118.1
 11
10.4815
 21
118.04
  0
LINE
  8
0
 10
10.4815
 20
118.04
 11
10.5134
 21
117.977
  0
LINE
  8
0
 10
10.5134
 20
117.977
 11
10.5413
 21
117.912
  0
LINE
  8
0
 10
10.5413
 20
117.912
 11
10.5652
 21
117.846
  0
LINE
  8
0
 10
10.5652
 20
117.846
 11
10.5848
 21
117.779
  0
LINE
  8
0
 10
10.5848
 20
117.779
 11
10.6002
 21
117.71
  0
LINE
  8
0
 10
10.6002
 20
117.71
 11
10.6112
 21
117.64
  0
LINE
  8
0
 10
10.6112
 20
117.64
 11
10.6178
 21
117.57
  0
LINE
  8
0
 10
10.6178
 20
117.57
 11
10.62
 21
117.5
  0
LINE
  8
0
 10
10.62
 20
117.5
 11
10.6178
 21
117.43
  0
LINE
  8
0
 10
10.6178
 20
117.43
 11
10.6112
 21
117.36
  0
LINE
  8
0
 10
10.6112
 20
117.36
 11
10.6002
 21
117.29
  0
LINE
  8
0
 10
10.6002
 20
117.29
 11
10.5848
 21
117.221
  0
LINE
  8
0
 10
10.5848
 20
117.221
 11
10.5652
 21
117.154
  0
LINE
  8
0
 10
10.5652
 20
117.154
 11
10.5413
 21
117.088
  0
LINE
  8
0
 10
10.5413
 20
117.088
 11
10.5134
 21
117.023
  0
LINE
  8
0
 10
10.5134
 20
117.023
 11
10.4815
 21
116.96
  0
LINE
  8
0
 10
10.4815
 20
116.96
 11
10.4456
 21
116.9
  0
LINE
  8
0
 10
10.4456
 20
116.9
 11
10.4061
 21
116.842
  0
LINE
  8
0
 10
10.4061
 20
116.842
 11
10.363
 21
116.786
  0
LINE
  8
0
 10
10.363
 20
116.786
 11
10.3164
 21
116.733
  0
LINE
  8
0
 10
10.3164
 20
116.733
 11
10.2667
 21
116.684
  0
LINE
  8
0
 10
10.2667
 20
116.684
 11
10.2139
 21
116.637
  0
LINE
  8
0
 10
10.2139
 20
116.637
 11
10.1583
 21
116.594
  0
LINE
  8
0
 10
10.1583
 20
116.594
 11
10.1001
 21
116.554
  0
LINE
  8
0
 10
10.1001
 20
116.554
 11
10.0396
 21
116.519
  0
LINE
  8
0
 10
10.0396
 20
116.519
 11
9.97687
 21
116.487
  0
LINE
  8
0
 10
9.97687
 20
116.487
 11
9.91229
 21
116.459
  0
LINE
  8
0
 10
9.91229
 20
116.459
 11
9.84608
 21
116.435
  0
LINE
  8
0
 10
9.84608
 20
116.435
 11
9.77852
 21
116.415
  0
LINE
  8
0
 10
9.77852
 20
116.415
 11
9.70985
 21
116.4
  0
LINE
  8
0
 10
9.70985
 20
116.4
 11
9.64037
 21
116.389
  0
LINE
  8
0
 10
9.64037
 20
116.389
 11
9.57031
 21
116.382
  0
LINE
  8
0
 10
9.57031
 20
116.382
 11
9.5
 21
116.38
  0
LINE
  8
0
 10
9.5
 20
116.38
 11
9.42967
 21
116.382
  0
LINE
  8
0
 10
194.43
 20
116.382
 11
194.36
 21
116.389
  0
LINE
  8
0
 10
194.36
 20
116.389
 11
194.29
 21
116.4
  0
LINE
  8
0
 10
194.29
 20
116.4
 11
194.221
 21
116.415
  0
LINE
  8
0
 10
194.221
 20
116.415
 11
194.154
 21
116.435
  0
LINE
  8
0
 10
194.154
 20
116.435
 11
194.088
 21
116.459
  0
LINE
  8
0
 10
194.088
 20
116.459
 11
194.023
 21
116.487
  0
LINE
  8
0
 10
194.023
 20
116.487
 11
193.96
 21
116.519
  0
LINE
  8
0
 10
193.96
 20
116.519
 11
193.9
 21
116.554
  0
LINE
  8
0
 10
193.9
 20
116.554
 11
193.842
 21
116.594
  0
LINE
  8
0
 10
193.842
 20
116.594
 11
193.786
 21
116.637
  0
LINE
  8
0
 10
193.786
 20
116.637
 11
193.733
 21
116.684
  0
LINE
  8
0
 10
193.733
 20
116.684
 11
193.684
 21
116.733
  0
LINE
  8
0
 10
193.684
 20
116.733
 11
193.637
 21
116.786
  0
LINE
  8
0
 10
193.637
 20
116.786
 11
193.594
 21
116.842
  0
LINE
  8
0
 10
193.594
 20
116.842
 11
193.554
 21
116.9
  0
LINE
  8
0
 10
193.554
 20
116.9
 11
193.519
 21
116.96
  0
LINE
  8
0
 10
193.519
 20
116.96
 11
193.487
 21
117.023
  0
LINE
  8
0
 10
193.487
 20
117.023
 11
193.459
 21
117.088
  0
LINE
  8
0
 10
193.459
 20
117.088
 11
193.435
 21
117.154
  0
LINE
  8
0
 10
193.435
 20
117.154
 11
193.415
 21
117.221
  0
LINE
  8
0
 10
193.415
 20
117.221
 11
193.4
 21
117.29
  0
LINE
  8
0
 10
193.4
 20
117.29
 11
193.389
 21
117.36
  0
LINE
  8
0
 10
193.389
 20
117.36
 11
193.382
 21
117.43
  0
LINE
  8
0
 10
193.382
 20
117.43
 11
193.38
 21
117.5
  0
LINE
  8
0
 10
193.38
 20
117.5
 11
193.382
 21
117.57
  0
LINE
  8
0
 10
193.382
 20
117.57
 11
193.389
 21
117.64
  0
LINE
  8
0
 10
193.389
 20
117.64
 11
193.4
 21
117.71
  0
LINE
  8
0
 10
193.4
 20
117.71
 11
193.415
 21
117.779
  0
LINE
  8
0
 10
193.415
 20
117.779
 11
193.435
 21
117.846
  0
LINE
  8
0
 10
193.435
 20
117.846
 11
193.459
 21
117.912
  0
LINE
  8
0
 10
193.459
 20
117.912
 11
193.487
 21
117.977
  0
LINE
  8
0
 10
193.487
 20
117.977
 11
193.519
 21
118.04
  0
LINE
  8
0
 10
193.519
 20
118.04
 11
193.554
 21
118.1
  0
LINE
  8
0
 10
193.554
 20
118.1
 11
193.594
 21
118.158
  0
LINE
  8
0
 10
193.594
 20
118.158
 11
193.637
 21
118.214
  0
LINE
  8
0
 10
193.637
 20
118.214
 11
193.684
 21
118.267
  0
LINE
  8
0
 10
193.684
 20
118.267
 11
193.733
 21
118.316
  0
LINE
  8
0
 10
193.733
 20
118.316
 11
193.786
 21
118.363
  0
LINE
  8
0
 10
193.786
 20
118.363
 11
193.842
 21
118.406
  0
LINE
  8
0
 10
193.842
 20
118.406
 11
193.9
 21
118.446
  0
LINE
  8
0
 10
193.9
 20
118.446
 11
193.96
 21
118.481
  0
LINE
  8
0
 10
193.96
 20
118.481
 11
194.023
 21
118.513
  0
LINE
  8
0
 10
194.023
 20
118.513
 11
194.088
 21
118.541
  0
LINE
  8
0
 10
194.088
 20
118.541
 11
194.154
 21
118.565
  0
LINE
  8
0
 10
194.154
 20
118.565
 11
194.221
 21
118.585
  0
LINE
  8
0
 10
194.221
 20
118.585
 11
194.29
 21
118.6
  0
LINE
  8
0
 10
194.29
 20
118.6
 11
194.36
 21
118.611
  0
LINE
  8
0
 10
194.36
 20
118.611
 11
194.43
 21
118.618
  0
LINE
  8
0
 10
194.43
 20
118.618
 11
194.5
 21
118.62
  0
LINE
  8
0
 10
194.5
 20
118.62
 11
194.57
 21
118.618
  0
LINE
  8
0
 10
194.57
 20
118.618
 11
194.64
 21
118.611
  0
LINE
  8
0
 10
194.64
 20
118.611
 11
194.71
 21
118.6
  0
LINE
  8
0
 10
194.71
 20
118.6
 11
194.779
 21
118.585
  0
LINE
  8
0
 10
194.779
 20
118.585
 11
194.846
 21
118.565
  0
LINE
  8
0
 10
194.846
 20
118.565
 11
194.912
 21
118.541
  0
LINE
  8
0
 10
194.912
 20
118.541
 11
194.977
 21
118.513
  0
LINE
  8
0
 10
194.977
 20
118.513
 11
195.04
 21
118.481
  0
LINE
  8
0
 10
195.04
 20
118.481
 11
195.1
 21
118.446
  0
LINE
  8
0
 10
195.1
 20
118.446
 11
195.158
 21
118.406
  0
LINE
  8
0
 10
195.158
 20
118.406
 11
195.214
 21
118.363
  0
LINE
  8
0
 10
195.214
 20
118.363
 11
195.267
 21
118.316
  0
LINE
  8
0
 10
195.267
 20
118.316
 11
195.316
 21
118.267
  0
LINE
  8
0
 10
195.316
 20
118.267
 11
195.363
 21
118.214
  0
LINE
  8
0
 10
195.363
 20
118.214
 11
195.406
 21
118.158
  0
LINE
  8
0
 10
195.406
 20
118.158
 11
195.446
 21
118.1
  0
LINE
  8
0
 10
195.446
 20
118.1
 11
195.481
 21
118.04
  0
LINE
  8
0
 10
195.481
 20
118.04
 11
195.513
 21
117.977
  0
LINE
  8
0
 10
195.513
 20
117.977
 11
195.541
 21
117.912
  0
LINE
  8
0
 10
195.541
 20
117.912
 11
195.565
 21
117.846
  0
LINE
  8
0
 10
195.565
 20
117.846
 11
195.585
 21
117.779
  0
LINE
  8
0
 10
195.585
 20
117.779
 11
195.6
 21
117.71
  0
LINE
  8
0
 10
195.6
 20
117.71
 11
195.611
 21
117.64
  0
LINE
  8
0
 10
195.611
 20
117.64
 11
195.618
 21
117.57
  0
LINE
  8
0
 10
195.618
 20
117.57
 11
195.62
 21
117.5
  0
LINE
  8
0
 10
195.62
 20
117.5
 11
195.618
 21
117.43
  0
LINE
  8
0
 10
195.618
 20
117.43
 11
195.611
 21
117.36
  0
LINE
  8
0
 10
195.611
 20
117.36
 11
195.6
 21
117.29
  0
LINE
  8
0
 10
195.6
 20
117.29
 11
195.585
 21
117.221
  0
LINE
  8
0
 10
195.585
 20
117.221
 11
195.565
 21
117.154
  0
LINE
  8
0
 10
195.565
 20
117.154
 11
195.541
 21
117.088
  0
LINE
  8
0
 10
195.541
 20
117.088
 11
195.513
 21
117.023
  0
LINE
  8
0
 10
195.513
 20
117.023
 11
195.481
 21
116.96
  0
LINE
  8
0
 10
195.481
 20
116.96
 11
195.446
 21
116.9
  0
LINE
  8
0
 10
195.446
 20
116.9
 11
195.406
 21
116.842
  0
LINE
  8
0
 10
195.406
 20
116.842
 11
195.363
 21
116.786
  0
LINE
  8
0
 10
195.363
 20
116.786
 11
195.316
 21
116.733
  0
LINE
  8
0
 10
195.316
 20
116.733
 11
195.267
 21
116.684
  0
LINE
  8
0
 10
195.267
 20
116.684
 11
195.214
 21
116.637
  0
LINE
  8
0
 10
195.214
 20
116.637
 11
195.158
 21
116.594
  0
LINE
  8
0
 10
195.158
 20
116.594
 11
195.1
 21
116.554
  0
LINE
  8
0
 10
195.1
 20
116.554
 11
195.04
 21
116.519
  0
LINE
  8
0
 10
195.04
 20
116.519
 11
194.977
 21
116.487
  0
LINE
  8
0
 10
194.977
 20
116.487
 11
194.912
 21
116.459
  0
LINE
  8
0
 10
194.912
 20
116.459
 11
194.846
 21
116.435
  0
LINE
  8
0
 10
194.846
 20
116.435
 11
194.779
 21
116.415
  0
LINE
  8
0
 10
194.779
 20
116.415
 11
194.71
 21
116.4
  0
LINE
  8
0
 10
194.71
 20
116.4
 11
194.64
 21
116.389
  0
LINE
  8
0
 10
194.64
 20
116.389
 11
194.57
 21
116.382
  0
LINE
  8
0
 10
194.57
 20
116.382
 11
194.5
 21
116.38
  0
LINE
  8
0
 10
194.5
 20
116.38
 11
194.43
 21
116.382
  0
LINE
  8
0
 10
55.1
 20
99.55
 11
55.1
 21
115.55
  0
LINE
  8
0
 10
55.1
 20
115.55
 11
71.1
 21
115.55
  0
LINE
  8
0
 10
71.1
 20
115.55
 11
71.1
 21
99.55
  0
LINE
  8
0
 10
71.1
 20
99.55
 11
55.1
 21
99.55
  0
LINE
  8
0
 10
185.8
 20
74.25
 11
185.8
 21
90.25
  0
LINE
  8
0
 10
185.8
 20
90.25
 11
201.8
 21
90.25
  0
LINE
  8
0
 10
201.8
 20
90.25
 11
201.8
 21
74.25
  0
LINE
  8
0
 10
201.8
 20
74.25
 11
185.8
 21
74.25
  0
LINE
  8
0
 10
158
 20
74.2
 11
158
 21
90.2
  0
LINE
  8
0
 10
158
 20
90.2
 11
174
 21
90.2
  0
LINE
  8
0
 10
174
 20
90.2
 11
174
 21
74.2
  0
LINE
  8
0
 10
174
 20
74.2
 11
158
 21
74.2
  0
LINE
  8
0
 10
130.4
 20
73.75
 11
130.4
 21
89.75
  0
LINE
  8
0
 10
130.4
 20
89.75
 11
146.4
 21
89.75
  0
LINE
  8
0
 10
146.4
 20
89.75
 11
146.4
 21
73.75
  0
LINE
  8
0
 10
146.4
 20
73.75
 11
130.4
 21
73.75
  0
LINE
  8
0
 10
49.4
 20
72.25
 11
49.4
 21
88.25
  0
LINE
  8
0
 10
49.4
 20
88.25
 11
65.4
 21
88.25
  0
LINE
  8
0
 10
65.4
 20
88.25
 11
65.4
 21
72.25
  0
LINE
  8
0
 10
65.4
 20
72.25
 11
49.4
 21
72.25
  0
LINE
  8
0
 10
103.5
 20
69.8
 11
103.5
 21
85.8
  0
LINE
  8
0
 10
103.5
 20
85.8
 11
119.5
 21
85.8
  0
LINE
  8
0
 10
119.5
 20
85.8
 11
119.5
 21
69.8
  0
LINE
  8
0
 10
119.5
 20
69.8
 11
103.5
 21
69.8
  0
LINE
  8
0
 10
21.4
 20
69.75
 11
21.4
 21
85.75
  0
LINE
  8
0
 10
21.4
 20
85.75
 11
37.4
 21
85.75
  0
LINE
  8
0
 10
37.4
 20
85.75
 11
37.4
 21
69.75
  0
LINE
  8
0
 10
37.4
 20
69.75
 11
21.4
 21
69.75
  0
LINE
  8
0
 10
76.4
 20
61.25
 11
76.4
 21
77.25
  0
LINE
  8
0
 10
76.4
 20
77.25
 11
92.4
 21
77.25
  0
LINE
  8
0
 10
92.4
 20
77.25
 11
92.4
 21
61.25
  0
LINE
  8
0
 10
92.4
 20
61.25
 11
76.4
 21
61.25
  0
LINE
  8
0
 10
157
 20
47.2
 11
157
 21
63.2
  0
LINE
  8
0
 10
157
 20
63.2
 11
173
 21
63.2
  0
LINE
  8
0
 10
173
 20
63.2
 11
173
 21
47.2
  0
LINE
  8
0
 10
173
 20
47.2
 11
157
 21
47.2
  0
LINE
  8
0
 10
186
 20
47.2
 11
186
 21
63.2
  0
LINE
  8
0
 10
186
 20
63.2
 11
202
 21
63.2
  0
LINE
  8
0
 10
202
 20
63.2
 11
202
 21
47.2
  0
LINE
  8
0
 10
202
 20
47.2
 11
186
 21
47.2
  0
LINE
  8
0
 10
128.4
 20
46.95
 11
128.4
 21
62.95
  0
LINE
  8
0
 10
128.4
 20
62.95
 11
144.4
 21
62.95
  0
LINE
  8
0
 10
144.4
 20
62.95
 11
144.4
 21
46.95
  0
LINE
  8
0
 10
144.4
 20
46.95
 11
128.4
 21
46.95
  0
LINE
  8
0
 10
7
 20
43.7
 11
7
 21
59.7
  0
LINE
  8
0
 10
7
 20
59.7
 11
23
 21
59.7
  0
LINE
  8
0
 10
23
 20
59.7
 11
23
 21
43.7
  0
LINE
  8
0
 10
23
 20
43.7
 11
7
 21
43.7
  0
LINE
  8
0
 10
99.5
 20
41.685
 11
99.5
 21
57.685
  0
LINE
  8
0
 10
99.5
 20
57.685
 11
115.5
 21
57.685
  0
LINE
  8
0
 10
115.5
 20
57.685
 11
115.5
 21
41.685
  0
LINE
  8
0
 10
115.5
 20
41.685
 11
99.5
 21
41.685
  0
LINE
  8
0
 10
118.5
 20
19.8
 11
118.5
 21
35.8
  0
LINE
  8
0
 10
118.5
 20
35.8
 11
134.5
 21
35.8
  0
LINE
  8
0
 10
134.5
 20
35.8
 11
134.5
 21
19.8
  0
LINE
  8
0
 10
134.5
 20
19.8
 11
118.5
 21
19.8
  0
LINE
  8
0
 10
88.5
 20
11.2
 11
88.5
 21
27.2
  0
LINE
  8
0
 10
88.5
 20
27.2
 11
104.5
 21
27.2
  0
LINE
  8
0
 10
104.5
 20
27.2
 11
104.5
 21
11.2
  0
LINE
  8
0
 10
104.5
 20
11.2
 11
88.5
 21
11.2
  0
LINE
  8
0
 10
9.42967
 20
6.3822
 11
9.35962
 21
6.38882
  0
LINE
  8
0
 10
9.35962
 20
6.38882
 11
9.29013
 21
6.39983
  0
LINE
  8
0
 10
9.29013
 20
6.39983
 11
9.22147
 21
6.41518
  0
LINE
  8
0
 10
9.22147
 20
6.41518
 11
9.1539
 21
6.43481
  0
LINE
  8
0
 10
9.1539
 20
6.43481
 11
9.08769
 21
6.45865
  0
LINE
  8
0
 10
9.08769
 20
6.45865
 11
9.02312
 21
6.48659
  0
LINE
  8
0
 10
9.02312
 20
6.48659
 11
8.96043
 21
6.51852
  0
LINE
  8
0
 10
8.96043
 20
6.51852
 11
8.89987
 21
6.55435
  0
LINE
  8
0
 10
8.89987
 20
6.55435
 11
8.84167
 21
6.59389
  0
LINE
  8
0
 10
8.84167
 20
6.59389
 11
8.78607
 21
6.63702
  0
LINE
  8
0
 10
8.78607
 20
6.63702
 11
8.73331
 21
6.68355
  0
LINE
  8
0
 10
8.73331
 20
6.68355
 11
8.68355
 21
6.73331
  0
LINE
  8
0
 10
8.68355
 20
6.73331
 11
8.63702
 21
6.78607
  0
LINE
  8
0
 10
8.63702
 20
6.78607
 11
8.59389
 21
6.84167
  0
LINE
  8
0
 10
8.59389
 20
6.84167
 11
8.55435
 21
6.89987
  0
LINE
  8
0
 10
8.55435
 20
6.89987
 11
8.51852
 21
6.96043
  0
LINE
  8
0
 10
8.51852
 20
6.96043
 11
8.48659
 21
7.02312
  0
LINE
  8
0
 10
8.48659
 20
7.02312
 11
8.45865
 21
7.08769
  0
LINE
  8
0
 10
8.45865
 20
7.08769
 11
8.43481
 21
7.1539
  0
LINE
  8
0
 10
8.43481
 20
7.1539
 11
8.41518
 21
7.22147
  0
LINE
  8
0
 10
8.41518
 20
7.22147
 11
8.39983
 21
7.29013
  0
LINE
  8
0
 10
8.39983
 20
7.29013
 11
8.38882
 21
7.35962
  0
LINE
  8
0
 10
8.38882
 20
7.35962
 11
8.3822
 21
7.42967
  0
LINE
  8
0
 10
8.3822
 20
7.42967
 11
8.37999
 21
7.5
  0
LINE
  8
0
 10
8.37999
 20
7.5
 11
8.3822
 21
7.57031
  0
LINE
  8
0
 10
8.3822
 20
7.57031
 11
8.38882
 21
7.64037
  0
LINE
  8
0
 10
8.38882
 20
7.64037
 11
8.39983
 21
7.70985
  0
LINE
  8
0
 10
8.39983
 20
7.70985
 11
8.41518
 21
7.77852
  0
LINE
  8
0
 10
8.41518
 20
7.77852
 11
8.43481
 21
7.84608
  0
LINE
  8
0
 10
8.43481
 20
7.84608
 11
8.45865
 21
7.91229
  0
LINE
  8
0
 10
8.45865
 20
7.91229
 11
8.48659
 21
7.97687
  0
LINE
  8
0
 10
8.48659
 20
7.97687
 11
8.51852
 21
8.03955
  0
LINE
  8
0
 10
8.51852
 20
8.03955
 11
8.55435
 21
8.10011
  0
LINE
  8
0
 10
8.55435
 20
8.10011
 11
8.59389
 21
8.15831
  0
LINE
  8
0
 10
8.59389
 20
8.15831
 11
8.63702
 21
8.21391
  0
LINE
  8
0
 10
8.63702
 20
8.21391
 11
8.68355
 21
8.26668
  0
LINE
  8
0
 10
8.68355
 20
8.26668
 11
8.73331
 21
8.31644
  0
LINE
  8
0
 10
8.73331
 20
8.31644
 11
8.78607
 21
8.36296
  0
LINE
  8
0
 10
8.78607
 20
8.36296
 11
8.84167
 21
8.4061
  0
LINE
  8
0
 10
8.84167
 20
8.4061
 11
8.89987
 21
8.44563
  0
LINE
  8
0
 10
8.89987
 20
8.44563
 11
8.96043
 21
8.48146
  0
LINE
  8
0
 10
8.96043
 20
8.48146
 11
9.02312
 21
8.5134
  0
LINE
  8
0
 10
9.02312
 20
8.5134
 11
9.08769
 21
8.54134
  0
LINE
  8
0
 10
9.08769
 20
8.54134
 11
9.1539
 21
8.56517
  0
LINE
  8
0
 10
9.1539
 20
8.56517
 11
9.22147
 21
8.58481
  0
LINE
  8
0
 10
9.22147
 20
8.58481
 11
9.29013
 21
8.60016
  0
LINE
  8
0
 10
9.29013
 20
8.60016
 11
9.35962
 21
8.61116
  0
LINE
  8
0
 10
9.35962
 20
8.61116
 11
9.42967
 21
8.61778
  0
LINE
  8
0
 10
9.42967
 20
8.61778
 11
9.5
 21
8.62
  0
LINE
  8
0
 10
9.5
 20
8.62
 11
9.57031
 21
8.61778
  0
LINE
  8
0
 10
9.57031
 20
8.61778
 11
9.64037
 21
8.61116
  0
LINE
  8
0
 10
9.64037
 20
8.61116
 11
9.70985
 21
8.60016
  0
LINE
  8
0
 10
9.70985
 20
8.60016
 11
9.77852
 21
8.58481
  0
LINE
  8
0
 10
9.77852
 20
8.58481
 11
9.84608
 21
8.56517
  0
LINE
  8
0
 10
9.84608
 20
8.56517
 11
9.91229
 21
8.54134
  0
LINE
  8
0
 10
9.91229
 20
8.54134
 11
9.97687
 21
8.5134
  0
LINE
  8
0
 10
9.97687
 20
8.5134
 11
10.0396
 21
8.48146
  0
LINE
  8
0
 10
10.0396
 20
8.48146
 11
10.1001
 21
8.44563
  0
LINE
  8
0
 10
10.1001
 20
8.44563
 11
10.1583
 21
8.4061
  0
LINE
  8
0
 10
10.1583
 20
8.4061
 11
10.2139
 21
8.36296
  0
LINE
  8
0
 10
10.2139
 20
8.36296
 11
10.2667
 21
8.31644
  0
LINE
  8
0
 10
10.2667
 20
8.31644
 11
10.3164
 21
8.26668
  0
LINE
  8
0
 10
10.3164
 20
8.26668
 11
10.363
 21
8.21391
  0
LINE
  8
0
 10
10.363
 20
8.21391
 11
10.4061
 21
8.15831
  0
LINE
  8
0
 10
10.4061
 20
8.15831
 11
10.4456
 21
8.10011
  0
LINE
  8
0
 10
10.4456
 20
8.10011
 11
10.4815
 21
8.03955
  0
LINE
  8
0
 10
10.4815
 20
8.03955
 11
10.5134
 21
7.97687
  0
LINE
  8
0
 10
10.5134
 20
7.97687
 11
10.5413
 21
7.91229
  0
LINE
  8
0
 10
10.5413
 20
7.91229
 11
10.5652
 21
7.84608
  0
LINE
  8
0
 10
10.5652
 20
7.84608
 11
10.5848
 21
7.77852
  0
LINE
  8
0
 10
10.5848
 20
7.77852
 11
10.6002
 21
7.70985
  0
LINE
  8
0
 10
10.6002
 20
7.70985
 11
10.6112
 21
7.64037
  0
LINE
  8
0
 10
10.6112
 20
7.64037
 11
10.6178
 21
7.57031
  0
LINE
  8
0
 10
10.6178
 20
7.57031
 11
10.62
 21
7.5
  0
LINE
  8
0
 10
10.62
 20
7.5
 11
10.6178
 21
7.42967
  0
LINE
  8
0
 10
10.6178
 20
7.42967
 11
10.6112
 21
7.35962
  0
LINE
  8
0
 10
10.6112
 20
7.35962
 11
10.6002
 21
7.29013
  0
LINE
  8
0
 10
10.6002
 20
7.29013
 11
10.5848
 21
7.22147
  0
LINE
  8
0
 10
10.5848
 20
7.22147
 11
10.5652
 21
7.1539
  0
LINE
  8
0
 10
10.5652
 20
7.1539
 11
10.5413
 21
7.08769
  0
LINE
  8
0
 10
10.5413
 20
7.08769
 11
10.5134
 21
7.02312
  0
LINE
  8
0
 10
10.5134
 20
7.02312
 11
10.4815
 21
6.96043
  0
LINE
  8
0
 10
10.4815
 20
6.96043
 11
10.4456
 21
6.89987
  0
LINE
  8
0
 10
10.4456
 20
6.89987
 11
10.4061
 21
6.84167
  0
LINE
  8
0
 10
10.4061
 20
6.84167
 11
10.363
 21
6.78607
  0
LINE
  8
0
 10
10.363
 20
6.78607
 11
10.3164
 21
6.73331
  0
LINE
  8
0
 10
10.3164
 20
6.73331
 11
10.2667
 21
6.68355
  0
LINE
  8
0
 10
10.2667
 20
6.68355
 11
10.2139
 21
6.63702
  0
LINE
  8
0
 10
10.2139
 20
6.63702
 11
10.1583
 21
6.59389
  0
LINE
  8
0
 10
10.1583
 20
6.59389
 11
10.1001
 21
6.55435
  0
LINE
  8
0
 10
10.1001
 20
6.55435
 11
10.0396
 21
6.51852
  0
LINE
  8
0
 10
10.0396
 20
6.51852
 11
9.97687
 21
6.48659
  0
LINE
  8
0
 10
9.97687
 20
6.48659
 11
9.91229
 21
6.45865
  0
LINE
  8
0
 10
9.91229
 20
6.45865
 11
9.84608
 21
6.43481
  0
LINE
  8
0
 10
9.84608
 20
6.43481
 11
9.77852
 21
6.41518
  0
LINE
  8
0
 10
9.77852
 20
6.41518
 11
9.70985
 21
6.39983
  0
LINE
  8
0
 10
9.70985
 20
6.39983
 11
9.64037
 21
6.38882
  0
LINE
  8
0
 10
9.64037
 20
6.38882
 11
9.57031
 21
6.3822
  0
LINE
  8
0
 10
9.57031
 20
6.3822
 11
9.5
 21
6.37999
  0
LINE
  8
0
 10
9.5
 20
6.37999
 11
9.42967
 21
6.3822
  0
LINE
  8
0
 10
194.43
 20
6.3822
 11
194.36
 21
6.38882
  0
LINE
  8
0
 10
194.36
 20
6.38882
 11
194.29
 21
6.39983
  0
LINE
  8
0
 10
194.29
 20
6.39983
 11
194.221
 21
6.41518
  0
LINE
  8
0
 10
194.221
 20
6.41518
 11
194.154
 21
6.43481
  0
LINE
  8
0
 10
194.154
 20
6.43481
 11
194.088
 21
6.45865
  0
LINE
  8
0
 10
194.088
 20
6.45865
 11
194.023
 21
6.48659
  0
LINE
  8
0
 10
194.023
 20
6.48659
 11
193.96
 21
6.51852
  0
LINE
  8
0
 10
193.96
 20
6.51852
 11
193.9
 21
6.55435
  0
LINE
  8
0
 10
193.9
 20
6.55435
 11
193.842
 21
6.59389
  0
LINE
  8
0
 10
193.842
 20
6.59389
 11
193.786
 21
6.63702
  0
LINE
  8
0
 10
193.786
 20
6.63702
 11
193.733
 21
6.68355
  0
LINE
  8
0
 10
193.733
 20
6.68355
 11
193.684
 21
6.73331
  0
LINE
  8
0
 10
193.684
 20
6.73331
 11
193.637
 21
6.78607
  0
LINE
  8
0
 10
193.637
 20
6.78607
 11
193.594
 21
6.84167
  0
LINE
  8
0
 10
193.594
 20
6.84167
 11
193.554
 21
6.89987
  0
LINE
  8
0
 10
193.554
 20
6.89987
 11
193.519
 21
6.96043
  0
LINE
  8
0
 10
193.519
 20
6.96043
 11
193.487
 21
7.02312
  0
LINE
  8
0
 10
193.487
 20
7.02312
 11
193.459
 21
7.08769
  0
LINE
  8
0
 10
193.459
 20
7.08769
 11
193.435
 21
7.1539
  0
LINE
  8
0
 10
193.435
 20
7.1539
 11
193.415
 21
7.22147
  0
LINE
  8
0
 10
193.415
 20
7.22147
 11
193.4
 21
7.29013
  0
LINE
  8
0
 10
193.4
 20
7.29013
 11
193.389
 21
7.35962
  0
LINE
  8
0
 10
193.389
 20
7.35962
 11
193.382
 21
7.42967
  0
LINE
  8
0
 10
193.382
 20
7.42967
 11
193.38
 21
7.5
  0
LINE
  8
0
 10
193.38
 20
7.5
 11
193.382
 21
7.57031
  0
LINE
  8
0
 10
193.382
 20
7.57031
 11
193.389
 21
7.64037
  0
LINE
  8
0
 10
193.389
 20
7.64037
 11
193.4
 21
7.70985
  0
LINE
  8
0
 10
193.4
 20
7.70985
 11
193.415
 21
7.77852
  0
LINE
  8
0
 10
193.415
 20
7.77852
 11
193.435
 21
7.84608
  0
LINE
  8
0
 10
193.435
 20
7.84608
 11
193.459
 21
7.91229
  0
LINE
  8
0
 10
193.459
 20
7.91229
 11
193.487
 21
7.97687
  0
LINE
  8
0
 10
193.487
 20
7.97687
 11
193.519
 21
8.03955
  0
LINE
  8
0
 10
193.519
 20
8.03955
 11
193.554
 21
8.10011
  0
LINE
  8
0
 10
193.554
 20
8.10011
 11
193.594
 21
8.15831
  0
LINE
  8
0
 10
193.594
 20
8.15831
 11
193.637
 21
8.21391
  0
LINE
  8
0
 10
193.637
 20
8.21391
 11
193.684
 21
8.26668
  0
LINE
  8
0
 10
193.684
 20
8.26668
 11
193.733
 21
8.31644
  0
LINE
  8
0
 10
193.733
 20
8.31644
 11
193.786
 21
8.36296
  0
LINE
  8
0
 10
193.786
 20
8.36296
 11
193.842
 21
8.4061
  0
LINE
  8
0
 10
193.842
 20
8.4061
 11
193.9
 21
8.44563
  0
LINE
  8
0
 10
193.9
 20
8.44563
 11
193.96
 21
8.48146
  0
LINE
  8
0
 10
193.96
 20
8.48146
 11
194.023
 21
8.5134
  0
LINE
  8
0
 10
194.023
 20
8.5134
 11
194.088
 21
8.54134
  0
LINE
  8
0
 10
194.088
 20
8.54134
 11
194.154
 21
8.56517
  0
LINE
  8
0
 10
194.154
 20
8.56517
 11
194.221
 21
8.58481
  0
LINE
  8
0
 10
194.221
 20
8.58481
 11
194.29
 21
8.60016
  0
LINE
  8
0
 10
194.29
 20
8.60016
 11
194.36
 21
8.61116
  0
LINE
  8
0
 10
194.36
 20
8.61116
 11
194.43
 21
8.61778
  0
LINE
  8
0
 10
194.43
 20
8.61778
 11
194.5
 21
8.62
  0
LINE
  8
0
 10
194.5
 20
8.62
 11
194.57
 21
8.61778
  0
LINE
  8
0
 10
194.57
 20
8.61778
 11
194.64
 21
8.61116
  0
LINE
  8
0
 10
194.64
 20
8.61116
 11
194.71
 21
8.60016
  0
LINE
  8
0
 10
194.71
 20
8.60016
 11
194.779
 21
8.58481
  0
LINE
  8
0
 10
194.779
 20
8.58481
 11
194.846
 21
8.56517
  0
LINE
  8
0
 10
194.846
 20
8.56517
 11
194.912
 21
8.54134
  0
LINE
  8
0
 10
194.912
 20
8.54134
 11
194.977
 21
8.5134
  0
LINE
  8
0
 10
194.977
 20
8.5134
 11
195.04
 21
8.48146
  0
LINE
  8
0
 10
195.04
 20
8.48146
 11
195.1
 21
8.44563
  0
LINE
  8
0
 10
195.1
 20
8.44563
 11
195.158
 21
8.4061
  0
LINE
  8
0
 10
195.158
 20
8.4061
 11
195.214
 21
8.36296
  0
LINE
  8
0
 10
195.214
 20
8.36296
 11
195.267
 21
8.31644
  0
LINE
  8
0
 10
195.267
 20
8.31644
 11
195.316
 21
8.26668
  0
LINE
  8
0
 10
195.316
 20
8.26668
 11
195.363
 21
8.21391
  0
LINE
  8
0
 10
195.363
 20
8.21391
 11
195.406
 21
8.15831
  0
LINE
  8
0
 10
195.406
 20
8.15831
 11
195.446
 21
8.10011
  0
LINE
  8
0
 10
195.446
 20
8.10011
 11
195.481
 21
8.03955
  0
LINE
  8
0
 10
195.481
 20
8.03955
 11
195.513
 21
7.97687
  0
LINE
  8
0
 10
195.513
 20
7.97687
 11
195.541
 21
7.91229
  0
LINE
  8
0
 10
195.541
 20
7.91229
 11
195.565
 21
7.84608
  0
LINE
  8
0
 10
195.565
 20
7.84608
 11
195.585
 21
7.77852
  0
LINE
  8
0
 10
195.585
 20
7.77852
 11
195.6
 21
7.70985
  0
LINE
  8
0
 10
195.6
 20
7.70985
 11
195.611
 21
7.64037
  0
LINE
  8
0
 10
195.611
 20
7.64037
 11
195.618
 21
7.57031
  0
LINE
  8
0
 10
195.618
 20
7.57031
 11
195.62
 21
7.5
  0
LINE
  8
0
 10
195.62
 20
7.5
 11
195.618
 21
7.42967
  0
LINE
  8
0
 10
195.618
 20
7.42967
 11
195.611
 21
7.35962
  0
LINE
  8
0
 10
195.611
 20
7.35962
 11
195.6
 21
7.29013
  0
LINE
  8
0
 10
195.6
 20
7.29013
 11
195.585
 21
7.22147
  0
LINE
  8
0
 10
195.585
 20
7.22147
 11
195.565
 21
7.1539
  0
LINE
  8
0
 10
195.565
 20
7.1539
 11
195.541
 21
7.08769
  0
LINE
  8
0
 10
195.541
 20
7.08769
 11
195.513
 21
7.02312
  0
LINE
  8
0
 10
195.513
 20
7.02312
 11
195.481
 21
6.96043
  0
LINE
  8
0
 10
195.481
 20
6.96043
 11
195.446
 21
6.89987
  0
LINE
  8
0
 10
195.446
 20
6.89987
 11
195.406
 21
6.84167
  0
LINE
  8
0
 10
195.406
 20
6.84167
 11
195.363
 21
6.78607
  0
LINE
  8
0
 10
195.363
 20
6.78607
 11
195.316
 21
6.73331
  0
LINE
  8
0
 10
195.316
 20
6.73331
 11
195.267
 21
6.68355
  0
LINE
  8
0
 10
195.267
 20
6.68355
 11
195.214
 21
6.63702
  0
LINE
  8
0
 10
195.214
 20
6.63702
 11
195.158
 21
6.59389
  0
LINE
  8
0
 10
195.158
 20
6.59389
 11
195.1
 21
6.55435
  0
LINE
  8
0
 10
195.1
 20
6.55435
 11
195.04
 21
6.51852
  0
LINE
  8
0
 10
195.04
 20
6.51852
 11
194.977
 21
6.48659
  0
LINE
  8
0
 10
194.977
 20
6.48659
 11
194.912
 21
6.45865
  0
LINE
  8
0
 10
194.912
 20
6.45865
 11
194.846
 21
6.43481
  0
LINE
  8
0
 10
194.846
 20
6.43481
 11
194.779
 21
6.41518
  0
LINE
  8
0
 10
194.779
 20
6.41518
 11
194.71
 21
6.39983
  0
LINE
  8
0
 10
194.71
 20
6.39983
 11
194.64
 21
6.38882
  0
LINE
  8
0
 10
194.64
 20
6.38882
 11
194.57
 21
6.3822
  0
LINE
  8
0
 10
194.57
 20
6.3822
 11
194.5
 21
6.37999
  0
LINE
  8
0
 10
194.5
 20
6.37999
 11
194.43
 21
6.3822
  0
LINE
  8
0
 10
114.43
 20
6.3822
 11
114.36
 21
6.38882
  0
LINE
  8
0
 10
114.36
 20
6.38882
 11
114.29
 21
6.39983
  0
LINE
  8
0
 10
114.29
 20
6.39983
 11
114.221
 21
6.41518
  0
LINE
  8
0
 10
114.221
 20
6.41518
 11
114.154
 21
6.43481
  0
LINE
  8
0
 10
114.154
 20
6.43481
 11
114.088
 21
6.45865
  0
LINE
  8
0
 10
114.088
 20
6.45865
 11
114.023
 21
6.48659
  0
LINE
  8
0
 10
114.023
 20
6.48659
 11
113.96
 21
6.51852
  0
LINE
  8
0
 10
113.96
 20
6.51852
 11
113.9
 21
6.55435
  0
LINE
  8
0
 10
113.9
 20
6.55435
 11
113.842
 21
6.59389
  0
LINE
  8
0
 10
113.842
 20
6.59389
 11
113.786
 21
6.63702
  0
LINE
  8
0
 10
113.786
 20
6.63702
 11
113.733
 21
6.68355
  0
LINE
  8
0
 10
113.733
 20
6.68355
 11
113.684
 21
6.73331
  0
LINE
  8
0
 10
113.684
 20
6.73331
 11
113.637
 21
6.78607
  0
LINE
  8
0
 10
113.637
 20
6.78607
 11
113.594
 21
6.84167
  0
LINE
  8
0
 10
113.594
 20
6.84167
 11
113.554
 21
6.89987
  0
LINE
  8
0
 10
113.554
 20
6.89987
 11
113.519
 21
6.96043
  0
LINE
  8
0
 10
113.519
 20
6.96043
 11
113.487
 21
7.02312
  0
LINE
  8
0
 10
113.487
 20
7.02312
 11
113.459
 21
7.08769
  0
LINE
  8
0
 10
113.459
 20
7.08769
 11
113.435
 21
7.1539
  0
LINE
  8
0
 10
113.435
 20
7.1539
 11
113.415
 21
7.22147
  0
LINE
  8
0
 10
113.415
 20
7.22147
 11
113.4
 21
7.29013
  0
LINE
  8
0
 10
113.4
 20
7.29013
 11
113.389
 21
7.35962
  0
LINE
  8
0
 10
113.389
 20
7.35962
 11
113.382
 21
7.42967
  0
LINE
  8
0
 10
113.382
 20
7.42967
 11
113.38
 21
7.5
  0
LINE
  8
0
 10
113.38
 20
7.5
 11
113.382
 21
7.57031
  0
LINE
  8
0
 10
113.382
 20
7.57031
 11
113.389
 21
7.64037
  0
LINE
  8
0
 10
113.389
 20
7.64037
 11
113.4
 21
7.70985
  0
LINE
  8
0
 10
113.4
 20
7.70985
 11
113.415
 21
7.77852
  0
LINE
  8
0
 10
113.415
 20
7.77852
 11
113.435
 21
7.84608
  0
LINE
  8
0
 10
113.435
 20
7.84608
 11
113.459
 21
7.91229
  0
LINE
  8
0
 10
113.459
 20
7.91229
 11
113.487
 21
7.97687
  0
LINE
  8
0
 10
113.487
 20
7.97687
 11
113.519
 21
8.03955
  0
LINE
  8
0
 10
113.519
 20
8.03955
 11
113.554
 21
8.10011
  0
LINE
  8
0
 10
113.554
 20
8.10011
 11
113.594
 21
8.15831
  0
LINE
  8
0
 10
113.594
 20
8.15831
 11
113.637
 21
8.21391
  0
LINE
  8
0
 10
113.637
 20
8.21391
 11
113.684
 21
8.26668
  0
LINE
  8
0
 10
113.684
 20
8.26668
 11
113.733
 21
8.31644
  0
LINE
  8
0
 10
113.733
 20
8.31644
 11
113.786
 21
8.36296
  0
LINE
  8
0
 10
113.786
 20
8.36296
 11
113.842
 21
8.4061
  0
LINE
  8
0
 10
113.842
 20
8.4061
 11
113.9
 21
8.44563
  0
LINE
  8
0
 10
113.9
 20
8.44563
 11
113.96
 21
8.48146
  0
LINE
  8
0
 10
113.96
 20
8.48146
 11
114.023
 21
8.5134
  0
LINE
  8
0
 10
114.023
 20
8.5134
 11
114.088
 21
8.54134
  0
LINE
  8
0
 10
114.088
 20
8.54134
 11
114.154
 21
8.56517
  0
LINE
  8
0
 10
114.154
 20
8.56517
 11
114.221
 21
8.58481
  0
LINE
  8
0
 10
114.221
 20
8.58481
 11
114.29
 21
8.60016
  0
LINE
  8
0
 10
114.29
 20
8.60016
 11
114.36
 21
8.61116
  0
LINE
  8
0
 10
114.36
 20
8.61116
 11
114.43
 21
8.61778
  0
LINE
  8
0
 10
114.43
 20
8.61778
 11
114.5
 21
8.62
  0
LINE
  8
0
 10
114.5
 20
8.62
 11
114.57
 21
8.61778
  0
LINE
  8
0
 10
114.57
 20
8.61778
 11
114.64
 21
8.61116
  0
LINE
  8
0
 10
114.64
 20
8.61116
 11
114.71
 21
8.60016
  0
LINE
  8
0
 10
114.71
 20
8.60016
 11
114.779
 21
8.58481
  0
LINE
  8
0
 10
114.779
 20
8.58481
 11
114.846
 21
8.56517
  0
LINE
  8
0
 10
114.846
 20
8.56517
 11
114.912
 21
8.54134
  0
LINE
  8
0
 10
114.912
 20
8.54134
 11
114.977
 21
8.5134
  0
LINE
  8
0
 10
114.977
 20
8.5134
 11
115.04
 21
8.48146
  0
LINE
  8
0
 10
115.04
 20
8.48146
 11
115.1
 21
8.44563
  0
LINE
  8
0
 10
115.1
 20
8.44563
 11
115.158
 21
8.4061
  0
LINE
  8
0
 10
115.158
 20
8.4061
 11
115.214
 21
8.36296
  0
LINE
  8
0
 10
115.214
 20
8.36296
 11
115.267
 21
8.31644
  0
LINE
  8
0
 10
115.267
 20
8.31644
 11
115.316
 21
8.26668
  0
LINE
  8
0
 10
115.316
 20
8.26668
 11
115.363
 21
8.21391
  0
LINE
  8
0
 10
115.363
 20
8.21391
 11
115.406
 21
8.15831
  0
LINE
  8
0
 10
115.406
 20
8.15831
 11
115.446
 21
8.10011
  0
LINE
  8
0
 10
115.446
 20
8.10011
 11
115.481
 21
8.03955
  0
LINE
  8
0
 10
115.481
 20
8.03955
 11
115.513
 21
7.97687
  0
LINE
  8
0
 10
115.513
 20
7.97687
 11
115.541
 21
7.91229
  0
LINE
  8
0
 10
115.541
 20
7.91229
 11
115.565
 21
7.84608
  0
LINE
  8
0
 10
115.565
 20
7.84608
 11
115.585
 21
7.77852
  0
LINE
  8
0
 10
115.585
 20
7.77852
 11
115.6
 21
7.70985
  0
LINE
  8
0
 10
115.6
 20
7.70985
 11
115.611
 21
7.64037
  0
LINE
  8
0
 10
115.611
 20
7.64037
 11
115.618
 21
7.57031
  0
LINE
  8
0
 10
115.618
 20
7.57031
 11
115.62
 21
7.5
  0
LINE
  8
0
 10
115.62
 20
7.5
 11
115.618
 21
7.42967
  0
LINE
  8
0
 10
115.618
 20
7.42967
 11
115.611
 21
7.35962
  0
LINE
  8
0
 10
115.611
 20
7.35962
 11
115.6
 21
7.29013
  0
LINE
  8
0
 10
115.6
 20
7.29013
 11
115.585
 21
7.22147
  0
LINE
  8
0
 10
115.585
 20
7.22147
 11
115.565
 21
7.1539
  0
LINE
  8
0
 10
115.565
 20
7.1539
 11
115.541
 21
7.08769
  0
LINE
  8
0
 10
115.541
 20
7.08769
 11
115.513
 21
7.02312
  0
LINE
  8
0
 10
115.513
 20
7.02312
 11
115.481
 21
6.96043
  0
LINE
  8
0
 10
115.481
 20
6.96043
 11
115.446
 21
6.89987
  0
LINE
  8
0
 10
115.446
 20
6.89987
 11
115.406
 21
6.84167
  0
LINE
  8
0
 10
115.406
 20
6.84167
 11
115.363
 21
6.78607
  0
LINE
  8
0
 10
115.363
 20
6.78607
 11
115.316
 21
6.73331
  0
LINE
  8
0
 10
115.316
 20
6.73331
 11
115.267
 21
6.68355
  0
LINE
  8
0
 10
115.267
 20
6.68355
 11
115.214
 21
6.63702
  0
LINE
  8
0
 10
115.214
 20
6.63702
 11
115.158
 21
6.59389
  0
LINE
  8
0
 10
115.158
 20
6.59389
 11
115.1
 21
6.55435
  0
LINE
  8
0
 10
115.1
 20
6.55435
 11
115.04
 21
6.51852
  0
LINE
  8
0
 10
115.04
 20
6.51852
 11
114.977
 21
6.48659
  0
LINE
  8
0
 10
114.977
 20
6.48659
 11
114.912
 21
6.45865
  0
LINE
  8
0
 10
114.912
 20
6.45865
 11
114.846
 21
6.43481
  0
LINE
  8
0
 10
114.846
 20
6.43481
 11
114.779
 21
6.41518
  0
LINE
  8
0
 10
114.779
 20
6.41518
 11
114.71
 21
6.39983
  0
LINE
  8
0
 10
114.71
 20
6.39983
 11
114.64
 21
6.38882
  0
LINE
  8
0
 10
114.64
 20
6.38882
 11
114.57
 21
6.3822
  0
LINE
  8
0
 10
114.57
 20
6.3822
 11
114.5
 21
6.37999
  0
LINE
  8
0
 10
114.5
 20
6.37999
 11
114.43
 21
6.3822
  0
ENDSEC
  0
SECTION
  2
OBJECTS
  0
DICTIONARY
  0
ENDSEC
  0
EOF
