<?xml version="1.0" standalone="no"?>
<!DOCTYPE svg PUBLIC "-//W3C//DTD SVG 1.1//EN" "http://www.w3.org/Graphics/SVG/1.1/DTD/svg11.dtd">
<svg width="209mm" height="125mm" viewBox="0 -125 209 125" xmlns="http://www.w3.org/2000/svg" version="1.1">
<title>OpenSCAD Model</title>
<path d="
M 199.128,-0.0197296 L 199.753,-0.0788574 L 200.374,-0.177124 L 200.987,-0.314163 L 201.59,-0.489441 L 202.181,-0.70224
 L 202.758,-0.951736 L 203.318,-1.23694 L 203.858,-1.55672 L 204.378,-1.90984 L 204.874,-2.29486 L 205.345,-2.71031
 L 205.79,-3.15453 L 206.205,-3.62576 L 206.59,-4.12215 L 206.943,-4.64174 L 207.263,-5.18246 L 207.548,-5.7422
 L 207.798,-6.31876 L 208.011,-6.90984 L 208.186,-7.51311 L 208.323,-8.12619 L 208.421,-8.74667 L 208.48,-9.3721
 L 208.5,-10 L 208.5,-115 L 208.48,-115.628 L 208.421,-116.253 L 208.323,-116.874 L 208.186,-117.487
 L 208.011,-118.09 L 207.798,-118.681 L 207.548,-119.258 L 207.263,-119.818 L 206.943,-120.358 L 206.59,-120.878
 L 206.205,-121.374 L 205.79,-121.845 L 205.345,-122.29 L 204.874,-122.705 L 204.378,-123.09 L 203.858,-123.443
 L 203.318,-123.763 L 202.758,-124.048 L 202.181,-124.298 L 201.59,-124.511 L 200.987,-124.686 L 200.374,-124.823
 L 199.753,-124.921 L 199.128,-124.98 L 198.5,-125 L 102.5,-125 L 102.5,-97 L 82.5,-97
 L 82.5,-125 L 10,-125 L 9.3721,-124.98 L 8.74667,-124.921 L 8.12619,-124.823 L 7.51311,-124.686
 L 6.90984,-124.511 L 6.31876,-124.298 L 5.7422,-124.048 L 5.18246,-123.763 L 4.64174,-123.443 L 4.12215,-123.09
 L 3.62576,-122.705 L 3.15453,-122.29 L 2.71031,-121.845 L 2.29486,-121.374 L 1.90984,-120.878 L 1.55672,-120.358
 L 1.23694,-119.818 L 0.951736,-119.258 L 0.70224,-118.681 L 0.489441,-118.09 L 0.314163,-117.487 L 0.177124,-116.874
 L 0.0788574,-116.253 L 0.0197296,-115.628 L 0,-115 L 0,-10 L 0.0197296,-9.3721 L 0.0788574,-8.74667
 L 0.177124,-8.12619 L 0.314163,-7.51311 L 0.489441,-6.90984 L 0.70224,-6.31876 L 0.951736,-5.7422 L 1.23694,-5.18246
 L 1.55672,-4.64174 L 1.90984,-4.12215 L 2.29486,-3.62576 L 2.71031,-3.15453 L 3.15453,-2.71031 L 3.62576,-2.29486
 L 4.12215,-1.90984 L 4.64174,-1.55672 L 5.18246,-1.23694 L 5.7422,-0.951736 L 6.31876,-0.70224 L 6.90984,-0.489441
 L 7.51311,-0.314163 L 8.12619,-0.177124 L 8.74667,-0.0788574 L 9.3721,-0.0197296 L 10,-0 L 198.5,-0
 z
M 138,-95 L 138,-124 L 168,-124 L 168,-95 z
M 17.65,-111.525 L 17.65,-121.025 L 43.65,-121.025 L 43.65,-111.525 z
M 9.42967,-116.382 L 9.35962,-116.389 L 9.29013,-116.4 L 9.22147,-116.415 L 9.1539,-116.435 L 9.08769,-116.459
 L 9.02312,-116.487 L 8.96043,-116.519 L 8.89987,-116.554 L 8.84167,-116.594 L 8.78607,-116.637 L 8.73331,-116.684
 L 8.68355,-116.733 L 8.63702,-116.786 L 8.59389,-116.842 L 8.55435,-116.9 L 8.51852,-116.96 L 8.48659,-117.023
 L 8.45865,-117.088 L 8.43481,-117.154 L 8.41518,-117.221 L 8.39983,-117.29 L 8.38882,-117.36 L 8.3822,-117.43
 L 8.37999,-117.5 L 8.3822,-117.57 L 8.38882,-117.64 L 8.39983,-117.71 L 8.41518,-117.779 L 8.43481,-117.846
 L 8.45865,-117.912 L 8.48659,-117.977 L 8.51852,-118.04 L 8.55435,-118.1 L 8.59389,-118.158 L 8.63702,-118.214
 L 8.68355,-118.267 L 8.73331,-118.316 L 8.78607,-118.363 L 8.84167,-118.406 L 8.89987,-118.446 L 8.96043,-118.481
 L 9.02312,-118.513 L 9.08769,-118.541 L 9.1539,-118.565 L 9.22147,-118.585 L 9.29013,-118.6 L 9.35962,-118.611
 L 9.42967,-118.618 L 9.5,-118.62 L 9.57031,-118.618 L 9.64037,-118.611 L 9.70985,-118.6 L 9.77852,-118.585
 L 9.84608,-118.565 L 9.91229,-118.541 L 9.97687,-118.513 L 10.0396,-118.481 L 10.1001,-118.446 L 10.1583,-118.406
 L 10.2139,-118.363 L 10.2667,-118.316 L 10.3164,-118.267 L 10.363,-118.214 L 10.4061,-118.158 L 10.4456,-118.1
 L 10.4815,-118.04 L 10.5134,-117.977 L 10.5413,-117.912 L 10.5652,-117.846 L 10.5848,-117.779 L 10.6002,-117.71
 L 10.6112,-117.64 L 10.6178,-117.57 L 10.62,-117.5 L 10.6178,-117.43 L 10.6112,-117.36 L 10.6002,-117.29
 L 10.5848,-117.221 L 10.5652,-117.154 L 10.5413,-117.088 L 10.5134,-117.023 L 10.4815,-116.96 L 10.4456,-116.9
 L 10.4061,-116.842 L 10.363,-116.786 L 10.3164,-116.733 L 10.2667,-116.684 L 10.2139,-116.637 L 10.1583,-116.594
 L 10.1001,-116.554 L 10.0396,-116.519 L 9.97687,-116.487 L 9.91229,-116.459 L 9.84608,-116.435 L 9.77852,-116.415
 L 9.70985,-116.4 L 9.64037,-116.389 L 9.57031,-116.382 L 9.5,-116.38 z
M 194.43,-116.382 L 194.36,-116.389 L 194.29,-116.4 L 194.221,-116.415 L 194.154,-116.435 L 194.088,-116.459
 L 194.023,-116.487 L 193.96,-116.519 L 193.9,-116.554 L 193.842,-116.594 L 193.786,-116.637 L 193.733,-116.684
 L 193.684,-116.733 L 193.637,-116.786 L 193.594,-116.842 L 193.554,-116.9 L 193.519,-116.96 L 193.487,-117.023
 L 193.459,-117.088 L 193.435,-117.154 L 193.415,-117.221 L 193.4,-117.29 L 193.389,-117.36 L 193.382,-117.43
 L 193.38,-117.5 L 193.382,-117.57 L 193.389,-117.64 L 193.4,-117.71 L 193.415,-117.779 L 193.435,-117.846
 L 193.459,-117.912 L 193.487,-117.977 L 193.519,-118.04 L 193.554,-118.1 L 193.594,-118.158 L 193.637,-118.214
 L 193.684,-118.267 L 193.733,-118.316 L 193.786,-118.363 L 193.842,-118.406 L 193.9,-118.446 L 193.96,-118.481
 L 194.023,-118.513 L 194.088,-118.541 L 194.154,-118.565 L 194.221,-118.585 L 194.29,-118.6 L 194.36,-118.611
 L 194.43,-118.618 L 194.5,-118.62 L 194.57,-118.618 L 194.64,-118.611 L 194.71,-118.6 L 194.779,-118.585
 L 194.846,-118.565 L 194.912,-118.541 L 194.977,-118.513 L 195.04,-118.481 L 195.1,-118.446 L 195.158,-118.406
 L 195.214,-118.363 L 195.267,-118.316 L 195.316,-118.267 L 195.363,-118.214 L 195.406,-118.158 L 195.446,-118.1
 L 195.481,-118.04 L 195.513,-117.977 L 195.541,-117.912 L 195.565,-117.846 L 195.585,-117.779 L 195.6,-117.71
 L 195.611,-117.64 L 195.618,-117.57 L 195.62,-117.5 L 195.618,-117.43 L 195.611,-117.36 L 195.6,-117.29
 L 195.585,-117.221 L 195.565,-117.154 L 195.541,-117.088 L 195.513,-117.023 L 195.481,-116.96 L 195.446,-116.9
 L 195.406,-116.842 L 195.363,-116.786 L 195.316,-116.733 L 195.267,-116.684 L 195.214,-116.637 L 195.158,-116.594
 L 195.1,-116.554 L 195.04,-116.519 L 194.977,-116.487 L 194.912,-116.459 L 194.846,-116.435 L 194.779,-116.415
 L 194.71,-116.4 L 194.64,-116.389 L 194.57,-116.382 L 194.5,-116.38 z
M 182.75,-42.75 L 182.75,-57.25 L 188.5,-57.25 L 188.5,-57.05 L 191.5,-57.05 L 191.5,-57.25
 L 197.25,-57.25 L 197.25,-42.75 L 191.5,-42.75 L 191.5,-42.95 L 188.5,-42.95 L 188.5,-42.75
 z
M 162.8,-42.8 L 162.8,-57.2 L 168.5,-57.2 L 168.5,-57 L 171.5,-57 L 171.5,-57.2
 L 177.2,-57.2 L 177.2,-42.8 L 171.5,-42.8 L 171.5,-43 L 168.5,-43 L 168.5,-42.8
 z
M 142.85,-42.85 L 142.85,-57.15 L 148.5,-57.15 L 148.5,-56.95 L 151.5,-56.95 L 151.5,-57.15
 L 157.15,-57.15 L 157.15,-42.85 L 151.5,-42.85 L 151.5,-43.05 L 148.5,-43.05 L 148.5,-42.85
 z
M 122.9,-42.9 L 122.9,-57.1 L 128.5,-57.1 L 128.5,-56.9 L 131.5,-56.9 L 131.5,-57.1
 L 137.1,-57.1 L 137.1,-42.9 L 131.5,-42.9 L 131.5,-43.1 L 128.5,-43.1 L 128.5,-42.9
 z
M 102.95,-42.95 L 102.95,-57.05 L 108.5,-57.05 L 108.5,-56.85 L 111.5,-56.85 L 111.5,-57.05
 L 117.05,-57.05 L 117.05,-42.95 L 111.5,-42.95 L 111.5,-43.15 L 108.5,-43.15 L 108.5,-42.95
 z
M 83,-43 L 83,-57 L 88.5,-57 L 88.5,-56.8 L 91.5,-56.8 L 91.5,-57
 L 97,-57 L 97,-43 L 91.5,-43 L 91.5,-43.2 L 88.5,-43.2 L 88.5,-43
 z
M 63.05,-43.05 L 63.05,-56.95 L 68.5,-56.95 L 68.5,-56.75 L 71.5,-56.75 L 71.5,-56.95
 L 76.95,-56.95 L 76.95,-43.05 L 71.5,-43.05 L 71.5,-43.25 L 68.5,-43.25 L 68.5,-43.05
 z
M 43.1,-43.1 L 43.1,-56.9 L 48.5,-56.9 L 48.5,-56.7 L 51.5,-56.7 L 51.5,-56.9
 L 56.9,-56.9 L 56.9,-43.1 L 51.5,-43.1 L 51.5,-43.3 L 48.5,-43.3 L 48.5,-43.1
 z
M 23.15,-43.15 L 23.15,-56.85 L 28.5,-56.85 L 28.5,-56.65 L 31.5,-56.65 L 31.5,-56.85
 L 36.85,-56.85 L 36.85,-43.15 L 31.5,-43.15 L 31.5,-43.35 L 28.5,-43.35 L 28.5,-43.15
 z
M 3.20001,-43.2 L 3.20001,-56.8 L 8.5,-56.8 L 8.5,-56.6 L 11.5,-56.6 L 11.5,-56.8
 L 16.8,-56.8 L 16.8,-43.2 L 11.5,-43.2 L 11.5,-43.4 L 8.5,-43.4 L 8.5,-43.2
 z
M 9.42967,-6.3822 L 9.35962,-6.38882 L 9.29013,-6.39983 L 9.22147,-6.41518 L 9.1539,-6.43481 L 9.08769,-6.45865
 L 9.02312,-6.48659 L 8.96043,-6.51852 L 8.89987,-6.55435 L 8.84167,-6.59389 L 8.78607,-6.63702 L 8.73331,-6.68355
 L 8.68355,-6.73331 L 8.63702,-6.78607 L 8.59389,-6.84167 L 8.55435,-6.89987 L 8.51852,-6.96043 L 8.48659,-7.02312
 L 8.45865,-7.08769 L 8.43481,-7.1539 L 8.41518,-7.22147 L 8.39983,-7.29013 L 8.38882,-7.35962 L 8.3822,-7.42967
 L 8.37999,-7.5 L 8.3822,-7.57031 L 8.38882,-7.64037 L 8.39983,-7.70985 L 8.41518,-7.77852 L 8.43481,-7.84608
 L 8.45865,-7.91229 L 8.48659,-7.97687 L 8.51852,-8.03955 L 8.55435,-8.10011 L 8.59389,-8.15831 L 8.63702,-8.21391
 L 8.68355,-8.26668 L 8.73331,-8.31644 L 8.78607,-8.36296 L 8.84167,-8.4061 L 8.89987,-8.44563 L 8.96043,-8.48146
 L 9.02312,-8.5134 L 9.08769,-8.54134 L 9.1539,-8.56517 L 9.22147,-8.58481 L 9.29013,-8.60016 L 9.35962,-8.61116
 L 9.42967,-8.61778 L 9.5,-8.62 L 9.57031,-8.61778 L 9.64037,-8.61116 L 9.70985,-8.60016 L 9.77852,-8.58481
 L 9.84608,-8.56517 L 9.91229,-8.54134 L 9.97687,-8.5134 L 10.0396,-8.48146 L 10.1001,-8.44563 L 10.1583,-8.4061
 L 10.2139,-8.36296 L 10.2667,-8.31644 L 10.3164,-8.26668 L 10.363,-8.21391 L 10.4061,-8.15831 L 10.4456,-8.10011
 L 10.4815,-8.03955 L 10.5134,-7.97687 L 10.5413,-7.91229 L 10.5652,-7.84608 L 10.5848,-7.77852 L 10.6002,-7.70985
 L 10.6112,-7.64037 L 10.6178,-7.57031 L 10.62,-7.5 L 10.6178,-7.42967 L 10.6112,-7.35962 L 10.6002,-7.29013
 L 10.5848,-7.22147 L 10.5652,-7.1539 L 10.5413,-7.08769 L 10.5134,-7.02312 L 10.4815,-6.96043 L 10.4456,-6.89987
 L 10.4061,-6.84167 L 10.363,-6.78607 L 10.3164,-6.73331 L 10.2667,-6.68355 L 10.2139,-6.63702 L 10.1583,-6.59389
 L 10.1001,-6.55435 L 10.0396,-6.51852 L 9.97687,-6.48659 L 9.91229,-6.45865 L 9.84608,-6.43481 L 9.77852,-6.41518
 L 9.70985,-6.39983 L 9.64037,-6.38882 L 9.57031,-6.3822 L 9.5,-6.37999 z
M 114.43,-6.3822 L 114.36,-6.38882 L 114.29,-6.39983 L 114.221,-6.41518 L 114.154,-6.43481 L 114.088,-6.45865
 L 114.023,-6.48659 L 113.96,-6.51852 L 113.9,-6.55435 L 113.842,-6.59389 L 113.786,-6.63702 L 113.733,-6.68355
 L 113.684,-6.73331 L 113.637,-6.78607 L 113.594,-6.84167 L 113.554,-6.89987 L 113.519,-6.96043 L 113.487,-7.02312
 L 113.459,-7.08769 L 113.435,-7.1539 L 113.415,-7.22147 L 113.4,-7.29013 L 113.389,-7.35962 L 113.382,-7.42967
 L 113.38,-7.5 L 113.382,-7.57031 L 113.389,-7.64037 L 113.4,-7.70985 L 113.415,-7.77852 L 113.435,-7.84608
 L 113.459,-7.91229 L 113.487,-7.97687 L 113.519,-8.03955 L 113.554,-8.10011 L 113.594,-8.15831 L 113.637,-8.21391
 L 113.684,-8.26668 L 113.733,-8.31644 L 113.786,-8.36296 L 113.842,-8.4061 L 113.9,-8.44563 L 113.96,-8.48146
 L 114.023,-8.5134 L 114.088,-8.54134 L 114.154,-8.56517 L 114.221,-8.58481 L 114.29,-8.60016 L 114.36,-8.61116
 L 114.43,-8.61778 L 114.5,-8.62 L 114.57,-8.61778 L 114.64,-8.61116 L 114.71,-8.60016 L 114.779,-8.58481
 L 114.846,-8.56517 L 114.912,-8.54134 L 114.977,-8.5134 L 115.04,-8.48146 L 115.1,-8.44563 L 115.158,-8.4061
 L 115.214,-8.36296 L 115.267,-8.31644 L 115.316,-8.26668 L 115.363,-8.21391 L 115.406,-8.15831 L 115.446,-8.10011
 L 115.481,-8.03955 L 115.513,-7.97687 L 115.541,-7.91229 L 115.565,-7.84608 L 115.585,-7.77852 L 115.6,-7.70985
 L 115.611,-7.64037 L 115.618,-7.57031 L 115.62,-7.5 L 115.618,-7.42967 L 115.611,-7.35962 L 115.6,-7.29013
 L 115.585,-7.22147 L 115.565,-7.1539 L 115.541,-7.08769 L 115.513,-7.02312 L 115.481,-6.96043 L 115.446,-6.89987
 L 115.406,-6.84167 L 115.363,-6.78607 L 115.316,-6.73331 L 115.267,-6.68355 L 115.214,-6.63702 L 115.158,-6.59389
 L 115.1,-6.55435 L 115.04,-6.51852 L 114.977,-6.48659 L 114.912,-6.45865 L 114.846,-6.43481 L 114.779,-6.41518
 L 114.71,-6.39983 L 114.64,-6.38882 L 114.57,-6.3822 L 114.5,-6.37999 z
M 194.43,-6.3822 L 194.36,-6.38882 L 194.29,-6.39983 L 194.221,-6.41518 L 194.154,-6.43481 L 194.088,-6.45865
 L 194.023,-6.48659 L 193.96,-6.51852 L 193.9,-6.55435 L 193.842,-6.59389 L 193.786,-6.63702 L 193.733,-6.68355
 L 193.684,-6.73331 L 193.637,-6.78607 L 193.594,-6.84167 L 193.554,-6.89987 L 193.519,-6.96043 L 193.487,-7.02312
 L 193.459,-7.08769 L 193.435,-7.1539 L 193.415,-7.22147 L 193.4,-7.29013 L 193.389,-7.35962 L 193.382,-7.42967
 L 193.38,-7.5 L 193.382,-7.57031 L 193.389,-7.64037 L 193.4,-7.70985 L 193.415,-7.77852 L 193.435,-7.84608
 L 193.459,-7.91229 L 193.487,-7.97687 L 193.519,-8.03955 L 193.554,-8.10011 L 193.594,-8.15831 L 193.637,-8.21391
 L 193.684,-8.26668 L 193.733,-8.31644 L 193.786,-8.36296 L 193.842,-8.4061 L 193.9,-8.44563 L 193.96,-8.48146
 L 194.023,-8.5134 L 194.088,-8.54134 L 194.154,-8.56517 L 194.221,-8.58481 L 194.29,-8.60016 L 194.36,-8.61116
 L 194.43,-8.61778 L 194.5,-8.62 L 194.57,-8.61778 L 194.64,-8.61116 L 194.71,-8.60016 L 194.779,-8.58481
 L 194.846,-8.56517 L 194.912,-8.54134 L 194.977,-8.5134 L 195.04,-8.48146 L 195.1,-8.44563 L 195.158,-8.4061
 L 195.214,-8.36296 L 195.267,-8.31644 L 195.316,-8.26668 L 195.363,-8.21391 L 195.406,-8.15831 L 195.446,-8.10011
 L 195.481,-8.03955 L 195.513,-7.97687 L 195.541,-7.91229 L 195.565,-7.84608 L 195.585,-7.77852 L 195.6,-7.70985
 L 195.611,-7.64037 L 195.618,-7.57031 L 195.62,-7.5 L 195.618,-7.42967 L 195.611,-7.35962 L 195.6,-7.29013
 L 195.585,-7.22147 L 195.565,-7.1539 L 195.541,-7.08769 L 195.513,-7.02312 L 195.481,-6.96043 L 195.446,-6.89987
 L 195.406,-6.84167 L 195.363,-6.78607 L 195.316,-6.73331 L 195.267,-6.68355 L 195.214,-6.63702 L 195.158,-6.59389
 L 195.1,-6.55435 L 195.04,-6.51852 L 194.977,-6.48659 L 194.912,-6.45865 L 194.846,-6.43481 L 194.779,-6.41518
 L 194.71,-6.39983 L 194.64,-6.38882 L 194.57,-6.3822 L 194.5,-6.37999 z
" stroke="black" fill="lightgray" stroke-width="0.5"/>
</svg>
