<?xml version="1.0" standalone="no"?>
<!DOCTYPE svg PUBLIC "-//W3C//DTD SVG 1.1//EN" "http://www.w3.org/Graphics/SVG/1.1/DTD/svg11.dtd">
<svg width="209mm" height="125mm" viewBox="0 -125 209 125" xmlns="http://www.w3.org/2000/svg" version="1.1">
<title>OpenSCAD Model</title>
<path d="
M 199.128,-0.0197296 L 199.753,-0.0788574 L 200.374,-0.177124 L 200.987,-0.314163 L 201.59,-0.489441 L 202.181,-0.70224
 L 202.758,-0.951736 L 203.318,-1.23694 L 203.858,-1.55672 L 204.378,-1.90984 L 204.874,-2.29486 L 205.345,-2.71031
 L 205.79,-3.15453 L 206.205,-3.62576 L 206.59,-4.12215 L 206.943,-4.64174 L 207.263,-5.18246 L 207.548,-5.7422
 L 207.798,-6.31876 L 208.011,-6.90984 L 208.186,-7.51311 L 208.323,-8.12619 L 208.421,-8.74667 L 208.48,-9.3721
 L 208.5,-10 L 208.5,-115 L 208.48,-115.628 L 208.421,-116.253 L 208.323,-116.874 L 208.186,-117.487
 L 208.011,-118.09 L 207.798,-118.681 L 207.548,-119.258 L 207.263,-119.818 L 206.943,-120.358 L 206.59,-120.878
 L 206.205,-121.374 L 205.79,-121.845 L 205.345,-122.29 L 204.874,-122.705 L 204.378,-123.09 L 203.858,-123.443
 L 203.318,-123.763 L 202.758,-124.048 L 202.181,-124.298 L 201.59,-124.511 L 200.987,-124.686 L 200.374,-124.823
 L 199.753,-124.921 L 199.128,-124.98 L 198.5,-125 L 10,-125 L 9.3721,-124.98 L 8.74667,-124.921
 L 8.12619,-124.823 L 7.51311,-124.686 L 6.90984,-124.511 L 6.31876,-124.298 L 5.7422,-124.048 L 5.18246,-123.763
 L 4.64174,-123.443 L 4.12215,-123.09 L 3.62576,-122.705 L 3.15453,-122.29 L 2.71031,-121.845 L 2.29486,-121.374
 L 1.90984,-120.878 L 1.55672,-120.358 L 1.23694,-119.818 L 0.951736,-119.258 L 0.70224,-118.681 L 0.489441,-118.09
 L 0.314163,-117.487 L 0.177124,-116.874 L 0.0788574,-116.253 L 0.0197296,-115.628 L 0,-115 L 0,-10
 L 0.0197296,-9.3721 L 0.0788574,-8.74667 L 0.177124,-8.12619 L 0.314163,-7.51311 L 0.489441,-6.90984 L 0.70224,-6.31876
 L 0.951736,-5.7422 L 1.23694,-5.18246 L 1.55672,-4.64174 L 1.90984,-4.12215 L 2.29486,-3.62576 L 2.71031,-3.15453
 L 3.15453,-2.71031 L 3.62576,-2.29486 L 4.12215,-1.90984 L 4.64174,-1.55672 L 5.18246,-1.23694 L 5.7422,-0.951736
 L 6.31876,-0.70224 L 6.90984,-0.489441 L 7.51311,-0.314163 L 8.12619,-0.177124 L 8.74667,-0.0788574 L 9.3721,-0.0197296
 L 10,-0 L 198.5,-0 z
M 138,-95 L 138,-124 L 168,-124 L 168,-95 z
M 17.65,-111.525 L 17.65,-121.025 L 43.65,-121.025 L 43.65,-111.525 z
M 62.3465,-95.5737 L 61.596,-95.6446 L 60.8514,-95.7625 L 60.1157,-95.927 L 59.3918,-96.1373 L 58.6825,-96.3927
 L 57.9906,-96.6921 L 57.319,-97.0343 L 56.6701,-97.4181 L 56.0466,-97.8418 L 55.4509,-98.3038 L 54.8854,-98.8024
 L 54.3524,-99.3354 L 53.8538,-99.9009 L 53.3918,-100.497 L 52.9681,-101.12 L 52.5843,-101.769 L 52.2421,-102.441
 L 51.9427,-103.132 L 51.6873,-103.842 L 51.477,-104.566 L 51.3125,-105.301 L 51.1946,-106.046 L 51.1237,-106.797
 L 51.1,-107.55 L 51.1237,-108.303 L 51.1946,-109.054 L 51.3125,-109.799 L 51.477,-110.534 L 51.6873,-111.258
 L 51.9427,-111.967 L 52.2421,-112.659 L 52.5843,-113.331 L 52.9681,-113.98 L 53.3918,-114.603 L 53.8538,-115.199
 L 54.3524,-115.765 L 54.8854,-116.298 L 55.4509,-116.796 L 56.0466,-117.258 L 56.6701,-117.682 L 57.319,-118.066
 L 57.9906,-118.408 L 58.6825,-118.707 L 59.3918,-118.963 L 60.1157,-119.173 L 60.8514,-119.337 L 61.596,-119.455
 L 62.3465,-119.526 L 63.1,-119.55 L 63.8535,-119.526 L 64.604,-119.455 L 65.3486,-119.337 L 66.0843,-119.173
 L 66.8082,-118.963 L 67.5175,-118.707 L 68.2094,-118.408 L 68.881,-118.066 L 69.5299,-117.682 L 70.1534,-117.258
 L 70.7491,-116.796 L 71.3146,-116.298 L 71.8476,-115.765 L 72.3461,-115.199 L 72.8082,-114.603 L 73.2319,-113.98
 L 73.6157,-113.331 L 73.9579,-112.659 L 74.2573,-111.967 L 74.5127,-111.258 L 74.723,-110.534 L 74.8874,-109.799
 L 75.0054,-109.054 L 75.0763,-108.303 L 75.1,-107.55 L 75.0763,-106.797 L 75.0054,-106.046 L 74.8874,-105.301
 L 74.723,-104.566 L 74.5127,-103.842 L 74.2573,-103.132 L 73.9579,-102.441 L 73.6157,-101.769 L 73.2319,-101.12
 L 72.8082,-100.497 L 72.3461,-99.9009 L 71.8476,-99.3354 L 71.3146,-98.8024 L 70.7491,-98.3038 L 70.1534,-97.8418
 L 69.5299,-97.4181 L 68.881,-97.0343 L 68.2094,-96.6921 L 67.5175,-96.3927 L 66.8082,-96.1373 L 66.0843,-95.927
 L 65.3486,-95.7625 L 64.604,-95.6446 L 63.8535,-95.5737 L 63.1,-95.55 z
M 194.43,-116.382 L 194.36,-116.389 L 194.29,-116.4 L 194.221,-116.415 L 194.154,-116.435 L 194.088,-116.459
 L 194.023,-116.487 L 193.96,-116.519 L 193.9,-116.554 L 193.842,-116.594 L 193.786,-116.637 L 193.733,-116.684
 L 193.684,-116.733 L 193.637,-116.786 L 193.594,-116.842 L 193.554,-116.9 L 193.519,-116.96 L 193.487,-117.023
 L 193.459,-117.088 L 193.435,-117.154 L 193.415,-117.221 L 193.4,-117.29 L 193.389,-117.36 L 193.382,-117.43
 L 193.38,-117.5 L 193.382,-117.57 L 193.389,-117.64 L 193.4,-117.71 L 193.415,-117.779 L 193.435,-117.846
 L 193.459,-117.912 L 193.487,-117.977 L 193.519,-118.04 L 193.554,-118.1 L 193.594,-118.158 L 193.637,-118.214
 L 193.684,-118.267 L 193.733,-118.316 L 193.786,-118.363 L 193.842,-118.406 L 193.9,-118.446 L 193.96,-118.481
 L 194.023,-118.513 L 194.088,-118.541 L 194.154,-118.565 L 194.221,-118.585 L 194.29,-118.6 L 194.36,-118.611
 L 194.43,-118.618 L 194.5,-118.62 L 194.57,-118.618 L 194.64,-118.611 L 194.71,-118.6 L 194.779,-118.585
 L 194.846,-118.565 L 194.912,-118.541 L 194.977,-118.513 L 195.04,-118.481 L 195.1,-118.446 L 195.158,-118.406
 L 195.214,-118.363 L 195.267,-118.316 L 195.316,-118.267 L 195.363,-118.214 L 195.406,-118.158 L 195.446,-118.1
 L 195.481,-118.04 L 195.513,-117.977 L 195.541,-117.912 L 195.565,-117.846 L 195.585,-117.779 L 195.6,-117.71
 L 195.611,-117.64 L 195.618,-117.57 L 195.62,-117.5 L 195.618,-117.43 L 195.611,-117.36 L 195.6,-117.29
 L 195.585,-117.221 L 195.565,-117.154 L 195.541,-117.088 L 195.513,-117.023 L 195.481,-116.96 L 195.446,-116.9
 L 195.406,-116.842 L 195.363,-116.786 L 195.316,-116.733 L 195.267,-116.684 L 195.214,-116.637 L 195.158,-116.594
 L 195.1,-116.554 L 195.04,-116.519 L 194.977,-116.487 L 194.912,-116.459 L 194.846,-116.435 L 194.779,-116.415
 L 194.71,-116.4 L 194.64,-116.389 L 194.57,-116.382 L 194.5,-116.38 z
M 9.42967,-116.382 L 9.35962,-116.389 L 9.29013,-116.4 L 9.22147,-116.415 L 9.1539,-116.435 L 9.08769,-116.459
 L 9.02312,-116.487 L 8.96043,-116.519 L 8.89987,-116.554 L 8.84167,-116.594 L 8.78607,-116.637 L 8.73331,-116.684
 L 8.68355,-116.733 L 8.63702,-116.786 L 8.59389,-116.842 L 8.55435,-116.9 L 8.51852,-116.96 L 8.48659,-117.023
 L 8.45865,-117.088 L 8.43481,-117.154 L 8.41518,-117.221 L 8.39983,-117.29 L 8.38882,-117.36 L 8.3822,-117.43
 L 8.37999,-117.5 L 8.3822,-117.57 L 8.38882,-117.64 L 8.39983,-117.71 L 8.41518,-117.779 L 8.43481,-117.846
 L 8.45865,-117.912 L 8.48659,-117.977 L 8.51852,-118.04 L 8.55435,-118.1 L 8.59389,-118.158 L 8.63702,-118.214
 L 8.68355,-118.267 L 8.73331,-118.316 L 8.78607,-118.363 L 8.84167,-118.406 L 8.89987,-118.446 L 8.96043,-118.481
 L 9.02312,-118.513 L 9.08769,-118.541 L 9.1539,-118.565 L 9.22147,-118.585 L 9.29013,-118.6 L 9.35962,-118.611
 L 9.42967,-118.618 L 9.5,-118.62 L 9.57031,-118.618 L 9.64037,-118.611 L 9.70985,-118.6 L 9.77852,-118.585
 L 9.84608,-118.565 L 9.91229,-118.541 L 9.97687,-118.513 L 10.0396,-118.481 L 10.1001,-118.446 L 10.1583,-118.406
 L 10.2139,-118.363 L 10.2667,-118.316 L 10.3164,-118.267 L 10.363,-118.214 L 10.4061,-118.158 L 10.4456,-118.1
 L 10.4815,-118.04 L 10.5134,-117.977 L 10.5413,-117.912 L 10.5652,-117.846 L 10.5848,-117.779 L 10.6002,-117.71
 L 10.6112,-117.64 L 10.6178,-117.57 L 10.62,-117.5 L 10.6178,-117.43 L 10.6112,-117.36 L 10.6002,-117.29
 L 10.5848,-117.221 L 10.5652,-117.154 L 10.5413,-117.088 L 10.5134,-117.023 L 10.4815,-116.96 L 10.4456,-116.9
 L 10.4061,-116.842 L 10.363,-116.786 L 10.3164,-116.733 L 10.2667,-116.684 L 10.2139,-116.637 L 10.1583,-116.594
 L 10.1001,-116.554 L 10.0396,-116.519 L 9.97687,-116.487 L 9.91229,-116.459 L 9.84608,-116.435 L 9.77852,-116.415
 L 9.70985,-116.4 L 9.64037,-116.389 L 9.57031,-116.382 L 9.5,-116.38 z
M 193.047,-70.2737 L 192.296,-70.3446 L 191.551,-70.4625 L 190.816,-70.627 L 190.092,-70.8373 L 189.382,-71.0927
 L 188.691,-71.3921 L 188.019,-71.7343 L 187.37,-72.1181 L 186.747,-72.5418 L 186.151,-73.0038 L 185.585,-73.5024
 L 185.052,-74.0354 L 184.554,-74.6009 L 184.092,-75.1966 L 183.668,-75.8201 L 183.284,-76.4689 L 182.942,-77.1406
 L 182.643,-77.8325 L 182.387,-78.5418 L 182.177,-79.2657 L 182.013,-80.0014 L 181.895,-80.746 L 181.824,-81.4965
 L 181.8,-82.25 L 181.824,-83.0035 L 181.895,-83.754 L 182.013,-84.4986 L 182.177,-85.2343 L 182.387,-85.9582
 L 182.643,-86.6675 L 182.942,-87.3593 L 183.284,-88.031 L 183.668,-88.6799 L 184.092,-89.3034 L 184.554,-89.8991
 L 185.052,-90.4646 L 185.585,-90.9976 L 186.151,-91.4962 L 186.747,-91.9582 L 187.37,-92.3819 L 188.019,-92.7657
 L 188.691,-93.1079 L 189.382,-93.4073 L 190.092,-93.6627 L 190.816,-93.873 L 191.551,-94.0374 L 192.296,-94.1554
 L 193.047,-94.2263 L 193.8,-94.25 L 194.553,-94.2263 L 195.304,-94.1554 L 196.049,-94.0374 L 196.784,-93.873
 L 197.508,-93.6627 L 198.217,-93.4073 L 198.909,-93.1079 L 199.581,-92.7657 L 200.23,-92.3819 L 200.853,-91.9582
 L 201.449,-91.4962 L 202.015,-90.9976 L 202.548,-90.4646 L 203.046,-89.8991 L 203.508,-89.3034 L 203.932,-88.6799
 L 204.316,-88.031 L 204.658,-87.3593 L 204.957,-86.6675 L 205.213,-85.9582 L 205.423,-85.2343 L 205.587,-84.4986
 L 205.705,-83.754 L 205.776,-83.0035 L 205.8,-82.25 L 205.776,-81.4965 L 205.705,-80.746 L 205.587,-80.0014
 L 205.423,-79.2657 L 205.213,-78.5418 L 204.957,-77.8325 L 204.658,-77.1406 L 204.316,-76.4689 L 203.932,-75.8201
 L 203.508,-75.1966 L 203.046,-74.6009 L 202.548,-74.0354 L 202.015,-73.5024 L 201.449,-73.0038 L 200.853,-72.5418
 L 200.23,-72.1181 L 199.581,-71.7343 L 198.909,-71.3921 L 198.217,-71.0927 L 197.508,-70.8373 L 196.784,-70.627
 L 196.049,-70.4625 L 195.304,-70.3446 L 194.553,-70.2737 L 193.8,-70.25 z
M 165.247,-70.2237 L 164.496,-70.2946 L 163.751,-70.4126 L 163.016,-70.577 L 162.292,-70.7873 L 161.583,-71.0427
 L 160.891,-71.3421 L 160.219,-71.6843 L 159.57,-72.0681 L 158.947,-72.4918 L 158.351,-72.9538 L 157.785,-73.4524
 L 157.252,-73.9854 L 156.754,-74.5509 L 156.292,-75.1466 L 155.868,-75.7701 L 155.484,-76.4189 L 155.142,-77.0906
 L 154.843,-77.7825 L 154.587,-78.4918 L 154.377,-79.2157 L 154.213,-79.9514 L 154.095,-80.696 L 154.024,-81.4465
 L 154,-82.2 L 154.024,-82.9535 L 154.095,-83.704 L 154.213,-84.4486 L 154.377,-85.1843 L 154.587,-85.9082
 L 154.843,-86.6175 L 155.142,-87.3093 L 155.484,-87.981 L 155.868,-88.6299 L 156.292,-89.2534 L 156.754,-89.8491
 L 157.252,-90.4146 L 157.785,-90.9476 L 158.351,-91.4462 L 158.947,-91.9082 L 159.57,-92.3319 L 160.219,-92.7157
 L 160.891,-93.0579 L 161.583,-93.3573 L 162.292,-93.6127 L 163.016,-93.823 L 163.751,-93.9874 L 164.496,-94.1054
 L 165.247,-94.1763 L 166,-94.2 L 166.753,-94.1763 L 167.504,-94.1054 L 168.249,-93.9874 L 168.984,-93.823
 L 169.708,-93.6127 L 170.417,-93.3573 L 171.109,-93.0579 L 171.781,-92.7157 L 172.43,-92.3319 L 173.053,-91.9082
 L 173.649,-91.4462 L 174.215,-90.9476 L 174.748,-90.4146 L 175.246,-89.8491 L 175.708,-89.2534 L 176.132,-88.6299
 L 176.516,-87.981 L 176.858,-87.3093 L 177.157,-86.6175 L 177.413,-85.9082 L 177.623,-85.1843 L 177.787,-84.4486
 L 177.905,-83.704 L 177.976,-82.9535 L 178,-82.2 L 177.976,-81.4465 L 177.905,-80.696 L 177.787,-79.9514
 L 177.623,-79.2157 L 177.413,-78.4918 L 177.157,-77.7825 L 176.858,-77.0906 L 176.516,-76.4189 L 176.132,-75.7701
 L 175.708,-75.1466 L 175.246,-74.5509 L 174.748,-73.9854 L 174.215,-73.4524 L 173.649,-72.9538 L 173.053,-72.4918
 L 172.43,-72.0681 L 171.781,-71.6843 L 171.109,-71.3421 L 170.417,-71.0427 L 169.708,-70.7873 L 168.984,-70.577
 L 168.249,-70.4126 L 167.504,-70.2946 L 166.753,-70.2237 L 166,-70.2 z
M 137.646,-69.7737 L 136.896,-69.8446 L 136.151,-69.9625 L 135.416,-70.127 L 134.692,-70.3373 L 133.982,-70.5927
 L 133.291,-70.8921 L 132.619,-71.2343 L 131.97,-71.6181 L 131.347,-72.0418 L 130.751,-72.5038 L 130.185,-73.0024
 L 129.652,-73.5354 L 129.154,-74.1009 L 128.692,-74.6966 L 128.268,-75.3201 L 127.884,-75.9689 L 127.542,-76.6406
 L 127.243,-77.3325 L 126.987,-78.0418 L 126.777,-78.7657 L 126.613,-79.5014 L 126.495,-80.246 L 126.424,-80.9965
 L 126.4,-81.75 L 126.424,-82.5035 L 126.495,-83.254 L 126.613,-83.9986 L 126.777,-84.7343 L 126.987,-85.4582
 L 127.243,-86.1675 L 127.542,-86.8593 L 127.884,-87.531 L 128.268,-88.1799 L 128.692,-88.8034 L 129.154,-89.3991
 L 129.652,-89.9646 L 130.185,-90.4976 L 130.751,-90.9962 L 131.347,-91.4582 L 131.97,-91.8819 L 132.619,-92.2657
 L 133.291,-92.6079 L 133.982,-92.9073 L 134.692,-93.1627 L 135.416,-93.373 L 136.151,-93.5374 L 136.896,-93.6554
 L 137.646,-93.7263 L 138.4,-93.75 L 139.153,-93.7263 L 139.904,-93.6554 L 140.649,-93.5374 L 141.384,-93.373
 L 142.108,-93.1627 L 142.817,-92.9073 L 143.509,-92.6079 L 144.181,-92.2657 L 144.83,-91.8819 L 145.453,-91.4582
 L 146.049,-90.9962 L 146.615,-90.4976 L 147.148,-89.9646 L 147.646,-89.3991 L 148.108,-88.8034 L 148.532,-88.1799
 L 148.916,-87.531 L 149.258,-86.8593 L 149.557,-86.1675 L 149.813,-85.4582 L 150.023,-84.7343 L 150.187,-83.9986
 L 150.305,-83.254 L 150.376,-82.5035 L 150.4,-81.75 L 150.376,-80.9965 L 150.305,-80.246 L 150.187,-79.5014
 L 150.023,-78.7657 L 149.813,-78.0418 L 149.557,-77.3325 L 149.258,-76.6406 L 148.916,-75.9689 L 148.532,-75.3201
 L 148.108,-74.6966 L 147.646,-74.1009 L 147.148,-73.5354 L 146.615,-73.0024 L 146.049,-72.5038 L 145.453,-72.0418
 L 144.83,-71.6181 L 144.181,-71.2343 L 143.509,-70.8921 L 142.817,-70.5927 L 142.108,-70.3373 L 141.384,-70.127
 L 140.649,-69.9625 L 139.904,-69.8446 L 139.153,-69.7737 L 138.4,-69.75 z
M 56.6465,-68.2737 L 55.896,-68.3446 L 55.1514,-68.4625 L 54.4157,-68.627 L 53.6918,-68.8373 L 52.9825,-69.0927
 L 52.2906,-69.3921 L 51.6189,-69.7343 L 50.9701,-70.1181 L 50.3466,-70.5418 L 49.7509,-71.0038 L 49.1854,-71.5024
 L 48.6524,-72.0354 L 48.1538,-72.6009 L 47.6918,-73.1966 L 47.2681,-73.8201 L 46.8843,-74.4689 L 46.5421,-75.1406
 L 46.2427,-75.8325 L 45.9873,-76.5418 L 45.777,-77.2657 L 45.6125,-78.0014 L 45.4946,-78.746 L 45.4237,-79.4965
 L 45.4,-80.25 L 45.4237,-81.0035 L 45.4946,-81.754 L 45.6125,-82.4986 L 45.777,-83.2343 L 45.9873,-83.9582
 L 46.2427,-84.6675 L 46.5421,-85.3593 L 46.8843,-86.031 L 47.2681,-86.6799 L 47.6918,-87.3034 L 48.1538,-87.8991
 L 48.6524,-88.4646 L 49.1854,-88.9976 L 49.7509,-89.4962 L 50.3466,-89.9582 L 50.9701,-90.3819 L 51.6189,-90.7657
 L 52.2906,-91.1079 L 52.9825,-91.4073 L 53.6918,-91.6627 L 54.4157,-91.873 L 55.1514,-92.0374 L 55.896,-92.1554
 L 56.6465,-92.2263 L 57.4,-92.25 L 58.1535,-92.2263 L 58.904,-92.1554 L 59.6486,-92.0374 L 60.3843,-91.873
 L 61.1082,-91.6627 L 61.8175,-91.4073 L 62.5093,-91.1079 L 63.181,-90.7657 L 63.8299,-90.3819 L 64.4534,-89.9582
 L 65.0491,-89.4962 L 65.6146,-88.9976 L 66.1476,-88.4646 L 66.6461,-87.8991 L 67.1082,-87.3034 L 67.5319,-86.6799
 L 67.9157,-86.031 L 68.2579,-85.3593 L 68.5573,-84.6675 L 68.8127,-83.9582 L 69.023,-83.2343 L 69.1874,-82.4986
 L 69.3054,-81.754 L 69.3763,-81.0035 L 69.4,-80.25 L 69.3763,-79.4965 L 69.3054,-78.746 L 69.1874,-78.0014
 L 69.023,-77.2657 L 68.8127,-76.5418 L 68.5573,-75.8325 L 68.2579,-75.1406 L 67.9157,-74.4689 L 67.5319,-73.8201
 L 67.1082,-73.1966 L 66.6461,-72.6009 L 66.1476,-72.0354 L 65.6146,-71.5024 L 65.0491,-71.0038 L 64.4534,-70.5418
 L 63.8299,-70.1181 L 63.181,-69.7343 L 62.5093,-69.3921 L 61.8175,-69.0927 L 61.1082,-68.8373 L 60.3843,-68.627
 L 59.6486,-68.4625 L 58.904,-68.3446 L 58.1535,-68.2737 L 57.4,-68.25 z
M 110.747,-65.8237 L 109.996,-65.8946 L 109.251,-66.0125 L 108.516,-66.177 L 107.792,-66.3873 L 107.083,-66.6427
 L 106.391,-66.9421 L 105.719,-67.2843 L 105.07,-67.6681 L 104.447,-68.0918 L 103.851,-68.5538 L 103.285,-69.0524
 L 102.752,-69.5854 L 102.254,-70.1509 L 101.792,-70.7466 L 101.368,-71.3701 L 100.984,-72.019 L 100.642,-72.6906
 L 100.343,-73.3825 L 100.087,-74.0918 L 99.877,-74.8157 L 99.7125,-75.5514 L 99.5946,-76.296 L 99.5237,-77.0465
 L 99.5,-77.8 L 99.5237,-78.5535 L 99.5946,-79.304 L 99.7125,-80.0486 L 99.877,-80.7843 L 100.087,-81.5082
 L 100.343,-82.2175 L 100.642,-82.9093 L 100.984,-83.581 L 101.368,-84.2299 L 101.792,-84.8534 L 102.254,-85.4491
 L 102.752,-86.0146 L 103.285,-86.5476 L 103.851,-87.0462 L 104.447,-87.5082 L 105.07,-87.9319 L 105.719,-88.3157
 L 106.391,-88.6579 L 107.083,-88.9573 L 107.792,-89.2127 L 108.516,-89.423 L 109.251,-89.5874 L 109.996,-89.7054
 L 110.747,-89.7763 L 111.5,-89.8 L 112.253,-89.7763 L 113.004,-89.7054 L 113.749,-89.5874 L 114.484,-89.423
 L 115.208,-89.2127 L 115.917,-88.9573 L 116.609,-88.6579 L 117.281,-88.3157 L 117.93,-87.9319 L 118.553,-87.5082
 L 119.149,-87.0462 L 119.715,-86.5476 L 120.248,-86.0146 L 120.746,-85.4491 L 121.208,-84.8534 L 121.632,-84.2299
 L 122.016,-83.581 L 122.358,-82.9093 L 122.657,-82.2175 L 122.913,-81.5082 L 123.123,-80.7843 L 123.287,-80.0486
 L 123.405,-79.304 L 123.476,-78.5535 L 123.5,-77.8 L 123.476,-77.0465 L 123.405,-76.296 L 123.287,-75.5514
 L 123.123,-74.8157 L 122.913,-74.0918 L 122.657,-73.3825 L 122.358,-72.6906 L 122.016,-72.019 L 121.632,-71.3701
 L 121.208,-70.7466 L 120.746,-70.1509 L 120.248,-69.5854 L 119.715,-69.0524 L 119.149,-68.5538 L 118.553,-68.0918
 L 117.93,-67.6681 L 117.281,-67.2843 L 116.609,-66.9421 L 115.917,-66.6427 L 115.208,-66.3873 L 114.484,-66.177
 L 113.749,-66.0125 L 113.004,-65.8946 L 112.253,-65.8237 L 111.5,-65.8 z
M 28.6465,-65.7737 L 27.896,-65.8446 L 27.1514,-65.9625 L 26.4157,-66.127 L 25.6918,-66.3373 L 24.9825,-66.5927
 L 24.2906,-66.8921 L 23.6189,-67.2343 L 22.9701,-67.6181 L 22.3466,-68.0418 L 21.7509,-68.5038 L 21.1854,-69.0024
 L 20.6524,-69.5354 L 20.1538,-70.1009 L 19.6918,-70.6966 L 19.2681,-71.3201 L 18.8843,-71.9689 L 18.5421,-72.6406
 L 18.2427,-73.3325 L 17.9873,-74.0418 L 17.777,-74.7657 L 17.6125,-75.5014 L 17.4946,-76.246 L 17.4237,-76.9965
 L 17.4,-77.75 L 17.4237,-78.5035 L 17.4946,-79.254 L 17.6125,-79.9986 L 17.777,-80.7343 L 17.9873,-81.4582
 L 18.2427,-82.1675 L 18.5421,-82.8593 L 18.8843,-83.531 L 19.2681,-84.1799 L 19.6918,-84.8034 L 20.1538,-85.3991
 L 20.6524,-85.9646 L 21.1854,-86.4976 L 21.7509,-86.9962 L 22.3466,-87.4582 L 22.9701,-87.8819 L 23.6189,-88.2657
 L 24.2906,-88.6079 L 24.9825,-88.9073 L 25.6918,-89.1627 L 26.4157,-89.373 L 27.1514,-89.5374 L 27.896,-89.6554
 L 28.6465,-89.7263 L 29.4,-89.75 L 30.1535,-89.7263 L 30.904,-89.6554 L 31.6486,-89.5374 L 32.3843,-89.373
 L 33.1082,-89.1627 L 33.8175,-88.9073 L 34.5093,-88.6079 L 35.181,-88.2657 L 35.8299,-87.8819 L 36.4534,-87.4582
 L 37.0491,-86.9962 L 37.6146,-86.4976 L 38.1476,-85.9646 L 38.6461,-85.3991 L 39.1082,-84.8034 L 39.5319,-84.1799
 L 39.9157,-83.531 L 40.2579,-82.8593 L 40.5573,-82.1675 L 40.8127,-81.4582 L 41.023,-80.7343 L 41.1874,-79.9986
 L 41.3054,-79.254 L 41.3763,-78.5035 L 41.4,-77.75 L 41.3763,-76.9965 L 41.3054,-76.246 L 41.1874,-75.5014
 L 41.023,-74.7657 L 40.8127,-74.0418 L 40.5573,-73.3325 L 40.2579,-72.6406 L 39.9157,-71.9689 L 39.5319,-71.3201
 L 39.1082,-70.6966 L 38.6461,-70.1009 L 38.1476,-69.5354 L 37.6146,-69.0024 L 37.0491,-68.5038 L 36.4534,-68.0418
 L 35.8299,-67.6181 L 35.181,-67.2343 L 34.5093,-66.8921 L 33.8175,-66.5927 L 33.1082,-66.3373 L 32.3843,-66.127
 L 31.6486,-65.9625 L 30.904,-65.8446 L 30.1535,-65.7737 L 29.4,-65.75 z
M 83.6465,-57.2737 L 82.896,-57.3446 L 82.1514,-57.4625 L 81.4157,-57.627 L 80.6918,-57.8373 L 79.9825,-58.0927
 L 79.2906,-58.3921 L 78.6189,-58.7343 L 77.9701,-59.1181 L 77.3466,-59.5418 L 76.7509,-60.0038 L 76.1854,-60.5024
 L 75.6524,-61.0354 L 75.1538,-61.6009 L 74.6918,-62.1966 L 74.2681,-62.8201 L 73.8843,-63.4689 L 73.5421,-64.1406
 L 73.2427,-64.8325 L 72.9873,-65.5418 L 72.777,-66.2657 L 72.6125,-67.0014 L 72.4946,-67.746 L 72.4237,-68.4965
 L 72.4,-69.25 L 72.4237,-70.0035 L 72.4946,-70.754 L 72.6125,-71.4986 L 72.777,-72.2343 L 72.9873,-72.9582
 L 73.2427,-73.6675 L 73.5421,-74.3593 L 73.8843,-75.031 L 74.2681,-75.6799 L 74.6918,-76.3034 L 75.1538,-76.8991
 L 75.6524,-77.4646 L 76.1854,-77.9976 L 76.7509,-78.4962 L 77.3466,-78.9582 L 77.9701,-79.3819 L 78.6189,-79.7657
 L 79.2906,-80.1079 L 79.9825,-80.4073 L 80.6918,-80.6627 L 81.4157,-80.873 L 82.1514,-81.0374 L 82.896,-81.1554
 L 83.6465,-81.2263 L 84.4,-81.25 L 85.1535,-81.2263 L 85.904,-81.1554 L 86.6486,-81.0374 L 87.3843,-80.873
 L 88.1082,-80.6627 L 88.8175,-80.4073 L 89.5093,-80.1079 L 90.181,-79.7657 L 90.8299,-79.3819 L 91.4534,-78.9582
 L 92.0491,-78.4962 L 92.6146,-77.9976 L 93.1476,-77.4646 L 93.6461,-76.8991 L 94.1082,-76.3034 L 94.5319,-75.6799
 L 94.9157,-75.031 L 95.2579,-74.3593 L 95.5573,-73.6675 L 95.8127,-72.9582 L 96.023,-72.2343 L 96.1874,-71.4986
 L 96.3054,-70.754 L 96.3763,-70.0035 L 96.4,-69.25 L 96.3763,-68.4965 L 96.3054,-67.746 L 96.1874,-67.0014
 L 96.023,-66.2657 L 95.8127,-65.5418 L 95.5573,-64.8325 L 95.2579,-64.1406 L 94.9157,-63.4689 L 94.5319,-62.8201
 L 94.1082,-62.1966 L 93.6461,-61.6009 L 93.1476,-61.0354 L 92.6146,-60.5024 L 92.0491,-60.0038 L 91.4534,-59.5418
 L 90.8299,-59.1181 L 90.181,-58.7343 L 89.5093,-58.3921 L 88.8175,-58.0927 L 88.1082,-57.8373 L 87.3843,-57.627
 L 86.6486,-57.4625 L 85.904,-57.3446 L 85.1535,-57.2737 L 84.4,-57.25 z
M 164.247,-43.2237 L 163.496,-43.2946 L 162.751,-43.4126 L 162.016,-43.577 L 161.292,-43.7873 L 160.583,-44.0427
 L 159.891,-44.3421 L 159.219,-44.6843 L 158.57,-45.0681 L 157.947,-45.4918 L 157.351,-45.9538 L 156.785,-46.4524
 L 156.252,-46.9854 L 155.754,-47.5509 L 155.292,-48.1466 L 154.868,-48.7701 L 154.484,-49.4189 L 154.142,-50.0906
 L 153.843,-50.7825 L 153.587,-51.4918 L 153.377,-52.2157 L 153.213,-52.9514 L 153.095,-53.696 L 153.024,-54.4465
 L 153,-55.2 L 153.024,-55.9535 L 153.095,-56.704 L 153.213,-57.4486 L 153.377,-58.1843 L 153.587,-58.9082
 L 153.843,-59.6175 L 154.142,-60.3093 L 154.484,-60.981 L 154.868,-61.6299 L 155.292,-62.2534 L 155.754,-62.8491
 L 156.252,-63.4146 L 156.785,-63.9476 L 157.351,-64.4462 L 157.947,-64.9082 L 158.57,-65.3319 L 159.219,-65.7157
 L 159.891,-66.0579 L 160.583,-66.3573 L 161.292,-66.6127 L 162.016,-66.823 L 162.751,-66.9874 L 163.496,-67.1054
 L 164.247,-67.1763 L 165,-67.2 L 165.753,-67.1763 L 166.504,-67.1054 L 167.249,-66.9874 L 167.984,-66.823
 L 168.708,-66.6127 L 169.417,-66.3573 L 170.109,-66.0579 L 170.781,-65.7157 L 171.43,-65.3319 L 172.053,-64.9082
 L 172.649,-64.4462 L 173.215,-63.9476 L 173.748,-63.4146 L 174.246,-62.8491 L 174.708,-62.2534 L 175.132,-61.6299
 L 175.516,-60.981 L 175.858,-60.3093 L 176.157,-59.6175 L 176.413,-58.9082 L 176.623,-58.1843 L 176.787,-57.4486
 L 176.905,-56.704 L 176.976,-55.9535 L 177,-55.2 L 176.976,-54.4465 L 176.905,-53.696 L 176.787,-52.9514
 L 176.623,-52.2157 L 176.413,-51.4918 L 176.157,-50.7825 L 175.858,-50.0906 L 175.516,-49.4189 L 175.132,-48.7701
 L 174.708,-48.1466 L 174.246,-47.5509 L 173.748,-46.9854 L 173.215,-46.4524 L 172.649,-45.9538 L 172.053,-45.4918
 L 171.43,-45.0681 L 170.781,-44.6843 L 170.109,-44.3421 L 169.417,-44.0427 L 168.708,-43.7873 L 167.984,-43.577
 L 167.249,-43.4126 L 166.504,-43.2946 L 165.753,-43.2237 L 165,-43.2 z
M 193.247,-43.2237 L 192.496,-43.2946 L 191.751,-43.4126 L 191.016,-43.577 L 190.292,-43.7873 L 189.583,-44.0427
 L 188.891,-44.3421 L 188.219,-44.6843 L 187.57,-45.0681 L 186.947,-45.4918 L 186.351,-45.9538 L 185.785,-46.4524
 L 185.252,-46.9854 L 184.754,-47.5509 L 184.292,-48.1466 L 183.868,-48.7701 L 183.484,-49.4189 L 183.142,-50.0906
 L 182.843,-50.7825 L 182.587,-51.4918 L 182.377,-52.2157 L 182.213,-52.9514 L 182.095,-53.696 L 182.024,-54.4465
 L 182,-55.2 L 182.024,-55.9535 L 182.095,-56.704 L 182.213,-57.4486 L 182.377,-58.1843 L 182.587,-58.9082
 L 182.843,-59.6175 L 183.142,-60.3093 L 183.484,-60.981 L 183.868,-61.6299 L 184.292,-62.2534 L 184.754,-62.8491
 L 185.252,-63.4146 L 185.785,-63.9476 L 186.351,-64.4462 L 186.947,-64.9082 L 187.57,-65.3319 L 188.219,-65.7157
 L 188.891,-66.0579 L 189.583,-66.3573 L 190.292,-66.6127 L 191.016,-66.823 L 191.751,-66.9874 L 192.496,-67.1054
 L 193.247,-67.1763 L 194,-67.2 L 194.753,-67.1763 L 195.504,-67.1054 L 196.249,-66.9874 L 196.984,-66.823
 L 197.708,-66.6127 L 198.417,-66.3573 L 199.109,-66.0579 L 199.781,-65.7157 L 200.43,-65.3319 L 201.053,-64.9082
 L 201.649,-64.4462 L 202.215,-63.9476 L 202.748,-63.4146 L 203.246,-62.8491 L 203.708,-62.2534 L 204.132,-61.6299
 L 204.516,-60.981 L 204.858,-60.3093 L 205.157,-59.6175 L 205.413,-58.9082 L 205.623,-58.1843 L 205.787,-57.4486
 L 205.905,-56.704 L 205.976,-55.9535 L 206,-55.2 L 205.976,-54.4465 L 205.905,-53.696 L 205.787,-52.9514
 L 205.623,-52.2157 L 205.413,-51.4918 L 205.157,-50.7825 L 204.858,-50.0906 L 204.516,-49.4189 L 204.132,-48.7701
 L 203.708,-48.1466 L 203.246,-47.5509 L 202.748,-46.9854 L 202.215,-46.4524 L 201.649,-45.9538 L 201.053,-45.4918
 L 200.43,-45.0681 L 199.781,-44.6843 L 199.109,-44.3421 L 198.417,-44.0427 L 197.708,-43.7873 L 196.984,-43.577
 L 196.249,-43.4126 L 195.504,-43.2946 L 194.753,-43.2237 L 194,-43.2 z
M 135.646,-42.9737 L 134.896,-43.0446 L 134.151,-43.1626 L 133.416,-43.327 L 132.692,-43.5373 L 131.982,-43.7927
 L 131.291,-44.0921 L 130.619,-44.4343 L 129.97,-44.8181 L 129.347,-45.2418 L 128.751,-45.7038 L 128.185,-46.2024
 L 127.652,-46.7354 L 127.154,-47.3009 L 126.692,-47.8966 L 126.268,-48.5201 L 125.884,-49.1689 L 125.542,-49.8406
 L 125.243,-50.5325 L 124.987,-51.2418 L 124.777,-51.9657 L 124.613,-52.7014 L 124.495,-53.446 L 124.424,-54.1965
 L 124.4,-54.95 L 124.424,-55.7035 L 124.495,-56.454 L 124.613,-57.1986 L 124.777,-57.9343 L 124.987,-58.6582
 L 125.243,-59.3675 L 125.542,-60.0593 L 125.884,-60.731 L 126.268,-61.3799 L 126.692,-62.0034 L 127.154,-62.5991
 L 127.652,-63.1646 L 128.185,-63.6976 L 128.751,-64.1962 L 129.347,-64.6582 L 129.97,-65.0819 L 130.619,-65.4657
 L 131.291,-65.8079 L 131.982,-66.1073 L 132.692,-66.3627 L 133.416,-66.573 L 134.151,-66.7374 L 134.896,-66.8554
 L 135.646,-66.9263 L 136.4,-66.95 L 137.153,-66.9263 L 137.904,-66.8554 L 138.649,-66.7374 L 139.384,-66.573
 L 140.108,-66.3627 L 140.817,-66.1073 L 141.509,-65.8079 L 142.181,-65.4657 L 142.83,-65.0819 L 143.453,-64.6582
 L 144.049,-64.1962 L 144.615,-63.6976 L 145.148,-63.1646 L 145.646,-62.5991 L 146.108,-62.0034 L 146.532,-61.3799
 L 146.916,-60.731 L 147.258,-60.0593 L 147.557,-59.3675 L 147.813,-58.6582 L 148.023,-57.9343 L 148.187,-57.1986
 L 148.305,-56.454 L 148.376,-55.7035 L 148.4,-54.95 L 148.376,-54.1965 L 148.305,-53.446 L 148.187,-52.7014
 L 148.023,-51.9657 L 147.813,-51.2418 L 147.557,-50.5325 L 147.258,-49.8406 L 146.916,-49.1689 L 146.532,-48.5201
 L 146.108,-47.8966 L 145.646,-47.3009 L 145.148,-46.7354 L 144.615,-46.2024 L 144.049,-45.7038 L 143.453,-45.2418
 L 142.83,-44.8181 L 142.181,-44.4343 L 141.509,-44.0921 L 140.817,-43.7927 L 140.108,-43.5373 L 139.384,-43.327
 L 138.649,-43.1626 L 137.904,-43.0446 L 137.153,-42.9737 L 136.4,-42.95 z
M 14.2465,-39.7237 L 13.496,-39.7946 L 12.7514,-39.9126 L 12.0157,-40.077 L 11.2918,-40.2873 L 10.5825,-40.5427
 L 9.89064,-40.8421 L 9.21895,-41.1843 L 8.57007,-41.5681 L 7.94656,-41.9918 L 7.35091,-42.4538 L 6.78543,-42.9524
 L 6.25237,-43.4854 L 5.75383,-44.0509 L 5.29179,-44.6466 L 4.86806,-45.2701 L 4.48431,-45.9189 L 4.14207,-46.5906
 L 3.84268,-47.2825 L 3.58731,-47.9918 L 3.377,-48.7157 L 3.21254,-49.4514 L 3.09462,-50.196 L 3.02367,-50.9465
 L 3,-51.7 L 3.02367,-52.4535 L 3.09462,-53.204 L 3.21254,-53.9486 L 3.377,-54.6843 L 3.58731,-55.4082
 L 3.84268,-56.1175 L 4.14207,-56.8093 L 4.48431,-57.481 L 4.86806,-58.1299 L 5.29179,-58.7534 L 5.75383,-59.3491
 L 6.25237,-59.9146 L 6.78543,-60.4476 L 7.35091,-60.9462 L 7.94656,-61.4082 L 8.57007,-61.8319 L 9.21895,-62.2157
 L 9.89064,-62.5579 L 10.5825,-62.8573 L 11.2918,-63.1127 L 12.0157,-63.323 L 12.7514,-63.4874 L 13.496,-63.6054
 L 14.2465,-63.6763 L 15,-63.7 L 15.7535,-63.6763 L 16.504,-63.6054 L 17.2486,-63.4874 L 17.9843,-63.323
 L 18.7082,-63.1127 L 19.4175,-62.8573 L 20.1093,-62.5579 L 20.781,-62.2157 L 21.4299,-61.8319 L 22.0534,-61.4082
 L 22.6491,-60.9462 L 23.2146,-60.4476 L 23.7476,-59.9146 L 24.2462,-59.3491 L 24.7082,-58.7534 L 25.1319,-58.1299
 L 25.5157,-57.481 L 25.8579,-56.8093 L 26.1573,-56.1175 L 26.4127,-55.4082 L 26.623,-54.6843 L 26.7874,-53.9486
 L 26.9054,-53.204 L 26.9763,-52.4535 L 27,-51.7 L 26.9763,-50.9465 L 26.9054,-50.196 L 26.7874,-49.4514
 L 26.623,-48.7157 L 26.4127,-47.9918 L 26.1573,-47.2825 L 25.8579,-46.5906 L 25.5157,-45.9189 L 25.1319,-45.2701
 L 24.7082,-44.6466 L 24.2462,-44.0509 L 23.7476,-43.4854 L 23.2146,-42.9524 L 22.6491,-42.4538 L 22.0534,-41.9918
 L 21.4299,-41.5681 L 20.781,-41.1843 L 20.1093,-40.8421 L 19.4175,-40.5427 L 18.7082,-40.2873 L 17.9843,-40.077
 L 17.2486,-39.9126 L 16.504,-39.7946 L 15.7535,-39.7237 L 15,-39.7 z
M 106.747,-37.7087 L 105.996,-37.7796 L 105.251,-37.8976 L 104.516,-38.062 L 103.792,-38.2723 L 103.083,-38.5277
 L 102.391,-38.8271 L 101.719,-39.1693 L 101.07,-39.5531 L 100.447,-39.9768 L 99.8509,-40.4388 L 99.2854,-40.9374
 L 98.7524,-41.4704 L 98.2538,-42.0359 L 97.7918,-42.6316 L 97.3681,-43.2551 L 96.9843,-43.9039 L 96.6421,-44.5756
 L 96.3427,-45.2675 L 96.0873,-45.9768 L 95.877,-46.7007 L 95.7125,-47.4364 L 95.5946,-48.181 L 95.5237,-48.9315
 L 95.5,-49.685 L 95.5237,-50.4385 L 95.5946,-51.189 L 95.7125,-51.9336 L 95.877,-52.6693 L 96.0873,-53.3932
 L 96.3427,-54.1025 L 96.6421,-54.7943 L 96.9843,-55.466 L 97.3681,-56.1149 L 97.7918,-56.7384 L 98.2538,-57.3341
 L 98.7524,-57.8996 L 99.2854,-58.4326 L 99.8509,-58.9312 L 100.447,-59.3932 L 101.07,-59.8169 L 101.719,-60.2007
 L 102.391,-60.5429 L 103.083,-60.8423 L 103.792,-61.0977 L 104.516,-61.308 L 105.251,-61.4724 L 105.996,-61.5904
 L 106.747,-61.6613 L 107.5,-61.685 L 108.253,-61.6613 L 109.004,-61.5904 L 109.749,-61.4724 L 110.484,-61.308
 L 111.208,-61.0977 L 111.917,-60.8423 L 112.609,-60.5429 L 113.281,-60.2007 L 113.93,-59.8169 L 114.553,-59.3932
 L 115.149,-58.9312 L 115.715,-58.4326 L 116.248,-57.8996 L 116.746,-57.3341 L 117.208,-56.7384 L 117.632,-56.1149
 L 118.016,-55.466 L 118.358,-54.7943 L 118.657,-54.1025 L 118.913,-53.3932 L 119.123,-52.6693 L 119.287,-51.9336
 L 119.405,-51.189 L 119.476,-50.4385 L 119.5,-49.685 L 119.476,-48.9315 L 119.405,-48.181 L 119.287,-47.4364
 L 119.123,-46.7007 L 118.913,-45.9768 L 118.657,-45.2675 L 118.358,-44.5756 L 118.016,-43.9039 L 117.632,-43.2551
 L 117.208,-42.6316 L 116.746,-42.0359 L 116.248,-41.4704 L 115.715,-40.9374 L 115.149,-40.4388 L 114.553,-39.9768
 L 113.93,-39.5531 L 113.281,-39.1693 L 112.609,-38.8271 L 111.917,-38.5277 L 111.208,-38.2723 L 110.484,-38.062
 L 109.749,-37.8976 L 109.004,-37.7796 L 108.253,-37.7087 L 107.5,-37.685 z
M 125.747,-15.8237 L 124.996,-15.8946 L 124.251,-16.0125 L 123.516,-16.177 L 122.792,-16.3873 L 122.083,-16.6427
 L 121.391,-16.9421 L 120.719,-17.2843 L 120.07,-17.6681 L 119.447,-18.0918 L 118.851,-18.5538 L 118.285,-19.0524
 L 117.752,-19.5854 L 117.254,-20.1509 L 116.792,-20.7466 L 116.368,-21.3701 L 115.984,-22.019 L 115.642,-22.6906
 L 115.343,-23.3825 L 115.087,-24.0918 L 114.877,-24.8157 L 114.713,-25.5514 L 114.595,-26.296 L 114.524,-27.0465
 L 114.5,-27.8 L 114.524,-28.5535 L 114.595,-29.304 L 114.713,-30.0486 L 114.877,-30.7843 L 115.087,-31.5082
 L 115.343,-32.2175 L 115.642,-32.9093 L 115.984,-33.581 L 116.368,-34.2299 L 116.792,-34.8534 L 117.254,-35.4491
 L 117.752,-36.0146 L 118.285,-36.5476 L 118.851,-37.0462 L 119.447,-37.5082 L 120.07,-37.9319 L 120.719,-38.3157
 L 121.391,-38.6579 L 122.083,-38.9573 L 122.792,-39.2127 L 123.516,-39.423 L 124.251,-39.5874 L 124.996,-39.7054
 L 125.747,-39.7763 L 126.5,-39.8 L 127.253,-39.7763 L 128.004,-39.7054 L 128.749,-39.5874 L 129.484,-39.423
 L 130.208,-39.2127 L 130.917,-38.9573 L 131.609,-38.6579 L 132.281,-38.3157 L 132.93,-37.9319 L 133.553,-37.5082
 L 134.149,-37.0462 L 134.715,-36.5476 L 135.248,-36.0146 L 135.746,-35.4491 L 136.208,-34.8534 L 136.632,-34.2299
 L 137.016,-33.581 L 137.358,-32.9093 L 137.657,-32.2175 L 137.913,-31.5082 L 138.123,-30.7843 L 138.287,-30.0486
 L 138.405,-29.304 L 138.476,-28.5535 L 138.5,-27.8 L 138.476,-27.0465 L 138.405,-26.296 L 138.287,-25.5514
 L 138.123,-24.8157 L 137.913,-24.0918 L 137.657,-23.3825 L 137.358,-22.6906 L 137.016,-22.019 L 136.632,-21.3701
 L 136.208,-20.7466 L 135.746,-20.1509 L 135.248,-19.5854 L 134.715,-19.0524 L 134.149,-18.5538 L 133.553,-18.0918
 L 132.93,-17.6681 L 132.281,-17.2843 L 131.609,-16.9421 L 130.917,-16.6427 L 130.208,-16.3873 L 129.484,-16.177
 L 128.749,-16.0125 L 128.004,-15.8946 L 127.253,-15.8237 L 126.5,-15.8 z
M 95.6523,-5.72664 L 94.808,-5.80644 L 93.9704,-5.93912 L 93.1427,-6.12411 L 92.3283,-6.36073 L 91.5303,-6.64801
 L 90.752,-6.98483 L 89.9963,-7.36986 L 89.2663,-7.80156 L 88.5649,-8.27826 L 87.8948,-8.79807 L 87.2586,-9.35892
 L 86.6589,-9.9586 L 86.0981,-10.5948 L 85.5783,-11.2649 L 85.1016,-11.9663 L 84.6698,-12.6963 L 84.2848,-13.452
 L 83.948,-14.2303 L 83.6607,-15.0283 L 83.4241,-15.8427 L 83.2391,-16.6703 L 83.1064,-17.508 L 83.0266,-18.3523
 L 83,-19.2 L 83.0266,-20.0477 L 83.1064,-20.892 L 83.2391,-21.7296 L 83.4241,-22.5573 L 83.6607,-23.3717
 L 83.948,-24.1697 L 84.2848,-24.948 L 84.6698,-25.7037 L 85.1016,-26.4337 L 85.5783,-27.1351 L 86.0981,-27.8052
 L 86.6589,-28.4414 L 87.2586,-29.0411 L 87.8948,-29.6019 L 88.5649,-30.1217 L 89.2663,-30.5984 L 89.9963,-31.0301
 L 90.752,-31.4152 L 91.5303,-31.752 L 92.3283,-32.0393 L 93.1427,-32.2759 L 93.9704,-32.4609 L 94.808,-32.5935
 L 95.6523,-32.6734 L 96.5,-32.7 L 97.3477,-32.6734 L 98.192,-32.5935 L 99.0296,-32.4609 L 99.8573,-32.2759
 L 100.672,-32.0393 L 101.47,-31.752 L 102.248,-31.4152 L 103.004,-31.0301 L 103.734,-30.5984 L 104.435,-30.1217
 L 105.105,-29.6019 L 105.741,-29.0411 L 106.341,-28.4414 L 106.902,-27.8052 L 107.422,-27.1351 L 107.898,-26.4337
 L 108.33,-25.7037 L 108.715,-24.948 L 109.052,-24.1697 L 109.339,-23.3717 L 109.576,-22.5573 L 109.761,-21.7296
 L 109.894,-20.892 L 109.973,-20.0477 L 110,-19.2 L 109.973,-18.3523 L 109.894,-17.508 L 109.761,-16.6703
 L 109.576,-15.8427 L 109.339,-15.0283 L 109.052,-14.2303 L 108.715,-13.452 L 108.33,-12.6963 L 107.898,-11.9663
 L 107.422,-11.2649 L 106.902,-10.5948 L 106.341,-9.9586 L 105.741,-9.35892 L 105.105,-8.79807 L 104.435,-8.27826
 L 103.734,-7.80156 L 103.004,-7.36986 L 102.248,-6.98483 L 101.47,-6.64801 L 100.672,-6.36073 L 99.8573,-6.12411
 L 99.0296,-5.93912 L 98.192,-5.80644 L 97.3477,-5.72664 L 96.5,-5.7 z
M 9.42967,-6.3822 L 9.35962,-6.38882 L 9.29013,-6.39983 L 9.22147,-6.41518 L 9.1539,-6.43481 L 9.08769,-6.45865
 L 9.02312,-6.48659 L 8.96043,-6.51852 L 8.89987,-6.55435 L 8.84167,-6.59389 L 8.78607,-6.63702 L 8.73331,-6.68355
 L 8.68355,-6.73331 L 8.63702,-6.78607 L 8.59389,-6.84167 L 8.55435,-6.89987 L 8.51852,-6.96043 L 8.48659,-7.02312
 L 8.45865,-7.08769 L 8.43481,-7.1539 L 8.41518,-7.22147 L 8.39983,-7.29013 L 8.38882,-7.35962 L 8.3822,-7.42967
 L 8.37999,-7.5 L 8.3822,-7.57031 L 8.38882,-7.64037 L 8.39983,-7.70985 L 8.41518,-7.77852 L 8.43481,-7.84608
 L 8.45865,-7.91229 L 8.48659,-7.97687 L 8.51852,-8.03955 L 8.55435,-8.10011 L 8.59389,-8.15831 L 8.63702,-8.21391
 L 8.68355,-8.26668 L 8.73331,-8.31644 L 8.78607,-8.36296 L 8.84167,-8.4061 L 8.89987,-8.44563 L 8.96043,-8.48146
 L 9.02312,-8.5134 L 9.08769,-8.54134 L 9.1539,-8.56517 L 9.22147,-8.58481 L 9.29013,-8.60016 L 9.35962,-8.61116
 L 9.42967,-8.61778 L 9.5,-8.62 L 9.57031,-8.61778 L 9.64037,-8.61116 L 9.70985,-8.60016 L 9.77852,-8.58481
 L 9.84608,-8.56517 L 9.91229,-8.54134 L 9.97687,-8.5134 L 10.0396,-8.48146 L 10.1001,-8.44563 L 10.1583,-8.4061
 L 10.2139,-8.36296 L 10.2667,-8.31644 L 10.3164,-8.26668 L 10.363,-8.21391 L 10.4061,-8.15831 L 10.4456,-8.10011
 L 10.4815,-8.03955 L 10.5134,-7.97687 L 10.5413,-7.91229 L 10.5652,-7.84608 L 10.5848,-7.77852 L 10.6002,-7.70985
 L 10.6112,-7.64037 L 10.6178,-7.57031 L 10.62,-7.5 L 10.6178,-7.42967 L 10.6112,-7.35962 L 10.6002,-7.29013
 L 10.5848,-7.22147 L 10.5652,-7.1539 L 10.5413,-7.08769 L 10.5134,-7.02312 L 10.4815,-6.96043 L 10.4456,-6.89987
 L 10.4061,-6.84167 L 10.363,-6.78607 L 10.3164,-6.73331 L 10.2667,-6.68355 L 10.2139,-6.63702 L 10.1583,-6.59389
 L 10.1001,-6.55435 L 10.0396,-6.51852 L 9.97687,-6.48659 L 9.91229,-6.45865 L 9.84608,-6.43481 L 9.77852,-6.41518
 L 9.70985,-6.39983 L 9.64037,-6.38882 L 9.57031,-6.3822 L 9.5,-6.37999 z
M 114.43,-6.3822 L 114.36,-6.38882 L 114.29,-6.39983 L 114.221,-6.41518 L 114.154,-6.43481 L 114.088,-6.45865
 L 114.023,-6.48659 L 113.96,-6.51852 L 113.9,-6.55435 L 113.842,-6.59389 L 113.786,-6.63702 L 113.733,-6.68355
 L 113.684,-6.73331 L 113.637,-6.78607 L 113.594,-6.84167 L 113.554,-6.89987 L 113.519,-6.96043 L 113.487,-7.02312
 L 113.459,-7.08769 L 113.435,-7.1539 L 113.415,-7.22147 L 113.4,-7.29013 L 113.389,-7.35962 L 113.382,-7.42967
 L 113.38,-7.5 L 113.382,-7.57031 L 113.389,-7.64037 L 113.4,-7.70985 L 113.415,-7.77852 L 113.435,-7.84608
 L 113.459,-7.91229 L 113.487,-7.97687 L 113.519,-8.03955 L 113.554,-8.10011 L 113.594,-8.15831 L 113.637,-8.21391
 L 113.684,-8.26668 L 113.733,-8.31644 L 113.786,-8.36296 L 113.842,-8.4061 L 113.9,-8.44563 L 113.96,-8.48146
 L 114.023,-8.5134 L 114.088,-8.54134 L 114.154,-8.56517 L 114.221,-8.58481 L 114.29,-8.60016 L 114.36,-8.61116
 L 114.43,-8.61778 L 114.5,-8.62 L 114.57,-8.61778 L 114.64,-8.61116 L 114.71,-8.60016 L 114.779,-8.58481
 L 114.846,-8.56517 L 114.912,-8.54134 L 114.977,-8.5134 L 115.04,-8.48146 L 115.1,-8.44563 L 115.158,-8.4061
 L 115.214,-8.36296 L 115.267,-8.31644 L 115.316,-8.26668 L 115.363,-8.21391 L 115.406,-8.15831 L 115.446,-8.10011
 L 115.481,-8.03955 L 115.513,-7.97687 L 115.541,-7.91229 L 115.565,-7.84608 L 115.585,-7.77852 L 115.6,-7.70985
 L 115.611,-7.64037 L 115.618,-7.57031 L 115.62,-7.5 L 115.618,-7.42967 L 115.611,-7.35962 L 115.6,-7.29013
 L 115.585,-7.22147 L 115.565,-7.1539 L 115.541,-7.08769 L 115.513,-7.02312 L 115.481,-6.96043 L 115.446,-6.89987
 L 115.406,-6.84167 L 115.363,-6.78607 L 115.316,-6.73331 L 115.267,-6.68355 L 115.214,-6.63702 L 115.158,-6.59389
 L 115.1,-6.55435 L 115.04,-6.51852 L 114.977,-6.48659 L 114.912,-6.45865 L 114.846,-6.43481 L 114.779,-6.41518
 L 114.71,-6.39983 L 114.64,-6.38882 L 114.57,-6.3822 L 114.5,-6.37999 z
M 194.43,-6.3822 L 194.36,-6.38882 L 194.29,-6.39983 L 194.221,-6.41518 L 194.154,-6.43481 L 194.088,-6.45865
 L 194.023,-6.48659 L 193.96,-6.51852 L 193.9,-6.55435 L 193.842,-6.59389 L 193.786,-6.63702 L 193.733,-6.68355
 L 193.684,-6.73331 L 193.637,-6.78607 L 193.594,-6.84167 L 193.554,-6.89987 L 193.519,-6.96043 L 193.487,-7.02312
 L 193.459,-7.08769 L 193.435,-7.1539 L 193.415,-7.22147 L 193.4,-7.29013 L 193.389,-7.35962 L 193.382,-7.42967
 L 193.38,-7.5 L 193.382,-7.57031 L 193.389,-7.64037 L 193.4,-7.70985 L 193.415,-7.77852 L 193.435,-7.84608
 L 193.459,-7.91229 L 193.487,-7.97687 L 193.519,-8.03955 L 193.554,-8.10011 L 193.594,-8.15831 L 193.637,-8.21391
 L 193.684,-8.26668 L 193.733,-8.31644 L 193.786,-8.36296 L 193.842,-8.4061 L 193.9,-8.44563 L 193.96,-8.48146
 L 194.023,-8.5134 L 194.088,-8.54134 L 194.154,-8.56517 L 194.221,-8.58481 L 194.29,-8.60016 L 194.36,-8.61116
 L 194.43,-8.61778 L 194.5,-8.62 L 194.57,-8.61778 L 194.64,-8.61116 L 194.71,-8.60016 L 194.779,-8.58481
 L 194.846,-8.56517 L 194.912,-8.54134 L 194.977,-8.5134 L 195.04,-8.48146 L 195.1,-8.44563 L 195.158,-8.4061
 L 195.214,-8.36296 L 195.267,-8.31644 L 195.316,-8.26668 L 195.363,-8.21391 L 195.406,-8.15831 L 195.446,-8.10011
 L 195.481,-8.03955 L 195.513,-7.97687 L 195.541,-7.91229 L 195.565,-7.84608 L 195.585,-7.77852 L 195.6,-7.70985
 L 195.611,-7.64037 L 195.618,-7.57031 L 195.62,-7.5 L 195.618,-7.42967 L 195.611,-7.35962 L 195.6,-7.29013
 L 195.585,-7.22147 L 195.565,-7.1539 L 195.541,-7.08769 L 195.513,-7.02312 L 195.481,-6.96043 L 195.446,-6.89987
 L 195.406,-6.84167 L 195.363,-6.78607 L 195.316,-6.73331 L 195.267,-6.68355 L 195.214,-6.63702 L 195.158,-6.59389
 L 195.1,-6.55435 L 195.04,-6.51852 L 194.977,-6.48659 L 194.912,-6.45865 L 194.846,-6.43481 L 194.779,-6.41518
 L 194.71,-6.39983 L 194.64,-6.38882 L 194.57,-6.3822 L 194.5,-6.37999 z
" stroke="black" fill="lightgray" stroke-width="0.5"/>
</svg>
