  0
SECTION
  2
BLOCKS
  0
ENDSEC
  0
SECTION
  2
ENTITIES
  0
LINE
  8
0
 10
199.128
 20
0.0197296
 11
199.753
 21
0.0788574
  0
LINE
  8
0
 10
199.753
 20
0.0788574
 11
200.374
 21
0.177124
  0
LINE
  8
0
 10
200.374
 20
0.177124
 11
200.987
 21
0.314163
  0
LINE
  8
0
 10
200.987
 20
0.314163
 11
201.59
 21
0.489441
  0
LINE
  8
0
 10
201.59
 20
0.489441
 11
202.181
 21
0.70224
  0
LINE
  8
0
 10
202.181
 20
0.70224
 11
202.758
 21
0.951736
  0
LINE
  8
0
 10
202.758
 20
0.951736
 11
203.318
 21
1.23694
  0
LINE
  8
0
 10
203.318
 20
1.23694
 11
203.858
 21
1.55672
  0
LINE
  8
0
 10
203.858
 20
1.55672
 11
204.378
 21
1.90984
  0
LINE
  8
0
 10
204.378
 20
1.90984
 11
204.874
 21
2.29486
  0
LINE
  8
0
 10
204.874
 20
2.29486
 11
205.345
 21
2.71031
  0
LINE
  8
0
 10
205.345
 20
2.71031
 11
205.79
 21
3.15453
  0
LINE
  8
0
 10
205.79
 20
3.15453
 11
206.205
 21
3.62576
  0
LINE
  8
0
 10
206.205
 20
3.62576
 11
206.59
 21
4.12215
  0
LINE
  8
0
 10
206.59
 20
4.12215
 11
206.943
 21
4.64174
  0
LINE
  8
0
 10
206.943
 20
4.64174
 11
207.263
 21
5.18246
  0
LINE
  8
0
 10
207.263
 20
5.18246
 11
207.548
 21
5.7422
  0
LINE
  8
0
 10
207.548
 20
5.7422
 11
207.798
 21
6.31876
  0
LINE
  8
0
 10
207.798
 20
6.31876
 11
208.011
 21
6.90984
  0
LINE
  8
0
 10
208.011
 20
6.90984
 11
208.186
 21
7.51311
  0
LINE
  8
0
 10
208.186
 20
7.51311
 11
208.323
 21
8.12619
  0
LINE
  8
0
 10
208.323
 20
8.12619
 11
208.421
 21
8.74667
  0
LINE
  8
0
 10
208.421
 20
8.74667
 11
208.48
 21
9.3721
  0
LINE
  8
0
 10
208.48
 20
9.3721
 11
208.5
 21
10
  0
LINE
  8
0
 10
208.5
 20
10
 11
208.5
 21
115
  0
LINE
  8
0
 10
208.5
 20
115
 11
208.48
 21
115.628
  0
LINE
  8
0
 10
208.48
 20
115.628
 11
208.421
 21
116.253
  0
LINE
  8
0
 10
208.421
 20
116.253
 11
208.323
 21
116.874
  0
LINE
  8
0
 10
208.323
 20
116.874
 11
208.186
 21
117.487
  0
LINE
  8
0
 10
208.186
 20
117.487
 11
208.011
 21
118.09
  0
LINE
  8
0
 10
208.011
 20
118.09
 11
207.798
 21
118.681
  0
LINE
  8
0
 10
207.798
 20
118.681
 11
207.548
 21
119.258
  0
LINE
  8
0
 10
207.548
 20
119.258
 11
207.263
 21
119.818
  0
LINE
  8
0
 10
207.263
 20
119.818
 11
206.943
 21
120.358
  0
LINE
  8
0
 10
206.943
 20
120.358
 11
206.59
 21
120.878
  0
LINE
  8
0
 10
206.59
 20
120.878
 11
206.205
 21
121.374
  0
LINE
  8
0
 10
206.205
 20
121.374
 11
205.79
 21
121.845
  0
LINE
  8
0
 10
205.79
 20
121.845
 11
205.345
 21
122.29
  0
LINE
  8
0
 10
205.345
 20
122.29
 11
204.874
 21
122.705
  0
LINE
  8
0
 10
204.874
 20
122.705
 11
204.378
 21
123.09
  0
LINE
  8
0
 10
204.378
 20
123.09
 11
203.858
 21
123.443
  0
LINE
  8
0
 10
203.858
 20
123.443
 11
203.318
 21
123.763
  0
LINE
  8
0
 10
203.318
 20
123.763
 11
202.758
 21
124.048
  0
LINE
  8
0
 10
202.758
 20
124.048
 11
202.181
 21
124.298
  0
LINE
  8
0
 10
202.181
 20
124.298
 11
201.59
 21
124.511
  0
LINE
  8
0
 10
201.59
 20
124.511
 11
200.987
 21
124.686
  0
LINE
  8
0
 10
200.987
 20
124.686
 11
200.374
 21
124.823
  0
LINE
  8
0
 10
200.374
 20
124.823
 11
199.753
 21
124.921
  0
LINE
  8
0
 10
199.753
 20
124.921
 11
199.128
 21
124.98
  0
LINE
  8
0
 10
199.128
 20
124.98
 11
198.5
 21
125
  0
LINE
  8
0
 10
198.5
 20
125
 11
10
 21
125
  0
LINE
  8
0
 10
10
 20
125
 11
9.3721
 21
124.98
  0
LINE
  8
0
 10
9.3721
 20
124.98
 11
8.74667
 21
124.921
  0
LINE
  8
0
 10
8.74667
 20
124.921
 11
8.12619
 21
124.823
  0
LINE
  8
0
 10
8.12619
 20
124.823
 11
7.51311
 21
124.686
  0
LINE
  8
0
 10
7.51311
 20
124.686
 11
6.90984
 21
124.511
  0
LINE
  8
0
 10
6.90984
 20
124.511
 11
6.31876
 21
124.298
  0
LINE
  8
0
 10
6.31876
 20
124.298
 11
5.7422
 21
124.048
  0
LINE
  8
0
 10
5.7422
 20
124.048
 11
5.18246
 21
123.763
  0
LINE
  8
0
 10
5.18246
 20
123.763
 11
4.64174
 21
123.443
  0
LINE
  8
0
 10
4.64174
 20
123.443
 11
4.12215
 21
123.09
  0
LINE
  8
0
 10
4.12215
 20
123.09
 11
3.62576
 21
122.705
  0
LINE
  8
0
 10
3.62576
 20
122.705
 11
3.15453
 21
122.29
  0
LINE
  8
0
 10
3.15453
 20
122.29
 11
2.71031
 21
121.845
  0
LINE
  8
0
 10
2.71031
 20
121.845
 11
2.29486
 21
121.374
  0
LINE
  8
0
 10
2.29486
 20
121.374
 11
1.90984
 21
120.878
  0
LINE
  8
0
 10
1.90984
 20
120.878
 11
1.55672
 21
120.358
  0
LINE
  8
0
 10
1.55672
 20
120.358
 11
1.23694
 21
119.818
  0
LINE
  8
0
 10
1.23694
 20
119.818
 11
0.951736
 21
119.258
  0
LINE
  8
0
 10
0.951736
 20
119.258
 11
0.70224
 21
118.681
  0
LINE
  8
0
 10
0.70224
 20
118.681
 11
0.489441
 21
118.09
  0
LINE
  8
0
 10
0.489441
 20
118.09
 11
0.314163
 21
117.487
  0
LINE
  8
0
 10
0.314163
 20
117.487
 11
0.177124
 21
116.874
  0
LINE
  8
0
 10
0.177124
 20
116.874
 11
0.0788574
 21
116.253
  0
LINE
  8
0
 10
0.0788574
 20
116.253
 11
0.0197296
 21
115.628
  0
LINE
  8
0
 10
0.0197296
 20
115.628
 11
0
 21
115
  0
LINE
  8
0
 10
0
 20
115
 11
0
 21
10
  0
LINE
  8
0
 10
0
 20
10
 11
0.0197296
 21
9.3721
  0
LINE
  8
0
 10
0.0197296
 20
9.3721
 11
0.0788574
 21
8.74667
  0
LINE
  8
0
 10
0.0788574
 20
8.74667
 11
0.177124
 21
8.12619
  0
LINE
  8
0
 10
0.177124
 20
8.12619
 11
0.314163
 21
7.51311
  0
LINE
  8
0
 10
0.314163
 20
7.51311
 11
0.489441
 21
6.90984
  0
LINE
  8
0
 10
0.489441
 20
6.90984
 11
0.70224
 21
6.31876
  0
LINE
  8
0
 10
0.70224
 20
6.31876
 11
0.951736
 21
5.7422
  0
LINE
  8
0
 10
0.951736
 20
5.7422
 11
1.23694
 21
5.18246
  0
LINE
  8
0
 10
1.23694
 20
5.18246
 11
1.55672
 21
4.64174
  0
LINE
  8
0
 10
1.55672
 20
4.64174
 11
1.90984
 21
4.12215
  0
LINE
  8
0
 10
1.90984
 20
4.12215
 11
2.29486
 21
3.62576
  0
LINE
  8
0
 10
2.29486
 20
3.62576
 11
2.71031
 21
3.15453
  0
LINE
  8
0
 10
2.71031
 20
3.15453
 11
3.15453
 21
2.71031
  0
LINE
  8
0
 10
3.15453
 20
2.71031
 11
3.62576
 21
2.29486
  0
LINE
  8
0
 10
3.62576
 20
2.29486
 11
4.12215
 21
1.90984
  0
LINE
  8
0
 10
4.12215
 20
1.90984
 11
4.64174
 21
1.55672
  0
LINE
  8
0
 10
4.64174
 20
1.55672
 11
5.18246
 21
1.23694
  0
LINE
  8
0
 10
5.18246
 20
1.23694
 11
5.7422
 21
0.951736
  0
LINE
  8
0
 10
5.7422
 20
0.951736
 11
6.31876
 21
0.70224
  0
LINE
  8
0
 10
6.31876
 20
0.70224
 11
6.90984
 21
0.489441
  0
LINE
  8
0
 10
6.90984
 20
0.489441
 11
7.51311
 21
0.314163
  0
LINE
  8
0
 10
7.51311
 20
0.314163
 11
8.12619
 21
0.177124
  0
LINE
  8
0
 10
8.12619
 20
0.177124
 11
8.74667
 21
0.0788574
  0
LINE
  8
0
 10
8.74667
 20
0.0788574
 11
9.3721
 21
0.0197296
  0
LINE
  8
0
 10
9.3721
 20
0.0197296
 11
10
 21
0
  0
LINE
  8
0
 10
10
 20
0
 11
198.5
 21
0
  0
LINE
  8
0
 10
198.5
 20
0
 11
199.128
 21
0.0197296
  0
LINE
  8
0
 10
138
 20
94.5
 11
138
 21
123.5
  0
LINE
  8
0
 10
138
 20
123.5
 11
168
 21
123.5
  0
LINE
  8
0
 10
168
 20
123.5
 11
168
 21
94.5
  0
LINE
  8
0
 10
168
 20
94.5
 11
138
 21
94.5
  0
LINE
  8
0
 10
17.65
 20
111.525
 11
17.65
 21
121.025
  0
LINE
  8
0
 10
17.65
 20
121.025
 11
43.65
 21
121.025
  0
LINE
  8
0
 10
43.65
 20
121.025
 11
43.65
 21
111.525
  0
LINE
  8
0
 10
43.65
 20
111.525
 11
17.65
 21
111.525
  0
LINE
  8
0
 10
62.3465
 20
95.5737
 11
61.596
 21
95.6446
  0
LINE
  8
0
 10
61.596
 20
95.6446
 11
60.8514
 21
95.7625
  0
LINE
  8
0
 10
60.8514
 20
95.7625
 11
60.1157
 21
95.927
  0
LINE
  8
0
 10
60.1157
 20
95.927
 11
59.3918
 21
96.1373
  0
LINE
  8
0
 10
59.3918
 20
96.1373
 11
58.6825
 21
96.3927
  0
LINE
  8
0
 10
58.6825
 20
96.3927
 11
57.9906
 21
96.6921
  0
LINE
  8
0
 10
57.9906
 20
96.6921
 11
57.319
 21
97.0343
  0
LINE
  8
0
 10
57.319
 20
97.0343
 11
56.6701
 21
97.4181
  0
LINE
  8
0
 10
56.6701
 20
97.4181
 11
56.0466
 21
97.8418
  0
LINE
  8
0
 10
56.0466
 20
97.8418
 11
55.4509
 21
98.3038
  0
LINE
  8
0
 10
55.4509
 20
98.3038
 11
54.8854
 21
98.8024
  0
LINE
  8
0
 10
54.8854
 20
98.8024
 11
54.3524
 21
99.3354
  0
LINE
  8
0
 10
54.3524
 20
99.3354
 11
53.8538
 21
99.9009
  0
LINE
  8
0
 10
53.8538
 20
99.9009
 11
53.3918
 21
100.497
  0
LINE
  8
0
 10
53.3918
 20
100.497
 11
52.9681
 21
101.12
  0
LINE
  8
0
 10
52.9681
 20
101.12
 11
52.5843
 21
101.769
  0
LINE
  8
0
 10
52.5843
 20
101.769
 11
52.2421
 21
102.441
  0
LINE
  8
0
 10
52.2421
 20
102.441
 11
51.9427
 21
103.132
  0
LINE
  8
0
 10
51.9427
 20
103.132
 11
51.6873
 21
103.842
  0
LINE
  8
0
 10
51.6873
 20
103.842
 11
51.477
 21
104.566
  0
LINE
  8
0
 10
51.477
 20
104.566
 11
51.3125
 21
105.301
  0
LINE
  8
0
 10
51.3125
 20
105.301
 11
51.1946
 21
106.046
  0
LINE
  8
0
 10
51.1946
 20
106.046
 11
51.1237
 21
106.797
  0
LINE
  8
0
 10
51.1237
 20
106.797
 11
51.1
 21
107.55
  0
LINE
  8
0
 10
51.1
 20
107.55
 11
51.1237
 21
108.303
  0
LINE
  8
0
 10
51.1237
 20
108.303
 11
51.1946
 21
109.054
  0
LINE
  8
0
 10
51.1946
 20
109.054
 11
51.3125
 21
109.799
  0
LINE
  8
0
 10
51.3125
 20
109.799
 11
51.477
 21
110.534
  0
LINE
  8
0
 10
51.477
 20
110.534
 11
51.6873
 21
111.258
  0
LINE
  8
0
 10
51.6873
 20
111.258
 11
51.9427
 21
111.967
  0
LINE
  8
0
 10
51.9427
 20
111.967
 11
52.2421
 21
112.659
  0
LINE
  8
0
 10
52.2421
 20
112.659
 11
52.5843
 21
113.331
  0
LINE
  8
0
 10
52.5843
 20
113.331
 11
52.9681
 21
113.98
  0
LINE
  8
0
 10
52.9681
 20
113.98
 11
53.3918
 21
114.603
  0
LINE
  8
0
 10
53.3918
 20
114.603
 11
53.8538
 21
115.199
  0
LINE
  8
0
 10
53.8538
 20
115.199
 11
54.3524
 21
115.765
  0
LINE
  8
0
 10
54.3524
 20
115.765
 11
54.8854
 21
116.298
  0
LINE
  8
0
 10
54.8854
 20
116.298
 11
55.4509
 21
116.796
  0
LINE
  8
0
 10
55.4509
 20
116.796
 11
56.0466
 21
117.258
  0
LINE
  8
0
 10
56.0466
 20
117.258
 11
56.6701
 21
117.682
  0
LINE
  8
0
 10
56.6701
 20
117.682
 11
57.319
 21
118.066
  0
LINE
  8
0
 10
57.319
 20
118.066
 11
57.9906
 21
118.408
  0
LINE
  8
0
 10
57.9906
 20
118.408
 11
58.6825
 21
118.707
  0
LINE
  8
0
 10
58.6825
 20
118.707
 11
59.3918
 21
118.963
  0
LINE
  8
0
 10
59.3918
 20
118.963
 11
60.1157
 21
119.173
  0
LINE
  8
0
 10
60.1157
 20
119.173
 11
60.8514
 21
119.337
  0
LINE
  8
0
 10
60.8514
 20
119.337
 11
61.596
 21
119.455
  0
LINE
  8
0
 10
61.596
 20
119.455
 11
62.3465
 21
119.526
  0
LINE
  8
0
 10
62.3465
 20
119.526
 11
63.1
 21
119.55
  0
LINE
  8
0
 10
63.1
 20
119.55
 11
63.8535
 21
119.526
  0
LINE
  8
0
 10
63.8535
 20
119.526
 11
64.604
 21
119.455
  0
LINE
  8
0
 10
64.604
 20
119.455
 11
65.3486
 21
119.337
  0
LINE
  8
0
 10
65.3486
 20
119.337
 11
66.0843
 21
119.173
  0
LINE
  8
0
 10
66.0843
 20
119.173
 11
66.8082
 21
118.963
  0
LINE
  8
0
 10
66.8082
 20
118.963
 11
67.5175
 21
118.707
  0
LINE
  8
0
 10
67.5175
 20
118.707
 11
68.2094
 21
118.408
  0
LINE
  8
0
 10
68.2094
 20
118.408
 11
68.881
 21
118.066
  0
LINE
  8
0
 10
68.881
 20
118.066
 11
69.5299
 21
117.682
  0
LINE
  8
0
 10
69.5299
 20
117.682
 11
70.1534
 21
117.258
  0
LINE
  8
0
 10
70.1534
 20
117.258
 11
70.7491
 21
116.796
  0
LINE
  8
0
 10
70.7491
 20
116.796
 11
71.3146
 21
116.298
  0
LINE
  8
0
 10
71.3146
 20
116.298
 11
71.8476
 21
115.765
  0
LINE
  8
0
 10
71.8476
 20
115.765
 11
72.3461
 21
115.199
  0
LINE
  8
0
 10
72.3461
 20
115.199
 11
72.8082
 21
114.603
  0
LINE
  8
0
 10
72.8082
 20
114.603
 11
73.2319
 21
113.98
  0
LINE
  8
0
 10
73.2319
 20
113.98
 11
73.6157
 21
113.331
  0
LINE
  8
0
 10
73.6157
 20
113.331
 11
73.9579
 21
112.659
  0
LINE
  8
0
 10
73.9579
 20
112.659
 11
74.2573
 21
111.967
  0
LINE
  8
0
 10
74.2573
 20
111.967
 11
74.5127
 21
111.258
  0
LINE
  8
0
 10
74.5127
 20
111.258
 11
74.723
 21
110.534
  0
LINE
  8
0
 10
74.723
 20
110.534
 11
74.8874
 21
109.799
  0
LINE
  8
0
 10
74.8874
 20
109.799
 11
75.0054
 21
109.054
  0
LINE
  8
0
 10
75.0054
 20
109.054
 11
75.0763
 21
108.303
  0
LINE
  8
0
 10
75.0763
 20
108.303
 11
75.1
 21
107.55
  0
LINE
  8
0
 10
75.1
 20
107.55
 11
75.0763
 21
106.797
  0
LINE
  8
0
 10
75.0763
 20
106.797
 11
75.0054
 21
106.046
  0
LINE
  8
0
 10
75.0054
 20
106.046
 11
74.8874
 21
105.301
  0
LINE
  8
0
 10
74.8874
 20
105.301
 11
74.723
 21
104.566
  0
LINE
  8
0
 10
74.723
 20
104.566
 11
74.5127
 21
103.842
  0
LINE
  8
0
 10
74.5127
 20
103.842
 11
74.2573
 21
103.132
  0
LINE
  8
0
 10
74.2573
 20
103.132
 11
73.9579
 21
102.441
  0
LINE
  8
0
 10
73.9579
 20
102.441
 11
73.6157
 21
101.769
  0
LINE
  8
0
 10
73.6157
 20
101.769
 11
73.2319
 21
101.12
  0
LINE
  8
0
 10
73.2319
 20
101.12
 11
72.8082
 21
100.497
  0
LINE
  8
0
 10
72.8082
 20
100.497
 11
72.3461
 21
99.9009
  0
LINE
  8
0
 10
72.3461
 20
99.9009
 11
71.8476
 21
99.3354
  0
LINE
  8
0
 10
71.8476
 20
99.3354
 11
71.3146
 21
98.8024
  0
LINE
  8
0
 10
71.3146
 20
98.8024
 11
70.7491
 21
98.3038
  0
LINE
  8
0
 10
70.7491
 20
98.3038
 11
70.1534
 21
97.8418
  0
LINE
  8
0
 10
70.1534
 20
97.8418
 11
69.5299
 21
97.4181
  0
LINE
  8
0
 10
69.5299
 20
97.4181
 11
68.881
 21
97.0343
  0
LINE
  8
0
 10
68.881
 20
97.0343
 11
68.2094
 21
96.6921
  0
LINE
  8
0
 10
68.2094
 20
96.6921
 11
67.5175
 21
96.3927
  0
LINE
  8
0
 10
67.5175
 20
96.3927
 11
66.8082
 21
96.1373
  0
LINE
  8
0
 10
66.8082
 20
96.1373
 11
66.0843
 21
95.927
  0
LINE
  8
0
 10
66.0843
 20
95.927
 11
65.3486
 21
95.7625
  0
LINE
  8
0
 10
65.3486
 20
95.7625
 11
64.604
 21
95.6446
  0
LINE
  8
0
 10
64.604
 20
95.6446
 11
63.8535
 21
95.5737
  0
LINE
  8
0
 10
63.8535
 20
95.5737
 11
63.1
 21
95.55
  0
LINE
  8
0
 10
63.1
 20
95.55
 11
62.3465
 21
95.5737
  0
LINE
  8
0
 10
194.43
 20
116.382
 11
194.36
 21
116.389
  0
LINE
  8
0
 10
194.36
 20
116.389
 11
194.29
 21
116.4
  0
LINE
  8
0
 10
194.29
 20
116.4
 11
194.221
 21
116.415
  0
LINE
  8
0
 10
194.221
 20
116.415
 11
194.154
 21
116.435
  0
LINE
  8
0
 10
194.154
 20
116.435
 11
194.088
 21
116.459
  0
LINE
  8
0
 10
194.088
 20
116.459
 11
194.023
 21
116.487
  0
LINE
  8
0
 10
194.023
 20
116.487
 11
193.96
 21
116.519
  0
LINE
  8
0
 10
193.96
 20
116.519
 11
193.9
 21
116.554
  0
LINE
  8
0
 10
193.9
 20
116.554
 11
193.842
 21
116.594
  0
LINE
  8
0
 10
193.842
 20
116.594
 11
193.786
 21
116.637
  0
LINE
  8
0
 10
193.786
 20
116.637
 11
193.733
 21
116.684
  0
LINE
  8
0
 10
193.733
 20
116.684
 11
193.684
 21
116.733
  0
LINE
  8
0
 10
193.684
 20
116.733
 11
193.637
 21
116.786
  0
LINE
  8
0
 10
193.637
 20
116.786
 11
193.594
 21
116.842
  0
LINE
  8
0
 10
193.594
 20
116.842
 11
193.554
 21
116.9
  0
LINE
  8
0
 10
193.554
 20
116.9
 11
193.519
 21
116.96
  0
LINE
  8
0
 10
193.519
 20
116.96
 11
193.487
 21
117.023
  0
LINE
  8
0
 10
193.487
 20
117.023
 11
193.459
 21
117.088
  0
LINE
  8
0
 10
193.459
 20
117.088
 11
193.435
 21
117.154
  0
LINE
  8
0
 10
193.435
 20
117.154
 11
193.415
 21
117.221
  0
LINE
  8
0
 10
193.415
 20
117.221
 11
193.4
 21
117.29
  0
LINE
  8
0
 10
193.4
 20
117.29
 11
193.389
 21
117.36
  0
LINE
  8
0
 10
193.389
 20
117.36
 11
193.382
 21
117.43
  0
LINE
  8
0
 10
193.382
 20
117.43
 11
193.38
 21
117.5
  0
LINE
  8
0
 10
193.38
 20
117.5
 11
193.382
 21
117.57
  0
LINE
  8
0
 10
193.382
 20
117.57
 11
193.389
 21
117.64
  0
LINE
  8
0
 10
193.389
 20
117.64
 11
193.4
 21
117.71
  0
LINE
  8
0
 10
193.4
 20
117.71
 11
193.415
 21
117.779
  0
LINE
  8
0
 10
193.415
 20
117.779
 11
193.435
 21
117.846
  0
LINE
  8
0
 10
193.435
 20
117.846
 11
193.459
 21
117.912
  0
LINE
  8
0
 10
193.459
 20
117.912
 11
193.487
 21
117.977
  0
LINE
  8
0
 10
193.487
 20
117.977
 11
193.519
 21
118.04
  0
LINE
  8
0
 10
193.519
 20
118.04
 11
193.554
 21
118.1
  0
LINE
  8
0
 10
193.554
 20
118.1
 11
193.594
 21
118.158
  0
LINE
  8
0
 10
193.594
 20
118.158
 11
193.637
 21
118.214
  0
LINE
  8
0
 10
193.637
 20
118.214
 11
193.684
 21
118.267
  0
LINE
  8
0
 10
193.684
 20
118.267
 11
193.733
 21
118.316
  0
LINE
  8
0
 10
193.733
 20
118.316
 11
193.786
 21
118.363
  0
LINE
  8
0
 10
193.786
 20
118.363
 11
193.842
 21
118.406
  0
LINE
  8
0
 10
193.842
 20
118.406
 11
193.9
 21
118.446
  0
LINE
  8
0
 10
193.9
 20
118.446
 11
193.96
 21
118.481
  0
LINE
  8
0
 10
193.96
 20
118.481
 11
194.023
 21
118.513
  0
LINE
  8
0
 10
194.023
 20
118.513
 11
194.088
 21
118.541
  0
LINE
  8
0
 10
194.088
 20
118.541
 11
194.154
 21
118.565
  0
LINE
  8
0
 10
194.154
 20
118.565
 11
194.221
 21
118.585
  0
LINE
  8
0
 10
194.221
 20
118.585
 11
194.29
 21
118.6
  0
LINE
  8
0
 10
194.29
 20
118.6
 11
194.36
 21
118.611
  0
LINE
  8
0
 10
194.36
 20
118.611
 11
194.43
 21
118.618
  0
LINE
  8
0
 10
194.43
 20
118.618
 11
194.5
 21
118.62
  0
LINE
  8
0
 10
194.5
 20
118.62
 11
194.57
 21
118.618
  0
LINE
  8
0
 10
194.57
 20
118.618
 11
194.64
 21
118.611
  0
LINE
  8
0
 10
194.64
 20
118.611
 11
194.71
 21
118.6
  0
LINE
  8
0
 10
194.71
 20
118.6
 11
194.779
 21
118.585
  0
LINE
  8
0
 10
194.779
 20
118.585
 11
194.846
 21
118.565
  0
LINE
  8
0
 10
194.846
 20
118.565
 11
194.912
 21
118.541
  0
LINE
  8
0
 10
194.912
 20
118.541
 11
194.977
 21
118.513
  0
LINE
  8
0
 10
194.977
 20
118.513
 11
195.04
 21
118.481
  0
LINE
  8
0
 10
195.04
 20
118.481
 11
195.1
 21
118.446
  0
LINE
  8
0
 10
195.1
 20
118.446
 11
195.158
 21
118.406
  0
LINE
  8
0
 10
195.158
 20
118.406
 11
195.214
 21
118.363
  0
LINE
  8
0
 10
195.214
 20
118.363
 11
195.267
 21
118.316
  0
LINE
  8
0
 10
195.267
 20
118.316
 11
195.316
 21
118.267
  0
LINE
  8
0
 10
195.316
 20
118.267
 11
195.363
 21
118.214
  0
LINE
  8
0
 10
195.363
 20
118.214
 11
195.406
 21
118.158
  0
LINE
  8
0
 10
195.406
 20
118.158
 11
195.446
 21
118.1
  0
LINE
  8
0
 10
195.446
 20
118.1
 11
195.481
 21
118.04
  0
LINE
  8
0
 10
195.481
 20
118.04
 11
195.513
 21
117.977
  0
LINE
  8
0
 10
195.513
 20
117.977
 11
195.541
 21
117.912
  0
LINE
  8
0
 10
195.541
 20
117.912
 11
195.565
 21
117.846
  0
LINE
  8
0
 10
195.565
 20
117.846
 11
195.585
 21
117.779
  0
LINE
  8
0
 10
195.585
 20
117.779
 11
195.6
 21
117.71
  0
LINE
  8
0
 10
195.6
 20
117.71
 11
195.611
 21
117.64
  0
LINE
  8
0
 10
195.611
 20
117.64
 11
195.618
 21
117.57
  0
LINE
  8
0
 10
195.618
 20
117.57
 11
195.62
 21
117.5
  0
LINE
  8
0
 10
195.62
 20
117.5
 11
195.618
 21
117.43
  0
LINE
  8
0
 10
195.618
 20
117.43
 11
195.611
 21
117.36
  0
LINE
  8
0
 10
195.611
 20
117.36
 11
195.6
 21
117.29
  0
LINE
  8
0
 10
195.6
 20
117.29
 11
195.585
 21
117.221
  0
LINE
  8
0
 10
195.585
 20
117.221
 11
195.565
 21
117.154
  0
LINE
  8
0
 10
195.565
 20
117.154
 11
195.541
 21
117.088
  0
LINE
  8
0
 10
195.541
 20
117.088
 11
195.513
 21
117.023
  0
LINE
  8
0
 10
195.513
 20
117.023
 11
195.481
 21
116.96
  0
LINE
  8
0
 10
195.481
 20
116.96
 11
195.446
 21
116.9
  0
LINE
  8
0
 10
195.446
 20
116.9
 11
195.406
 21
116.842
  0
LINE
  8
0
 10
195.406
 20
116.842
 11
195.363
 21
116.786
  0
LINE
  8
0
 10
195.363
 20
116.786
 11
195.316
 21
116.733
  0
LINE
  8
0
 10
195.316
 20
116.733
 11
195.267
 21
116.684
  0
LINE
  8
0
 10
195.267
 20
116.684
 11
195.214
 21
116.637
  0
LINE
  8
0
 10
195.214
 20
116.637
 11
195.158
 21
116.594
  0
LINE
  8
0
 10
195.158
 20
116.594
 11
195.1
 21
116.554
  0
LINE
  8
0
 10
195.1
 20
116.554
 11
195.04
 21
116.519
  0
LINE
  8
0
 10
195.04
 20
116.519
 11
194.977
 21
116.487
  0
LINE
  8
0
 10
194.977
 20
116.487
 11
194.912
 21
116.459
  0
LINE
  8
0
 10
194.912
 20
116.459
 11
194.846
 21
116.435
  0
LINE
  8
0
 10
194.846
 20
116.435
 11
194.779
 21
116.415
  0
LINE
  8
0
 10
194.779
 20
116.415
 11
194.71
 21
116.4
  0
LINE
  8
0
 10
194.71
 20
116.4
 11
194.64
 21
116.389
  0
LINE
  8
0
 10
194.64
 20
116.389
 11
194.57
 21
116.382
  0
LINE
  8
0
 10
194.57
 20
116.382
 11
194.5
 21
116.38
  0
LINE
  8
0
 10
194.5
 20
116.38
 11
194.43
 21
116.382
  0
LINE
  8
0
 10
9.42967
 20
116.382
 11
9.35962
 21
116.389
  0
LINE
  8
0
 10
9.35962
 20
116.389
 11
9.29013
 21
116.4
  0
LINE
  8
0
 10
9.29013
 20
116.4
 11
9.22147
 21
116.415
  0
LINE
  8
0
 10
9.22147
 20
116.415
 11
9.1539
 21
116.435
  0
LINE
  8
0
 10
9.1539
 20
116.435
 11
9.08769
 21
116.459
  0
LINE
  8
0
 10
9.08769
 20
116.459
 11
9.02312
 21
116.487
  0
LINE
  8
0
 10
9.02312
 20
116.487
 11
8.96043
 21
116.519
  0
LINE
  8
0
 10
8.96043
 20
116.519
 11
8.89987
 21
116.554
  0
LINE
  8
0
 10
8.89987
 20
116.554
 11
8.84167
 21
116.594
  0
LINE
  8
0
 10
8.84167
 20
116.594
 11
8.78607
 21
116.637
  0
LINE
  8
0
 10
8.78607
 20
116.637
 11
8.73331
 21
116.684
  0
LINE
  8
0
 10
8.73331
 20
116.684
 11
8.68355
 21
116.733
  0
LINE
  8
0
 10
8.68355
 20
116.733
 11
8.63702
 21
116.786
  0
LINE
  8
0
 10
8.63702
 20
116.786
 11
8.59389
 21
116.842
  0
LINE
  8
0
 10
8.59389
 20
116.842
 11
8.55435
 21
116.9
  0
LINE
  8
0
 10
8.55435
 20
116.9
 11
8.51852
 21
116.96
  0
LINE
  8
0
 10
8.51852
 20
116.96
 11
8.48659
 21
117.023
  0
LINE
  8
0
 10
8.48659
 20
117.023
 11
8.45865
 21
117.088
  0
LINE
  8
0
 10
8.45865
 20
117.088
 11
8.43481
 21
117.154
  0
LINE
  8
0
 10
8.43481
 20
117.154
 11
8.41518
 21
117.221
  0
LINE
  8
0
 10
8.41518
 20
117.221
 11
8.39983
 21
117.29
  0
LINE
  8
0
 10
8.39983
 20
117.29
 11
8.38882
 21
117.36
  0
LINE
  8
0
 10
8.38882
 20
117.36
 11
8.3822
 21
117.43
  0
LINE
  8
0
 10
8.3822
 20
117.43
 11
8.37999
 21
117.5
  0
LINE
  8
0
 10
8.37999
 20
117.5
 11
8.3822
 21
117.57
  0
LINE
  8
0
 10
8.3822
 20
117.57
 11
8.38882
 21
117.64
  0
LINE
  8
0
 10
8.38882
 20
117.64
 11
8.39983
 21
117.71
  0
LINE
  8
0
 10
8.39983
 20
117.71
 11
8.41518
 21
117.779
  0
LINE
  8
0
 10
8.41518
 20
117.779
 11
8.43481
 21
117.846
  0
LINE
  8
0
 10
8.43481
 20
117.846
 11
8.45865
 21
117.912
  0
LINE
  8
0
 10
8.45865
 20
117.912
 11
8.48659
 21
117.977
  0
LINE
  8
0
 10
8.48659
 20
117.977
 11
8.51852
 21
118.04
  0
LINE
  8
0
 10
8.51852
 20
118.04
 11
8.55435
 21
118.1
  0
LINE
  8
0
 10
8.55435
 20
118.1
 11
8.59389
 21
118.158
  0
LINE
  8
0
 10
8.59389
 20
118.158
 11
8.63702
 21
118.214
  0
LINE
  8
0
 10
8.63702
 20
118.214
 11
8.68355
 21
118.267
  0
LINE
  8
0
 10
8.68355
 20
118.267
 11
8.73331
 21
118.316
  0
LINE
  8
0
 10
8.73331
 20
118.316
 11
8.78607
 21
118.363
  0
LINE
  8
0
 10
8.78607
 20
118.363
 11
8.84167
 21
118.406
  0
LINE
  8
0
 10
8.84167
 20
118.406
 11
8.89987
 21
118.446
  0
LINE
  8
0
 10
8.89987
 20
118.446
 11
8.96043
 21
118.481
  0
LINE
  8
0
 10
8.96043
 20
118.481
 11
9.02312
 21
118.513
  0
LINE
  8
0
 10
9.02312
 20
118.513
 11
9.08769
 21
118.541
  0
LINE
  8
0
 10
9.08769
 20
118.541
 11
9.1539
 21
118.565
  0
LINE
  8
0
 10
9.1539
 20
118.565
 11
9.22147
 21
118.585
  0
LINE
  8
0
 10
9.22147
 20
118.585
 11
9.29013
 21
118.6
  0
LINE
  8
0
 10
9.29013
 20
118.6
 11
9.35962
 21
118.611
  0
LINE
  8
0
 10
9.35962
 20
118.611
 11
9.42967
 21
118.618
  0
LINE
  8
0
 10
9.42967
 20
118.618
 11
9.5
 21
118.62
  0
LINE
  8
0
 10
9.5
 20
118.62
 11
9.57031
 21
118.618
  0
LINE
  8
0
 10
9.57031
 20
118.618
 11
9.64037
 21
118.611
  0
LINE
  8
0
 10
9.64037
 20
118.611
 11
9.70985
 21
118.6
  0
LINE
  8
0
 10
9.70985
 20
118.6
 11
9.77852
 21
118.585
  0
LINE
  8
0
 10
9.77852
 20
118.585
 11
9.84608
 21
118.565
  0
LINE
  8
0
 10
9.84608
 20
118.565
 11
9.91229
 21
118.541
  0
LINE
  8
0
 10
9.91229
 20
118.541
 11
9.97687
 21
118.513
  0
LINE
  8
0
 10
9.97687
 20
118.513
 11
10.0396
 21
118.481
  0
LINE
  8
0
 10
10.0396
 20
118.481
 11
10.1001
 21
118.446
  0
LINE
  8
0
 10
10.1001
 20
118.446
 11
10.1583
 21
118.406
  0
LINE
  8
0
 10
10.1583
 20
118.406
 11
10.2139
 21
118.363
  0
LINE
  8
0
 10
10.2139
 20
118.363
 11
10.2667
 21
118.316
  0
LINE
  8
0
 10
10.2667
 20
118.316
 11
10.3164
 21
118.267
  0
LINE
  8
0
 10
10.3164
 20
118.267
 11
10.363
 21
118.214
  0
LINE
  8
0
 10
10.363
 20
118.214
 11
10.4061
 21
118.158
  0
LINE
  8
0
 10
10.4061
 20
118.158
 11
10.4456
 21
118.1
  0
LINE
  8
0
 10
10.4456
 20
118.1
 11
10.4815
 21
118.04
  0
LINE
  8
0
 10
10.4815
 20
118.04
 11
10.5134
 21
117.977
  0
LINE
  8
0
 10
10.5134
 20
117.977
 11
10.5413
 21
117.912
  0
LINE
  8
0
 10
10.5413
 20
117.912
 11
10.5652
 21
117.846
  0
LINE
  8
0
 10
10.5652
 20
117.846
 11
10.5848
 21
117.779
  0
LINE
  8
0
 10
10.5848
 20
117.779
 11
10.6002
 21
117.71
  0
LINE
  8
0
 10
10.6002
 20
117.71
 11
10.6112
 21
117.64
  0
LINE
  8
0
 10
10.6112
 20
117.64
 11
10.6178
 21
117.57
  0
LINE
  8
0
 10
10.6178
 20
117.57
 11
10.62
 21
117.5
  0
LINE
  8
0
 10
10.62
 20
117.5
 11
10.6178
 21
117.43
  0
LINE
  8
0
 10
10.6178
 20
117.43
 11
10.6112
 21
117.36
  0
LINE
  8
0
 10
10.6112
 20
117.36
 11
10.6002
 21
117.29
  0
LINE
  8
0
 10
10.6002
 20
117.29
 11
10.5848
 21
117.221
  0
LINE
  8
0
 10
10.5848
 20
117.221
 11
10.5652
 21
117.154
  0
LINE
  8
0
 10
10.5652
 20
117.154
 11
10.5413
 21
117.088
  0
LINE
  8
0
 10
10.5413
 20
117.088
 11
10.5134
 21
117.023
  0
LINE
  8
0
 10
10.5134
 20
117.023
 11
10.4815
 21
116.96
  0
LINE
  8
0
 10
10.4815
 20
116.96
 11
10.4456
 21
116.9
  0
LINE
  8
0
 10
10.4456
 20
116.9
 11
10.4061
 21
116.842
  0
LINE
  8
0
 10
10.4061
 20
116.842
 11
10.363
 21
116.786
  0
LINE
  8
0
 10
10.363
 20
116.786
 11
10.3164
 21
116.733
  0
LINE
  8
0
 10
10.3164
 20
116.733
 11
10.2667
 21
116.684
  0
LINE
  8
0
 10
10.2667
 20
116.684
 11
10.2139
 21
116.637
  0
LINE
  8
0
 10
10.2139
 20
116.637
 11
10.1583
 21
116.594
  0
LINE
  8
0
 10
10.1583
 20
116.594
 11
10.1001
 21
116.554
  0
LINE
  8
0
 10
10.1001
 20
116.554
 11
10.0396
 21
116.519
  0
LINE
  8
0
 10
10.0396
 20
116.519
 11
9.97687
 21
116.487
  0
LINE
  8
0
 10
9.97687
 20
116.487
 11
9.91229
 21
116.459
  0
LINE
  8
0
 10
9.91229
 20
116.459
 11
9.84608
 21
116.435
  0
LINE
  8
0
 10
9.84608
 20
116.435
 11
9.77852
 21
116.415
  0
LINE
  8
0
 10
9.77852
 20
116.415
 11
9.70985
 21
116.4
  0
LINE
  8
0
 10
9.70985
 20
116.4
 11
9.64037
 21
116.389
  0
LINE
  8
0
 10
9.64037
 20
116.389
 11
9.57031
 21
116.382
  0
LINE
  8
0
 10
9.57031
 20
116.382
 11
9.5
 21
116.38
  0
LINE
  8
0
 10
9.5
 20
116.38
 11
9.42967
 21
116.382
  0
LINE
  8
0
 10
193.047
 20
70.2737
 11
192.296
 21
70.3446
  0
LINE
  8
0
 10
192.296
 20
70.3446
 11
191.551
 21
70.4625
  0
LINE
  8
0
 10
191.551
 20
70.4625
 11
190.816
 21
70.627
  0
LINE
  8
0
 10
190.816
 20
70.627
 11
190.092
 21
70.8373
  0
LINE
  8
0
 10
190.092
 20
70.8373
 11
189.382
 21
71.0927
  0
LINE
  8
0
 10
189.382
 20
71.0927
 11
188.691
 21
71.3921
  0
LINE
  8
0
 10
188.691
 20
71.3921
 11
188.019
 21
71.7343
  0
LINE
  8
0
 10
188.019
 20
71.7343
 11
187.37
 21
72.1181
  0
LINE
  8
0
 10
187.37
 20
72.1181
 11
186.747
 21
72.5418
  0
LINE
  8
0
 10
186.747
 20
72.5418
 11
186.151
 21
73.0038
  0
LINE
  8
0
 10
186.151
 20
73.0038
 11
185.585
 21
73.5024
  0
LINE
  8
0
 10
185.585
 20
73.5024
 11
185.052
 21
74.0354
  0
LINE
  8
0
 10
185.052
 20
74.0354
 11
184.554
 21
74.6009
  0
LINE
  8
0
 10
184.554
 20
74.6009
 11
184.092
 21
75.1966
  0
LINE
  8
0
 10
184.092
 20
75.1966
 11
183.668
 21
75.8201
  0
LINE
  8
0
 10
183.668
 20
75.8201
 11
183.284
 21
76.4689
  0
LINE
  8
0
 10
183.284
 20
76.4689
 11
182.942
 21
77.1406
  0
LINE
  8
0
 10
182.942
 20
77.1406
 11
182.643
 21
77.8325
  0
LINE
  8
0
 10
182.643
 20
77.8325
 11
182.387
 21
78.5418
  0
LINE
  8
0
 10
182.387
 20
78.5418
 11
182.177
 21
79.2657
  0
LINE
  8
0
 10
182.177
 20
79.2657
 11
182.013
 21
80.0014
  0
LINE
  8
0
 10
182.013
 20
80.0014
 11
181.895
 21
80.746
  0
LINE
  8
0
 10
181.895
 20
80.746
 11
181.824
 21
81.4965
  0
LINE
  8
0
 10
181.824
 20
81.4965
 11
181.8
 21
82.25
  0
LINE
  8
0
 10
181.8
 20
82.25
 11
181.824
 21
83.0035
  0
LINE
  8
0
 10
181.824
 20
83.0035
 11
181.895
 21
83.754
  0
LINE
  8
0
 10
181.895
 20
83.754
 11
182.013
 21
84.4986
  0
LINE
  8
0
 10
182.013
 20
84.4986
 11
182.177
 21
85.2343
  0
LINE
  8
0
 10
182.177
 20
85.2343
 11
182.387
 21
85.9582
  0
LINE
  8
0
 10
182.387
 20
85.9582
 11
182.643
 21
86.6675
  0
LINE
  8
0
 10
182.643
 20
86.6675
 11
182.942
 21
87.3593
  0
LINE
  8
0
 10
182.942
 20
87.3593
 11
183.284
 21
88.031
  0
LINE
  8
0
 10
183.284
 20
88.031
 11
183.668
 21
88.6799
  0
LINE
  8
0
 10
183.668
 20
88.6799
 11
184.092
 21
89.3034
  0
LINE
  8
0
 10
184.092
 20
89.3034
 11
184.554
 21
89.8991
  0
LINE
  8
0
 10
184.554
 20
89.8991
 11
185.052
 21
90.4646
  0
LINE
  8
0
 10
185.052
 20
90.4646
 11
185.585
 21
90.9976
  0
LINE
  8
0
 10
185.585
 20
90.9976
 11
186.151
 21
91.4962
  0
LINE
  8
0
 10
186.151
 20
91.4962
 11
186.747
 21
91.9582
  0
LINE
  8
0
 10
186.747
 20
91.9582
 11
187.37
 21
92.3819
  0
LINE
  8
0
 10
187.37
 20
92.3819
 11
188.019
 21
92.7657
  0
LINE
  8
0
 10
188.019
 20
92.7657
 11
188.691
 21
93.1079
  0
LINE
  8
0
 10
188.691
 20
93.1079
 11
189.382
 21
93.4073
  0
LINE
  8
0
 10
189.382
 20
93.4073
 11
190.092
 21
93.6627
  0
LINE
  8
0
 10
190.092
 20
93.6627
 11
190.816
 21
93.873
  0
LINE
  8
0
 10
190.816
 20
93.873
 11
191.551
 21
94.0374
  0
LINE
  8
0
 10
191.551
 20
94.0374
 11
192.296
 21
94.1554
  0
LINE
  8
0
 10
192.296
 20
94.1554
 11
193.047
 21
94.2263
  0
LINE
  8
0
 10
193.047
 20
94.2263
 11
193.8
 21
94.25
  0
LINE
  8
0
 10
193.8
 20
94.25
 11
194.553
 21
94.2263
  0
LINE
  8
0
 10
194.553
 20
94.2263
 11
195.304
 21
94.1554
  0
LINE
  8
0
 10
195.304
 20
94.1554
 11
196.049
 21
94.0374
  0
LINE
  8
0
 10
196.049
 20
94.0374
 11
196.784
 21
93.873
  0
LINE
  8
0
 10
196.784
 20
93.873
 11
197.508
 21
93.6627
  0
LINE
  8
0
 10
197.508
 20
93.6627
 11
198.217
 21
93.4073
  0
LINE
  8
0
 10
198.217
 20
93.4073
 11
198.909
 21
93.1079
  0
LINE
  8
0
 10
198.909
 20
93.1079
 11
199.581
 21
92.7657
  0
LINE
  8
0
 10
199.581
 20
92.7657
 11
200.23
 21
92.3819
  0
LINE
  8
0
 10
200.23
 20
92.3819
 11
200.853
 21
91.9582
  0
LINE
  8
0
 10
200.853
 20
91.9582
 11
201.449
 21
91.4962
  0
LINE
  8
0
 10
201.449
 20
91.4962
 11
202.015
 21
90.9976
  0
LINE
  8
0
 10
202.015
 20
90.9976
 11
202.548
 21
90.4646
  0
LINE
  8
0
 10
202.548
 20
90.4646
 11
203.046
 21
89.8991
  0
LINE
  8
0
 10
203.046
 20
89.8991
 11
203.508
 21
89.3034
  0
LINE
  8
0
 10
203.508
 20
89.3034
 11
203.932
 21
88.6799
  0
LINE
  8
0
 10
203.932
 20
88.6799
 11
204.316
 21
88.031
  0
LINE
  8
0
 10
204.316
 20
88.031
 11
204.658
 21
87.3593
  0
LINE
  8
0
 10
204.658
 20
87.3593
 11
204.957
 21
86.6675
  0
LINE
  8
0
 10
204.957
 20
86.6675
 11
205.213
 21
85.9582
  0
LINE
  8
0
 10
205.213
 20
85.9582
 11
205.423
 21
85.2343
  0
LINE
  8
0
 10
205.423
 20
85.2343
 11
205.587
 21
84.4986
  0
LINE
  8
0
 10
205.587
 20
84.4986
 11
205.705
 21
83.754
  0
LINE
  8
0
 10
205.705
 20
83.754
 11
205.776
 21
83.0035
  0
LINE
  8
0
 10
205.776
 20
83.0035
 11
205.8
 21
82.25
  0
LINE
  8
0
 10
205.8
 20
82.25
 11
205.776
 21
81.4965
  0
LINE
  8
0
 10
205.776
 20
81.4965
 11
205.705
 21
80.746
  0
LINE
  8
0
 10
205.705
 20
80.746
 11
205.587
 21
80.0014
  0
LINE
  8
0
 10
205.587
 20
80.0014
 11
205.423
 21
79.2657
  0
LINE
  8
0
 10
205.423
 20
79.2657
 11
205.213
 21
78.5418
  0
LINE
  8
0
 10
205.213
 20
78.5418
 11
204.957
 21
77.8325
  0
LINE
  8
0
 10
204.957
 20
77.8325
 11
204.658
 21
77.1406
  0
LINE
  8
0
 10
204.658
 20
77.1406
 11
204.316
 21
76.4689
  0
LINE
  8
0
 10
204.316
 20
76.4689
 11
203.932
 21
75.8201
  0
LINE
  8
0
 10
203.932
 20
75.8201
 11
203.508
 21
75.1966
  0
LINE
  8
0
 10
203.508
 20
75.1966
 11
203.046
 21
74.6009
  0
LINE
  8
0
 10
203.046
 20
74.6009
 11
202.548
 21
74.0354
  0
LINE
  8
0
 10
202.548
 20
74.0354
 11
202.015
 21
73.5024
  0
LINE
  8
0
 10
202.015
 20
73.5024
 11
201.449
 21
73.0038
  0
LINE
  8
0
 10
201.449
 20
73.0038
 11
200.853
 21
72.5418
  0
LINE
  8
0
 10
200.853
 20
72.5418
 11
200.23
 21
72.1181
  0
LINE
  8
0
 10
200.23
 20
72.1181
 11
199.581
 21
71.7343
  0
LINE
  8
0
 10
199.581
 20
71.7343
 11
198.909
 21
71.3921
  0
LINE
  8
0
 10
198.909
 20
71.3921
 11
198.217
 21
71.0927
  0
LINE
  8
0
 10
198.217
 20
71.0927
 11
197.508
 21
70.8373
  0
LINE
  8
0
 10
197.508
 20
70.8373
 11
196.784
 21
70.627
  0
LINE
  8
0
 10
196.784
 20
70.627
 11
196.049
 21
70.4625
  0
LINE
  8
0
 10
196.049
 20
70.4625
 11
195.304
 21
70.3446
  0
LINE
  8
0
 10
195.304
 20
70.3446
 11
194.553
 21
70.2737
  0
LINE
  8
0
 10
194.553
 20
70.2737
 11
193.8
 21
70.25
  0
LINE
  8
0
 10
193.8
 20
70.25
 11
193.047
 21
70.2737
  0
LINE
  8
0
 10
165.247
 20
70.2237
 11
164.496
 21
70.2946
  0
LINE
  8
0
 10
164.496
 20
70.2946
 11
163.751
 21
70.4126
  0
LINE
  8
0
 10
163.751
 20
70.4126
 11
163.016
 21
70.577
  0
LINE
  8
0
 10
163.016
 20
70.577
 11
162.292
 21
70.7873
  0
LINE
  8
0
 10
162.292
 20
70.7873
 11
161.583
 21
71.0427
  0
LINE
  8
0
 10
161.583
 20
71.0427
 11
160.891
 21
71.3421
  0
LINE
  8
0
 10
160.891
 20
71.3421
 11
160.219
 21
71.6843
  0
LINE
  8
0
 10
160.219
 20
71.6843
 11
159.57
 21
72.0681
  0
LINE
  8
0
 10
159.57
 20
72.0681
 11
158.947
 21
72.4918
  0
LINE
  8
0
 10
158.947
 20
72.4918
 11
158.351
 21
72.9538
  0
LINE
  8
0
 10
158.351
 20
72.9538
 11
157.785
 21
73.4524
  0
LINE
  8
0
 10
157.785
 20
73.4524
 11
157.252
 21
73.9854
  0
LINE
  8
0
 10
157.252
 20
73.9854
 11
156.754
 21
74.5509
  0
LINE
  8
0
 10
156.754
 20
74.5509
 11
156.292
 21
75.1466
  0
LINE
  8
0
 10
156.292
 20
75.1466
 11
155.868
 21
75.7701
  0
LINE
  8
0
 10
155.868
 20
75.7701
 11
155.484
 21
76.4189
  0
LINE
  8
0
 10
155.484
 20
76.4189
 11
155.142
 21
77.0906
  0
LINE
  8
0
 10
155.142
 20
77.0906
 11
154.843
 21
77.7825
  0
LINE
  8
0
 10
154.843
 20
77.7825
 11
154.587
 21
78.4918
  0
LINE
  8
0
 10
154.587
 20
78.4918
 11
154.377
 21
79.2157
  0
LINE
  8
0
 10
154.377
 20
79.2157
 11
154.213
 21
79.9514
  0
LINE
  8
0
 10
154.213
 20
79.9514
 11
154.095
 21
80.696
  0
LINE
  8
0
 10
154.095
 20
80.696
 11
154.024
 21
81.4465
  0
LINE
  8
0
 10
154.024
 20
81.4465
 11
154
 21
82.2
  0
LINE
  8
0
 10
154
 20
82.2
 11
154.024
 21
82.9535
  0
LINE
  8
0
 10
154.024
 20
82.9535
 11
154.095
 21
83.704
  0
LINE
  8
0
 10
154.095
 20
83.704
 11
154.213
 21
84.4486
  0
LINE
  8
0
 10
154.213
 20
84.4486
 11
154.377
 21
85.1843
  0
LINE
  8
0
 10
154.377
 20
85.1843
 11
154.587
 21
85.9082
  0
LINE
  8
0
 10
154.587
 20
85.9082
 11
154.843
 21
86.6175
  0
LINE
  8
0
 10
154.843
 20
86.6175
 11
155.142
 21
87.3093
  0
LINE
  8
0
 10
155.142
 20
87.3093
 11
155.484
 21
87.981
  0
LINE
  8
0
 10
155.484
 20
87.981
 11
155.868
 21
88.6299
  0
LINE
  8
0
 10
155.868
 20
88.6299
 11
156.292
 21
89.2534
  0
LINE
  8
0
 10
156.292
 20
89.2534
 11
156.754
 21
89.8491
  0
LINE
  8
0
 10
156.754
 20
89.8491
 11
157.252
 21
90.4146
  0
LINE
  8
0
 10
157.252
 20
90.4146
 11
157.785
 21
90.9476
  0
LINE
  8
0
 10
157.785
 20
90.9476
 11
158.351
 21
91.4462
  0
LINE
  8
0
 10
158.351
 20
91.4462
 11
158.947
 21
91.9082
  0
LINE
  8
0
 10
158.947
 20
91.9082
 11
159.57
 21
92.3319
  0
LINE
  8
0
 10
159.57
 20
92.3319
 11
160.219
 21
92.7157
  0
LINE
  8
0
 10
160.219
 20
92.7157
 11
160.891
 21
93.0579
  0
LINE
  8
0
 10
160.891
 20
93.0579
 11
161.583
 21
93.3573
  0
LINE
  8
0
 10
161.583
 20
93.3573
 11
162.292
 21
93.6127
  0
LINE
  8
0
 10
162.292
 20
93.6127
 11
163.016
 21
93.823
  0
LINE
  8
0
 10
163.016
 20
93.823
 11
163.751
 21
93.9874
  0
LINE
  8
0
 10
163.751
 20
93.9874
 11
164.496
 21
94.1054
  0
LINE
  8
0
 10
164.496
 20
94.1054
 11
165.247
 21
94.1763
  0
LINE
  8
0
 10
165.247
 20
94.1763
 11
166
 21
94.2
  0
LINE
  8
0
 10
166
 20
94.2
 11
166.753
 21
94.1763
  0
LINE
  8
0
 10
166.753
 20
94.1763
 11
167.504
 21
94.1054
  0
LINE
  8
0
 10
167.504
 20
94.1054
 11
168.249
 21
93.9874
  0
LINE
  8
0
 10
168.249
 20
93.9874
 11
168.984
 21
93.823
  0
LINE
  8
0
 10
168.984
 20
93.823
 11
169.708
 21
93.6127
  0
LINE
  8
0
 10
169.708
 20
93.6127
 11
170.417
 21
93.3573
  0
LINE
  8
0
 10
170.417
 20
93.3573
 11
171.109
 21
93.0579
  0
LINE
  8
0
 10
171.109
 20
93.0579
 11
171.781
 21
92.7157
  0
LINE
  8
0
 10
171.781
 20
92.7157
 11
172.43
 21
92.3319
  0
LINE
  8
0
 10
172.43
 20
92.3319
 11
173.053
 21
91.9082
  0
LINE
  8
0
 10
173.053
 20
91.9082
 11
173.649
 21
91.4462
  0
LINE
  8
0
 10
173.649
 20
91.4462
 11
174.215
 21
90.9476
  0
LINE
  8
0
 10
174.215
 20
90.9476
 11
174.748
 21
90.4146
  0
LINE
  8
0
 10
174.748
 20
90.4146
 11
175.246
 21
89.8491
  0
LINE
  8
0
 10
175.246
 20
89.8491
 11
175.708
 21
89.2534
  0
LINE
  8
0
 10
175.708
 20
89.2534
 11
176.132
 21
88.6299
  0
LINE
  8
0
 10
176.132
 20
88.6299
 11
176.516
 21
87.981
  0
LINE
  8
0
 10
176.516
 20
87.981
 11
176.858
 21
87.3093
  0
LINE
  8
0
 10
176.858
 20
87.3093
 11
177.157
 21
86.6175
  0
LINE
  8
0
 10
177.157
 20
86.6175
 11
177.413
 21
85.9082
  0
LINE
  8
0
 10
177.413
 20
85.9082
 11
177.623
 21
85.1843
  0
LINE
  8
0
 10
177.623
 20
85.1843
 11
177.787
 21
84.4486
  0
LINE
  8
0
 10
177.787
 20
84.4486
 11
177.905
 21
83.704
  0
LINE
  8
0
 10
177.905
 20
83.704
 11
177.976
 21
82.9535
  0
LINE
  8
0
 10
177.976
 20
82.9535
 11
178
 21
82.2
  0
LINE
  8
0
 10
178
 20
82.2
 11
177.976
 21
81.4465
  0
LINE
  8
0
 10
177.976
 20
81.4465
 11
177.905
 21
80.696
  0
LINE
  8
0
 10
177.905
 20
80.696
 11
177.787
 21
79.9514
  0
LINE
  8
0
 10
177.787
 20
79.9514
 11
177.623
 21
79.2157
  0
LINE
  8
0
 10
177.623
 20
79.2157
 11
177.413
 21
78.4918
  0
LINE
  8
0
 10
177.413
 20
78.4918
 11
177.157
 21
77.7825
  0
LINE
  8
0
 10
177.157
 20
77.7825
 11
176.858
 21
77.0906
  0
LINE
  8
0
 10
176.858
 20
77.0906
 11
176.516
 21
76.4189
  0
LINE
  8
0
 10
176.516
 20
76.4189
 11
176.132
 21
75.7701
  0
LINE
  8
0
 10
176.132
 20
75.7701
 11
175.708
 21
75.1466
  0
LINE
  8
0
 10
175.708
 20
75.1466
 11
175.246
 21
74.5509
  0
LINE
  8
0
 10
175.246
 20
74.5509
 11
174.748
 21
73.9854
  0
LINE
  8
0
 10
174.748
 20
73.9854
 11
174.215
 21
73.4524
  0
LINE
  8
0
 10
174.215
 20
73.4524
 11
173.649
 21
72.9538
  0
LINE
  8
0
 10
173.649
 20
72.9538
 11
173.053
 21
72.4918
  0
LINE
  8
0
 10
173.053
 20
72.4918
 11
172.43
 21
72.0681
  0
LINE
  8
0
 10
172.43
 20
72.0681
 11
171.781
 21
71.6843
  0
LINE
  8
0
 10
171.781
 20
71.6843
 11
171.109
 21
71.3421
  0
LINE
  8
0
 10
171.109
 20
71.3421
 11
170.417
 21
71.0427
  0
LINE
  8
0
 10
170.417
 20
71.0427
 11
169.708
 21
70.7873
  0
LINE
  8
0
 10
169.708
 20
70.7873
 11
168.984
 21
70.577
  0
LINE
  8
0
 10
168.984
 20
70.577
 11
168.249
 21
70.4126
  0
LINE
  8
0
 10
168.249
 20
70.4126
 11
167.504
 21
70.2946
  0
LINE
  8
0
 10
167.504
 20
70.2946
 11
166.753
 21
70.2237
  0
LINE
  8
0
 10
166.753
 20
70.2237
 11
166
 21
70.2
  0
LINE
  8
0
 10
166
 20
70.2
 11
165.247
 21
70.2237
  0
LINE
  8
0
 10
137.646
 20
69.7737
 11
136.896
 21
69.8446
  0
LINE
  8
0
 10
136.896
 20
69.8446
 11
136.151
 21
69.9625
  0
LINE
  8
0
 10
136.151
 20
69.9625
 11
135.416
 21
70.127
  0
LINE
  8
0
 10
135.416
 20
70.127
 11
134.692
 21
70.3373
  0
LINE
  8
0
 10
134.692
 20
70.3373
 11
133.982
 21
70.5927
  0
LINE
  8
0
 10
133.982
 20
70.5927
 11
133.291
 21
70.8921
  0
LINE
  8
0
 10
133.291
 20
70.8921
 11
132.619
 21
71.2343
  0
LINE
  8
0
 10
132.619
 20
71.2343
 11
131.97
 21
71.6181
  0
LINE
  8
0
 10
131.97
 20
71.6181
 11
131.347
 21
72.0418
  0
LINE
  8
0
 10
131.347
 20
72.0418
 11
130.751
 21
72.5038
  0
LINE
  8
0
 10
130.751
 20
72.5038
 11
130.185
 21
73.0024
  0
LINE
  8
0
 10
130.185
 20
73.0024
 11
129.652
 21
73.5354
  0
LINE
  8
0
 10
129.652
 20
73.5354
 11
129.154
 21
74.1009
  0
LINE
  8
0
 10
129.154
 20
74.1009
 11
128.692
 21
74.6966
  0
LINE
  8
0
 10
128.692
 20
74.6966
 11
128.268
 21
75.3201
  0
LINE
  8
0
 10
128.268
 20
75.3201
 11
127.884
 21
75.9689
  0
LINE
  8
0
 10
127.884
 20
75.9689
 11
127.542
 21
76.6406
  0
LINE
  8
0
 10
127.542
 20
76.6406
 11
127.243
 21
77.3325
  0
LINE
  8
0
 10
127.243
 20
77.3325
 11
126.987
 21
78.0418
  0
LINE
  8
0
 10
126.987
 20
78.0418
 11
126.777
 21
78.7657
  0
LINE
  8
0
 10
126.777
 20
78.7657
 11
126.613
 21
79.5014
  0
LINE
  8
0
 10
126.613
 20
79.5014
 11
126.495
 21
80.246
  0
LINE
  8
0
 10
126.495
 20
80.246
 11
126.424
 21
80.9965
  0
LINE
  8
0
 10
126.424
 20
80.9965
 11
126.4
 21
81.75
  0
LINE
  8
0
 10
126.4
 20
81.75
 11
126.424
 21
82.5035
  0
LINE
  8
0
 10
126.424
 20
82.5035
 11
126.495
 21
83.254
  0
LINE
  8
0
 10
126.495
 20
83.254
 11
126.613
 21
83.9986
  0
LINE
  8
0
 10
126.613
 20
83.9986
 11
126.777
 21
84.7343
  0
LINE
  8
0
 10
126.777
 20
84.7343
 11
126.987
 21
85.4582
  0
LINE
  8
0
 10
126.987
 20
85.4582
 11
127.243
 21
86.1675
  0
LINE
  8
0
 10
127.243
 20
86.1675
 11
127.542
 21
86.8593
  0
LINE
  8
0
 10
127.542
 20
86.8593
 11
127.884
 21
87.531
  0
LINE
  8
0
 10
127.884
 20
87.531
 11
128.268
 21
88.1799
  0
LINE
  8
0
 10
128.268
 20
88.1799
 11
128.692
 21
88.8034
  0
LINE
  8
0
 10
128.692
 20
88.8034
 11
129.154
 21
89.3991
  0
LINE
  8
0
 10
129.154
 20
89.3991
 11
129.652
 21
89.9646
  0
LINE
  8
0
 10
129.652
 20
89.9646
 11
130.185
 21
90.4976
  0
LINE
  8
0
 10
130.185
 20
90.4976
 11
130.751
 21
90.9962
  0
LINE
  8
0
 10
130.751
 20
90.9962
 11
131.347
 21
91.4582
  0
LINE
  8
0
 10
131.347
 20
91.4582
 11
131.97
 21
91.8819
  0
LINE
  8
0
 10
131.97
 20
91.8819
 11
132.619
 21
92.2657
  0
LINE
  8
0
 10
132.619
 20
92.2657
 11
133.291
 21
92.6079
  0
LINE
  8
0
 10
133.291
 20
92.6079
 11
133.982
 21
92.9073
  0
LINE
  8
0
 10
133.982
 20
92.9073
 11
134.692
 21
93.1627
  0
LINE
  8
0
 10
134.692
 20
93.1627
 11
135.416
 21
93.373
  0
LINE
  8
0
 10
135.416
 20
93.373
 11
136.151
 21
93.5374
  0
LINE
  8
0
 10
136.151
 20
93.5374
 11
136.896
 21
93.6554
  0
LINE
  8
0
 10
136.896
 20
93.6554
 11
137.646
 21
93.7263
  0
LINE
  8
0
 10
137.646
 20
93.7263
 11
138.4
 21
93.75
  0
LINE
  8
0
 10
138.4
 20
93.75
 11
139.153
 21
93.7263
  0
LINE
  8
0
 10
139.153
 20
93.7263
 11
139.904
 21
93.6554
  0
LINE
  8
0
 10
139.904
 20
93.6554
 11
140.649
 21
93.5374
  0
LINE
  8
0
 10
140.649
 20
93.5374
 11
141.384
 21
93.373
  0
LINE
  8
0
 10
141.384
 20
93.373
 11
142.108
 21
93.1627
  0
LINE
  8
0
 10
142.108
 20
93.1627
 11
142.817
 21
92.9073
  0
LINE
  8
0
 10
142.817
 20
92.9073
 11
143.509
 21
92.6079
  0
LINE
  8
0
 10
143.509
 20
92.6079
 11
144.181
 21
92.2657
  0
LINE
  8
0
 10
144.181
 20
92.2657
 11
144.83
 21
91.8819
  0
LINE
  8
0
 10
144.83
 20
91.8819
 11
145.453
 21
91.4582
  0
LINE
  8
0
 10
145.453
 20
91.4582
 11
146.049
 21
90.9962
  0
LINE
  8
0
 10
146.049
 20
90.9962
 11
146.615
 21
90.4976
  0
LINE
  8
0
 10
146.615
 20
90.4976
 11
147.148
 21
89.9646
  0
LINE
  8
0
 10
147.148
 20
89.9646
 11
147.646
 21
89.3991
  0
LINE
  8
0
 10
147.646
 20
89.3991
 11
148.108
 21
88.8034
  0
LINE
  8
0
 10
148.108
 20
88.8034
 11
148.532
 21
88.1799
  0
LINE
  8
0
 10
148.532
 20
88.1799
 11
148.916
 21
87.531
  0
LINE
  8
0
 10
148.916
 20
87.531
 11
149.258
 21
86.8593
  0
LINE
  8
0
 10
149.258
 20
86.8593
 11
149.557
 21
86.1675
  0
LINE
  8
0
 10
149.557
 20
86.1675
 11
149.813
 21
85.4582
  0
LINE
  8
0
 10
149.813
 20
85.4582
 11
150.023
 21
84.7343
  0
LINE
  8
0
 10
150.023
 20
84.7343
 11
150.187
 21
83.9986
  0
LINE
  8
0
 10
150.187
 20
83.9986
 11
150.305
 21
83.254
  0
LINE
  8
0
 10
150.305
 20
83.254
 11
150.376
 21
82.5035
  0
LINE
  8
0
 10
150.376
 20
82.5035
 11
150.4
 21
81.75
  0
LINE
  8
0
 10
150.4
 20
81.75
 11
150.376
 21
80.9965
  0
LINE
  8
0
 10
150.376
 20
80.9965
 11
150.305
 21
80.246
  0
LINE
  8
0
 10
150.305
 20
80.246
 11
150.187
 21
79.5014
  0
LINE
  8
0
 10
150.187
 20
79.5014
 11
150.023
 21
78.7657
  0
LINE
  8
0
 10
150.023
 20
78.7657
 11
149.813
 21
78.0418
  0
LINE
  8
0
 10
149.813
 20
78.0418
 11
149.557
 21
77.3325
  0
LINE
  8
0
 10
149.557
 20
77.3325
 11
149.258
 21
76.6406
  0
LINE
  8
0
 10
149.258
 20
76.6406
 11
148.916
 21
75.9689
  0
LINE
  8
0
 10
148.916
 20
75.9689
 11
148.532
 21
75.3201
  0
LINE
  8
0
 10
148.532
 20
75.3201
 11
148.108
 21
74.6966
  0
LINE
  8
0
 10
148.108
 20
74.6966
 11
147.646
 21
74.1009
  0
LINE
  8
0
 10
147.646
 20
74.1009
 11
147.148
 21
73.5354
  0
LINE
  8
0
 10
147.148
 20
73.5354
 11
146.615
 21
73.0024
  0
LINE
  8
0
 10
146.615
 20
73.0024
 11
146.049
 21
72.5038
  0
LINE
  8
0
 10
146.049
 20
72.5038
 11
145.453
 21
72.0418
  0
LINE
  8
0
 10
145.453
 20
72.0418
 11
144.83
 21
71.6181
  0
LINE
  8
0
 10
144.83
 20
71.6181
 11
144.181
 21
71.2343
  0
LINE
  8
0
 10
144.181
 20
71.2343
 11
143.509
 21
70.8921
  0
LINE
  8
0
 10
143.509
 20
70.8921
 11
142.817
 21
70.5927
  0
LINE
  8
0
 10
142.817
 20
70.5927
 11
142.108
 21
70.3373
  0
LINE
  8
0
 10
142.108
 20
70.3373
 11
141.384
 21
70.127
  0
LINE
  8
0
 10
141.384
 20
70.127
 11
140.649
 21
69.9625
  0
LINE
  8
0
 10
140.649
 20
69.9625
 11
139.904
 21
69.8446
  0
LINE
  8
0
 10
139.904
 20
69.8446
 11
139.153
 21
69.7737
  0
LINE
  8
0
 10
139.153
 20
69.7737
 11
138.4
 21
69.75
  0
LINE
  8
0
 10
138.4
 20
69.75
 11
137.646
 21
69.7737
  0
LINE
  8
0
 10
56.6465
 20
68.2737
 11
55.896
 21
68.3446
  0
LINE
  8
0
 10
55.896
 20
68.3446
 11
55.1514
 21
68.4625
  0
LINE
  8
0
 10
55.1514
 20
68.4625
 11
54.4157
 21
68.627
  0
LINE
  8
0
 10
54.4157
 20
68.627
 11
53.6918
 21
68.8373
  0
LINE
  8
0
 10
53.6918
 20
68.8373
 11
52.9825
 21
69.0927
  0
LINE
  8
0
 10
52.9825
 20
69.0927
 11
52.2906
 21
69.3921
  0
LINE
  8
0
 10
52.2906
 20
69.3921
 11
51.6189
 21
69.7343
  0
LINE
  8
0
 10
51.6189
 20
69.7343
 11
50.9701
 21
70.1181
  0
LINE
  8
0
 10
50.9701
 20
70.1181
 11
50.3466
 21
70.5418
  0
LINE
  8
0
 10
50.3466
 20
70.5418
 11
49.7509
 21
71.0038
  0
LINE
  8
0
 10
49.7509
 20
71.0038
 11
49.1854
 21
71.5024
  0
LINE
  8
0
 10
49.1854
 20
71.5024
 11
48.6524
 21
72.0354
  0
LINE
  8
0
 10
48.6524
 20
72.0354
 11
48.1538
 21
72.6009
  0
LINE
  8
0
 10
48.1538
 20
72.6009
 11
47.6918
 21
73.1966
  0
LINE
  8
0
 10
47.6918
 20
73.1966
 11
47.2681
 21
73.8201
  0
LINE
  8
0
 10
47.2681
 20
73.8201
 11
46.8843
 21
74.4689
  0
LINE
  8
0
 10
46.8843
 20
74.4689
 11
46.5421
 21
75.1406
  0
LINE
  8
0
 10
46.5421
 20
75.1406
 11
46.2427
 21
75.8325
  0
LINE
  8
0
 10
46.2427
 20
75.8325
 11
45.9873
 21
76.5418
  0
LINE
  8
0
 10
45.9873
 20
76.5418
 11
45.777
 21
77.2657
  0
LINE
  8
0
 10
45.777
 20
77.2657
 11
45.6125
 21
78.0014
  0
LINE
  8
0
 10
45.6125
 20
78.0014
 11
45.4946
 21
78.746
  0
LINE
  8
0
 10
45.4946
 20
78.746
 11
45.4237
 21
79.4965
  0
LINE
  8
0
 10
45.4237
 20
79.4965
 11
45.4
 21
80.25
  0
LINE
  8
0
 10
45.4
 20
80.25
 11
45.4237
 21
81.0035
  0
LINE
  8
0
 10
45.4237
 20
81.0035
 11
45.4946
 21
81.754
  0
LINE
  8
0
 10
45.4946
 20
81.754
 11
45.6125
 21
82.4986
  0
LINE
  8
0
 10
45.6125
 20
82.4986
 11
45.777
 21
83.2343
  0
LINE
  8
0
 10
45.777
 20
83.2343
 11
45.9873
 21
83.9582
  0
LINE
  8
0
 10
45.9873
 20
83.9582
 11
46.2427
 21
84.6675
  0
LINE
  8
0
 10
46.2427
 20
84.6675
 11
46.5421
 21
85.3593
  0
LINE
  8
0
 10
46.5421
 20
85.3593
 11
46.8843
 21
86.031
  0
LINE
  8
0
 10
46.8843
 20
86.031
 11
47.2681
 21
86.6799
  0
LINE
  8
0
 10
47.2681
 20
86.6799
 11
47.6918
 21
87.3034
  0
LINE
  8
0
 10
47.6918
 20
87.3034
 11
48.1538
 21
87.8991
  0
LINE
  8
0
 10
48.1538
 20
87.8991
 11
48.6524
 21
88.4646
  0
LINE
  8
0
 10
48.6524
 20
88.4646
 11
49.1854
 21
88.9976
  0
LINE
  8
0
 10
49.1854
 20
88.9976
 11
49.7509
 21
89.4962
  0
LINE
  8
0
 10
49.7509
 20
89.4962
 11
50.3466
 21
89.9582
  0
LINE
  8
0
 10
50.3466
 20
89.9582
 11
50.9701
 21
90.3819
  0
LINE
  8
0
 10
50.9701
 20
90.3819
 11
51.6189
 21
90.7657
  0
LINE
  8
0
 10
51.6189
 20
90.7657
 11
52.2906
 21
91.1079
  0
LINE
  8
0
 10
52.2906
 20
91.1079
 11
52.9825
 21
91.4073
  0
LINE
  8
0
 10
52.9825
 20
91.4073
 11
53.6918
 21
91.6627
  0
LINE
  8
0
 10
53.6918
 20
91.6627
 11
54.4157
 21
91.873
  0
LINE
  8
0
 10
54.4157
 20
91.873
 11
55.1514
 21
92.0374
  0
LINE
  8
0
 10
55.1514
 20
92.0374
 11
55.896
 21
92.1554
  0
LINE
  8
0
 10
55.896
 20
92.1554
 11
56.6465
 21
92.2263
  0
LINE
  8
0
 10
56.6465
 20
92.2263
 11
57.4
 21
92.25
  0
LINE
  8
0
 10
57.4
 20
92.25
 11
58.1535
 21
92.2263
  0
LINE
  8
0
 10
58.1535
 20
92.2263
 11
58.904
 21
92.1554
  0
LINE
  8
0
 10
58.904
 20
92.1554
 11
59.6486
 21
92.0374
  0
LINE
  8
0
 10
59.6486
 20
92.0374
 11
60.3843
 21
91.873
  0
LINE
  8
0
 10
60.3843
 20
91.873
 11
61.1082
 21
91.6627
  0
LINE
  8
0
 10
61.1082
 20
91.6627
 11
61.8175
 21
91.4073
  0
LINE
  8
0
 10
61.8175
 20
91.4073
 11
62.5093
 21
91.1079
  0
LINE
  8
0
 10
62.5093
 20
91.1079
 11
63.181
 21
90.7657
  0
LINE
  8
0
 10
63.181
 20
90.7657
 11
63.8299
 21
90.3819
  0
LINE
  8
0
 10
63.8299
 20
90.3819
 11
64.4534
 21
89.9582
  0
LINE
  8
0
 10
64.4534
 20
89.9582
 11
65.0491
 21
89.4962
  0
LINE
  8
0
 10
65.0491
 20
89.4962
 11
65.6146
 21
88.9976
  0
LINE
  8
0
 10
65.6146
 20
88.9976
 11
66.1476
 21
88.4646
  0
LINE
  8
0
 10
66.1476
 20
88.4646
 11
66.6461
 21
87.8991
  0
LINE
  8
0
 10
66.6461
 20
87.8991
 11
67.1082
 21
87.3034
  0
LINE
  8
0
 10
67.1082
 20
87.3034
 11
67.5319
 21
86.6799
  0
LINE
  8
0
 10
67.5319
 20
86.6799
 11
67.9157
 21
86.031
  0
LINE
  8
0
 10
67.9157
 20
86.031
 11
68.2579
 21
85.3593
  0
LINE
  8
0
 10
68.2579
 20
85.3593
 11
68.5573
 21
84.6675
  0
LINE
  8
0
 10
68.5573
 20
84.6675
 11
68.8127
 21
83.9582
  0
LINE
  8
0
 10
68.8127
 20
83.9582
 11
69.023
 21
83.2343
  0
LINE
  8
0
 10
69.023
 20
83.2343
 11
69.1874
 21
82.4986
  0
LINE
  8
0
 10
69.1874
 20
82.4986
 11
69.3054
 21
81.754
  0
LINE
  8
0
 10
69.3054
 20
81.754
 11
69.3763
 21
81.0035
  0
LINE
  8
0
 10
69.3763
 20
81.0035
 11
69.4
 21
80.25
  0
LINE
  8
0
 10
69.4
 20
80.25
 11
69.3763
 21
79.4965
  0
LINE
  8
0
 10
69.3763
 20
79.4965
 11
69.3054
 21
78.746
  0
LINE
  8
0
 10
69.3054
 20
78.746
 11
69.1874
 21
78.0014
  0
LINE
  8
0
 10
69.1874
 20
78.0014
 11
69.023
 21
77.2657
  0
LINE
  8
0
 10
69.023
 20
77.2657
 11
68.8127
 21
76.5418
  0
LINE
  8
0
 10
68.8127
 20
76.5418
 11
68.5573
 21
75.8325
  0
LINE
  8
0
 10
68.5573
 20
75.8325
 11
68.2579
 21
75.1406
  0
LINE
  8
0
 10
68.2579
 20
75.1406
 11
67.9157
 21
74.4689
  0
LINE
  8
0
 10
67.9157
 20
74.4689
 11
67.5319
 21
73.8201
  0
LINE
  8
0
 10
67.5319
 20
73.8201
 11
67.1082
 21
73.1966
  0
LINE
  8
0
 10
67.1082
 20
73.1966
 11
66.6461
 21
72.6009
  0
LINE
  8
0
 10
66.6461
 20
72.6009
 11
66.1476
 21
72.0354
  0
LINE
  8
0
 10
66.1476
 20
72.0354
 11
65.6146
 21
71.5024
  0
LINE
  8
0
 10
65.6146
 20
71.5024
 11
65.0491
 21
71.0038
  0
LINE
  8
0
 10
65.0491
 20
71.0038
 11
64.4534
 21
70.5418
  0
LINE
  8
0
 10
64.4534
 20
70.5418
 11
63.8299
 21
70.1181
  0
LINE
  8
0
 10
63.8299
 20
70.1181
 11
63.181
 21
69.7343
  0
LINE
  8
0
 10
63.181
 20
69.7343
 11
62.5093
 21
69.3921
  0
LINE
  8
0
 10
62.5093
 20
69.3921
 11
61.8175
 21
69.0927
  0
LINE
  8
0
 10
61.8175
 20
69.0927
 11
61.1082
 21
68.8373
  0
LINE
  8
0
 10
61.1082
 20
68.8373
 11
60.3843
 21
68.627
  0
LINE
  8
0
 10
60.3843
 20
68.627
 11
59.6486
 21
68.4625
  0
LINE
  8
0
 10
59.6486
 20
68.4625
 11
58.904
 21
68.3446
  0
LINE
  8
0
 10
58.904
 20
68.3446
 11
58.1535
 21
68.2737
  0
LINE
  8
0
 10
58.1535
 20
68.2737
 11
57.4
 21
68.25
  0
LINE
  8
0
 10
57.4
 20
68.25
 11
56.6465
 21
68.2737
  0
LINE
  8
0
 10
110.747
 20
65.8237
 11
109.996
 21
65.8946
  0
LINE
  8
0
 10
109.996
 20
65.8946
 11
109.251
 21
66.0125
  0
LINE
  8
0
 10
109.251
 20
66.0125
 11
108.516
 21
66.177
  0
LINE
  8
0
 10
108.516
 20
66.177
 11
107.792
 21
66.3873
  0
LINE
  8
0
 10
107.792
 20
66.3873
 11
107.083
 21
66.6427
  0
LINE
  8
0
 10
107.083
 20
66.6427
 11
106.391
 21
66.9421
  0
LINE
  8
0
 10
106.391
 20
66.9421
 11
105.719
 21
67.2843
  0
LINE
  8
0
 10
105.719
 20
67.2843
 11
105.07
 21
67.6681
  0
LINE
  8
0
 10
105.07
 20
67.6681
 11
104.447
 21
68.0918
  0
LINE
  8
0
 10
104.447
 20
68.0918
 11
103.851
 21
68.5538
  0
LINE
  8
0
 10
103.851
 20
68.5538
 11
103.285
 21
69.0524
  0
LINE
  8
0
 10
103.285
 20
69.0524
 11
102.752
 21
69.5854
  0
LINE
  8
0
 10
102.752
 20
69.5854
 11
102.254
 21
70.1509
  0
LINE
  8
0
 10
102.254
 20
70.1509
 11
101.792
 21
70.7466
  0
LINE
  8
0
 10
101.792
 20
70.7466
 11
101.368
 21
71.3701
  0
LINE
  8
0
 10
101.368
 20
71.3701
 11
100.984
 21
72.019
  0
LINE
  8
0
 10
100.984
 20
72.019
 11
100.642
 21
72.6906
  0
LINE
  8
0
 10
100.642
 20
72.6906
 11
100.343
 21
73.3825
  0
LINE
  8
0
 10
100.343
 20
73.3825
 11
100.087
 21
74.0918
  0
LINE
  8
0
 10
100.087
 20
74.0918
 11
99.877
 21
74.8157
  0
LINE
  8
0
 10
99.877
 20
74.8157
 11
99.7125
 21
75.5514
  0
LINE
  8
0
 10
99.7125
 20
75.5514
 11
99.5946
 21
76.296
  0
LINE
  8
0
 10
99.5946
 20
76.296
 11
99.5237
 21
77.0465
  0
LINE
  8
0
 10
99.5237
 20
77.0465
 11
99.5
 21
77.8
  0
LINE
  8
0
 10
99.5
 20
77.8
 11
99.5237
 21
78.5535
  0
LINE
  8
0
 10
99.5237
 20
78.5535
 11
99.5946
 21
79.304
  0
LINE
  8
0
 10
99.5946
 20
79.304
 11
99.7125
 21
80.0486
  0
LINE
  8
0
 10
99.7125
 20
80.0486
 11
99.877
 21
80.7843
  0
LINE
  8
0
 10
99.877
 20
80.7843
 11
100.087
 21
81.5082
  0
LINE
  8
0
 10
100.087
 20
81.5082
 11
100.343
 21
82.2175
  0
LINE
  8
0
 10
100.343
 20
82.2175
 11
100.642
 21
82.9093
  0
LINE
  8
0
 10
100.642
 20
82.9093
 11
100.984
 21
83.581
  0
LINE
  8
0
 10
100.984
 20
83.581
 11
101.368
 21
84.2299
  0
LINE
  8
0
 10
101.368
 20
84.2299
 11
101.792
 21
84.8534
  0
LINE
  8
0
 10
101.792
 20
84.8534
 11
102.254
 21
85.4491
  0
LINE
  8
0
 10
102.254
 20
85.4491
 11
102.752
 21
86.0146
  0
LINE
  8
0
 10
102.752
 20
86.0146
 11
103.285
 21
86.5476
  0
LINE
  8
0
 10
103.285
 20
86.5476
 11
103.851
 21
87.0462
  0
LINE
  8
0
 10
103.851
 20
87.0462
 11
104.447
 21
87.5082
  0
LINE
  8
0
 10
104.447
 20
87.5082
 11
105.07
 21
87.9319
  0
LINE
  8
0
 10
105.07
 20
87.9319
 11
105.719
 21
88.3157
  0
LINE
  8
0
 10
105.719
 20
88.3157
 11
106.391
 21
88.6579
  0
LINE
  8
0
 10
106.391
 20
88.6579
 11
107.083
 21
88.9573
  0
LINE
  8
0
 10
107.083
 20
88.9573
 11
107.792
 21
89.2127
  0
LINE
  8
0
 10
107.792
 20
89.2127
 11
108.516
 21
89.423
  0
LINE
  8
0
 10
108.516
 20
89.423
 11
109.251
 21
89.5874
  0
LINE
  8
0
 10
109.251
 20
89.5874
 11
109.996
 21
89.7054
  0
LINE
  8
0
 10
109.996
 20
89.7054
 11
110.747
 21
89.7763
  0
LINE
  8
0
 10
110.747
 20
89.7763
 11
111.5
 21
89.8
  0
LINE
  8
0
 10
111.5
 20
89.8
 11
112.253
 21
89.7763
  0
LINE
  8
0
 10
112.253
 20
89.7763
 11
113.004
 21
89.7054
  0
LINE
  8
0
 10
113.004
 20
89.7054
 11
113.749
 21
89.5874
  0
LINE
  8
0
 10
113.749
 20
89.5874
 11
114.484
 21
89.423
  0
LINE
  8
0
 10
114.484
 20
89.423
 11
115.208
 21
89.2127
  0
LINE
  8
0
 10
115.208
 20
89.2127
 11
115.917
 21
88.9573
  0
LINE
  8
0
 10
115.917
 20
88.9573
 11
116.609
 21
88.6579
  0
LINE
  8
0
 10
116.609
 20
88.6579
 11
117.281
 21
88.3157
  0
LINE
  8
0
 10
117.281
 20
88.3157
 11
117.93
 21
87.9319
  0
LINE
  8
0
 10
117.93
 20
87.9319
 11
118.553
 21
87.5082
  0
LINE
  8
0
 10
118.553
 20
87.5082
 11
119.149
 21
87.0462
  0
LINE
  8
0
 10
119.149
 20
87.0462
 11
119.715
 21
86.5476
  0
LINE
  8
0
 10
119.715
 20
86.5476
 11
120.248
 21
86.0146
  0
LINE
  8
0
 10
120.248
 20
86.0146
 11
120.746
 21
85.4491
  0
LINE
  8
0
 10
120.746
 20
85.4491
 11
121.208
 21
84.8534
  0
LINE
  8
0
 10
121.208
 20
84.8534
 11
121.632
 21
84.2299
  0
LINE
  8
0
 10
121.632
 20
84.2299
 11
122.016
 21
83.581
  0
LINE
  8
0
 10
122.016
 20
83.581
 11
122.358
 21
82.9093
  0
LINE
  8
0
 10
122.358
 20
82.9093
 11
122.657
 21
82.2175
  0
LINE
  8
0
 10
122.657
 20
82.2175
 11
122.913
 21
81.5082
  0
LINE
  8
0
 10
122.913
 20
81.5082
 11
123.123
 21
80.7843
  0
LINE
  8
0
 10
123.123
 20
80.7843
 11
123.287
 21
80.0486
  0
LINE
  8
0
 10
123.287
 20
80.0486
 11
123.405
 21
79.304
  0
LINE
  8
0
 10
123.405
 20
79.304
 11
123.476
 21
78.5535
  0
LINE
  8
0
 10
123.476
 20
78.5535
 11
123.5
 21
77.8
  0
LINE
  8
0
 10
123.5
 20
77.8
 11
123.476
 21
77.0465
  0
LINE
  8
0
 10
123.476
 20
77.0465
 11
123.405
 21
76.296
  0
LINE
  8
0
 10
123.405
 20
76.296
 11
123.287
 21
75.5514
  0
LINE
  8
0
 10
123.287
 20
75.5514
 11
123.123
 21
74.8157
  0
LINE
  8
0
 10
123.123
 20
74.8157
 11
122.913
 21
74.0918
  0
LINE
  8
0
 10
122.913
 20
74.0918
 11
122.657
 21
73.3825
  0
LINE
  8
0
 10
122.657
 20
73.3825
 11
122.358
 21
72.6906
  0
LINE
  8
0
 10
122.358
 20
72.6906
 11
122.016
 21
72.019
  0
LINE
  8
0
 10
122.016
 20
72.019
 11
121.632
 21
71.3701
  0
LINE
  8
0
 10
121.632
 20
71.3701
 11
121.208
 21
70.7466
  0
LINE
  8
0
 10
121.208
 20
70.7466
 11
120.746
 21
70.1509
  0
LINE
  8
0
 10
120.746
 20
70.1509
 11
120.248
 21
69.5854
  0
LINE
  8
0
 10
120.248
 20
69.5854
 11
119.715
 21
69.0524
  0
LINE
  8
0
 10
119.715
 20
69.0524
 11
119.149
 21
68.5538
  0
LINE
  8
0
 10
119.149
 20
68.5538
 11
118.553
 21
68.0918
  0
LINE
  8
0
 10
118.553
 20
68.0918
 11
117.93
 21
67.6681
  0
LINE
  8
0
 10
117.93
 20
67.6681
 11
117.281
 21
67.2843
  0
LINE
  8
0
 10
117.281
 20
67.2843
 11
116.609
 21
66.9421
  0
LINE
  8
0
 10
116.609
 20
66.9421
 11
115.917
 21
66.6427
  0
LINE
  8
0
 10
115.917
 20
66.6427
 11
115.208
 21
66.3873
  0
LINE
  8
0
 10
115.208
 20
66.3873
 11
114.484
 21
66.177
  0
LINE
  8
0
 10
114.484
 20
66.177
 11
113.749
 21
66.0125
  0
LINE
  8
0
 10
113.749
 20
66.0125
 11
113.004
 21
65.8946
  0
LINE
  8
0
 10
113.004
 20
65.8946
 11
112.253
 21
65.8237
  0
LINE
  8
0
 10
112.253
 20
65.8237
 11
111.5
 21
65.8
  0
LINE
  8
0
 10
111.5
 20
65.8
 11
110.747
 21
65.8237
  0
LINE
  8
0
 10
28.6465
 20
65.7737
 11
27.896
 21
65.8446
  0
LINE
  8
0
 10
27.896
 20
65.8446
 11
27.1514
 21
65.9625
  0
LINE
  8
0
 10
27.1514
 20
65.9625
 11
26.4157
 21
66.127
  0
LINE
  8
0
 10
26.4157
 20
66.127
 11
25.6918
 21
66.3373
  0
LINE
  8
0
 10
25.6918
 20
66.3373
 11
24.9825
 21
66.5927
  0
LINE
  8
0
 10
24.9825
 20
66.5927
 11
24.2906
 21
66.8921
  0
LINE
  8
0
 10
24.2906
 20
66.8921
 11
23.6189
 21
67.2343
  0
LINE
  8
0
 10
23.6189
 20
67.2343
 11
22.9701
 21
67.6181
  0
LINE
  8
0
 10
22.9701
 20
67.6181
 11
22.3466
 21
68.0418
  0
LINE
  8
0
 10
22.3466
 20
68.0418
 11
21.7509
 21
68.5038
  0
LINE
  8
0
 10
21.7509
 20
68.5038
 11
21.1854
 21
69.0024
  0
LINE
  8
0
 10
21.1854
 20
69.0024
 11
20.6524
 21
69.5354
  0
LINE
  8
0
 10
20.6524
 20
69.5354
 11
20.1538
 21
70.1009
  0
LINE
  8
0
 10
20.1538
 20
70.1009
 11
19.6918
 21
70.6966
  0
LINE
  8
0
 10
19.6918
 20
70.6966
 11
19.2681
 21
71.3201
  0
LINE
  8
0
 10
19.2681
 20
71.3201
 11
18.8843
 21
71.9689
  0
LINE
  8
0
 10
18.8843
 20
71.9689
 11
18.5421
 21
72.6406
  0
LINE
  8
0
 10
18.5421
 20
72.6406
 11
18.2427
 21
73.3325
  0
LINE
  8
0
 10
18.2427
 20
73.3325
 11
17.9873
 21
74.0418
  0
LINE
  8
0
 10
17.9873
 20
74.0418
 11
17.777
 21
74.7657
  0
LINE
  8
0
 10
17.777
 20
74.7657
 11
17.6125
 21
75.5014
  0
LINE
  8
0
 10
17.6125
 20
75.5014
 11
17.4946
 21
76.246
  0
LINE
  8
0
 10
17.4946
 20
76.246
 11
17.4237
 21
76.9965
  0
LINE
  8
0
 10
17.4237
 20
76.9965
 11
17.4
 21
77.75
  0
LINE
  8
0
 10
17.4
 20
77.75
 11
17.4237
 21
78.5035
  0
LINE
  8
0
 10
17.4237
 20
78.5035
 11
17.4946
 21
79.254
  0
LINE
  8
0
 10
17.4946
 20
79.254
 11
17.6125
 21
79.9986
  0
LINE
  8
0
 10
17.6125
 20
79.9986
 11
17.777
 21
80.7343
  0
LINE
  8
0
 10
17.777
 20
80.7343
 11
17.9873
 21
81.4582
  0
LINE
  8
0
 10
17.9873
 20
81.4582
 11
18.2427
 21
82.1675
  0
LINE
  8
0
 10
18.2427
 20
82.1675
 11
18.5421
 21
82.8593
  0
LINE
  8
0
 10
18.5421
 20
82.8593
 11
18.8843
 21
83.531
  0
LINE
  8
0
 10
18.8843
 20
83.531
 11
19.2681
 21
84.1799
  0
LINE
  8
0
 10
19.2681
 20
84.1799
 11
19.6918
 21
84.8034
  0
LINE
  8
0
 10
19.6918
 20
84.8034
 11
20.1538
 21
85.3991
  0
LINE
  8
0
 10
20.1538
 20
85.3991
 11
20.6524
 21
85.9646
  0
LINE
  8
0
 10
20.6524
 20
85.9646
 11
21.1854
 21
86.4976
  0
LINE
  8
0
 10
21.1854
 20
86.4976
 11
21.7509
 21
86.9962
  0
LINE
  8
0
 10
21.7509
 20
86.9962
 11
22.3466
 21
87.4582
  0
LINE
  8
0
 10
22.3466
 20
87.4582
 11
22.9701
 21
87.8819
  0
LINE
  8
0
 10
22.9701
 20
87.8819
 11
23.6189
 21
88.2657
  0
LINE
  8
0
 10
23.6189
 20
88.2657
 11
24.2906
 21
88.6079
  0
LINE
  8
0
 10
24.2906
 20
88.6079
 11
24.9825
 21
88.9073
  0
LINE
  8
0
 10
24.9825
 20
88.9073
 11
25.6918
 21
89.1627
  0
LINE
  8
0
 10
25.6918
 20
89.1627
 11
26.4157
 21
89.373
  0
LINE
  8
0
 10
26.4157
 20
89.373
 11
27.1514
 21
89.5374
  0
LINE
  8
0
 10
27.1514
 20
89.5374
 11
27.896
 21
89.6554
  0
LINE
  8
0
 10
27.896
 20
89.6554
 11
28.6465
 21
89.7263
  0
LINE
  8
0
 10
28.6465
 20
89.7263
 11
29.4
 21
89.75
  0
LINE
  8
0
 10
29.4
 20
89.75
 11
30.1535
 21
89.7263
  0
LINE
  8
0
 10
30.1535
 20
89.7263
 11
30.904
 21
89.6554
  0
LINE
  8
0
 10
30.904
 20
89.6554
 11
31.6486
 21
89.5374
  0
LINE
  8
0
 10
31.6486
 20
89.5374
 11
32.3843
 21
89.373
  0
LINE
  8
0
 10
32.3843
 20
89.373
 11
33.1082
 21
89.1627
  0
LINE
  8
0
 10
33.1082
 20
89.1627
 11
33.8175
 21
88.9073
  0
LINE
  8
0
 10
33.8175
 20
88.9073
 11
34.5093
 21
88.6079
  0
LINE
  8
0
 10
34.5093
 20
88.6079
 11
35.181
 21
88.2657
  0
LINE
  8
0
 10
35.181
 20
88.2657
 11
35.8299
 21
87.8819
  0
LINE
  8
0
 10
35.8299
 20
87.8819
 11
36.4534
 21
87.4582
  0
LINE
  8
0
 10
36.4534
 20
87.4582
 11
37.0491
 21
86.9962
  0
LINE
  8
0
 10
37.0491
 20
86.9962
 11
37.6146
 21
86.4976
  0
LINE
  8
0
 10
37.6146
 20
86.4976
 11
38.1476
 21
85.9646
  0
LINE
  8
0
 10
38.1476
 20
85.9646
 11
38.6461
 21
85.3991
  0
LINE
  8
0
 10
38.6461
 20
85.3991
 11
39.1082
 21
84.8034
  0
LINE
  8
0
 10
39.1082
 20
84.8034
 11
39.5319
 21
84.1799
  0
LINE
  8
0
 10
39.5319
 20
84.1799
 11
39.9157
 21
83.531
  0
LINE
  8
0
 10
39.9157
 20
83.531
 11
40.2579
 21
82.8593
  0
LINE
  8
0
 10
40.2579
 20
82.8593
 11
40.5573
 21
82.1675
  0
LINE
  8
0
 10
40.5573
 20
82.1675
 11
40.8127
 21
81.4582
  0
LINE
  8
0
 10
40.8127
 20
81.4582
 11
41.023
 21
80.7343
  0
LINE
  8
0
 10
41.023
 20
80.7343
 11
41.1874
 21
79.9986
  0
LINE
  8
0
 10
41.1874
 20
79.9986
 11
41.3054
 21
79.254
  0
LINE
  8
0
 10
41.3054
 20
79.254
 11
41.3763
 21
78.5035
  0
LINE
  8
0
 10
41.3763
 20
78.5035
 11
41.4
 21
77.75
  0
LINE
  8
0
 10
41.4
 20
77.75
 11
41.3763
 21
76.9965
  0
LINE
  8
0
 10
41.3763
 20
76.9965
 11
41.3054
 21
76.246
  0
LINE
  8
0
 10
41.3054
 20
76.246
 11
41.1874
 21
75.5014
  0
LINE
  8
0
 10
41.1874
 20
75.5014
 11
41.023
 21
74.7657
  0
LINE
  8
0
 10
41.023
 20
74.7657
 11
40.8127
 21
74.0418
  0
LINE
  8
0
 10
40.8127
 20
74.0418
 11
40.5573
 21
73.3325
  0
LINE
  8
0
 10
40.5573
 20
73.3325
 11
40.2579
 21
72.6406
  0
LINE
  8
0
 10
40.2579
 20
72.6406
 11
39.9157
 21
71.9689
  0
LINE
  8
0
 10
39.9157
 20
71.9689
 11
39.5319
 21
71.3201
  0
LINE
  8
0
 10
39.5319
 20
71.3201
 11
39.1082
 21
70.6966
  0
LINE
  8
0
 10
39.1082
 20
70.6966
 11
38.6461
 21
70.1009
  0
LINE
  8
0
 10
38.6461
 20
70.1009
 11
38.1476
 21
69.5354
  0
LINE
  8
0
 10
38.1476
 20
69.5354
 11
37.6146
 21
69.0024
  0
LINE
  8
0
 10
37.6146
 20
69.0024
 11
37.0491
 21
68.5038
  0
LINE
  8
0
 10
37.0491
 20
68.5038
 11
36.4534
 21
68.0418
  0
LINE
  8
0
 10
36.4534
 20
68.0418
 11
35.8299
 21
67.6181
  0
LINE
  8
0
 10
35.8299
 20
67.6181
 11
35.181
 21
67.2343
  0
LINE
  8
0
 10
35.181
 20
67.2343
 11
34.5093
 21
66.8921
  0
LINE
  8
0
 10
34.5093
 20
66.8921
 11
33.8175
 21
66.5927
  0
LINE
  8
0
 10
33.8175
 20
66.5927
 11
33.1082
 21
66.3373
  0
LINE
  8
0
 10
33.1082
 20
66.3373
 11
32.3843
 21
66.127
  0
LINE
  8
0
 10
32.3843
 20
66.127
 11
31.6486
 21
65.9625
  0
LINE
  8
0
 10
31.6486
 20
65.9625
 11
30.904
 21
65.8446
  0
LINE
  8
0
 10
30.904
 20
65.8446
 11
30.1535
 21
65.7737
  0
LINE
  8
0
 10
30.1535
 20
65.7737
 11
29.4
 21
65.75
  0
LINE
  8
0
 10
29.4
 20
65.75
 11
28.6465
 21
65.7737
  0
LINE
  8
0
 10
83.6465
 20
57.2737
 11
82.896
 21
57.3446
  0
LINE
  8
0
 10
82.896
 20
57.3446
 11
82.1514
 21
57.4625
  0
LINE
  8
0
 10
82.1514
 20
57.4625
 11
81.4157
 21
57.627
  0
LINE
  8
0
 10
81.4157
 20
57.627
 11
80.6918
 21
57.8373
  0
LINE
  8
0
 10
80.6918
 20
57.8373
 11
79.9825
 21
58.0927
  0
LINE
  8
0
 10
79.9825
 20
58.0927
 11
79.2906
 21
58.3921
  0
LINE
  8
0
 10
79.2906
 20
58.3921
 11
78.6189
 21
58.7343
  0
LINE
  8
0
 10
78.6189
 20
58.7343
 11
77.9701
 21
59.1181
  0
LINE
  8
0
 10
77.9701
 20
59.1181
 11
77.3466
 21
59.5418
  0
LINE
  8
0
 10
77.3466
 20
59.5418
 11
76.7509
 21
60.0038
  0
LINE
  8
0
 10
76.7509
 20
60.0038
 11
76.1854
 21
60.5024
  0
LINE
  8
0
 10
76.1854
 20
60.5024
 11
75.6524
 21
61.0354
  0
LINE
  8
0
 10
75.6524
 20
61.0354
 11
75.1538
 21
61.6009
  0
LINE
  8
0
 10
75.1538
 20
61.6009
 11
74.6918
 21
62.1966
  0
LINE
  8
0
 10
74.6918
 20
62.1966
 11
74.2681
 21
62.8201
  0
LINE
  8
0
 10
74.2681
 20
62.8201
 11
73.8843
 21
63.4689
  0
LINE
  8
0
 10
73.8843
 20
63.4689
 11
73.5421
 21
64.1406
  0
LINE
  8
0
 10
73.5421
 20
64.1406
 11
73.2427
 21
64.8325
  0
LINE
  8
0
 10
73.2427
 20
64.8325
 11
72.9873
 21
65.5418
  0
LINE
  8
0
 10
72.9873
 20
65.5418
 11
72.777
 21
66.2657
  0
LINE
  8
0
 10
72.777
 20
66.2657
 11
72.6125
 21
67.0014
  0
LINE
  8
0
 10
72.6125
 20
67.0014
 11
72.4946
 21
67.746
  0
LINE
  8
0
 10
72.4946
 20
67.746
 11
72.4237
 21
68.4965
  0
LINE
  8
0
 10
72.4237
 20
68.4965
 11
72.4
 21
69.25
  0
LINE
  8
0
 10
72.4
 20
69.25
 11
72.4237
 21
70.0035
  0
LINE
  8
0
 10
72.4237
 20
70.0035
 11
72.4946
 21
70.754
  0
LINE
  8
0
 10
72.4946
 20
70.754
 11
72.6125
 21
71.4986
  0
LINE
  8
0
 10
72.6125
 20
71.4986
 11
72.777
 21
72.2343
  0
LINE
  8
0
 10
72.777
 20
72.2343
 11
72.9873
 21
72.9582
  0
LINE
  8
0
 10
72.9873
 20
72.9582
 11
73.2427
 21
73.6675
  0
LINE
  8
0
 10
73.2427
 20
73.6675
 11
73.5421
 21
74.3593
  0
LINE
  8
0
 10
73.5421
 20
74.3593
 11
73.8843
 21
75.031
  0
LINE
  8
0
 10
73.8843
 20
75.031
 11
74.2681
 21
75.6799
  0
LINE
  8
0
 10
74.2681
 20
75.6799
 11
74.6918
 21
76.3034
  0
LINE
  8
0
 10
74.6918
 20
76.3034
 11
75.1538
 21
76.8991
  0
LINE
  8
0
 10
75.1538
 20
76.8991
 11
75.6524
 21
77.4646
  0
LINE
  8
0
 10
75.6524
 20
77.4646
 11
76.1854
 21
77.9976
  0
LINE
  8
0
 10
76.1854
 20
77.9976
 11
76.7509
 21
78.4962
  0
LINE
  8
0
 10
76.7509
 20
78.4962
 11
77.3466
 21
78.9582
  0
LINE
  8
0
 10
77.3466
 20
78.9582
 11
77.9701
 21
79.3819
  0
LINE
  8
0
 10
77.9701
 20
79.3819
 11
78.6189
 21
79.7657
  0
LINE
  8
0
 10
78.6189
 20
79.7657
 11
79.2906
 21
80.1079
  0
LINE
  8
0
 10
79.2906
 20
80.1079
 11
79.9825
 21
80.4073
  0
LINE
  8
0
 10
79.9825
 20
80.4073
 11
80.6918
 21
80.6627
  0
LINE
  8
0
 10
80.6918
 20
80.6627
 11
81.4157
 21
80.873
  0
LINE
  8
0
 10
81.4157
 20
80.873
 11
82.1514
 21
81.0374
  0
LINE
  8
0
 10
82.1514
 20
81.0374
 11
82.896
 21
81.1554
  0
LINE
  8
0
 10
82.896
 20
81.1554
 11
83.6465
 21
81.2263
  0
LINE
  8
0
 10
83.6465
 20
81.2263
 11
84.4
 21
81.25
  0
LINE
  8
0
 10
84.4
 20
81.25
 11
85.1535
 21
81.2263
  0
LINE
  8
0
 10
85.1535
 20
81.2263
 11
85.904
 21
81.1554
  0
LINE
  8
0
 10
85.904
 20
81.1554
 11
86.6486
 21
81.0374
  0
LINE
  8
0
 10
86.6486
 20
81.0374
 11
87.3843
 21
80.873
  0
LINE
  8
0
 10
87.3843
 20
80.873
 11
88.1082
 21
80.6627
  0
LINE
  8
0
 10
88.1082
 20
80.6627
 11
88.8175
 21
80.4073
  0
LINE
  8
0
 10
88.8175
 20
80.4073
 11
89.5093
 21
80.1079
  0
LINE
  8
0
 10
89.5093
 20
80.1079
 11
90.181
 21
79.7657
  0
LINE
  8
0
 10
90.181
 20
79.7657
 11
90.8299
 21
79.3819
  0
LINE
  8
0
 10
90.8299
 20
79.3819
 11
91.4534
 21
78.9582
  0
LINE
  8
0
 10
91.4534
 20
78.9582
 11
92.0491
 21
78.4962
  0
LINE
  8
0
 10
92.0491
 20
78.4962
 11
92.6146
 21
77.9976
  0
LINE
  8
0
 10
92.6146
 20
77.9976
 11
93.1476
 21
77.4646
  0
LINE
  8
0
 10
93.1476
 20
77.4646
 11
93.6461
 21
76.8991
  0
LINE
  8
0
 10
93.6461
 20
76.8991
 11
94.1082
 21
76.3034
  0
LINE
  8
0
 10
94.1082
 20
76.3034
 11
94.5319
 21
75.6799
  0
LINE
  8
0
 10
94.5319
 20
75.6799
 11
94.9157
 21
75.031
  0
LINE
  8
0
 10
94.9157
 20
75.031
 11
95.2579
 21
74.3593
  0
LINE
  8
0
 10
95.2579
 20
74.3593
 11
95.5573
 21
73.6675
  0
LINE
  8
0
 10
95.5573
 20
73.6675
 11
95.8127
 21
72.9582
  0
LINE
  8
0
 10
95.8127
 20
72.9582
 11
96.023
 21
72.2343
  0
LINE
  8
0
 10
96.023
 20
72.2343
 11
96.1874
 21
71.4986
  0
LINE
  8
0
 10
96.1874
 20
71.4986
 11
96.3054
 21
70.754
  0
LINE
  8
0
 10
96.3054
 20
70.754
 11
96.3763
 21
70.0035
  0
LINE
  8
0
 10
96.3763
 20
70.0035
 11
96.4
 21
69.25
  0
LINE
  8
0
 10
96.4
 20
69.25
 11
96.3763
 21
68.4965
  0
LINE
  8
0
 10
96.3763
 20
68.4965
 11
96.3054
 21
67.746
  0
LINE
  8
0
 10
96.3054
 20
67.746
 11
96.1874
 21
67.0014
  0
LINE
  8
0
 10
96.1874
 20
67.0014
 11
96.023
 21
66.2657
  0
LINE
  8
0
 10
96.023
 20
66.2657
 11
95.8127
 21
65.5418
  0
LINE
  8
0
 10
95.8127
 20
65.5418
 11
95.5573
 21
64.8325
  0
LINE
  8
0
 10
95.5573
 20
64.8325
 11
95.2579
 21
64.1406
  0
LINE
  8
0
 10
95.2579
 20
64.1406
 11
94.9157
 21
63.4689
  0
LINE
  8
0
 10
94.9157
 20
63.4689
 11
94.5319
 21
62.8201
  0
LINE
  8
0
 10
94.5319
 20
62.8201
 11
94.1082
 21
62.1966
  0
LINE
  8
0
 10
94.1082
 20
62.1966
 11
93.6461
 21
61.6009
  0
LINE
  8
0
 10
93.6461
 20
61.6009
 11
93.1476
 21
61.0354
  0
LINE
  8
0
 10
93.1476
 20
61.0354
 11
92.6146
 21
60.5024
  0
LINE
  8
0
 10
92.6146
 20
60.5024
 11
92.0491
 21
60.0038
  0
LINE
  8
0
 10
92.0491
 20
60.0038
 11
91.4534
 21
59.5418
  0
LINE
  8
0
 10
91.4534
 20
59.5418
 11
90.8299
 21
59.1181
  0
LINE
  8
0
 10
90.8299
 20
59.1181
 11
90.181
 21
58.7343
  0
LINE
  8
0
 10
90.181
 20
58.7343
 11
89.5093
 21
58.3921
  0
LINE
  8
0
 10
89.5093
 20
58.3921
 11
88.8175
 21
58.0927
  0
LINE
  8
0
 10
88.8175
 20
58.0927
 11
88.1082
 21
57.8373
  0
LINE
  8
0
 10
88.1082
 20
57.8373
 11
87.3843
 21
57.627
  0
LINE
  8
0
 10
87.3843
 20
57.627
 11
86.6486
 21
57.4625
  0
LINE
  8
0
 10
86.6486
 20
57.4625
 11
85.904
 21
57.3446
  0
LINE
  8
0
 10
85.904
 20
57.3446
 11
85.1535
 21
57.2737
  0
LINE
  8
0
 10
85.1535
 20
57.2737
 11
84.4
 21
57.25
  0
LINE
  8
0
 10
84.4
 20
57.25
 11
83.6465
 21
57.2737
  0
LINE
  8
0
 10
164.247
 20
43.2237
 11
163.496
 21
43.2946
  0
LINE
  8
0
 10
163.496
 20
43.2946
 11
162.751
 21
43.4126
  0
LINE
  8
0
 10
162.751
 20
43.4126
 11
162.016
 21
43.577
  0
LINE
  8
0
 10
162.016
 20
43.577
 11
161.292
 21
43.7873
  0
LINE
  8
0
 10
161.292
 20
43.7873
 11
160.583
 21
44.0427
  0
LINE
  8
0
 10
160.583
 20
44.0427
 11
159.891
 21
44.3421
  0
LINE
  8
0
 10
159.891
 20
44.3421
 11
159.219
 21
44.6843
  0
LINE
  8
0
 10
159.219
 20
44.6843
 11
158.57
 21
45.0681
  0
LINE
  8
0
 10
158.57
 20
45.0681
 11
157.947
 21
45.4918
  0
LINE
  8
0
 10
157.947
 20
45.4918
 11
157.351
 21
45.9538
  0
LINE
  8
0
 10
157.351
 20
45.9538
 11
156.785
 21
46.4524
  0
LINE
  8
0
 10
156.785
 20
46.4524
 11
156.252
 21
46.9854
  0
LINE
  8
0
 10
156.252
 20
46.9854
 11
155.754
 21
47.5509
  0
LINE
  8
0
 10
155.754
 20
47.5509
 11
155.292
 21
48.1466
  0
LINE
  8
0
 10
155.292
 20
48.1466
 11
154.868
 21
48.7701
  0
LINE
  8
0
 10
154.868
 20
48.7701
 11
154.484
 21
49.4189
  0
LINE
  8
0
 10
154.484
 20
49.4189
 11
154.142
 21
50.0906
  0
LINE
  8
0
 10
154.142
 20
50.0906
 11
153.843
 21
50.7825
  0
LINE
  8
0
 10
153.843
 20
50.7825
 11
153.587
 21
51.4918
  0
LINE
  8
0
 10
153.587
 20
51.4918
 11
153.377
 21
52.2157
  0
LINE
  8
0
 10
153.377
 20
52.2157
 11
153.213
 21
52.9514
  0
LINE
  8
0
 10
153.213
 20
52.9514
 11
153.095
 21
53.696
  0
LINE
  8
0
 10
153.095
 20
53.696
 11
153.024
 21
54.4465
  0
LINE
  8
0
 10
153.024
 20
54.4465
 11
153
 21
55.2
  0
LINE
  8
0
 10
153
 20
55.2
 11
153.024
 21
55.9535
  0
LINE
  8
0
 10
153.024
 20
55.9535
 11
153.095
 21
56.704
  0
LINE
  8
0
 10
153.095
 20
56.704
 11
153.213
 21
57.4486
  0
LINE
  8
0
 10
153.213
 20
57.4486
 11
153.377
 21
58.1843
  0
LINE
  8
0
 10
153.377
 20
58.1843
 11
153.587
 21
58.9082
  0
LINE
  8
0
 10
153.587
 20
58.9082
 11
153.843
 21
59.6175
  0
LINE
  8
0
 10
153.843
 20
59.6175
 11
154.142
 21
60.3093
  0
LINE
  8
0
 10
154.142
 20
60.3093
 11
154.484
 21
60.981
  0
LINE
  8
0
 10
154.484
 20
60.981
 11
154.868
 21
61.6299
  0
LINE
  8
0
 10
154.868
 20
61.6299
 11
155.292
 21
62.2534
  0
LINE
  8
0
 10
155.292
 20
62.2534
 11
155.754
 21
62.8491
  0
LINE
  8
0
 10
155.754
 20
62.8491
 11
156.252
 21
63.4146
  0
LINE
  8
0
 10
156.252
 20
63.4146
 11
156.785
 21
63.9476
  0
LINE
  8
0
 10
156.785
 20
63.9476
 11
157.351
 21
64.4462
  0
LINE
  8
0
 10
157.351
 20
64.4462
 11
157.947
 21
64.9082
  0
LINE
  8
0
 10
157.947
 20
64.9082
 11
158.57
 21
65.3319
  0
LINE
  8
0
 10
158.57
 20
65.3319
 11
159.219
 21
65.7157
  0
LINE
  8
0
 10
159.219
 20
65.7157
 11
159.891
 21
66.0579
  0
LINE
  8
0
 10
159.891
 20
66.0579
 11
160.583
 21
66.3573
  0
LINE
  8
0
 10
160.583
 20
66.3573
 11
161.292
 21
66.6127
  0
LINE
  8
0
 10
161.292
 20
66.6127
 11
162.016
 21
66.823
  0
LINE
  8
0
 10
162.016
 20
66.823
 11
162.751
 21
66.9874
  0
LINE
  8
0
 10
162.751
 20
66.9874
 11
163.496
 21
67.1054
  0
LINE
  8
0
 10
163.496
 20
67.1054
 11
164.247
 21
67.1763
  0
LINE
  8
0
 10
164.247
 20
67.1763
 11
165
 21
67.2
  0
LINE
  8
0
 10
165
 20
67.2
 11
165.753
 21
67.1763
  0
LINE
  8
0
 10
165.753
 20
67.1763
 11
166.504
 21
67.1054
  0
LINE
  8
0
 10
166.504
 20
67.1054
 11
167.249
 21
66.9874
  0
LINE
  8
0
 10
167.249
 20
66.9874
 11
167.984
 21
66.823
  0
LINE
  8
0
 10
167.984
 20
66.823
 11
168.708
 21
66.6127
  0
LINE
  8
0
 10
168.708
 20
66.6127
 11
169.417
 21
66.3573
  0
LINE
  8
0
 10
169.417
 20
66.3573
 11
170.109
 21
66.0579
  0
LINE
  8
0
 10
170.109
 20
66.0579
 11
170.781
 21
65.7157
  0
LINE
  8
0
 10
170.781
 20
65.7157
 11
171.43
 21
65.3319
  0
LINE
  8
0
 10
171.43
 20
65.3319
 11
172.053
 21
64.9082
  0
LINE
  8
0
 10
172.053
 20
64.9082
 11
172.649
 21
64.4462
  0
LINE
  8
0
 10
172.649
 20
64.4462
 11
173.215
 21
63.9476
  0
LINE
  8
0
 10
173.215
 20
63.9476
 11
173.748
 21
63.4146
  0
LINE
  8
0
 10
173.748
 20
63.4146
 11
174.246
 21
62.8491
  0
LINE
  8
0
 10
174.246
 20
62.8491
 11
174.708
 21
62.2534
  0
LINE
  8
0
 10
174.708
 20
62.2534
 11
175.132
 21
61.6299
  0
LINE
  8
0
 10
175.132
 20
61.6299
 11
175.516
 21
60.981
  0
LINE
  8
0
 10
175.516
 20
60.981
 11
175.858
 21
60.3093
  0
LINE
  8
0
 10
175.858
 20
60.3093
 11
176.157
 21
59.6175
  0
LINE
  8
0
 10
176.157
 20
59.6175
 11
176.413
 21
58.9082
  0
LINE
  8
0
 10
176.413
 20
58.9082
 11
176.623
 21
58.1843
  0
LINE
  8
0
 10
176.623
 20
58.1843
 11
176.787
 21
57.4486
  0
LINE
  8
0
 10
176.787
 20
57.4486
 11
176.905
 21
56.704
  0
LINE
  8
0
 10
176.905
 20
56.704
 11
176.976
 21
55.9535
  0
LINE
  8
0
 10
176.976
 20
55.9535
 11
177
 21
55.2
  0
LINE
  8
0
 10
177
 20
55.2
 11
176.976
 21
54.4465
  0
LINE
  8
0
 10
176.976
 20
54.4465
 11
176.905
 21
53.696
  0
LINE
  8
0
 10
176.905
 20
53.696
 11
176.787
 21
52.9514
  0
LINE
  8
0
 10
176.787
 20
52.9514
 11
176.623
 21
52.2157
  0
LINE
  8
0
 10
176.623
 20
52.2157
 11
176.413
 21
51.4918
  0
LINE
  8
0
 10
176.413
 20
51.4918
 11
176.157
 21
50.7825
  0
LINE
  8
0
 10
176.157
 20
50.7825
 11
175.858
 21
50.0906
  0
LINE
  8
0
 10
175.858
 20
50.0906
 11
175.516
 21
49.4189
  0
LINE
  8
0
 10
175.516
 20
49.4189
 11
175.132
 21
48.7701
  0
LINE
  8
0
 10
175.132
 20
48.7701
 11
174.708
 21
48.1466
  0
LINE
  8
0
 10
174.708
 20
48.1466
 11
174.246
 21
47.5509
  0
LINE
  8
0
 10
174.246
 20
47.5509
 11
173.748
 21
46.9854
  0
LINE
  8
0
 10
173.748
 20
46.9854
 11
173.215
 21
46.4524
  0
LINE
  8
0
 10
173.215
 20
46.4524
 11
172.649
 21
45.9538
  0
LINE
  8
0
 10
172.649
 20
45.9538
 11
172.053
 21
45.4918
  0
LINE
  8
0
 10
172.053
 20
45.4918
 11
171.43
 21
45.0681
  0
LINE
  8
0
 10
171.43
 20
45.0681
 11
170.781
 21
44.6843
  0
LINE
  8
0
 10
170.781
 20
44.6843
 11
170.109
 21
44.3421
  0
LINE
  8
0
 10
170.109
 20
44.3421
 11
169.417
 21
44.0427
  0
LINE
  8
0
 10
169.417
 20
44.0427
 11
168.708
 21
43.7873
  0
LINE
  8
0
 10
168.708
 20
43.7873
 11
167.984
 21
43.577
  0
LINE
  8
0
 10
167.984
 20
43.577
 11
167.249
 21
43.4126
  0
LINE
  8
0
 10
167.249
 20
43.4126
 11
166.504
 21
43.2946
  0
LINE
  8
0
 10
166.504
 20
43.2946
 11
165.753
 21
43.2237
  0
LINE
  8
0
 10
165.753
 20
43.2237
 11
165
 21
43.2
  0
LINE
  8
0
 10
165
 20
43.2
 11
164.247
 21
43.2237
  0
LINE
  8
0
 10
193.247
 20
43.2237
 11
192.496
 21
43.2946
  0
LINE
  8
0
 10
192.496
 20
43.2946
 11
191.751
 21
43.4126
  0
LINE
  8
0
 10
191.751
 20
43.4126
 11
191.016
 21
43.577
  0
LINE
  8
0
 10
191.016
 20
43.577
 11
190.292
 21
43.7873
  0
LINE
  8
0
 10
190.292
 20
43.7873
 11
189.583
 21
44.0427
  0
LINE
  8
0
 10
189.583
 20
44.0427
 11
188.891
 21
44.3421
  0
LINE
  8
0
 10
188.891
 20
44.3421
 11
188.219
 21
44.6843
  0
LINE
  8
0
 10
188.219
 20
44.6843
 11
187.57
 21
45.0681
  0
LINE
  8
0
 10
187.57
 20
45.0681
 11
186.947
 21
45.4918
  0
LINE
  8
0
 10
186.947
 20
45.4918
 11
186.351
 21
45.9538
  0
LINE
  8
0
 10
186.351
 20
45.9538
 11
185.785
 21
46.4524
  0
LINE
  8
0
 10
185.785
 20
46.4524
 11
185.252
 21
46.9854
  0
LINE
  8
0
 10
185.252
 20
46.9854
 11
184.754
 21
47.5509
  0
LINE
  8
0
 10
184.754
 20
47.5509
 11
184.292
 21
48.1466
  0
LINE
  8
0
 10
184.292
 20
48.1466
 11
183.868
 21
48.7701
  0
LINE
  8
0
 10
183.868
 20
48.7701
 11
183.484
 21
49.4189
  0
LINE
  8
0
 10
183.484
 20
49.4189
 11
183.142
 21
50.0906
  0
LINE
  8
0
 10
183.142
 20
50.0906
 11
182.843
 21
50.7825
  0
LINE
  8
0
 10
182.843
 20
50.7825
 11
182.587
 21
51.4918
  0
LINE
  8
0
 10
182.587
 20
51.4918
 11
182.377
 21
52.2157
  0
LINE
  8
0
 10
182.377
 20
52.2157
 11
182.213
 21
52.9514
  0
LINE
  8
0
 10
182.213
 20
52.9514
 11
182.095
 21
53.696
  0
LINE
  8
0
 10
182.095
 20
53.696
 11
182.024
 21
54.4465
  0
LINE
  8
0
 10
182.024
 20
54.4465
 11
182
 21
55.2
  0
LINE
  8
0
 10
182
 20
55.2
 11
182.024
 21
55.9535
  0
LINE
  8
0
 10
182.024
 20
55.9535
 11
182.095
 21
56.704
  0
LINE
  8
0
 10
182.095
 20
56.704
 11
182.213
 21
57.4486
  0
LINE
  8
0
 10
182.213
 20
57.4486
 11
182.377
 21
58.1843
  0
LINE
  8
0
 10
182.377
 20
58.1843
 11
182.587
 21
58.9082
  0
LINE
  8
0
 10
182.587
 20
58.9082
 11
182.843
 21
59.6175
  0
LINE
  8
0
 10
182.843
 20
59.6175
 11
183.142
 21
60.3093
  0
LINE
  8
0
 10
183.142
 20
60.3093
 11
183.484
 21
60.981
  0
LINE
  8
0
 10
183.484
 20
60.981
 11
183.868
 21
61.6299
  0
LINE
  8
0
 10
183.868
 20
61.6299
 11
184.292
 21
62.2534
  0
LINE
  8
0
 10
184.292
 20
62.2534
 11
184.754
 21
62.8491
  0
LINE
  8
0
 10
184.754
 20
62.8491
 11
185.252
 21
63.4146
  0
LINE
  8
0
 10
185.252
 20
63.4146
 11
185.785
 21
63.9476
  0
LINE
  8
0
 10
185.785
 20
63.9476
 11
186.351
 21
64.4462
  0
LINE
  8
0
 10
186.351
 20
64.4462
 11
186.947
 21
64.9082
  0
LINE
  8
0
 10
186.947
 20
64.9082
 11
187.57
 21
65.3319
  0
LINE
  8
0
 10
187.57
 20
65.3319
 11
188.219
 21
65.7157
  0
LINE
  8
0
 10
188.219
 20
65.7157
 11
188.891
 21
66.0579
  0
LINE
  8
0
 10
188.891
 20
66.0579
 11
189.583
 21
66.3573
  0
LINE
  8
0
 10
189.583
 20
66.3573
 11
190.292
 21
66.6127
  0
LINE
  8
0
 10
190.292
 20
66.6127
 11
191.016
 21
66.823
  0
LINE
  8
0
 10
191.016
 20
66.823
 11
191.751
 21
66.9874
  0
LINE
  8
0
 10
191.751
 20
66.9874
 11
192.496
 21
67.1054
  0
LINE
  8
0
 10
192.496
 20
67.1054
 11
193.247
 21
67.1763
  0
LINE
  8
0
 10
193.247
 20
67.1763
 11
194
 21
67.2
  0
LINE
  8
0
 10
194
 20
67.2
 11
194.753
 21
67.1763
  0
LINE
  8
0
 10
194.753
 20
67.1763
 11
195.504
 21
67.1054
  0
LINE
  8
0
 10
195.504
 20
67.1054
 11
196.249
 21
66.9874
  0
LINE
  8
0
 10
196.249
 20
66.9874
 11
196.984
 21
66.823
  0
LINE
  8
0
 10
196.984
 20
66.823
 11
197.708
 21
66.6127
  0
LINE
  8
0
 10
197.708
 20
66.6127
 11
198.417
 21
66.3573
  0
LINE
  8
0
 10
198.417
 20
66.3573
 11
199.109
 21
66.0579
  0
LINE
  8
0
 10
199.109
 20
66.0579
 11
199.781
 21
65.7157
  0
LINE
  8
0
 10
199.781
 20
65.7157
 11
200.43
 21
65.3319
  0
LINE
  8
0
 10
200.43
 20
65.3319
 11
201.053
 21
64.9082
  0
LINE
  8
0
 10
201.053
 20
64.9082
 11
201.649
 21
64.4462
  0
LINE
  8
0
 10
201.649
 20
64.4462
 11
202.215
 21
63.9476
  0
LINE
  8
0
 10
202.215
 20
63.9476
 11
202.748
 21
63.4146
  0
LINE
  8
0
 10
202.748
 20
63.4146
 11
203.246
 21
62.8491
  0
LINE
  8
0
 10
203.246
 20
62.8491
 11
203.708
 21
62.2534
  0
LINE
  8
0
 10
203.708
 20
62.2534
 11
204.132
 21
61.6299
  0
LINE
  8
0
 10
204.132
 20
61.6299
 11
204.516
 21
60.981
  0
LINE
  8
0
 10
204.516
 20
60.981
 11
204.858
 21
60.3093
  0
LINE
  8
0
 10
204.858
 20
60.3093
 11
205.157
 21
59.6175
  0
LINE
  8
0
 10
205.157
 20
59.6175
 11
205.413
 21
58.9082
  0
LINE
  8
0
 10
205.413
 20
58.9082
 11
205.623
 21
58.1843
  0
LINE
  8
0
 10
205.623
 20
58.1843
 11
205.787
 21
57.4486
  0
LINE
  8
0
 10
205.787
 20
57.4486
 11
205.905
 21
56.704
  0
LINE
  8
0
 10
205.905
 20
56.704
 11
205.976
 21
55.9535
  0
LINE
  8
0
 10
205.976
 20
55.9535
 11
206
 21
55.2
  0
LINE
  8
0
 10
206
 20
55.2
 11
205.976
 21
54.4465
  0
LINE
  8
0
 10
205.976
 20
54.4465
 11
205.905
 21
53.696
  0
LINE
  8
0
 10
205.905
 20
53.696
 11
205.787
 21
52.9514
  0
LINE
  8
0
 10
205.787
 20
52.9514
 11
205.623
 21
52.2157
  0
LINE
  8
0
 10
205.623
 20
52.2157
 11
205.413
 21
51.4918
  0
LINE
  8
0
 10
205.413
 20
51.4918
 11
205.157
 21
50.7825
  0
LINE
  8
0
 10
205.157
 20
50.7825
 11
204.858
 21
50.0906
  0
LINE
  8
0
 10
204.858
 20
50.0906
 11
204.516
 21
49.4189
  0
LINE
  8
0
 10
204.516
 20
49.4189
 11
204.132
 21
48.7701
  0
LINE
  8
0
 10
204.132
 20
48.7701
 11
203.708
 21
48.1466
  0
LINE
  8
0
 10
203.708
 20
48.1466
 11
203.246
 21
47.5509
  0
LINE
  8
0
 10
203.246
 20
47.5509
 11
202.748
 21
46.9854
  0
LINE
  8
0
 10
202.748
 20
46.9854
 11
202.215
 21
46.4524
  0
LINE
  8
0
 10
202.215
 20
46.4524
 11
201.649
 21
45.9538
  0
LINE
  8
0
 10
201.649
 20
45.9538
 11
201.053
 21
45.4918
  0
LINE
  8
0
 10
201.053
 20
45.4918
 11
200.43
 21
45.0681
  0
LINE
  8
0
 10
200.43
 20
45.0681
 11
199.781
 21
44.6843
  0
LINE
  8
0
 10
199.781
 20
44.6843
 11
199.109
 21
44.3421
  0
LINE
  8
0
 10
199.109
 20
44.3421
 11
198.417
 21
44.0427
  0
LINE
  8
0
 10
198.417
 20
44.0427
 11
197.708
 21
43.7873
  0
LINE
  8
0
 10
197.708
 20
43.7873
 11
196.984
 21
43.577
  0
LINE
  8
0
 10
196.984
 20
43.577
 11
196.249
 21
43.4126
  0
LINE
  8
0
 10
196.249
 20
43.4126
 11
195.504
 21
43.2946
  0
LINE
  8
0
 10
195.504
 20
43.2946
 11
194.753
 21
43.2237
  0
LINE
  8
0
 10
194.753
 20
43.2237
 11
194
 21
43.2
  0
LINE
  8
0
 10
194
 20
43.2
 11
193.247
 21
43.2237
  0
LINE
  8
0
 10
135.646
 20
42.9737
 11
134.896
 21
43.0446
  0
LINE
  8
0
 10
134.896
 20
43.0446
 11
134.151
 21
43.1626
  0
LINE
  8
0
 10
134.151
 20
43.1626
 11
133.416
 21
43.327
  0
LINE
  8
0
 10
133.416
 20
43.327
 11
132.692
 21
43.5373
  0
LINE
  8
0
 10
132.692
 20
43.5373
 11
131.982
 21
43.7927
  0
LINE
  8
0
 10
131.982
 20
43.7927
 11
131.291
 21
44.0921
  0
LINE
  8
0
 10
131.291
 20
44.0921
 11
130.619
 21
44.4343
  0
LINE
  8
0
 10
130.619
 20
44.4343
 11
129.97
 21
44.8181
  0
LINE
  8
0
 10
129.97
 20
44.8181
 11
129.347
 21
45.2418
  0
LINE
  8
0
 10
129.347
 20
45.2418
 11
128.751
 21
45.7038
  0
LINE
  8
0
 10
128.751
 20
45.7038
 11
128.185
 21
46.2024
  0
LINE
  8
0
 10
128.185
 20
46.2024
 11
127.652
 21
46.7354
  0
LINE
  8
0
 10
127.652
 20
46.7354
 11
127.154
 21
47.3009
  0
LINE
  8
0
 10
127.154
 20
47.3009
 11
126.692
 21
47.8966
  0
LINE
  8
0
 10
126.692
 20
47.8966
 11
126.268
 21
48.5201
  0
LINE
  8
0
 10
126.268
 20
48.5201
 11
125.884
 21
49.1689
  0
LINE
  8
0
 10
125.884
 20
49.1689
 11
125.542
 21
49.8406
  0
LINE
  8
0
 10
125.542
 20
49.8406
 11
125.243
 21
50.5325
  0
LINE
  8
0
 10
125.243
 20
50.5325
 11
124.987
 21
51.2418
  0
LINE
  8
0
 10
124.987
 20
51.2418
 11
124.777
 21
51.9657
  0
LINE
  8
0
 10
124.777
 20
51.9657
 11
124.613
 21
52.7014
  0
LINE
  8
0
 10
124.613
 20
52.7014
 11
124.495
 21
53.446
  0
LINE
  8
0
 10
124.495
 20
53.446
 11
124.424
 21
54.1965
  0
LINE
  8
0
 10
124.424
 20
54.1965
 11
124.4
 21
54.95
  0
LINE
  8
0
 10
124.4
 20
54.95
 11
124.424
 21
55.7035
  0
LINE
  8
0
 10
124.424
 20
55.7035
 11
124.495
 21
56.454
  0
LINE
  8
0
 10
124.495
 20
56.454
 11
124.613
 21
57.1986
  0
LINE
  8
0
 10
124.613
 20
57.1986
 11
124.777
 21
57.9343
  0
LINE
  8
0
 10
124.777
 20
57.9343
 11
124.987
 21
58.6582
  0
LINE
  8
0
 10
124.987
 20
58.6582
 11
125.243
 21
59.3675
  0
LINE
  8
0
 10
125.243
 20
59.3675
 11
125.542
 21
60.0593
  0
LINE
  8
0
 10
125.542
 20
60.0593
 11
125.884
 21
60.731
  0
LINE
  8
0
 10
125.884
 20
60.731
 11
126.268
 21
61.3799
  0
LINE
  8
0
 10
126.268
 20
61.3799
 11
126.692
 21
62.0034
  0
LINE
  8
0
 10
126.692
 20
62.0034
 11
127.154
 21
62.5991
  0
LINE
  8
0
 10
127.154
 20
62.5991
 11
127.652
 21
63.1646
  0
LINE
  8
0
 10
127.652
 20
63.1646
 11
128.185
 21
63.6976
  0
LINE
  8
0
 10
128.185
 20
63.6976
 11
128.751
 21
64.1962
  0
LINE
  8
0
 10
128.751
 20
64.1962
 11
129.347
 21
64.6582
  0
LINE
  8
0
 10
129.347
 20
64.6582
 11
129.97
 21
65.0819
  0
LINE
  8
0
 10
129.97
 20
65.0819
 11
130.619
 21
65.4657
  0
LINE
  8
0
 10
130.619
 20
65.4657
 11
131.291
 21
65.8079
  0
LINE
  8
0
 10
131.291
 20
65.8079
 11
131.982
 21
66.1073
  0
LINE
  8
0
 10
131.982
 20
66.1073
 11
132.692
 21
66.3627
  0
LINE
  8
0
 10
132.692
 20
66.3627
 11
133.416
 21
66.573
  0
LINE
  8
0
 10
133.416
 20
66.573
 11
134.151
 21
66.7374
  0
LINE
  8
0
 10
134.151
 20
66.7374
 11
134.896
 21
66.8554
  0
LINE
  8
0
 10
134.896
 20
66.8554
 11
135.646
 21
66.9263
  0
LINE
  8
0
 10
135.646
 20
66.9263
 11
136.4
 21
66.95
  0
LINE
  8
0
 10
136.4
 20
66.95
 11
137.153
 21
66.9263
  0
LINE
  8
0
 10
137.153
 20
66.9263
 11
137.904
 21
66.8554
  0
LINE
  8
0
 10
137.904
 20
66.8554
 11
138.649
 21
66.7374
  0
LINE
  8
0
 10
138.649
 20
66.7374
 11
139.384
 21
66.573
  0
LINE
  8
0
 10
139.384
 20
66.573
 11
140.108
 21
66.3627
  0
LINE
  8
0
 10
140.108
 20
66.3627
 11
140.817
 21
66.1073
  0
LINE
  8
0
 10
140.817
 20
66.1073
 11
141.509
 21
65.8079
  0
LINE
  8
0
 10
141.509
 20
65.8079
 11
142.181
 21
65.4657
  0
LINE
  8
0
 10
142.181
 20
65.4657
 11
142.83
 21
65.0819
  0
LINE
  8
0
 10
142.83
 20
65.0819
 11
143.453
 21
64.6582
  0
LINE
  8
0
 10
143.453
 20
64.6582
 11
144.049
 21
64.1962
  0
LINE
  8
0
 10
144.049
 20
64.1962
 11
144.615
 21
63.6976
  0
LINE
  8
0
 10
144.615
 20
63.6976
 11
145.148
 21
63.1646
  0
LINE
  8
0
 10
145.148
 20
63.1646
 11
145.646
 21
62.5991
  0
LINE
  8
0
 10
145.646
 20
62.5991
 11
146.108
 21
62.0034
  0
LINE
  8
0
 10
146.108
 20
62.0034
 11
146.532
 21
61.3799
  0
LINE
  8
0
 10
146.532
 20
61.3799
 11
146.916
 21
60.731
  0
LINE
  8
0
 10
146.916
 20
60.731
 11
147.258
 21
60.0593
  0
LINE
  8
0
 10
147.258
 20
60.0593
 11
147.557
 21
59.3675
  0
LINE
  8
0
 10
147.557
 20
59.3675
 11
147.813
 21
58.6582
  0
LINE
  8
0
 10
147.813
 20
58.6582
 11
148.023
 21
57.9343
  0
LINE
  8
0
 10
148.023
 20
57.9343
 11
148.187
 21
57.1986
  0
LINE
  8
0
 10
148.187
 20
57.1986
 11
148.305
 21
56.454
  0
LINE
  8
0
 10
148.305
 20
56.454
 11
148.376
 21
55.7035
  0
LINE
  8
0
 10
148.376
 20
55.7035
 11
148.4
 21
54.95
  0
LINE
  8
0
 10
148.4
 20
54.95
 11
148.376
 21
54.1965
  0
LINE
  8
0
 10
148.376
 20
54.1965
 11
148.305
 21
53.446
  0
LINE
  8
0
 10
148.305
 20
53.446
 11
148.187
 21
52.7014
  0
LINE
  8
0
 10
148.187
 20
52.7014
 11
148.023
 21
51.9657
  0
LINE
  8
0
 10
148.023
 20
51.9657
 11
147.813
 21
51.2418
  0
LINE
  8
0
 10
147.813
 20
51.2418
 11
147.557
 21
50.5325
  0
LINE
  8
0
 10
147.557
 20
50.5325
 11
147.258
 21
49.8406
  0
LINE
  8
0
 10
147.258
 20
49.8406
 11
146.916
 21
49.1689
  0
LINE
  8
0
 10
146.916
 20
49.1689
 11
146.532
 21
48.5201
  0
LINE
  8
0
 10
146.532
 20
48.5201
 11
146.108
 21
47.8966
  0
LINE
  8
0
 10
146.108
 20
47.8966
 11
145.646
 21
47.3009
  0
LINE
  8
0
 10
145.646
 20
47.3009
 11
145.148
 21
46.7354
  0
LINE
  8
0
 10
145.148
 20
46.7354
 11
144.615
 21
46.2024
  0
LINE
  8
0
 10
144.615
 20
46.2024
 11
144.049
 21
45.7038
  0
LINE
  8
0
 10
144.049
 20
45.7038
 11
143.453
 21
45.2418
  0
LINE
  8
0
 10
143.453
 20
45.2418
 11
142.83
 21
44.8181
  0
LINE
  8
0
 10
142.83
 20
44.8181
 11
142.181
 21
44.4343
  0
LINE
  8
0
 10
142.181
 20
44.4343
 11
141.509
 21
44.0921
  0
LINE
  8
0
 10
141.509
 20
44.0921
 11
140.817
 21
43.7927
  0
LINE
  8
0
 10
140.817
 20
43.7927
 11
140.108
 21
43.5373
  0
LINE
  8
0
 10
140.108
 20
43.5373
 11
139.384
 21
43.327
  0
LINE
  8
0
 10
139.384
 20
43.327
 11
138.649
 21
43.1626
  0
LINE
  8
0
 10
138.649
 20
43.1626
 11
137.904
 21
43.0446
  0
LINE
  8
0
 10
137.904
 20
43.0446
 11
137.153
 21
42.9737
  0
LINE
  8
0
 10
137.153
 20
42.9737
 11
136.4
 21
42.95
  0
LINE
  8
0
 10
136.4
 20
42.95
 11
135.646
 21
42.9737
  0
LINE
  8
0
 10
14.2465
 20
39.7237
 11
13.496
 21
39.7946
  0
LINE
  8
0
 10
13.496
 20
39.7946
 11
12.7514
 21
39.9126
  0
LINE
  8
0
 10
12.7514
 20
39.9126
 11
12.0157
 21
40.077
  0
LINE
  8
0
 10
12.0157
 20
40.077
 11
11.2918
 21
40.2873
  0
LINE
  8
0
 10
11.2918
 20
40.2873
 11
10.5825
 21
40.5427
  0
LINE
  8
0
 10
10.5825
 20
40.5427
 11
9.89064
 21
40.8421
  0
LINE
  8
0
 10
9.89064
 20
40.8421
 11
9.21895
 21
41.1843
  0
LINE
  8
0
 10
9.21895
 20
41.1843
 11
8.57007
 21
41.5681
  0
LINE
  8
0
 10
8.57007
 20
41.5681
 11
7.94656
 21
41.9918
  0
LINE
  8
0
 10
7.94656
 20
41.9918
 11
7.35091
 21
42.4538
  0
LINE
  8
0
 10
7.35091
 20
42.4538
 11
6.78543
 21
42.9524
  0
LINE
  8
0
 10
6.78543
 20
42.9524
 11
6.25237
 21
43.4854
  0
LINE
  8
0
 10
6.25237
 20
43.4854
 11
5.75383
 21
44.0509
  0
LINE
  8
0
 10
5.75383
 20
44.0509
 11
5.29179
 21
44.6466
  0
LINE
  8
0
 10
5.29179
 20
44.6466
 11
4.86806
 21
45.2701
  0
LINE
  8
0
 10
4.86806
 20
45.2701
 11
4.48431
 21
45.9189
  0
LINE
  8
0
 10
4.48431
 20
45.9189
 11
4.14207
 21
46.5906
  0
LINE
  8
0
 10
4.14207
 20
46.5906
 11
3.84268
 21
47.2825
  0
LINE
  8
0
 10
3.84268
 20
47.2825
 11
3.58731
 21
47.9918
  0
LINE
  8
0
 10
3.58731
 20
47.9918
 11
3.377
 21
48.7157
  0
LINE
  8
0
 10
3.377
 20
48.7157
 11
3.21254
 21
49.4514
  0
LINE
  8
0
 10
3.21254
 20
49.4514
 11
3.09462
 21
50.196
  0
LINE
  8
0
 10
3.09462
 20
50.196
 11
3.02367
 21
50.9465
  0
LINE
  8
0
 10
3.02367
 20
50.9465
 11
3
 21
51.7
  0
LINE
  8
0
 10
3
 20
51.7
 11
3.02367
 21
52.4535
  0
LINE
  8
0
 10
3.02367
 20
52.4535
 11
3.09462
 21
53.204
  0
LINE
  8
0
 10
3.09462
 20
53.204
 11
3.21254
 21
53.9486
  0
LINE
  8
0
 10
3.21254
 20
53.9486
 11
3.377
 21
54.6843
  0
LINE
  8
0
 10
3.377
 20
54.6843
 11
3.58731
 21
55.4082
  0
LINE
  8
0
 10
3.58731
 20
55.4082
 11
3.84268
 21
56.1175
  0
LINE
  8
0
 10
3.84268
 20
56.1175
 11
4.14207
 21
56.8093
  0
LINE
  8
0
 10
4.14207
 20
56.8093
 11
4.48431
 21
57.481
  0
LINE
  8
0
 10
4.48431
 20
57.481
 11
4.86806
 21
58.1299
  0
LINE
  8
0
 10
4.86806
 20
58.1299
 11
5.29179
 21
58.7534
  0
LINE
  8
0
 10
5.29179
 20
58.7534
 11
5.75383
 21
59.3491
  0
LINE
  8
0
 10
5.75383
 20
59.3491
 11
6.25237
 21
59.9146
  0
LINE
  8
0
 10
6.25237
 20
59.9146
 11
6.78543
 21
60.4476
  0
LINE
  8
0
 10
6.78543
 20
60.4476
 11
7.35091
 21
60.9462
  0
LINE
  8
0
 10
7.35091
 20
60.9462
 11
7.94656
 21
61.4082
  0
LINE
  8
0
 10
7.94656
 20
61.4082
 11
8.57007
 21
61.8319
  0
LINE
  8
0
 10
8.57007
 20
61.8319
 11
9.21895
 21
62.2157
  0
LINE
  8
0
 10
9.21895
 20
62.2157
 11
9.89064
 21
62.5579
  0
LINE
  8
0
 10
9.89064
 20
62.5579
 11
10.5825
 21
62.8573
  0
LINE
  8
0
 10
10.5825
 20
62.8573
 11
11.2918
 21
63.1127
  0
LINE
  8
0
 10
11.2918
 20
63.1127
 11
12.0157
 21
63.323
  0
LINE
  8
0
 10
12.0157
 20
63.323
 11
12.7514
 21
63.4874
  0
LINE
  8
0
 10
12.7514
 20
63.4874
 11
13.496
 21
63.6054
  0
LINE
  8
0
 10
13.496
 20
63.6054
 11
14.2465
 21
63.6763
  0
LINE
  8
0
 10
14.2465
 20
63.6763
 11
15
 21
63.7
  0
LINE
  8
0
 10
15
 20
63.7
 11
15.7535
 21
63.6763
  0
LINE
  8
0
 10
15.7535
 20
63.6763
 11
16.504
 21
63.6054
  0
LINE
  8
0
 10
16.504
 20
63.6054
 11
17.2486
 21
63.4874
  0
LINE
  8
0
 10
17.2486
 20
63.4874
 11
17.9843
 21
63.323
  0
LINE
  8
0
 10
17.9843
 20
63.323
 11
18.7082
 21
63.1127
  0
LINE
  8
0
 10
18.7082
 20
63.1127
 11
19.4175
 21
62.8573
  0
LINE
  8
0
 10
19.4175
 20
62.8573
 11
20.1093
 21
62.5579
  0
LINE
  8
0
 10
20.1093
 20
62.5579
 11
20.781
 21
62.2157
  0
LINE
  8
0
 10
20.781
 20
62.2157
 11
21.4299
 21
61.8319
  0
LINE
  8
0
 10
21.4299
 20
61.8319
 11
22.0534
 21
61.4082
  0
LINE
  8
0
 10
22.0534
 20
61.4082
 11
22.6491
 21
60.9462
  0
LINE
  8
0
 10
22.6491
 20
60.9462
 11
23.2146
 21
60.4476
  0
LINE
  8
0
 10
23.2146
 20
60.4476
 11
23.7476
 21
59.9146
  0
LINE
  8
0
 10
23.7476
 20
59.9146
 11
24.2462
 21
59.3491
  0
LINE
  8
0
 10
24.2462
 20
59.3491
 11
24.7082
 21
58.7534
  0
LINE
  8
0
 10
24.7082
 20
58.7534
 11
25.1319
 21
58.1299
  0
LINE
  8
0
 10
25.1319
 20
58.1299
 11
25.5157
 21
57.481
  0
LINE
  8
0
 10
25.5157
 20
57.481
 11
25.8579
 21
56.8093
  0
LINE
  8
0
 10
25.8579
 20
56.8093
 11
26.1573
 21
56.1175
  0
LINE
  8
0
 10
26.1573
 20
56.1175
 11
26.4127
 21
55.4082
  0
LINE
  8
0
 10
26.4127
 20
55.4082
 11
26.623
 21
54.6843
  0
LINE
  8
0
 10
26.623
 20
54.6843
 11
26.7874
 21
53.9486
  0
LINE
  8
0
 10
26.7874
 20
53.9486
 11
26.9054
 21
53.204
  0
LINE
  8
0
 10
26.9054
 20
53.204
 11
26.9763
 21
52.4535
  0
LINE
  8
0
 10
26.9763
 20
52.4535
 11
27
 21
51.7
  0
LINE
  8
0
 10
27
 20
51.7
 11
26.9763
 21
50.9465
  0
LINE
  8
0
 10
26.9763
 20
50.9465
 11
26.9054
 21
50.196
  0
LINE
  8
0
 10
26.9054
 20
50.196
 11
26.7874
 21
49.4514
  0
LINE
  8
0
 10
26.7874
 20
49.4514
 11
26.623
 21
48.7157
  0
LINE
  8
0
 10
26.623
 20
48.7157
 11
26.4127
 21
47.9918
  0
LINE
  8
0
 10
26.4127
 20
47.9918
 11
26.1573
 21
47.2825
  0
LINE
  8
0
 10
26.1573
 20
47.2825
 11
25.8579
 21
46.5906
  0
LINE
  8
0
 10
25.8579
 20
46.5906
 11
25.5157
 21
45.9189
  0
LINE
  8
0
 10
25.5157
 20
45.9189
 11
25.1319
 21
45.2701
  0
LINE
  8
0
 10
25.1319
 20
45.2701
 11
24.7082
 21
44.6466
  0
LINE
  8
0
 10
24.7082
 20
44.6466
 11
24.2462
 21
44.0509
  0
LINE
  8
0
 10
24.2462
 20
44.0509
 11
23.7476
 21
43.4854
  0
LINE
  8
0
 10
23.7476
 20
43.4854
 11
23.2146
 21
42.9524
  0
LINE
  8
0
 10
23.2146
 20
42.9524
 11
22.6491
 21
42.4538
  0
LINE
  8
0
 10
22.6491
 20
42.4538
 11
22.0534
 21
41.9918
  0
LINE
  8
0
 10
22.0534
 20
41.9918
 11
21.4299
 21
41.5681
  0
LINE
  8
0
 10
21.4299
 20
41.5681
 11
20.781
 21
41.1843
  0
LINE
  8
0
 10
20.781
 20
41.1843
 11
20.1093
 21
40.8421
  0
LINE
  8
0
 10
20.1093
 20
40.8421
 11
19.4175
 21
40.5427
  0
LINE
  8
0
 10
19.4175
 20
40.5427
 11
18.7082
 21
40.2873
  0
LINE
  8
0
 10
18.7082
 20
40.2873
 11
17.9843
 21
40.077
  0
LINE
  8
0
 10
17.9843
 20
40.077
 11
17.2486
 21
39.9126
  0
LINE
  8
0
 10
17.2486
 20
39.9126
 11
16.504
 21
39.7946
  0
LINE
  8
0
 10
16.504
 20
39.7946
 11
15.7535
 21
39.7237
  0
LINE
  8
0
 10
15.7535
 20
39.7237
 11
15
 21
39.7
  0
LINE
  8
0
 10
15
 20
39.7
 11
14.2465
 21
39.7237
  0
LINE
  8
0
 10
106.747
 20
37.7087
 11
105.996
 21
37.7796
  0
LINE
  8
0
 10
105.996
 20
37.7796
 11
105.251
 21
37.8976
  0
LINE
  8
0
 10
105.251
 20
37.8976
 11
104.516
 21
38.062
  0
LINE
  8
0
 10
104.516
 20
38.062
 11
103.792
 21
38.2723
  0
LINE
  8
0
 10
103.792
 20
38.2723
 11
103.083
 21
38.5277
  0
LINE
  8
0
 10
103.083
 20
38.5277
 11
102.391
 21
38.8271
  0
LINE
  8
0
 10
102.391
 20
38.8271
 11
101.719
 21
39.1693
  0
LINE
  8
0
 10
101.719
 20
39.1693
 11
101.07
 21
39.5531
  0
LINE
  8
0
 10
101.07
 20
39.5531
 11
100.447
 21
39.9768
  0
LINE
  8
0
 10
100.447
 20
39.9768
 11
99.8509
 21
40.4388
  0
LINE
  8
0
 10
99.8509
 20
40.4388
 11
99.2854
 21
40.9374
  0
LINE
  8
0
 10
99.2854
 20
40.9374
 11
98.7524
 21
41.4704
  0
LINE
  8
0
 10
98.7524
 20
41.4704
 11
98.2538
 21
42.0359
  0
LINE
  8
0
 10
98.2538
 20
42.0359
 11
97.7918
 21
42.6316
  0
LINE
  8
0
 10
97.7918
 20
42.6316
 11
97.3681
 21
43.2551
  0
LINE
  8
0
 10
97.3681
 20
43.2551
 11
96.9843
 21
43.9039
  0
LINE
  8
0
 10
96.9843
 20
43.9039
 11
96.6421
 21
44.5756
  0
LINE
  8
0
 10
96.6421
 20
44.5756
 11
96.3427
 21
45.2675
  0
LINE
  8
0
 10
96.3427
 20
45.2675
 11
96.0873
 21
45.9768
  0
LINE
  8
0
 10
96.0873
 20
45.9768
 11
95.877
 21
46.7007
  0
LINE
  8
0
 10
95.877
 20
46.7007
 11
95.7125
 21
47.4364
  0
LINE
  8
0
 10
95.7125
 20
47.4364
 11
95.5946
 21
48.181
  0
LINE
  8
0
 10
95.5946
 20
48.181
 11
95.5237
 21
48.9315
  0
LINE
  8
0
 10
95.5237
 20
48.9315
 11
95.5
 21
49.685
  0
LINE
  8
0
 10
95.5
 20
49.685
 11
95.5237
 21
50.4385
  0
LINE
  8
0
 10
95.5237
 20
50.4385
 11
95.5946
 21
51.189
  0
LINE
  8
0
 10
95.5946
 20
51.189
 11
95.7125
 21
51.9336
  0
LINE
  8
0
 10
95.7125
 20
51.9336
 11
95.877
 21
52.6693
  0
LINE
  8
0
 10
95.877
 20
52.6693
 11
96.0873
 21
53.3932
  0
LINE
  8
0
 10
96.0873
 20
53.3932
 11
96.3427
 21
54.1025
  0
LINE
  8
0
 10
96.3427
 20
54.1025
 11
96.6421
 21
54.7943
  0
LINE
  8
0
 10
96.6421
 20
54.7943
 11
96.9843
 21
55.466
  0
LINE
  8
0
 10
96.9843
 20
55.466
 11
97.3681
 21
56.1149
  0
LINE
  8
0
 10
97.3681
 20
56.1149
 11
97.7918
 21
56.7384
  0
LINE
  8
0
 10
97.7918
 20
56.7384
 11
98.2538
 21
57.3341
  0
LINE
  8
0
 10
98.2538
 20
57.3341
 11
98.7524
 21
57.8996
  0
LINE
  8
0
 10
98.7524
 20
57.8996
 11
99.2854
 21
58.4326
  0
LINE
  8
0
 10
99.2854
 20
58.4326
 11
99.8509
 21
58.9312
  0
LINE
  8
0
 10
99.8509
 20
58.9312
 11
100.447
 21
59.3932
  0
LINE
  8
0
 10
100.447
 20
59.3932
 11
101.07
 21
59.8169
  0
LINE
  8
0
 10
101.07
 20
59.8169
 11
101.719
 21
60.2007
  0
LINE
  8
0
 10
101.719
 20
60.2007
 11
102.391
 21
60.5429
  0
LINE
  8
0
 10
102.391
 20
60.5429
 11
103.083
 21
60.8423
  0
LINE
  8
0
 10
103.083
 20
60.8423
 11
103.792
 21
61.0977
  0
LINE
  8
0
 10
103.792
 20
61.0977
 11
104.516
 21
61.308
  0
LINE
  8
0
 10
104.516
 20
61.308
 11
105.251
 21
61.4724
  0
LINE
  8
0
 10
105.251
 20
61.4724
 11
105.996
 21
61.5904
  0
LINE
  8
0
 10
105.996
 20
61.5904
 11
106.747
 21
61.6613
  0
LINE
  8
0
 10
106.747
 20
61.6613
 11
107.5
 21
61.685
  0
LINE
  8
0
 10
107.5
 20
61.685
 11
108.253
 21
61.6613
  0
LINE
  8
0
 10
108.253
 20
61.6613
 11
109.004
 21
61.5904
  0
LINE
  8
0
 10
109.004
 20
61.5904
 11
109.749
 21
61.4724
  0
LINE
  8
0
 10
109.749
 20
61.4724
 11
110.484
 21
61.308
  0
LINE
  8
0
 10
110.484
 20
61.308
 11
111.208
 21
61.0977
  0
LINE
  8
0
 10
111.208
 20
61.0977
 11
111.917
 21
60.8423
  0
LINE
  8
0
 10
111.917
 20
60.8423
 11
112.609
 21
60.5429
  0
LINE
  8
0
 10
112.609
 20
60.5429
 11
113.281
 21
60.2007
  0
LINE
  8
0
 10
113.281
 20
60.2007
 11
113.93
 21
59.8169
  0
LINE
  8
0
 10
113.93
 20
59.8169
 11
114.553
 21
59.3932
  0
LINE
  8
0
 10
114.553
 20
59.3932
 11
115.149
 21
58.9312
  0
LINE
  8
0
 10
115.149
 20
58.9312
 11
115.715
 21
58.4326
  0
LINE
  8
0
 10
115.715
 20
58.4326
 11
116.248
 21
57.8996
  0
LINE
  8
0
 10
116.248
 20
57.8996
 11
116.746
 21
57.3341
  0
LINE
  8
0
 10
116.746
 20
57.3341
 11
117.208
 21
56.7384
  0
LINE
  8
0
 10
117.208
 20
56.7384
 11
117.632
 21
56.1149
  0
LINE
  8
0
 10
117.632
 20
56.1149
 11
118.016
 21
55.466
  0
LINE
  8
0
 10
118.016
 20
55.466
 11
118.358
 21
54.7943
  0
LINE
  8
0
 10
118.358
 20
54.7943
 11
118.657
 21
54.1025
  0
LINE
  8
0
 10
118.657
 20
54.1025
 11
118.913
 21
53.3932
  0
LINE
  8
0
 10
118.913
 20
53.3932
 11
119.123
 21
52.6693
  0
LINE
  8
0
 10
119.123
 20
52.6693
 11
119.287
 21
51.9336
  0
LINE
  8
0
 10
119.287
 20
51.9336
 11
119.405
 21
51.189
  0
LINE
  8
0
 10
119.405
 20
51.189
 11
119.476
 21
50.4385
  0
LINE
  8
0
 10
119.476
 20
50.4385
 11
119.5
 21
49.685
  0
LINE
  8
0
 10
119.5
 20
49.685
 11
119.476
 21
48.9315
  0
LINE
  8
0
 10
119.476
 20
48.9315
 11
119.405
 21
48.181
  0
LINE
  8
0
 10
119.405
 20
48.181
 11
119.287
 21
47.4364
  0
LINE
  8
0
 10
119.287
 20
47.4364
 11
119.123
 21
46.7007
  0
LINE
  8
0
 10
119.123
 20
46.7007
 11
118.913
 21
45.9768
  0
LINE
  8
0
 10
118.913
 20
45.9768
 11
118.657
 21
45.2675
  0
LINE
  8
0
 10
118.657
 20
45.2675
 11
118.358
 21
44.5756
  0
LINE
  8
0
 10
118.358
 20
44.5756
 11
118.016
 21
43.9039
  0
LINE
  8
0
 10
118.016
 20
43.9039
 11
117.632
 21
43.2551
  0
LINE
  8
0
 10
117.632
 20
43.2551
 11
117.208
 21
42.6316
  0
LINE
  8
0
 10
117.208
 20
42.6316
 11
116.746
 21
42.0359
  0
LINE
  8
0
 10
116.746
 20
42.0359
 11
116.248
 21
41.4704
  0
LINE
  8
0
 10
116.248
 20
41.4704
 11
115.715
 21
40.9374
  0
LINE
  8
0
 10
115.715
 20
40.9374
 11
115.149
 21
40.4388
  0
LINE
  8
0
 10
115.149
 20
40.4388
 11
114.553
 21
39.9768
  0
LINE
  8
0
 10
114.553
 20
39.9768
 11
113.93
 21
39.5531
  0
LINE
  8
0
 10
113.93
 20
39.5531
 11
113.281
 21
39.1693
  0
LINE
  8
0
 10
113.281
 20
39.1693
 11
112.609
 21
38.8271
  0
LINE
  8
0
 10
112.609
 20
38.8271
 11
111.917
 21
38.5277
  0
LINE
  8
0
 10
111.917
 20
38.5277
 11
111.208
 21
38.2723
  0
LINE
  8
0
 10
111.208
 20
38.2723
 11
110.484
 21
38.062
  0
LINE
  8
0
 10
110.484
 20
38.062
 11
109.749
 21
37.8976
  0
LINE
  8
0
 10
109.749
 20
37.8976
 11
109.004
 21
37.7796
  0
LINE
  8
0
 10
109.004
 20
37.7796
 11
108.253
 21
37.7087
  0
LINE
  8
0
 10
108.253
 20
37.7087
 11
107.5
 21
37.685
  0
LINE
  8
0
 10
107.5
 20
37.685
 11
106.747
 21
37.7087
  0
LINE
  8
0
 10
125.747
 20
15.8237
 11
124.996
 21
15.8946
  0
LINE
  8
0
 10
124.996
 20
15.8946
 11
124.251
 21
16.0125
  0
LINE
  8
0
 10
124.251
 20
16.0125
 11
123.516
 21
16.177
  0
LINE
  8
0
 10
123.516
 20
16.177
 11
122.792
 21
16.3873
  0
LINE
  8
0
 10
122.792
 20
16.3873
 11
122.083
 21
16.6427
  0
LINE
  8
0
 10
122.083
 20
16.6427
 11
121.391
 21
16.9421
  0
LINE
  8
0
 10
121.391
 20
16.9421
 11
120.719
 21
17.2843
  0
LINE
  8
0
 10
120.719
 20
17.2843
 11
120.07
 21
17.6681
  0
LINE
  8
0
 10
120.07
 20
17.6681
 11
119.447
 21
18.0918
  0
LINE
  8
0
 10
119.447
 20
18.0918
 11
118.851
 21
18.5538
  0
LINE
  8
0
 10
118.851
 20
18.5538
 11
118.285
 21
19.0524
  0
LINE
  8
0
 10
118.285
 20
19.0524
 11
117.752
 21
19.5854
  0
LINE
  8
0
 10
117.752
 20
19.5854
 11
117.254
 21
20.1509
  0
LINE
  8
0
 10
117.254
 20
20.1509
 11
116.792
 21
20.7466
  0
LINE
  8
0
 10
116.792
 20
20.7466
 11
116.368
 21
21.3701
  0
LINE
  8
0
 10
116.368
 20
21.3701
 11
115.984
 21
22.019
  0
LINE
  8
0
 10
115.984
 20
22.019
 11
115.642
 21
22.6906
  0
LINE
  8
0
 10
115.642
 20
22.6906
 11
115.343
 21
23.3825
  0
LINE
  8
0
 10
115.343
 20
23.3825
 11
115.087
 21
24.0918
  0
LINE
  8
0
 10
115.087
 20
24.0918
 11
114.877
 21
24.8157
  0
LINE
  8
0
 10
114.877
 20
24.8157
 11
114.713
 21
25.5514
  0
LINE
  8
0
 10
114.713
 20
25.5514
 11
114.595
 21
26.296
  0
LINE
  8
0
 10
114.595
 20
26.296
 11
114.524
 21
27.0465
  0
LINE
  8
0
 10
114.524
 20
27.0465
 11
114.5
 21
27.8
  0
LINE
  8
0
 10
114.5
 20
27.8
 11
114.524
 21
28.5535
  0
LINE
  8
0
 10
114.524
 20
28.5535
 11
114.595
 21
29.304
  0
LINE
  8
0
 10
114.595
 20
29.304
 11
114.713
 21
30.0486
  0
LINE
  8
0
 10
114.713
 20
30.0486
 11
114.877
 21
30.7843
  0
LINE
  8
0
 10
114.877
 20
30.7843
 11
115.087
 21
31.5082
  0
LINE
  8
0
 10
115.087
 20
31.5082
 11
115.343
 21
32.2175
  0
LINE
  8
0
 10
115.343
 20
32.2175
 11
115.642
 21
32.9093
  0
LINE
  8
0
 10
115.642
 20
32.9093
 11
115.984
 21
33.581
  0
LINE
  8
0
 10
115.984
 20
33.581
 11
116.368
 21
34.2299
  0
LINE
  8
0
 10
116.368
 20
34.2299
 11
116.792
 21
34.8534
  0
LINE
  8
0
 10
116.792
 20
34.8534
 11
117.254
 21
35.4491
  0
LINE
  8
0
 10
117.254
 20
35.4491
 11
117.752
 21
36.0146
  0
LINE
  8
0
 10
117.752
 20
36.0146
 11
118.285
 21
36.5476
  0
LINE
  8
0
 10
118.285
 20
36.5476
 11
118.851
 21
37.0462
  0
LINE
  8
0
 10
118.851
 20
37.0462
 11
119.447
 21
37.5082
  0
LINE
  8
0
 10
119.447
 20
37.5082
 11
120.07
 21
37.9319
  0
LINE
  8
0
 10
120.07
 20
37.9319
 11
120.719
 21
38.3157
  0
LINE
  8
0
 10
120.719
 20
38.3157
 11
121.391
 21
38.6579
  0
LINE
  8
0
 10
121.391
 20
38.6579
 11
122.083
 21
38.9573
  0
LINE
  8
0
 10
122.083
 20
38.9573
 11
122.792
 21
39.2127
  0
LINE
  8
0
 10
122.792
 20
39.2127
 11
123.516
 21
39.423
  0
LINE
  8
0
 10
123.516
 20
39.423
 11
124.251
 21
39.5874
  0
LINE
  8
0
 10
124.251
 20
39.5874
 11
124.996
 21
39.7054
  0
LINE
  8
0
 10
124.996
 20
39.7054
 11
125.747
 21
39.7763
  0
LINE
  8
0
 10
125.747
 20
39.7763
 11
126.5
 21
39.8
  0
LINE
  8
0
 10
126.5
 20
39.8
 11
127.253
 21
39.7763
  0
LINE
  8
0
 10
127.253
 20
39.7763
 11
128.004
 21
39.7054
  0
LINE
  8
0
 10
128.004
 20
39.7054
 11
128.749
 21
39.5874
  0
LINE
  8
0
 10
128.749
 20
39.5874
 11
129.484
 21
39.423
  0
LINE
  8
0
 10
129.484
 20
39.423
 11
130.208
 21
39.2127
  0
LINE
  8
0
 10
130.208
 20
39.2127
 11
130.917
 21
38.9573
  0
LINE
  8
0
 10
130.917
 20
38.9573
 11
131.609
 21
38.6579
  0
LINE
  8
0
 10
131.609
 20
38.6579
 11
132.281
 21
38.3157
  0
LINE
  8
0
 10
132.281
 20
38.3157
 11
132.93
 21
37.9319
  0
LINE
  8
0
 10
132.93
 20
37.9319
 11
133.553
 21
37.5082
  0
LINE
  8
0
 10
133.553
 20
37.5082
 11
134.149
 21
37.0462
  0
LINE
  8
0
 10
134.149
 20
37.0462
 11
134.715
 21
36.5476
  0
LINE
  8
0
 10
134.715
 20
36.5476
 11
135.248
 21
36.0146
  0
LINE
  8
0
 10
135.248
 20
36.0146
 11
135.746
 21
35.4491
  0
LINE
  8
0
 10
135.746
 20
35.4491
 11
136.208
 21
34.8534
  0
LINE
  8
0
 10
136.208
 20
34.8534
 11
136.632
 21
34.2299
  0
LINE
  8
0
 10
136.632
 20
34.2299
 11
137.016
 21
33.581
  0
LINE
  8
0
 10
137.016
 20
33.581
 11
137.358
 21
32.9093
  0
LINE
  8
0
 10
137.358
 20
32.9093
 11
137.657
 21
32.2175
  0
LINE
  8
0
 10
137.657
 20
32.2175
 11
137.913
 21
31.5082
  0
LINE
  8
0
 10
137.913
 20
31.5082
 11
138.123
 21
30.7843
  0
LINE
  8
0
 10
138.123
 20
30.7843
 11
138.287
 21
30.0486
  0
LINE
  8
0
 10
138.287
 20
30.0486
 11
138.405
 21
29.304
  0
LINE
  8
0
 10
138.405
 20
29.304
 11
138.476
 21
28.5535
  0
LINE
  8
0
 10
138.476
 20
28.5535
 11
138.5
 21
27.8
  0
LINE
  8
0
 10
138.5
 20
27.8
 11
138.476
 21
27.0465
  0
LINE
  8
0
 10
138.476
 20
27.0465
 11
138.405
 21
26.296
  0
LINE
  8
0
 10
138.405
 20
26.296
 11
138.287
 21
25.5514
  0
LINE
  8
0
 10
138.287
 20
25.5514
 11
138.123
 21
24.8157
  0
LINE
  8
0
 10
138.123
 20
24.8157
 11
137.913
 21
24.0918
  0
LINE
  8
0
 10
137.913
 20
24.0918
 11
137.657
 21
23.3825
  0
LINE
  8
0
 10
137.657
 20
23.3825
 11
137.358
 21
22.6906
  0
LINE
  8
0
 10
137.358
 20
22.6906
 11
137.016
 21
22.019
  0
LINE
  8
0
 10
137.016
 20
22.019
 11
136.632
 21
21.3701
  0
LINE
  8
0
 10
136.632
 20
21.3701
 11
136.208
 21
20.7466
  0
LINE
  8
0
 10
136.208
 20
20.7466
 11
135.746
 21
20.1509
  0
LINE
  8
0
 10
135.746
 20
20.1509
 11
135.248
 21
19.5854
  0
LINE
  8
0
 10
135.248
 20
19.5854
 11
134.715
 21
19.0524
  0
LINE
  8
0
 10
134.715
 20
19.0524
 11
134.149
 21
18.5538
  0
LINE
  8
0
 10
134.149
 20
18.5538
 11
133.553
 21
18.0918
  0
LINE
  8
0
 10
133.553
 20
18.0918
 11
132.93
 21
17.6681
  0
LINE
  8
0
 10
132.93
 20
17.6681
 11
132.281
 21
17.2843
  0
LINE
  8
0
 10
132.281
 20
17.2843
 11
131.609
 21
16.9421
  0
LINE
  8
0
 10
131.609
 20
16.9421
 11
130.917
 21
16.6427
  0
LINE
  8
0
 10
130.917
 20
16.6427
 11
130.208
 21
16.3873
  0
LINE
  8
0
 10
130.208
 20
16.3873
 11
129.484
 21
16.177
  0
LINE
  8
0
 10
129.484
 20
16.177
 11
128.749
 21
16.0125
  0
LINE
  8
0
 10
128.749
 20
16.0125
 11
128.004
 21
15.8946
  0
LINE
  8
0
 10
128.004
 20
15.8946
 11
127.253
 21
15.8237
  0
LINE
  8
0
 10
127.253
 20
15.8237
 11
126.5
 21
15.8
  0
LINE
  8
0
 10
126.5
 20
15.8
 11
125.747
 21
15.8237
  0
LINE
  8
0
 10
95.6523
 20
5.72664
 11
94.808
 21
5.80644
  0
LINE
  8
0
 10
94.808
 20
5.80644
 11
93.9704
 21
5.93912
  0
LINE
  8
0
 10
93.9704
 20
5.93912
 11
93.1427
 21
6.12411
  0
LINE
  8
0
 10
93.1427
 20
6.12411
 11
92.3283
 21
6.36073
  0
LINE
  8
0
 10
92.3283
 20
6.36073
 11
91.5303
 21
6.64801
  0
LINE
  8
0
 10
91.5303
 20
6.64801
 11
90.752
 21
6.98483
  0
LINE
  8
0
 10
90.752
 20
6.98483
 11
89.9963
 21
7.36986
  0
LINE
  8
0
 10
89.9963
 20
7.36986
 11
89.2663
 21
7.80156
  0
LINE
  8
0
 10
89.2663
 20
7.80156
 11
88.5649
 21
8.27826
  0
LINE
  8
0
 10
88.5649
 20
8.27826
 11
87.8948
 21
8.79807
  0
LINE
  8
0
 10
87.8948
 20
8.79807
 11
87.2586
 21
9.35892
  0
LINE
  8
0
 10
87.2586
 20
9.35892
 11
86.6589
 21
9.9586
  0
LINE
  8
0
 10
86.6589
 20
9.9586
 11
86.0981
 21
10.5948
  0
LINE
  8
0
 10
86.0981
 20
10.5948
 11
85.5783
 21
11.2649
  0
LINE
  8
0
 10
85.5783
 20
11.2649
 11
85.1016
 21
11.9663
  0
LINE
  8
0
 10
85.1016
 20
11.9663
 11
84.6698
 21
12.6963
  0
LINE
  8
0
 10
84.6698
 20
12.6963
 11
84.2848
 21
13.452
  0
LINE
  8
0
 10
84.2848
 20
13.452
 11
83.948
 21
14.2303
  0
LINE
  8
0
 10
83.948
 20
14.2303
 11
83.6607
 21
15.0283
  0
LINE
  8
0
 10
83.6607
 20
15.0283
 11
83.4241
 21
15.8427
  0
LINE
  8
0
 10
83.4241
 20
15.8427
 11
83.2391
 21
16.6703
  0
LINE
  8
0
 10
83.2391
 20
16.6703
 11
83.1064
 21
17.508
  0
LINE
  8
0
 10
83.1064
 20
17.508
 11
83.0266
 21
18.3523
  0
LINE
  8
0
 10
83.0266
 20
18.3523
 11
83
 21
19.2
  0
LINE
  8
0
 10
83
 20
19.2
 11
83.0266
 21
20.0477
  0
LINE
  8
0
 10
83.0266
 20
20.0477
 11
83.1064
 21
20.892
  0
LINE
  8
0
 10
83.1064
 20
20.892
 11
83.2391
 21
21.7296
  0
LINE
  8
0
 10
83.2391
 20
21.7296
 11
83.4241
 21
22.5573
  0
LINE
  8
0
 10
83.4241
 20
22.5573
 11
83.6607
 21
23.3717
  0
LINE
  8
0
 10
83.6607
 20
23.3717
 11
83.948
 21
24.1697
  0
LINE
  8
0
 10
83.948
 20
24.1697
 11
84.2848
 21
24.948
  0
LINE
  8
0
 10
84.2848
 20
24.948
 11
84.6698
 21
25.7037
  0
LINE
  8
0
 10
84.6698
 20
25.7037
 11
85.1016
 21
26.4337
  0
LINE
  8
0
 10
85.1016
 20
26.4337
 11
85.5783
 21
27.1351
  0
LINE
  8
0
 10
85.5783
 20
27.1351
 11
86.0981
 21
27.8052
  0
LINE
  8
0
 10
86.0981
 20
27.8052
 11
86.6589
 21
28.4414
  0
LINE
  8
0
 10
86.6589
 20
28.4414
 11
87.2586
 21
29.0411
  0
LINE
  8
0
 10
87.2586
 20
29.0411
 11
87.8948
 21
29.6019
  0
LINE
  8
0
 10
87.8948
 20
29.6019
 11
88.5649
 21
30.1217
  0
LINE
  8
0
 10
88.5649
 20
30.1217
 11
89.2663
 21
30.5984
  0
LINE
  8
0
 10
89.2663
 20
30.5984
 11
89.9963
 21
31.0301
  0
LINE
  8
0
 10
89.9963
 20
31.0301
 11
90.752
 21
31.4152
  0
LINE
  8
0
 10
90.752
 20
31.4152
 11
91.5303
 21
31.752
  0
LINE
  8
0
 10
91.5303
 20
31.752
 11
92.3283
 21
32.0393
  0
LINE
  8
0
 10
92.3283
 20
32.0393
 11
93.1427
 21
32.2759
  0
LINE
  8
0
 10
93.1427
 20
32.2759
 11
93.9704
 21
32.4609
  0
LINE
  8
0
 10
93.9704
 20
32.4609
 11
94.808
 21
32.5935
  0
LINE
  8
0
 10
94.808
 20
32.5935
 11
95.6523
 21
32.6734
  0
LINE
  8
0
 10
95.6523
 20
32.6734
 11
96.5
 21
32.7
  0
LINE
  8
0
 10
96.5
 20
32.7
 11
97.3477
 21
32.6734
  0
LINE
  8
0
 10
97.3477
 20
32.6734
 11
98.192
 21
32.5935
  0
LINE
  8
0
 10
98.192
 20
32.5935
 11
99.0296
 21
32.4609
  0
LINE
  8
0
 10
99.0296
 20
32.4609
 11
99.8573
 21
32.2759
  0
LINE
  8
0
 10
99.8573
 20
32.2759
 11
100.672
 21
32.0393
  0
LINE
  8
0
 10
100.672
 20
32.0393
 11
101.47
 21
31.752
  0
LINE
  8
0
 10
101.47
 20
31.752
 11
102.248
 21
31.4152
  0
LINE
  8
0
 10
102.248
 20
31.4152
 11
103.004
 21
31.0301
  0
LINE
  8
0
 10
103.004
 20
31.0301
 11
103.734
 21
30.5984
  0
LINE
  8
0
 10
103.734
 20
30.5984
 11
104.435
 21
30.1217
  0
LINE
  8
0
 10
104.435
 20
30.1217
 11
105.105
 21
29.6019
  0
LINE
  8
0
 10
105.105
 20
29.6019
 11
105.741
 21
29.0411
  0
LINE
  8
0
 10
105.741
 20
29.0411
 11
106.341
 21
28.4414
  0
LINE
  8
0
 10
106.341
 20
28.4414
 11
106.902
 21
27.8052
  0
LINE
  8
0
 10
106.902
 20
27.8052
 11
107.422
 21
27.1351
  0
LINE
  8
0
 10
107.422
 20
27.1351
 11
107.898
 21
26.4337
  0
LINE
  8
0
 10
107.898
 20
26.4337
 11
108.33
 21
25.7037
  0
LINE
  8
0
 10
108.33
 20
25.7037
 11
108.715
 21
24.948
  0
LINE
  8
0
 10
108.715
 20
24.948
 11
109.052
 21
24.1697
  0
LINE
  8
0
 10
109.052
 20
24.1697
 11
109.339
 21
23.3717
  0
LINE
  8
0
 10
109.339
 20
23.3717
 11
109.576
 21
22.5573
  0
LINE
  8
0
 10
109.576
 20
22.5573
 11
109.761
 21
21.7296
  0
LINE
  8
0
 10
109.761
 20
21.7296
 11
109.894
 21
20.892
  0
LINE
  8
0
 10
109.894
 20
20.892
 11
109.973
 21
20.0477
  0
LINE
  8
0
 10
109.973
 20
20.0477
 11
110
 21
19.2
  0
LINE
  8
0
 10
110
 20
19.2
 11
109.973
 21
18.3523
  0
LINE
  8
0
 10
109.973
 20
18.3523
 11
109.894
 21
17.508
  0
LINE
  8
0
 10
109.894
 20
17.508
 11
109.761
 21
16.6703
  0
LINE
  8
0
 10
109.761
 20
16.6703
 11
109.576
 21
15.8427
  0
LINE
  8
0
 10
109.576
 20
15.8427
 11
109.339
 21
15.0283
  0
LINE
  8
0
 10
109.339
 20
15.0283
 11
109.052
 21
14.2303
  0
LINE
  8
0
 10
109.052
 20
14.2303
 11
108.715
 21
13.452
  0
LINE
  8
0
 10
108.715
 20
13.452
 11
108.33
 21
12.6963
  0
LINE
  8
0
 10
108.33
 20
12.6963
 11
107.898
 21
11.9663
  0
LINE
  8
0
 10
107.898
 20
11.9663
 11
107.422
 21
11.2649
  0
LINE
  8
0
 10
107.422
 20
11.2649
 11
106.902
 21
10.5948
  0
LINE
  8
0
 10
106.902
 20
10.5948
 11
106.341
 21
9.9586
  0
LINE
  8
0
 10
106.341
 20
9.9586
 11
105.741
 21
9.35892
  0
LINE
  8
0
 10
105.741
 20
9.35892
 11
105.105
 21
8.79807
  0
LINE
  8
0
 10
105.105
 20
8.79807
 11
104.435
 21
8.27826
  0
LINE
  8
0
 10
104.435
 20
8.27826
 11
103.734
 21
7.80156
  0
LINE
  8
0
 10
103.734
 20
7.80156
 11
103.004
 21
7.36986
  0
LINE
  8
0
 10
103.004
 20
7.36986
 11
102.248
 21
6.98483
  0
LINE
  8
0
 10
102.248
 20
6.98483
 11
101.47
 21
6.64801
  0
LINE
  8
0
 10
101.47
 20
6.64801
 11
100.672
 21
6.36073
  0
LINE
  8
0
 10
100.672
 20
6.36073
 11
99.8573
 21
6.12411
  0
LINE
  8
0
 10
99.8573
 20
6.12411
 11
99.0296
 21
5.93912
  0
LINE
  8
0
 10
99.0296
 20
5.93912
 11
98.192
 21
5.80644
  0
LINE
  8
0
 10
98.192
 20
5.80644
 11
97.3477
 21
5.72664
  0
LINE
  8
0
 10
97.3477
 20
5.72664
 11
96.5
 21
5.7
  0
LINE
  8
0
 10
96.5
 20
5.7
 11
95.6523
 21
5.72664
  0
LINE
  8
0
 10
9.42967
 20
6.3822
 11
9.35962
 21
6.38882
  0
LINE
  8
0
 10
9.35962
 20
6.38882
 11
9.29013
 21
6.39983
  0
LINE
  8
0
 10
9.29013
 20
6.39983
 11
9.22147
 21
6.41518
  0
LINE
  8
0
 10
9.22147
 20
6.41518
 11
9.1539
 21
6.43481
  0
LINE
  8
0
 10
9.1539
 20
6.43481
 11
9.08769
 21
6.45865
  0
LINE
  8
0
 10
9.08769
 20
6.45865
 11
9.02312
 21
6.48659
  0
LINE
  8
0
 10
9.02312
 20
6.48659
 11
8.96043
 21
6.51852
  0
LINE
  8
0
 10
8.96043
 20
6.51852
 11
8.89987
 21
6.55435
  0
LINE
  8
0
 10
8.89987
 20
6.55435
 11
8.84167
 21
6.59389
  0
LINE
  8
0
 10
8.84167
 20
6.59389
 11
8.78607
 21
6.63702
  0
LINE
  8
0
 10
8.78607
 20
6.63702
 11
8.73331
 21
6.68355
  0
LINE
  8
0
 10
8.73331
 20
6.68355
 11
8.68355
 21
6.73331
  0
LINE
  8
0
 10
8.68355
 20
6.73331
 11
8.63702
 21
6.78607
  0
LINE
  8
0
 10
8.63702
 20
6.78607
 11
8.59389
 21
6.84167
  0
LINE
  8
0
 10
8.59389
 20
6.84167
 11
8.55435
 21
6.89987
  0
LINE
  8
0
 10
8.55435
 20
6.89987
 11
8.51852
 21
6.96043
  0
LINE
  8
0
 10
8.51852
 20
6.96043
 11
8.48659
 21
7.02312
  0
LINE
  8
0
 10
8.48659
 20
7.02312
 11
8.45865
 21
7.08769
  0
LINE
  8
0
 10
8.45865
 20
7.08769
 11
8.43481
 21
7.1539
  0
LINE
  8
0
 10
8.43481
 20
7.1539
 11
8.41518
 21
7.22147
  0
LINE
  8
0
 10
8.41518
 20
7.22147
 11
8.39983
 21
7.29013
  0
LINE
  8
0
 10
8.39983
 20
7.29013
 11
8.38882
 21
7.35962
  0
LINE
  8
0
 10
8.38882
 20
7.35962
 11
8.3822
 21
7.42967
  0
LINE
  8
0
 10
8.3822
 20
7.42967
 11
8.37999
 21
7.5
  0
LINE
  8
0
 10
8.37999
 20
7.5
 11
8.3822
 21
7.57031
  0
LINE
  8
0
 10
8.3822
 20
7.57031
 11
8.38882
 21
7.64037
  0
LINE
  8
0
 10
8.38882
 20
7.64037
 11
8.39983
 21
7.70985
  0
LINE
  8
0
 10
8.39983
 20
7.70985
 11
8.41518
 21
7.77852
  0
LINE
  8
0
 10
8.41518
 20
7.77852
 11
8.43481
 21
7.84608
  0
LINE
  8
0
 10
8.43481
 20
7.84608
 11
8.45865
 21
7.91229
  0
LINE
  8
0
 10
8.45865
 20
7.91229
 11
8.48659
 21
7.97687
  0
LINE
  8
0
 10
8.48659
 20
7.97687
 11
8.51852
 21
8.03955
  0
LINE
  8
0
 10
8.51852
 20
8.03955
 11
8.55435
 21
8.10011
  0
LINE
  8
0
 10
8.55435
 20
8.10011
 11
8.59389
 21
8.15831
  0
LINE
  8
0
 10
8.59389
 20
8.15831
 11
8.63702
 21
8.21391
  0
LINE
  8
0
 10
8.63702
 20
8.21391
 11
8.68355
 21
8.26668
  0
LINE
  8
0
 10
8.68355
 20
8.26668
 11
8.73331
 21
8.31644
  0
LINE
  8
0
 10
8.73331
 20
8.31644
 11
8.78607
 21
8.36296
  0
LINE
  8
0
 10
8.78607
 20
8.36296
 11
8.84167
 21
8.4061
  0
LINE
  8
0
 10
8.84167
 20
8.4061
 11
8.89987
 21
8.44563
  0
LINE
  8
0
 10
8.89987
 20
8.44563
 11
8.96043
 21
8.48146
  0
LINE
  8
0
 10
8.96043
 20
8.48146
 11
9.02312
 21
8.5134
  0
LINE
  8
0
 10
9.02312
 20
8.5134
 11
9.08769
 21
8.54134
  0
LINE
  8
0
 10
9.08769
 20
8.54134
 11
9.1539
 21
8.56517
  0
LINE
  8
0
 10
9.1539
 20
8.56517
 11
9.22147
 21
8.58481
  0
LINE
  8
0
 10
9.22147
 20
8.58481
 11
9.29013
 21
8.60016
  0
LINE
  8
0
 10
9.29013
 20
8.60016
 11
9.35962
 21
8.61116
  0
LINE
  8
0
 10
9.35962
 20
8.61116
 11
9.42967
 21
8.61778
  0
LINE
  8
0
 10
9.42967
 20
8.61778
 11
9.5
 21
8.62
  0
LINE
  8
0
 10
9.5
 20
8.62
 11
9.57031
 21
8.61778
  0
LINE
  8
0
 10
9.57031
 20
8.61778
 11
9.64037
 21
8.61116
  0
LINE
  8
0
 10
9.64037
 20
8.61116
 11
9.70985
 21
8.60016
  0
LINE
  8
0
 10
9.70985
 20
8.60016
 11
9.77852
 21
8.58481
  0
LINE
  8
0
 10
9.77852
 20
8.58481
 11
9.84608
 21
8.56517
  0
LINE
  8
0
 10
9.84608
 20
8.56517
 11
9.91229
 21
8.54134
  0
LINE
  8
0
 10
9.91229
 20
8.54134
 11
9.97687
 21
8.5134
  0
LINE
  8
0
 10
9.97687
 20
8.5134
 11
10.0396
 21
8.48146
  0
LINE
  8
0
 10
10.0396
 20
8.48146
 11
10.1001
 21
8.44563
  0
LINE
  8
0
 10
10.1001
 20
8.44563
 11
10.1583
 21
8.4061
  0
LINE
  8
0
 10
10.1583
 20
8.4061
 11
10.2139
 21
8.36296
  0
LINE
  8
0
 10
10.2139
 20
8.36296
 11
10.2667
 21
8.31644
  0
LINE
  8
0
 10
10.2667
 20
8.31644
 11
10.3164
 21
8.26668
  0
LINE
  8
0
 10
10.3164
 20
8.26668
 11
10.363
 21
8.21391
  0
LINE
  8
0
 10
10.363
 20
8.21391
 11
10.4061
 21
8.15831
  0
LINE
  8
0
 10
10.4061
 20
8.15831
 11
10.4456
 21
8.10011
  0
LINE
  8
0
 10
10.4456
 20
8.10011
 11
10.4815
 21
8.03955
  0
LINE
  8
0
 10
10.4815
 20
8.03955
 11
10.5134
 21
7.97687
  0
LINE
  8
0
 10
10.5134
 20
7.97687
 11
10.5413
 21
7.91229
  0
LINE
  8
0
 10
10.5413
 20
7.91229
 11
10.5652
 21
7.84608
  0
LINE
  8
0
 10
10.5652
 20
7.84608
 11
10.5848
 21
7.77852
  0
LINE
  8
0
 10
10.5848
 20
7.77852
 11
10.6002
 21
7.70985
  0
LINE
  8
0
 10
10.6002
 20
7.70985
 11
10.6112
 21
7.64037
  0
LINE
  8
0
 10
10.6112
 20
7.64037
 11
10.6178
 21
7.57031
  0
LINE
  8
0
 10
10.6178
 20
7.57031
 11
10.62
 21
7.5
  0
LINE
  8
0
 10
10.62
 20
7.5
 11
10.6178
 21
7.42967
  0
LINE
  8
0
 10
10.6178
 20
7.42967
 11
10.6112
 21
7.35962
  0
LINE
  8
0
 10
10.6112
 20
7.35962
 11
10.6002
 21
7.29013
  0
LINE
  8
0
 10
10.6002
 20
7.29013
 11
10.5848
 21
7.22147
  0
LINE
  8
0
 10
10.5848
 20
7.22147
 11
10.5652
 21
7.1539
  0
LINE
  8
0
 10
10.5652
 20
7.1539
 11
10.5413
 21
7.08769
  0
LINE
  8
0
 10
10.5413
 20
7.08769
 11
10.5134
 21
7.02312
  0
LINE
  8
0
 10
10.5134
 20
7.02312
 11
10.4815
 21
6.96043
  0
LINE
  8
0
 10
10.4815
 20
6.96043
 11
10.4456
 21
6.89987
  0
LINE
  8
0
 10
10.4456
 20
6.89987
 11
10.4061
 21
6.84167
  0
LINE
  8
0
 10
10.4061
 20
6.84167
 11
10.363
 21
6.78607
  0
LINE
  8
0
 10
10.363
 20
6.78607
 11
10.3164
 21
6.73331
  0
LINE
  8
0
 10
10.3164
 20
6.73331
 11
10.2667
 21
6.68355
  0
LINE
  8
0
 10
10.2667
 20
6.68355
 11
10.2139
 21
6.63702
  0
LINE
  8
0
 10
10.2139
 20
6.63702
 11
10.1583
 21
6.59389
  0
LINE
  8
0
 10
10.1583
 20
6.59389
 11
10.1001
 21
6.55435
  0
LINE
  8
0
 10
10.1001
 20
6.55435
 11
10.0396
 21
6.51852
  0
LINE
  8
0
 10
10.0396
 20
6.51852
 11
9.97687
 21
6.48659
  0
LINE
  8
0
 10
9.97687
 20
6.48659
 11
9.91229
 21
6.45865
  0
LINE
  8
0
 10
9.91229
 20
6.45865
 11
9.84608
 21
6.43481
  0
LINE
  8
0
 10
9.84608
 20
6.43481
 11
9.77852
 21
6.41518
  0
LINE
  8
0
 10
9.77852
 20
6.41518
 11
9.70985
 21
6.39983
  0
LINE
  8
0
 10
9.70985
 20
6.39983
 11
9.64037
 21
6.38882
  0
LINE
  8
0
 10
9.64037
 20
6.38882
 11
9.57031
 21
6.3822
  0
LINE
  8
0
 10
9.57031
 20
6.3822
 11
9.5
 21
6.37999
  0
LINE
  8
0
 10
9.5
 20
6.37999
 11
9.42967
 21
6.3822
  0
LINE
  8
0
 10
114.43
 20
6.3822
 11
114.36
 21
6.38882
  0
LINE
  8
0
 10
114.36
 20
6.38882
 11
114.29
 21
6.39983
  0
LINE
  8
0
 10
114.29
 20
6.39983
 11
114.221
 21
6.41518
  0
LINE
  8
0
 10
114.221
 20
6.41518
 11
114.154
 21
6.43481
  0
LINE
  8
0
 10
114.154
 20
6.43481
 11
114.088
 21
6.45865
  0
LINE
  8
0
 10
114.088
 20
6.45865
 11
114.023
 21
6.48659
  0
LINE
  8
0
 10
114.023
 20
6.48659
 11
113.96
 21
6.51852
  0
LINE
  8
0
 10
113.96
 20
6.51852
 11
113.9
 21
6.55435
  0
LINE
  8
0
 10
113.9
 20
6.55435
 11
113.842
 21
6.59389
  0
LINE
  8
0
 10
113.842
 20
6.59389
 11
113.786
 21
6.63702
  0
LINE
  8
0
 10
113.786
 20
6.63702
 11
113.733
 21
6.68355
  0
LINE
  8
0
 10
113.733
 20
6.68355
 11
113.684
 21
6.73331
  0
LINE
  8
0
 10
113.684
 20
6.73331
 11
113.637
 21
6.78607
  0
LINE
  8
0
 10
113.637
 20
6.78607
 11
113.594
 21
6.84167
  0
LINE
  8
0
 10
113.594
 20
6.84167
 11
113.554
 21
6.89987
  0
LINE
  8
0
 10
113.554
 20
6.89987
 11
113.519
 21
6.96043
  0
LINE
  8
0
 10
113.519
 20
6.96043
 11
113.487
 21
7.02312
  0
LINE
  8
0
 10
113.487
 20
7.02312
 11
113.459
 21
7.08769
  0
LINE
  8
0
 10
113.459
 20
7.08769
 11
113.435
 21
7.1539
  0
LINE
  8
0
 10
113.435
 20
7.1539
 11
113.415
 21
7.22147
  0
LINE
  8
0
 10
113.415
 20
7.22147
 11
113.4
 21
7.29013
  0
LINE
  8
0
 10
113.4
 20
7.29013
 11
113.389
 21
7.35962
  0
LINE
  8
0
 10
113.389
 20
7.35962
 11
113.382
 21
7.42967
  0
LINE
  8
0
 10
113.382
 20
7.42967
 11
113.38
 21
7.5
  0
LINE
  8
0
 10
113.38
 20
7.5
 11
113.382
 21
7.57031
  0
LINE
  8
0
 10
113.382
 20
7.57031
 11
113.389
 21
7.64037
  0
LINE
  8
0
 10
113.389
 20
7.64037
 11
113.4
 21
7.70985
  0
LINE
  8
0
 10
113.4
 20
7.70985
 11
113.415
 21
7.77852
  0
LINE
  8
0
 10
113.415
 20
7.77852
 11
113.435
 21
7.84608
  0
LINE
  8
0
 10
113.435
 20
7.84608
 11
113.459
 21
7.91229
  0
LINE
  8
0
 10
113.459
 20
7.91229
 11
113.487
 21
7.97687
  0
LINE
  8
0
 10
113.487
 20
7.97687
 11
113.519
 21
8.03955
  0
LINE
  8
0
 10
113.519
 20
8.03955
 11
113.554
 21
8.10011
  0
LINE
  8
0
 10
113.554
 20
8.10011
 11
113.594
 21
8.15831
  0
LINE
  8
0
 10
113.594
 20
8.15831
 11
113.637
 21
8.21391
  0
LINE
  8
0
 10
113.637
 20
8.21391
 11
113.684
 21
8.26668
  0
LINE
  8
0
 10
113.684
 20
8.26668
 11
113.733
 21
8.31644
  0
LINE
  8
0
 10
113.733
 20
8.31644
 11
113.786
 21
8.36296
  0
LINE
  8
0
 10
113.786
 20
8.36296
 11
113.842
 21
8.4061
  0
LINE
  8
0
 10
113.842
 20
8.4061
 11
113.9
 21
8.44563
  0
LINE
  8
0
 10
113.9
 20
8.44563
 11
113.96
 21
8.48146
  0
LINE
  8
0
 10
113.96
 20
8.48146
 11
114.023
 21
8.5134
  0
LINE
  8
0
 10
114.023
 20
8.5134
 11
114.088
 21
8.54134
  0
LINE
  8
0
 10
114.088
 20
8.54134
 11
114.154
 21
8.56517
  0
LINE
  8
0
 10
114.154
 20
8.56517
 11
114.221
 21
8.58481
  0
LINE
  8
0
 10
114.221
 20
8.58481
 11
114.29
 21
8.60016
  0
LINE
  8
0
 10
114.29
 20
8.60016
 11
114.36
 21
8.61116
  0
LINE
  8
0
 10
114.36
 20
8.61116
 11
114.43
 21
8.61778
  0
LINE
  8
0
 10
114.43
 20
8.61778
 11
114.5
 21
8.62
  0
LINE
  8
0
 10
114.5
 20
8.62
 11
114.57
 21
8.61778
  0
LINE
  8
0
 10
114.57
 20
8.61778
 11
114.64
 21
8.61116
  0
LINE
  8
0
 10
114.64
 20
8.61116
 11
114.71
 21
8.60016
  0
LINE
  8
0
 10
114.71
 20
8.60016
 11
114.779
 21
8.58481
  0
LINE
  8
0
 10
114.779
 20
8.58481
 11
114.846
 21
8.56517
  0
LINE
  8
0
 10
114.846
 20
8.56517
 11
114.912
 21
8.54134
  0
LINE
  8
0
 10
114.912
 20
8.54134
 11
114.977
 21
8.5134
  0
LINE
  8
0
 10
114.977
 20
8.5134
 11
115.04
 21
8.48146
  0
LINE
  8
0
 10
115.04
 20
8.48146
 11
115.1
 21
8.44563
  0
LINE
  8
0
 10
115.1
 20
8.44563
 11
115.158
 21
8.4061
  0
LINE
  8
0
 10
115.158
 20
8.4061
 11
115.214
 21
8.36296
  0
LINE
  8
0
 10
115.214
 20
8.36296
 11
115.267
 21
8.31644
  0
LINE
  8
0
 10
115.267
 20
8.31644
 11
115.316
 21
8.26668
  0
LINE
  8
0
 10
115.316
 20
8.26668
 11
115.363
 21
8.21391
  0
LINE
  8
0
 10
115.363
 20
8.21391
 11
115.406
 21
8.15831
  0
LINE
  8
0
 10
115.406
 20
8.15831
 11
115.446
 21
8.10011
  0
LINE
  8
0
 10
115.446
 20
8.10011
 11
115.481
 21
8.03955
  0
LINE
  8
0
 10
115.481
 20
8.03955
 11
115.513
 21
7.97687
  0
LINE
  8
0
 10
115.513
 20
7.97687
 11
115.541
 21
7.91229
  0
LINE
  8
0
 10
115.541
 20
7.91229
 11
115.565
 21
7.84608
  0
LINE
  8
0
 10
115.565
 20
7.84608
 11
115.585
 21
7.77852
  0
LINE
  8
0
 10
115.585
 20
7.77852
 11
115.6
 21
7.70985
  0
LINE
  8
0
 10
115.6
 20
7.70985
 11
115.611
 21
7.64037
  0
LINE
  8
0
 10
115.611
 20
7.64037
 11
115.618
 21
7.57031
  0
LINE
  8
0
 10
115.618
 20
7.57031
 11
115.62
 21
7.5
  0
LINE
  8
0
 10
115.62
 20
7.5
 11
115.618
 21
7.42967
  0
LINE
  8
0
 10
115.618
 20
7.42967
 11
115.611
 21
7.35962
  0
LINE
  8
0
 10
115.611
 20
7.35962
 11
115.6
 21
7.29013
  0
LINE
  8
0
 10
115.6
 20
7.29013
 11
115.585
 21
7.22147
  0
LINE
  8
0
 10
115.585
 20
7.22147
 11
115.565
 21
7.1539
  0
LINE
  8
0
 10
115.565
 20
7.1539
 11
115.541
 21
7.08769
  0
LINE
  8
0
 10
115.541
 20
7.08769
 11
115.513
 21
7.02312
  0
LINE
  8
0
 10
115.513
 20
7.02312
 11
115.481
 21
6.96043
  0
LINE
  8
0
 10
115.481
 20
6.96043
 11
115.446
 21
6.89987
  0
LINE
  8
0
 10
115.446
 20
6.89987
 11
115.406
 21
6.84167
  0
LINE
  8
0
 10
115.406
 20
6.84167
 11
115.363
 21
6.78607
  0
LINE
  8
0
 10
115.363
 20
6.78607
 11
115.316
 21
6.73331
  0
LINE
  8
0
 10
115.316
 20
6.73331
 11
115.267
 21
6.68355
  0
LINE
  8
0
 10
115.267
 20
6.68355
 11
115.214
 21
6.63702
  0
LINE
  8
0
 10
115.214
 20
6.63702
 11
115.158
 21
6.59389
  0
LINE
  8
0
 10
115.158
 20
6.59389
 11
115.1
 21
6.55435
  0
LINE
  8
0
 10
115.1
 20
6.55435
 11
115.04
 21
6.51852
  0
LINE
  8
0
 10
115.04
 20
6.51852
 11
114.977
 21
6.48659
  0
LINE
  8
0
 10
114.977
 20
6.48659
 11
114.912
 21
6.45865
  0
LINE
  8
0
 10
114.912
 20
6.45865
 11
114.846
 21
6.43481
  0
LINE
  8
0
 10
114.846
 20
6.43481
 11
114.779
 21
6.41518
  0
LINE
  8
0
 10
114.779
 20
6.41518
 11
114.71
 21
6.39983
  0
LINE
  8
0
 10
114.71
 20
6.39983
 11
114.64
 21
6.38882
  0
LINE
  8
0
 10
114.64
 20
6.38882
 11
114.57
 21
6.3822
  0
LINE
  8
0
 10
114.57
 20
6.3822
 11
114.5
 21
6.37999
  0
LINE
  8
0
 10
114.5
 20
6.37999
 11
114.43
 21
6.3822
  0
LINE
  8
0
 10
194.43
 20
6.3822
 11
194.36
 21
6.38882
  0
LINE
  8
0
 10
194.36
 20
6.38882
 11
194.29
 21
6.39983
  0
LINE
  8
0
 10
194.29
 20
6.39983
 11
194.221
 21
6.41518
  0
LINE
  8
0
 10
194.221
 20
6.41518
 11
194.154
 21
6.43481
  0
LINE
  8
0
 10
194.154
 20
6.43481
 11
194.088
 21
6.45865
  0
LINE
  8
0
 10
194.088
 20
6.45865
 11
194.023
 21
6.48659
  0
LINE
  8
0
 10
194.023
 20
6.48659
 11
193.96
 21
6.51852
  0
LINE
  8
0
 10
193.96
 20
6.51852
 11
193.9
 21
6.55435
  0
LINE
  8
0
 10
193.9
 20
6.55435
 11
193.842
 21
6.59389
  0
LINE
  8
0
 10
193.842
 20
6.59389
 11
193.786
 21
6.63702
  0
LINE
  8
0
 10
193.786
 20
6.63702
 11
193.733
 21
6.68355
  0
LINE
  8
0
 10
193.733
 20
6.68355
 11
193.684
 21
6.73331
  0
LINE
  8
0
 10
193.684
 20
6.73331
 11
193.637
 21
6.78607
  0
LINE
  8
0
 10
193.637
 20
6.78607
 11
193.594
 21
6.84167
  0
LINE
  8
0
 10
193.594
 20
6.84167
 11
193.554
 21
6.89987
  0
LINE
  8
0
 10
193.554
 20
6.89987
 11
193.519
 21
6.96043
  0
LINE
  8
0
 10
193.519
 20
6.96043
 11
193.487
 21
7.02312
  0
LINE
  8
0
 10
193.487
 20
7.02312
 11
193.459
 21
7.08769
  0
LINE
  8
0
 10
193.459
 20
7.08769
 11
193.435
 21
7.1539
  0
LINE
  8
0
 10
193.435
 20
7.1539
 11
193.415
 21
7.22147
  0
LINE
  8
0
 10
193.415
 20
7.22147
 11
193.4
 21
7.29013
  0
LINE
  8
0
 10
193.4
 20
7.29013
 11
193.389
 21
7.35962
  0
LINE
  8
0
 10
193.389
 20
7.35962
 11
193.382
 21
7.42967
  0
LINE
  8
0
 10
193.382
 20
7.42967
 11
193.38
 21
7.5
  0
LINE
  8
0
 10
193.38
 20
7.5
 11
193.382
 21
7.57031
  0
LINE
  8
0
 10
193.382
 20
7.57031
 11
193.389
 21
7.64037
  0
LINE
  8
0
 10
193.389
 20
7.64037
 11
193.4
 21
7.70985
  0
LINE
  8
0
 10
193.4
 20
7.70985
 11
193.415
 21
7.77852
  0
LINE
  8
0
 10
193.415
 20
7.77852
 11
193.435
 21
7.84608
  0
LINE
  8
0
 10
193.435
 20
7.84608
 11
193.459
 21
7.91229
  0
LINE
  8
0
 10
193.459
 20
7.91229
 11
193.487
 21
7.97687
  0
LINE
  8
0
 10
193.487
 20
7.97687
 11
193.519
 21
8.03955
  0
LINE
  8
0
 10
193.519
 20
8.03955
 11
193.554
 21
8.10011
  0
LINE
  8
0
 10
193.554
 20
8.10011
 11
193.594
 21
8.15831
  0
LINE
  8
0
 10
193.594
 20
8.15831
 11
193.637
 21
8.21391
  0
LINE
  8
0
 10
193.637
 20
8.21391
 11
193.684
 21
8.26668
  0
LINE
  8
0
 10
193.684
 20
8.26668
 11
193.733
 21
8.31644
  0
LINE
  8
0
 10
193.733
 20
8.31644
 11
193.786
 21
8.36296
  0
LINE
  8
0
 10
193.786
 20
8.36296
 11
193.842
 21
8.4061
  0
LINE
  8
0
 10
193.842
 20
8.4061
 11
193.9
 21
8.44563
  0
LINE
  8
0
 10
193.9
 20
8.44563
 11
193.96
 21
8.48146
  0
LINE
  8
0
 10
193.96
 20
8.48146
 11
194.023
 21
8.5134
  0
LINE
  8
0
 10
194.023
 20
8.5134
 11
194.088
 21
8.54134
  0
LINE
  8
0
 10
194.088
 20
8.54134
 11
194.154
 21
8.56517
  0
LINE
  8
0
 10
194.154
 20
8.56517
 11
194.221
 21
8.58481
  0
LINE
  8
0
 10
194.221
 20
8.58481
 11
194.29
 21
8.60016
  0
LINE
  8
0
 10
194.29
 20
8.60016
 11
194.36
 21
8.61116
  0
LINE
  8
0
 10
194.36
 20
8.61116
 11
194.43
 21
8.61778
  0
LINE
  8
0
 10
194.43
 20
8.61778
 11
194.5
 21
8.62
  0
LINE
  8
0
 10
194.5
 20
8.62
 11
194.57
 21
8.61778
  0
LINE
  8
0
 10
194.57
 20
8.61778
 11
194.64
 21
8.61116
  0
LINE
  8
0
 10
194.64
 20
8.61116
 11
194.71
 21
8.60016
  0
LINE
  8
0
 10
194.71
 20
8.60016
 11
194.779
 21
8.58481
  0
LINE
  8
0
 10
194.779
 20
8.58481
 11
194.846
 21
8.56517
  0
LINE
  8
0
 10
194.846
 20
8.56517
 11
194.912
 21
8.54134
  0
LINE
  8
0
 10
194.912
 20
8.54134
 11
194.977
 21
8.5134
  0
LINE
  8
0
 10
194.977
 20
8.5134
 11
195.04
 21
8.48146
  0
LINE
  8
0
 10
195.04
 20
8.48146
 11
195.1
 21
8.44563
  0
LINE
  8
0
 10
195.1
 20
8.44563
 11
195.158
 21
8.4061
  0
LINE
  8
0
 10
195.158
 20
8.4061
 11
195.214
 21
8.36296
  0
LINE
  8
0
 10
195.214
 20
8.36296
 11
195.267
 21
8.31644
  0
LINE
  8
0
 10
195.267
 20
8.31644
 11
195.316
 21
8.26668
  0
LINE
  8
0
 10
195.316
 20
8.26668
 11
195.363
 21
8.21391
  0
LINE
  8
0
 10
195.363
 20
8.21391
 11
195.406
 21
8.15831
  0
LINE
  8
0
 10
195.406
 20
8.15831
 11
195.446
 21
8.10011
  0
LINE
  8
0
 10
195.446
 20
8.10011
 11
195.481
 21
8.03955
  0
LINE
  8
0
 10
195.481
 20
8.03955
 11
195.513
 21
7.97687
  0
LINE
  8
0
 10
195.513
 20
7.97687
 11
195.541
 21
7.91229
  0
LINE
  8
0
 10
195.541
 20
7.91229
 11
195.565
 21
7.84608
  0
LINE
  8
0
 10
195.565
 20
7.84608
 11
195.585
 21
7.77852
  0
LINE
  8
0
 10
195.585
 20
7.77852
 11
195.6
 21
7.70985
  0
LINE
  8
0
 10
195.6
 20
7.70985
 11
195.611
 21
7.64037
  0
LINE
  8
0
 10
195.611
 20
7.64037
 11
195.618
 21
7.57031
  0
LINE
  8
0
 10
195.618
 20
7.57031
 11
195.62
 21
7.5
  0
LINE
  8
0
 10
195.62
 20
7.5
 11
195.618
 21
7.42967
  0
LINE
  8
0
 10
195.618
 20
7.42967
 11
195.611
 21
7.35962
  0
LINE
  8
0
 10
195.611
 20
7.35962
 11
195.6
 21
7.29013
  0
LINE
  8
0
 10
195.6
 20
7.29013
 11
195.585
 21
7.22147
  0
LINE
  8
0
 10
195.585
 20
7.22147
 11
195.565
 21
7.1539
  0
LINE
  8
0
 10
195.565
 20
7.1539
 11
195.541
 21
7.08769
  0
LINE
  8
0
 10
195.541
 20
7.08769
 11
195.513
 21
7.02312
  0
LINE
  8
0
 10
195.513
 20
7.02312
 11
195.481
 21
6.96043
  0
LINE
  8
0
 10
195.481
 20
6.96043
 11
195.446
 21
6.89987
  0
LINE
  8
0
 10
195.446
 20
6.89987
 11
195.406
 21
6.84167
  0
LINE
  8
0
 10
195.406
 20
6.84167
 11
195.363
 21
6.78607
  0
LINE
  8
0
 10
195.363
 20
6.78607
 11
195.316
 21
6.73331
  0
LINE
  8
0
 10
195.316
 20
6.73331
 11
195.267
 21
6.68355
  0
LINE
  8
0
 10
195.267
 20
6.68355
 11
195.214
 21
6.63702
  0
LINE
  8
0
 10
195.214
 20
6.63702
 11
195.158
 21
6.59389
  0
LINE
  8
0
 10
195.158
 20
6.59389
 11
195.1
 21
6.55435
  0
LINE
  8
0
 10
195.1
 20
6.55435
 11
195.04
 21
6.51852
  0
LINE
  8
0
 10
195.04
 20
6.51852
 11
194.977
 21
6.48659
  0
LINE
  8
0
 10
194.977
 20
6.48659
 11
194.912
 21
6.45865
  0
LINE
  8
0
 10
194.912
 20
6.45865
 11
194.846
 21
6.43481
  0
LINE
  8
0
 10
194.846
 20
6.43481
 11
194.779
 21
6.41518
  0
LINE
  8
0
 10
194.779
 20
6.41518
 11
194.71
 21
6.39983
  0
LINE
  8
0
 10
194.71
 20
6.39983
 11
194.64
 21
6.38882
  0
LINE
  8
0
 10
194.64
 20
6.38882
 11
194.57
 21
6.3822
  0
LINE
  8
0
 10
194.57
 20
6.3822
 11
194.5
 21
6.37999
  0
LINE
  8
0
 10
194.5
 20
6.37999
 11
194.43
 21
6.3822
  0
ENDSEC
  0
SECTION
  2
OBJECTS
  0
DICTIONARY
  0
ENDSEC
  0
EOF
