M48
; DRILL file {KiCad 8.0.6} date 2024-11-06T13:14:42+0000
; FORMAT={-:-/ absolute / metric / decimal}
; #@! TF.CreationDate,2024-11-06T13:14:42+00:00
; #@! TF.GenerationSoftware,Kicad,Pcbnew,8.0.6
; #@! TF.FileFunction,NonPlated,1,2,NPTH
FMAT,2
METRIC
; #@! TA.AperFunction,NonPlated,NPTH,ComponentDrill
T1C1.500
; #@! TA.AperFunction,NonPlated,NPTH,ComponentDrill
T2C3.400
%
G90
G05
T2
X58.0Y-98.3
X72.4Y-72.25
X100.4Y-69.75
X106.1Y-42.45
X127.4Y-80.75
X139.5Y-130.8
X150.5Y-100.3
X154.5Y-72.2
X169.5Y-122.2
X179.4Y-95.05
X181.4Y-68.25
X208.0Y-94.8
X209.0Y-67.8
X236.8Y-67.75
X237.0Y-94.8
T1
G00X55.85Y-91.5
M15
G01X60.15Y-91.5
M16
G05
G00X55.85Y-105.1
M15
G01X60.15Y-105.1
M16
G05
G00X70.25Y-65.45
M15
G01X74.55Y-65.45
M16
G05
G00X70.25Y-79.05
M15
G01X74.55Y-79.05
M16
G05
G00X98.25Y-62.95
M15
G01X102.55Y-62.95
M16
G05
G00X98.25Y-76.55
M15
G01X102.55Y-76.55
M16
G05
G00X103.95Y-35.65
M15
G01X108.25Y-35.65
M16
G05
G00X103.95Y-49.25
M15
G01X108.25Y-49.25
M16
G05
G00X125.25Y-73.95
M15
G01X129.55Y-73.95
M16
G05
G00X125.25Y-87.55
M15
G01X129.55Y-87.55
M16
G05
G00X137.35Y-124.0
M15
G01X141.65Y-124.0
M16
G05
G00X137.35Y-137.6
M15
G01X141.65Y-137.6
M16
G05
G00X148.35Y-93.5
M15
G01X152.65Y-93.5
M16
G05
G00X148.35Y-107.1
M15
G01X152.65Y-107.1
M16
G05
G00X152.35Y-65.4
M15
G01X156.65Y-65.4
M16
G05
G00X152.35Y-79.0
M15
G01X156.65Y-79.0
M16
G05
G00X167.35Y-115.4
M15
G01X171.65Y-115.4
M16
G05
G00X167.35Y-129.0
M15
G01X171.65Y-129.0
M16
G05
G00X177.25Y-88.25
M15
G01X181.55Y-88.25
M16
G05
G00X177.25Y-101.85
M15
G01X181.55Y-101.85
M16
G05
G00X179.25Y-61.45
M15
G01X183.55Y-61.45
M16
G05
G00X179.25Y-75.05
M15
G01X183.55Y-75.05
M16
G05
G00X205.85Y-88.0
M15
G01X210.15Y-88.0
M16
G05
G00X205.85Y-101.6
M15
G01X210.15Y-101.6
M16
G05
G00X206.85Y-61.0
M15
G01X211.15Y-61.0
M16
G05
G00X206.85Y-74.6
M15
G01X211.15Y-74.6
M16
G05
G00X234.65Y-60.95
M15
G01X238.95Y-60.95
M16
G05
G00X234.65Y-74.55
M15
G01X238.95Y-74.55
M16
G05
G00X234.85Y-88.0
M15
G01X239.15Y-88.0
M16
G05
G00X234.85Y-101.6
M15
G01X239.15Y-101.6
M16
G05
M30
