%TF.GenerationSoftware,KiCad,Pcbnew,8.0.6*%
%TF.CreationDate,2024-11-15T02:04:34+00:00*%
%TF.ProjectId,keychron_hitbox,6b657963-6872-46f6-9e5f-686974626f78,rev?*%
%TF.SameCoordinates,Original*%
%TF.FileFunction,Paste,Bot*%
%TF.FilePolarity,Positive*%
%FSLAX46Y46*%
G04 Gerber Fmt 4.6, Leading zero omitted, Abs format (unit mm)*
G04 Created by KiCad (PCBNEW 8.0.6) date 2024-11-15 02:04:34*
%MOMM*%
%LPD*%
G01*
G04 APERTURE LIST*
G04 Aperture macros list*
%AMRoundRect*
0 Rectangle with rounded corners*
0 $1 Rounding radius*
0 $2 $3 $4 $5 $6 $7 $8 $9 X,Y pos of 4 corners*
0 Add a 4 corners polygon primitive as box body*
4,1,4,$2,$3,$4,$5,$6,$7,$8,$9,$2,$3,0*
0 Add four circle primitives for the rounded corners*
1,1,$1+$1,$2,$3*
1,1,$1+$1,$4,$5*
1,1,$1+$1,$6,$7*
1,1,$1+$1,$8,$9*
0 Add four rect primitives between the rounded corners*
20,1,$1+$1,$2,$3,$4,$5,0*
20,1,$1+$1,$4,$5,$6,$7,0*
20,1,$1+$1,$6,$7,$8,$9,0*
20,1,$1+$1,$8,$9,$2,$3,0*%
G04 Aperture macros list end*
%ADD10RoundRect,0.250000X-0.450000X0.262500X-0.450000X-0.262500X0.450000X-0.262500X0.450000X0.262500X0*%
%ADD11R,1.000000X1.000000*%
G04 APERTURE END LIST*
D10*
X241700000Y-66387500D03*
X241700000Y-68212500D03*
D11*
X100760000Y-74350000D03*
X99060000Y-74350000D03*
X154830000Y-76080000D03*
X153130000Y-76080000D03*
X139790000Y-134690000D03*
X138090000Y-134690000D03*
D10*
X159100000Y-70775000D03*
X159100000Y-72600000D03*
X212700000Y-92975000D03*
X212700000Y-94800000D03*
X131812500Y-78487500D03*
X131812500Y-80312500D03*
D11*
X150760000Y-104140000D03*
X149060000Y-104140000D03*
D10*
X77512500Y-70887500D03*
X77512500Y-72712500D03*
D11*
X179670000Y-98840000D03*
X177970000Y-98840000D03*
D10*
X144500000Y-129000000D03*
X144500000Y-130825000D03*
D11*
X209260000Y-71670000D03*
X207560000Y-71670000D03*
X208250000Y-98660000D03*
X206550000Y-98660000D03*
X106530000Y-46550000D03*
X104830000Y-46550000D03*
D10*
X186200000Y-66800000D03*
X186200000Y-68625000D03*
D11*
X237220000Y-98640000D03*
X235520000Y-98640000D03*
X169760000Y-126030000D03*
X168060000Y-126030000D03*
D10*
X110900000Y-41175000D03*
X110900000Y-43000000D03*
X213612500Y-65975000D03*
X213612500Y-67800000D03*
X241800000Y-92387500D03*
X241800000Y-94212500D03*
D11*
X181660000Y-72130000D03*
X179960000Y-72130000D03*
D10*
X173600000Y-120400000D03*
X173600000Y-122225000D03*
D11*
X127650000Y-84620000D03*
X125950000Y-84620000D03*
X58160000Y-102200000D03*
X56460000Y-102200000D03*
D10*
X155212500Y-97587500D03*
X155212500Y-99412500D03*
X184400000Y-92875000D03*
X184400000Y-94700000D03*
X105300000Y-67475000D03*
X105300000Y-69300000D03*
D11*
X72630000Y-76830000D03*
X70930000Y-76830000D03*
X237060000Y-71570000D03*
X235360000Y-71570000D03*
D10*
X63012500Y-96587500D03*
X63012500Y-98412500D03*
M02*
