%TF.GenerationSoftware,KiCad,Pcbnew,8.0.6*%
%TF.CreationDate,2024-11-15T02:04:34+00:00*%
%TF.ProjectId,keychron_hitbox,6b657963-6872-46f6-9e5f-686974626f78,rev?*%
%TF.SameCoordinates,Original*%
%TF.FileFunction,Soldermask,Top*%
%TF.FilePolarity,Negative*%
%FSLAX46Y46*%
G04 Gerber Fmt 4.6, Leading zero omitted, Abs format (unit mm)*
G04 Created by KiCad (PCBNEW 8.0.6) date 2024-11-15 02:04:34*
%MOMM*%
%LPD*%
G01*
G04 APERTURE LIST*
G04 Aperture macros list*
%AMRoundRect*
0 Rectangle with rounded corners*
0 $1 Rounding radius*
0 $2 $3 $4 $5 $6 $7 $8 $9 X,Y pos of 4 corners*
0 Add a 4 corners polygon primitive as box body*
4,1,4,$2,$3,$4,$5,$6,$7,$8,$9,$2,$3,0*
0 Add four circle primitives for the rounded corners*
1,1,$1+$1,$2,$3*
1,1,$1+$1,$4,$5*
1,1,$1+$1,$6,$7*
1,1,$1+$1,$8,$9*
0 Add four rect primitives between the rounded corners*
20,1,$1+$1,$2,$3,$4,$5,0*
20,1,$1+$1,$4,$5,$6,$7,0*
20,1,$1+$1,$6,$7,$8,$9,0*
20,1,$1+$1,$8,$9,$2,$3,0*%
G04 Aperture macros list end*
%ADD10O,5.800000X1.500000*%
%ADD11C,3.500000*%
%ADD12R,0.700000X0.800000*%
%ADD13O,1.600000X2.000000*%
%ADD14RoundRect,0.175000X0.175000X-0.475000X0.175000X0.475000X-0.175000X0.475000X-0.175000X-0.475000X0*%
%ADD15C,1.700000*%
%ADD16R,3.500000X1.700000*%
%ADD17R,1.700000X3.500000*%
G04 APERTURE END LIST*
D10*
X169500000Y-115400000D03*
D11*
X169500000Y-122200000D03*
D10*
X169500000Y-129000000D03*
D12*
X171600000Y-125150000D03*
X171600000Y-126950000D03*
X166200000Y-126950000D03*
X166200000Y-125150000D03*
D11*
X237500000Y-32500000D03*
X52500000Y-142500000D03*
D10*
X181400000Y-61450000D03*
D11*
X181400000Y-68250000D03*
D10*
X181400000Y-75050000D03*
D12*
X183500000Y-71200000D03*
X183500000Y-73000000D03*
X178100000Y-73000000D03*
X178100000Y-71200000D03*
D10*
X237000000Y-88000000D03*
D11*
X237000000Y-94800000D03*
D10*
X237000000Y-101600000D03*
D12*
X239100000Y-97750000D03*
X239100000Y-99550000D03*
X233700000Y-99550000D03*
X233700000Y-97750000D03*
D13*
X191880000Y-28550000D03*
X194420000Y-28550000D03*
X196960000Y-28550000D03*
X199500000Y-28550000D03*
D10*
X208000000Y-88000000D03*
D11*
X208000000Y-94800000D03*
D10*
X208000000Y-101600000D03*
D12*
X210100000Y-97750000D03*
X210100000Y-99550000D03*
X204700000Y-99550000D03*
X204700000Y-97750000D03*
D10*
X209000000Y-61000000D03*
D11*
X209000000Y-67800000D03*
D10*
X209000000Y-74600000D03*
D12*
X211100000Y-70750000D03*
X211100000Y-72550000D03*
X205700000Y-72550000D03*
X205700000Y-70750000D03*
D10*
X150500000Y-93500000D03*
D11*
X150500000Y-100300000D03*
D10*
X150500000Y-107100000D03*
D12*
X152600000Y-103250000D03*
X152600000Y-105050000D03*
X147200000Y-105050000D03*
X147200000Y-103250000D03*
D14*
X71400000Y-37700000D03*
X71400000Y-29700000D03*
X75900000Y-37700000D03*
X75900000Y-29700000D03*
D15*
X143290000Y-28535000D03*
D16*
X144190000Y-28535000D03*
D15*
X143290000Y-31075000D03*
D16*
X144190000Y-31075000D03*
D15*
X143290000Y-33615000D03*
D16*
X144190000Y-33615000D03*
D15*
X143290000Y-36155000D03*
D16*
X144190000Y-36155000D03*
D15*
X143290000Y-38695000D03*
D16*
X144190000Y-38695000D03*
D15*
X143290000Y-41235000D03*
D16*
X144140000Y-41235000D03*
D15*
X143290000Y-43775000D03*
D16*
X144140000Y-43775000D03*
D15*
X143290000Y-46315000D03*
D16*
X144140000Y-46315000D03*
D15*
X143290000Y-48855000D03*
D16*
X144140000Y-48855000D03*
X127150000Y-28535000D03*
D15*
X128050000Y-28535000D03*
D16*
X127150000Y-31075000D03*
D15*
X128050000Y-31075000D03*
D16*
X127150000Y-33615000D03*
D15*
X128050000Y-33615000D03*
D16*
X127150000Y-36155000D03*
D15*
X128050000Y-36155000D03*
D16*
X127150000Y-38695000D03*
D15*
X128050000Y-38695000D03*
D16*
X127150000Y-41235000D03*
D15*
X128050000Y-41235000D03*
D16*
X127150000Y-43775000D03*
D15*
X128050000Y-43775000D03*
D16*
X127150000Y-46315000D03*
D15*
X128050000Y-46315000D03*
D16*
X127150000Y-48855000D03*
D15*
X128050000Y-48855000D03*
X140750000Y-48855000D03*
D17*
X140750000Y-49755000D03*
D15*
X138210000Y-48855000D03*
D17*
X138210000Y-49705000D03*
D15*
X135670000Y-48855000D03*
D17*
X135670000Y-49705000D03*
D15*
X133130000Y-48855000D03*
D17*
X133130000Y-49705000D03*
D15*
X130590000Y-48855000D03*
D17*
X130590000Y-49705000D03*
D14*
X63100000Y-37800000D03*
X63100000Y-29800000D03*
X67600000Y-37800000D03*
X67600000Y-29800000D03*
D10*
X236800000Y-60950000D03*
D11*
X236800000Y-67750000D03*
D10*
X236800000Y-74550000D03*
D12*
X238900000Y-70700000D03*
X238900000Y-72500000D03*
X233500000Y-72500000D03*
X233500000Y-70700000D03*
D10*
X106100000Y-35650000D03*
D11*
X106100000Y-42450000D03*
D10*
X106100000Y-49250000D03*
D12*
X108200000Y-45400000D03*
X108200000Y-47200000D03*
X102800000Y-47200000D03*
X102800000Y-45400000D03*
D10*
X154500000Y-65400000D03*
D11*
X154500000Y-72200000D03*
D10*
X154500000Y-79000000D03*
D12*
X156600000Y-75150000D03*
X156600000Y-76950000D03*
X151200000Y-76950000D03*
X151200000Y-75150000D03*
D11*
X237500000Y-142500000D03*
D10*
X72400000Y-65450000D03*
D11*
X72400000Y-72250000D03*
D10*
X72400000Y-79050000D03*
D12*
X74500000Y-75200000D03*
X74500000Y-77000000D03*
X69100000Y-77000000D03*
X69100000Y-75200000D03*
D10*
X127400000Y-73950000D03*
D11*
X127400000Y-80750000D03*
D10*
X127400000Y-87550000D03*
D12*
X129500000Y-83700000D03*
X129500000Y-85500000D03*
X124100000Y-85500000D03*
X124100000Y-83700000D03*
D14*
X79700000Y-37700000D03*
X79700000Y-29700000D03*
X84200000Y-37700000D03*
X84200000Y-29700000D03*
D10*
X139500000Y-124000000D03*
D11*
X139500000Y-130800000D03*
D10*
X139500000Y-137600000D03*
D12*
X141600000Y-133750000D03*
X141600000Y-135550000D03*
X136200000Y-135550000D03*
X136200000Y-133750000D03*
D10*
X179400000Y-88250000D03*
D11*
X179400000Y-95050000D03*
D10*
X179400000Y-101850000D03*
D12*
X181500000Y-98000000D03*
X181500000Y-99800000D03*
X176100000Y-99800000D03*
X176100000Y-98000000D03*
D11*
X157500000Y-142500000D03*
X52500000Y-32500000D03*
D10*
X100400000Y-62950000D03*
D11*
X100400000Y-69750000D03*
D10*
X100400000Y-76550000D03*
D12*
X102500000Y-72700000D03*
X102500000Y-74500000D03*
X97100000Y-74500000D03*
X97100000Y-72700000D03*
D10*
X58000000Y-91500000D03*
D11*
X58000000Y-98300000D03*
D10*
X58000000Y-105100000D03*
D12*
X60100000Y-101250000D03*
X60100000Y-103050000D03*
X54700000Y-103050000D03*
X54700000Y-101250000D03*
M02*
