M48
; DRILL file {KiCad 8.0.6} date 2024-11-20T03:38:00+0000
; FORMAT={-:-/ absolute / metric / decimal}
; #@! TF.CreationDate,2024-11-20T03:38:00+00:00
; #@! TF.GenerationSoftware,Kicad,Pcbnew,8.0.6
; #@! TF.FileFunction,Plated,1,2,PTH
FMAT,2
METRIC
; #@! TA.AperFunction,Plated,PTH,ViaDrill
T1C0.300
; #@! TA.AperFunction,Plated,PTH,ComponentDrill
T2C0.500
; #@! TA.AperFunction,Plated,PTH,ComponentDrill
T3C0.800
; #@! TA.AperFunction,Plated,PTH,ComponentDrill
T4C1.000
; #@! TA.AperFunction,Plated,PTH,ComponentDrill
T5C2.200
%
G90
G05
T1
X53.3Y-99.9
X55.5Y-109.0
X62.3Y-100.6
X62.5Y-84.75
X65.2Y-109.0
X67.2Y-74.1
X76.7Y-74.8
X81.0Y-55.25
X82.375Y-73.375
X86.6Y-69.25
X95.0Y-71.0
X100.2Y-43.0
X100.875Y-47.125
X104.4Y-71.8
X110.1Y-44.4
X112.5Y-53.0
X113.5Y-53.4
X114.5Y-54.2
X119.25Y-50.75
X120.25Y-51.4
X121.0Y-45.0
X121.25Y-42.75
X122.25Y-43.5
X122.4Y-82.2
X123.2Y-72.4
X123.4Y-44.9
X124.0Y-45.75
X128.35Y-67.25
X131.4Y-82.3
X135.1Y-132.0
X136.0Y-76.0
X141.1Y-60.7
X141.5Y-59.75
X141.7Y-61.275
X142.2Y-61.9
X142.225Y-59.025
X142.734Y-62.534
X142.825Y-58.425
X143.3Y-63.1
X143.425Y-57.675
X143.5Y-83.5
X143.7Y-132.9
X146.3Y-101.2
X147.875Y-81.125
X149.25Y-75.75
X149.625Y-60.125
X149.737Y-58.415
X149.8Y-73.2
X150.141Y-59.141
X154.167Y-119.733
X154.3Y-101.4
X158.5Y-73.8
X159.0Y-43.0
X164.3Y-122.3
X168.0Y-44.25
X171.7Y-69.5
X173.1Y-123.9
X174.1Y-96.1
X183.2Y-96.5
X185.4Y-70.6
X199.3Y-74.6
X203.1Y-95.7
X211.4Y-96.5
X213.1Y-69.7
X226.9Y-75.1
X232.5Y-96.2
X240.8Y-69.7
X241.1Y-96.1
T2
X130.07Y-34.113
X130.07Y-35.38
X130.07Y-36.646
X130.07Y-37.913
X130.07Y-39.18
X130.07Y-40.446
X130.07Y-41.713
X130.07Y-42.979
X130.07Y-44.246
X130.07Y-45.513
T3
X128.06Y-28.626
X128.06Y-31.166
X128.06Y-33.706
X128.06Y-36.246
X128.06Y-38.786
X128.06Y-41.326
X128.06Y-43.866
X128.06Y-46.406
X128.06Y-48.946
X130.6Y-48.946
X133.14Y-48.946
X135.68Y-48.946
X138.22Y-48.946
X140.76Y-48.946
X143.3Y-28.626
X143.3Y-31.166
X143.3Y-33.706
X143.3Y-36.246
X143.3Y-38.786
X143.3Y-41.326
X143.3Y-43.866
X143.3Y-46.406
X143.3Y-48.946
T4
X191.88Y-28.55
X194.42Y-28.55
X196.96Y-28.55
X199.5Y-28.55
T5
X52.5Y-32.5
X52.5Y-142.5
X157.5Y-142.5
X237.5Y-32.5
X237.5Y-142.5
M30
