%TF.GenerationSoftware,KiCad,Pcbnew,8.0.6*%
%TF.CreationDate,2024-11-20T03:37:43+00:00*%
%TF.ProjectId,keychron_hitbox,6b657963-6872-46f6-9e5f-686974626f78,rev?*%
%TF.SameCoordinates,Original*%
%TF.FileFunction,Legend,Top*%
%TF.FilePolarity,Positive*%
%FSLAX46Y46*%
G04 Gerber Fmt 4.6, Leading zero omitted, Abs format (unit mm)*
G04 Created by KiCad (PCBNEW 8.0.6) date 2024-11-20 03:37:43*
%MOMM*%
%LPD*%
G01*
G04 APERTURE LIST*
G04 Aperture macros list*
%AMRoundRect*
0 Rectangle with rounded corners*
0 $1 Rounding radius*
0 $2 $3 $4 $5 $6 $7 $8 $9 X,Y pos of 4 corners*
0 Add a 4 corners polygon primitive as box body*
4,1,4,$2,$3,$4,$5,$6,$7,$8,$9,$2,$3,0*
0 Add four circle primitives for the rounded corners*
1,1,$1+$1,$2,$3*
1,1,$1+$1,$4,$5*
1,1,$1+$1,$6,$7*
1,1,$1+$1,$8,$9*
0 Add four rect primitives between the rounded corners*
20,1,$1+$1,$2,$3,$4,$5,0*
20,1,$1+$1,$4,$5,$6,$7,0*
20,1,$1+$1,$6,$7,$8,$9,0*
20,1,$1+$1,$8,$9,$2,$3,0*%
G04 Aperture macros list end*
%ADD10C,0.300000*%
%ADD11C,0.100000*%
%ADD12C,0.150000*%
%ADD13C,0.120000*%
%ADD14C,0.000000*%
%ADD15O,5.800000X1.500000*%
%ADD16C,3.500000*%
%ADD17R,0.700000X0.800000*%
%ADD18O,1.600000X2.000000*%
%ADD19C,1.600000*%
%ADD20C,1.500000*%
%ADD21RoundRect,0.208333X-1.291667X0.291667X-1.291667X-0.291667X1.291667X-0.291667X1.291667X0.291667X0*%
%ADD22RoundRect,0.500000X-0.500000X1.250000X-0.500000X-1.250000X0.500000X-1.250000X0.500000X1.250000X0*%
%ADD23RoundRect,0.175000X0.175000X-0.475000X0.175000X0.475000X-0.175000X0.475000X-0.175000X-0.475000X0*%
%ADD24R,1.700000X1.700000*%
%ADD25C,1.700000*%
%ADD26C,0.850000*%
G04 APERTURE END LIST*
D10*
G36*
X121500000Y-95366594D02*
G01*
X121500000Y-94327585D01*
X122028053Y-94327585D01*
X122554640Y-94327585D01*
X122554640Y-94470711D01*
X122554640Y-94614326D01*
X122156036Y-94614326D01*
X121786741Y-94614326D01*
X121786741Y-94854173D01*
X121786741Y-95095484D01*
X122156036Y-95095484D01*
X122523377Y-95095484D01*
X122523377Y-94854173D01*
X122523377Y-94583063D01*
X122666992Y-94583063D01*
X122810118Y-94583063D01*
X122810118Y-94854173D01*
X122810118Y-95126748D01*
X122666992Y-95126748D01*
X122554640Y-95126748D01*
X122554640Y-95366594D01*
X122554640Y-95637704D01*
X122411514Y-95637704D01*
X122267899Y-95637704D01*
X122267899Y-95494577D01*
X122267899Y-95382226D01*
X122028053Y-95382226D01*
X121786741Y-95382226D01*
X121786741Y-95877550D01*
X121786741Y-96404626D01*
X121643614Y-96404626D01*
X121500000Y-96404626D01*
X121500000Y-95366594D01*
G37*
G36*
X122523377Y-95606441D02*
G01*
X122666992Y-95606441D01*
X122810118Y-95606441D01*
X122810118Y-96005533D01*
X122810118Y-96404626D01*
X122666992Y-96404626D01*
X122523377Y-96404626D01*
X122523377Y-96005533D01*
X122523377Y-95606441D01*
G37*
G36*
X123281507Y-94470711D02*
G01*
X123281507Y-94327585D01*
X123680600Y-94327585D01*
X124080669Y-94327585D01*
X124080669Y-94470711D01*
X124080669Y-94614326D01*
X123937543Y-94614326D01*
X123825191Y-94614326D01*
X123825191Y-95366594D01*
X123825191Y-96117885D01*
X123937543Y-96117885D01*
X124080669Y-96117885D01*
X124080669Y-96261011D01*
X124080669Y-96404626D01*
X123680600Y-96404626D01*
X123281507Y-96404626D01*
X123281507Y-96261011D01*
X123281507Y-96117885D01*
X123425122Y-96117885D01*
X123536985Y-96117885D01*
X123536985Y-95366594D01*
X123536985Y-94614326D01*
X123425122Y-94614326D01*
X123281507Y-94614326D01*
X123281507Y-94470711D01*
G37*
G36*
X124807536Y-94470711D02*
G01*
X124807536Y-94327585D01*
X125208094Y-94327585D01*
X125606699Y-94327585D01*
X125606699Y-94470711D01*
X125606699Y-94614326D01*
X125208094Y-94614326D01*
X124807536Y-94614326D01*
X124807536Y-94470711D01*
G37*
G36*
X125606699Y-96117885D02*
G01*
X125606699Y-96261011D01*
X125606699Y-96404626D01*
X125208094Y-96404626D01*
X124807536Y-96404626D01*
X124807536Y-96261011D01*
X124807536Y-96149148D01*
X124695673Y-96149148D01*
X124552058Y-96149148D01*
X124552058Y-95366594D01*
X124552058Y-94583063D01*
X124695673Y-94583063D01*
X124838799Y-94583063D01*
X124838799Y-95366594D01*
X124838799Y-96117885D01*
X125208094Y-96117885D01*
X125606699Y-96117885D01*
G37*
G36*
X125575436Y-96149148D02*
G01*
X125575436Y-95750055D01*
X125575436Y-95382226D01*
X125335589Y-95382226D01*
X125063014Y-95382226D01*
X125063014Y-95239099D01*
X125063014Y-95095484D01*
X125463572Y-95095484D01*
X125862177Y-95095484D01*
X125862177Y-95622072D01*
X125862177Y-96149148D01*
X125719050Y-96149148D01*
X125575436Y-96149148D01*
G37*
G36*
X125575436Y-94583063D02*
G01*
X125719050Y-94583063D01*
X125862177Y-94583063D01*
X125862177Y-94726678D01*
X125862177Y-94869804D01*
X125719050Y-94869804D01*
X125575436Y-94869804D01*
X125575436Y-94726678D01*
X125575436Y-94583063D01*
G37*
G36*
X126078087Y-95366594D02*
G01*
X126078087Y-94327585D01*
X126221702Y-94327585D01*
X126364829Y-94327585D01*
X126364829Y-94726678D01*
X126364829Y-95095484D01*
X126734124Y-95095484D01*
X127101465Y-95095484D01*
X127101465Y-94726678D01*
X127101465Y-94327585D01*
X127245080Y-94327585D01*
X127388206Y-94327585D01*
X127388206Y-95366594D01*
X127388206Y-96404626D01*
X127245080Y-96404626D01*
X127101465Y-96404626D01*
X127101465Y-95877550D01*
X127101465Y-95382226D01*
X126734124Y-95382226D01*
X126364829Y-95382226D01*
X126364829Y-95877550D01*
X126364829Y-96404626D01*
X126221702Y-96404626D01*
X126078087Y-96404626D01*
X126078087Y-95366594D01*
G37*
G36*
X127604117Y-94470711D02*
G01*
X127604117Y-94327585D01*
X128258688Y-94327585D01*
X128914235Y-94327585D01*
X128914235Y-94470711D01*
X128914235Y-94614326D01*
X128643126Y-94614326D01*
X128403279Y-94614326D01*
X128403279Y-95494577D01*
X128403279Y-96404626D01*
X128260153Y-96404626D01*
X128115073Y-96404626D01*
X128115073Y-95494577D01*
X128115073Y-94614326D01*
X127875226Y-94614326D01*
X127604117Y-94614326D01*
X127604117Y-94470711D01*
G37*
G36*
X67420000Y-109136594D02*
G01*
X67420000Y-108097585D01*
X67563614Y-108097585D01*
X67706741Y-108097585D01*
X67706741Y-109009099D01*
X67706741Y-109887885D01*
X68203531Y-109887885D01*
X68730118Y-109887885D01*
X68730118Y-110031011D01*
X68730118Y-110174626D01*
X68074570Y-110174626D01*
X67420000Y-110174626D01*
X67420000Y-109136594D01*
G37*
G36*
X69201507Y-108496678D02*
G01*
X69201507Y-108353063D01*
X69602065Y-108353063D01*
X70000669Y-108353063D01*
X70000669Y-108496678D01*
X70000669Y-108639804D01*
X69602065Y-108639804D01*
X69201507Y-108639804D01*
X69201507Y-108496678D01*
G37*
G36*
X69232770Y-108608541D02*
G01*
X69232770Y-108752156D01*
X69232770Y-108895282D01*
X69089644Y-108895282D01*
X68946029Y-108895282D01*
X68946029Y-108752156D01*
X68946029Y-108608541D01*
X69089644Y-108608541D01*
X69232770Y-108608541D01*
G37*
G36*
X69201507Y-109887885D02*
G01*
X69602065Y-109887885D01*
X69969406Y-109887885D01*
X69969406Y-109647550D01*
X69969406Y-109407704D01*
X69729560Y-109407704D01*
X69456985Y-109407704D01*
X69456985Y-109264577D01*
X69456985Y-109120963D01*
X69729560Y-109120963D01*
X69969406Y-109120963D01*
X69969406Y-108881116D01*
X69969406Y-108608541D01*
X70113021Y-108608541D01*
X70256147Y-108608541D01*
X70256147Y-108881116D01*
X70256147Y-109152226D01*
X70113021Y-109152226D01*
X70000669Y-109152226D01*
X70000669Y-109264577D01*
X70000669Y-109376441D01*
X70113021Y-109376441D01*
X70256147Y-109376441D01*
X70256147Y-109647550D01*
X70256147Y-109919148D01*
X70113021Y-109919148D01*
X70000669Y-109919148D01*
X70000669Y-110031011D01*
X70000669Y-110174626D01*
X69602065Y-110174626D01*
X69201507Y-110174626D01*
X69201507Y-110031011D01*
X69201507Y-109887885D01*
G37*
G36*
X69232770Y-109919148D02*
G01*
X69089644Y-109919148D01*
X68946029Y-109919148D01*
X68946029Y-109775533D01*
X68946029Y-109631919D01*
X69089644Y-109631919D01*
X69232770Y-109631919D01*
X69232770Y-109775533D01*
X69232770Y-109919148D01*
G37*
G36*
X190580000Y-104576594D02*
G01*
X190580000Y-103537585D01*
X191108053Y-103537585D01*
X191634640Y-103537585D01*
X191634640Y-103680711D01*
X191634640Y-103824326D01*
X191236036Y-103824326D01*
X190866741Y-103824326D01*
X190866741Y-104064173D01*
X190866741Y-104305484D01*
X191236036Y-104305484D01*
X191603377Y-104305484D01*
X191603377Y-104064173D01*
X191603377Y-103793063D01*
X191746992Y-103793063D01*
X191890118Y-103793063D01*
X191890118Y-104064173D01*
X191890118Y-104336748D01*
X191746992Y-104336748D01*
X191634640Y-104336748D01*
X191634640Y-104449099D01*
X191634640Y-104592226D01*
X191236036Y-104592226D01*
X190866741Y-104592226D01*
X190866741Y-104960055D01*
X190866741Y-105327885D01*
X191236036Y-105327885D01*
X191603377Y-105327885D01*
X191603377Y-104960055D01*
X191603377Y-104560963D01*
X191746992Y-104560963D01*
X191890118Y-104560963D01*
X191890118Y-104960055D01*
X191890118Y-105359148D01*
X191746992Y-105359148D01*
X191634640Y-105359148D01*
X191634640Y-105471011D01*
X191634640Y-105614626D01*
X191108053Y-105614626D01*
X190580000Y-105614626D01*
X190580000Y-104576594D01*
G37*
G36*
X67250000Y-40212445D02*
G01*
X67250000Y-39433189D01*
X67357711Y-39433189D01*
X67465055Y-39433189D01*
X67465055Y-39732508D01*
X67465055Y-40009113D01*
X67742027Y-40009113D01*
X68017533Y-40009113D01*
X68017533Y-39732508D01*
X68017533Y-39433189D01*
X68125244Y-39433189D01*
X68232588Y-39433189D01*
X68232588Y-40212445D01*
X68232588Y-40990969D01*
X68125244Y-40990969D01*
X68017533Y-40990969D01*
X68017533Y-40595662D01*
X68017533Y-40224169D01*
X67742027Y-40224169D01*
X67465055Y-40224169D01*
X67465055Y-40595662D01*
X67465055Y-40990969D01*
X67357711Y-40990969D01*
X67250000Y-40990969D01*
X67250000Y-40212445D01*
G37*
G36*
X68586130Y-39540533D02*
G01*
X68586130Y-39433189D01*
X68886549Y-39433189D01*
X69185502Y-39433189D01*
X69185502Y-39540533D01*
X69185502Y-39648244D01*
X68886549Y-39648244D01*
X68609577Y-39648244D01*
X68609577Y-40212445D01*
X68609577Y-40775914D01*
X68886549Y-40775914D01*
X69162055Y-40775914D01*
X69162055Y-40212445D01*
X69162055Y-39624797D01*
X69269766Y-39624797D01*
X69377110Y-39624797D01*
X69377110Y-40212445D01*
X69377110Y-40799361D01*
X69269766Y-40799361D01*
X69185502Y-40799361D01*
X69185502Y-40883258D01*
X69185502Y-40990969D01*
X68886549Y-40990969D01*
X68586130Y-40990969D01*
X68586130Y-40883258D01*
X68586130Y-40799361D01*
X68502233Y-40799361D01*
X68394521Y-40799361D01*
X68394521Y-40212445D01*
X68394521Y-39624797D01*
X68502233Y-39624797D01*
X68586130Y-39624797D01*
X68586130Y-39540533D01*
G37*
G36*
X69539043Y-40212445D02*
G01*
X69539043Y-39433189D01*
X69646755Y-39433189D01*
X69754099Y-39433189D01*
X69754099Y-39540533D01*
X69754099Y-39624797D01*
X69838363Y-39624797D01*
X69945708Y-39624797D01*
X69945708Y-39732508D01*
X69945708Y-39839853D01*
X69838363Y-39839853D01*
X69754099Y-39839853D01*
X69754099Y-40404054D01*
X69754099Y-40990969D01*
X69646755Y-40990969D01*
X69539043Y-40990969D01*
X69539043Y-40212445D01*
G37*
G36*
X70138415Y-39816406D02*
G01*
X70138415Y-40020837D01*
X70138415Y-40224169D01*
X70031071Y-40224169D01*
X69922260Y-40224169D01*
X69922260Y-40020837D01*
X69922260Y-39816406D01*
X70031071Y-39816406D01*
X70138415Y-39816406D01*
G37*
G36*
X70114968Y-39839853D02*
G01*
X70114968Y-39732508D01*
X70114968Y-39624797D01*
X70222679Y-39624797D01*
X70306577Y-39624797D01*
X70306577Y-39540533D01*
X70306577Y-39433189D01*
X70414288Y-39433189D01*
X70521632Y-39433189D01*
X70521632Y-40212445D01*
X70521632Y-40990969D01*
X70414288Y-40990969D01*
X70306577Y-40990969D01*
X70306577Y-40404054D01*
X70306577Y-39839853D01*
X70222679Y-39839853D01*
X70114968Y-39839853D01*
G37*
G36*
X70683565Y-40212445D02*
G01*
X70683565Y-39433189D01*
X71174494Y-39433189D01*
X71666154Y-39433189D01*
X71666154Y-39540533D01*
X71666154Y-39648244D01*
X71271214Y-39648244D01*
X70898621Y-39648244D01*
X70898621Y-39828129D01*
X70898621Y-40009113D01*
X71175593Y-40009113D01*
X71474546Y-40009113D01*
X71474546Y-40116824D01*
X71474546Y-40224169D01*
X71175593Y-40224169D01*
X70898621Y-40224169D01*
X70898621Y-40500041D01*
X70898621Y-40775914D01*
X71271214Y-40775914D01*
X71666154Y-40775914D01*
X71666154Y-40883258D01*
X71666154Y-40990969D01*
X71174494Y-40990969D01*
X70683565Y-40990969D01*
X70683565Y-40212445D01*
G37*
G36*
X84340000Y-40212445D02*
G01*
X84340000Y-39433189D01*
X84736039Y-39433189D01*
X85130980Y-39433189D01*
X85130980Y-39540533D01*
X85130980Y-39648244D01*
X84832027Y-39648244D01*
X84555055Y-39648244D01*
X84555055Y-39828129D01*
X84555055Y-40009113D01*
X84832027Y-40009113D01*
X85107533Y-40009113D01*
X85107533Y-39828129D01*
X85107533Y-39624797D01*
X85215244Y-39624797D01*
X85322588Y-39624797D01*
X85322588Y-39828129D01*
X85322588Y-40032561D01*
X85215244Y-40032561D01*
X85130980Y-40032561D01*
X85130980Y-40116824D01*
X85130980Y-40224169D01*
X84832027Y-40224169D01*
X84555055Y-40224169D01*
X84555055Y-40500041D01*
X84555055Y-40775914D01*
X84832027Y-40775914D01*
X85107533Y-40775914D01*
X85107533Y-40500041D01*
X85107533Y-40200722D01*
X85215244Y-40200722D01*
X85322588Y-40200722D01*
X85322588Y-40500041D01*
X85322588Y-40799361D01*
X85215244Y-40799361D01*
X85130980Y-40799361D01*
X85130980Y-40883258D01*
X85130980Y-40990969D01*
X84736039Y-40990969D01*
X84340000Y-40990969D01*
X84340000Y-40212445D01*
G37*
G36*
X85676130Y-39540533D02*
G01*
X85676130Y-39433189D01*
X85976549Y-39433189D01*
X86275502Y-39433189D01*
X86275502Y-39540533D01*
X86275502Y-39648244D01*
X85976549Y-39648244D01*
X85699577Y-39648244D01*
X85699577Y-39828129D01*
X85699577Y-40009113D01*
X85976549Y-40009113D01*
X86252055Y-40009113D01*
X86252055Y-39828129D01*
X86252055Y-39624797D01*
X86359766Y-39624797D01*
X86467110Y-39624797D01*
X86467110Y-40308433D01*
X86467110Y-40990969D01*
X86359766Y-40990969D01*
X86252055Y-40990969D01*
X86252055Y-40595662D01*
X86252055Y-40224169D01*
X85976549Y-40224169D01*
X85699577Y-40224169D01*
X85699577Y-40595662D01*
X85699577Y-40990969D01*
X85592233Y-40990969D01*
X85484521Y-40990969D01*
X85484521Y-40308433D01*
X85484521Y-39624797D01*
X85592233Y-39624797D01*
X85676130Y-39624797D01*
X85676130Y-39540533D01*
G37*
G36*
X86820652Y-39540533D02*
G01*
X86820652Y-39433189D01*
X87121071Y-39433189D01*
X87420024Y-39433189D01*
X87420024Y-39540533D01*
X87420024Y-39648244D01*
X87121071Y-39648244D01*
X86820652Y-39648244D01*
X86820652Y-39540533D01*
G37*
G36*
X87420024Y-40775914D02*
G01*
X87420024Y-40883258D01*
X87420024Y-40990969D01*
X87121071Y-40990969D01*
X86820652Y-40990969D01*
X86820652Y-40883258D01*
X86820652Y-40799361D01*
X86736755Y-40799361D01*
X86629043Y-40799361D01*
X86629043Y-40212445D01*
X86629043Y-39624797D01*
X86736755Y-39624797D01*
X86844099Y-39624797D01*
X86844099Y-40212445D01*
X86844099Y-40775914D01*
X87121071Y-40775914D01*
X87420024Y-40775914D01*
G37*
G36*
X87396577Y-40799361D02*
G01*
X87396577Y-40691650D01*
X87396577Y-40583939D01*
X87504288Y-40583939D01*
X87611632Y-40583939D01*
X87611632Y-40691650D01*
X87611632Y-40799361D01*
X87504288Y-40799361D01*
X87396577Y-40799361D01*
G37*
G36*
X87396577Y-39624797D02*
G01*
X87504288Y-39624797D01*
X87611632Y-39624797D01*
X87611632Y-39732508D01*
X87611632Y-39839853D01*
X87504288Y-39839853D01*
X87396577Y-39839853D01*
X87396577Y-39732508D01*
X87396577Y-39624797D01*
G37*
G36*
X87773565Y-40212445D02*
G01*
X87773565Y-39433189D01*
X87881277Y-39433189D01*
X87988621Y-39433189D01*
X87988621Y-39732508D01*
X87988621Y-40009113D01*
X88072885Y-40009113D01*
X88180230Y-40009113D01*
X88180230Y-40116824D01*
X88180230Y-40224169D01*
X88072885Y-40224169D01*
X87988621Y-40224169D01*
X87988621Y-40595662D01*
X87988621Y-40990969D01*
X87881277Y-40990969D01*
X87773565Y-40990969D01*
X87773565Y-40212445D01*
G37*
G36*
X88564546Y-40607386D02*
G01*
X88457201Y-40607386D01*
X88349490Y-40607386D01*
X88349490Y-40500041D01*
X88349490Y-40415778D01*
X88265593Y-40415778D01*
X88156782Y-40415778D01*
X88156782Y-40308433D01*
X88156782Y-40200722D01*
X88265593Y-40200722D01*
X88372937Y-40200722D01*
X88372937Y-40308433D01*
X88372937Y-40392330D01*
X88457201Y-40392330D01*
X88564546Y-40392330D01*
X88564546Y-40500041D01*
X88564546Y-40607386D01*
G37*
G36*
X88541099Y-40583939D02*
G01*
X88648810Y-40583939D01*
X88756154Y-40583939D01*
X88756154Y-40787637D01*
X88756154Y-40990969D01*
X88648810Y-40990969D01*
X88541099Y-40990969D01*
X88541099Y-40787637D01*
X88541099Y-40583939D01*
G37*
G36*
X88564546Y-39624797D02*
G01*
X88564546Y-39732508D01*
X88564546Y-39839853D01*
X88457201Y-39839853D01*
X88372937Y-39839853D01*
X88372937Y-39924117D01*
X88372937Y-40032561D01*
X88265593Y-40032561D01*
X88156782Y-40032561D01*
X88156782Y-39924117D01*
X88156782Y-39816406D01*
X88265593Y-39816406D01*
X88349490Y-39816406D01*
X88349490Y-39732508D01*
X88349490Y-39624797D01*
X88457201Y-39624797D01*
X88564546Y-39624797D01*
G37*
G36*
X88541099Y-39648244D02*
G01*
X88541099Y-39540533D01*
X88541099Y-39433189D01*
X88648810Y-39433189D01*
X88756154Y-39433189D01*
X88756154Y-39540533D01*
X88756154Y-39648244D01*
X88648810Y-39648244D01*
X88541099Y-39648244D01*
G37*
G36*
X129450000Y-56462445D02*
G01*
X129450000Y-55683189D01*
X129846039Y-55683189D01*
X130240980Y-55683189D01*
X130240980Y-55790533D01*
X130240980Y-55898244D01*
X129942027Y-55898244D01*
X129665055Y-55898244D01*
X129665055Y-56078129D01*
X129665055Y-56259113D01*
X129942027Y-56259113D01*
X130217533Y-56259113D01*
X130217533Y-56078129D01*
X130217533Y-55874797D01*
X130325244Y-55874797D01*
X130432588Y-55874797D01*
X130432588Y-56078129D01*
X130432588Y-56282561D01*
X130325244Y-56282561D01*
X130240980Y-56282561D01*
X130240980Y-56462445D01*
X130240980Y-56665778D01*
X130133635Y-56665778D01*
X130025924Y-56665778D01*
X130025924Y-56558433D01*
X130025924Y-56474169D01*
X129846039Y-56474169D01*
X129665055Y-56474169D01*
X129665055Y-56845662D01*
X129665055Y-57240969D01*
X129557711Y-57240969D01*
X129450000Y-57240969D01*
X129450000Y-56462445D01*
G37*
G36*
X130217533Y-56642330D02*
G01*
X130325244Y-56642330D01*
X130432588Y-56642330D01*
X130432588Y-56941650D01*
X130432588Y-57240969D01*
X130325244Y-57240969D01*
X130217533Y-57240969D01*
X130217533Y-56941650D01*
X130217533Y-56642330D01*
G37*
G36*
X130594521Y-56462445D02*
G01*
X130594521Y-55683189D01*
X130990561Y-55683189D01*
X131385502Y-55683189D01*
X131385502Y-55790533D01*
X131385502Y-55898244D01*
X131086549Y-55898244D01*
X130809577Y-55898244D01*
X130809577Y-56078129D01*
X130809577Y-56259113D01*
X131086549Y-56259113D01*
X131362055Y-56259113D01*
X131362055Y-56078129D01*
X131362055Y-55874797D01*
X131469766Y-55874797D01*
X131577110Y-55874797D01*
X131577110Y-56078129D01*
X131577110Y-56282561D01*
X131469766Y-56282561D01*
X131385502Y-56282561D01*
X131385502Y-56366824D01*
X131385502Y-56474169D01*
X131086549Y-56474169D01*
X130809577Y-56474169D01*
X130809577Y-56845662D01*
X130809577Y-57240969D01*
X130702233Y-57240969D01*
X130594521Y-57240969D01*
X130594521Y-56462445D01*
G37*
G36*
X131930652Y-55982508D02*
G01*
X131930652Y-55874797D01*
X132231071Y-55874797D01*
X132530024Y-55874797D01*
X132530024Y-55982508D01*
X132530024Y-56089853D01*
X132231071Y-56089853D01*
X131930652Y-56089853D01*
X131930652Y-55982508D01*
G37*
G36*
X131954099Y-56066406D02*
G01*
X131954099Y-56174117D01*
X131954099Y-56281461D01*
X131846755Y-56281461D01*
X131739043Y-56281461D01*
X131739043Y-56174117D01*
X131739043Y-56066406D01*
X131846755Y-56066406D01*
X131954099Y-56066406D01*
G37*
G36*
X132122260Y-56857386D02*
G01*
X132122260Y-56750041D01*
X132122260Y-56642330D01*
X132231071Y-56642330D01*
X132314968Y-56642330D01*
X132314968Y-56558433D01*
X132314968Y-56450722D01*
X132422679Y-56450722D01*
X132506577Y-56450722D01*
X132506577Y-56270837D01*
X132506577Y-56066406D01*
X132614288Y-56066406D01*
X132721632Y-56066406D01*
X132721632Y-56270837D01*
X132721632Y-56474169D01*
X132614288Y-56474169D01*
X132530024Y-56474169D01*
X132530024Y-56558433D01*
X132530024Y-56665778D01*
X132422679Y-56665778D01*
X132338415Y-56665778D01*
X132338415Y-56750041D01*
X132338415Y-56857386D01*
X132231071Y-56857386D01*
X132122260Y-56857386D01*
G37*
G36*
X132145708Y-56833939D02*
G01*
X132145708Y-56941650D01*
X132145708Y-57025914D01*
X132422679Y-57025914D01*
X132721632Y-57025914D01*
X132721632Y-57133258D01*
X132721632Y-57240969D01*
X132229972Y-57240969D01*
X131739043Y-57240969D01*
X131739043Y-57133258D01*
X131739043Y-57025914D01*
X131846755Y-57025914D01*
X131930652Y-57025914D01*
X131930652Y-56941650D01*
X131930652Y-56833939D01*
X132038363Y-56833939D01*
X132145708Y-56833939D01*
G37*
G36*
X133075174Y-55982508D02*
G01*
X133075174Y-55874797D01*
X133375593Y-55874797D01*
X133674546Y-55874797D01*
X133674546Y-55982508D01*
X133674546Y-56089853D01*
X133375593Y-56089853D01*
X133098621Y-56089853D01*
X133098621Y-56366824D01*
X133098621Y-56642330D01*
X133182885Y-56642330D01*
X133290230Y-56642330D01*
X133290230Y-56750041D01*
X133290230Y-56857386D01*
X133182885Y-56857386D01*
X133098621Y-56857386D01*
X133098621Y-56941650D01*
X133098621Y-57025914D01*
X133375593Y-57025914D01*
X133651099Y-57025914D01*
X133651099Y-56750041D01*
X133651099Y-56474169D01*
X133567201Y-56474169D01*
X133459490Y-56474169D01*
X133459490Y-56366824D01*
X133459490Y-56258014D01*
X133567201Y-56258014D01*
X133651099Y-56258014D01*
X133651099Y-56174117D01*
X133651099Y-56066406D01*
X133758810Y-56066406D01*
X133866154Y-56066406D01*
X133866154Y-56558433D01*
X133866154Y-57049361D01*
X133758810Y-57049361D01*
X133674546Y-57049361D01*
X133674546Y-57133258D01*
X133674546Y-57240969D01*
X133375593Y-57240969D01*
X133075174Y-57240969D01*
X133075174Y-57133258D01*
X133075174Y-57049361D01*
X132991277Y-57049361D01*
X132883565Y-57049361D01*
X132883565Y-56558433D01*
X132883565Y-56066406D01*
X132991277Y-56066406D01*
X133075174Y-56066406D01*
X133075174Y-55982508D01*
G37*
G36*
X133266782Y-56558433D02*
G01*
X133266782Y-56450722D01*
X133375593Y-56450722D01*
X133482937Y-56450722D01*
X133482937Y-56558433D01*
X133482937Y-56665778D01*
X133375593Y-56665778D01*
X133266782Y-56665778D01*
X133266782Y-56558433D01*
G37*
G36*
X134819068Y-56270837D02*
G01*
X134819068Y-56642330D01*
X134903332Y-56642330D01*
X135010676Y-56642330D01*
X135010676Y-56750041D01*
X135010676Y-56857386D01*
X134903332Y-56857386D01*
X134819068Y-56857386D01*
X134819068Y-57037637D01*
X134819068Y-57240969D01*
X134711723Y-57240969D01*
X134604012Y-57240969D01*
X134604012Y-57037637D01*
X134604012Y-56857386D01*
X134327407Y-56857386D01*
X134028087Y-56857386D01*
X134028087Y-56654054D01*
X134028087Y-56474169D01*
X134243143Y-56474169D01*
X134243143Y-56558433D01*
X134243143Y-56642330D01*
X134424127Y-56642330D01*
X134604012Y-56642330D01*
X134604012Y-56462445D01*
X134604012Y-56281461D01*
X134520115Y-56281461D01*
X134434752Y-56281461D01*
X134434752Y-56366824D01*
X134434752Y-56474169D01*
X134327407Y-56474169D01*
X134243143Y-56474169D01*
X134028087Y-56474169D01*
X134028087Y-56450722D01*
X134135799Y-56450722D01*
X134219696Y-56450722D01*
X134219696Y-56366824D01*
X134219696Y-56258014D01*
X134327407Y-56258014D01*
X134411304Y-56258014D01*
X134411304Y-56174117D01*
X134411304Y-56066406D01*
X134520115Y-56066406D01*
X134604012Y-56066406D01*
X134604012Y-55982508D01*
X134604012Y-55874797D01*
X134711723Y-55874797D01*
X134819068Y-55874797D01*
X134819068Y-56270837D01*
G37*
G36*
X135364218Y-55982508D02*
G01*
X135364218Y-55874797D01*
X135664637Y-55874797D01*
X135963590Y-55874797D01*
X135963590Y-55982508D01*
X135963590Y-56089853D01*
X135664637Y-56089853D01*
X135387665Y-56089853D01*
X135387665Y-56366824D01*
X135387665Y-56642330D01*
X135471929Y-56642330D01*
X135579274Y-56642330D01*
X135579274Y-56750041D01*
X135579274Y-56857386D01*
X135471929Y-56857386D01*
X135387665Y-56857386D01*
X135387665Y-56941650D01*
X135387665Y-57025914D01*
X135664637Y-57025914D01*
X135940143Y-57025914D01*
X135940143Y-56750041D01*
X135940143Y-56474169D01*
X135856245Y-56474169D01*
X135748534Y-56474169D01*
X135748534Y-56366824D01*
X135748534Y-56258014D01*
X135856245Y-56258014D01*
X135940143Y-56258014D01*
X135940143Y-56174117D01*
X135940143Y-56066406D01*
X136047854Y-56066406D01*
X136155198Y-56066406D01*
X136155198Y-56558433D01*
X136155198Y-57049361D01*
X136047854Y-57049361D01*
X135963590Y-57049361D01*
X135963590Y-57133258D01*
X135963590Y-57240969D01*
X135664637Y-57240969D01*
X135364218Y-57240969D01*
X135364218Y-57133258D01*
X135364218Y-57049361D01*
X135280321Y-57049361D01*
X135172609Y-57049361D01*
X135172609Y-56558433D01*
X135172609Y-56066406D01*
X135280321Y-56066406D01*
X135364218Y-56066406D01*
X135364218Y-55982508D01*
G37*
G36*
X135555826Y-56558433D02*
G01*
X135555826Y-56450722D01*
X135664637Y-56450722D01*
X135771981Y-56450722D01*
X135771981Y-56558433D01*
X135771981Y-56665778D01*
X135664637Y-56665778D01*
X135555826Y-56665778D01*
X135555826Y-56558433D01*
G37*
G36*
X136317131Y-56559532D02*
G01*
X136317131Y-56451821D01*
X136808060Y-56451821D01*
X137299720Y-56451821D01*
X137299720Y-56559532D01*
X137299720Y-56666877D01*
X136808060Y-56666877D01*
X136317131Y-56666877D01*
X136317131Y-56559532D01*
G37*
G36*
X137461653Y-55790533D02*
G01*
X137461653Y-55683189D01*
X137952581Y-55683189D01*
X138444242Y-55683189D01*
X138444242Y-55886521D01*
X138444242Y-56089853D01*
X138336898Y-56089853D01*
X138229187Y-56089853D01*
X138229187Y-55982508D01*
X138229187Y-55898244D01*
X137857693Y-55898244D01*
X137461653Y-55898244D01*
X137461653Y-55790533D01*
G37*
G36*
X137653262Y-56665778D02*
G01*
X137653262Y-56558433D01*
X137653262Y-56450722D01*
X137760973Y-56450722D01*
X137844870Y-56450722D01*
X137844870Y-56366824D01*
X137844870Y-56259113D01*
X137953681Y-56259113D01*
X138037578Y-56259113D01*
X138037578Y-56174117D01*
X138037578Y-56066406D01*
X138145289Y-56066406D01*
X138252634Y-56066406D01*
X138252634Y-56174117D01*
X138252634Y-56282561D01*
X138145289Y-56282561D01*
X138061025Y-56282561D01*
X138061025Y-56366824D01*
X138061025Y-56474169D01*
X137953681Y-56474169D01*
X137868318Y-56474169D01*
X137868318Y-56558433D01*
X137868318Y-56665778D01*
X137760973Y-56665778D01*
X137653262Y-56665778D01*
G37*
G36*
X137676709Y-56642330D02*
G01*
X137676709Y-56845662D01*
X137676709Y-57025914D01*
X138049302Y-57025914D01*
X138444242Y-57025914D01*
X138444242Y-57133258D01*
X138444242Y-57240969D01*
X137952581Y-57240969D01*
X137461653Y-57240969D01*
X137461653Y-56941650D01*
X137461653Y-56642330D01*
X137569364Y-56642330D01*
X137676709Y-56642330D01*
G37*
G36*
X138606175Y-56462445D02*
G01*
X138606175Y-55683189D01*
X139097103Y-55683189D01*
X139588764Y-55683189D01*
X139588764Y-55790533D01*
X139588764Y-55898244D01*
X139193824Y-55898244D01*
X138821231Y-55898244D01*
X138821231Y-56078129D01*
X138821231Y-56259113D01*
X139098203Y-56259113D01*
X139397156Y-56259113D01*
X139397156Y-56366824D01*
X139397156Y-56474169D01*
X139098203Y-56474169D01*
X138821231Y-56474169D01*
X138821231Y-56750041D01*
X138821231Y-57025914D01*
X139193824Y-57025914D01*
X139588764Y-57025914D01*
X139588764Y-57133258D01*
X139588764Y-57240969D01*
X139097103Y-57240969D01*
X138606175Y-57240969D01*
X138606175Y-56462445D01*
G37*
G36*
X139750697Y-56462445D02*
G01*
X139750697Y-55683189D01*
X140146737Y-55683189D01*
X140541678Y-55683189D01*
X140541678Y-55790533D01*
X140541678Y-55898244D01*
X140242725Y-55898244D01*
X139965753Y-55898244D01*
X139965753Y-56078129D01*
X139965753Y-56259113D01*
X140242725Y-56259113D01*
X140518230Y-56259113D01*
X140518230Y-56078129D01*
X140518230Y-55874797D01*
X140625942Y-55874797D01*
X140733286Y-55874797D01*
X140733286Y-56078129D01*
X140733286Y-56282561D01*
X140625942Y-56282561D01*
X140541678Y-56282561D01*
X140541678Y-56462445D01*
X140541678Y-56665778D01*
X140434333Y-56665778D01*
X140326622Y-56665778D01*
X140326622Y-56558433D01*
X140326622Y-56474169D01*
X140146737Y-56474169D01*
X139965753Y-56474169D01*
X139965753Y-56845662D01*
X139965753Y-57240969D01*
X139858408Y-57240969D01*
X139750697Y-57240969D01*
X139750697Y-56462445D01*
G37*
G36*
X140518230Y-56642330D02*
G01*
X140625942Y-56642330D01*
X140733286Y-56642330D01*
X140733286Y-56941650D01*
X140733286Y-57240969D01*
X140625942Y-57240969D01*
X140518230Y-57240969D01*
X140518230Y-56941650D01*
X140518230Y-56642330D01*
G37*
G36*
X141086828Y-55790533D02*
G01*
X141086828Y-55683189D01*
X141387247Y-55683189D01*
X141686200Y-55683189D01*
X141686200Y-55790533D01*
X141686200Y-55898244D01*
X141387247Y-55898244D01*
X141110275Y-55898244D01*
X141110275Y-56462445D01*
X141110275Y-57025914D01*
X141387247Y-57025914D01*
X141662752Y-57025914D01*
X141662752Y-56462445D01*
X141662752Y-55874797D01*
X141770464Y-55874797D01*
X141877808Y-55874797D01*
X141877808Y-56462445D01*
X141877808Y-57049361D01*
X141770464Y-57049361D01*
X141686200Y-57049361D01*
X141686200Y-57133258D01*
X141686200Y-57240969D01*
X141387247Y-57240969D01*
X141086828Y-57240969D01*
X141086828Y-57133258D01*
X141086828Y-57049361D01*
X141002930Y-57049361D01*
X140895219Y-57049361D01*
X140895219Y-56462445D01*
X140895219Y-55874797D01*
X141002930Y-55874797D01*
X141086828Y-55874797D01*
X141086828Y-55790533D01*
G37*
G36*
X246880000Y-104176594D02*
G01*
X246880000Y-103137585D01*
X247023614Y-103137585D01*
X247166741Y-103137585D01*
X247166741Y-104049099D01*
X247166741Y-104927885D01*
X247663531Y-104927885D01*
X248190118Y-104927885D01*
X248190118Y-105071011D01*
X248190118Y-105214626D01*
X247534570Y-105214626D01*
X246880000Y-105214626D01*
X246880000Y-104176594D01*
G37*
G36*
X248406029Y-103280711D02*
G01*
X248406029Y-103137585D01*
X249060600Y-103137585D01*
X249716147Y-103137585D01*
X249716147Y-103280711D01*
X249716147Y-103424326D01*
X249445038Y-103424326D01*
X249205191Y-103424326D01*
X249205191Y-104304577D01*
X249205191Y-105214626D01*
X249062065Y-105214626D01*
X248916985Y-105214626D01*
X248916985Y-104304577D01*
X248916985Y-103424326D01*
X248677138Y-103424326D01*
X248406029Y-103424326D01*
X248406029Y-103280711D01*
G37*
G36*
X180150000Y-130316594D02*
G01*
X180150000Y-129277585D01*
X180678053Y-129277585D01*
X181204640Y-129277585D01*
X181204640Y-129420711D01*
X181204640Y-129564326D01*
X180806036Y-129564326D01*
X180436741Y-129564326D01*
X180436741Y-129804173D01*
X180436741Y-130045484D01*
X180806036Y-130045484D01*
X181173377Y-130045484D01*
X181173377Y-129804173D01*
X181173377Y-129533063D01*
X181316992Y-129533063D01*
X181460118Y-129533063D01*
X181460118Y-129804173D01*
X181460118Y-130076748D01*
X181316992Y-130076748D01*
X181204640Y-130076748D01*
X181204640Y-130316594D01*
X181204640Y-130587704D01*
X181061514Y-130587704D01*
X180917899Y-130587704D01*
X180917899Y-130444577D01*
X180917899Y-130332226D01*
X180678053Y-130332226D01*
X180436741Y-130332226D01*
X180436741Y-130827550D01*
X180436741Y-131354626D01*
X180293614Y-131354626D01*
X180150000Y-131354626D01*
X180150000Y-130316594D01*
G37*
G36*
X181173377Y-130556441D02*
G01*
X181316992Y-130556441D01*
X181460118Y-130556441D01*
X181460118Y-130955533D01*
X181460118Y-131354626D01*
X181316992Y-131354626D01*
X181173377Y-131354626D01*
X181173377Y-130955533D01*
X181173377Y-130556441D01*
G37*
G36*
X181931507Y-129676678D02*
G01*
X181931507Y-129533063D01*
X182332065Y-129533063D01*
X182730669Y-129533063D01*
X182730669Y-129676678D01*
X182730669Y-129819804D01*
X182332065Y-129819804D01*
X181931507Y-129819804D01*
X181931507Y-129676678D01*
G37*
G36*
X181962770Y-129788541D02*
G01*
X181962770Y-129932156D01*
X181962770Y-130075282D01*
X181819644Y-130075282D01*
X181676029Y-130075282D01*
X181676029Y-129932156D01*
X181676029Y-129788541D01*
X181819644Y-129788541D01*
X181962770Y-129788541D01*
G37*
G36*
X181931507Y-131067885D02*
G01*
X182332065Y-131067885D01*
X182699406Y-131067885D01*
X182699406Y-130827550D01*
X182699406Y-130587704D01*
X182459560Y-130587704D01*
X182186985Y-130587704D01*
X182186985Y-130444577D01*
X182186985Y-130300963D01*
X182459560Y-130300963D01*
X182699406Y-130300963D01*
X182699406Y-130061116D01*
X182699406Y-129788541D01*
X182843021Y-129788541D01*
X182986147Y-129788541D01*
X182986147Y-130061116D01*
X182986147Y-130332226D01*
X182843021Y-130332226D01*
X182730669Y-130332226D01*
X182730669Y-130444577D01*
X182730669Y-130556441D01*
X182843021Y-130556441D01*
X182986147Y-130556441D01*
X182986147Y-130827550D01*
X182986147Y-131099148D01*
X182843021Y-131099148D01*
X182730669Y-131099148D01*
X182730669Y-131211011D01*
X182730669Y-131354626D01*
X182332065Y-131354626D01*
X181931507Y-131354626D01*
X181931507Y-131211011D01*
X181931507Y-131067885D01*
G37*
G36*
X181962770Y-131099148D02*
G01*
X181819644Y-131099148D01*
X181676029Y-131099148D01*
X181676029Y-130955533D01*
X181676029Y-130811919D01*
X181819644Y-130811919D01*
X181962770Y-130811919D01*
X181962770Y-130955533D01*
X181962770Y-131099148D01*
G37*
G36*
X219160000Y-104286594D02*
G01*
X219160000Y-103247585D01*
X219688053Y-103247585D01*
X220214640Y-103247585D01*
X220214640Y-103390711D01*
X220214640Y-103534326D01*
X219816036Y-103534326D01*
X219446741Y-103534326D01*
X219446741Y-103774173D01*
X219446741Y-104015484D01*
X219816036Y-104015484D01*
X220183377Y-104015484D01*
X220183377Y-103774173D01*
X220183377Y-103503063D01*
X220326992Y-103503063D01*
X220470118Y-103503063D01*
X220470118Y-103774173D01*
X220470118Y-104046748D01*
X220326992Y-104046748D01*
X220214640Y-104046748D01*
X220214640Y-104286594D01*
X220214640Y-104557704D01*
X220071514Y-104557704D01*
X219927899Y-104557704D01*
X219927899Y-104414577D01*
X219927899Y-104302226D01*
X219688053Y-104302226D01*
X219446741Y-104302226D01*
X219446741Y-104797550D01*
X219446741Y-105324626D01*
X219303614Y-105324626D01*
X219160000Y-105324626D01*
X219160000Y-104286594D01*
G37*
G36*
X220183377Y-104526441D02*
G01*
X220326992Y-104526441D01*
X220470118Y-104526441D01*
X220470118Y-104925533D01*
X220470118Y-105324626D01*
X220326992Y-105324626D01*
X220183377Y-105324626D01*
X220183377Y-104925533D01*
X220183377Y-104526441D01*
G37*
G36*
X220686029Y-103390711D02*
G01*
X220686029Y-103247585D01*
X221340600Y-103247585D01*
X221996147Y-103247585D01*
X221996147Y-103390711D01*
X221996147Y-103534326D01*
X221725038Y-103534326D01*
X221485191Y-103534326D01*
X221485191Y-104414577D01*
X221485191Y-105324626D01*
X221342065Y-105324626D01*
X221196985Y-105324626D01*
X221196985Y-104414577D01*
X221196985Y-103534326D01*
X220957138Y-103534326D01*
X220686029Y-103534326D01*
X220686029Y-103390711D01*
G37*
D11*
G36*
X193213217Y-120544515D02*
G01*
X193213217Y-120353272D01*
X193788408Y-120353272D01*
X194365066Y-120353272D01*
X194365066Y-120544515D01*
X194365066Y-120736489D01*
X194173824Y-120736489D01*
X193981849Y-120736489D01*
X193981849Y-121888339D01*
X193981849Y-123038722D01*
X194173824Y-123038722D01*
X194365066Y-123038722D01*
X194365066Y-123229965D01*
X194365066Y-123421939D01*
X193788408Y-123421939D01*
X193213217Y-123421939D01*
X193213217Y-123229965D01*
X193213217Y-123038722D01*
X193405191Y-123038722D01*
X193596434Y-123038722D01*
X193596434Y-121888339D01*
X193596434Y-120736489D01*
X193405191Y-120736489D01*
X193213217Y-120736489D01*
X193213217Y-120544515D01*
G37*
G36*
X195119043Y-121888339D02*
G01*
X195119043Y-120353272D01*
X195887676Y-120353272D01*
X196654110Y-120353272D01*
X196654110Y-120544515D01*
X196654110Y-120736489D01*
X196079651Y-120736489D01*
X195502260Y-120736489D01*
X195502260Y-121119706D01*
X195502260Y-121505122D01*
X196079651Y-121505122D01*
X196654110Y-121505122D01*
X196654110Y-121119706D01*
X196654110Y-120736489D01*
X196846085Y-120736489D01*
X197037327Y-120736489D01*
X197037327Y-121119706D01*
X197037327Y-121505122D01*
X196846085Y-121505122D01*
X196654110Y-121505122D01*
X196654110Y-121888339D01*
X196654110Y-122271556D01*
X196462868Y-122271556D01*
X196270893Y-122271556D01*
X196270893Y-122080314D01*
X196270893Y-121888339D01*
X195887676Y-121888339D01*
X195502260Y-121888339D01*
X195502260Y-122654773D01*
X195502260Y-123421939D01*
X195311018Y-123421939D01*
X195119043Y-123421939D01*
X195119043Y-121888339D01*
G37*
G36*
X196654110Y-122271556D02*
G01*
X196846085Y-122271556D01*
X197037327Y-122271556D01*
X197037327Y-122846748D01*
X197037327Y-123421939D01*
X196846085Y-123421939D01*
X196654110Y-123421939D01*
X196654110Y-122846748D01*
X196654110Y-122271556D01*
G37*
G36*
X197408087Y-123617578D02*
G01*
X197408087Y-123425603D01*
X198559937Y-123425603D01*
X199710321Y-123425603D01*
X199710321Y-123617578D01*
X199710321Y-123809553D01*
X198559937Y-123809553D01*
X197408087Y-123809553D01*
X197408087Y-123617578D01*
G37*
G36*
X199697131Y-121888339D02*
G01*
X199697131Y-120353272D01*
X200465764Y-120353272D01*
X201232198Y-120353272D01*
X201232198Y-120544515D01*
X201232198Y-120736489D01*
X200657739Y-120736489D01*
X200080348Y-120736489D01*
X200080348Y-121119706D01*
X200080348Y-121505122D01*
X200657739Y-121505122D01*
X201232198Y-121505122D01*
X201232198Y-121119706D01*
X201232198Y-120736489D01*
X201424173Y-120736489D01*
X201615415Y-120736489D01*
X201615415Y-121119706D01*
X201615415Y-121505122D01*
X201424173Y-121505122D01*
X201232198Y-121505122D01*
X201232198Y-121697096D01*
X201232198Y-121888339D01*
X200657739Y-121888339D01*
X200080348Y-121888339D01*
X200080348Y-122463531D01*
X200080348Y-123038722D01*
X200657739Y-123038722D01*
X201232198Y-123038722D01*
X201232198Y-122463531D01*
X201232198Y-121888339D01*
X201424173Y-121888339D01*
X201615415Y-121888339D01*
X201615415Y-122463531D01*
X201615415Y-123038722D01*
X201424173Y-123038722D01*
X201232198Y-123038722D01*
X201232198Y-123229965D01*
X201232198Y-123421939D01*
X200465764Y-123421939D01*
X199697131Y-123421939D01*
X199697131Y-121888339D01*
G37*
G36*
X202369392Y-120544515D02*
G01*
X202369392Y-120353272D01*
X202946782Y-120353272D01*
X203521242Y-120353272D01*
X203521242Y-120544515D01*
X203521242Y-120736489D01*
X202946782Y-120736489D01*
X202369392Y-120736489D01*
X202369392Y-121888339D01*
X202369392Y-123038722D01*
X202946782Y-123038722D01*
X203521242Y-123038722D01*
X203521242Y-121888339D01*
X203521242Y-120736489D01*
X203713217Y-120736489D01*
X203904459Y-120736489D01*
X203904459Y-121888339D01*
X203904459Y-123038722D01*
X203713217Y-123038722D01*
X203521242Y-123038722D01*
X203521242Y-123229965D01*
X203521242Y-123421939D01*
X202946782Y-123421939D01*
X202369392Y-123421939D01*
X202369392Y-123229965D01*
X202369392Y-123038722D01*
X202178150Y-123038722D01*
X201986175Y-123038722D01*
X201986175Y-121888339D01*
X201986175Y-120736489D01*
X202178150Y-120736489D01*
X202369392Y-120736489D01*
X202369392Y-120544515D01*
G37*
G36*
X204275219Y-120736489D02*
G01*
X204275219Y-120353272D01*
X204467194Y-120353272D01*
X204658436Y-120353272D01*
X204658436Y-120736489D01*
X204658436Y-121119706D01*
X204467194Y-121119706D01*
X204275219Y-121119706D01*
X204275219Y-120736489D01*
G37*
G36*
X204658436Y-122271556D02*
G01*
X204658436Y-122080314D01*
X204658436Y-121888339D01*
X204850411Y-121888339D01*
X205041653Y-121888339D01*
X205041653Y-121697096D01*
X205041653Y-121505122D01*
X204850411Y-121505122D01*
X204658436Y-121505122D01*
X204658436Y-121311681D01*
X204658436Y-121119706D01*
X204850411Y-121119706D01*
X205041653Y-121119706D01*
X205041653Y-121311681D01*
X205041653Y-121505122D01*
X205235826Y-121505122D01*
X205427069Y-121505122D01*
X205427069Y-121697096D01*
X205427069Y-121888339D01*
X205235826Y-121888339D01*
X205041653Y-121888339D01*
X205041653Y-122080314D01*
X205041653Y-122271556D01*
X204850411Y-122271556D01*
X204658436Y-122271556D01*
G37*
G36*
X204658436Y-122271556D02*
G01*
X204658436Y-122846748D01*
X204658436Y-123421939D01*
X204467194Y-123421939D01*
X204275219Y-123421939D01*
X204275219Y-122846748D01*
X204275219Y-122271556D01*
X204467194Y-122271556D01*
X204658436Y-122271556D01*
G37*
G36*
X205810286Y-122271556D02*
G01*
X205619043Y-122271556D01*
X205427069Y-122271556D01*
X205427069Y-122080314D01*
X205427069Y-121888339D01*
X205619043Y-121888339D01*
X205810286Y-121888339D01*
X205810286Y-122080314D01*
X205810286Y-122271556D01*
G37*
G36*
X205810286Y-122271556D02*
G01*
X206002260Y-122271556D01*
X206193503Y-122271556D01*
X206193503Y-122846748D01*
X206193503Y-123421939D01*
X206002260Y-123421939D01*
X205810286Y-123421939D01*
X205810286Y-122846748D01*
X205810286Y-122271556D01*
G37*
G36*
X205810286Y-121119706D02*
G01*
X205810286Y-121311681D01*
X205810286Y-121505122D01*
X205619043Y-121505122D01*
X205427069Y-121505122D01*
X205427069Y-121311681D01*
X205427069Y-121119706D01*
X205619043Y-121119706D01*
X205810286Y-121119706D01*
G37*
G36*
X205810286Y-121119706D02*
G01*
X205810286Y-120736489D01*
X205810286Y-120353272D01*
X206002260Y-120353272D01*
X206193503Y-120353272D01*
X206193503Y-120736489D01*
X206193503Y-121119706D01*
X206002260Y-121119706D01*
X205810286Y-121119706D01*
G37*
G36*
X208853307Y-121119706D02*
G01*
X208853307Y-120353272D01*
X209045282Y-120353272D01*
X209236524Y-120353272D01*
X209236524Y-121119706D01*
X209236524Y-121888339D01*
X209045282Y-121888339D01*
X208853307Y-121888339D01*
X208853307Y-121119706D01*
G37*
G36*
X210388374Y-121888339D02*
G01*
X210388374Y-122271556D01*
X210388374Y-122654773D01*
X210197131Y-122654773D01*
X210005157Y-122654773D01*
X210005157Y-123038722D01*
X210005157Y-123421939D01*
X209813914Y-123421939D01*
X209619741Y-123421939D01*
X209619741Y-123038722D01*
X209619741Y-122654773D01*
X209428499Y-122654773D01*
X209236524Y-122654773D01*
X209236524Y-122271556D01*
X209236524Y-121888339D01*
X209428499Y-121888339D01*
X209619741Y-121888339D01*
X209619741Y-122271556D01*
X209619741Y-122654773D01*
X209813914Y-122654773D01*
X210005157Y-122654773D01*
X210005157Y-122271556D01*
X210005157Y-121888339D01*
X210197131Y-121888339D01*
X210388374Y-121888339D01*
G37*
G36*
X210388374Y-121888339D02*
G01*
X210388374Y-121119706D01*
X210388374Y-120353272D01*
X210580348Y-120353272D01*
X210771591Y-120353272D01*
X210771591Y-121119706D01*
X210771591Y-121888339D01*
X210580348Y-121888339D01*
X210388374Y-121888339D01*
G37*
G36*
X211525568Y-121694898D02*
G01*
X211525568Y-121502923D01*
X212102958Y-121502923D01*
X212677418Y-121502923D01*
X212677418Y-121694898D01*
X212677418Y-121888339D01*
X212102958Y-121888339D01*
X211525568Y-121888339D01*
X211525568Y-122080314D01*
X211525568Y-122271556D01*
X212102958Y-122271556D01*
X212677418Y-122271556D01*
X212677418Y-122080314D01*
X212677418Y-121888339D01*
X212869392Y-121888339D01*
X213060635Y-121888339D01*
X213060635Y-122271556D01*
X213060635Y-122654773D01*
X212294200Y-122654773D01*
X211525568Y-122654773D01*
X211525568Y-122846748D01*
X211525568Y-123038722D01*
X211334326Y-123038722D01*
X211142351Y-123038722D01*
X211142351Y-122463531D01*
X211142351Y-121888339D01*
X211334326Y-121888339D01*
X211525568Y-121888339D01*
X211525568Y-121694898D01*
G37*
G36*
X211525568Y-123038722D02*
G01*
X212294200Y-123038722D01*
X213060635Y-123038722D01*
X213060635Y-123229965D01*
X213060635Y-123421939D01*
X212294200Y-123421939D01*
X211525568Y-123421939D01*
X211525568Y-123229965D01*
X211525568Y-123038722D01*
G37*
G36*
X213431395Y-122463531D02*
G01*
X213431395Y-121502923D01*
X213623370Y-121502923D01*
X213814612Y-121502923D01*
X213814612Y-121694898D01*
X213814612Y-121888339D01*
X214006587Y-121888339D01*
X214197829Y-121888339D01*
X214197829Y-122080314D01*
X214197829Y-122271556D01*
X214006587Y-122271556D01*
X213814612Y-122271556D01*
X213814612Y-122846748D01*
X213814612Y-123421939D01*
X213623370Y-123421939D01*
X213431395Y-123421939D01*
X213431395Y-122463531D01*
G37*
G36*
X214966461Y-121888339D02*
G01*
X214583244Y-121888339D01*
X214197829Y-121888339D01*
X214197829Y-121694898D01*
X214197829Y-121502923D01*
X214583244Y-121502923D01*
X214966461Y-121502923D01*
X214966461Y-121694898D01*
X214966461Y-121888339D01*
G37*
G36*
X214966461Y-121888339D02*
G01*
X215158436Y-121888339D01*
X215349678Y-121888339D01*
X215349678Y-122080314D01*
X215349678Y-122271556D01*
X215158436Y-122271556D01*
X214966461Y-122271556D01*
X214966461Y-122080314D01*
X214966461Y-121888339D01*
G37*
G36*
X216103656Y-123040188D02*
G01*
X216103656Y-122659169D01*
X216486873Y-122659169D01*
X216870090Y-122659169D01*
X216870090Y-123040188D01*
X216870090Y-123425603D01*
X216486873Y-123425603D01*
X216103656Y-123425603D01*
X216103656Y-123040188D01*
G37*
G36*
X218775917Y-120928464D02*
G01*
X218775917Y-120736489D01*
X218967892Y-120736489D01*
X219161332Y-120736489D01*
X219161332Y-122080314D01*
X219161332Y-123421939D01*
X218967892Y-123421939D01*
X218775917Y-123421939D01*
X218775917Y-122463531D01*
X218775917Y-121502923D01*
X218584675Y-121502923D01*
X218392700Y-121502923D01*
X218392700Y-121311681D01*
X218392700Y-121119706D01*
X218584675Y-121119706D01*
X218775917Y-121119706D01*
X218775917Y-120928464D01*
G37*
G36*
X218392700Y-121502923D02*
G01*
X218392700Y-121697096D01*
X218392700Y-121888339D01*
X218201458Y-121888339D01*
X218009483Y-121888339D01*
X218009483Y-121697096D01*
X218009483Y-121502923D01*
X218201458Y-121502923D01*
X218392700Y-121502923D01*
G37*
G36*
X220681744Y-123040188D02*
G01*
X220681744Y-122659169D01*
X221064961Y-122659169D01*
X221448178Y-122659169D01*
X221448178Y-123040188D01*
X221448178Y-123425603D01*
X221064961Y-123425603D01*
X220681744Y-123425603D01*
X220681744Y-123040188D01*
G37*
G36*
X223354005Y-120928464D02*
G01*
X223354005Y-120736489D01*
X223545980Y-120736489D01*
X223739420Y-120736489D01*
X223739420Y-122080314D01*
X223739420Y-123421939D01*
X223545980Y-123421939D01*
X223354005Y-123421939D01*
X223354005Y-122463531D01*
X223354005Y-121502923D01*
X223162763Y-121502923D01*
X222970788Y-121502923D01*
X222970788Y-121311681D01*
X222970788Y-121119706D01*
X223162763Y-121119706D01*
X223354005Y-121119706D01*
X223354005Y-120928464D01*
G37*
G36*
X222970788Y-121502923D02*
G01*
X222970788Y-121697096D01*
X222970788Y-121888339D01*
X222779546Y-121888339D01*
X222587571Y-121888339D01*
X222587571Y-121697096D01*
X222587571Y-121502923D01*
X222779546Y-121502923D01*
X222970788Y-121502923D01*
G37*
D10*
G36*
X219500000Y-77346594D02*
G01*
X219500000Y-76307585D01*
X220028053Y-76307585D01*
X220554640Y-76307585D01*
X220554640Y-76450711D01*
X220554640Y-76594326D01*
X220156036Y-76594326D01*
X219786741Y-76594326D01*
X219786741Y-76834173D01*
X219786741Y-77075484D01*
X220156036Y-77075484D01*
X220523377Y-77075484D01*
X220523377Y-76834173D01*
X220523377Y-76563063D01*
X220666992Y-76563063D01*
X220810118Y-76563063D01*
X220810118Y-76834173D01*
X220810118Y-77106748D01*
X220666992Y-77106748D01*
X220554640Y-77106748D01*
X220554640Y-77346594D01*
X220554640Y-77617704D01*
X220411514Y-77617704D01*
X220267899Y-77617704D01*
X220267899Y-77474577D01*
X220267899Y-77362226D01*
X220028053Y-77362226D01*
X219786741Y-77362226D01*
X219786741Y-77857550D01*
X219786741Y-78384626D01*
X219643614Y-78384626D01*
X219500000Y-78384626D01*
X219500000Y-77346594D01*
G37*
G36*
X220523377Y-77586441D02*
G01*
X220666992Y-77586441D01*
X220810118Y-77586441D01*
X220810118Y-77985533D01*
X220810118Y-78384626D01*
X220666992Y-78384626D01*
X220523377Y-78384626D01*
X220523377Y-77985533D01*
X220523377Y-77586441D01*
G37*
G36*
X221026029Y-77346594D02*
G01*
X221026029Y-76307585D01*
X221554082Y-76307585D01*
X222080669Y-76307585D01*
X222080669Y-76450711D01*
X222080669Y-76594326D01*
X221682065Y-76594326D01*
X221312770Y-76594326D01*
X221312770Y-76834173D01*
X221312770Y-77075484D01*
X221682065Y-77075484D01*
X222049406Y-77075484D01*
X222049406Y-76834173D01*
X222049406Y-76563063D01*
X222193021Y-76563063D01*
X222336147Y-76563063D01*
X222336147Y-76834173D01*
X222336147Y-77106748D01*
X222193021Y-77106748D01*
X222080669Y-77106748D01*
X222080669Y-77219099D01*
X222080669Y-77362226D01*
X221682065Y-77362226D01*
X221312770Y-77362226D01*
X221312770Y-77730055D01*
X221312770Y-78097885D01*
X221682065Y-78097885D01*
X222049406Y-78097885D01*
X222049406Y-77730055D01*
X222049406Y-77330963D01*
X222193021Y-77330963D01*
X222336147Y-77330963D01*
X222336147Y-77730055D01*
X222336147Y-78129148D01*
X222193021Y-78129148D01*
X222080669Y-78129148D01*
X222080669Y-78241011D01*
X222080669Y-78384626D01*
X221554082Y-78384626D01*
X221026029Y-78384626D01*
X221026029Y-77346594D01*
G37*
G36*
X60500000Y-40059532D02*
G01*
X60500000Y-39951821D01*
X60990928Y-39951821D01*
X61482588Y-39951821D01*
X61482588Y-40059532D01*
X61482588Y-40166877D01*
X60990928Y-40166877D01*
X60500000Y-40166877D01*
X60500000Y-40059532D01*
G37*
G36*
X123000000Y-141489099D02*
G01*
X123000000Y-140577585D01*
X123143614Y-140577585D01*
X123286741Y-140577585D01*
X123286741Y-141489099D01*
X123286741Y-142399148D01*
X123143614Y-142399148D01*
X123000000Y-142399148D01*
X123000000Y-141489099D01*
G37*
G36*
X124054640Y-142367885D02*
G01*
X124054640Y-142511011D01*
X124054640Y-142654626D01*
X123656036Y-142654626D01*
X123255478Y-142654626D01*
X123255478Y-142511011D01*
X123255478Y-142367885D01*
X123656036Y-142367885D01*
X124054640Y-142367885D01*
G37*
G36*
X124023377Y-142399148D02*
G01*
X124023377Y-141489099D01*
X124023377Y-140577585D01*
X124166992Y-140577585D01*
X124310118Y-140577585D01*
X124310118Y-141489099D01*
X124310118Y-142399148D01*
X124166992Y-142399148D01*
X124023377Y-142399148D01*
G37*
G36*
X124526029Y-141616594D02*
G01*
X124526029Y-140577585D01*
X125054082Y-140577585D01*
X125580669Y-140577585D01*
X125580669Y-140720711D01*
X125580669Y-140864326D01*
X125182065Y-140864326D01*
X124812770Y-140864326D01*
X124812770Y-141104173D01*
X124812770Y-141345484D01*
X125182065Y-141345484D01*
X125549406Y-141345484D01*
X125549406Y-141104173D01*
X125549406Y-140833063D01*
X125693021Y-140833063D01*
X125836147Y-140833063D01*
X125836147Y-141104173D01*
X125836147Y-141376748D01*
X125693021Y-141376748D01*
X125580669Y-141376748D01*
X125580669Y-141489099D01*
X125580669Y-141632226D01*
X125182065Y-141632226D01*
X124812770Y-141632226D01*
X124812770Y-142127550D01*
X124812770Y-142654626D01*
X124669644Y-142654626D01*
X124526029Y-142654626D01*
X124526029Y-141616594D01*
G37*
G36*
X75691608Y-39540533D02*
G01*
X75691608Y-39433189D01*
X75992027Y-39433189D01*
X76290980Y-39433189D01*
X76290980Y-39540533D01*
X76290980Y-39648244D01*
X75992027Y-39648244D01*
X75691608Y-39648244D01*
X75691608Y-39540533D01*
G37*
G36*
X75691608Y-40775914D02*
G01*
X75992027Y-40775914D01*
X76267533Y-40775914D01*
X76267533Y-40500041D01*
X76267533Y-40224169D01*
X75992027Y-40224169D01*
X75691608Y-40224169D01*
X75691608Y-40116824D01*
X75691608Y-40032561D01*
X75607711Y-40032561D01*
X75500000Y-40032561D01*
X75500000Y-39828129D01*
X75500000Y-39624797D01*
X75607711Y-39624797D01*
X75715055Y-39624797D01*
X75715055Y-39828129D01*
X75715055Y-40009113D01*
X75992027Y-40009113D01*
X76290980Y-40009113D01*
X76290980Y-40116824D01*
X76290980Y-40200722D01*
X76375244Y-40200722D01*
X76482588Y-40200722D01*
X76482588Y-40500041D01*
X76482588Y-40799361D01*
X76375244Y-40799361D01*
X76290980Y-40799361D01*
X76290980Y-40883258D01*
X76290980Y-40990969D01*
X75992027Y-40990969D01*
X75691608Y-40990969D01*
X75691608Y-40883258D01*
X75691608Y-40775914D01*
G37*
G36*
X75715055Y-40799361D02*
G01*
X75607711Y-40799361D01*
X75500000Y-40799361D01*
X75500000Y-40691650D01*
X75500000Y-40583939D01*
X75607711Y-40583939D01*
X75715055Y-40583939D01*
X75715055Y-40691650D01*
X75715055Y-40799361D01*
G37*
G36*
X76267533Y-39624797D02*
G01*
X76375244Y-39624797D01*
X76482588Y-39624797D01*
X76482588Y-39732508D01*
X76482588Y-39839853D01*
X76375244Y-39839853D01*
X76267533Y-39839853D01*
X76267533Y-39732508D01*
X76267533Y-39624797D01*
G37*
G36*
X76644521Y-39540533D02*
G01*
X76644521Y-39433189D01*
X77135450Y-39433189D01*
X77627110Y-39433189D01*
X77627110Y-39540533D01*
X77627110Y-39648244D01*
X77423778Y-39648244D01*
X77243893Y-39648244D01*
X77243893Y-40308433D01*
X77243893Y-40990969D01*
X77136549Y-40990969D01*
X77027739Y-40990969D01*
X77027739Y-40308433D01*
X77027739Y-39648244D01*
X76847854Y-39648244D01*
X76644521Y-39648244D01*
X76644521Y-39540533D01*
G37*
G36*
X77980652Y-39540533D02*
G01*
X77980652Y-39433189D01*
X78281071Y-39433189D01*
X78580024Y-39433189D01*
X78580024Y-39540533D01*
X78580024Y-39648244D01*
X78281071Y-39648244D01*
X78004099Y-39648244D01*
X78004099Y-39828129D01*
X78004099Y-40009113D01*
X78281071Y-40009113D01*
X78556577Y-40009113D01*
X78556577Y-39828129D01*
X78556577Y-39624797D01*
X78664288Y-39624797D01*
X78771632Y-39624797D01*
X78771632Y-40308433D01*
X78771632Y-40990969D01*
X78664288Y-40990969D01*
X78556577Y-40990969D01*
X78556577Y-40595662D01*
X78556577Y-40224169D01*
X78281071Y-40224169D01*
X78004099Y-40224169D01*
X78004099Y-40595662D01*
X78004099Y-40990969D01*
X77896755Y-40990969D01*
X77789043Y-40990969D01*
X77789043Y-40308433D01*
X77789043Y-39624797D01*
X77896755Y-39624797D01*
X77980652Y-39624797D01*
X77980652Y-39540533D01*
G37*
G36*
X78933565Y-40212445D02*
G01*
X78933565Y-39433189D01*
X79329605Y-39433189D01*
X79724546Y-39433189D01*
X79724546Y-39540533D01*
X79724546Y-39648244D01*
X79425593Y-39648244D01*
X79148621Y-39648244D01*
X79148621Y-39828129D01*
X79148621Y-40009113D01*
X79425593Y-40009113D01*
X79701099Y-40009113D01*
X79701099Y-39828129D01*
X79701099Y-39624797D01*
X79808810Y-39624797D01*
X79916154Y-39624797D01*
X79916154Y-39828129D01*
X79916154Y-40032561D01*
X79808810Y-40032561D01*
X79724546Y-40032561D01*
X79724546Y-40212445D01*
X79724546Y-40415778D01*
X79617201Y-40415778D01*
X79509490Y-40415778D01*
X79509490Y-40308433D01*
X79509490Y-40224169D01*
X79329605Y-40224169D01*
X79148621Y-40224169D01*
X79148621Y-40595662D01*
X79148621Y-40990969D01*
X79041277Y-40990969D01*
X78933565Y-40990969D01*
X78933565Y-40212445D01*
G37*
G36*
X79701099Y-40392330D02*
G01*
X79808810Y-40392330D01*
X79916154Y-40392330D01*
X79916154Y-40691650D01*
X79916154Y-40990969D01*
X79808810Y-40990969D01*
X79701099Y-40990969D01*
X79701099Y-40691650D01*
X79701099Y-40392330D01*
G37*
G36*
X80078087Y-39540533D02*
G01*
X80078087Y-39433189D01*
X80569016Y-39433189D01*
X81060676Y-39433189D01*
X81060676Y-39540533D01*
X81060676Y-39648244D01*
X80857344Y-39648244D01*
X80677459Y-39648244D01*
X80677459Y-40308433D01*
X80677459Y-40990969D01*
X80570115Y-40990969D01*
X80461304Y-40990969D01*
X80461304Y-40308433D01*
X80461304Y-39648244D01*
X80281420Y-39648244D01*
X80078087Y-39648244D01*
X80078087Y-39540533D01*
G37*
G36*
X77750000Y-86366594D02*
G01*
X77750000Y-85327585D01*
X77893614Y-85327585D01*
X78036741Y-85327585D01*
X78036741Y-86239099D01*
X78036741Y-87117885D01*
X78533531Y-87117885D01*
X79060118Y-87117885D01*
X79060118Y-87261011D01*
X79060118Y-87404626D01*
X78404570Y-87404626D01*
X77750000Y-87404626D01*
X77750000Y-86366594D01*
G37*
G36*
X79276029Y-86366594D02*
G01*
X79276029Y-85327585D01*
X79930600Y-85327585D01*
X80586147Y-85327585D01*
X80586147Y-85470711D01*
X80586147Y-85614326D01*
X80059560Y-85614326D01*
X79562770Y-85614326D01*
X79562770Y-85854173D01*
X79562770Y-86095484D01*
X79932065Y-86095484D01*
X80330669Y-86095484D01*
X80330669Y-86239099D01*
X80330669Y-86382226D01*
X79932065Y-86382226D01*
X79562770Y-86382226D01*
X79562770Y-86750055D01*
X79562770Y-87117885D01*
X80059560Y-87117885D01*
X80586147Y-87117885D01*
X80586147Y-87261011D01*
X80586147Y-87404626D01*
X79930600Y-87404626D01*
X79276029Y-87404626D01*
X79276029Y-86366594D01*
G37*
G36*
X80802058Y-86366594D02*
G01*
X80802058Y-85327585D01*
X81456629Y-85327585D01*
X82112177Y-85327585D01*
X82112177Y-85470711D01*
X82112177Y-85614326D01*
X81585589Y-85614326D01*
X81088799Y-85614326D01*
X81088799Y-85854173D01*
X81088799Y-86095484D01*
X81458094Y-86095484D01*
X81856699Y-86095484D01*
X81856699Y-86239099D01*
X81856699Y-86382226D01*
X81458094Y-86382226D01*
X81088799Y-86382226D01*
X81088799Y-86877550D01*
X81088799Y-87404626D01*
X80945673Y-87404626D01*
X80802058Y-87404626D01*
X80802058Y-86366594D01*
G37*
G36*
X82328087Y-85470711D02*
G01*
X82328087Y-85327585D01*
X82982658Y-85327585D01*
X83638206Y-85327585D01*
X83638206Y-85470711D01*
X83638206Y-85614326D01*
X83367096Y-85614326D01*
X83127250Y-85614326D01*
X83127250Y-86494577D01*
X83127250Y-87404626D01*
X82984124Y-87404626D01*
X82839043Y-87404626D01*
X82839043Y-86494577D01*
X82839043Y-85614326D01*
X82599197Y-85614326D01*
X82328087Y-85614326D01*
X82328087Y-85470711D01*
G37*
G36*
X98000000Y-85116594D02*
G01*
X98000000Y-84077585D01*
X98528053Y-84077585D01*
X99054640Y-84077585D01*
X99054640Y-84220711D01*
X99054640Y-84364326D01*
X98656036Y-84364326D01*
X98286741Y-84364326D01*
X98286741Y-85116594D01*
X98286741Y-85867885D01*
X98656036Y-85867885D01*
X99023377Y-85867885D01*
X99023377Y-85116594D01*
X99023377Y-84333063D01*
X99166992Y-84333063D01*
X99310118Y-84333063D01*
X99310118Y-85116594D01*
X99310118Y-85899148D01*
X99166992Y-85899148D01*
X99054640Y-85899148D01*
X99054640Y-86011011D01*
X99054640Y-86154626D01*
X98528053Y-86154626D01*
X98000000Y-86154626D01*
X98000000Y-85116594D01*
G37*
G36*
X99781507Y-84220711D02*
G01*
X99781507Y-84077585D01*
X100182065Y-84077585D01*
X100580669Y-84077585D01*
X100580669Y-84220711D01*
X100580669Y-84364326D01*
X100182065Y-84364326D01*
X99812770Y-84364326D01*
X99812770Y-85116594D01*
X99812770Y-85867885D01*
X100182065Y-85867885D01*
X100549406Y-85867885D01*
X100549406Y-85116594D01*
X100549406Y-84333063D01*
X100693021Y-84333063D01*
X100836147Y-84333063D01*
X100836147Y-85116594D01*
X100836147Y-85899148D01*
X100693021Y-85899148D01*
X100580669Y-85899148D01*
X100580669Y-86011011D01*
X100580669Y-86154626D01*
X100182065Y-86154626D01*
X99781507Y-86154626D01*
X99781507Y-86011011D01*
X99781507Y-85899148D01*
X99669644Y-85899148D01*
X99526029Y-85899148D01*
X99526029Y-85116594D01*
X99526029Y-84333063D01*
X99669644Y-84333063D01*
X99781507Y-84333063D01*
X99781507Y-84220711D01*
G37*
G36*
X101052058Y-84861116D02*
G01*
X101052058Y-84077585D01*
X101195673Y-84077585D01*
X101338799Y-84077585D01*
X101338799Y-84861116D01*
X101338799Y-85643182D01*
X101195673Y-85643182D01*
X101052058Y-85643182D01*
X101052058Y-84861116D01*
G37*
G36*
X102106699Y-85611919D02*
G01*
X102106699Y-85883517D01*
X102106699Y-86154626D01*
X101963572Y-86154626D01*
X101819958Y-86154626D01*
X101819958Y-85883517D01*
X101819958Y-85643182D01*
X101708094Y-85643182D01*
X101594277Y-85643182D01*
X101594277Y-85883517D01*
X101594277Y-86154626D01*
X101451151Y-86154626D01*
X101307536Y-86154626D01*
X101307536Y-85883517D01*
X101307536Y-85611919D01*
X101451151Y-85611919D01*
X101563014Y-85611919D01*
X101563014Y-85244577D01*
X101563014Y-84845484D01*
X101708094Y-84845484D01*
X101851221Y-84845484D01*
X101851221Y-85244577D01*
X101851221Y-85611919D01*
X101963572Y-85611919D01*
X102106699Y-85611919D01*
G37*
G36*
X102075436Y-85643182D02*
G01*
X102075436Y-84861116D01*
X102075436Y-84077585D01*
X102219050Y-84077585D01*
X102362177Y-84077585D01*
X102362177Y-84861116D01*
X102362177Y-85643182D01*
X102219050Y-85643182D01*
X102075436Y-85643182D01*
G37*
G36*
X102578087Y-85116594D02*
G01*
X102578087Y-84077585D01*
X102721702Y-84077585D01*
X102864829Y-84077585D01*
X102864829Y-84220711D01*
X102864829Y-84333063D01*
X102977180Y-84333063D01*
X103120307Y-84333063D01*
X103120307Y-84604173D01*
X103120307Y-84876748D01*
X102977180Y-84876748D01*
X102864829Y-84876748D01*
X102864829Y-85500055D01*
X102864829Y-86154626D01*
X102721702Y-86154626D01*
X102578087Y-86154626D01*
X102578087Y-85116594D01*
G37*
G36*
X103377250Y-85387704D02*
G01*
X103234124Y-85387704D01*
X103089043Y-85387704D01*
X103089043Y-85116594D01*
X103089043Y-84845484D01*
X103234124Y-84845484D01*
X103377250Y-84845484D01*
X103377250Y-85116594D01*
X103377250Y-85387704D01*
G37*
G36*
X103345987Y-85356441D02*
G01*
X103489602Y-85356441D01*
X103601465Y-85356441D01*
X103601465Y-84732156D01*
X103601465Y-84077585D01*
X103745080Y-84077585D01*
X103888206Y-84077585D01*
X103888206Y-85116594D01*
X103888206Y-86154626D01*
X103745080Y-86154626D01*
X103601465Y-86154626D01*
X103601465Y-86011011D01*
X103601465Y-85899148D01*
X103489602Y-85899148D01*
X103345987Y-85899148D01*
X103345987Y-85627550D01*
X103345987Y-85356441D01*
G37*
G36*
X164080000Y-80998695D02*
G01*
X164080000Y-80727585D01*
X164223614Y-80727585D01*
X164366741Y-80727585D01*
X164366741Y-80998695D01*
X164366741Y-81269804D01*
X164223614Y-81269804D01*
X164080000Y-81269804D01*
X164080000Y-80998695D01*
G37*
G36*
X164335478Y-82037704D02*
G01*
X164335478Y-81894577D01*
X164335478Y-81750963D01*
X164479092Y-81750963D01*
X164590956Y-81750963D01*
X164590956Y-81639099D01*
X164590956Y-81526748D01*
X164479092Y-81526748D01*
X164335478Y-81526748D01*
X164335478Y-81382156D01*
X164335478Y-81238541D01*
X164479092Y-81238541D01*
X164622219Y-81238541D01*
X164622219Y-81382156D01*
X164622219Y-81495484D01*
X164736036Y-81495484D01*
X164879162Y-81495484D01*
X164879162Y-81639099D01*
X164879162Y-81782226D01*
X164736036Y-81782226D01*
X164622219Y-81782226D01*
X164622219Y-81894577D01*
X164622219Y-82037704D01*
X164479092Y-82037704D01*
X164335478Y-82037704D01*
G37*
G36*
X164366741Y-82006441D02*
G01*
X164366741Y-82405533D01*
X164366741Y-82804626D01*
X164223614Y-82804626D01*
X164080000Y-82804626D01*
X164080000Y-82405533D01*
X164080000Y-82006441D01*
X164223614Y-82006441D01*
X164366741Y-82006441D01*
G37*
G36*
X165134640Y-82037704D02*
G01*
X164991514Y-82037704D01*
X164847899Y-82037704D01*
X164847899Y-81894577D01*
X164847899Y-81750963D01*
X164991514Y-81750963D01*
X165134640Y-81750963D01*
X165134640Y-81894577D01*
X165134640Y-82037704D01*
G37*
G36*
X165103377Y-82006441D02*
G01*
X165246992Y-82006441D01*
X165390118Y-82006441D01*
X165390118Y-82405533D01*
X165390118Y-82804626D01*
X165246992Y-82804626D01*
X165103377Y-82804626D01*
X165103377Y-82405533D01*
X165103377Y-82006441D01*
G37*
G36*
X165134640Y-81238541D02*
G01*
X165134640Y-81382156D01*
X165134640Y-81526748D01*
X164991514Y-81526748D01*
X164847899Y-81526748D01*
X164847899Y-81382156D01*
X164847899Y-81238541D01*
X164991514Y-81238541D01*
X165134640Y-81238541D01*
G37*
G36*
X165103377Y-81269804D02*
G01*
X165103377Y-80998695D01*
X165103377Y-80727585D01*
X165246992Y-80727585D01*
X165390118Y-80727585D01*
X165390118Y-80998695D01*
X165390118Y-81269804D01*
X165246992Y-81269804D01*
X165103377Y-81269804D01*
G37*
G36*
X192100000Y-77958695D02*
G01*
X192100000Y-77687585D01*
X192243614Y-77687585D01*
X192386741Y-77687585D01*
X192386741Y-77958695D01*
X192386741Y-78229804D01*
X192243614Y-78229804D01*
X192100000Y-78229804D01*
X192100000Y-77958695D01*
G37*
G36*
X193154640Y-78198541D02*
G01*
X193154640Y-78342156D01*
X193154640Y-78486748D01*
X193011514Y-78486748D01*
X192899162Y-78486748D01*
X192899162Y-79110055D01*
X192899162Y-79764626D01*
X192756036Y-79764626D01*
X192610956Y-79764626D01*
X192610956Y-79110055D01*
X192610956Y-78486748D01*
X192499092Y-78486748D01*
X192355478Y-78486748D01*
X192355478Y-78342156D01*
X192355478Y-78198541D01*
X192499092Y-78198541D01*
X192642219Y-78198541D01*
X192642219Y-78342156D01*
X192642219Y-78455484D01*
X192756036Y-78455484D01*
X192867899Y-78455484D01*
X192867899Y-78342156D01*
X192867899Y-78198541D01*
X193011514Y-78198541D01*
X193154640Y-78198541D01*
G37*
G36*
X193123377Y-78229804D02*
G01*
X193123377Y-77958695D01*
X193123377Y-77687585D01*
X193266992Y-77687585D01*
X193410118Y-77687585D01*
X193410118Y-77958695D01*
X193410118Y-78229804D01*
X193266992Y-78229804D01*
X193123377Y-78229804D01*
G37*
D11*
G36*
X193210000Y-127678339D02*
G01*
X193210000Y-126143272D01*
X193978632Y-126143272D01*
X194745066Y-126143272D01*
X194745066Y-126334515D01*
X194745066Y-126526489D01*
X194170607Y-126526489D01*
X193593217Y-126526489D01*
X193593217Y-126909706D01*
X193593217Y-127295122D01*
X194170607Y-127295122D01*
X194745066Y-127295122D01*
X194745066Y-126909706D01*
X194745066Y-126526489D01*
X194937041Y-126526489D01*
X195128283Y-126526489D01*
X195128283Y-126909706D01*
X195128283Y-127295122D01*
X194937041Y-127295122D01*
X194745066Y-127295122D01*
X194745066Y-127487096D01*
X194745066Y-127678339D01*
X194170607Y-127678339D01*
X193593217Y-127678339D01*
X193593217Y-128444773D01*
X193593217Y-129211939D01*
X193401974Y-129211939D01*
X193210000Y-129211939D01*
X193210000Y-127678339D01*
G37*
G36*
X195882260Y-126334515D02*
G01*
X195882260Y-126143272D01*
X196459651Y-126143272D01*
X197034110Y-126143272D01*
X197034110Y-126334515D01*
X197034110Y-126526489D01*
X196459651Y-126526489D01*
X195882260Y-126526489D01*
X195882260Y-127678339D01*
X195882260Y-128828722D01*
X196459651Y-128828722D01*
X197034110Y-128828722D01*
X197034110Y-127678339D01*
X197034110Y-126526489D01*
X197226085Y-126526489D01*
X197417327Y-126526489D01*
X197417327Y-127678339D01*
X197417327Y-128828722D01*
X197226085Y-128828722D01*
X197034110Y-128828722D01*
X197034110Y-129019965D01*
X197034110Y-129211939D01*
X196459651Y-129211939D01*
X195882260Y-129211939D01*
X195882260Y-129019965D01*
X195882260Y-128828722D01*
X195691018Y-128828722D01*
X195499043Y-128828722D01*
X195499043Y-127678339D01*
X195499043Y-126526489D01*
X195691018Y-126526489D01*
X195882260Y-126526489D01*
X195882260Y-126334515D01*
G37*
G36*
X197788087Y-127295122D02*
G01*
X197788087Y-126143272D01*
X197980062Y-126143272D01*
X198171304Y-126143272D01*
X198171304Y-127295122D01*
X198171304Y-128444773D01*
X197980062Y-128444773D01*
X197788087Y-128444773D01*
X197788087Y-127295122D01*
G37*
G36*
X199323154Y-128444773D02*
G01*
X199323154Y-128828722D01*
X199323154Y-129211939D01*
X199131912Y-129211939D01*
X198939937Y-129211939D01*
X198939937Y-128828722D01*
X198939937Y-128444773D01*
X198748695Y-128444773D01*
X198554521Y-128444773D01*
X198554521Y-128828722D01*
X198554521Y-129211939D01*
X198363279Y-129211939D01*
X198171304Y-129211939D01*
X198171304Y-128828722D01*
X198171304Y-128444773D01*
X198363279Y-128444773D01*
X198554521Y-128444773D01*
X198554521Y-127870314D01*
X198554521Y-127295122D01*
X198748695Y-127295122D01*
X198939937Y-127295122D01*
X198939937Y-127870314D01*
X198939937Y-128444773D01*
X199131912Y-128444773D01*
X199323154Y-128444773D01*
G37*
G36*
X199323154Y-128444773D02*
G01*
X199323154Y-127295122D01*
X199323154Y-126143272D01*
X199515129Y-126143272D01*
X199706371Y-126143272D01*
X199706371Y-127295122D01*
X199706371Y-128444773D01*
X199515129Y-128444773D01*
X199323154Y-128444773D01*
G37*
G36*
X200077131Y-127678339D02*
G01*
X200077131Y-126143272D01*
X201035540Y-126143272D01*
X201995415Y-126143272D01*
X201995415Y-126334515D01*
X201995415Y-126526489D01*
X201228981Y-126526489D01*
X200460348Y-126526489D01*
X200460348Y-126909706D01*
X200460348Y-127295122D01*
X201037739Y-127295122D01*
X201612198Y-127295122D01*
X201612198Y-127487096D01*
X201612198Y-127678339D01*
X201037739Y-127678339D01*
X200460348Y-127678339D01*
X200460348Y-128253531D01*
X200460348Y-128828722D01*
X201228981Y-128828722D01*
X201995415Y-128828722D01*
X201995415Y-129019965D01*
X201995415Y-129211939D01*
X201035540Y-129211939D01*
X200077131Y-129211939D01*
X200077131Y-127678339D01*
G37*
G36*
X202366175Y-127678339D02*
G01*
X202366175Y-126143272D01*
X203134808Y-126143272D01*
X203901242Y-126143272D01*
X203901242Y-126334515D01*
X203901242Y-126526489D01*
X203326782Y-126526489D01*
X202749392Y-126526489D01*
X202749392Y-126909706D01*
X202749392Y-127295122D01*
X203326782Y-127295122D01*
X203901242Y-127295122D01*
X203901242Y-126909706D01*
X203901242Y-126526489D01*
X204093217Y-126526489D01*
X204284459Y-126526489D01*
X204284459Y-126909706D01*
X204284459Y-127295122D01*
X204093217Y-127295122D01*
X203901242Y-127295122D01*
X203901242Y-127678339D01*
X203901242Y-128061556D01*
X203710000Y-128061556D01*
X203518025Y-128061556D01*
X203518025Y-127870314D01*
X203518025Y-127678339D01*
X203134808Y-127678339D01*
X202749392Y-127678339D01*
X202749392Y-128444773D01*
X202749392Y-129211939D01*
X202558150Y-129211939D01*
X202366175Y-129211939D01*
X202366175Y-127678339D01*
G37*
G36*
X203901242Y-128061556D02*
G01*
X204093217Y-128061556D01*
X204284459Y-128061556D01*
X204284459Y-128636748D01*
X204284459Y-129211939D01*
X204093217Y-129211939D01*
X203901242Y-129211939D01*
X203901242Y-128636748D01*
X203901242Y-128061556D01*
G37*
G36*
X204655219Y-127678339D02*
G01*
X204655219Y-126143272D01*
X205613628Y-126143272D01*
X206573503Y-126143272D01*
X206573503Y-126334515D01*
X206573503Y-126526489D01*
X205807069Y-126526489D01*
X205038436Y-126526489D01*
X205038436Y-126909706D01*
X205038436Y-127295122D01*
X205615826Y-127295122D01*
X206190286Y-127295122D01*
X206190286Y-127487096D01*
X206190286Y-127678339D01*
X205615826Y-127678339D01*
X205038436Y-127678339D01*
X205038436Y-128253531D01*
X205038436Y-128828722D01*
X205807069Y-128828722D01*
X206573503Y-128828722D01*
X206573503Y-129019965D01*
X206573503Y-129211939D01*
X205613628Y-129211939D01*
X204655219Y-129211939D01*
X204655219Y-127678339D01*
G37*
G36*
X206944263Y-127678339D02*
G01*
X206944263Y-126143272D01*
X207712896Y-126143272D01*
X208479330Y-126143272D01*
X208479330Y-126334515D01*
X208479330Y-126526489D01*
X207904870Y-126526489D01*
X207327480Y-126526489D01*
X207327480Y-127678339D01*
X207327480Y-128828722D01*
X207904870Y-128828722D01*
X208479330Y-128828722D01*
X208479330Y-127678339D01*
X208479330Y-126526489D01*
X208671304Y-126526489D01*
X208862547Y-126526489D01*
X208862547Y-127678339D01*
X208862547Y-128828722D01*
X208671304Y-128828722D01*
X208479330Y-128828722D01*
X208479330Y-129019965D01*
X208479330Y-129211939D01*
X207712896Y-129211939D01*
X206944263Y-129211939D01*
X206944263Y-127678339D01*
G37*
G36*
X211522351Y-127678339D02*
G01*
X211522351Y-126143272D01*
X212290983Y-126143272D01*
X213057418Y-126143272D01*
X213057418Y-126334515D01*
X213057418Y-126526489D01*
X212482958Y-126526489D01*
X211905568Y-126526489D01*
X211905568Y-126909706D01*
X211905568Y-127295122D01*
X212482958Y-127295122D01*
X213057418Y-127295122D01*
X213057418Y-126909706D01*
X213057418Y-126526489D01*
X213249392Y-126526489D01*
X213440635Y-126526489D01*
X213440635Y-126909706D01*
X213440635Y-127295122D01*
X213249392Y-127295122D01*
X213057418Y-127295122D01*
X213057418Y-127487096D01*
X213057418Y-127678339D01*
X212482958Y-127678339D01*
X211905568Y-127678339D01*
X211905568Y-128253531D01*
X211905568Y-128828722D01*
X212482958Y-128828722D01*
X213057418Y-128828722D01*
X213057418Y-128253531D01*
X213057418Y-127678339D01*
X213249392Y-127678339D01*
X213440635Y-127678339D01*
X213440635Y-128253531D01*
X213440635Y-128828722D01*
X213249392Y-128828722D01*
X213057418Y-128828722D01*
X213057418Y-129019965D01*
X213057418Y-129211939D01*
X212290983Y-129211939D01*
X211522351Y-129211939D01*
X211522351Y-127678339D01*
G37*
G36*
X213811395Y-126526489D02*
G01*
X213811395Y-126143272D01*
X214003370Y-126143272D01*
X214194612Y-126143272D01*
X214194612Y-126526489D01*
X214194612Y-126909706D01*
X214003370Y-126909706D01*
X213811395Y-126909706D01*
X213811395Y-126526489D01*
G37*
G36*
X215346461Y-126909706D02*
G01*
X215346461Y-127101681D01*
X215346461Y-127295122D01*
X215155219Y-127295122D01*
X214963244Y-127295122D01*
X214963244Y-128253531D01*
X214963244Y-129211939D01*
X214772002Y-129211939D01*
X214577829Y-129211939D01*
X214577829Y-128253531D01*
X214577829Y-127295122D01*
X214386587Y-127295122D01*
X214194612Y-127295122D01*
X214194612Y-127101681D01*
X214194612Y-126909706D01*
X214386587Y-126909706D01*
X214577829Y-126909706D01*
X214577829Y-127101681D01*
X214577829Y-127295122D01*
X214772002Y-127295122D01*
X214963244Y-127295122D01*
X214963244Y-127101681D01*
X214963244Y-126909706D01*
X215155219Y-126909706D01*
X215346461Y-126909706D01*
G37*
G36*
X215346461Y-126909706D02*
G01*
X215346461Y-126526489D01*
X215346461Y-126143272D01*
X215538436Y-126143272D01*
X215729678Y-126143272D01*
X215729678Y-126526489D01*
X215729678Y-126909706D01*
X215538436Y-126909706D01*
X215346461Y-126909706D01*
G37*
G36*
X218772700Y-126334515D02*
G01*
X218772700Y-126143272D01*
X219350090Y-126143272D01*
X219924549Y-126143272D01*
X219924549Y-126334515D01*
X219924549Y-126526489D01*
X219350090Y-126526489D01*
X218772700Y-126526489D01*
X218772700Y-126334515D01*
G37*
G36*
X219924549Y-128828722D02*
G01*
X219924549Y-129019965D01*
X219924549Y-129211939D01*
X219350090Y-129211939D01*
X218772700Y-129211939D01*
X218772700Y-129019965D01*
X218772700Y-128828722D01*
X218581458Y-128828722D01*
X218389483Y-128828722D01*
X218389483Y-127678339D01*
X218389483Y-126526489D01*
X218581458Y-126526489D01*
X218772700Y-126526489D01*
X218772700Y-127678339D01*
X218772700Y-128828722D01*
X219350090Y-128828722D01*
X219924549Y-128828722D01*
G37*
G36*
X219924549Y-128828722D02*
G01*
X219924549Y-128253531D01*
X219924549Y-127678339D01*
X219541332Y-127678339D01*
X219155917Y-127678339D01*
X219155917Y-127487096D01*
X219155917Y-127295122D01*
X219733307Y-127295122D01*
X220307766Y-127295122D01*
X220307766Y-128061556D01*
X220307766Y-128828722D01*
X220116524Y-128828722D01*
X219924549Y-128828722D01*
G37*
G36*
X219924549Y-126526489D02*
G01*
X220116524Y-126526489D01*
X220307766Y-126526489D01*
X220307766Y-126718464D01*
X220307766Y-126909706D01*
X220116524Y-126909706D01*
X219924549Y-126909706D01*
X219924549Y-126718464D01*
X219924549Y-126526489D01*
G37*
G36*
X220678527Y-127678339D02*
G01*
X220678527Y-126143272D01*
X221447159Y-126143272D01*
X222213593Y-126143272D01*
X222213593Y-126334515D01*
X222213593Y-126526489D01*
X221639134Y-126526489D01*
X221061744Y-126526489D01*
X221061744Y-126909706D01*
X221061744Y-127295122D01*
X221639134Y-127295122D01*
X222213593Y-127295122D01*
X222213593Y-126909706D01*
X222213593Y-126526489D01*
X222405568Y-126526489D01*
X222596810Y-126526489D01*
X222596810Y-126909706D01*
X222596810Y-127295122D01*
X222405568Y-127295122D01*
X222213593Y-127295122D01*
X222213593Y-127487096D01*
X222213593Y-127678339D01*
X221639134Y-127678339D01*
X221061744Y-127678339D01*
X221061744Y-128444773D01*
X221061744Y-129211939D01*
X220870502Y-129211939D01*
X220678527Y-129211939D01*
X220678527Y-127678339D01*
G37*
G36*
X223350788Y-126718464D02*
G01*
X223350788Y-126526489D01*
X223928178Y-126526489D01*
X224502637Y-126526489D01*
X224502637Y-126718464D01*
X224502637Y-126909706D01*
X223928178Y-126909706D01*
X223350788Y-126909706D01*
X223350788Y-126718464D01*
G37*
G36*
X223350788Y-126909706D02*
G01*
X223350788Y-127101681D01*
X223350788Y-127292923D01*
X223159546Y-127292923D01*
X222967571Y-127292923D01*
X222967571Y-127101681D01*
X222967571Y-126909706D01*
X223159546Y-126909706D01*
X223350788Y-126909706D01*
G37*
G36*
X223734005Y-128444773D02*
G01*
X223734005Y-128253531D01*
X223734005Y-128061556D01*
X223928178Y-128061556D01*
X224119420Y-128061556D01*
X224119420Y-127870314D01*
X224119420Y-127678339D01*
X224311395Y-127678339D01*
X224502637Y-127678339D01*
X224502637Y-127295122D01*
X224502637Y-126909706D01*
X224694612Y-126909706D01*
X224885854Y-126909706D01*
X224885854Y-127295122D01*
X224885854Y-127678339D01*
X224694612Y-127678339D01*
X224502637Y-127678339D01*
X224502637Y-127870314D01*
X224502637Y-128061556D01*
X224311395Y-128061556D01*
X224119420Y-128061556D01*
X224119420Y-128253531D01*
X224119420Y-128444773D01*
X223928178Y-128444773D01*
X223734005Y-128444773D01*
G37*
G36*
X223734005Y-128444773D02*
G01*
X223734005Y-128636748D01*
X223734005Y-128828722D01*
X224311395Y-128828722D01*
X224885854Y-128828722D01*
X224885854Y-129019965D01*
X224885854Y-129211939D01*
X223925980Y-129211939D01*
X222967571Y-129211939D01*
X222967571Y-129019965D01*
X222967571Y-128828722D01*
X223159546Y-128828722D01*
X223350788Y-128828722D01*
X223350788Y-128636748D01*
X223350788Y-128444773D01*
X223542763Y-128444773D01*
X223734005Y-128444773D01*
G37*
G36*
X225639832Y-126718464D02*
G01*
X225639832Y-126526489D01*
X226217222Y-126526489D01*
X226791681Y-126526489D01*
X226791681Y-126718464D01*
X226791681Y-126909706D01*
X226217222Y-126909706D01*
X225639832Y-126909706D01*
X225639832Y-127487096D01*
X225639832Y-128061556D01*
X225831807Y-128061556D01*
X226023049Y-128061556D01*
X226023049Y-128253531D01*
X226023049Y-128444773D01*
X225831807Y-128444773D01*
X225639832Y-128444773D01*
X225639832Y-128636748D01*
X225639832Y-128828722D01*
X226217222Y-128828722D01*
X226791681Y-128828722D01*
X226791681Y-128253531D01*
X226791681Y-127678339D01*
X226600439Y-127678339D01*
X226408464Y-127678339D01*
X226408464Y-127487096D01*
X226408464Y-127292923D01*
X226600439Y-127292923D01*
X226791681Y-127292923D01*
X226791681Y-127101681D01*
X226791681Y-126909706D01*
X226983656Y-126909706D01*
X227174898Y-126909706D01*
X227174898Y-127870314D01*
X227174898Y-128828722D01*
X226983656Y-128828722D01*
X226791681Y-128828722D01*
X226791681Y-129019965D01*
X226791681Y-129211939D01*
X226217222Y-129211939D01*
X225639832Y-129211939D01*
X225639832Y-129019965D01*
X225639832Y-128828722D01*
X225448590Y-128828722D01*
X225256615Y-128828722D01*
X225256615Y-127870314D01*
X225256615Y-126909706D01*
X225448590Y-126909706D01*
X225639832Y-126909706D01*
X225639832Y-126718464D01*
G37*
G36*
X226023049Y-127870314D02*
G01*
X226023049Y-127678339D01*
X226217222Y-127678339D01*
X226408464Y-127678339D01*
X226408464Y-127870314D01*
X226408464Y-128061556D01*
X226217222Y-128061556D01*
X226023049Y-128061556D01*
X226023049Y-127870314D01*
G37*
G36*
X229080725Y-127295122D02*
G01*
X229080725Y-128061556D01*
X229272700Y-128061556D01*
X229463942Y-128061556D01*
X229463942Y-128253531D01*
X229463942Y-128444773D01*
X229272700Y-128444773D01*
X229080725Y-128444773D01*
X229080725Y-128828722D01*
X229080725Y-129211939D01*
X228889483Y-129211939D01*
X228697508Y-129211939D01*
X228697508Y-128828722D01*
X228697508Y-128444773D01*
X228120851Y-128444773D01*
X227545659Y-128444773D01*
X227545659Y-128061556D01*
X227545659Y-127678339D01*
X227737634Y-127678339D01*
X227928876Y-127678339D01*
X227928876Y-127870314D01*
X227928876Y-128061556D01*
X228314291Y-128061556D01*
X228697508Y-128061556D01*
X228697508Y-127678339D01*
X228697508Y-127292923D01*
X228506266Y-127292923D01*
X228312093Y-127292923D01*
X228312093Y-127487096D01*
X228312093Y-127678339D01*
X228120851Y-127678339D01*
X227928876Y-127678339D01*
X227928876Y-127487096D01*
X227928876Y-127292923D01*
X228120851Y-127292923D01*
X228312093Y-127292923D01*
X228312093Y-127101681D01*
X228312093Y-126909706D01*
X228506266Y-126909706D01*
X228697508Y-126909706D01*
X228697508Y-126718464D01*
X228697508Y-126526489D01*
X228889483Y-126526489D01*
X229080725Y-126526489D01*
X229080725Y-127295122D01*
G37*
G36*
X230217920Y-126718464D02*
G01*
X230217920Y-126526489D01*
X230795310Y-126526489D01*
X231369769Y-126526489D01*
X231369769Y-126718464D01*
X231369769Y-126909706D01*
X230795310Y-126909706D01*
X230217920Y-126909706D01*
X230217920Y-127487096D01*
X230217920Y-128061556D01*
X230409895Y-128061556D01*
X230601137Y-128061556D01*
X230601137Y-128253531D01*
X230601137Y-128444773D01*
X230409895Y-128444773D01*
X230217920Y-128444773D01*
X230217920Y-128636748D01*
X230217920Y-128828722D01*
X230795310Y-128828722D01*
X231369769Y-128828722D01*
X231369769Y-128253531D01*
X231369769Y-127678339D01*
X231178527Y-127678339D01*
X230986552Y-127678339D01*
X230986552Y-127487096D01*
X230986552Y-127292923D01*
X231178527Y-127292923D01*
X231369769Y-127292923D01*
X231369769Y-127101681D01*
X231369769Y-126909706D01*
X231561744Y-126909706D01*
X231752986Y-126909706D01*
X231752986Y-127870314D01*
X231752986Y-128828722D01*
X231561744Y-128828722D01*
X231369769Y-128828722D01*
X231369769Y-129019965D01*
X231369769Y-129211939D01*
X230795310Y-129211939D01*
X230217920Y-129211939D01*
X230217920Y-129019965D01*
X230217920Y-128828722D01*
X230026678Y-128828722D01*
X229834703Y-128828722D01*
X229834703Y-127870314D01*
X229834703Y-126909706D01*
X230026678Y-126909706D01*
X230217920Y-126909706D01*
X230217920Y-126718464D01*
G37*
G36*
X230601137Y-127870314D02*
G01*
X230601137Y-127678339D01*
X230795310Y-127678339D01*
X230986552Y-127678339D01*
X230986552Y-127870314D01*
X230986552Y-128061556D01*
X230795310Y-128061556D01*
X230601137Y-128061556D01*
X230601137Y-127870314D01*
G37*
G36*
X232123747Y-127872512D02*
G01*
X232123747Y-127680537D01*
X233082156Y-127680537D01*
X234042030Y-127680537D01*
X234042030Y-127872512D01*
X234042030Y-128063754D01*
X233082156Y-128063754D01*
X232123747Y-128063754D01*
X232123747Y-127872512D01*
G37*
G36*
X234796008Y-126334515D02*
G01*
X234796008Y-126143272D01*
X235373398Y-126143272D01*
X235947857Y-126143272D01*
X235947857Y-126334515D01*
X235947857Y-126526489D01*
X235373398Y-126526489D01*
X234796008Y-126526489D01*
X234796008Y-126334515D01*
G37*
G36*
X235947857Y-128828722D02*
G01*
X235947857Y-129019965D01*
X235947857Y-129211939D01*
X235373398Y-129211939D01*
X234796008Y-129211939D01*
X234796008Y-129019965D01*
X234796008Y-128828722D01*
X234604766Y-128828722D01*
X234412791Y-128828722D01*
X234412791Y-127678339D01*
X234412791Y-126526489D01*
X234604766Y-126526489D01*
X234796008Y-126526489D01*
X234796008Y-127678339D01*
X234796008Y-128828722D01*
X235373398Y-128828722D01*
X235947857Y-128828722D01*
G37*
G36*
X235947857Y-128828722D02*
G01*
X235947857Y-128636748D01*
X235947857Y-128444773D01*
X236139832Y-128444773D01*
X236331074Y-128444773D01*
X236331074Y-128636748D01*
X236331074Y-128828722D01*
X236139832Y-128828722D01*
X235947857Y-128828722D01*
G37*
G36*
X235947857Y-126526489D02*
G01*
X236139832Y-126526489D01*
X236331074Y-126526489D01*
X236331074Y-126718464D01*
X236331074Y-126909706D01*
X236139832Y-126909706D01*
X235947857Y-126909706D01*
X235947857Y-126718464D01*
X235947857Y-126526489D01*
G37*
G36*
X236701835Y-127678339D02*
G01*
X236701835Y-126143272D01*
X237660244Y-126143272D01*
X238620118Y-126143272D01*
X238620118Y-126334515D01*
X238620118Y-126526489D01*
X237853684Y-126526489D01*
X237085052Y-126526489D01*
X237085052Y-126909706D01*
X237085052Y-127295122D01*
X237662442Y-127295122D01*
X238236901Y-127295122D01*
X238236901Y-127487096D01*
X238236901Y-127678339D01*
X237662442Y-127678339D01*
X237085052Y-127678339D01*
X237085052Y-128253531D01*
X237085052Y-128828722D01*
X237853684Y-128828722D01*
X238620118Y-128828722D01*
X238620118Y-129019965D01*
X238620118Y-129211939D01*
X237660244Y-129211939D01*
X236701835Y-129211939D01*
X236701835Y-127678339D01*
G37*
D10*
G36*
X246420000Y-77896594D02*
G01*
X246420000Y-76857585D01*
X246563614Y-76857585D01*
X246706741Y-76857585D01*
X246706741Y-77769099D01*
X246706741Y-78647885D01*
X247203531Y-78647885D01*
X247730118Y-78647885D01*
X247730118Y-78791011D01*
X247730118Y-78934626D01*
X247074570Y-78934626D01*
X246420000Y-78934626D01*
X246420000Y-77896594D01*
G37*
G36*
X247946029Y-77896594D02*
G01*
X247946029Y-76857585D01*
X248474082Y-76857585D01*
X249000669Y-76857585D01*
X249000669Y-77000711D01*
X249000669Y-77144326D01*
X248602065Y-77144326D01*
X248232770Y-77144326D01*
X248232770Y-77384173D01*
X248232770Y-77625484D01*
X248602065Y-77625484D01*
X248969406Y-77625484D01*
X248969406Y-77384173D01*
X248969406Y-77113063D01*
X249113021Y-77113063D01*
X249256147Y-77113063D01*
X249256147Y-77384173D01*
X249256147Y-77656748D01*
X249113021Y-77656748D01*
X249000669Y-77656748D01*
X249000669Y-77769099D01*
X249000669Y-77912226D01*
X248602065Y-77912226D01*
X248232770Y-77912226D01*
X248232770Y-78280055D01*
X248232770Y-78647885D01*
X248602065Y-78647885D01*
X248969406Y-78647885D01*
X248969406Y-78280055D01*
X248969406Y-77880963D01*
X249113021Y-77880963D01*
X249256147Y-77880963D01*
X249256147Y-78280055D01*
X249256147Y-78679148D01*
X249113021Y-78679148D01*
X249000669Y-78679148D01*
X249000669Y-78791011D01*
X249000669Y-78934626D01*
X248474082Y-78934626D01*
X247946029Y-78934626D01*
X247946029Y-77896594D01*
G37*
G36*
X161905478Y-107650711D02*
G01*
X161905478Y-107507585D01*
X162306036Y-107507585D01*
X162704640Y-107507585D01*
X162704640Y-107650711D01*
X162704640Y-107794326D01*
X162306036Y-107794326D01*
X161936741Y-107794326D01*
X161936741Y-108034173D01*
X161936741Y-108275484D01*
X162306036Y-108275484D01*
X162673377Y-108275484D01*
X162673377Y-108034173D01*
X162673377Y-107763063D01*
X162816992Y-107763063D01*
X162960118Y-107763063D01*
X162960118Y-108674577D01*
X162960118Y-109584626D01*
X162816992Y-109584626D01*
X162673377Y-109584626D01*
X162673377Y-109057550D01*
X162673377Y-108562226D01*
X162306036Y-108562226D01*
X161936741Y-108562226D01*
X161936741Y-109057550D01*
X161936741Y-109584626D01*
X161793614Y-109584626D01*
X161650000Y-109584626D01*
X161650000Y-108674577D01*
X161650000Y-107763063D01*
X161793614Y-107763063D01*
X161905478Y-107763063D01*
X161905478Y-107650711D01*
G37*
D12*
X168738095Y-120107200D02*
X168880952Y-120154819D01*
X168880952Y-120154819D02*
X169119047Y-120154819D01*
X169119047Y-120154819D02*
X169214285Y-120107200D01*
X169214285Y-120107200D02*
X169261904Y-120059580D01*
X169261904Y-120059580D02*
X169309523Y-119964342D01*
X169309523Y-119964342D02*
X169309523Y-119869104D01*
X169309523Y-119869104D02*
X169261904Y-119773866D01*
X169261904Y-119773866D02*
X169214285Y-119726247D01*
X169214285Y-119726247D02*
X169119047Y-119678628D01*
X169119047Y-119678628D02*
X168928571Y-119631009D01*
X168928571Y-119631009D02*
X168833333Y-119583390D01*
X168833333Y-119583390D02*
X168785714Y-119535771D01*
X168785714Y-119535771D02*
X168738095Y-119440533D01*
X168738095Y-119440533D02*
X168738095Y-119345295D01*
X168738095Y-119345295D02*
X168785714Y-119250057D01*
X168785714Y-119250057D02*
X168833333Y-119202438D01*
X168833333Y-119202438D02*
X168928571Y-119154819D01*
X168928571Y-119154819D02*
X169166666Y-119154819D01*
X169166666Y-119154819D02*
X169309523Y-119202438D01*
X169642857Y-119154819D02*
X170261904Y-119154819D01*
X170261904Y-119154819D02*
X169928571Y-119535771D01*
X169928571Y-119535771D02*
X170071428Y-119535771D01*
X170071428Y-119535771D02*
X170166666Y-119583390D01*
X170166666Y-119583390D02*
X170214285Y-119631009D01*
X170214285Y-119631009D02*
X170261904Y-119726247D01*
X170261904Y-119726247D02*
X170261904Y-119964342D01*
X170261904Y-119964342D02*
X170214285Y-120059580D01*
X170214285Y-120059580D02*
X170166666Y-120107200D01*
X170166666Y-120107200D02*
X170071428Y-120154819D01*
X170071428Y-120154819D02*
X169785714Y-120154819D01*
X169785714Y-120154819D02*
X169690476Y-120107200D01*
X169690476Y-120107200D02*
X169642857Y-120059580D01*
X173119048Y-124573866D02*
X173880953Y-124573866D01*
X173500000Y-124954819D02*
X173500000Y-124192914D01*
X173000000Y-126504819D02*
X173000000Y-125504819D01*
X174047618Y-126504819D02*
X173714285Y-126028628D01*
X173476190Y-126504819D02*
X173476190Y-125504819D01*
X173476190Y-125504819D02*
X173857142Y-125504819D01*
X173857142Y-125504819D02*
X173952380Y-125552438D01*
X173952380Y-125552438D02*
X173999999Y-125600057D01*
X173999999Y-125600057D02*
X174047618Y-125695295D01*
X174047618Y-125695295D02*
X174047618Y-125838152D01*
X174047618Y-125838152D02*
X173999999Y-125933390D01*
X173999999Y-125933390D02*
X173952380Y-125981009D01*
X173952380Y-125981009D02*
X173857142Y-126028628D01*
X173857142Y-126028628D02*
X173476190Y-126028628D01*
X164019048Y-124323866D02*
X164780953Y-124323866D01*
X164400000Y-124704819D02*
X164400000Y-123942914D01*
X163707143Y-126354819D02*
X163707143Y-125354819D01*
X163707143Y-125354819D02*
X164088095Y-125354819D01*
X164088095Y-125354819D02*
X164183333Y-125402438D01*
X164183333Y-125402438D02*
X164230952Y-125450057D01*
X164230952Y-125450057D02*
X164278571Y-125545295D01*
X164278571Y-125545295D02*
X164278571Y-125688152D01*
X164278571Y-125688152D02*
X164230952Y-125783390D01*
X164230952Y-125783390D02*
X164183333Y-125831009D01*
X164183333Y-125831009D02*
X164088095Y-125878628D01*
X164088095Y-125878628D02*
X163707143Y-125878628D01*
X164564286Y-125354819D02*
X165135714Y-125354819D01*
X164850000Y-126354819D02*
X164850000Y-125354819D01*
X173119048Y-127023866D02*
X173880953Y-127023866D01*
X163969048Y-127073866D02*
X164730953Y-127073866D01*
X180161905Y-66157200D02*
X180304762Y-66204819D01*
X180304762Y-66204819D02*
X180542857Y-66204819D01*
X180542857Y-66204819D02*
X180638095Y-66157200D01*
X180638095Y-66157200D02*
X180685714Y-66109580D01*
X180685714Y-66109580D02*
X180733333Y-66014342D01*
X180733333Y-66014342D02*
X180733333Y-65919104D01*
X180733333Y-65919104D02*
X180685714Y-65823866D01*
X180685714Y-65823866D02*
X180638095Y-65776247D01*
X180638095Y-65776247D02*
X180542857Y-65728628D01*
X180542857Y-65728628D02*
X180352381Y-65681009D01*
X180352381Y-65681009D02*
X180257143Y-65633390D01*
X180257143Y-65633390D02*
X180209524Y-65585771D01*
X180209524Y-65585771D02*
X180161905Y-65490533D01*
X180161905Y-65490533D02*
X180161905Y-65395295D01*
X180161905Y-65395295D02*
X180209524Y-65300057D01*
X180209524Y-65300057D02*
X180257143Y-65252438D01*
X180257143Y-65252438D02*
X180352381Y-65204819D01*
X180352381Y-65204819D02*
X180590476Y-65204819D01*
X180590476Y-65204819D02*
X180733333Y-65252438D01*
X181685714Y-66204819D02*
X181114286Y-66204819D01*
X181400000Y-66204819D02*
X181400000Y-65204819D01*
X181400000Y-65204819D02*
X181304762Y-65347676D01*
X181304762Y-65347676D02*
X181209524Y-65442914D01*
X181209524Y-65442914D02*
X181114286Y-65490533D01*
X182304762Y-65204819D02*
X182400000Y-65204819D01*
X182400000Y-65204819D02*
X182495238Y-65252438D01*
X182495238Y-65252438D02*
X182542857Y-65300057D01*
X182542857Y-65300057D02*
X182590476Y-65395295D01*
X182590476Y-65395295D02*
X182638095Y-65585771D01*
X182638095Y-65585771D02*
X182638095Y-65823866D01*
X182638095Y-65823866D02*
X182590476Y-66014342D01*
X182590476Y-66014342D02*
X182542857Y-66109580D01*
X182542857Y-66109580D02*
X182495238Y-66157200D01*
X182495238Y-66157200D02*
X182400000Y-66204819D01*
X182400000Y-66204819D02*
X182304762Y-66204819D01*
X182304762Y-66204819D02*
X182209524Y-66157200D01*
X182209524Y-66157200D02*
X182161905Y-66109580D01*
X182161905Y-66109580D02*
X182114286Y-66014342D01*
X182114286Y-66014342D02*
X182066667Y-65823866D01*
X182066667Y-65823866D02*
X182066667Y-65585771D01*
X182066667Y-65585771D02*
X182114286Y-65395295D01*
X182114286Y-65395295D02*
X182161905Y-65300057D01*
X182161905Y-65300057D02*
X182209524Y-65252438D01*
X182209524Y-65252438D02*
X182304762Y-65204819D01*
X175919048Y-70373866D02*
X176680953Y-70373866D01*
X176300000Y-70754819D02*
X176300000Y-69992914D01*
X175869048Y-73123866D02*
X176630953Y-73123866D01*
X184919048Y-70373866D02*
X185680953Y-70373866D01*
X185300000Y-70754819D02*
X185300000Y-69992914D01*
X175607143Y-72404819D02*
X175607143Y-71404819D01*
X175607143Y-71404819D02*
X175988095Y-71404819D01*
X175988095Y-71404819D02*
X176083333Y-71452438D01*
X176083333Y-71452438D02*
X176130952Y-71500057D01*
X176130952Y-71500057D02*
X176178571Y-71595295D01*
X176178571Y-71595295D02*
X176178571Y-71738152D01*
X176178571Y-71738152D02*
X176130952Y-71833390D01*
X176130952Y-71833390D02*
X176083333Y-71881009D01*
X176083333Y-71881009D02*
X175988095Y-71928628D01*
X175988095Y-71928628D02*
X175607143Y-71928628D01*
X176464286Y-71404819D02*
X177035714Y-71404819D01*
X176750000Y-72404819D02*
X176750000Y-71404819D01*
X184900000Y-72554819D02*
X184900000Y-71554819D01*
X185947618Y-72554819D02*
X185614285Y-72078628D01*
X185376190Y-72554819D02*
X185376190Y-71554819D01*
X185376190Y-71554819D02*
X185757142Y-71554819D01*
X185757142Y-71554819D02*
X185852380Y-71602438D01*
X185852380Y-71602438D02*
X185899999Y-71650057D01*
X185899999Y-71650057D02*
X185947618Y-71745295D01*
X185947618Y-71745295D02*
X185947618Y-71888152D01*
X185947618Y-71888152D02*
X185899999Y-71983390D01*
X185899999Y-71983390D02*
X185852380Y-72031009D01*
X185852380Y-72031009D02*
X185757142Y-72078628D01*
X185757142Y-72078628D02*
X185376190Y-72078628D01*
X185019048Y-73073866D02*
X185780953Y-73073866D01*
X235761905Y-92707200D02*
X235904762Y-92754819D01*
X235904762Y-92754819D02*
X236142857Y-92754819D01*
X236142857Y-92754819D02*
X236238095Y-92707200D01*
X236238095Y-92707200D02*
X236285714Y-92659580D01*
X236285714Y-92659580D02*
X236333333Y-92564342D01*
X236333333Y-92564342D02*
X236333333Y-92469104D01*
X236333333Y-92469104D02*
X236285714Y-92373866D01*
X236285714Y-92373866D02*
X236238095Y-92326247D01*
X236238095Y-92326247D02*
X236142857Y-92278628D01*
X236142857Y-92278628D02*
X235952381Y-92231009D01*
X235952381Y-92231009D02*
X235857143Y-92183390D01*
X235857143Y-92183390D02*
X235809524Y-92135771D01*
X235809524Y-92135771D02*
X235761905Y-92040533D01*
X235761905Y-92040533D02*
X235761905Y-91945295D01*
X235761905Y-91945295D02*
X235809524Y-91850057D01*
X235809524Y-91850057D02*
X235857143Y-91802438D01*
X235857143Y-91802438D02*
X235952381Y-91754819D01*
X235952381Y-91754819D02*
X236190476Y-91754819D01*
X236190476Y-91754819D02*
X236333333Y-91802438D01*
X237285714Y-92754819D02*
X236714286Y-92754819D01*
X237000000Y-92754819D02*
X237000000Y-91754819D01*
X237000000Y-91754819D02*
X236904762Y-91897676D01*
X236904762Y-91897676D02*
X236809524Y-91992914D01*
X236809524Y-91992914D02*
X236714286Y-92040533D01*
X238142857Y-91754819D02*
X237952381Y-91754819D01*
X237952381Y-91754819D02*
X237857143Y-91802438D01*
X237857143Y-91802438D02*
X237809524Y-91850057D01*
X237809524Y-91850057D02*
X237714286Y-91992914D01*
X237714286Y-91992914D02*
X237666667Y-92183390D01*
X237666667Y-92183390D02*
X237666667Y-92564342D01*
X237666667Y-92564342D02*
X237714286Y-92659580D01*
X237714286Y-92659580D02*
X237761905Y-92707200D01*
X237761905Y-92707200D02*
X237857143Y-92754819D01*
X237857143Y-92754819D02*
X238047619Y-92754819D01*
X238047619Y-92754819D02*
X238142857Y-92707200D01*
X238142857Y-92707200D02*
X238190476Y-92659580D01*
X238190476Y-92659580D02*
X238238095Y-92564342D01*
X238238095Y-92564342D02*
X238238095Y-92326247D01*
X238238095Y-92326247D02*
X238190476Y-92231009D01*
X238190476Y-92231009D02*
X238142857Y-92183390D01*
X238142857Y-92183390D02*
X238047619Y-92135771D01*
X238047619Y-92135771D02*
X237857143Y-92135771D01*
X237857143Y-92135771D02*
X237761905Y-92183390D01*
X237761905Y-92183390D02*
X237714286Y-92231009D01*
X237714286Y-92231009D02*
X237666667Y-92326247D01*
X240519048Y-96923866D02*
X241280953Y-96923866D01*
X240900000Y-97304819D02*
X240900000Y-96542914D01*
X231207143Y-98954819D02*
X231207143Y-97954819D01*
X231207143Y-97954819D02*
X231588095Y-97954819D01*
X231588095Y-97954819D02*
X231683333Y-98002438D01*
X231683333Y-98002438D02*
X231730952Y-98050057D01*
X231730952Y-98050057D02*
X231778571Y-98145295D01*
X231778571Y-98145295D02*
X231778571Y-98288152D01*
X231778571Y-98288152D02*
X231730952Y-98383390D01*
X231730952Y-98383390D02*
X231683333Y-98431009D01*
X231683333Y-98431009D02*
X231588095Y-98478628D01*
X231588095Y-98478628D02*
X231207143Y-98478628D01*
X232064286Y-97954819D02*
X232635714Y-97954819D01*
X232350000Y-98954819D02*
X232350000Y-97954819D01*
X240619048Y-99623866D02*
X241380953Y-99623866D01*
X231519048Y-96923866D02*
X232280953Y-96923866D01*
X231900000Y-97304819D02*
X231900000Y-96542914D01*
X231469048Y-99673866D02*
X232230953Y-99673866D01*
X240500000Y-99104819D02*
X240500000Y-98104819D01*
X241547618Y-99104819D02*
X241214285Y-98628628D01*
X240976190Y-99104819D02*
X240976190Y-98104819D01*
X240976190Y-98104819D02*
X241357142Y-98104819D01*
X241357142Y-98104819D02*
X241452380Y-98152438D01*
X241452380Y-98152438D02*
X241499999Y-98200057D01*
X241499999Y-98200057D02*
X241547618Y-98295295D01*
X241547618Y-98295295D02*
X241547618Y-98438152D01*
X241547618Y-98438152D02*
X241499999Y-98533390D01*
X241499999Y-98533390D02*
X241452380Y-98581009D01*
X241452380Y-98581009D02*
X241357142Y-98628628D01*
X241357142Y-98628628D02*
X240976190Y-98628628D01*
X194333333Y-39335009D02*
X194476190Y-39382628D01*
X194476190Y-39382628D02*
X194523809Y-39430247D01*
X194523809Y-39430247D02*
X194571428Y-39525485D01*
X194571428Y-39525485D02*
X194571428Y-39668342D01*
X194571428Y-39668342D02*
X194523809Y-39763580D01*
X194523809Y-39763580D02*
X194476190Y-39811200D01*
X194476190Y-39811200D02*
X194380952Y-39858819D01*
X194380952Y-39858819D02*
X194000000Y-39858819D01*
X194000000Y-39858819D02*
X194000000Y-38858819D01*
X194000000Y-38858819D02*
X194333333Y-38858819D01*
X194333333Y-38858819D02*
X194428571Y-38906438D01*
X194428571Y-38906438D02*
X194476190Y-38954057D01*
X194476190Y-38954057D02*
X194523809Y-39049295D01*
X194523809Y-39049295D02*
X194523809Y-39144533D01*
X194523809Y-39144533D02*
X194476190Y-39239771D01*
X194476190Y-39239771D02*
X194428571Y-39287390D01*
X194428571Y-39287390D02*
X194333333Y-39335009D01*
X194333333Y-39335009D02*
X194000000Y-39335009D01*
X195000000Y-39858819D02*
X195000000Y-39192152D01*
X195000000Y-39382628D02*
X195047619Y-39287390D01*
X195047619Y-39287390D02*
X195095238Y-39239771D01*
X195095238Y-39239771D02*
X195190476Y-39192152D01*
X195190476Y-39192152D02*
X195285714Y-39192152D01*
X196047619Y-39858819D02*
X196047619Y-38858819D01*
X196047619Y-39811200D02*
X195952381Y-39858819D01*
X195952381Y-39858819D02*
X195761905Y-39858819D01*
X195761905Y-39858819D02*
X195666667Y-39811200D01*
X195666667Y-39811200D02*
X195619048Y-39763580D01*
X195619048Y-39763580D02*
X195571429Y-39668342D01*
X195571429Y-39668342D02*
X195571429Y-39382628D01*
X195571429Y-39382628D02*
X195619048Y-39287390D01*
X195619048Y-39287390D02*
X195666667Y-39239771D01*
X195666667Y-39239771D02*
X195761905Y-39192152D01*
X195761905Y-39192152D02*
X195952381Y-39192152D01*
X195952381Y-39192152D02*
X196047619Y-39239771D01*
X197047619Y-39858819D02*
X196476191Y-39858819D01*
X196761905Y-39858819D02*
X196761905Y-38858819D01*
X196761905Y-38858819D02*
X196666667Y-39001676D01*
X196666667Y-39001676D02*
X196571429Y-39096914D01*
X196571429Y-39096914D02*
X196476191Y-39144533D01*
X206761905Y-92707200D02*
X206904762Y-92754819D01*
X206904762Y-92754819D02*
X207142857Y-92754819D01*
X207142857Y-92754819D02*
X207238095Y-92707200D01*
X207238095Y-92707200D02*
X207285714Y-92659580D01*
X207285714Y-92659580D02*
X207333333Y-92564342D01*
X207333333Y-92564342D02*
X207333333Y-92469104D01*
X207333333Y-92469104D02*
X207285714Y-92373866D01*
X207285714Y-92373866D02*
X207238095Y-92326247D01*
X207238095Y-92326247D02*
X207142857Y-92278628D01*
X207142857Y-92278628D02*
X206952381Y-92231009D01*
X206952381Y-92231009D02*
X206857143Y-92183390D01*
X206857143Y-92183390D02*
X206809524Y-92135771D01*
X206809524Y-92135771D02*
X206761905Y-92040533D01*
X206761905Y-92040533D02*
X206761905Y-91945295D01*
X206761905Y-91945295D02*
X206809524Y-91850057D01*
X206809524Y-91850057D02*
X206857143Y-91802438D01*
X206857143Y-91802438D02*
X206952381Y-91754819D01*
X206952381Y-91754819D02*
X207190476Y-91754819D01*
X207190476Y-91754819D02*
X207333333Y-91802438D01*
X208285714Y-92754819D02*
X207714286Y-92754819D01*
X208000000Y-92754819D02*
X208000000Y-91754819D01*
X208000000Y-91754819D02*
X207904762Y-91897676D01*
X207904762Y-91897676D02*
X207809524Y-91992914D01*
X207809524Y-91992914D02*
X207714286Y-92040533D01*
X209190476Y-91754819D02*
X208714286Y-91754819D01*
X208714286Y-91754819D02*
X208666667Y-92231009D01*
X208666667Y-92231009D02*
X208714286Y-92183390D01*
X208714286Y-92183390D02*
X208809524Y-92135771D01*
X208809524Y-92135771D02*
X209047619Y-92135771D01*
X209047619Y-92135771D02*
X209142857Y-92183390D01*
X209142857Y-92183390D02*
X209190476Y-92231009D01*
X209190476Y-92231009D02*
X209238095Y-92326247D01*
X209238095Y-92326247D02*
X209238095Y-92564342D01*
X209238095Y-92564342D02*
X209190476Y-92659580D01*
X209190476Y-92659580D02*
X209142857Y-92707200D01*
X209142857Y-92707200D02*
X209047619Y-92754819D01*
X209047619Y-92754819D02*
X208809524Y-92754819D01*
X208809524Y-92754819D02*
X208714286Y-92707200D01*
X208714286Y-92707200D02*
X208666667Y-92659580D01*
X211519048Y-96923866D02*
X212280953Y-96923866D01*
X211900000Y-97304819D02*
X211900000Y-96542914D01*
X211619048Y-99623866D02*
X212380953Y-99623866D01*
X202469048Y-99673866D02*
X203230953Y-99673866D01*
X202519048Y-96923866D02*
X203280953Y-96923866D01*
X202900000Y-97304819D02*
X202900000Y-96542914D01*
X202207143Y-98954819D02*
X202207143Y-97954819D01*
X202207143Y-97954819D02*
X202588095Y-97954819D01*
X202588095Y-97954819D02*
X202683333Y-98002438D01*
X202683333Y-98002438D02*
X202730952Y-98050057D01*
X202730952Y-98050057D02*
X202778571Y-98145295D01*
X202778571Y-98145295D02*
X202778571Y-98288152D01*
X202778571Y-98288152D02*
X202730952Y-98383390D01*
X202730952Y-98383390D02*
X202683333Y-98431009D01*
X202683333Y-98431009D02*
X202588095Y-98478628D01*
X202588095Y-98478628D02*
X202207143Y-98478628D01*
X203064286Y-97954819D02*
X203635714Y-97954819D01*
X203350000Y-98954819D02*
X203350000Y-97954819D01*
X211500000Y-99104819D02*
X211500000Y-98104819D01*
X212547618Y-99104819D02*
X212214285Y-98628628D01*
X211976190Y-99104819D02*
X211976190Y-98104819D01*
X211976190Y-98104819D02*
X212357142Y-98104819D01*
X212357142Y-98104819D02*
X212452380Y-98152438D01*
X212452380Y-98152438D02*
X212499999Y-98200057D01*
X212499999Y-98200057D02*
X212547618Y-98295295D01*
X212547618Y-98295295D02*
X212547618Y-98438152D01*
X212547618Y-98438152D02*
X212499999Y-98533390D01*
X212499999Y-98533390D02*
X212452380Y-98581009D01*
X212452380Y-98581009D02*
X212357142Y-98628628D01*
X212357142Y-98628628D02*
X211976190Y-98628628D01*
D11*
X50642580Y-53688095D02*
X49833057Y-53688095D01*
X49833057Y-53688095D02*
X49737819Y-53735714D01*
X49737819Y-53735714D02*
X49690200Y-53783333D01*
X49690200Y-53783333D02*
X49642580Y-53878571D01*
X49642580Y-53878571D02*
X49642580Y-54069047D01*
X49642580Y-54069047D02*
X49690200Y-54164285D01*
X49690200Y-54164285D02*
X49737819Y-54211904D01*
X49737819Y-54211904D02*
X49833057Y-54259523D01*
X49833057Y-54259523D02*
X50642580Y-54259523D01*
X50642580Y-55164285D02*
X50642580Y-54973809D01*
X50642580Y-54973809D02*
X50594961Y-54878571D01*
X50594961Y-54878571D02*
X50547342Y-54830952D01*
X50547342Y-54830952D02*
X50404485Y-54735714D01*
X50404485Y-54735714D02*
X50214009Y-54688095D01*
X50214009Y-54688095D02*
X49833057Y-54688095D01*
X49833057Y-54688095D02*
X49737819Y-54735714D01*
X49737819Y-54735714D02*
X49690200Y-54783333D01*
X49690200Y-54783333D02*
X49642580Y-54878571D01*
X49642580Y-54878571D02*
X49642580Y-55069047D01*
X49642580Y-55069047D02*
X49690200Y-55164285D01*
X49690200Y-55164285D02*
X49737819Y-55211904D01*
X49737819Y-55211904D02*
X49833057Y-55259523D01*
X49833057Y-55259523D02*
X50071152Y-55259523D01*
X50071152Y-55259523D02*
X50166390Y-55211904D01*
X50166390Y-55211904D02*
X50214009Y-55164285D01*
X50214009Y-55164285D02*
X50261628Y-55069047D01*
X50261628Y-55069047D02*
X50261628Y-54878571D01*
X50261628Y-54878571D02*
X50214009Y-54783333D01*
X50214009Y-54783333D02*
X50166390Y-54735714D01*
X50166390Y-54735714D02*
X50071152Y-54688095D01*
D12*
X207761905Y-65707200D02*
X207904762Y-65754819D01*
X207904762Y-65754819D02*
X208142857Y-65754819D01*
X208142857Y-65754819D02*
X208238095Y-65707200D01*
X208238095Y-65707200D02*
X208285714Y-65659580D01*
X208285714Y-65659580D02*
X208333333Y-65564342D01*
X208333333Y-65564342D02*
X208333333Y-65469104D01*
X208333333Y-65469104D02*
X208285714Y-65373866D01*
X208285714Y-65373866D02*
X208238095Y-65326247D01*
X208238095Y-65326247D02*
X208142857Y-65278628D01*
X208142857Y-65278628D02*
X207952381Y-65231009D01*
X207952381Y-65231009D02*
X207857143Y-65183390D01*
X207857143Y-65183390D02*
X207809524Y-65135771D01*
X207809524Y-65135771D02*
X207761905Y-65040533D01*
X207761905Y-65040533D02*
X207761905Y-64945295D01*
X207761905Y-64945295D02*
X207809524Y-64850057D01*
X207809524Y-64850057D02*
X207857143Y-64802438D01*
X207857143Y-64802438D02*
X207952381Y-64754819D01*
X207952381Y-64754819D02*
X208190476Y-64754819D01*
X208190476Y-64754819D02*
X208333333Y-64802438D01*
X209285714Y-65754819D02*
X208714286Y-65754819D01*
X209000000Y-65754819D02*
X209000000Y-64754819D01*
X209000000Y-64754819D02*
X208904762Y-64897676D01*
X208904762Y-64897676D02*
X208809524Y-64992914D01*
X208809524Y-64992914D02*
X208714286Y-65040533D01*
X210238095Y-65754819D02*
X209666667Y-65754819D01*
X209952381Y-65754819D02*
X209952381Y-64754819D01*
X209952381Y-64754819D02*
X209857143Y-64897676D01*
X209857143Y-64897676D02*
X209761905Y-64992914D01*
X209761905Y-64992914D02*
X209666667Y-65040533D01*
X203207143Y-71954819D02*
X203207143Y-70954819D01*
X203207143Y-70954819D02*
X203588095Y-70954819D01*
X203588095Y-70954819D02*
X203683333Y-71002438D01*
X203683333Y-71002438D02*
X203730952Y-71050057D01*
X203730952Y-71050057D02*
X203778571Y-71145295D01*
X203778571Y-71145295D02*
X203778571Y-71288152D01*
X203778571Y-71288152D02*
X203730952Y-71383390D01*
X203730952Y-71383390D02*
X203683333Y-71431009D01*
X203683333Y-71431009D02*
X203588095Y-71478628D01*
X203588095Y-71478628D02*
X203207143Y-71478628D01*
X204064286Y-70954819D02*
X204635714Y-70954819D01*
X204350000Y-71954819D02*
X204350000Y-70954819D01*
X203519048Y-69923866D02*
X204280953Y-69923866D01*
X203900000Y-70304819D02*
X203900000Y-69542914D01*
X212519048Y-69923866D02*
X213280953Y-69923866D01*
X212900000Y-70304819D02*
X212900000Y-69542914D01*
X212500000Y-72104819D02*
X212500000Y-71104819D01*
X213547618Y-72104819D02*
X213214285Y-71628628D01*
X212976190Y-72104819D02*
X212976190Y-71104819D01*
X212976190Y-71104819D02*
X213357142Y-71104819D01*
X213357142Y-71104819D02*
X213452380Y-71152438D01*
X213452380Y-71152438D02*
X213499999Y-71200057D01*
X213499999Y-71200057D02*
X213547618Y-71295295D01*
X213547618Y-71295295D02*
X213547618Y-71438152D01*
X213547618Y-71438152D02*
X213499999Y-71533390D01*
X213499999Y-71533390D02*
X213452380Y-71581009D01*
X213452380Y-71581009D02*
X213357142Y-71628628D01*
X213357142Y-71628628D02*
X212976190Y-71628628D01*
X203469048Y-72673866D02*
X204230953Y-72673866D01*
X212619048Y-72623866D02*
X213380953Y-72623866D01*
X149261905Y-98207200D02*
X149404762Y-98254819D01*
X149404762Y-98254819D02*
X149642857Y-98254819D01*
X149642857Y-98254819D02*
X149738095Y-98207200D01*
X149738095Y-98207200D02*
X149785714Y-98159580D01*
X149785714Y-98159580D02*
X149833333Y-98064342D01*
X149833333Y-98064342D02*
X149833333Y-97969104D01*
X149833333Y-97969104D02*
X149785714Y-97873866D01*
X149785714Y-97873866D02*
X149738095Y-97826247D01*
X149738095Y-97826247D02*
X149642857Y-97778628D01*
X149642857Y-97778628D02*
X149452381Y-97731009D01*
X149452381Y-97731009D02*
X149357143Y-97683390D01*
X149357143Y-97683390D02*
X149309524Y-97635771D01*
X149309524Y-97635771D02*
X149261905Y-97540533D01*
X149261905Y-97540533D02*
X149261905Y-97445295D01*
X149261905Y-97445295D02*
X149309524Y-97350057D01*
X149309524Y-97350057D02*
X149357143Y-97302438D01*
X149357143Y-97302438D02*
X149452381Y-97254819D01*
X149452381Y-97254819D02*
X149690476Y-97254819D01*
X149690476Y-97254819D02*
X149833333Y-97302438D01*
X150785714Y-98254819D02*
X150214286Y-98254819D01*
X150500000Y-98254819D02*
X150500000Y-97254819D01*
X150500000Y-97254819D02*
X150404762Y-97397676D01*
X150404762Y-97397676D02*
X150309524Y-97492914D01*
X150309524Y-97492914D02*
X150214286Y-97540533D01*
X151119048Y-97254819D02*
X151738095Y-97254819D01*
X151738095Y-97254819D02*
X151404762Y-97635771D01*
X151404762Y-97635771D02*
X151547619Y-97635771D01*
X151547619Y-97635771D02*
X151642857Y-97683390D01*
X151642857Y-97683390D02*
X151690476Y-97731009D01*
X151690476Y-97731009D02*
X151738095Y-97826247D01*
X151738095Y-97826247D02*
X151738095Y-98064342D01*
X151738095Y-98064342D02*
X151690476Y-98159580D01*
X151690476Y-98159580D02*
X151642857Y-98207200D01*
X151642857Y-98207200D02*
X151547619Y-98254819D01*
X151547619Y-98254819D02*
X151261905Y-98254819D01*
X151261905Y-98254819D02*
X151166667Y-98207200D01*
X151166667Y-98207200D02*
X151119048Y-98159580D01*
X144969048Y-105173866D02*
X145730953Y-105173866D01*
X144707143Y-104454819D02*
X144707143Y-103454819D01*
X144707143Y-103454819D02*
X145088095Y-103454819D01*
X145088095Y-103454819D02*
X145183333Y-103502438D01*
X145183333Y-103502438D02*
X145230952Y-103550057D01*
X145230952Y-103550057D02*
X145278571Y-103645295D01*
X145278571Y-103645295D02*
X145278571Y-103788152D01*
X145278571Y-103788152D02*
X145230952Y-103883390D01*
X145230952Y-103883390D02*
X145183333Y-103931009D01*
X145183333Y-103931009D02*
X145088095Y-103978628D01*
X145088095Y-103978628D02*
X144707143Y-103978628D01*
X145564286Y-103454819D02*
X146135714Y-103454819D01*
X145850000Y-104454819D02*
X145850000Y-103454819D01*
X154000000Y-104604819D02*
X154000000Y-103604819D01*
X155047618Y-104604819D02*
X154714285Y-104128628D01*
X154476190Y-104604819D02*
X154476190Y-103604819D01*
X154476190Y-103604819D02*
X154857142Y-103604819D01*
X154857142Y-103604819D02*
X154952380Y-103652438D01*
X154952380Y-103652438D02*
X154999999Y-103700057D01*
X154999999Y-103700057D02*
X155047618Y-103795295D01*
X155047618Y-103795295D02*
X155047618Y-103938152D01*
X155047618Y-103938152D02*
X154999999Y-104033390D01*
X154999999Y-104033390D02*
X154952380Y-104081009D01*
X154952380Y-104081009D02*
X154857142Y-104128628D01*
X154857142Y-104128628D02*
X154476190Y-104128628D01*
X154019048Y-102423866D02*
X154780953Y-102423866D01*
X154400000Y-102804819D02*
X154400000Y-102042914D01*
X145019048Y-102423866D02*
X145780953Y-102423866D01*
X145400000Y-102804819D02*
X145400000Y-102042914D01*
X154119048Y-105123866D02*
X154880953Y-105123866D01*
X134918095Y-37740819D02*
X134918095Y-38550342D01*
X134918095Y-38550342D02*
X134965714Y-38645580D01*
X134965714Y-38645580D02*
X135013333Y-38693200D01*
X135013333Y-38693200D02*
X135108571Y-38740819D01*
X135108571Y-38740819D02*
X135299047Y-38740819D01*
X135299047Y-38740819D02*
X135394285Y-38693200D01*
X135394285Y-38693200D02*
X135441904Y-38645580D01*
X135441904Y-38645580D02*
X135489523Y-38550342D01*
X135489523Y-38550342D02*
X135489523Y-37740819D01*
X136441904Y-37740819D02*
X135965714Y-37740819D01*
X135965714Y-37740819D02*
X135918095Y-38217009D01*
X135918095Y-38217009D02*
X135965714Y-38169390D01*
X135965714Y-38169390D02*
X136060952Y-38121771D01*
X136060952Y-38121771D02*
X136299047Y-38121771D01*
X136299047Y-38121771D02*
X136394285Y-38169390D01*
X136394285Y-38169390D02*
X136441904Y-38217009D01*
X136441904Y-38217009D02*
X136489523Y-38312247D01*
X136489523Y-38312247D02*
X136489523Y-38550342D01*
X136489523Y-38550342D02*
X136441904Y-38645580D01*
X136441904Y-38645580D02*
X136394285Y-38693200D01*
X136394285Y-38693200D02*
X136299047Y-38740819D01*
X136299047Y-38740819D02*
X136060952Y-38740819D01*
X136060952Y-38740819D02*
X135965714Y-38693200D01*
X135965714Y-38693200D02*
X135918095Y-38645580D01*
X235561905Y-65657200D02*
X235704762Y-65704819D01*
X235704762Y-65704819D02*
X235942857Y-65704819D01*
X235942857Y-65704819D02*
X236038095Y-65657200D01*
X236038095Y-65657200D02*
X236085714Y-65609580D01*
X236085714Y-65609580D02*
X236133333Y-65514342D01*
X236133333Y-65514342D02*
X236133333Y-65419104D01*
X236133333Y-65419104D02*
X236085714Y-65323866D01*
X236085714Y-65323866D02*
X236038095Y-65276247D01*
X236038095Y-65276247D02*
X235942857Y-65228628D01*
X235942857Y-65228628D02*
X235752381Y-65181009D01*
X235752381Y-65181009D02*
X235657143Y-65133390D01*
X235657143Y-65133390D02*
X235609524Y-65085771D01*
X235609524Y-65085771D02*
X235561905Y-64990533D01*
X235561905Y-64990533D02*
X235561905Y-64895295D01*
X235561905Y-64895295D02*
X235609524Y-64800057D01*
X235609524Y-64800057D02*
X235657143Y-64752438D01*
X235657143Y-64752438D02*
X235752381Y-64704819D01*
X235752381Y-64704819D02*
X235990476Y-64704819D01*
X235990476Y-64704819D02*
X236133333Y-64752438D01*
X237085714Y-65704819D02*
X236514286Y-65704819D01*
X236800000Y-65704819D02*
X236800000Y-64704819D01*
X236800000Y-64704819D02*
X236704762Y-64847676D01*
X236704762Y-64847676D02*
X236609524Y-64942914D01*
X236609524Y-64942914D02*
X236514286Y-64990533D01*
X237466667Y-64800057D02*
X237514286Y-64752438D01*
X237514286Y-64752438D02*
X237609524Y-64704819D01*
X237609524Y-64704819D02*
X237847619Y-64704819D01*
X237847619Y-64704819D02*
X237942857Y-64752438D01*
X237942857Y-64752438D02*
X237990476Y-64800057D01*
X237990476Y-64800057D02*
X238038095Y-64895295D01*
X238038095Y-64895295D02*
X238038095Y-64990533D01*
X238038095Y-64990533D02*
X237990476Y-65133390D01*
X237990476Y-65133390D02*
X237419048Y-65704819D01*
X237419048Y-65704819D02*
X238038095Y-65704819D01*
X239800000Y-72254819D02*
X239800000Y-71254819D01*
X240847618Y-72254819D02*
X240514285Y-71778628D01*
X240276190Y-72254819D02*
X240276190Y-71254819D01*
X240276190Y-71254819D02*
X240657142Y-71254819D01*
X240657142Y-71254819D02*
X240752380Y-71302438D01*
X240752380Y-71302438D02*
X240799999Y-71350057D01*
X240799999Y-71350057D02*
X240847618Y-71445295D01*
X240847618Y-71445295D02*
X240847618Y-71588152D01*
X240847618Y-71588152D02*
X240799999Y-71683390D01*
X240799999Y-71683390D02*
X240752380Y-71731009D01*
X240752380Y-71731009D02*
X240657142Y-71778628D01*
X240657142Y-71778628D02*
X240276190Y-71778628D01*
X231007143Y-71904819D02*
X231007143Y-70904819D01*
X231007143Y-70904819D02*
X231388095Y-70904819D01*
X231388095Y-70904819D02*
X231483333Y-70952438D01*
X231483333Y-70952438D02*
X231530952Y-71000057D01*
X231530952Y-71000057D02*
X231578571Y-71095295D01*
X231578571Y-71095295D02*
X231578571Y-71238152D01*
X231578571Y-71238152D02*
X231530952Y-71333390D01*
X231530952Y-71333390D02*
X231483333Y-71381009D01*
X231483333Y-71381009D02*
X231388095Y-71428628D01*
X231388095Y-71428628D02*
X231007143Y-71428628D01*
X231864286Y-70904819D02*
X232435714Y-70904819D01*
X232150000Y-71904819D02*
X232150000Y-70904819D01*
X239819048Y-69973866D02*
X240580953Y-69973866D01*
X240200000Y-70354819D02*
X240200000Y-69592914D01*
X240019048Y-72973866D02*
X240780953Y-72973866D01*
X231269048Y-72623866D02*
X232030953Y-72623866D01*
X231319048Y-69873866D02*
X232080953Y-69873866D01*
X231700000Y-70254819D02*
X231700000Y-69492914D01*
X105338095Y-40357200D02*
X105480952Y-40404819D01*
X105480952Y-40404819D02*
X105719047Y-40404819D01*
X105719047Y-40404819D02*
X105814285Y-40357200D01*
X105814285Y-40357200D02*
X105861904Y-40309580D01*
X105861904Y-40309580D02*
X105909523Y-40214342D01*
X105909523Y-40214342D02*
X105909523Y-40119104D01*
X105909523Y-40119104D02*
X105861904Y-40023866D01*
X105861904Y-40023866D02*
X105814285Y-39976247D01*
X105814285Y-39976247D02*
X105719047Y-39928628D01*
X105719047Y-39928628D02*
X105528571Y-39881009D01*
X105528571Y-39881009D02*
X105433333Y-39833390D01*
X105433333Y-39833390D02*
X105385714Y-39785771D01*
X105385714Y-39785771D02*
X105338095Y-39690533D01*
X105338095Y-39690533D02*
X105338095Y-39595295D01*
X105338095Y-39595295D02*
X105385714Y-39500057D01*
X105385714Y-39500057D02*
X105433333Y-39452438D01*
X105433333Y-39452438D02*
X105528571Y-39404819D01*
X105528571Y-39404819D02*
X105766666Y-39404819D01*
X105766666Y-39404819D02*
X105909523Y-39452438D01*
X106290476Y-39500057D02*
X106338095Y-39452438D01*
X106338095Y-39452438D02*
X106433333Y-39404819D01*
X106433333Y-39404819D02*
X106671428Y-39404819D01*
X106671428Y-39404819D02*
X106766666Y-39452438D01*
X106766666Y-39452438D02*
X106814285Y-39500057D01*
X106814285Y-39500057D02*
X106861904Y-39595295D01*
X106861904Y-39595295D02*
X106861904Y-39690533D01*
X106861904Y-39690533D02*
X106814285Y-39833390D01*
X106814285Y-39833390D02*
X106242857Y-40404819D01*
X106242857Y-40404819D02*
X106861904Y-40404819D01*
X109619048Y-44573866D02*
X110380953Y-44573866D01*
X110000000Y-44954819D02*
X110000000Y-44192914D01*
X109719048Y-47273866D02*
X110480953Y-47273866D01*
X100569048Y-47323866D02*
X101330953Y-47323866D01*
X100619048Y-44573866D02*
X101380953Y-44573866D01*
X101000000Y-44954819D02*
X101000000Y-44192914D01*
X109600000Y-46754819D02*
X109600000Y-45754819D01*
X110647618Y-46754819D02*
X110314285Y-46278628D01*
X110076190Y-46754819D02*
X110076190Y-45754819D01*
X110076190Y-45754819D02*
X110457142Y-45754819D01*
X110457142Y-45754819D02*
X110552380Y-45802438D01*
X110552380Y-45802438D02*
X110599999Y-45850057D01*
X110599999Y-45850057D02*
X110647618Y-45945295D01*
X110647618Y-45945295D02*
X110647618Y-46088152D01*
X110647618Y-46088152D02*
X110599999Y-46183390D01*
X110599999Y-46183390D02*
X110552380Y-46231009D01*
X110552380Y-46231009D02*
X110457142Y-46278628D01*
X110457142Y-46278628D02*
X110076190Y-46278628D01*
X100307143Y-46604819D02*
X100307143Y-45604819D01*
X100307143Y-45604819D02*
X100688095Y-45604819D01*
X100688095Y-45604819D02*
X100783333Y-45652438D01*
X100783333Y-45652438D02*
X100830952Y-45700057D01*
X100830952Y-45700057D02*
X100878571Y-45795295D01*
X100878571Y-45795295D02*
X100878571Y-45938152D01*
X100878571Y-45938152D02*
X100830952Y-46033390D01*
X100830952Y-46033390D02*
X100783333Y-46081009D01*
X100783333Y-46081009D02*
X100688095Y-46128628D01*
X100688095Y-46128628D02*
X100307143Y-46128628D01*
X101164286Y-45604819D02*
X101735714Y-45604819D01*
X101450000Y-46604819D02*
X101450000Y-45604819D01*
X153738095Y-70107200D02*
X153880952Y-70154819D01*
X153880952Y-70154819D02*
X154119047Y-70154819D01*
X154119047Y-70154819D02*
X154214285Y-70107200D01*
X154214285Y-70107200D02*
X154261904Y-70059580D01*
X154261904Y-70059580D02*
X154309523Y-69964342D01*
X154309523Y-69964342D02*
X154309523Y-69869104D01*
X154309523Y-69869104D02*
X154261904Y-69773866D01*
X154261904Y-69773866D02*
X154214285Y-69726247D01*
X154214285Y-69726247D02*
X154119047Y-69678628D01*
X154119047Y-69678628D02*
X153928571Y-69631009D01*
X153928571Y-69631009D02*
X153833333Y-69583390D01*
X153833333Y-69583390D02*
X153785714Y-69535771D01*
X153785714Y-69535771D02*
X153738095Y-69440533D01*
X153738095Y-69440533D02*
X153738095Y-69345295D01*
X153738095Y-69345295D02*
X153785714Y-69250057D01*
X153785714Y-69250057D02*
X153833333Y-69202438D01*
X153833333Y-69202438D02*
X153928571Y-69154819D01*
X153928571Y-69154819D02*
X154166666Y-69154819D01*
X154166666Y-69154819D02*
X154309523Y-69202438D01*
X154785714Y-70154819D02*
X154976190Y-70154819D01*
X154976190Y-70154819D02*
X155071428Y-70107200D01*
X155071428Y-70107200D02*
X155119047Y-70059580D01*
X155119047Y-70059580D02*
X155214285Y-69916723D01*
X155214285Y-69916723D02*
X155261904Y-69726247D01*
X155261904Y-69726247D02*
X155261904Y-69345295D01*
X155261904Y-69345295D02*
X155214285Y-69250057D01*
X155214285Y-69250057D02*
X155166666Y-69202438D01*
X155166666Y-69202438D02*
X155071428Y-69154819D01*
X155071428Y-69154819D02*
X154880952Y-69154819D01*
X154880952Y-69154819D02*
X154785714Y-69202438D01*
X154785714Y-69202438D02*
X154738095Y-69250057D01*
X154738095Y-69250057D02*
X154690476Y-69345295D01*
X154690476Y-69345295D02*
X154690476Y-69583390D01*
X154690476Y-69583390D02*
X154738095Y-69678628D01*
X154738095Y-69678628D02*
X154785714Y-69726247D01*
X154785714Y-69726247D02*
X154880952Y-69773866D01*
X154880952Y-69773866D02*
X155071428Y-69773866D01*
X155071428Y-69773866D02*
X155166666Y-69726247D01*
X155166666Y-69726247D02*
X155214285Y-69678628D01*
X155214285Y-69678628D02*
X155261904Y-69583390D01*
X149019048Y-74323866D02*
X149780953Y-74323866D01*
X149400000Y-74704819D02*
X149400000Y-73942914D01*
X148969048Y-77073866D02*
X149730953Y-77073866D01*
X148707143Y-76354819D02*
X148707143Y-75354819D01*
X148707143Y-75354819D02*
X149088095Y-75354819D01*
X149088095Y-75354819D02*
X149183333Y-75402438D01*
X149183333Y-75402438D02*
X149230952Y-75450057D01*
X149230952Y-75450057D02*
X149278571Y-75545295D01*
X149278571Y-75545295D02*
X149278571Y-75688152D01*
X149278571Y-75688152D02*
X149230952Y-75783390D01*
X149230952Y-75783390D02*
X149183333Y-75831009D01*
X149183333Y-75831009D02*
X149088095Y-75878628D01*
X149088095Y-75878628D02*
X148707143Y-75878628D01*
X149564286Y-75354819D02*
X150135714Y-75354819D01*
X149850000Y-76354819D02*
X149850000Y-75354819D01*
X158019048Y-74323866D02*
X158780953Y-74323866D01*
X158400000Y-74704819D02*
X158400000Y-73942914D01*
X158119048Y-77023866D02*
X158880953Y-77023866D01*
X158000000Y-76504819D02*
X158000000Y-75504819D01*
X159047618Y-76504819D02*
X158714285Y-76028628D01*
X158476190Y-76504819D02*
X158476190Y-75504819D01*
X158476190Y-75504819D02*
X158857142Y-75504819D01*
X158857142Y-75504819D02*
X158952380Y-75552438D01*
X158952380Y-75552438D02*
X158999999Y-75600057D01*
X158999999Y-75600057D02*
X159047618Y-75695295D01*
X159047618Y-75695295D02*
X159047618Y-75838152D01*
X159047618Y-75838152D02*
X158999999Y-75933390D01*
X158999999Y-75933390D02*
X158952380Y-75981009D01*
X158952380Y-75981009D02*
X158857142Y-76028628D01*
X158857142Y-76028628D02*
X158476190Y-76028628D01*
X163638095Y-40157200D02*
X163780952Y-40204819D01*
X163780952Y-40204819D02*
X164019047Y-40204819D01*
X164019047Y-40204819D02*
X164114285Y-40157200D01*
X164114285Y-40157200D02*
X164161904Y-40109580D01*
X164161904Y-40109580D02*
X164209523Y-40014342D01*
X164209523Y-40014342D02*
X164209523Y-39919104D01*
X164209523Y-39919104D02*
X164161904Y-39823866D01*
X164161904Y-39823866D02*
X164114285Y-39776247D01*
X164114285Y-39776247D02*
X164019047Y-39728628D01*
X164019047Y-39728628D02*
X163828571Y-39681009D01*
X163828571Y-39681009D02*
X163733333Y-39633390D01*
X163733333Y-39633390D02*
X163685714Y-39585771D01*
X163685714Y-39585771D02*
X163638095Y-39490533D01*
X163638095Y-39490533D02*
X163638095Y-39395295D01*
X163638095Y-39395295D02*
X163685714Y-39300057D01*
X163685714Y-39300057D02*
X163733333Y-39252438D01*
X163733333Y-39252438D02*
X163828571Y-39204819D01*
X163828571Y-39204819D02*
X164066666Y-39204819D01*
X164066666Y-39204819D02*
X164209523Y-39252438D01*
X165161904Y-40204819D02*
X164590476Y-40204819D01*
X164876190Y-40204819D02*
X164876190Y-39204819D01*
X164876190Y-39204819D02*
X164780952Y-39347676D01*
X164780952Y-39347676D02*
X164685714Y-39442914D01*
X164685714Y-39442914D02*
X164590476Y-39490533D01*
X158869048Y-47123866D02*
X159630953Y-47123866D01*
X167900000Y-46554819D02*
X167900000Y-45554819D01*
X168947618Y-46554819D02*
X168614285Y-46078628D01*
X168376190Y-46554819D02*
X168376190Y-45554819D01*
X168376190Y-45554819D02*
X168757142Y-45554819D01*
X168757142Y-45554819D02*
X168852380Y-45602438D01*
X168852380Y-45602438D02*
X168899999Y-45650057D01*
X168899999Y-45650057D02*
X168947618Y-45745295D01*
X168947618Y-45745295D02*
X168947618Y-45888152D01*
X168947618Y-45888152D02*
X168899999Y-45983390D01*
X168899999Y-45983390D02*
X168852380Y-46031009D01*
X168852380Y-46031009D02*
X168757142Y-46078628D01*
X168757142Y-46078628D02*
X168376190Y-46078628D01*
X158919048Y-44373866D02*
X159680953Y-44373866D01*
X159300000Y-44754819D02*
X159300000Y-43992914D01*
X168019048Y-47073866D02*
X168780953Y-47073866D01*
X158607143Y-46404819D02*
X158607143Y-45404819D01*
X158607143Y-45404819D02*
X158988095Y-45404819D01*
X158988095Y-45404819D02*
X159083333Y-45452438D01*
X159083333Y-45452438D02*
X159130952Y-45500057D01*
X159130952Y-45500057D02*
X159178571Y-45595295D01*
X159178571Y-45595295D02*
X159178571Y-45738152D01*
X159178571Y-45738152D02*
X159130952Y-45833390D01*
X159130952Y-45833390D02*
X159083333Y-45881009D01*
X159083333Y-45881009D02*
X158988095Y-45928628D01*
X158988095Y-45928628D02*
X158607143Y-45928628D01*
X159464286Y-45404819D02*
X160035714Y-45404819D01*
X159750000Y-46404819D02*
X159750000Y-45404819D01*
X167919048Y-44373866D02*
X168680953Y-44373866D01*
X168300000Y-44754819D02*
X168300000Y-43992914D01*
X71638095Y-70157200D02*
X71780952Y-70204819D01*
X71780952Y-70204819D02*
X72019047Y-70204819D01*
X72019047Y-70204819D02*
X72114285Y-70157200D01*
X72114285Y-70157200D02*
X72161904Y-70109580D01*
X72161904Y-70109580D02*
X72209523Y-70014342D01*
X72209523Y-70014342D02*
X72209523Y-69919104D01*
X72209523Y-69919104D02*
X72161904Y-69823866D01*
X72161904Y-69823866D02*
X72114285Y-69776247D01*
X72114285Y-69776247D02*
X72019047Y-69728628D01*
X72019047Y-69728628D02*
X71828571Y-69681009D01*
X71828571Y-69681009D02*
X71733333Y-69633390D01*
X71733333Y-69633390D02*
X71685714Y-69585771D01*
X71685714Y-69585771D02*
X71638095Y-69490533D01*
X71638095Y-69490533D02*
X71638095Y-69395295D01*
X71638095Y-69395295D02*
X71685714Y-69300057D01*
X71685714Y-69300057D02*
X71733333Y-69252438D01*
X71733333Y-69252438D02*
X71828571Y-69204819D01*
X71828571Y-69204819D02*
X72066666Y-69204819D01*
X72066666Y-69204819D02*
X72209523Y-69252438D01*
X72780952Y-69633390D02*
X72685714Y-69585771D01*
X72685714Y-69585771D02*
X72638095Y-69538152D01*
X72638095Y-69538152D02*
X72590476Y-69442914D01*
X72590476Y-69442914D02*
X72590476Y-69395295D01*
X72590476Y-69395295D02*
X72638095Y-69300057D01*
X72638095Y-69300057D02*
X72685714Y-69252438D01*
X72685714Y-69252438D02*
X72780952Y-69204819D01*
X72780952Y-69204819D02*
X72971428Y-69204819D01*
X72971428Y-69204819D02*
X73066666Y-69252438D01*
X73066666Y-69252438D02*
X73114285Y-69300057D01*
X73114285Y-69300057D02*
X73161904Y-69395295D01*
X73161904Y-69395295D02*
X73161904Y-69442914D01*
X73161904Y-69442914D02*
X73114285Y-69538152D01*
X73114285Y-69538152D02*
X73066666Y-69585771D01*
X73066666Y-69585771D02*
X72971428Y-69633390D01*
X72971428Y-69633390D02*
X72780952Y-69633390D01*
X72780952Y-69633390D02*
X72685714Y-69681009D01*
X72685714Y-69681009D02*
X72638095Y-69728628D01*
X72638095Y-69728628D02*
X72590476Y-69823866D01*
X72590476Y-69823866D02*
X72590476Y-70014342D01*
X72590476Y-70014342D02*
X72638095Y-70109580D01*
X72638095Y-70109580D02*
X72685714Y-70157200D01*
X72685714Y-70157200D02*
X72780952Y-70204819D01*
X72780952Y-70204819D02*
X72971428Y-70204819D01*
X72971428Y-70204819D02*
X73066666Y-70157200D01*
X73066666Y-70157200D02*
X73114285Y-70109580D01*
X73114285Y-70109580D02*
X73161904Y-70014342D01*
X73161904Y-70014342D02*
X73161904Y-69823866D01*
X73161904Y-69823866D02*
X73114285Y-69728628D01*
X73114285Y-69728628D02*
X73066666Y-69681009D01*
X73066666Y-69681009D02*
X72971428Y-69633390D01*
X66607143Y-76404819D02*
X66607143Y-75404819D01*
X66607143Y-75404819D02*
X66988095Y-75404819D01*
X66988095Y-75404819D02*
X67083333Y-75452438D01*
X67083333Y-75452438D02*
X67130952Y-75500057D01*
X67130952Y-75500057D02*
X67178571Y-75595295D01*
X67178571Y-75595295D02*
X67178571Y-75738152D01*
X67178571Y-75738152D02*
X67130952Y-75833390D01*
X67130952Y-75833390D02*
X67083333Y-75881009D01*
X67083333Y-75881009D02*
X66988095Y-75928628D01*
X66988095Y-75928628D02*
X66607143Y-75928628D01*
X67464286Y-75404819D02*
X68035714Y-75404819D01*
X67750000Y-76404819D02*
X67750000Y-75404819D01*
X66919048Y-74373866D02*
X67680953Y-74373866D01*
X67300000Y-74754819D02*
X67300000Y-73992914D01*
X75919048Y-74373866D02*
X76680953Y-74373866D01*
X76300000Y-74754819D02*
X76300000Y-73992914D01*
X75900000Y-76554819D02*
X75900000Y-75554819D01*
X76947618Y-76554819D02*
X76614285Y-76078628D01*
X76376190Y-76554819D02*
X76376190Y-75554819D01*
X76376190Y-75554819D02*
X76757142Y-75554819D01*
X76757142Y-75554819D02*
X76852380Y-75602438D01*
X76852380Y-75602438D02*
X76899999Y-75650057D01*
X76899999Y-75650057D02*
X76947618Y-75745295D01*
X76947618Y-75745295D02*
X76947618Y-75888152D01*
X76947618Y-75888152D02*
X76899999Y-75983390D01*
X76899999Y-75983390D02*
X76852380Y-76031009D01*
X76852380Y-76031009D02*
X76757142Y-76078628D01*
X76757142Y-76078628D02*
X76376190Y-76078628D01*
X66869048Y-77123866D02*
X67630953Y-77123866D01*
X76019048Y-77073866D02*
X76780953Y-77073866D01*
X126638095Y-78657200D02*
X126780952Y-78704819D01*
X126780952Y-78704819D02*
X127019047Y-78704819D01*
X127019047Y-78704819D02*
X127114285Y-78657200D01*
X127114285Y-78657200D02*
X127161904Y-78609580D01*
X127161904Y-78609580D02*
X127209523Y-78514342D01*
X127209523Y-78514342D02*
X127209523Y-78419104D01*
X127209523Y-78419104D02*
X127161904Y-78323866D01*
X127161904Y-78323866D02*
X127114285Y-78276247D01*
X127114285Y-78276247D02*
X127019047Y-78228628D01*
X127019047Y-78228628D02*
X126828571Y-78181009D01*
X126828571Y-78181009D02*
X126733333Y-78133390D01*
X126733333Y-78133390D02*
X126685714Y-78085771D01*
X126685714Y-78085771D02*
X126638095Y-77990533D01*
X126638095Y-77990533D02*
X126638095Y-77895295D01*
X126638095Y-77895295D02*
X126685714Y-77800057D01*
X126685714Y-77800057D02*
X126733333Y-77752438D01*
X126733333Y-77752438D02*
X126828571Y-77704819D01*
X126828571Y-77704819D02*
X127066666Y-77704819D01*
X127066666Y-77704819D02*
X127209523Y-77752438D01*
X127542857Y-77704819D02*
X128209523Y-77704819D01*
X128209523Y-77704819D02*
X127780952Y-78704819D01*
X121607143Y-84904819D02*
X121607143Y-83904819D01*
X121607143Y-83904819D02*
X121988095Y-83904819D01*
X121988095Y-83904819D02*
X122083333Y-83952438D01*
X122083333Y-83952438D02*
X122130952Y-84000057D01*
X122130952Y-84000057D02*
X122178571Y-84095295D01*
X122178571Y-84095295D02*
X122178571Y-84238152D01*
X122178571Y-84238152D02*
X122130952Y-84333390D01*
X122130952Y-84333390D02*
X122083333Y-84381009D01*
X122083333Y-84381009D02*
X121988095Y-84428628D01*
X121988095Y-84428628D02*
X121607143Y-84428628D01*
X122464286Y-83904819D02*
X123035714Y-83904819D01*
X122750000Y-84904819D02*
X122750000Y-83904819D01*
X131019048Y-85573866D02*
X131780953Y-85573866D01*
X130900000Y-85054819D02*
X130900000Y-84054819D01*
X131947618Y-85054819D02*
X131614285Y-84578628D01*
X131376190Y-85054819D02*
X131376190Y-84054819D01*
X131376190Y-84054819D02*
X131757142Y-84054819D01*
X131757142Y-84054819D02*
X131852380Y-84102438D01*
X131852380Y-84102438D02*
X131899999Y-84150057D01*
X131899999Y-84150057D02*
X131947618Y-84245295D01*
X131947618Y-84245295D02*
X131947618Y-84388152D01*
X131947618Y-84388152D02*
X131899999Y-84483390D01*
X131899999Y-84483390D02*
X131852380Y-84531009D01*
X131852380Y-84531009D02*
X131757142Y-84578628D01*
X131757142Y-84578628D02*
X131376190Y-84578628D01*
X121919048Y-82873866D02*
X122680953Y-82873866D01*
X122300000Y-83254819D02*
X122300000Y-82492914D01*
X130919048Y-82873866D02*
X131680953Y-82873866D01*
X131300000Y-83254819D02*
X131300000Y-82492914D01*
X121869048Y-85623866D02*
X122630953Y-85623866D01*
X138738095Y-128707200D02*
X138880952Y-128754819D01*
X138880952Y-128754819D02*
X139119047Y-128754819D01*
X139119047Y-128754819D02*
X139214285Y-128707200D01*
X139214285Y-128707200D02*
X139261904Y-128659580D01*
X139261904Y-128659580D02*
X139309523Y-128564342D01*
X139309523Y-128564342D02*
X139309523Y-128469104D01*
X139309523Y-128469104D02*
X139261904Y-128373866D01*
X139261904Y-128373866D02*
X139214285Y-128326247D01*
X139214285Y-128326247D02*
X139119047Y-128278628D01*
X139119047Y-128278628D02*
X138928571Y-128231009D01*
X138928571Y-128231009D02*
X138833333Y-128183390D01*
X138833333Y-128183390D02*
X138785714Y-128135771D01*
X138785714Y-128135771D02*
X138738095Y-128040533D01*
X138738095Y-128040533D02*
X138738095Y-127945295D01*
X138738095Y-127945295D02*
X138785714Y-127850057D01*
X138785714Y-127850057D02*
X138833333Y-127802438D01*
X138833333Y-127802438D02*
X138928571Y-127754819D01*
X138928571Y-127754819D02*
X139166666Y-127754819D01*
X139166666Y-127754819D02*
X139309523Y-127802438D01*
X140214285Y-127754819D02*
X139738095Y-127754819D01*
X139738095Y-127754819D02*
X139690476Y-128231009D01*
X139690476Y-128231009D02*
X139738095Y-128183390D01*
X139738095Y-128183390D02*
X139833333Y-128135771D01*
X139833333Y-128135771D02*
X140071428Y-128135771D01*
X140071428Y-128135771D02*
X140166666Y-128183390D01*
X140166666Y-128183390D02*
X140214285Y-128231009D01*
X140214285Y-128231009D02*
X140261904Y-128326247D01*
X140261904Y-128326247D02*
X140261904Y-128564342D01*
X140261904Y-128564342D02*
X140214285Y-128659580D01*
X140214285Y-128659580D02*
X140166666Y-128707200D01*
X140166666Y-128707200D02*
X140071428Y-128754819D01*
X140071428Y-128754819D02*
X139833333Y-128754819D01*
X139833333Y-128754819D02*
X139738095Y-128707200D01*
X139738095Y-128707200D02*
X139690476Y-128659580D01*
X133707143Y-134954819D02*
X133707143Y-133954819D01*
X133707143Y-133954819D02*
X134088095Y-133954819D01*
X134088095Y-133954819D02*
X134183333Y-134002438D01*
X134183333Y-134002438D02*
X134230952Y-134050057D01*
X134230952Y-134050057D02*
X134278571Y-134145295D01*
X134278571Y-134145295D02*
X134278571Y-134288152D01*
X134278571Y-134288152D02*
X134230952Y-134383390D01*
X134230952Y-134383390D02*
X134183333Y-134431009D01*
X134183333Y-134431009D02*
X134088095Y-134478628D01*
X134088095Y-134478628D02*
X133707143Y-134478628D01*
X134564286Y-133954819D02*
X135135714Y-133954819D01*
X134850000Y-134954819D02*
X134850000Y-133954819D01*
X143119048Y-135623866D02*
X143880953Y-135623866D01*
X143019048Y-132923866D02*
X143780953Y-132923866D01*
X143400000Y-133304819D02*
X143400000Y-132542914D01*
X134019048Y-132923866D02*
X134780953Y-132923866D01*
X134400000Y-133304819D02*
X134400000Y-132542914D01*
X133969048Y-135673866D02*
X134730953Y-135673866D01*
X143000000Y-135104819D02*
X143000000Y-134104819D01*
X144047618Y-135104819D02*
X143714285Y-134628628D01*
X143476190Y-135104819D02*
X143476190Y-134104819D01*
X143476190Y-134104819D02*
X143857142Y-134104819D01*
X143857142Y-134104819D02*
X143952380Y-134152438D01*
X143952380Y-134152438D02*
X143999999Y-134200057D01*
X143999999Y-134200057D02*
X144047618Y-134295295D01*
X144047618Y-134295295D02*
X144047618Y-134438152D01*
X144047618Y-134438152D02*
X143999999Y-134533390D01*
X143999999Y-134533390D02*
X143952380Y-134581009D01*
X143952380Y-134581009D02*
X143857142Y-134628628D01*
X143857142Y-134628628D02*
X143476190Y-134628628D01*
D11*
X59957419Y-34761904D02*
X60766942Y-34761904D01*
X60766942Y-34761904D02*
X60862180Y-34714285D01*
X60862180Y-34714285D02*
X60909800Y-34666666D01*
X60909800Y-34666666D02*
X60957419Y-34571428D01*
X60957419Y-34571428D02*
X60957419Y-34380952D01*
X60957419Y-34380952D02*
X60909800Y-34285714D01*
X60909800Y-34285714D02*
X60862180Y-34238095D01*
X60862180Y-34238095D02*
X60766942Y-34190476D01*
X60766942Y-34190476D02*
X59957419Y-34190476D01*
X60957419Y-33190476D02*
X60957419Y-33761904D01*
X60957419Y-33476190D02*
X59957419Y-33476190D01*
X59957419Y-33476190D02*
X60100276Y-33571428D01*
X60100276Y-33571428D02*
X60195514Y-33666666D01*
X60195514Y-33666666D02*
X60243133Y-33761904D01*
D12*
X178161905Y-92957200D02*
X178304762Y-93004819D01*
X178304762Y-93004819D02*
X178542857Y-93004819D01*
X178542857Y-93004819D02*
X178638095Y-92957200D01*
X178638095Y-92957200D02*
X178685714Y-92909580D01*
X178685714Y-92909580D02*
X178733333Y-92814342D01*
X178733333Y-92814342D02*
X178733333Y-92719104D01*
X178733333Y-92719104D02*
X178685714Y-92623866D01*
X178685714Y-92623866D02*
X178638095Y-92576247D01*
X178638095Y-92576247D02*
X178542857Y-92528628D01*
X178542857Y-92528628D02*
X178352381Y-92481009D01*
X178352381Y-92481009D02*
X178257143Y-92433390D01*
X178257143Y-92433390D02*
X178209524Y-92385771D01*
X178209524Y-92385771D02*
X178161905Y-92290533D01*
X178161905Y-92290533D02*
X178161905Y-92195295D01*
X178161905Y-92195295D02*
X178209524Y-92100057D01*
X178209524Y-92100057D02*
X178257143Y-92052438D01*
X178257143Y-92052438D02*
X178352381Y-92004819D01*
X178352381Y-92004819D02*
X178590476Y-92004819D01*
X178590476Y-92004819D02*
X178733333Y-92052438D01*
X179685714Y-93004819D02*
X179114286Y-93004819D01*
X179400000Y-93004819D02*
X179400000Y-92004819D01*
X179400000Y-92004819D02*
X179304762Y-92147676D01*
X179304762Y-92147676D02*
X179209524Y-92242914D01*
X179209524Y-92242914D02*
X179114286Y-92290533D01*
X180542857Y-92338152D02*
X180542857Y-93004819D01*
X180304762Y-91957200D02*
X180066667Y-92671485D01*
X180066667Y-92671485D02*
X180685714Y-92671485D01*
X173919048Y-97173866D02*
X174680953Y-97173866D01*
X174300000Y-97554819D02*
X174300000Y-96792914D01*
X183019048Y-99873866D02*
X183780953Y-99873866D01*
X182919048Y-97173866D02*
X183680953Y-97173866D01*
X183300000Y-97554819D02*
X183300000Y-96792914D01*
X182900000Y-99354819D02*
X182900000Y-98354819D01*
X183947618Y-99354819D02*
X183614285Y-98878628D01*
X183376190Y-99354819D02*
X183376190Y-98354819D01*
X183376190Y-98354819D02*
X183757142Y-98354819D01*
X183757142Y-98354819D02*
X183852380Y-98402438D01*
X183852380Y-98402438D02*
X183899999Y-98450057D01*
X183899999Y-98450057D02*
X183947618Y-98545295D01*
X183947618Y-98545295D02*
X183947618Y-98688152D01*
X183947618Y-98688152D02*
X183899999Y-98783390D01*
X183899999Y-98783390D02*
X183852380Y-98831009D01*
X183852380Y-98831009D02*
X183757142Y-98878628D01*
X183757142Y-98878628D02*
X183376190Y-98878628D01*
X173869048Y-99923866D02*
X174630953Y-99923866D01*
X173607143Y-99204819D02*
X173607143Y-98204819D01*
X173607143Y-98204819D02*
X173988095Y-98204819D01*
X173988095Y-98204819D02*
X174083333Y-98252438D01*
X174083333Y-98252438D02*
X174130952Y-98300057D01*
X174130952Y-98300057D02*
X174178571Y-98395295D01*
X174178571Y-98395295D02*
X174178571Y-98538152D01*
X174178571Y-98538152D02*
X174130952Y-98633390D01*
X174130952Y-98633390D02*
X174083333Y-98681009D01*
X174083333Y-98681009D02*
X173988095Y-98728628D01*
X173988095Y-98728628D02*
X173607143Y-98728628D01*
X174464286Y-98204819D02*
X175035714Y-98204819D01*
X174750000Y-99204819D02*
X174750000Y-98204819D01*
X99638095Y-67657200D02*
X99780952Y-67704819D01*
X99780952Y-67704819D02*
X100019047Y-67704819D01*
X100019047Y-67704819D02*
X100114285Y-67657200D01*
X100114285Y-67657200D02*
X100161904Y-67609580D01*
X100161904Y-67609580D02*
X100209523Y-67514342D01*
X100209523Y-67514342D02*
X100209523Y-67419104D01*
X100209523Y-67419104D02*
X100161904Y-67323866D01*
X100161904Y-67323866D02*
X100114285Y-67276247D01*
X100114285Y-67276247D02*
X100019047Y-67228628D01*
X100019047Y-67228628D02*
X99828571Y-67181009D01*
X99828571Y-67181009D02*
X99733333Y-67133390D01*
X99733333Y-67133390D02*
X99685714Y-67085771D01*
X99685714Y-67085771D02*
X99638095Y-66990533D01*
X99638095Y-66990533D02*
X99638095Y-66895295D01*
X99638095Y-66895295D02*
X99685714Y-66800057D01*
X99685714Y-66800057D02*
X99733333Y-66752438D01*
X99733333Y-66752438D02*
X99828571Y-66704819D01*
X99828571Y-66704819D02*
X100066666Y-66704819D01*
X100066666Y-66704819D02*
X100209523Y-66752438D01*
X101066666Y-66704819D02*
X100876190Y-66704819D01*
X100876190Y-66704819D02*
X100780952Y-66752438D01*
X100780952Y-66752438D02*
X100733333Y-66800057D01*
X100733333Y-66800057D02*
X100638095Y-66942914D01*
X100638095Y-66942914D02*
X100590476Y-67133390D01*
X100590476Y-67133390D02*
X100590476Y-67514342D01*
X100590476Y-67514342D02*
X100638095Y-67609580D01*
X100638095Y-67609580D02*
X100685714Y-67657200D01*
X100685714Y-67657200D02*
X100780952Y-67704819D01*
X100780952Y-67704819D02*
X100971428Y-67704819D01*
X100971428Y-67704819D02*
X101066666Y-67657200D01*
X101066666Y-67657200D02*
X101114285Y-67609580D01*
X101114285Y-67609580D02*
X101161904Y-67514342D01*
X101161904Y-67514342D02*
X101161904Y-67276247D01*
X101161904Y-67276247D02*
X101114285Y-67181009D01*
X101114285Y-67181009D02*
X101066666Y-67133390D01*
X101066666Y-67133390D02*
X100971428Y-67085771D01*
X100971428Y-67085771D02*
X100780952Y-67085771D01*
X100780952Y-67085771D02*
X100685714Y-67133390D01*
X100685714Y-67133390D02*
X100638095Y-67181009D01*
X100638095Y-67181009D02*
X100590476Y-67276247D01*
X104019048Y-74573866D02*
X104780953Y-74573866D01*
X103919048Y-71873866D02*
X104680953Y-71873866D01*
X104300000Y-72254819D02*
X104300000Y-71492914D01*
X94919048Y-71873866D02*
X95680953Y-71873866D01*
X95300000Y-72254819D02*
X95300000Y-71492914D01*
X94607143Y-73904819D02*
X94607143Y-72904819D01*
X94607143Y-72904819D02*
X94988095Y-72904819D01*
X94988095Y-72904819D02*
X95083333Y-72952438D01*
X95083333Y-72952438D02*
X95130952Y-73000057D01*
X95130952Y-73000057D02*
X95178571Y-73095295D01*
X95178571Y-73095295D02*
X95178571Y-73238152D01*
X95178571Y-73238152D02*
X95130952Y-73333390D01*
X95130952Y-73333390D02*
X95083333Y-73381009D01*
X95083333Y-73381009D02*
X94988095Y-73428628D01*
X94988095Y-73428628D02*
X94607143Y-73428628D01*
X95464286Y-72904819D02*
X96035714Y-72904819D01*
X95750000Y-73904819D02*
X95750000Y-72904819D01*
X103900000Y-74054819D02*
X103900000Y-73054819D01*
X104947618Y-74054819D02*
X104614285Y-73578628D01*
X104376190Y-74054819D02*
X104376190Y-73054819D01*
X104376190Y-73054819D02*
X104757142Y-73054819D01*
X104757142Y-73054819D02*
X104852380Y-73102438D01*
X104852380Y-73102438D02*
X104899999Y-73150057D01*
X104899999Y-73150057D02*
X104947618Y-73245295D01*
X104947618Y-73245295D02*
X104947618Y-73388152D01*
X104947618Y-73388152D02*
X104899999Y-73483390D01*
X104899999Y-73483390D02*
X104852380Y-73531009D01*
X104852380Y-73531009D02*
X104757142Y-73578628D01*
X104757142Y-73578628D02*
X104376190Y-73578628D01*
X94869048Y-74623866D02*
X95630953Y-74623866D01*
X57238095Y-96207200D02*
X57380952Y-96254819D01*
X57380952Y-96254819D02*
X57619047Y-96254819D01*
X57619047Y-96254819D02*
X57714285Y-96207200D01*
X57714285Y-96207200D02*
X57761904Y-96159580D01*
X57761904Y-96159580D02*
X57809523Y-96064342D01*
X57809523Y-96064342D02*
X57809523Y-95969104D01*
X57809523Y-95969104D02*
X57761904Y-95873866D01*
X57761904Y-95873866D02*
X57714285Y-95826247D01*
X57714285Y-95826247D02*
X57619047Y-95778628D01*
X57619047Y-95778628D02*
X57428571Y-95731009D01*
X57428571Y-95731009D02*
X57333333Y-95683390D01*
X57333333Y-95683390D02*
X57285714Y-95635771D01*
X57285714Y-95635771D02*
X57238095Y-95540533D01*
X57238095Y-95540533D02*
X57238095Y-95445295D01*
X57238095Y-95445295D02*
X57285714Y-95350057D01*
X57285714Y-95350057D02*
X57333333Y-95302438D01*
X57333333Y-95302438D02*
X57428571Y-95254819D01*
X57428571Y-95254819D02*
X57666666Y-95254819D01*
X57666666Y-95254819D02*
X57809523Y-95302438D01*
X58666666Y-95588152D02*
X58666666Y-96254819D01*
X58428571Y-95207200D02*
X58190476Y-95921485D01*
X58190476Y-95921485D02*
X58809523Y-95921485D01*
X61619048Y-103123866D02*
X62380953Y-103123866D01*
X52519048Y-100423866D02*
X53280953Y-100423866D01*
X52900000Y-100804819D02*
X52900000Y-100042914D01*
X52207143Y-102454819D02*
X52207143Y-101454819D01*
X52207143Y-101454819D02*
X52588095Y-101454819D01*
X52588095Y-101454819D02*
X52683333Y-101502438D01*
X52683333Y-101502438D02*
X52730952Y-101550057D01*
X52730952Y-101550057D02*
X52778571Y-101645295D01*
X52778571Y-101645295D02*
X52778571Y-101788152D01*
X52778571Y-101788152D02*
X52730952Y-101883390D01*
X52730952Y-101883390D02*
X52683333Y-101931009D01*
X52683333Y-101931009D02*
X52588095Y-101978628D01*
X52588095Y-101978628D02*
X52207143Y-101978628D01*
X53064286Y-101454819D02*
X53635714Y-101454819D01*
X53350000Y-102454819D02*
X53350000Y-101454819D01*
X52469048Y-103173866D02*
X53230953Y-103173866D01*
X61500000Y-102604819D02*
X61500000Y-101604819D01*
X62547618Y-102604819D02*
X62214285Y-102128628D01*
X61976190Y-102604819D02*
X61976190Y-101604819D01*
X61976190Y-101604819D02*
X62357142Y-101604819D01*
X62357142Y-101604819D02*
X62452380Y-101652438D01*
X62452380Y-101652438D02*
X62499999Y-101700057D01*
X62499999Y-101700057D02*
X62547618Y-101795295D01*
X62547618Y-101795295D02*
X62547618Y-101938152D01*
X62547618Y-101938152D02*
X62499999Y-102033390D01*
X62499999Y-102033390D02*
X62452380Y-102081009D01*
X62452380Y-102081009D02*
X62357142Y-102128628D01*
X62357142Y-102128628D02*
X61976190Y-102128628D01*
X61519048Y-100423866D02*
X62280953Y-100423866D01*
X61900000Y-100804819D02*
X61900000Y-100042914D01*
D13*
X162500000Y-115200000D02*
X162500000Y-129200000D01*
X162500000Y-115200000D02*
X166000000Y-115200000D01*
X162500000Y-129200000D02*
X166000000Y-129200000D01*
X176500000Y-115200000D02*
X173000000Y-115200000D01*
X176500000Y-129200000D02*
X173000000Y-129200000D01*
X176500000Y-129200000D02*
X176500000Y-115200000D01*
X166800000Y-125350001D02*
G75*
G02*
X166795261Y-126752686I-400001J-699999D01*
G01*
X171100000Y-126799999D02*
G75*
G02*
X171089318Y-125304362I300000J749999D01*
G01*
D11*
X181000000Y-122200000D02*
G75*
G02*
X158000000Y-122200000I-11500000J0D01*
G01*
X158000000Y-122200000D02*
G75*
G02*
X181000000Y-122200000I11500000J0D01*
G01*
D13*
X174400000Y-61250000D02*
X174400000Y-75250000D01*
X174400000Y-61250000D02*
X177900000Y-61250000D01*
X174400000Y-75250000D02*
X177900000Y-75250000D01*
X188400000Y-61250000D02*
X184900000Y-61250000D01*
X188400000Y-75250000D02*
X184900000Y-75250000D01*
X188400000Y-75250000D02*
X188400000Y-61250000D01*
X178700000Y-71400001D02*
G75*
G02*
X178695261Y-72802686I-400001J-699999D01*
G01*
X183000000Y-72849999D02*
G75*
G02*
X182989318Y-71354362I300000J749999D01*
G01*
D11*
X192900000Y-68250000D02*
G75*
G02*
X169900000Y-68250000I-11500000J0D01*
G01*
X169900000Y-68250000D02*
G75*
G02*
X192900000Y-68250000I11500000J0D01*
G01*
D13*
X230000000Y-87800000D02*
X230000000Y-101800000D01*
X230000000Y-87800000D02*
X233500000Y-87800000D01*
X230000000Y-101800000D02*
X233500000Y-101800000D01*
X244000000Y-87800000D02*
X240500000Y-87800000D01*
X244000000Y-101800000D02*
X240500000Y-101800000D01*
X244000000Y-101800000D02*
X244000000Y-87800000D01*
X234300000Y-97950001D02*
G75*
G02*
X234295261Y-99352686I-400001J-699999D01*
G01*
X238600000Y-99399999D02*
G75*
G02*
X238589318Y-97904362I300000J749999D01*
G01*
D11*
X248500000Y-94800000D02*
G75*
G02*
X225500000Y-94800000I-11500000J0D01*
G01*
X225500000Y-94800000D02*
G75*
G02*
X248500000Y-94800000I11500000J0D01*
G01*
D13*
X182100000Y-26850000D02*
X209500000Y-26850000D01*
X182100000Y-54150000D02*
X182100000Y-26850000D01*
X182522000Y-30145000D02*
X205622000Y-30145000D01*
X182522000Y-46745000D02*
X182522000Y-30145000D01*
X190801000Y-27339000D02*
X190801000Y-29752000D01*
X190801000Y-27339000D02*
X200580000Y-27339000D01*
X200580000Y-27339000D02*
X200580000Y-29752000D01*
X200580000Y-29752000D02*
X190801000Y-29752000D01*
X205622000Y-30145000D02*
X208708000Y-30145000D01*
X205622000Y-46745000D02*
X182522000Y-46745000D01*
X205622000Y-46745000D02*
X208962000Y-46770000D01*
X208962000Y-30133000D02*
X208708000Y-30145000D01*
X208962000Y-46770000D02*
X208962000Y-30133000D01*
X209500000Y-26850000D02*
X209500000Y-54150000D01*
X209500000Y-54150000D02*
X182100000Y-54150000D01*
X201000000Y-87800000D02*
X201000000Y-101800000D01*
X201000000Y-87800000D02*
X204500000Y-87800000D01*
X201000000Y-101800000D02*
X204500000Y-101800000D01*
X215000000Y-87800000D02*
X211500000Y-87800000D01*
X215000000Y-101800000D02*
X211500000Y-101800000D01*
X215000000Y-101800000D02*
X215000000Y-87800000D01*
X205300000Y-97950001D02*
G75*
G02*
X205295261Y-99352686I-400001J-699999D01*
G01*
X209600000Y-99399999D02*
G75*
G02*
X209589318Y-97904362I300000J749999D01*
G01*
D11*
X219500000Y-94800000D02*
G75*
G02*
X196500000Y-94800000I-11500000J0D01*
G01*
X196500000Y-94800000D02*
G75*
G02*
X219500000Y-94800000I11500000J0D01*
G01*
D13*
X202000000Y-60800000D02*
X202000000Y-74800000D01*
X202000000Y-60800000D02*
X205500000Y-60800000D01*
X202000000Y-74800000D02*
X205500000Y-74800000D01*
X216000000Y-60800000D02*
X212500000Y-60800000D01*
X216000000Y-74800000D02*
X212500000Y-74800000D01*
X216000000Y-74800000D02*
X216000000Y-60800000D01*
X206300000Y-70950001D02*
G75*
G02*
X206295261Y-72352686I-400001J-699999D01*
G01*
X210600000Y-72399999D02*
G75*
G02*
X210589318Y-70904362I300000J749999D01*
G01*
D11*
X220500000Y-67800000D02*
G75*
G02*
X197500000Y-67800000I-11500000J0D01*
G01*
X197500000Y-67800000D02*
G75*
G02*
X220500000Y-67800000I11500000J0D01*
G01*
D13*
X143500000Y-93300000D02*
X143500000Y-107300000D01*
X143500000Y-93300000D02*
X147000000Y-93300000D01*
X143500000Y-107300000D02*
X147000000Y-107300000D01*
X157500000Y-93300000D02*
X154000000Y-93300000D01*
X157500000Y-107300000D02*
X154000000Y-107300000D01*
X157500000Y-107300000D02*
X157500000Y-93300000D01*
X147800000Y-103450001D02*
G75*
G02*
X147795261Y-104852686I-400001J-699999D01*
G01*
X152100000Y-104899999D02*
G75*
G02*
X152089318Y-103404362I300000J749999D01*
G01*
D11*
X162000000Y-100300000D02*
G75*
G02*
X139000000Y-100300000I-11500000J0D01*
G01*
X139000000Y-100300000D02*
G75*
G02*
X162000000Y-100300000I11500000J0D01*
G01*
X75000000Y-37000000D02*
X81000000Y-37000000D01*
X81000000Y-31000000D01*
X75000000Y-31000000D01*
X75000000Y-37000000D01*
D13*
X125520000Y-26848000D02*
X130092000Y-26848000D01*
X125520000Y-50724000D02*
X129330000Y-50724000D01*
X141268000Y-26848000D02*
X145840000Y-26848000D01*
X142030000Y-50724000D02*
X145840000Y-50724000D01*
D11*
X66500000Y-37000000D02*
X72500000Y-37000000D01*
X72500000Y-31000000D01*
X66500000Y-31000000D01*
X66500000Y-37000000D01*
D13*
X229800000Y-60750000D02*
X229800000Y-74750000D01*
X229800000Y-60750000D02*
X233300000Y-60750000D01*
X229800000Y-74750000D02*
X233300000Y-74750000D01*
X243800000Y-60750000D02*
X240300000Y-60750000D01*
X243800000Y-74750000D02*
X240300000Y-74750000D01*
X243800000Y-74750000D02*
X243800000Y-60750000D01*
X234100000Y-70900001D02*
G75*
G02*
X234095261Y-72302686I-400001J-699999D01*
G01*
X238400000Y-72349999D02*
G75*
G02*
X238389318Y-70854362I300000J749999D01*
G01*
D11*
X248300000Y-67750000D02*
G75*
G02*
X225300000Y-67750000I-11500000J0D01*
G01*
X225300000Y-67750000D02*
G75*
G02*
X248300000Y-67750000I11500000J0D01*
G01*
D13*
X99100000Y-35450000D02*
X99100000Y-49450000D01*
X99100000Y-35450000D02*
X102600000Y-35450000D01*
X99100000Y-49450000D02*
X102600000Y-49450000D01*
X113100000Y-35450000D02*
X109600000Y-35450000D01*
X113100000Y-49450000D02*
X109600000Y-49450000D01*
X113100000Y-49450000D02*
X113100000Y-35450000D01*
X103400000Y-45600001D02*
G75*
G02*
X103395261Y-47002686I-400001J-699999D01*
G01*
X107700000Y-47049999D02*
G75*
G02*
X107689318Y-45554362I300000J749999D01*
G01*
D11*
X117600000Y-42450000D02*
G75*
G02*
X94600000Y-42450000I-11500000J0D01*
G01*
X94600000Y-42450000D02*
G75*
G02*
X117600000Y-42450000I11500000J0D01*
G01*
D13*
X147500000Y-65200000D02*
X147500000Y-79200000D01*
X147500000Y-65200000D02*
X151000000Y-65200000D01*
X147500000Y-79200000D02*
X151000000Y-79200000D01*
X161500000Y-65200000D02*
X158000000Y-65200000D01*
X161500000Y-79200000D02*
X158000000Y-79200000D01*
X161500000Y-79200000D02*
X161500000Y-65200000D01*
X151800000Y-75350001D02*
G75*
G02*
X151795261Y-76752686I-400001J-699999D01*
G01*
X156100000Y-76799999D02*
G75*
G02*
X156089318Y-75304362I300000J749999D01*
G01*
D11*
X166000000Y-72200000D02*
G75*
G02*
X143000000Y-72200000I-11500000J0D01*
G01*
X143000000Y-72200000D02*
G75*
G02*
X166000000Y-72200000I11500000J0D01*
G01*
D13*
X157400000Y-35250000D02*
X157400000Y-49250000D01*
X157400000Y-35250000D02*
X160900000Y-35250000D01*
X157400000Y-49250000D02*
X160900000Y-49250000D01*
X171400000Y-35250000D02*
X167900000Y-35250000D01*
X171400000Y-49250000D02*
X167900000Y-49250000D01*
X171400000Y-49250000D02*
X171400000Y-35250000D01*
X161700000Y-45400001D02*
G75*
G02*
X161695261Y-46802686I-400001J-699999D01*
G01*
X166000000Y-46849999D02*
G75*
G02*
X165989318Y-45354362I300000J749999D01*
G01*
D11*
X175900000Y-42250000D02*
G75*
G02*
X152900000Y-42250000I-11500000J0D01*
G01*
X152900000Y-42250000D02*
G75*
G02*
X175900000Y-42250000I11500000J0D01*
G01*
D13*
X65400000Y-65250000D02*
X65400000Y-79250000D01*
X65400000Y-65250000D02*
X68900000Y-65250000D01*
X65400000Y-79250000D02*
X68900000Y-79250000D01*
X79400000Y-65250000D02*
X75900000Y-65250000D01*
X79400000Y-79250000D02*
X75900000Y-79250000D01*
X79400000Y-79250000D02*
X79400000Y-65250000D01*
X69700000Y-75400001D02*
G75*
G02*
X69695261Y-76802686I-400001J-699999D01*
G01*
X74000000Y-76849999D02*
G75*
G02*
X73989318Y-75354362I300000J749999D01*
G01*
D11*
X83900000Y-72250000D02*
G75*
G02*
X60900000Y-72250000I-11500000J0D01*
G01*
X60900000Y-72250000D02*
G75*
G02*
X83900000Y-72250000I11500000J0D01*
G01*
D13*
X120400000Y-73750000D02*
X120400000Y-87750000D01*
X120400000Y-73750000D02*
X123900000Y-73750000D01*
X120400000Y-87750000D02*
X123900000Y-87750000D01*
X134400000Y-73750000D02*
X130900000Y-73750000D01*
X134400000Y-87750000D02*
X130900000Y-87750000D01*
X134400000Y-87750000D02*
X134400000Y-73750000D01*
X124700000Y-83900001D02*
G75*
G02*
X124695261Y-85302686I-400001J-699999D01*
G01*
X129000000Y-85349999D02*
G75*
G02*
X128989318Y-83854362I300000J749999D01*
G01*
D11*
X138900000Y-80750000D02*
G75*
G02*
X115900000Y-80750000I-11500000J0D01*
G01*
X115900000Y-80750000D02*
G75*
G02*
X138900000Y-80750000I11500000J0D01*
G01*
X83500000Y-37000000D02*
X89500000Y-37000000D01*
X89500000Y-31000000D01*
X83500000Y-31000000D01*
X83500000Y-37000000D01*
D13*
X132500000Y-123800000D02*
X132500000Y-137800000D01*
X132500000Y-123800000D02*
X136000000Y-123800000D01*
X132500000Y-137800000D02*
X136000000Y-137800000D01*
X146500000Y-123800000D02*
X143000000Y-123800000D01*
X146500000Y-137800000D02*
X143000000Y-137800000D01*
X146500000Y-137800000D02*
X146500000Y-123800000D01*
X136800000Y-133950001D02*
G75*
G02*
X136795261Y-135352686I-400001J-699999D01*
G01*
X141100000Y-135399999D02*
G75*
G02*
X141089318Y-133904362I300000J749999D01*
G01*
D11*
X152500000Y-130800000D02*
G75*
G02*
X126500000Y-130800000I-13000000J0D01*
G01*
X126500000Y-130800000D02*
G75*
G02*
X152500000Y-130800000I13000000J0D01*
G01*
X58000000Y-37000000D02*
X64000000Y-37000000D01*
X64000000Y-31000000D01*
X58000000Y-31000000D01*
X58000000Y-37000000D01*
D13*
X172400000Y-88050000D02*
X172400000Y-102050000D01*
X172400000Y-88050000D02*
X175900000Y-88050000D01*
X172400000Y-102050000D02*
X175900000Y-102050000D01*
X186400000Y-88050000D02*
X182900000Y-88050000D01*
X186400000Y-102050000D02*
X182900000Y-102050000D01*
X186400000Y-102050000D02*
X186400000Y-88050000D01*
X176700000Y-98200001D02*
G75*
G02*
X176695261Y-99602686I-400001J-699999D01*
G01*
X181000000Y-99649999D02*
G75*
G02*
X180989318Y-98154362I300000J749999D01*
G01*
D11*
X190900000Y-95050000D02*
G75*
G02*
X167900000Y-95050000I-11500000J0D01*
G01*
X167900000Y-95050000D02*
G75*
G02*
X190900000Y-95050000I11500000J0D01*
G01*
D13*
X93400000Y-62750000D02*
X93400000Y-76750000D01*
X93400000Y-62750000D02*
X96900000Y-62750000D01*
X93400000Y-76750000D02*
X96900000Y-76750000D01*
X107400000Y-62750000D02*
X103900000Y-62750000D01*
X107400000Y-76750000D02*
X103900000Y-76750000D01*
X107400000Y-76750000D02*
X107400000Y-62750000D01*
X97700000Y-72900001D02*
G75*
G02*
X97695261Y-74302686I-400001J-699999D01*
G01*
X102000000Y-74349999D02*
G75*
G02*
X101989318Y-72854362I300000J749999D01*
G01*
D11*
X111900000Y-69750000D02*
G75*
G02*
X88900000Y-69750000I-11500000J0D01*
G01*
X88900000Y-69750000D02*
G75*
G02*
X111900000Y-69750000I11500000J0D01*
G01*
D13*
X51000000Y-91300000D02*
X51000000Y-105300000D01*
X51000000Y-91300000D02*
X54500000Y-91300000D01*
X51000000Y-105300000D02*
X54500000Y-105300000D01*
X65000000Y-91300000D02*
X61500000Y-91300000D01*
X65000000Y-105300000D02*
X61500000Y-105300000D01*
X65000000Y-105300000D02*
X65000000Y-91300000D01*
X55300000Y-101450001D02*
G75*
G02*
X55295261Y-102852686I-400001J-699999D01*
G01*
X59600000Y-102899999D02*
G75*
G02*
X59589318Y-101404362I300000J749999D01*
G01*
D11*
X69500000Y-98300000D02*
G75*
G02*
X46500000Y-98300000I-11500000J0D01*
G01*
X46500000Y-98300000D02*
G75*
G02*
X69500000Y-98300000I11500000J0D01*
G01*
%LPC*%
D12*
G36*
X83883217Y-122564515D02*
G01*
X83883217Y-122373272D01*
X84460607Y-122373272D01*
X85035066Y-122373272D01*
X85035066Y-122564515D01*
X85035066Y-122756489D01*
X84460607Y-122756489D01*
X83883217Y-122756489D01*
X83883217Y-123908339D01*
X83883217Y-125058722D01*
X84460607Y-125058722D01*
X85035066Y-125058722D01*
X85035066Y-123908339D01*
X85035066Y-122756489D01*
X85227041Y-122756489D01*
X85418283Y-122756489D01*
X85418283Y-123908339D01*
X85418283Y-125058722D01*
X85227041Y-125058722D01*
X85035066Y-125058722D01*
X85035066Y-125249965D01*
X85035066Y-125441939D01*
X84460607Y-125441939D01*
X83883217Y-125441939D01*
X83883217Y-125249965D01*
X83883217Y-125058722D01*
X83691974Y-125058722D01*
X83500000Y-125058722D01*
X83500000Y-123908339D01*
X83500000Y-122756489D01*
X83691974Y-122756489D01*
X83883217Y-122756489D01*
X83883217Y-122564515D01*
G37*
G36*
X85789043Y-123908339D02*
G01*
X85789043Y-122373272D01*
X86557676Y-122373272D01*
X87324110Y-122373272D01*
X87324110Y-122564515D01*
X87324110Y-122756489D01*
X86749651Y-122756489D01*
X86172260Y-122756489D01*
X86172260Y-123139706D01*
X86172260Y-123525122D01*
X86749651Y-123525122D01*
X87324110Y-123525122D01*
X87324110Y-123139706D01*
X87324110Y-122756489D01*
X87516085Y-122756489D01*
X87707327Y-122756489D01*
X87707327Y-123139706D01*
X87707327Y-123525122D01*
X87516085Y-123525122D01*
X87324110Y-123525122D01*
X87324110Y-123717096D01*
X87324110Y-123908339D01*
X86749651Y-123908339D01*
X86172260Y-123908339D01*
X86172260Y-124674773D01*
X86172260Y-125441939D01*
X85981018Y-125441939D01*
X85789043Y-125441939D01*
X85789043Y-123908339D01*
G37*
G36*
X88078087Y-122564515D02*
G01*
X88078087Y-122373272D01*
X89036496Y-122373272D01*
X89996371Y-122373272D01*
X89996371Y-122564515D01*
X89996371Y-122756489D01*
X89613154Y-122756489D01*
X89229937Y-122756489D01*
X89229937Y-124100314D01*
X89229937Y-125441939D01*
X89038695Y-125441939D01*
X88844521Y-125441939D01*
X88844521Y-124100314D01*
X88844521Y-122756489D01*
X88461304Y-122756489D01*
X88078087Y-122756489D01*
X88078087Y-122564515D01*
G37*
G36*
X90750348Y-122564515D02*
G01*
X90750348Y-122373272D01*
X91325540Y-122373272D01*
X91902198Y-122373272D01*
X91902198Y-122564515D01*
X91902198Y-122756489D01*
X91710956Y-122756489D01*
X91518981Y-122756489D01*
X91518981Y-123908339D01*
X91518981Y-125058722D01*
X91710956Y-125058722D01*
X91902198Y-125058722D01*
X91902198Y-125249965D01*
X91902198Y-125441939D01*
X91325540Y-125441939D01*
X90750348Y-125441939D01*
X90750348Y-125249965D01*
X90750348Y-125058722D01*
X90942323Y-125058722D01*
X91133565Y-125058722D01*
X91133565Y-123908339D01*
X91133565Y-122756489D01*
X90942323Y-122756489D01*
X90750348Y-122756489D01*
X90750348Y-122564515D01*
G37*
G36*
X93039392Y-122564515D02*
G01*
X93039392Y-122373272D01*
X93616782Y-122373272D01*
X94191242Y-122373272D01*
X94191242Y-122564515D01*
X94191242Y-122756489D01*
X93616782Y-122756489D01*
X93039392Y-122756489D01*
X93039392Y-122564515D01*
G37*
G36*
X94191242Y-125058722D02*
G01*
X94191242Y-125249965D01*
X94191242Y-125441939D01*
X93616782Y-125441939D01*
X93039392Y-125441939D01*
X93039392Y-125249965D01*
X93039392Y-125058722D01*
X92848150Y-125058722D01*
X92656175Y-125058722D01*
X92656175Y-123908339D01*
X92656175Y-122756489D01*
X92848150Y-122756489D01*
X93039392Y-122756489D01*
X93039392Y-123908339D01*
X93039392Y-125058722D01*
X93616782Y-125058722D01*
X94191242Y-125058722D01*
G37*
G36*
X94191242Y-125058722D02*
G01*
X94191242Y-124866748D01*
X94191242Y-124674773D01*
X94383217Y-124674773D01*
X94574459Y-124674773D01*
X94574459Y-124866748D01*
X94574459Y-125058722D01*
X94383217Y-125058722D01*
X94191242Y-125058722D01*
G37*
G36*
X94191242Y-122756489D02*
G01*
X94383217Y-122756489D01*
X94574459Y-122756489D01*
X94574459Y-122948464D01*
X94574459Y-123139706D01*
X94383217Y-123139706D01*
X94191242Y-123139706D01*
X94191242Y-122948464D01*
X94191242Y-122756489D01*
G37*
G36*
X95328436Y-122564515D02*
G01*
X95328436Y-122373272D01*
X95905826Y-122373272D01*
X96480286Y-122373272D01*
X96480286Y-122564515D01*
X96480286Y-122756489D01*
X95905826Y-122756489D01*
X95328436Y-122756489D01*
X95328436Y-123139706D01*
X95328436Y-123525122D01*
X95905826Y-123525122D01*
X96480286Y-123525122D01*
X96480286Y-123139706D01*
X96480286Y-122756489D01*
X96672260Y-122756489D01*
X96863503Y-122756489D01*
X96863503Y-124100314D01*
X96863503Y-125441939D01*
X96672260Y-125441939D01*
X96480286Y-125441939D01*
X96480286Y-124674773D01*
X96480286Y-123908339D01*
X95905826Y-123908339D01*
X95328436Y-123908339D01*
X95328436Y-124674773D01*
X95328436Y-125441939D01*
X95137194Y-125441939D01*
X94945219Y-125441939D01*
X94945219Y-124100314D01*
X94945219Y-122756489D01*
X95137194Y-122756489D01*
X95328436Y-122756489D01*
X95328436Y-122564515D01*
G37*
G36*
X97234263Y-123908339D02*
G01*
X97234263Y-122373272D01*
X97426238Y-122373272D01*
X97617480Y-122373272D01*
X97617480Y-123717096D01*
X97617480Y-125058722D01*
X98386113Y-125058722D01*
X99152547Y-125058722D01*
X99152547Y-125249965D01*
X99152547Y-125441939D01*
X98192672Y-125441939D01*
X97234263Y-125441939D01*
X97234263Y-123908339D01*
G37*
G36*
X102195568Y-122564515D02*
G01*
X102195568Y-122373272D01*
X102772958Y-122373272D01*
X103347418Y-122373272D01*
X103347418Y-122564515D01*
X103347418Y-122756489D01*
X102772958Y-122756489D01*
X102195568Y-122756489D01*
X102195568Y-122564515D01*
G37*
G36*
X102195568Y-125058722D02*
G01*
X102772958Y-125058722D01*
X103347418Y-125058722D01*
X103347418Y-124483531D01*
X103347418Y-123908339D01*
X102772958Y-123908339D01*
X102195568Y-123908339D01*
X102195568Y-123717096D01*
X102195568Y-123525122D01*
X102004326Y-123525122D01*
X101812351Y-123525122D01*
X101812351Y-123139706D01*
X101812351Y-122756489D01*
X102004326Y-122756489D01*
X102195568Y-122756489D01*
X102195568Y-123139706D01*
X102195568Y-123525122D01*
X102772958Y-123525122D01*
X103347418Y-123525122D01*
X103347418Y-123717096D01*
X103347418Y-123908339D01*
X103539392Y-123908339D01*
X103730635Y-123908339D01*
X103730635Y-124483531D01*
X103730635Y-125058722D01*
X103539392Y-125058722D01*
X103347418Y-125058722D01*
X103347418Y-125249965D01*
X103347418Y-125441939D01*
X102772958Y-125441939D01*
X102195568Y-125441939D01*
X102195568Y-125249965D01*
X102195568Y-125058722D01*
G37*
G36*
X102195568Y-125058722D02*
G01*
X102004326Y-125058722D01*
X101812351Y-125058722D01*
X101812351Y-124866748D01*
X101812351Y-124674773D01*
X102004326Y-124674773D01*
X102195568Y-124674773D01*
X102195568Y-124866748D01*
X102195568Y-125058722D01*
G37*
G36*
X103347418Y-122756489D02*
G01*
X103539392Y-122756489D01*
X103730635Y-122756489D01*
X103730635Y-122948464D01*
X103730635Y-123139706D01*
X103539392Y-123139706D01*
X103347418Y-123139706D01*
X103347418Y-122948464D01*
X103347418Y-122756489D01*
G37*
G36*
X104101395Y-123525122D02*
G01*
X104101395Y-122373272D01*
X104293370Y-122373272D01*
X104484612Y-122373272D01*
X104484612Y-123525122D01*
X104484612Y-124674773D01*
X104293370Y-124674773D01*
X104101395Y-124674773D01*
X104101395Y-123525122D01*
G37*
G36*
X105636461Y-124674773D02*
G01*
X105636461Y-125058722D01*
X105636461Y-125441939D01*
X105445219Y-125441939D01*
X105253244Y-125441939D01*
X105253244Y-125058722D01*
X105253244Y-124674773D01*
X105062002Y-124674773D01*
X104867829Y-124674773D01*
X104867829Y-125058722D01*
X104867829Y-125441939D01*
X104676587Y-125441939D01*
X104484612Y-125441939D01*
X104484612Y-125058722D01*
X104484612Y-124674773D01*
X104676587Y-124674773D01*
X104867829Y-124674773D01*
X104867829Y-124100314D01*
X104867829Y-123525122D01*
X105062002Y-123525122D01*
X105253244Y-123525122D01*
X105253244Y-124100314D01*
X105253244Y-124674773D01*
X105445219Y-124674773D01*
X105636461Y-124674773D01*
G37*
G36*
X105636461Y-124674773D02*
G01*
X105636461Y-123525122D01*
X105636461Y-122373272D01*
X105828436Y-122373272D01*
X106019678Y-122373272D01*
X106019678Y-123525122D01*
X106019678Y-124674773D01*
X105828436Y-124674773D01*
X105636461Y-124674773D01*
G37*
G36*
X106773656Y-122564515D02*
G01*
X106773656Y-122373272D01*
X107348848Y-122373272D01*
X107925505Y-122373272D01*
X107925505Y-122564515D01*
X107925505Y-122756489D01*
X107734263Y-122756489D01*
X107542288Y-122756489D01*
X107542288Y-123908339D01*
X107542288Y-125058722D01*
X107734263Y-125058722D01*
X107925505Y-125058722D01*
X107925505Y-125249965D01*
X107925505Y-125441939D01*
X107348848Y-125441939D01*
X106773656Y-125441939D01*
X106773656Y-125249965D01*
X106773656Y-125058722D01*
X106965631Y-125058722D01*
X107156873Y-125058722D01*
X107156873Y-123908339D01*
X107156873Y-122756489D01*
X106965631Y-122756489D01*
X106773656Y-122756489D01*
X106773656Y-122564515D01*
G37*
G36*
X108679483Y-122564515D02*
G01*
X108679483Y-122373272D01*
X109637892Y-122373272D01*
X110597766Y-122373272D01*
X110597766Y-122564515D01*
X110597766Y-122756489D01*
X110214549Y-122756489D01*
X109831332Y-122756489D01*
X109831332Y-124100314D01*
X109831332Y-125441939D01*
X109640090Y-125441939D01*
X109445917Y-125441939D01*
X109445917Y-124100314D01*
X109445917Y-122756489D01*
X109062700Y-122756489D01*
X108679483Y-122756489D01*
X108679483Y-122564515D01*
G37*
G36*
X111351744Y-122564515D02*
G01*
X111351744Y-122373272D01*
X111929134Y-122373272D01*
X112503593Y-122373272D01*
X112503593Y-122564515D01*
X112503593Y-122756489D01*
X111929134Y-122756489D01*
X111351744Y-122756489D01*
X111351744Y-122564515D01*
G37*
G36*
X112503593Y-125058722D02*
G01*
X112503593Y-125249965D01*
X112503593Y-125441939D01*
X111929134Y-125441939D01*
X111351744Y-125441939D01*
X111351744Y-125249965D01*
X111351744Y-125058722D01*
X111160502Y-125058722D01*
X110968527Y-125058722D01*
X110968527Y-123908339D01*
X110968527Y-122756489D01*
X111160502Y-122756489D01*
X111351744Y-122756489D01*
X111351744Y-123908339D01*
X111351744Y-125058722D01*
X111929134Y-125058722D01*
X112503593Y-125058722D01*
G37*
G36*
X112503593Y-125058722D02*
G01*
X112503593Y-124866748D01*
X112503593Y-124674773D01*
X112695568Y-124674773D01*
X112886810Y-124674773D01*
X112886810Y-124866748D01*
X112886810Y-125058722D01*
X112695568Y-125058722D01*
X112503593Y-125058722D01*
G37*
G36*
X112503593Y-122756489D02*
G01*
X112695568Y-122756489D01*
X112886810Y-122756489D01*
X112886810Y-122948464D01*
X112886810Y-123139706D01*
X112695568Y-123139706D01*
X112503593Y-123139706D01*
X112503593Y-122948464D01*
X112503593Y-122756489D01*
G37*
G36*
X113257571Y-123908339D02*
G01*
X113257571Y-122373272D01*
X113449546Y-122373272D01*
X113640788Y-122373272D01*
X113640788Y-122948464D01*
X113640788Y-123525122D01*
X114218178Y-123525122D01*
X114792637Y-123525122D01*
X114792637Y-122948464D01*
X114792637Y-122373272D01*
X114984612Y-122373272D01*
X115175854Y-122373272D01*
X115175854Y-123908339D01*
X115175854Y-125441939D01*
X114984612Y-125441939D01*
X114792637Y-125441939D01*
X114792637Y-124674773D01*
X114792637Y-123908339D01*
X114218178Y-123908339D01*
X113640788Y-123908339D01*
X113640788Y-124674773D01*
X113640788Y-125441939D01*
X113449546Y-125441939D01*
X113257571Y-125441939D01*
X113257571Y-123908339D01*
G37*
G36*
X83883217Y-127604515D02*
G01*
X83883217Y-127413272D01*
X84458408Y-127413272D01*
X85035066Y-127413272D01*
X85035066Y-127604515D01*
X85035066Y-127796489D01*
X84843824Y-127796489D01*
X84651849Y-127796489D01*
X84651849Y-128948339D01*
X84651849Y-130098722D01*
X84843824Y-130098722D01*
X85035066Y-130098722D01*
X85035066Y-130289965D01*
X85035066Y-130481939D01*
X84458408Y-130481939D01*
X83883217Y-130481939D01*
X83883217Y-130289965D01*
X83883217Y-130098722D01*
X84075191Y-130098722D01*
X84266434Y-130098722D01*
X84266434Y-128948339D01*
X84266434Y-127796489D01*
X84075191Y-127796489D01*
X83883217Y-127796489D01*
X83883217Y-127604515D01*
G37*
G36*
X85789043Y-128948339D02*
G01*
X85789043Y-127413272D01*
X85981018Y-127413272D01*
X86172260Y-127413272D01*
X86172260Y-127604515D01*
X86172260Y-127796489D01*
X86364235Y-127796489D01*
X86555478Y-127796489D01*
X86555478Y-128179706D01*
X86555478Y-128565122D01*
X86364235Y-128565122D01*
X86172260Y-128565122D01*
X86172260Y-129523531D01*
X86172260Y-130481939D01*
X85981018Y-130481939D01*
X85789043Y-130481939D01*
X85789043Y-128948339D01*
G37*
G36*
X86940893Y-129331556D02*
G01*
X86749651Y-129331556D01*
X86555478Y-129331556D01*
X86555478Y-128948339D01*
X86555478Y-128565122D01*
X86749651Y-128565122D01*
X86940893Y-128565122D01*
X86940893Y-128948339D01*
X86940893Y-129331556D01*
G37*
G36*
X86940893Y-129331556D02*
G01*
X87132868Y-129331556D01*
X87324110Y-129331556D01*
X87324110Y-128371681D01*
X87324110Y-127413272D01*
X87516085Y-127413272D01*
X87707327Y-127413272D01*
X87707327Y-128948339D01*
X87707327Y-130481939D01*
X87516085Y-130481939D01*
X87324110Y-130481939D01*
X87324110Y-130289965D01*
X87324110Y-130098722D01*
X87132868Y-130098722D01*
X86940893Y-130098722D01*
X86940893Y-129714773D01*
X86940893Y-129331556D01*
G37*
G36*
X88461304Y-127604515D02*
G01*
X88461304Y-127413272D01*
X89038695Y-127413272D01*
X89613154Y-127413272D01*
X89613154Y-127604515D01*
X89613154Y-127796489D01*
X89038695Y-127796489D01*
X88461304Y-127796489D01*
X88461304Y-127604515D01*
G37*
G36*
X88461304Y-130098722D02*
G01*
X89038695Y-130098722D01*
X89613154Y-130098722D01*
X89613154Y-129523531D01*
X89613154Y-128948339D01*
X89038695Y-128948339D01*
X88461304Y-128948339D01*
X88461304Y-128757096D01*
X88461304Y-128565122D01*
X88270062Y-128565122D01*
X88078087Y-128565122D01*
X88078087Y-128179706D01*
X88078087Y-127796489D01*
X88270062Y-127796489D01*
X88461304Y-127796489D01*
X88461304Y-128179706D01*
X88461304Y-128565122D01*
X89038695Y-128565122D01*
X89613154Y-128565122D01*
X89613154Y-128757096D01*
X89613154Y-128948339D01*
X89805129Y-128948339D01*
X89996371Y-128948339D01*
X89996371Y-129523531D01*
X89996371Y-130098722D01*
X89805129Y-130098722D01*
X89613154Y-130098722D01*
X89613154Y-130289965D01*
X89613154Y-130481939D01*
X89038695Y-130481939D01*
X88461304Y-130481939D01*
X88461304Y-130289965D01*
X88461304Y-130098722D01*
G37*
G36*
X88461304Y-130098722D02*
G01*
X88270062Y-130098722D01*
X88078087Y-130098722D01*
X88078087Y-129906748D01*
X88078087Y-129714773D01*
X88270062Y-129714773D01*
X88461304Y-129714773D01*
X88461304Y-129906748D01*
X88461304Y-130098722D01*
G37*
G36*
X89613154Y-127796489D02*
G01*
X89805129Y-127796489D01*
X89996371Y-127796489D01*
X89996371Y-127988464D01*
X89996371Y-128179706D01*
X89805129Y-128179706D01*
X89613154Y-128179706D01*
X89613154Y-127988464D01*
X89613154Y-127796489D01*
G37*
G36*
X90750348Y-127604515D02*
G01*
X90750348Y-127413272D01*
X91325540Y-127413272D01*
X91902198Y-127413272D01*
X91902198Y-127604515D01*
X91902198Y-127796489D01*
X91710956Y-127796489D01*
X91518981Y-127796489D01*
X91518981Y-128948339D01*
X91518981Y-130098722D01*
X91710956Y-130098722D01*
X91902198Y-130098722D01*
X91902198Y-130289965D01*
X91902198Y-130481939D01*
X91325540Y-130481939D01*
X90750348Y-130481939D01*
X90750348Y-130289965D01*
X90750348Y-130098722D01*
X90942323Y-130098722D01*
X91133565Y-130098722D01*
X91133565Y-128948339D01*
X91133565Y-127796489D01*
X90942323Y-127796489D01*
X90750348Y-127796489D01*
X90750348Y-127604515D01*
G37*
G36*
X92656175Y-128948339D02*
G01*
X92656175Y-127413272D01*
X93424808Y-127413272D01*
X94191242Y-127413272D01*
X94191242Y-127604515D01*
X94191242Y-127796489D01*
X93616782Y-127796489D01*
X93039392Y-127796489D01*
X93039392Y-128948339D01*
X93039392Y-130098722D01*
X93616782Y-130098722D01*
X94191242Y-130098722D01*
X94191242Y-128948339D01*
X94191242Y-127796489D01*
X94383217Y-127796489D01*
X94574459Y-127796489D01*
X94574459Y-128948339D01*
X94574459Y-130098722D01*
X94383217Y-130098722D01*
X94191242Y-130098722D01*
X94191242Y-130289965D01*
X94191242Y-130481939D01*
X93424808Y-130481939D01*
X92656175Y-130481939D01*
X92656175Y-128948339D01*
G37*
G36*
X94945219Y-128948339D02*
G01*
X94945219Y-127413272D01*
X95903628Y-127413272D01*
X96863503Y-127413272D01*
X96863503Y-127604515D01*
X96863503Y-127796489D01*
X96097069Y-127796489D01*
X95328436Y-127796489D01*
X95328436Y-128179706D01*
X95328436Y-128565122D01*
X95905826Y-128565122D01*
X96480286Y-128565122D01*
X96480286Y-128757096D01*
X96480286Y-128948339D01*
X95905826Y-128948339D01*
X95328436Y-128948339D01*
X95328436Y-129523531D01*
X95328436Y-130098722D01*
X96097069Y-130098722D01*
X96863503Y-130098722D01*
X96863503Y-130289965D01*
X96863503Y-130481939D01*
X95903628Y-130481939D01*
X94945219Y-130481939D01*
X94945219Y-128948339D01*
G37*
D14*
G36*
X64274316Y-126742674D02*
G01*
X64313821Y-126768148D01*
X64406138Y-126828398D01*
X64543632Y-126918418D01*
X64718666Y-127033201D01*
X64923604Y-127167742D01*
X65150810Y-127317036D01*
X65267541Y-127393785D01*
X65501722Y-127547252D01*
X65716571Y-127687026D01*
X65904639Y-127808340D01*
X66058476Y-127906430D01*
X66170633Y-127976530D01*
X66233661Y-128013874D01*
X66244464Y-128018772D01*
X66272628Y-127989923D01*
X66332005Y-127911557D01*
X66414484Y-127794902D01*
X66511954Y-127651188D01*
X66534483Y-127617238D01*
X66632683Y-127470668D01*
X66716001Y-127350081D01*
X66776844Y-127266186D01*
X66807618Y-127229691D01*
X66809677Y-127229164D01*
X66829429Y-127266355D01*
X66875635Y-127359604D01*
X66944044Y-127500004D01*
X67030407Y-127678646D01*
X67130474Y-127886624D01*
X67239993Y-128115030D01*
X67354714Y-128354956D01*
X67470388Y-128597495D01*
X67582764Y-128833740D01*
X67687591Y-129054783D01*
X67780619Y-129251716D01*
X67857599Y-129415633D01*
X67914279Y-129537624D01*
X67946409Y-129608784D01*
X67952137Y-129623437D01*
X67939179Y-129634003D01*
X67896591Y-129640397D01*
X67818802Y-129642383D01*
X67700239Y-129639726D01*
X67535332Y-129632189D01*
X67318508Y-129619535D01*
X67044196Y-129601528D01*
X66706825Y-129577933D01*
X66461142Y-129560220D01*
X66189804Y-129539929D01*
X65942372Y-129520349D01*
X65727907Y-129502283D01*
X65555472Y-129486534D01*
X65434130Y-129473904D01*
X65372944Y-129465196D01*
X65367508Y-129463329D01*
X65378749Y-129427602D01*
X65422448Y-129342308D01*
X65492250Y-129218952D01*
X65581797Y-129069041D01*
X65616558Y-129012539D01*
X65711150Y-128855649D01*
X65787536Y-128720676D01*
X65839496Y-128619277D01*
X65860815Y-128563108D01*
X65859907Y-128556310D01*
X65824691Y-128531090D01*
X65736526Y-128471117D01*
X65602919Y-128381407D01*
X65431378Y-128266975D01*
X65229413Y-128132837D01*
X65004529Y-127984009D01*
X64894730Y-127911518D01*
X64661199Y-127757119D01*
X64446631Y-127614617D01*
X64258636Y-127489114D01*
X64104825Y-127385717D01*
X63992807Y-127309531D01*
X63930193Y-127265658D01*
X63920121Y-127257778D01*
X63921792Y-127214152D01*
X63958626Y-127132867D01*
X64019231Y-127030492D01*
X64092212Y-126923597D01*
X64166177Y-126828751D01*
X64229732Y-126762522D01*
X64271483Y-126741481D01*
X64274316Y-126742674D01*
G37*
G36*
X64285988Y-123599939D02*
G01*
X64289513Y-123601774D01*
X64334417Y-123629674D01*
X64431744Y-123692354D01*
X64573582Y-123784645D01*
X64752015Y-123901376D01*
X64959132Y-124037376D01*
X65187017Y-124187477D01*
X65287393Y-124253727D01*
X65519529Y-124405703D01*
X65732815Y-124542786D01*
X65919692Y-124660320D01*
X66072601Y-124753647D01*
X66183981Y-124818108D01*
X66246275Y-124849047D01*
X66256336Y-124850756D01*
X66288292Y-124814240D01*
X66351267Y-124729551D01*
X66436449Y-124608931D01*
X66535024Y-124464622D01*
X66544997Y-124449780D01*
X66641799Y-124307584D01*
X66723476Y-124191548D01*
X66782144Y-124112583D01*
X66809920Y-124081603D01*
X66810884Y-124081704D01*
X66830412Y-124118268D01*
X66876592Y-124211171D01*
X66945091Y-124351358D01*
X67031578Y-124529774D01*
X67131718Y-124737363D01*
X67241178Y-124965070D01*
X67355627Y-125203839D01*
X67470730Y-125444614D01*
X67582156Y-125678340D01*
X67685570Y-125895962D01*
X67776640Y-126088423D01*
X67851034Y-126246669D01*
X67904417Y-126361644D01*
X67932458Y-126424292D01*
X67935357Y-126431766D01*
X67941183Y-126452755D01*
X67939738Y-126469500D01*
X67924609Y-126481901D01*
X67889382Y-126489856D01*
X67827643Y-126493267D01*
X67732981Y-126492031D01*
X67598982Y-126486048D01*
X67419232Y-126475218D01*
X67187318Y-126459441D01*
X66896828Y-126438616D01*
X66541348Y-126412642D01*
X66493985Y-126409172D01*
X66217604Y-126388401D01*
X65965035Y-126368421D01*
X65745165Y-126350013D01*
X65566878Y-126333958D01*
X65439060Y-126321039D01*
X65370595Y-126312038D01*
X65361542Y-126309500D01*
X65372927Y-126273971D01*
X65416913Y-126189690D01*
X65486791Y-126068662D01*
X65575853Y-125922892D01*
X65591337Y-125898231D01*
X65687121Y-125746113D01*
X65770099Y-125614097D01*
X65831983Y-125515388D01*
X65864482Y-125463191D01*
X65865937Y-125460807D01*
X65847150Y-125428919D01*
X65771493Y-125363417D01*
X65637915Y-125263539D01*
X65445362Y-125128525D01*
X65192780Y-124957613D01*
X64923353Y-124779104D01*
X64686175Y-124622819D01*
X64467950Y-124478451D01*
X64276167Y-124350997D01*
X64118314Y-124245459D01*
X64001881Y-124166834D01*
X63934358Y-124120123D01*
X63920774Y-124109839D01*
X63923362Y-124065253D01*
X63964890Y-123974620D01*
X64040031Y-123849135D01*
X64057294Y-123822840D01*
X64144096Y-123697108D01*
X64204480Y-123624392D01*
X64248444Y-123595175D01*
X64285988Y-123599939D01*
G37*
G36*
X77902279Y-117612435D02*
G01*
X77902279Y-119293282D01*
X78019872Y-119389867D01*
X78127887Y-119488509D01*
X78269411Y-119632352D01*
X78433716Y-119809328D01*
X78610074Y-120007370D01*
X78787756Y-120214409D01*
X78956034Y-120418378D01*
X79104180Y-120607209D01*
X79116064Y-120622922D01*
X79585195Y-121299489D01*
X79990714Y-122001122D01*
X80334424Y-122732219D01*
X80618129Y-123497179D01*
X80843632Y-124300398D01*
X81012735Y-125146274D01*
X81038492Y-125311203D01*
X81062038Y-125518985D01*
X81080344Y-125782079D01*
X81093303Y-126084365D01*
X81100808Y-126409726D01*
X81102753Y-126742043D01*
X81099029Y-127065198D01*
X81089530Y-127363073D01*
X81074149Y-127619549D01*
X81055062Y-127802564D01*
X80900195Y-128676020D01*
X80682794Y-129513211D01*
X80402465Y-130314951D01*
X80058817Y-131082055D01*
X79651458Y-131815339D01*
X79179994Y-132515618D01*
X78644034Y-133183707D01*
X78266872Y-133594890D01*
X77903447Y-133971652D01*
X77902863Y-135536538D01*
X77902279Y-137101425D01*
X77655034Y-137101425D01*
X77527365Y-137098128D01*
X77429925Y-137089485D01*
X77383727Y-137077363D01*
X77383666Y-137077303D01*
X77378140Y-137036795D01*
X77373059Y-136932165D01*
X77368573Y-136771653D01*
X77364829Y-136563503D01*
X77361978Y-136315954D01*
X77360166Y-136037249D01*
X77359544Y-135740833D01*
X77359544Y-134428484D01*
X76952957Y-134719534D01*
X76240655Y-135186056D01*
X75498477Y-135587039D01*
X74725513Y-135922849D01*
X73920853Y-136193857D01*
X73083588Y-136400428D01*
X72565385Y-136493565D01*
X72384629Y-136519836D01*
X72214286Y-136539750D01*
X72039675Y-136554117D01*
X71846112Y-136563749D01*
X71618915Y-136569455D01*
X71343402Y-136572045D01*
X71136183Y-136572442D01*
X70822275Y-136571413D01*
X70566028Y-136567783D01*
X70352758Y-136560744D01*
X70167784Y-136549484D01*
X69996424Y-136533194D01*
X69823994Y-136511063D01*
X69706980Y-136493565D01*
X68945458Y-136349039D01*
X68224164Y-136156894D01*
X67524177Y-135911201D01*
X66826576Y-135606033D01*
X66738935Y-135563573D01*
X65997184Y-135160766D01*
X65297233Y-134700270D01*
X64641814Y-134185308D01*
X64033658Y-133619101D01*
X63475498Y-133004875D01*
X62970065Y-132345850D01*
X62520090Y-131645250D01*
X62128305Y-130906299D01*
X61797443Y-130132218D01*
X61571530Y-129466952D01*
X61428689Y-128949363D01*
X61320186Y-128451548D01*
X61243266Y-127953709D01*
X61195171Y-127436051D01*
X61173147Y-126878777D01*
X61171027Y-126590456D01*
X61171543Y-126565349D01*
X62074310Y-126565349D01*
X62104233Y-127351294D01*
X62202644Y-128138123D01*
X62370479Y-128921755D01*
X62578478Y-129611681D01*
X62669355Y-129850607D01*
X62790579Y-130132436D01*
X62933265Y-130439266D01*
X63088524Y-130753195D01*
X63247469Y-131056321D01*
X63401214Y-131330741D01*
X63540872Y-131558553D01*
X63557400Y-131583618D01*
X64041996Y-132247722D01*
X64575437Y-132859639D01*
X65155251Y-133417476D01*
X65778964Y-133919340D01*
X66444101Y-134363341D01*
X67148189Y-134747585D01*
X67888752Y-135070180D01*
X68313960Y-135221713D01*
X68862650Y-135383900D01*
X69418376Y-135509624D01*
X70001291Y-135602743D01*
X70631544Y-135667111D01*
X70647721Y-135668358D01*
X70812276Y-135674832D01*
X71030664Y-135674638D01*
X71284740Y-135668551D01*
X71556355Y-135657348D01*
X71827364Y-135641804D01*
X72079618Y-135622696D01*
X72294973Y-135600801D01*
X72330200Y-135596392D01*
X73098483Y-135460732D01*
X73856738Y-135256243D01*
X74597068Y-134986243D01*
X75311578Y-134654054D01*
X75992372Y-134262993D01*
X76631556Y-133816381D01*
X76710911Y-133754628D01*
X77006151Y-133522019D01*
X76124514Y-132943972D01*
X75930520Y-132816818D01*
X75684632Y-132655712D01*
X75395508Y-132466323D01*
X75071808Y-132254323D01*
X74722190Y-132025381D01*
X74355314Y-131785168D01*
X73979838Y-131539354D01*
X73604422Y-131293609D01*
X73307123Y-131099023D01*
X71371368Y-129832119D01*
X71360517Y-130029450D01*
X71349665Y-130226781D01*
X70085089Y-130226781D01*
X68820513Y-130226781D01*
X68820513Y-126608547D01*
X68820513Y-124048595D01*
X71353277Y-124048595D01*
X71353442Y-126622090D01*
X71353608Y-129195584D01*
X74383713Y-131179704D01*
X77413818Y-133163824D01*
X77682182Y-132880274D01*
X77825911Y-132723443D01*
X77988160Y-132538686D01*
X78143325Y-132355431D01*
X78212244Y-132271083D01*
X78620709Y-131715774D01*
X78994720Y-131113136D01*
X79326501Y-130478653D01*
X79608276Y-129827808D01*
X79832267Y-129176088D01*
X79912314Y-128885962D01*
X80078241Y-128089782D01*
X80173096Y-127290415D01*
X80196495Y-126491859D01*
X80180084Y-126074858D01*
X80094028Y-125257094D01*
X79940812Y-124465846D01*
X79720264Y-123700722D01*
X79432214Y-122961326D01*
X79076490Y-122247266D01*
X78652921Y-121558146D01*
X78161335Y-120893573D01*
X77693614Y-120351734D01*
X77445783Y-120083098D01*
X76181510Y-120905924D01*
X75910579Y-121082722D01*
X75659075Y-121247747D01*
X75433366Y-121396752D01*
X75239819Y-121525494D01*
X75084801Y-121629728D01*
X74974680Y-121705209D01*
X74915822Y-121747691D01*
X74907626Y-121755174D01*
X74923841Y-121792587D01*
X74974903Y-121878065D01*
X75053835Y-122000616D01*
X75153657Y-122149253D01*
X75207646Y-122227649D01*
X75314746Y-122383474D01*
X75404368Y-122516819D01*
X75469618Y-122617190D01*
X75503602Y-122674090D01*
X75506716Y-122682958D01*
X75469357Y-122687175D01*
X75368528Y-122694732D01*
X75213021Y-122705072D01*
X75011627Y-122717639D01*
X74773136Y-122731877D01*
X74506338Y-122747229D01*
X74374502Y-122754624D01*
X73252849Y-122817033D01*
X73071938Y-122933117D01*
X72990989Y-122985310D01*
X72860177Y-123069955D01*
X72690299Y-123180051D01*
X72492155Y-123308595D01*
X72276545Y-123448586D01*
X72122151Y-123548898D01*
X71353277Y-124048595D01*
X68820513Y-124048595D01*
X68820513Y-122990313D01*
X70086895Y-122990313D01*
X71353277Y-122990313D01*
X71353277Y-123192331D01*
X71359809Y-123319756D01*
X71379618Y-123377435D01*
X71394843Y-123380494D01*
X71435627Y-123357687D01*
X71528277Y-123300907D01*
X71664029Y-123215686D01*
X71834120Y-123107555D01*
X72029785Y-122982046D01*
X72187837Y-122879972D01*
X72939266Y-122393305D01*
X73345764Y-121452564D01*
X73453869Y-121203067D01*
X73555313Y-120970237D01*
X73645794Y-120763846D01*
X73721011Y-120593664D01*
X73776662Y-120469466D01*
X73808446Y-120401023D01*
X73810105Y-120397702D01*
X73867949Y-120283581D01*
X74225340Y-120805355D01*
X74376708Y-121021368D01*
X74492299Y-121175137D01*
X74572475Y-121267109D01*
X74617601Y-121297734D01*
X74623346Y-121295938D01*
X74661840Y-121269874D01*
X74754242Y-121208887D01*
X74893745Y-121117425D01*
X75073538Y-120999936D01*
X75286814Y-120860867D01*
X75526764Y-120704668D01*
X75786579Y-120535785D01*
X75848141Y-120495803D01*
X77032322Y-119726861D01*
X76894383Y-119611617D01*
X76362939Y-119206449D01*
X75773193Y-118828785D01*
X75136269Y-118485711D01*
X75098148Y-118467040D01*
X74392230Y-118155635D01*
X73689358Y-117912383D01*
X72978566Y-117734443D01*
X72248892Y-117618973D01*
X71633690Y-117569149D01*
X70865531Y-117559501D01*
X70126563Y-117608417D01*
X69401531Y-117717356D01*
X68888306Y-117831572D01*
X68503865Y-117936276D01*
X68147048Y-118051663D01*
X67794648Y-118186401D01*
X67423458Y-118349160D01*
X67138034Y-118485377D01*
X66435255Y-118868142D01*
X65778142Y-119305901D01*
X65161471Y-119802391D01*
X64732766Y-120205130D01*
X64188354Y-120799438D01*
X63704018Y-121431366D01*
X63280692Y-122096832D01*
X62919312Y-122791754D01*
X62620812Y-123512051D01*
X62386127Y-124253640D01*
X62216192Y-125012440D01*
X62111941Y-125784371D01*
X62074310Y-126565349D01*
X61171543Y-126565349D01*
X61182800Y-126017857D01*
X61217955Y-125494982D01*
X61279197Y-125002210D01*
X61369229Y-124519918D01*
X61490753Y-124028485D01*
X61554761Y-123804759D01*
X61828833Y-123005371D01*
X62165167Y-122239393D01*
X62560655Y-121509703D01*
X63012188Y-120819180D01*
X63516656Y-120170701D01*
X64070949Y-119567146D01*
X64671958Y-119011392D01*
X65316575Y-118506319D01*
X66001689Y-118054804D01*
X66724191Y-117659726D01*
X67480972Y-117323964D01*
X68268922Y-117050395D01*
X69073789Y-116844257D01*
X69417469Y-116775701D01*
X69731358Y-116723801D01*
X70035372Y-116686625D01*
X70349423Y-116662241D01*
X70693427Y-116648714D01*
X71087297Y-116644113D01*
X71136183Y-116644068D01*
X71536991Y-116647776D01*
X71885667Y-116660190D01*
X72202124Y-116683241D01*
X72506275Y-116718863D01*
X72818036Y-116768989D01*
X73157320Y-116835552D01*
X73198576Y-116844257D01*
X74004958Y-117051254D01*
X74792273Y-117324673D01*
X75553054Y-117661194D01*
X76279838Y-118057498D01*
X76965161Y-118510264D01*
X76997721Y-118533971D01*
X77341453Y-118785383D01*
X77359544Y-117369116D01*
X77377636Y-115952849D01*
X77639958Y-115942218D01*
X77902279Y-115931588D01*
X77902279Y-117612435D01*
G37*
D15*
X169500000Y-115400000D03*
D16*
X169500000Y-122200000D03*
D15*
X169500000Y-129000000D03*
D17*
X171600000Y-125150000D03*
X171600000Y-126950000D03*
X166200000Y-126950000D03*
X166200000Y-125150000D03*
D16*
X237500000Y-32500000D03*
X52500000Y-142500000D03*
D15*
X181400000Y-61450000D03*
D16*
X181400000Y-68250000D03*
D15*
X181400000Y-75050000D03*
D17*
X183500000Y-71200000D03*
X183500000Y-73000000D03*
X178100000Y-73000000D03*
X178100000Y-71200000D03*
D15*
X237000000Y-88000000D03*
D16*
X237000000Y-94800000D03*
D15*
X237000000Y-101600000D03*
D17*
X239100000Y-97750000D03*
X239100000Y-99550000D03*
X233700000Y-99550000D03*
X233700000Y-97750000D03*
D18*
X191880000Y-28550000D03*
X194420000Y-28550000D03*
X196960000Y-28550000D03*
X199500000Y-28550000D03*
D15*
X208000000Y-88000000D03*
D16*
X208000000Y-94800000D03*
D15*
X208000000Y-101600000D03*
D17*
X210100000Y-97750000D03*
X210100000Y-99550000D03*
X204700000Y-99550000D03*
X204700000Y-97750000D03*
D19*
X52250000Y-52000000D03*
D20*
X52250000Y-56900000D03*
D21*
X55100000Y-50950000D03*
X55100000Y-53450000D03*
X55100000Y-55450000D03*
D22*
X52600000Y-46825000D03*
X46600000Y-46825000D03*
D21*
X55100000Y-57950000D03*
D22*
X52600000Y-62075000D03*
X46600000Y-62075000D03*
D15*
X209000000Y-61000000D03*
D16*
X209000000Y-67800000D03*
D15*
X209000000Y-74600000D03*
D17*
X211100000Y-70750000D03*
X211100000Y-72550000D03*
X205700000Y-72550000D03*
X205700000Y-70750000D03*
D15*
X150500000Y-93500000D03*
D16*
X150500000Y-100300000D03*
D15*
X150500000Y-107100000D03*
D17*
X152600000Y-103250000D03*
X152600000Y-105050000D03*
X147200000Y-105050000D03*
X147200000Y-103250000D03*
D23*
X75750000Y-38000000D03*
X75750000Y-30000000D03*
X80250000Y-38000000D03*
X80250000Y-30000000D03*
D24*
X127160000Y-28626000D03*
D25*
X128060000Y-28626000D03*
D24*
X127160000Y-31166000D03*
D25*
X128060000Y-31166000D03*
D24*
X127160000Y-33706000D03*
D25*
X128060000Y-33706000D03*
D24*
X127160000Y-36246000D03*
D25*
X128060000Y-36246000D03*
D24*
X127160000Y-38786000D03*
D25*
X128060000Y-38786000D03*
D24*
X127210000Y-41326000D03*
D25*
X128060000Y-41326000D03*
D24*
X127210000Y-43866000D03*
D25*
X128060000Y-43866000D03*
D24*
X127210000Y-46406000D03*
D25*
X128060000Y-46406000D03*
D24*
X127210000Y-48946000D03*
D25*
X128060000Y-48946000D03*
X143300000Y-28626000D03*
D24*
X144200000Y-28626000D03*
D25*
X143300000Y-31166000D03*
D24*
X144200000Y-31166000D03*
D25*
X143300000Y-33706000D03*
D24*
X144200000Y-33706000D03*
D25*
X143300000Y-36246000D03*
D24*
X144200000Y-36246000D03*
D25*
X143300000Y-38786000D03*
D24*
X144200000Y-38786000D03*
D25*
X143300000Y-41326000D03*
D24*
X144200000Y-41326000D03*
D25*
X143300000Y-43866000D03*
D24*
X144200000Y-43866000D03*
D25*
X143300000Y-46406000D03*
D24*
X144200000Y-46406000D03*
D25*
X143300000Y-48946000D03*
D24*
X144200000Y-48946000D03*
D25*
X130600000Y-48946000D03*
D24*
X130600000Y-49846000D03*
D25*
X133140000Y-48946000D03*
D24*
X133140000Y-49796000D03*
D25*
X135680000Y-48946000D03*
D24*
X135680000Y-49796000D03*
D25*
X138220000Y-48946000D03*
D24*
X138220000Y-49796000D03*
D25*
X140760000Y-48946000D03*
D24*
X140760000Y-49796000D03*
D26*
X130070000Y-34112600D03*
X130070000Y-35379800D03*
X130070000Y-36646400D03*
X130070000Y-37913000D03*
X130070000Y-39179600D03*
X130070000Y-40446200D03*
X130070000Y-41712800D03*
X130070000Y-42979400D03*
X130070000Y-44246000D03*
X130070000Y-45512600D03*
D23*
X67250000Y-38000000D03*
X67250000Y-30000000D03*
X71750000Y-38000000D03*
X71750000Y-30000000D03*
D15*
X236800000Y-60950000D03*
D16*
X236800000Y-67750000D03*
D15*
X236800000Y-74550000D03*
D17*
X238900000Y-70700000D03*
X238900000Y-72500000D03*
X233500000Y-72500000D03*
X233500000Y-70700000D03*
D15*
X106100000Y-35650000D03*
D16*
X106100000Y-42450000D03*
D15*
X106100000Y-49250000D03*
D17*
X108200000Y-45400000D03*
X108200000Y-47200000D03*
X102800000Y-47200000D03*
X102800000Y-45400000D03*
D15*
X154500000Y-65400000D03*
D16*
X154500000Y-72200000D03*
D15*
X154500000Y-79000000D03*
D17*
X156600000Y-75150000D03*
X156600000Y-76950000D03*
X151200000Y-76950000D03*
X151200000Y-75150000D03*
D15*
X164400000Y-35450000D03*
D16*
X164400000Y-42250000D03*
D15*
X164400000Y-49050000D03*
D17*
X166500000Y-45200000D03*
X166500000Y-47000000D03*
X161100000Y-47000000D03*
X161100000Y-45200000D03*
D16*
X237500000Y-142500000D03*
D15*
X72400000Y-65450000D03*
D16*
X72400000Y-72250000D03*
D15*
X72400000Y-79050000D03*
D17*
X74500000Y-75200000D03*
X74500000Y-77000000D03*
X69100000Y-77000000D03*
X69100000Y-75200000D03*
D15*
X127400000Y-73950000D03*
D16*
X127400000Y-80750000D03*
D15*
X127400000Y-87550000D03*
D17*
X129500000Y-83700000D03*
X129500000Y-85500000D03*
X124100000Y-85500000D03*
X124100000Y-83700000D03*
D23*
X84250000Y-38000000D03*
X84250000Y-30000000D03*
X88750000Y-38000000D03*
X88750000Y-30000000D03*
D15*
X139500000Y-124000000D03*
D16*
X139500000Y-130800000D03*
D15*
X139500000Y-137600000D03*
D17*
X141600000Y-133750000D03*
X141600000Y-135550000D03*
X136200000Y-135550000D03*
X136200000Y-133750000D03*
D23*
X58750000Y-38000000D03*
X58750000Y-30000000D03*
X63250000Y-38000000D03*
X63250000Y-30000000D03*
D15*
X179400000Y-88250000D03*
D16*
X179400000Y-95050000D03*
D15*
X179400000Y-101850000D03*
D17*
X181500000Y-98000000D03*
X181500000Y-99800000D03*
X176100000Y-99800000D03*
X176100000Y-98000000D03*
D16*
X157500000Y-142500000D03*
X52500000Y-32500000D03*
D15*
X100400000Y-62950000D03*
D16*
X100400000Y-69750000D03*
D15*
X100400000Y-76550000D03*
D17*
X102500000Y-72700000D03*
X102500000Y-74500000D03*
X97100000Y-74500000D03*
X97100000Y-72700000D03*
D15*
X58000000Y-91500000D03*
D16*
X58000000Y-98300000D03*
D15*
X58000000Y-105100000D03*
D17*
X60100000Y-101250000D03*
X60100000Y-103050000D03*
X54700000Y-103050000D03*
X54700000Y-101250000D03*
%LPD*%
M02*
